<svg width="176" height="175" viewBox="0 0 176 175" fill="none" xmlns="http://www.w3.org/2000/svg">
<path d="M39.0138 81.4506C39.3251 84.8883 42.366 87.4424 45.8058 87.1553C49.2457 86.8682 51.7818 83.8487 51.4705 80.411L45.2422 80.9308L39.0138 81.4506ZM123.678 74.3848C123.989 77.8225 127.03 80.3766 130.47 80.0895C133.91 79.8025 136.446 76.7829 136.135 73.3452L129.907 73.865L123.678 74.3848ZM45.2422 80.9308L51.4705 80.411L46.0342 20.3762L39.8058 20.8959L33.5775 21.4157L39.0138 81.4506L45.2422 80.9308ZM39.8058 20.8959L46.0342 20.3762C46.0119 20.1304 46.0761 19.665 46.6029 19.124L42.105 14.7532L37.6071 10.3824C34.7884 13.2771 33.1985 17.2309 33.5775 21.4157L39.8058 20.8959ZM42.105 14.7532L46.6029 19.124C47.156 18.5559 48.104 18.0592 49.289 17.9603L48.7254 11.7358L48.1617 5.51122C44.2143 5.84066 40.3994 7.51475 37.6071 10.3824L42.105 14.7532ZM48.7254 11.7358L49.289 17.9603L114.601 12.5095L114.038 6.28501L113.474 0.0604764L48.1617 5.51122L48.7254 11.7358ZM114.038 6.28501L114.601 12.5095C115.787 12.4106 116.81 12.7429 117.457 13.2108L121.101 8.16045L124.746 3.11012C121.48 0.748044 117.422 -0.26896 113.474 0.0604764L114.038 6.28501ZM121.101 8.16045L117.457 13.2108C118.073 13.6564 118.22 14.1042 118.242 14.35L124.47 13.8302L130.698 13.3104C130.32 9.12555 128.043 5.49447 124.746 3.11012L121.101 8.16045ZM124.47 13.8302L118.242 14.35L123.678 74.3848L129.907 73.865L136.135 73.3452L130.698 13.3104L124.47 13.8302Z" fill="currentColor"/>
<path d="M19.3522 102.018H157.352L152.125 157.284C151.843 160.263 149.74 163.062 146.247 165.108C142.753 167.155 138.133 168.294 133.332 168.293H43.3726C38.5715 168.294 33.9513 167.155 30.4577 165.108C26.964 163.062 24.8611 160.263 24.5795 157.284L19.3522 102.018Z" fill="none" stroke="currentColor" stroke-width="12.5" stroke-linecap="round" stroke-linejoin="round"/>
<path d="M159.846 80.746H15.6538C10.4602 80.746 6.25 84.4146 6.25 88.9401V91.6714C6.25 96.1969 10.4602 99.8655 15.6538 99.8655H159.846C165.04 99.8655 169.25 96.1969 169.25 91.6714V88.9401C169.25 84.4146 165.04 80.746 159.846 80.746Z" fill="none" stroke="currentColor" stroke-width="12.5" stroke-linecap="round" stroke-linejoin="round"/>
<path d="M68.7617 49.1816L84.2286 59.4994L103.888 33.2933" fill="none" stroke="currentColor" stroke-width="12.5" stroke-linecap="round" stroke-linejoin="round"/>
</svg>
