<svg xmlns="http://www.w3.org/2000/svg" viewBox="0 0 300 300"><text xml:space="preserve" x="1016.213" y="733.421" style="font-size:20px;font-family:Plantagenet Cherokee;fill:#000" transform="translate(0 -689.998)">
      
    </text><g style="fill:#d5d5d5"><path d="M116.37 838.02c-12.35 0-23.442 5.265-31.237 13.647l-121.78 98.892C-47.18 962.636-53.58 978.43-53.58 995.714c0 37.96 30.777 68.737 68.737 68.737 25.274 0 47.364-13.661 59.304-33.982l23.583-38.621 43.183 4.949-.502 1.12a68.7 68.7 0 0 0-3.79 22.54c0 37.96 30.778 68.737 68.738 68.737 37.06 0 67.249-29.355 68.66-66.07l2.822-122.44a43 43 0 0 0 .232-4.6c0-.922-.02-1.84-.078-2.746l.038-1.971-.193-.039c-2.36-21.344-20.475-37.964-42.449-37.964-17.052 0-31.74 10.019-38.583 24.472h-.077l-14.459 31.353-28.26-7.268c.904-1.603 1.755-3.225 2.513-4.91 2.08-5.025 3.21-10.538 3.21-16.314 0-23.579-19.103-42.68-42.68-42.68zm-11.946 10.4-73.879 79.175-30.928 2.822 95.103-78.48zm107.98 17.513-22.075 89.227-24.742 11.482 40.632-95.413zm-197.24 74.77c30.368 0 55.013 24.645 55.013 55.013s-24.645 54.974-55.013 54.974-54.974-24.606-54.974-54.974 24.606-55.013 54.974-55.013m190.52 24.742c30.368 0 55.013 24.645 55.013 55.013s-24.645 54.974-55.013 54.974-54.974-24.607-54.974-54.974c0-30.368 24.606-55.013 54.974-55.013m-155.41 4.678c-4.878 33.073-24.482 58.046-49.214 59.304-6.596.336-13.052-1.006-19.059-3.827 8.557 10.305 21.702 16.584 36.108 15.85 24.263-1.235 42.949-21.898 41.714-46.16-.486-9.552-4.005-18.223-9.549-25.168zm190.52 24.742c-4.878 33.073-24.482 58.046-49.214 59.304-6.596.335-13.052-1.007-19.059-3.828 8.557 10.306 21.702 16.585 36.108 15.852 24.263-1.235 42.949-21.897 41.714-46.16-.486-9.552-4.005-18.223-9.549-25.168z" style="fill:#000" transform="translate(53.098 -678.622)scale(.87024)"/></g><text xml:space="preserve" x="552.857" y="748.571" style="font-size:20px;font-family:Plantagenet Cherokee;fill:#000" transform="translate(0 -689.998)">
      
    </text></svg>