<?xml version="1.0" encoding="utf-8"?>
<svg viewBox="0 0 500 500" xmlns="http://www.w3.org/2000/svg">
  <g transform="matrix(0.359465, 0, 0, 0.359465, -4.152334, 73.695122)" style="">
    <path d="M 460.637 484.345 C 460.637 510.857 439.149 532.345 412.637 532.345 C 386.129 532.345 364.637 510.857 364.637 484.345 C 364.637 457.837 386.129 436.345 412.637 436.345 C 439.149 436.345 460.637 457.837 460.637 484.345"/>
    <path d="M 685.45 398.741 C 685.45 425.253 663.958 446.741 637.45 446.741 C 610.942 446.741 589.45 425.253 589.45 398.741 C 589.45 372.233 610.942 350.741 637.45 350.741 C 663.958 350.741 685.45 372.233 685.45 398.741"/>
    <path d="m612 1064.4c-265.2 0-480-225.6-460.8-495.6 15.602-228 200.4-411.6 428.4-428.4 264-18 484.8 186 494.4 444 0 9.6016 8.3984 16.801 18 16.801 9.6016 0 18-8.3984 18-18-10.797-277.2-249.6-498-534-477.6-244.8 16.801-444 216-460.8 460.8-20.398 291.6 210 534 496.8 534 237.6 0 438-168 486-392.4 2.3984-10.801-6-21.602-18-21.602-8.3984 0-15.602 6-18 14.398-44.398 207.6-229.2 363.6-450 363.6z"/>
    <path d="m1110 644.4c0 10.605-8.5977 19.203-19.199 19.203-10.605 0-19.199-8.5977-19.199-19.203 0-10.602 8.5938-19.199 19.199-19.199 10.602 0 19.199 8.5977 19.199 19.199"/>
    <path d="M 780.028 807.127 C 780.028 855.6 737.108 894.888 684.152 894.888 C 631.204 894.888 588.275 855.6 588.275 807.127 C 588.275 758.66 631.204 719.365 684.152 719.365 C 737.108 719.365 780.028 758.66 780.028 807.127" style=""/>
    <text style="white-space: pre; fill: rgb(51, 51, 51); font-family: Arial, sans-serif; font-size: 106.1px;" x="1173.275" y="354.525" transform="matrix(5.340424, 0, 0, 5.244065, -5230.163574, -1498.505859)">?</text>
  </g>
</svg>