<svg xmlns="http://www.w3.org/2000/svg" viewBox="0 0 500 500"><path d="M161.43 247.8c0 9.53-7.724 17.255-17.254 17.255-9.528 0-17.254-7.725-17.254-17.255s7.726-17.254 17.254-17.254c9.53 0 17.255 7.725 17.255 17.254M242.243 217.029c0 9.53-7.726 17.254-17.254 17.254-9.53 0-17.255-7.724-17.255-17.254s7.726-17.255 17.255-17.255 17.254 7.726 17.254 17.255"/><path d="M215.84 456.31c-95.33 0-172.543-81.096-165.641-178.151 5.608-81.958 72.037-147.956 153.995-153.995 94.898-6.47 174.268 66.86 177.72 159.602 0 3.452 3.018 6.04 6.47 6.04 3.45 0 6.47-3.02 6.47-6.47-3.881-99.644-89.723-179.014-191.954-171.681-87.998 6.04-159.603 77.644-165.642 165.641-7.332 104.82 75.488 191.955 178.582 191.955 85.41 0 157.446-60.39 174.7-141.054.862-3.883-2.157-7.765-6.47-7.765-3.02 0-5.609 2.156-6.47 5.175-15.96 74.625-82.39 130.702-161.76 130.702z"/><path d="M394.854 305.334a6.902 6.902 0 1 1-13.803 0 6.901 6.901 0 1 1 13.803 0M276.24 363.829c0 17.424-15.428 31.547-34.464 31.547-19.033 0-34.464-14.123-34.464-31.547 0-17.422 15.431-31.547 34.464-31.547 19.036 0 34.464 14.125 34.464 31.547"/><text x="1173.275" y="354.525" style="white-space:pre;fill:#333;font-family:Arial,sans-serif;font-size:106.1px" transform="matrix(1.9197 0 0 1.88506 -1884.213 -464.965)">?</text></svg>