<svg xmlns="http://www.w3.org/2000/svg" viewBox="0 0 510 400"><defs><linearGradient id="a" x1="204.68" x2="504.68" y1="242.92" y2="242.92" gradientUnits="userSpaceOnUse"><stop offset="0" stop-color="#0080fc"/><stop offset="1" stop-color="#0080fc" stop-opacity="0"/></linearGradient><linearGradient id="b" x1="354.68" x2="654.68" y1="242.94" y2="242.94" gradientUnits="userSpaceOnUse"><stop offset="0" stop-color="#00c4fc"/><stop offset="1" stop-color="#00c4fc" stop-opacity="0"/></linearGradient><linearGradient id="c" x1="54.68" x2="354.68" y1="242.94" y2="242.94" gradientUnits="userSpaceOnUse"><stop offset="0" stop-color="#0050fc"/><stop offset="1" stop-color="#0050fc" stop-opacity="0"/></linearGradient><linearGradient id="d" x1="204.68" x2="504.68" y1="242.92" y2="242.92" gradientUnits="userSpaceOnUse"><stop offset="0" stop-color="#18fcfc"/><stop offset="1" stop-color="#18fcfc" stop-opacity="0"/></linearGradient><linearGradient id="e" x1="54.68" x2="654.68" y1="540.53" y2="540.53" gradientUnits="userSpaceOnUse"><stop offset="0" stop-color="#009cfc"/><stop offset="1" stop-color="#009cfc" stop-opacity="0"/></linearGradient><linearGradient id="f" x1="204.68" x2="504.68" y1="548.54" y2="548.54" gradientUnits="userSpaceOnUse"><stop offset="0" stop-color="#0074fc"/><stop offset="1" stop-color="#0074fc" stop-opacity="0"/></linearGradient><linearGradient id="g" x1="54.68" x2="354.68" y1="442.94" y2="442.94" gradientUnits="userSpaceOnUse"><stop offset="0" stop-color="#0038fc"/><stop offset="1" stop-color="#0038fc" stop-opacity="0"/></linearGradient><linearGradient id="h" x1="354.68" x2="654.68" y1="442.94" y2="442.94" gradientUnits="userSpaceOnUse"><stop offset="0" stop-color="#00d0fc"/><stop offset="1" stop-color="#00d0fc" stop-opacity="0"/></linearGradient></defs><g fill-rule="evenodd"><path fill="#0000b8" d="M5 145.176 255.862 397.49l249.14-254.806L348.27 2.525 166.741 4.067z"/><path fill="url(#a)" d="M355.27 342.65c-50.2-66.49-100.39-132.46-150.59-198.95l300-.522c-49.804 66.667-99.608 132.81-149.41 199.48z" transform="translate(24.289 -90.61)scale(.65048)"/><path fill="url(#b)" d="M505.27 143.18c-50.196 66.493-100.39 132.99-150.59 199.48 100 .174 200-.174 300 0-49.804-66.667-99.608-132.81-149.41-199.48" transform="translate(24.289 -90.61)scale(.65048)"/><path fill="url(#c)" d="M205.27 143.18c-50.196 66.493-100.39 132.99-150.59 199.48 100 .174 200-.174 300 0-49.804-66.667-99.608-132.81-149.41-199.48" transform="translate(24.289 -90.61)scale(.65048)"/><path fill="url(#d)" d="M355.27 143.18c-50.196 66.493-100.39 132.46-150.59 198.96l300 .522c-49.8-66.67-99.61-132.82-149.41-199.48z" transform="translate(24.289 -90.61)scale(.65048)"/><path fill="url(#e)" d="M350.37 742.36 54.68 338.7l600 3.85z" transform="translate(24.289 -90.61)scale(.65048)"/><path fill="url(#f)" d="M355.27 750.37c-50.2-134.55-100.39-268.05-150.59-402.6l300-1.055c-49.804 134.9-99.608 268.75-149.41 403.66z" transform="translate(24.289 -90.61)scale(.65048)"/><path fill="url(#g)" d="M205.27 542.7c-50.2-66.49-100.39-132.98-150.59-199.47 100-.174 200 .174 300 0-49.804 66.667-99.608 132.81-149.41 199.48z" transform="translate(24.289 -90.61)scale(.65048)"/><path fill="url(#h)" d="M505.27 542.7c-50.196-66.493-100.39-132.99-150.59-199.48 100-.174 200 .174 300 0-49.804 66.667-99.608 132.81-149.41 199.48" transform="translate(24.289 -90.61)scale(.65048)"/><path fill="#fff" d="m296.56 81.736 2.045-11.12-9.618-5.944 11.208-1.49 2.681-10.985 4.881 10.198 11.275-.844-8.19 7.793 4.287 10.462-9.943-5.38z"/></g></svg>