<svg xmlns="http://www.w3.org/2000/svg" viewBox="0 0 72 72"><path fill="#ea5a47" d="M59.5 25c0-6.904-5.596-12.5-12.5-12.5a12.5 12.5 0 0 0-11 6.56 12.5 12.5 0 0 0-11-6.56c-6.904 0-12.5 5.596-12.5 12.5 0 2.97 1.04 5.694 2.77 7.839l-.004.003L36 58.54l20.734-25.698-.004-.003A12.44 12.44 0 0 0 59.5 25"/><path fill="none" stroke="#000" stroke-linejoin="round" stroke-miterlimit="10" stroke-width="2" d="M59.5 25c0-6.904-5.596-12.5-12.5-12.5a12.5 12.5 0 0 0-11 6.56 12.5 12.5 0 0 0-11-6.56c-6.904 0-12.5 5.596-12.5 12.5 0 2.97 1.04 5.694 2.77 7.839l-.004.003L36 58.54l20.734-25.698-.004-.003A12.44 12.44 0 0 0 59.5 25z"/></svg>