<svg xmlns="http://www.w3.org/2000/svg" viewBox="0 0 169.49 82.015"><title>Clé</title><g fill="#fff" stroke="#000" stroke-dashoffset="3.003" stroke-linecap="round" stroke-linejoin="round"><path stroke-width="2" d="M687.21 362.13c-9.726.069-19.447 4.207-26.286 11.375-12.251 12.275-14.681 32.888-6.58 48.188 6.915 13.842 22.599 22.249 37.618 20.125 13.315-1.6 24.544-11.487 29.697-23.938l9.533 5.469c2.792 1.741 4.357-.444 4.356-3l-.183-10.22 10.843.25 7.371 6.938 9.595-9.715 8.772 8.372h6.488l8.985-9 6.505 5.498 8.278-.347 7.182-6.903 7.732-7.124c-1.311-4.368-5.048-7.07-11.909-10.086l-70.36.555-.426-7.78c-.033-2.777-3.37-3.945-5.543-2.5l-7.92 6.468c-4.169-9.04-11.57-16.515-20.742-20.125-4.153-1.743-8.585-2.531-13.006-2.5z" style="stroke:#545454;stroke-width:2.5;fill:#fd5" transform="translate(-648.63 -361.129)"/><path stroke-width="2" d="M678.74 400.93c.105 4.099-3.21 8.08-7.45 8.564-3.42.458-6.996-1.36-8.57-4.348-1.846-3.302-1.29-7.75 1.5-10.399 2.265-2.25 5.918-3.113 8.946-1.909 3.172 1.183 5.43 4.287 5.56 7.584q.014.255.014.509z" style="stroke:#545454" transform="translate(-648.63 -361.129)"/><path d="m718 401.1 96.401-1.26-3.842 3.414-81.86 1.197z" style="stroke:#545454;fill:#fea" transform="translate(-648.63 -361.129)"/></g></svg>