<svg xmlns="http://www.w3.org/2000/svg" viewBox="0 0 72 72"><path fill="#f1b31c" d="m26.18 20.18 12.57 12.57 12.57 12.57-21.53 8.96-21.53 8.96 8.96-21.53z"/><path fill="#fcea2b" d="M40 35 25.692 20.67l-9.3 21.87L7.09 64.41z"/><path fill="#ea5a47" d="m15.224 45.285 11.062 11.062-5.531 2.251-7.797-7.797z"/><path fill="#d22f27" d="m17.343 55.248 3.412 3.35 5.53-2.251-4.8-4.801z"/><path fill="#ea5a47" d="m20.805 32.163 6.696 6.696 11.7 11.7-6.274 2.863-8.171-8.172-6.606-6.605z"/><path fill="#d22f27" d="m26.537 47.031 6.39 6.39 6.273-2.863-7.838-7.838z"/><ellipse cx="30.295" cy="14.458" fill="#8967aa" rx="2" ry="1.971"/><ellipse cx="60.295" cy="18.458" fill="#f1b31c" rx="2" ry="1.971"/><ellipse cx="57.295" cy="39.458" fill="#d22f27" rx="2" ry="1.971"/><g fill="none" stroke="#000" stroke-linecap="round" stroke-linejoin="round" stroke-miterlimit="10" stroke-width="2"><path d="m50.663 45.64.168.168-21.87 9.3L7.09 64.41l9.3-21.87 9.301-21.87M25.801 20.778l12.46 12.46L50.664 45.64M25.692 20.669l.109.109M46.49 7.367c.235.449.403.943.49 1.473.451 2.747-1.447 5.414-4.239 5.957"/><path d="M42.933 14.776a4.9 4.9 0 0 0-1.51.364c-2.569 1.072-3.827 4.093-2.81 6.75M61.793 26.717a4.9 4.9 0 0 1-.543 1.454c-1.372 2.423-4.523 3.31-7.037 1.98"/><path d="M54.375 30.256a4.9 4.9 0 0 0-1.404-.663c-2.673-.778-5.549.787-6.422 3.493"/></g></svg>