<svg xmlns="http://www.w3.org/2000/svg" xml:space="preserve" viewBox="0 0 277.433 253.5"><path d="M269.99 16.446c11.514 10.547 7.726 33.31 1.663 45.651-9.559 19.459-32.822 21.546-51.841 19.009-2.021 22.636-2.369 45.377-2.399 68.09-.015 10.891.025 21.781.025 32.672v16.143c0 4.35 1.145 5.354 5.544 5.098 2.975-.172 12.557-3.239 12.893 1.706.221 3.245-2.241 9.014-.016 11.713 1.997 2.421 5.807 3.181 8.67 3.993 3.729 1.058 7.776 3.027 11.667 3.265 2.984.182 1.435 5.441 1.368 7.535-.148 4.68.078 9.268.319 13.928.24 4.638-1.359 4.189-5.543 4.594-21.966 2.125-44.538.341-66.583.291-22.807-.052-45.619.078-68.409 1.014-22.082.906-44.168.835-66.252 1.523-9 .28-18.09.771-27.071.831-3.313.022-3.382-1.347-2.935-4.079.726-4.434.467-8.914.467-13.398 0-2.373-1.074-7.706 1.34-9.398 2.938-2.061 7.151-2.742 10.401-4.265 9.135-4.276 6.441-7.791 6.591-16.34.073-4.137 5.426-1.096 8.395-1.154 4.361-.087 2.593-4.402 2.559-7.859-.064-6.333-.206-12.665-.382-18.995-.639-23.031-1.182-46.073-2.019-69.097q-.293-8.1-.472-16.204c-.058-2.589 1.452-11.419-2.132-11.275-8.722.349-17.113-.684-25.05-4.56C-12.653 60.564-3.604 8.389 32.614 2.491c9.309-1.516 19.017-.612 28.399-.511 11.773.126 23.546.163 35.32.157 23.119-.013 46.238-.115 69.354-.556 20.23-.387 40.49-1.583 60.72-1.564 16.25.015 33.19 3.013 43.58 16.446"/><path d="M263.5 12.805c17.229 17.231 13.408 52.826-9.883 63.111-11.111 4.906-29.468 6.652-39.829-.784-4.768-3.42-10.636-8.188-13.193-13.588-2.79-5.893-.708-14.659 1.955-20.272 5.144-10.839 15.963-19.15 28.248-18.245 13.067.963 21.35 10.229 19.214 23.444-1.684 10.42-12.965 22.841-24.252 15.978-4.984-3.032-8.286-9.521-6.396-15.307 1.08-3.303 8.425-8.779 10.105-2.996-3.617-.933-3.468 5.562-2.88 7.464 1.694 5.481 8.471 5.282 12.069 1.689 10.924-10.907-4.807-28.457-17.827-22.066-15.255 7.487-15.464 27.982-1.153 36.475 13.494 8.008 31.806 1.371 39.313-11.699 6.751-11.753 4.543-29.552-5.98-38.545-6.412-5.48-16.133-5.78-24.13-6.6-11.38-1.164-22.82-1.253-34.23-.984-45.654 1.077-91.252 2.635-136.93 2.865-10.516.053-26.706-3.068-35.7 3.59-8.958 6.631-14.406 18.555-13.123 29.63 2.465 21.27 26.852 34.439 45.764 23.854 8.379-4.689 14.601-13.668 13.483-23.559-1.048-9.266-8.71-17.296-18.334-17.278-10.437.02-18.804 10.469-13.622 20.189 2.062 3.867 8.494 5.687 11.636 1.998 2.241-2.63 1.254-7.959-2.931-7.419 4.833-5.223 11.914 1.513 11.38 7.142-.623 6.566-7.648 11.135-13.593 12.024-15.159 2.267-23.777-11.625-20.532-25.271 3.998-16.809 21.359-21.542 36.573-17.014 17.902 5.329 19.484 20.76 13.54 36.295C59.804 89.49 7.185 84.666 2.155 49.499c-2.4-16.776 6.42-36.324 22.822-42.628 7.058-2.713 14.77-2.768 22.225-2.692 10.943.111 21.887.248 32.831.312 32.615.19 65.303.147 97.908-.728 16.363-.439 32.709-1.273 49.082-.806 12.32.352 27.12.55 36.47 9.848" style="fill:#bfbfbf"/><path d="M258.75 31.246c3.035 11.892-.551 27.027-11.674 33.584-10.348 6.101-28.37 4.505-33.847-7.551-4.545-10.002 2.436-25.982 14.791-24.727 6.887.7 10.927 5.838 10.588 12.623-.167 3.326-.945 6.588-4.631 7.439-3.448.796-6.992-1.519-4.906-5.223 4.045 5.535 5.103-6.75-1.358-8.312-6.246-1.511-10.79 3.854-10.992 9.564-.493 13.941 14.36 23.351 26.353 15.28 11.628-7.826 13.93-28.233 3.285-37.841-6.293-5.681-15.592-6.508-23.673-6.923-11.101-.57-22.227.536-33.31 1.041-22.333 1.019-44.661 2.149-66.996 3.14-10.522.466-21.048.829-31.577 1.124q-7.61.214-15.223.378c-5.138.109-9.622-3.251-14.107-5.271-13.721-6.181-33.438-2.347-40.341 11.952-5.646 11.696-1.719 30.13 12.218 33.742 10.756 2.788 31.213-5.459 25.068-19.708-2.384-5.527-9.835-7.564-14.897-4.53-1.53.917-5.698 8.159-1.748 6.881 1.042-.337 1.828-1.721 3.053-1.544 2.031.294 1.867 1.657.453 2.672-6.196 4.449-9.433-4.01-7.865-8.951 2.52-7.944 13.175-10.17 19.805-6.519 13.573 7.474 8.818 25.74-2.296 32.597-14.444 8.912-34.788 3.045-41.537-12.791-5.947-13.95 1.85-34.279 17.474-37.788 9.506-2.136 20.457-.466 30.129-.384q18.116.154 36.232.044c23.102-.14 46.172-.626 69.248-1.748 19.153-.93 38.758-2.352 57.946-1.18 12.75.779 31.53 3.641 34.33 18.93" style="fill:gray"/><path d="M216.96 22.065c-4.189 1.457-6.926 5.1-10.035 8.035-3.926 3.706-7.758 3.477-12.894 3.057-13.75-1.124-27.989-.009-41.786.081-14.754.095-29.439.667-44.163 1.609-7.355.471-14.71.961-22.071 1.337-3.388.173-7.721 1.855-8.424-1.65-.532-2.656-2.151-4.901-3.401-7.245 25.986-.478 51.909-1.521 77.857-2.958 12.748-.706 25.585-1.691 38.35-1.883 5.152-.078 10.293.221 15.423-.352 3.29-.367 8.01-1.54 11.15-.031" style="fill:#5e5e5e"/><path d="M202.56 35.282c-3.06 6.708-6.111 13.132-5.917 20.674.065 2.534.354 5.179 1.679 7.404 1.462 2.459 4.185 3.993 4.92 6.893 1.413 5.582-.519 12.133-.678 17.817-.233 8.271-.503 16.542-.691 24.813-.373 16.291-.483 32.586-.646 48.88-.081 8.149-.175 16.3-.321 24.449-.058 3.206 1.931 16.342-2.582 17.381-4.207.97-9.048 1.308-9.19-3.83-.206-7.431.059-14.804.187-22.237.296-17.278.149-34.562.442-51.841.278-16.383.703-32.763 1.037-49.146.156-7.656.222-15.316.411-22.972.161-6.488-5.237-11.803-7.485-17.813 6.07-2.023 12.62.043 18.84-.467m-52.636.391c-1.179 5.098-7.83 6.24-8.979 10.95-1.648 6.761-.583 15.063-.745 22.007-.406 17.411-.884 34.822-.57 52.239.308 17.057.717 34.095.717 51.156v24.028c0 7.207.133 7.996-7.093 7.5-6.914-.475-3.747-15.828-3.729-20.809l.178-50.773c.061-17.404-.096-34.828.439-52.226.247-8.041.696-16.035.593-24.084-.11-8.56-2.827-11.851-8.037-18.326 9.04-1.163 18.18-.627 27.23-1.666m30.936.004c-.979 4.869-5.544 7.579-8.596 11.063-4.358 4.976-2.346 12.479-2.414 18.523-.192 17.04-1.516 33.989-1.317 51.069.191 16.582.597 33.16.705 49.742.054 8.282.034 16.565-.123 24.847-.069 3.652.211 7.544-.281 11.169-.41 3.021-5.537 2.033-7.736 2.147-1.793.094-1.443-80.056-1.404-87.238.085-16.094.108-32.21.636-48.297.19-5.829.481-11.56 1.162-17.345.758-6.434-3.308-10.796-7.856-15.206 3.301-1.833 8.131-.664 11.682-.447 5.11.312 10.46.418 15.55-.027m-62.608 2.057c-1.283 2.154-2.983 4.106-4.986 5.619-1.565 1.183-3.853 1.641-4.952 3.395-1.47 2.347.599 5.242.599 7.685 0 4.216-.604 8.428-.717 12.647-.438 16.338-.463 32.68-.272 49.021.194 16.553.592 33.098 1.683 49.619.389 5.881 5.109 37.916-2.616 38.886-3.479.438-8.817 1.344-9.113-3.157-.499-7.577-.5-15.216-.751-22.806-.55-16.556-1.148-33.111-1.437-49.675-.284-16.31-.281-32.628.23-48.934.255-8.16.637-16.315 1.172-24.461.475-7.23-3.972-10.534-5.669-17.048 8.948-.168 17.888-1.159 26.838-.782" style="fill:#e3e3e3"/><path d="M158.4 46.125c-.533 31.886-1.188 63.758-1.188 95.65v45.95c0 4.617.757 9.24.664 13.833-.068 3.371-8.199 3.735-8.344.423-1.413-32.226-1.844-64.548-1.556-96.803.143-15.907.771-31.809 1.218-47.709.135-4.806-1.466-13.862 1.021-18.2 2.31-4.028 6.92 5.847 8.19 6.854" style="fill:#969696"/><path d="M86.137 40.11c-1.802 4.444-6.351 6.834-8.785 10.843.118-3.233-1.075-7.139.521-10.162.947-1.794 8.727-3.273 8.264-.681" style="fill:#e3e3e3"/><path d="M127.92 47.708c-.864 29.137-.867 58.291-.963 87.438l-.146 44.534c-.023 6.938.175 13.919-.089 20.853-.133 3.509-2.079 3.183-5.074 3.256-3.186.077-1.998-5.488-2.133-8.231q-.274-5.535-.538-11.071c-.351-7.383-.684-14.767-.974-22.152-.581-14.771-.985-29.548-1.057-44.33-.071-14.73.919-29.391 1.103-44.1.088-7.041-.18-14.086-.18-21.128 0-5.268-1.026-9.582 2.85-13.457 2.51 2.695 4.58 5.79 7.2 8.383m60.551 35.302c-.868 27.782-1.484 55.573-1.786 83.367-.124 11.389.632 23.096-.191 34.44-.213 2.944-4.001 4.863-6.649 2.729-2.821-2.274-2.137-11.711-2.193-14.737-.244-12.991.978-25.921.54-38.927-.438-12.993-.009-25.956.292-38.947q.45-19.505.907-39.01c.25-10.571-2.265-22.762 2.749-32.602 10.38 11.986 7.13 29.268 6.33 43.697M95.001 51.744c-1.75 28.572-2.194 57.212-1.738 85.831.216 13.561.746 27.112 1.23 40.665q.371 10.4.735 20.801c.229 6.533-2.363 4.685-7.43 5.211-1.578-28.564-2.779-57.147-2.978-85.757-.093-13.326-.059-26.656.183-39.98.121-6.69.447-13.376.565-20.066.106-6.027.059-12.19 3.418-17.468q3.007 5.387 6.015 10.768" style="fill:#969696"/><path d="M145.18 87.437c.988 25.058 1.155 50.139 1.183 75.214.013 11.358.005 22.718.005 34.077 0 1.782.651 4.979-.428 6.579-2.152 3.19-2.427-2.293-2.446-2.981a955 955 0 0 1-.37-18.306c-.233-24.164-.411-48.273-.979-72.433-.275-11.732.069-23.448.522-35.172.243-6.293.513-12.586.71-18.882.128-4.116-.891-8.615 2.99-11.388.29 14.433-.03 28.895-1.17 43.289M115.42 50.953c-1.174 28.427-1.397 56.849-.762 85.292.306 13.686.66 27.37 1.144 41.051.247 6.976.493 13.949.709 20.926.113 3.651.938 5.553-3.386 6.031-.947-29.533-2.22-59.063-2.748-88.608-.248-13.869-.502-27.894.314-41.748.369-6.252 1.427-12.552.738-18.821-.473-4.301-1.087-7.463 3.278-9.742.27 1.87.64 3.736.72 5.624m62.203-3.646c-1.061 29.439-2.265 58.83-1.941 88.295.16 14.534-.268 29.064-.391 43.597-.057 6.632-.034 13.265.191 19.893.047 1.372.716 3.423-.136 4.674-.996 1.462-2.972.332-3.359-.947-1.224-4.041-.131-9.819-.212-13.987-.144-7.308-.277-14.616-.389-21.924-.224-14.616-.359-29.235-.309-43.853.051-14.634.195-29.277.585-43.906.269-10.124-2.24-25.542 5.248-33.028.23.338.6.853.72 1.186M82.18 85.063c.151 25.021-.078 50.047.583 75.063.338 12.787 1.207 25.561 1.396 38.35.032 2.203 1.505 6.316-2.127 5.501-1.73-.388-1.261-14.663-1.35-16.759-1.034-24.321-2.365-48.646-2.663-72.991-.149-12.221-.477-24.412.259-36.618.576-9.556-1.54-21.67 4.694-29.426-.857 12.274.009 24.597-.792 36.877" style="fill:#bfbfbf"/><path d="M76.56 148.46c.157 10.251.532 20.496.961 30.738.296 7.057 2.459 16.297 1.102 23.311-.727 3.755-9.991 3.729-10.081-.096-.255-10.852-.904-21.675-1.379-32.518-.936-21.354-1.054-42.732-1.057-64.104-.001-9.405-.544-18.909-.314-28.295.123-5.044 2.847-7.453 5.167-11.591 2.299-4.102 3.548-8.677 5.603-12.893a1383 1383 0 0 0-.002 95.449" style="fill:#e3e3e3"/><path d="M207.78 73.825c.317 21.825-.792 43.493-.792 65.278v48.661c0 2.65 1.686 12.848-.612 14.655-4.082 3.21-2.532-8.896-2.516-10.782.052-5.517.092-11.034.129-16.552.074-11.035.133-22.071.23-33.106.202-22.987.569-45.978 1.582-68.945zM63.66 154.47c.783 16.721 1.787 33.437 2.058 50.177l-7.203-.396c4.111-2.813.355-17.984.207-22.342a5358 5358 0 0 1-1.294-42.794c-.371-14.189-1.13-28.355-1.666-42.537-.121-3.195-2.525-15.268-.633-17.566 1.9-2.309 5.626-3.449 8.214-4.792l.198 40.125c.066 13.36 1.35 26.77.119 40.12" style="fill:#bfbfbf"/><path d="M216.96 80.235c.446 21.664-.711 43.313-1.313 64.962-.296 10.651-.357 21.305-.45 31.959-.03 3.503 1.627 25.193-1.97 25.515-5.911.527-3.371-20.418-3.351-24.031.063-10.85.132-21.698.181-32.548.104-23.14.117-46.282.571-69.418 2.45.572 3.89 3.015 6.33 3.553M52.421 79.84c.88 22.406 1.916 44.805 2.742 67.213.432 11.725.802 23.45 1.042 35.18.088 4.317-2.453 18.714 1.124 22.02-4.652 0-3.771-2.246-3.999-6.369-.426-7.703-.767-15.425-.831-23.14-.122-14.887-.063-29.809-.743-44.682-.125-2.73-4.914-50.558.665-50.22" style="fill:#e3e3e3"/><path d="M233.03 205.04c2.539 9.07-2.377 10.524-9.861 11.079-9.534.707-19.151.729-28.707.77-20.313.088-40.627.037-60.94.133-19.374.091-38.575 1.29-57.922 1.899-9.106.287-18.38.342-27.438-.75-3.971-.479-5.018.146-5.204-3.817-.107-2.286-.019-4.574-.109-6.859 31.892 0 63.831-1.94 95.708-1.301 16.213.325 32.394.372 48.607.431 15.32.06 30.51-1.58 45.86-1.58" style="fill:#bfbfbf"/><path d="M249.09 224.28c-37.66 2.193-75.668-.496-113.26 2.421-36.526 2.834-73.583 2.146-110.24 1.22 14.839-9.382 31.379-6.451 47.913-6.075 20.089.457 40.228-2.287 60.35-2.391 20.478-.105 40.953.454 61.432.33 10.018-.061 19.98-.497 29.972-1.229 9.04-.66 15.49 3.16 23.84 5.73" style="fill:#e3e3e3"/><path d="M255.11 245.96c-1.281.09-1.54 1.658-2.793 1.662l-6.568.022-17.777.061-35.561.121c-23.952.081-47.894.144-71.839.773-23.992.63-47.979 1.343-71.98 1.604-6.661.072-13.326.174-19.988.186-3.327.005-4.571 1.054-4.644-2.605l-.344-17.415c23.308 2.299 47.056.97 70.449 1.107 23.82.141 47.644-2.438 71.469-3.03 23.765-.591 47.532-.933 71.303-.928 3.688.001 17.249-3.522 18.395 1.103 1.4 5.61-.11 11.68-.11 17.35" style="fill:#bfbfbf"/></svg>