<svg xmlns="http://www.w3.org/2000/svg" viewBox="0 0 208 178"><path d="M26.6 0C36.8 34.6 73 76.4 134.2 127.8l3.6-7.4C79.6 71.6 49.8 37.6 35.2 2c17.2 35.4 47.8 68.6 106 117.4l-5.4 12.6 7.6 6.4-7.8 9.2 4.6 3.8c12-8.2 12-8.2 19.6-1.8l34 28.4c3.2 0 14.2-14 14.2-16.8L174.4 133c-7.6-6.4-7.6-6.4-1.8-19.8l-4.6-3.8-9 10.6C113 81.4 63.8 36.4 45.2 2.6zm155 0L163 2.6c-10.6 19-30.8 42.2-54.4 64.8l8.2 7.6c27.2-26.4 44.6-49.4 56-73-9.8 24-26.4 47.8-54.2 75l5.8 5.2c31-31 50.2-58.6 57.2-82.2M83.4 90.4c-11.4 10-23 20-34.4 29.6l-9-10.6-4.6 3.8c6 13.2 6 13.4-1.8 19.8L0 161.2C0 164 11 178 14.2 178L48 149.6c7.6-6.4 7.6-6.4 19.6 1.8l4.6-3.8-7.8-9.2L72 132l-5.4-12.6c8.8-7.4 17-14.6 24.6-21.2zm10.4 9.8c-7.2 6.4-15 13.2-23.4 20.2l3.6 7.4c9.2-7.6 17.6-15 25.6-22.2z"/></svg>