<svg xmlns="http://www.w3.org/2000/svg" viewBox="0 0 145.28 145.28"><path d="M145.217 72.639a72.636 72.637 0 1 1-145.25 0 72.636 72.637 0 1 1 145.25 0"/><path d="M145.36 25.011a36.046 14.124 0 1 1-72.091 0 36.046 14.124 0 1 1 72.091 0" style="fill:#fff" transform="matrix(-1.6465 0 0 -4.2021 252.63 177.74)"/><path d="M121.316 72.293a48.7 49.064 0 1 1-97.387 0 48.7 49.064 0 1 1 97.387 0"/><path d="M145.36 25.011a36.046 14.124 0 1 1-72.091 0 36.046 14.124 0 1 1 72.091 0" style="fill:#fff" transform="matrix(.983 0 0 2.5087 -34.818 9.892)"/><path d="M100.093 72.636a27.461 27.46 0 1 1-54.901 0 27.461 27.46 0 1 1 54.901 0"/><path d="M8.415 69.98h131.99v5.315H8.415z" style="fill:#000"/><path d="M-136.86 69.98H-4.87v5.315h-131.99z" style="fill:#000" transform="rotate(-90)"/><path d="M90.63 36.34a20.892 22.51 0 1 1-41.784 0 20.892 22.51 0 1 1 41.784 0" style="fill:#fff" transform="matrix(.67841 0 0 .62963 25.327 49.757)"/><path d="M-34.428 37.959a9.269 9.416 0 1 1-18.538 0 9.269 9.416 0 1 1 18.538 0" style="fill-rule:evenodd;fill:red" transform="matrix(1.2424 0 0 1.223 126.93 26.215)"/></svg>