<svg xmlns="http://www.w3.org/2000/svg" version="1.1" viewBox="-5.0 -10.0 110.0 135.0">
 <path d="m64.914 26.188-14.492-22.754c-0.19922-0.3125-0.64844-0.3125-0.84766 0l-14.488 22.754c-0.21484 0.33594 0.027343 0.76953 0.42187 0.76953h28.98c0.39844 0 0.64062-0.4375 0.42578-0.76953zm0 47.625-14.488 22.754c-0.19922 0.3125-0.64844 0.3125-0.84766 0l-14.488-22.754c-0.21484-0.33594 0.027344-0.76953 0.42188-0.76953h28.98c0.39453 0 0.63672 0.4375 0.42187 0.76953zm-4.625-34.102c-9.1406-9.1445-24.844-2.6367-24.844 10.289s15.699 19.434 24.844 10.289c5.6836-5.6836 5.6836-14.898 0-20.578z" fill-rule="evenodd"/>
</svg>