<svg width="512" height="512" viewBox="0 0 512 512" fill="none" xmlns="http://www.w3.org/2000/svg">
  <style>
    @media (prefers-color-scheme: dark) {
      .silhouette {
        fill: lightgray;
      }
      .dot {
        fill: black;
      }
    }
  </style>
  <path class="silhouette" d="M394.825 240.902L426.002 240.902L388.608 135.218C364.723 67.7224 310.549 25 240.716 25C210.441 25.1047 180.866 34.1165 155.677 50.9123C130.487 67.7081 110.798 91.5452 99.0615 119.453C87.3252 147.361 84.0611 178.106 89.6761 207.856C95.2911 237.606 109.537 265.046 130.638 286.756L333.265 487.747L333.265 333.218L394.825 333.218L394.825 240.902Z" fill="#140303"/>
  <path class="dot" d="M164 173.735C164 179.394 165.957 184.153 169.87 187.947C173.783 191.741 178.609 193.606 184.87 193.606C191.13 193.606 196.217 191.741 200.13 187.947C204.044 184.217 206 179.458 206 173.735C206 168.011 204.044 163.252 200.13 159.394C196.217 155.535 190.935 153.606 184.87 153.606C178.804 153.606 173.783 155.535 169.87 159.394C165.957 163.252 164 168.075 164 173.735Z" fill="white"/>
  <path class="dot" d="M221 173.735C221 179.394 222.91 184.153 226.73 187.947C230.55 191.741 235.261 193.606 241.373 193.606C247.484 193.606 252.45 191.741 256.27 187.947C260.09 184.217 262 179.458 262 173.735C262 168.011 260.09 163.252 256.27 159.394C252.45 155.535 247.293 153.606 241.373 153.606C235.452 153.606 230.55 155.535 226.73 159.394C222.91 163.252 221 168.075 221 173.735Z" fill="white"/>
  <path class="dot" d="M276 173.735C276 179.394 277.957 184.153 281.87 187.947C285.783 191.741 290.609 193.606 296.87 193.606C303.13 193.606 308.217 191.741 312.13 187.947C316.044 184.217 318 179.458 318 173.735C318 168.011 316.044 163.252 312.13 159.394C308.217 155.535 302.935 153.606 296.87 153.606C290.804 153.606 285.783 155.535 281.87 159.394C277.957 163.252 276 168.075 276 173.735Z" fill="white"/>
</svg>
