<?xml version="1.0" standalone="no"?>
<!DOCTYPE svg PUBLIC "-//W3C//DTD SVG 20010904//EN"
 "http://www.w3.org/TR/2001/REC-SVG-20010904/DTD/svg10.dtd">
<svg version="1.0" xmlns="http://www.w3.org/2000/svg"
 width="512.000000pt" height="512.000000pt" viewBox="0 0 512.000000 512.000000"
 preserveAspectRatio="xMidYMid meet">
<metadata>
Created by potrace 1.14, written by Peter Selinger 2001-2017
</metadata>
<g transform="translate(0.000000,512.000000) scale(0.100000,-0.100000)"
fill="#000000" stroke="none">
<path d="M2235 4859 c-22 -4 -60 -9 -85 -12 -181 -23 -452 -136 -631 -263
-189 -133 -383 -361 -489 -572 -37 -76 -106 -262 -116 -316 -2 -11 -8 -41 -14
-66 -18 -80 -21 -112 -24 -280 -3 -127 1 -190 15 -275 45 -260 156 -510 316
-708 35 -43 310 -323 611 -622 1069 -1062 1507 -1494 1510 -1490 2 2 4 348 4
768 l1 765 271 0 c149 0 288 1 309 1 l37 1 0 460 0 460 156 0 c145 0 156 1
149 18 -4 9 -22 62 -42 117 -19 55 -43 123 -53 150 -11 28 -44 122 -75 210
-30 88 -58 167 -62 175 -3 8 -7 20 -8 25 -5 20 -127 361 -140 390 -7 17 -16
41 -20 54 -15 48 -79 178 -132 266 -98 162 -224 310 -353 415 -30 25 -57 47
-60 50 -21 21 -164 106 -241 143 -146 69 -281 109 -444 132 -104 14 -321 17
-390 4z"/>
</g>
</svg>
