<svg xmlns:dc="http://purl.org/dc/elements/1.1/" xmlns:cc="http://creativecommons.org/ns#" xmlns:rdf="http://www.w3.org/1999/02/22-rdf-syntax-ns#" xmlns:svg="http://www.w3.org/2000/svg" xmlns="http://www.w3.org/2000/svg" xmlns:sodipodi="http://sodipodi.sourceforge.net/DTD/sodipodi-0.dtd" xmlns:inkscape="http://www.inkscape.org/namespaces/inkscape" version="1.1" x="0px" y="0px" viewBox="0 0 100 125"><g transform="translate(0,-952.36218)"><path style="text-indent:0;text-transform:none;direction:ltr;block-progression:tb;baseline-shift:baseline;color:#000000;enable-background:accumulate;" d="m 12.80945,964.36661 a 1.9989971,2.0020794 0 1 0 0.187201,3.99977 l 17.97124,0 a 1.9970041,2.0000833 0 1 0 0,-3.99977 l -17.97124,0 a 1.9970041,2.0000833 0 0 0 -0.187201,0 z m 25.958459,0 a 1.9989971,2.0020794 0 1 0 0.1872,3.99977 l 47.923308,0 a 1.9970041,2.0000833 0 1 0 0,-3.99977 l -47.923308,0 a 1.9970041,2.0000833 0 0 0 -0.1872,0 z m -25.958459,23.9986 a 1.9989971,2.0020794 0 1 0 0.187201,3.99977 l 57.90733,0 a 1.9970041,2.0000833 0 1 0 0,-3.99977 l -57.90733,0 a 1.9970041,2.0000833 0 0 0 -0.187201,0 z m 0,23.99859 a 1.9989971,2.0020794 0 1 0 0.187201,3.9998 l 57.90733,0 a 1.9970041,2.0000833 0 1 0 0,-3.9998 l -57.90733,0 a 1.9970041,2.0000833 0 0 0 -0.187201,0 z m 0,23.9986 a 1.9989971,2.0020794 0 1 0 0.187201,3.9998 l 57.90733,0 a 1.9970041,2.0000833 0 1 0 0,-3.9998 l -57.90733,0 a 1.9970041,2.0000833 0 0 0 -0.187201,0 z" fill="#000000" fill-opacity="1" stroke="none" marker="none" visibility="visible" display="inline" overflow="visible"/></g></svg>