<svg xmlns="http://www.w3.org/2000/svg" xmlns:xlink="http://www.w3.org/1999/xlink" viewBox="0 0 56 70" version="1.1" x="0px" y="0px"><title>030 - Scroll</title><desc>Created with Sketch.</desc><g stroke="none" stroke-width="1" fill="none" fill-rule="evenodd"><g fill="#000000" fill-rule="nonzero"><path d="M13.409,38.418 C13.0353318,38.7915254 12.5283448,39.0009409 12,39 L11.987,39 L12,48 L44,48 L44,41.761 C42.8207106,41.4344993 41.5689666,41.4837861 40.419,41.902 C40.3565342,41.9256411 40.2918875,41.9430588 40.226,41.954 C40.1820972,41.9664451 40.1372966,41.9754721 40.092,41.981 C40.0616703,41.9888676 40.0309651,41.9952089 40,42 C39.9499308,41.9940548 39.9004322,41.9840213 39.852,41.97 C39.829,41.97 39.807,41.962 39.784,41.956 C39.402925,41.8720402 39.1088711,41.5685387 39.037,41.185 C39.032,41.16 39.025,41.135 39.022,41.11 C39.0126524,41.0737651 39.005308,41.0370428 39,41 C39.0053092,40.9639469 39.0126543,40.9282231 39.022,40.893 C39.0285639,40.8385188 39.0396012,40.7846703 39.055,40.732 C39.0679085,40.6767961 39.0849567,40.6226429 39.106,40.57 C39.106,40.561 39.106,40.551 39.115,40.542 C40.027,38.719 42.78,37.063 44,36.4 L44,19 C42.8954305,19 42,18.1045695 42,17 L42,13 C41.9998234,12.620974 42.2139484,12.2744246 42.553,12.105 L44,11.382 L44,1 C44,0.44771525 43.5522847,0 43,0 L13,0 C12.4477153,0 12,0.44771525 12,1 L12,8.4 C13.221,9.067 15.974,10.724 16.885,12.547 C16.885,12.556 16.885,12.565 16.893,12.574 C16.9151087,12.626349 16.9325108,12.6805632 16.945,12.736 C16.9607282,12.7896626 16.9720985,12.8445074 16.979,12.9 C16.9878633,12.9329147 16.9948743,12.9663004 17,13 C16.9950022,13.0337226 16.9879897,13.0671157 16.979,13.1 C16.979,13.135 16.966,13.167 16.959,13.2 C16.9013151,13.4804526 16.7242179,13.7218159 16.474,13.861 C16.400703,13.8982909 16.3231298,13.9264993 16.243,13.945 C16.2084111,13.9539181 16.1733583,13.9609287 16.138,13.966 C16.0928546,13.9805567 16.0467406,13.9919181 16,14 C15.9723886,13.9957688 15.9450178,13.9900944 15.918,13.983 C15.8628618,13.9764376 15.8083487,13.9654012 15.755,13.95 C15.6971593,13.9398499 15.6402874,13.9247956 15.585,13.905 C14.4362879,13.4757765 13.1809214,13.4225504 12,13.753 L12,31.586 L13.707,33.293 C13.8945494,33.4804927 13.9999434,33.7348052 14,34 L14,37 C14.0011881,37.5328077 13.7882365,38.0437473 13.409,38.418 Z M19.651,9.063 L22.336,8.063 C22.6108815,7.9605295 22.9168936,7.98392827 23.173,8.127 L24.523,8.882 L28.539,7.087 C28.8017823,6.96963755 29.1023896,6.9711829 29.3639513,7.09124088 C29.625513,7.21129887 29.8226679,7.43822856 29.905,7.714 L30.365,9.256 L32.778,7.233 C33.1917934,6.88615408 33.8061999,6.93041968 34.166,7.333 L35.658,9 L37,9 C37.5522847,9 38,9.44771525 38,10 C38,10.5522847 37.5522847,11 37,11 L35.211,11 C34.9266136,10.9999836 34.6556857,10.8788842 34.466,10.667 L33.321,9.388 L30.484,11.767 C30.2259454,11.9829365 29.8765939,12.0546163 29.5543573,11.9577439 C29.2321206,11.8608715 28.9802063,11.6084361 28.884,11.286 L28.314,9.378 L24.882,10.913 C24.5926439,11.0432081 24.258664,11.0283645 23.982,10.873 L22.6,10.1 L20.348,10.938 C19.8305092,11.1312997 19.2542997,10.8684908 19.061,10.351 C18.8677003,9.83350919 19.1305092,9.25729966 19.648,9.064 L19.651,9.063 Z M19.651,19.063 L22.336,18.063 C22.6110155,17.9614845 22.9166159,17.9848518 23.173,18.127 L24.523,18.882 L28.539,17.082 C28.8017823,16.9646375 29.1023896,16.9661829 29.3639513,17.0862409 C29.625513,17.2062989 29.8226679,17.4332286 29.905,17.709 L30.365,19.251 L32.778,17.228 C33.1917934,16.8811541 33.8061999,16.9254197 34.166,17.328 L35.658,19 L37,19 C37.5522847,19 38,19.4477153 38,20 C38,20.5522847 37.5522847,21 37,21 L35.211,21 C34.9266136,20.9999836 34.6556857,20.8788842 34.466,20.667 L33.321,19.388 L30.484,21.767 C30.2259454,21.9829365 29.8765939,22.0546163 29.5543573,21.9577439 C29.2321206,21.8608715 28.9802063,21.6084361 28.884,21.286 L28.314,19.378 L24.882,20.913 C24.5923999,21.0419273 24.2590206,21.0271104 23.982,20.873 L22.6,20.1 L20.348,20.938 C20.0132421,21.063043 19.6372035,20.9999962 19.3615342,20.7726089 C19.0858649,20.5452216 18.9524456,20.1880392 19.0115342,19.8356089 C19.0706227,19.4831786 19.3132421,19.1890429 19.648,19.064 L19.651,19.063 Z M19.651,29.063 L22.336,28.063 C22.6108815,27.9605295 22.9168936,27.9839283 23.173,28.127 L24.523,28.882 L28.539,27.082 C28.8017823,26.9646375 29.1023896,26.9661829 29.3639513,27.0862409 C29.625513,27.2062989 29.8226679,27.4332286 29.905,27.709 L30.365,29.251 L32.778,27.228 C33.1917934,26.8811541 33.8061999,26.9254197 34.166,27.328 L35.658,29 L37,29 C37.5522847,29 38,29.4477153 38,30 C38,30.5522847 37.5522847,31 37,31 L35.211,31 C34.9266136,30.9999836 34.6556857,30.8788842 34.466,30.667 L33.321,29.388 L30.484,31.767 C30.2259454,31.9829365 29.8765939,32.0546163 29.5543573,31.9577439 C29.2321206,31.8608715 28.9802063,31.6084361 28.884,31.286 L28.314,29.378 L24.882,30.913 C24.5926439,31.0432081 24.258664,31.0283645 23.982,30.873 L22.6,30.1 L20.348,30.938 C19.8305092,31.1312996 19.2542997,30.8684908 19.061,30.351 C18.8677004,29.8335092 19.1305092,29.2572997 19.648,29.064 L19.651,29.063 Z M19.651,39.063 L22.336,38.063 C22.6108815,37.9605295 22.9168936,37.9839283 23.173,38.127 L24.523,38.882 L28.539,37.087 C28.8017823,36.9696375 29.1023896,36.9711829 29.3639513,37.0912409 C29.625513,37.2112989 29.8226679,37.4382286 29.905,37.714 L30.365,39.256 L32.778,37.233 C33.1917934,36.8861541 33.8061999,36.9304197 34.166,37.333 L35.956,39.333 C36.1982537,39.5985855 36.2793175,39.9737618 36.1683246,40.3156727 C36.0573317,40.6575837 35.771363,40.913612 35.4193071,40.9862696 C35.0672511,41.0589273 34.7032864,40.9370327 34.466,40.667 L33.321,39.388 L30.484,41.767 C30.2259454,41.9829365 29.8765939,42.0546163 29.5543573,41.9577439 C29.2321206,41.8608715 28.9802063,41.6084361 28.884,41.286 L28.314,39.378 L24.882,40.913 C24.5926439,41.0432081 24.258664,41.0283645 23.982,40.873 L22.6,40.1 L20.348,40.938 C19.8305092,41.1312997 19.2542997,40.8684908 19.061,40.351 C18.8677003,39.8335092 19.1305092,39.2572997 19.648,39.064 L19.651,39.063 Z"/><path d="M10,6 L10,2 L7.576,2 C8.14133097,3.2734085 8.14133097,4.7265915 7.576,6 L10,6 Z"/><path d="M48,4 C48.0011176,3.31114451 48.1455092,2.63005236 48.424,2 L46,2 L46,6 L48.424,6 C48.1455092,5.36994764 48.0011176,4.68885549 48,4 Z"/><circle cx="3" cy="4" r="3"/><path d="M45,50 L7.536,50 C7.13505696,50.9472811 6.95188674,51.9724875 7,53 C6.95097378,54.0279587 7.13559968,55.0536581 7.54,56 L48.464,56 C48.864943,55.0527189 49.0481133,54.0275125 49,53 C49.0490262,51.9720413 48.8644003,50.9463419 48.46,50 L45,50 Z"/><circle cx="53" cy="4" r="3"/></g></g></svg>