<?xml version="1.0" encoding="UTF-8"?>
<svg width="1200pt" height="1200pt" version="1.1" viewBox="0 0 1200 1200" xmlns="http://www.w3.org/2000/svg">
 <g>
  <path d="m922.78 658.12v314.86c0 19.152-15.516 34.68-34.668 34.68h-741.59c-19.152 0-34.668-15.516-34.668-34.68v-741.57c0-19.152 15.516-34.668 34.668-34.668h622.45v-111.86h-622.45c-80.953 0-146.52 65.582-146.52 146.53v741.57c0 80.953 65.566 146.52 146.52 146.52h741.57c80.953 0 146.52-65.566 146.52-146.52l0.003907-314.86z"/>
  <path d="m552.68 806.9-270.66-270.67 79.094-79.09 191.57 191.57 568.24-568.21 79.078 79.094z"/>
 </g>
</svg>
