<?xml version="1.0" encoding="UTF-8"?>
<svg width="1200pt" height="1200pt" version="1.1" viewBox="0 0 1200 1200" xmlns="http://www.w3.org/2000/svg">
 <path d="m141.47 775.14c9.4219 4.957 21.047 1.332 25.992-8.1016l32.531-61.957c-6.8516 60.84-8.2578 158.55 40.117 219 28.117 35.125 68.566 52.934 120.28 52.934 0.58984 0 1.1875 0 1.7773-0.011719 76.414-0.60156 119.06-32.148 145.2-78.215 102.54 62.387 215.43 64.824 217.5 64.836h0.17969c10.559 0 19.164-8.5078 19.246-19.078 0.097657-10.633-8.4492-19.32-19.078-19.414-7.7266-0.070312-110.89-2.293-202.23-60.133 14.062-37.523 21.551-80.688 28.934-123.34 10.812-62.508 21.996-127.15 51.625-182.07 9.1328-16.934 22.094-31.285 37.633-43.633 20.398 29.004 38.988 61.586 55.586 97.969l-52.078-49.223c-7.7266-7.2969-19.906-6.9727-27.215 0.76953-7.2969 7.7266-6.9609 19.922 0.76953 27.215l123.76 116.95c3.6484 3.457 8.3984 5.2578 13.223 5.2578 2.832 0 5.6875-0.625 8.3281-1.8945 7.1992-3.457 11.508-10.98 10.848-18.938l-13.668-166.36c-0.86328-10.598-10.32-18.492-20.746-17.617-10.609 0.875-18.492 10.164-17.617 20.762l4.6914 57.168c-16.152-34.094-33.984-65.16-53.496-93.086 89.652-47.184 228.9-50.184 313.73-46.68l-62.891 15.938c-10.297 2.6172-16.535 13.078-13.922 23.387 2.207 8.7227 10.043 14.52 18.648 14.52 1.5586 0 3.1562-0.19141 4.7539-0.58984l165.06-41.82c7.7266-1.957 13.453-8.4844 14.375-16.402 0.9375-7.9219-3.1094-15.602-10.164-19.309l-147.78-77.594c-9.4219-4.9453-21.07-1.3438-25.992 8.1016-4.9453 9.4062-1.3203 21.047 8.0898 25.992l55.738 29.27c-89.566-4.1172-242.03-1.1758-342.88 54.457-45.348-55.703-98.484-96.707-159.2-122.32-3.5039-1.4766-6.9844-2.8086-10.477-4.1523 99.875-82.895 241.88-76.129 243.34-76.055 10.414 0.64844 19.703-7.5234 20.293-18.133 0.60156-10.609-7.4883-19.691-18.098-20.305-7.043-0.39453-172.07-8.6406-284.38 97.391-1.1875 1.1289-2.293 2.3164-3.4688 3.457-143.16-37.262-268.51 16.789-274.39 19.391-9.7188 4.2969-14.125 15.672-9.8164 25.391 4.3086 9.7305 15.672 14.125 25.391 9.8164 1.2461-0.55078 106.99-46.199 229.75-21.742-44.137 58.344-66.492 133.56-66.492 224.4 0 149.45 60.266 240.37 132.89 295.82-21.156 39.469-54 60.875-113.79 61.344-40.812 0.035156-70.68-12.254-91.656-38.438-36.434-45.469-38.016-121.75-33.289-176.26l14.258 56.27c2.207 8.7227 10.043 14.52 18.648 14.52 1.5586 0 3.1562-0.19141 4.7383-0.58984 10.309-2.6172 16.547-13.078 13.934-23.387l-41.82-165.05c-1.957-7.7266-8.4844-13.453-16.402-14.387-7.9453-0.92578-15.602 3.1094-19.309 10.176l-77.594 147.78c-4.9531 9.3984-1.332 21.039 8.0898 25.984zm239.8-193.8c0-88.871 23.184-160.57 68.867-213.67 8.6406 2.8438 17.316 6.0352 26.004 9.6953 53.617 22.621 100.97 58.777 141.8 108.01-19.871 15.492-36.434 33.938-48.289 55.934-32.594 60.457-44.855 131.28-55.668 193.78-7.1641 41.41-13.934 76.992-23.438 106.37-60.672-50.316-109.28-130.86-109.28-260.11z"/>
</svg>
