<?xml version="1.0" encoding="UTF-8"?>
<svg width="1200pt" height="1200pt" version="1.1" viewBox="0 0 1200 1200" xmlns="http://www.w3.org/2000/svg">
 <g>
  <path d="m213.6 456c-76.801 0-141.6 64.801-141.6 141.6 0 79.199 64.801 141.6 141.6 141.6 79.199 0 141.6-64.801 141.6-141.6-0.003906-76.801-62.402-141.6-141.6-141.6z"/>
  <path d="m986.4 456c-79.199 0-141.6 64.801-141.6 141.6 0 79.199 64.801 141.6 141.6 141.6 76.801 0 141.6-62.398 141.6-141.6 0-76.801-64.801-141.6-141.6-141.6z"/>
  <path d="m607.2 456c-79.199 0-141.6 64.801-141.6 141.6 0 79.199 64.801 141.6 141.6 141.6 79.199 0 141.6-64.801 141.6-141.6 0-76.801-62.402-141.6-141.6-141.6z"/>
 </g>
</svg>
