<?xml version="1.0" encoding="UTF-8"?>
<svg width="1200pt" height="1200pt" version="1.1" viewBox="0 0 1200 1200" xmlns="http://www.w3.org/2000/svg">
 <path d="m1196.6 577.84-61.102-76.285c-7.9609-10.039-20.082-15.797-32.938-15.797h-621.43c-21.918 0-40.531-16.039-43.715-37.715v-0.24609c-11.145-72.121-73.594-127.35-148.9-127.35-71.266 0-131.02 49.469-146.7 115.96-4.5312 18.98-19.594 34.164-38.695 38.328-59.262 12.98-103.1 59.754-103.1 125.27s43.836 112.29 103.22 125.39c19.102 4.1641 34.164 19.348 38.695 38.328 15.672 66.488 75.43 115.96 146.7 115.96s130.16-48.734 146.2-114.49c4.0391-16.531 21.062-26.57 37.594-22.777l64.039 14.816c9.918 2.2031 19.348-5.2656 19.348-15.43v-17.02c0-5.8789 4.7773-10.531 10.531-10.531h29.754c5.8789 0 11.387-2.4492 15.43-6.7344l38.938-41.754c8.5703-9.1836 23.145-8.9375 31.348 0.61328l33.918 39.184c6.3672 7.2227 17.633 7.2227 23.879 0l33.305-38.449c8.3281-9.7969 23.512-9.7969 31.836 0l33.305 38.449c6.3672 7.2227 17.633 7.2227 23.879 0l33.305-38.449c8.4492-9.6719 23.512-9.6719 31.961 0l33.305 38.449c6.2461 7.2227 17.633 7.2227 23.879 0l30.855-35.754c9.1836-10.652 25.961-9.4297 33.672 2.3281l13.594 21.062c5.2656 8.082 16.531 9.6719 23.754 3.1836l108.49-97.223c6.2461-5.6328 6.9805-15.062 1.8359-21.672zm-1058.7 87.43c-35.266 0-63.918-29.266-63.918-65.266s28.652-65.145 63.918-65.145 63.918 29.145 63.918 65.145-28.652 65.266-63.918 65.266z"/>
</svg>
