<?xml version="1.0" encoding="UTF-8"?>
<svg width="1200pt" height="1200pt" version="1.1" viewBox="0 0 1200 1200" xmlns="http://www.w3.org/2000/svg">
 <g>
  <path d="m1186.7 703.73-234.86 234.86-234.86-234.86-13.273 13.234 234.86 234.9-234.86 234.86 13.273 13.273 234.86-234.9 234.86 234.9 13.273-13.273-234.9-234.86 234.9-234.9z"/>
  <path d="m340.69 0c-188.18 0-340.69 152.51-340.69 340.69 0 31.539 4.3125 62.102 12.336 91.086 3.2266 11.625 7.0117 22.988 11.398 34.051l10.312 23.477 306.64 566.59 307.01-567.41 9.3008-21.148c4.6133-11.551 8.625-23.438 12-35.551 8.0234-28.988 12.336-59.512 12.336-91.086 0.003907-188.18-152.51-340.69-340.64-340.69zm310.24 426.75c-3.1484 11.363-6.9766 22.688-11.102 33l-8.625 19.801-290.51 536.93-289.46-534.75-10.051-22.801c-4.0859-10.387-7.7266-21.188-10.762-32.176-7.7266-27.938-11.664-56.887-11.664-86.062 0-177.52 144.41-321.94 321.94-321.94s321.94 144.41 321.94 321.94c-0.039062 29.176-3.9375 58.125-11.699 86.062z"/>
  <path d="m340.69 186.86c-83.25 0-150.71 67.5-150.71 150.71 0 83.25 67.5 150.71 150.71 150.71 83.25 0 150.71-67.5 150.71-150.71 0-83.25-67.5-150.71-150.71-150.71zm0 282.71c-72.789 0-131.96-59.211-131.96-131.96 0-72.789 59.211-131.96 131.96-131.96s131.96 59.211 131.96 131.96-59.211 131.96-131.96 131.96z"/>
 </g>
</svg>
