<?xml version="1.0" encoding="UTF-8"?>
<svg width="1200pt" height="1200pt" version="1.1" viewBox="0 0 1200 1200" xmlns="http://www.w3.org/2000/svg">
 <g>
  <path d="m571.13 329.73-78.219 34.387c-1.5117 0.60547-3.0234 0.90625-4.5352 0.90625-4.3086 0-8.3867-2.4922-10.203-6.6484l-29.551-67.336c-1.207-2.7188-1.2852-5.7422-0.22656-8.5391 1.0586-2.7188 3.1758-4.9883 5.8945-6.1211l78.297-34.391c5.668-2.4922 12.242 0.074218 14.738 5.668l29.551 67.336c1.207 2.7188 1.2852 5.8203 0.22656 8.5391-1.1367 2.7969-3.2539 4.9883-5.9727 6.1992z"/>
  <path d="m342.59 885.36h28.871c12.395-4.6836 86.531-36.125 86.531-115.4 0-43.832 31.664-69.152 63.105-74.668 29.246-5.1406 64.617 5.8203 81.316 41.266h205.34c6.1953 0 11.184 4.9883 11.184 11.184v44.438c0 6.1953-4.9883 11.184-11.184 11.184h-197.48v81.996h11.941v-31.59c0-6.1953 4.9883-11.184 11.109-11.184l133.39 0.003906c6.1992 0 11.184 4.9883 11.184 11.184v31.59h79.508c6.1211 0 11.109 4.9883 11.109 11.184v51.238c0 6.1953-4.9883 11.184-11.109 11.184h-514.81c-6.1211 0-11.109-4.9883-11.109-11.184l-0.003906-51.234c0-6.1992 4.9883-11.188 11.113-11.188zm181.3-100.82h20.555c6.1211 0 11.109-4.9883 11.109-11.184 0-6.1211-4.9883-11.109-11.109-11.109h-20.555c-6.1992 0-11.184 4.9883-11.184 11.109 0 6.1953 4.9883 11.184 11.184 11.184z"/>
  <path d="m690.08 547.92-116.99 51.391c-2.7227 1.1328-5.7422 1.2109-8.5391 0.15234-2.7188-1.0586-4.9141-3.1758-6.1211-5.8945l-14.738-33.555c-18.441 13.98-53.809 48.293-42.32 100.36 1.2852 5.8203-2.2656 11.715-8.0117 13.227-2.418 0.60547-58.418 16.25-58.418 74.969 0 4.6836-2.9453 8.918-7.4062 10.504-1.207 0.37891-2.4922 0.60547-3.7031 0.60547-3.3242 0-6.5742-1.4375-8.6914-4.1562-2.4922-3.0234-59.777-75.121-43.379-163.32 10.809-58.27 51.09-108.9 119.86-150.7l-14.207-32.195c-1.1328-2.7188-1.2109-5.8203-0.15234-8.5391 1.0586-2.7227 3.1758-4.9883 5.8945-6.1953l116.99-51.391c5.668-2.4922 12.242 0.074219 14.738 5.7422l80.941 184.25c1.2109 2.7188 1.2852 5.7422 0.22656 8.5391-1.1367 2.7227-3.25 4.9883-5.9727 6.1992z"/>
  <path d="m709.2 643.82-78.293 34.387c-1.5117 0.60547-3.0234 0.98438-4.5352 0.98438-4.2305 0-8.3867-2.5703-10.203-6.7266l-19.496-44.363c-1.207-2.7227-1.2852-5.8203-0.15234-8.5391 1.0586-2.7969 3.1758-4.9883 5.8945-6.1992l78.297-34.387c5.5938-2.4922 12.168 0.074219 14.66 5.7422l19.5 44.363c1.207 2.7188 1.2852 5.8203 0.22656 8.5391-1.0625 2.7969-3.2539 4.9922-5.8984 6.1992z"/>
 </g>
</svg>
