<svg xmlns="http://www.w3.org/2000/svg" xmlns:xlink="http://www.w3.org/1999/xlink" version="1.1" x="0px" y="0px" viewBox="0 0 91 113.75" style="enable-background:new 0 0 91 91;" xml:space="preserve"><g><path d="M85,45c4.5-4.3,5.6-12.8-0.6-16.2c-2.1-1.1-18.7-0.9-21.4-0.6c1.2-6.3,0.2-14.2-2.4-19.9c-1.4-3-3.5-6.4-6.9-7.4   C50-0.2,47.2,2,45.8,5.3c-2,4.7-2.8,9.9-3.6,14.9c-0.3,2.2-0.7,4-2.5,5.6c-2,1.8-4.4,3.2-6.6,4.8c-3.8,2.8-7.7,6.4-12.5,7.3   c-5.4,1-10.9,0.5-16.3,1.6c-2.1,0.4-2.1,3.9,0,4.3c4.3,0.8,9,0.5,13.3,0.1c3.9-0.4,7.6-1.2,10.9-3.4c3.5-2.3,6.8-5.1,10.2-7.7   c2.8-2.1,6.2-4.2,7.3-7.8c1.1-3.8,0.9-8,1.8-11.9c0.5-2.2,1-4.5,1.9-6.6c1.7-3.8,4.7-0.8,5.9,1.6c3,6.4,3.3,15.1,0.1,21.5   c-0.1,0.3-0.2,0.5-0.3,0.8c-3.8,2.6-4.3,9.7-1.6,13.9c-1.5,2.4-2,5.3-4.1,7.4c-2.3,2.3-4.9,2.7-7.9,3.3c-4,0.9-2.9,6.7,0.9,6.8   c4.6,0.2,10-3,13.1-7.4c0.4,0.8,0.9,1.4,1.5,2c-0.3,0.2-0.6,0.4-0.9,0.7c-2.6,2.5-3,6.4-1.4,9.5c0.9,1.8,2.1,3.1,3.5,4.1   c-1.5,1.4-2.5,3.5-2.5,5.9c0,2.5,0.9,4.7,2.5,6.5c-8.6,0.7-17.5,0.7-25.6-2.3c-5.2-2-9.5-5.8-14.8-7.6C12.7,71.7,7,72.2,2.1,75   c-1.8,1-0.5,3.3,1.3,3c6.3-0.9,12.2,0.1,17.7,3.3c4.4,2.5,8.5,5.1,13.4,6.4c9.9,2.6,20.5,1.3,30.6,0.8c0.9,0,1.5-0.4,2-0.9   c0.9,0.1,1.9,0.2,2.9,0.3c6,0.5,15.6-1.6,16.4-9c0.4-3.2-0.8-5.3-2.7-6.8c1.9-1,3.6-2.4,4.7-4.3c2.3-3.9,1.4-8-1.5-10.5   c0.7-0.7,1.3-1.5,1.8-2.5C90.8,50.4,88.5,47,85,45z M56.7,40.3c-0.7-2.5-0.2-4.5,1.4-5.9c0.5,0.1,11.6-1.3,16.3-1.5   c2.5-0.1,7.1-1,8.8,1.3c1.2,1.6,0.5,4.6-0.6,6.2c-1.6,2.2-4.4,2.9-7,3.2c-3.3,0.4-6.8,0.6-10.1,0.5C62.4,44,57.7,44,56.7,40.3z    M82.5,54.2c-2.5,2.2-6.8,2.5-9.9,2.4c-3.2-0.1-6.7-0.2-9.7-1.7c-1.3-0.7-2.9-1.5-3.7-2.8c-1.1-1.7-0.4-3,0.8-3.8   c3.1,0.7,6.5,0.6,9.4,0.5c3.2-0.1,10.8-1.1,11.1-1.2C84.7,46.4,84.4,52.6,82.5,54.2z M81.6,78.4c-1.5,4.1-7.4,5-11.1,4.8   c-3.9-0.2-9-0.5-10.1-5.2c-0.7-3,0.7-4.2,2.7-4.9c2.8,0.8,5.9,1,9,1.1c1.8,0.1,3.8,0,5.7-0.3C80.1,74.4,82.6,75.6,81.6,78.4z    M83.5,66.3c-1.3,1.4-4.2,2.2-6.1,2.7c-1.4,0.4-2.7,0.3-4.1,0.3c-2.2,0-4.6,0.1-6.9-0.1c-0.6-0.2-1.2-0.2-1.7-0.3   c-0.2,0-0.4-0.1-0.7-0.2c-2.3-0.6-4.6-2.4-5.4-4.8c-0.7-2.3,0.3-3.8,2-4.8c3.3,1.6,7.4,2.2,10.8,2.4c3.5,0.2,8.1-0.1,11.7-1.7   C85.1,61.2,85.3,64.4,83.5,66.3z"/></g></svg>