<svg xmlns="http://www.w3.org/2000/svg" xmlns:xlink="http://www.w3.org/1999/xlink" version="1.1" x="0px" y="0px" viewBox="0 0 540 675" style="enable-background:new 0 0 540 540;" xml:space="preserve"><g><g><g><path d="M270,15C129.068,15,15,129.049,15,270c0,140.932,114.049,255,255,255c140.932,0,255-114.049,255-255     C525,129.068,410.951,15,270,15z M270,505C140.421,505,35,399.579,35,270S140.421,35,270,35s235,105.421,235,235     S399.579,505,270,505z"/><path d="M396.21,326.82h-28.36c-54.63,0-104.609,30.857-129.063,79.768c-3.35,6.699,1.592,14.474,8.937,14.474     c3.668,0,7.2-2.025,8.952-5.53c21.191-42.382,63.791-68.711,111.175-68.711h28.36c5.522,0,10-4.478,10-10     S401.732,326.82,396.21,326.82z"/><circle cx="189.636" cy="211.5" r="34"/><circle cx="350.364" cy="211.5" r="34"/></g></g></g></svg>