<svg xmlns="http://www.w3.org/2000/svg" xmlns:xlink="http://www.w3.org/1999/xlink" version="1.1" x="0px" y="0px" viewBox="0 0 91 113.75" style="enable-background:new 0 0 91 91;" xml:space="preserve"><g><path d="M16.9,15.6c6.6-3,12.9-6,20.2-6.8c5.4-0.6,11-0.6,16.4,0c0.9,0.1,2.1,0.4,3.3,0.6c-1.1,2.7-0.9,6,0.8,8.5   c0.2,0.3,0.4,0.6,0.7,0.8c-3.5,3.1-5.4,7.7-1.8,11.8c0.3,0.3,0.5,0.6,0.8,0.8c-0.7,0.6-1.2,1.4-1.6,2.3c-1.1,2.7-1.5,5.7-0.7,8.5   c-3.1-5.7-7.4-10.9-13.3-12.1c-1.6-0.3-3,1.6-1.7,2.9c2.9,2.6,5.9,5,8.1,8.3c2.2,3.2,4,6.7,5.3,10.3c3.1,8.3,5.3,18,3.3,26.9   c-0.4,1.7-1.1,4.2-2.9,4.9c-2.8,1.1-2.8-2.6-2.7-4.5c0.2-3.9,0.3-8-0.7-11.8C48.2,58.5,41.2,55.5,34,52c-4-1.9-7.2-5.2-11.6-5.9   c-5.1-0.7-10.7-0.4-15.8,0.5c-3.7,0.7-2.2,6.4,1.6,5.7c2.6-0.5,5.3-0.7,8-0.7c2.5,0,5.5-0.4,7.9,0.7c2,0.9,3.7,2.4,5.7,3.4   c2.2,1.1,4.4,1.9,6.6,2.9c4.7,2.1,8.5,5.3,9.6,10.5c1,4.4-0.3,8.9,0.5,13.2c0.7,3.6,3.4,6.7,7.3,6.1c4-0.6,6.6-4.3,7.8-7.9   c1.9-6,1.7-12.5,0.5-18.8c3.9,0.6,7.8,0.7,11.7,0.4c4-0.2,8.6-0.7,12.2-2.6c5.5-2.9,5.7-10.6,1.4-14c1.1-1,1.9-2.3,2.3-4.1   c0.9-3.7-0.2-7.3-2.7-9.5c1.9-1.2,3.2-3,3.1-5.9c-0.1-2.7-0.7-6.1-3.1-7.7c-0.2-0.1-0.3-0.2-0.5-0.3c0.5-0.6,0.9-1.3,1.2-2.1   c1.3-3.1,1.8-7.4-0.9-9.9C84,3.4,79.4,3.4,76,3.1C71.2,2.8,66.6,3,61.9,4c-0.2,0-0.3,0.1-0.5,0.2c-2-1-5.2-0.9-6.8-1   c-5.4-0.4-10.8-0.2-16.1,0.6c-6.4,1-12.7,2.9-18.5,5.8c-2.9,1.5-5.8,3.2-8.8,4.4c-1.5,0.6-3.1,1.2-4.8,1.5   c-1.4,0.3-2.6,0.2-3.9,0.9c-0.3,0.2-0.4,0.7-0.1,1C6,20.5,13.2,17.2,16.9,15.6z M84.3,54.9c-2,1.4-5.1,1.7-7.4,1.9   c-5.5,0.6-10.7,0-16-1.4c-0.2,0-0.3-0.1-0.5-0.1c-0.4-1.4-0.9-2.7-1.3-4.1c-0.7-2-1.6-4.2-2.6-6.3c3.6,4.5,11.4,3.7,16.6,3.6   c3.3-0.1,7.3,0.1,10.5-0.9C85.9,49.3,87.1,53,84.3,54.9z M61,12.2c0.1-1.8,0.9-2.3,1.9-3.1c0.1,0,0.3,0,0.4,0   c4.9-1.1,9.9-1,14.9-0.5c2.6,0.3,5.5,0.2,5,3.6c-0.4,2.5-1.7,3.8-4.2,4.1c-4.5,0.5-9.6,0.5-14.1-0.1c-0.4-0.1-0.7-0.1-1.1-0.2   c0,0,0,0,0,0C62,15.5,60.9,14.5,61,12.2z M60.3,24.5c0.7-1.7,2.3-2.6,3.9-3.3c0.7,0.1,1.3,0.2,2,0.2c4.5,0.4,9.2,0.6,13.7,0.1   c0.9-0.1,1.8-0.3,2.6-0.6c0.9,0.4,1.8,0.9,2,1.2c0.9,1,1.2,4.4,0.4,5.6c-1.9,2.4-8.5,1.5-11.2,1.5c-3.5-0.1-7.8,0.4-11.2-0.7   C60.6,27.7,59.5,26.4,60.3,24.5z M60,37c0.6-2.2,1.5-2.7,3.6-3.4c0,0,0,0,0,0c0.2,0,0.3,0,0.5,0.1c4.1,0.4,8.2,0.4,12.3,0.3   c1.5,0,3.2-0.1,4.9-0.3c1.4,0.4,2.7,0.9,3.5,2.2c1.1,1.8,1.1,5.3-0.7,6.8c-1.4,1.2-3.9,1-5.7,1.1c-2.2,0.1-4.3,0.2-6.5,0.2   c-2,0-3.9-0.1-5.9-0.2c-1.5-0.1-4,0-5.3-1C59.2,41.6,59.6,38.7,60,37z"/></g></svg>