<svg xmlns="http://www.w3.org/2000/svg" viewBox="0 0 160 200" x="0px" y="0px"><path d="M98.75,0H61.25C27.48,0,0,27.48,0,61.25c0,24.65,14.93,46.87,37.5,56.37v37.38c0,2.02,1.22,3.85,3.09,4.62,.62,.26,1.27,.38,1.91,.38,1.3,0,2.58-.51,3.54-1.46l36.04-36.04h16.68c33.77,0,61.25-27.48,61.25-61.25S132.52,0,98.75,0Zm0,112.5h-18.75c-1.33,0-2.6,.53-3.54,1.46l-28.96,28.96v-28.73c0-2.12-1.33-4.01-3.33-4.71-20.44-7.23-34.17-26.62-34.17-48.24,0-28.26,22.99-51.25,51.25-51.25h37.5c28.26,0,51.25,22.99,51.25,51.25s-22.99,51.25-51.25,51.25Zm3.54-66.46l-15.21,15.21,15.21,15.21c1.95,1.95,1.95,5.12,0,7.07-.98,.98-2.26,1.46-3.54,1.46s-2.56-.49-3.54-1.46l-15.21-15.21-15.21,15.21c-.98,.98-2.26,1.46-3.54,1.46s-2.56-.49-3.54-1.46c-1.95-1.95-1.95-5.12,0-7.07l15.21-15.21-15.21-15.21c-1.95-1.95-1.95-5.12,0-7.07,1.95-1.95,5.12-1.95,7.07,0l15.21,15.21,15.21-15.21c1.95-1.95,5.12-1.95,7.07,0,1.95,1.95,1.95,5.12,0,7.07Z"/></svg>