<?xml version="1.0" encoding="UTF-8"?>
<svg width="1200pt" height="1200pt" version="1.1" viewBox="0 0 1200 1200" xmlns="http://www.w3.org/2000/svg">
 <path d="m372.63 569.37-0.64453 0.64453-228.89 227.93c-28.324 28.668-42.184 66.012-42.184 104.31 0 37.344 13.859 74.043 42.184 102.71l1.9258 1.5938c27.996 27.375 64.695 41.207 101.39 41.207 37.676 0 75.02-14.164 103.66-42.805l258.54-258.54 277.52-277.5c12.539-12.555 18.344-29.301 18.344-45.719 0-16.102-5.7891-32.836-18.344-45.391-12.566-12.555-28.973-18.355-45.719-18.355-16.43 0-32.836 5.7891-45.402 18.355l-398.57 399.52c-18.344 17.078-46.363 17.078-64.695 0-17.379-18.344-17.379-46.996 0-64.695l399.2-398.9c30.266-29.617 69.852-45.074 109.46-45.074 39.918 0 79.504 15.453 109.46 45.074 30.266 30.266 45.375 70.18 45.375 109.46 0 39.602-15.113 79.516-45.375 109.78l-277.2 277.19-0.94922 0.97656-0.64453 0.64453-257.25 257.22c-46.023 45.719-106.55 68.902-167.41 68.902-59.234 0-118.79-21.891-164.84-66.316l-2.5703-2.5703c-45.719-46.363-68.902-106.25-68.902-166.76 0-61.172 23.184-122 68.902-168.05l257.89-257.55 325.81-325.81c60.184-60.527 139.08-90.461 217.94-90.461 79.848 0 158.4 29.945 218.28 90.461 59.883 59.566 90.145 138.43 90.145 217.64 0 78.871-30.266 158.07-90.145 217.96l-446.21 447.16c-18.027 17.078-46.996 17.078-64.391 0-17.695-18.672-17.695-46.996 0-65.039l446.55-446.2c42.16-42.172 63.414-98.188 63.414-153.89 0-55.371-21.242-111.72-63.414-153.89-42.184-42.5-97.555-63.098-154.22-63.098-55.688 0-111.39 20.609-153.24 63.098z"/>
</svg>
