<?xml version="1.0" encoding="UTF-8"?>
<svg width="1200pt" height="1200pt" version="1.1" viewBox="0 0 1200 1200" xmlns="http://www.w3.org/2000/svg">
 <path d="m406.57 636.71c-30.449 84.18-109.25 145.07-204.18 145.07-93.133 0-171.94-60.895-202.39-145.07h46.566l137.91-311.64c5.375-16.121 32.238-16.121 37.613 0l137.91 311.64zm386.87 0c30.449 84.18 109.25 145.07 202.39 145.07 94.926 0 173.73-60.895 204.18-145.07h-46.566l-137.91-311.64c-5.375-16.121-32.238-16.121-37.613 0l-137.91 311.64zm-193.43 548.06h297.31v-48.359c0-26.867-23.285-50.148-50.148-50.148h-98.508c-3.582-60.895-42.984-112.84-98.508-132.54v-619.7c26.867-17.91 42.984-51.941 37.613-87.762 77.016-84.18 180.89-1.793 261.49 28.656 5.375 19.703 25.074 34.031 46.566 34.031 26.867 0 50.148-21.492 50.148-50.148 0-26.867-23.285-50.148-50.148-50.148-14.328 0-26.867 7.1641-35.82 16.121-94.926-39.402-195.22-111.04-293.73-25.074-10.746-12.539-23.285-19.703-39.402-25.074 17.91-10.746 32.238-28.656 32.238-51.941 0-30.449-57.312-105.67-59.105-107.46-1.793 1.793-59.105 77.016-59.105 107.46 0 23.285 12.539 41.195 32.238 51.941-16.121 5.375-28.656 12.539-39.402 25.074-98.508-85.969-198.8-14.328-293.73 25.074-8.957-8.957-21.492-16.121-35.82-16.121-26.867 0-50.148 23.285-50.148 50.148 0 28.656 23.285 50.148 50.148 50.148 21.492 0 41.195-14.328 46.566-34.031 80.598-30.449 184.48-112.84 261.49-28.656-5.375 35.82 10.746 69.852 37.613 87.762v619.7c-55.523 19.703-94.926 71.641-98.508 132.54h-98.508c-26.867 0-50.148 23.285-50.148 50.148v48.359zm282.98-548.06 112.84-247.16 112.84 247.16zm-565.97 0-114.62-247.16-112.84 247.16z" fill-rule="evenodd"/>
</svg>
