<?xml version="1.0" encoding="UTF-8"?>
<svg width="1200pt" height="1200pt" version="1.1" viewBox="0 0 1200 1200" xmlns="http://www.w3.org/2000/svg">
 <g fill-rule="evenodd">
  <path d="m1027.3 486.8c9.5078 0 18.895 3.5586 25.281 10.48 6.1719 6.668 10.348 17.773 9.1719 32.641l-19.852 253.27-207.36 207.16v99.922l-163.34-0.003906v-282.13l142.85-142.51c20.762-20.773 43.266-18.613 53.762-8.0547 10.547 10.492 12.641 33.055-8.1211 53.812l-67.652 67.574c-8.2656 8.2656-12.773 20.895-12.426 29.359 0.41406 10.227 4.5859 18.895 11.52 25.785 6.8008 6.8672 15.48 11.16 25.625 11.586 8.4648 0.33203 21.105-4.1602 29.441-12.508l117.71-117.44 20-184.92c3.2109-29.352 24.785-44.016 43.398-44.016z"/>
  <path d="m599.64 109.67 405.96 151.16v65.918l-405.96 151.16-406.05-151.16v-65.918z"/>
  <path d="m386.49 432.64 213.15 79.359 213.12-79.359 33.613 130.61-246.73 88.266-246.83-88.266z"/>
  <path d="m171.85 486.8c-9.5195-0.054687-18.879 3.5586-25.281 10.48-6.1602 6.668-10.281 17.773-9.0781 32.641l19.867 253.27 207.28 207.17v99.922h163.4v-282.15l-142.93-142.51c-20.773-20.773-43.188-18.613-53.746-8.0547-10.492 10.492-12.641 32.988 8.1211 53.812l67.652 67.574c8.2383 8.2656 12.84 20.895 12.508 29.359-0.42578 10.227-4.668 18.895-11.535 25.785-6.8125 6.8672-15.492 11.105-25.691 11.52-8.4805 0.34766-21.121-4.0938-29.375-12.441l-117.77-117.44-19.945-184.92c-3.2656-29.352-24.867-44.016-43.469-44.016z"/>
 </g>
</svg>
