<svg xmlns="http://www.w3.org/2000/svg" xmlns:v="https://vecta.io/nano" viewBox="60 24 508 656"><!--oldViewBox="0 0 620 752"--><style>.B{fill:#f7f6f8}.C{fill:#f3f3f3}.D{fill:#030202}.E{fill:#eeeced}</style><path d="M417 581c1 0 1 1 2 1v1l-1 1h-2v-2l1-1z" class="B"></path><path d="M399 335h1c1 1 1 1 1 2l-1 1h-1c-1-2-1-2 0-3zm-180 2c1-1 1-1 2 0 0 1 0 1-1 2h-1c-1-1 0-1 0-2h0zM203 76h1l1 1c0 1 0 1-1 2h0c-1 0-1-1-2-2l1-1zm212 0h1c1 1 1 1 1 2l-1 1c-1 0-1 0-2-1 0-1 0-1 1-2zm22 440c1 0 2-1 3 0s2 2 2 3c-1 0-3-1-4-2-1 0-1 0-1-1z" class="C"></path><path d="M101 377h1c1 1 1 1 1 2s-1 2-2 2c-1-1-2-1-2-2 1-1 1-2 2-2z" class="B"></path><path d="M522 377h1c1 1 1 1 1 2-1 2-1 2-2 2h-1c-1 0-1-1-1-2s1-2 2-2z" class="C"></path><path d="M185 514h2c0 1 0 1-1 1-1 2-3 4-5 5l-1-1h-1c2-3 4-4 6-5z" class="B"></path><path d="M390 517h1v1c-1 0-2 1-3 2v5l2 2h1v1h-2c-1 0-1-1-2-2s-1-3-1-5c1-2 2-3 4-4z" class="E"></path><path d="M294 675s1 1 2 1c1 1 0 2 1 3l-2 2c-1 0-2-1-3-1v-3c0-1 0-1 2-2z" class="B"></path><path d="M328 675c1 0 1 1 2 1s1 1 1 2c0 2 0 2-2 3-1 0-1 0-2-1s-1-1-1-2c1-2 1-2 2-3z" class="C"></path><path d="M396 519h0c0 3 0 6 1 9 1 2 2 3 2 5h0c-2-2-4-5-4-7s-1-6 1-7zM178 316c0-1-1-3 0-4 0-2 0-2 1-3h3c1 0 2 1 3 2l-6 3c0 1-1 2-1 2z" class="B"></path><path d="M488 468h1c1 2 1 6 2 8 0 3 1 5 1 7-2-2-3-4-4-7-1-2-1-5 0-8zM178 316s1-1 1-2c1 5 1 9-2 13-3 3-6 4-10 4 5-3 9-4 10-9 1-2 1-4 1-6z" class="C"></path><path d="M534 88h0c2 1 3 3 4 6 1 2 0 5-1 7s-2 2-3 3c-1 0-2 0-2-1 0 0-1 0 0 0l1-1c2-2 3-4 3-7 1-2 0-5-2-7zm-38 454h1l1 1c0 2-1 3-2 5-3 3-8 3-12 4h-1c1-1 2-1 3-2 3 0 6-1 7-3s2-3 3-5h0zm7 70c2 0 4 0 5 2 1 1 2 2 2 3 0 2 0 2-1 3h-1c0-1 0-2-1-3 0-2-1-2-3-3h0c-1 0-2 0-4 1-1 1-1 2-2 4v2c0-2-1-3 0-5s3-3 5-4zm-371-54c5 0 10 0 15-1l9-2c-3 1-7 2-9 4l-1 1c-2-1-6 0-8 0s-4-1-6-2zM87 88h0 0l-1 2c-1 2-2 7 0 10 1 1 3 2 4 4h-1c-2 0-3 0-4-2-2-1-2-3-2-5 0-4 1-7 4-9zm46 379h1c1 1 1 2 1 3-1 3-2 8-5 10l-1 1v-1c1-2 1-5 2-8 0-2 1-4 2-5zm342-224h1c-1 2-2 4-2 6 0 5 2 9 6 13h-1c-1-1-2-2-3-2-2-3-4-6-4-9 0-4 1-6 3-8z" class="B"></path><path d="M104 578c1 2 0 4 0 7 0 6 2 12 7 16v1h0c-4-2-7-7-8-10-2-6-1-9 1-14z" class="E"></path><path d="M147 243h1l1 1c2 3 2 6 2 9-1 4-4 7-8 9h-1 0c2-2 4-5 5-7 2-4 2-8 0-12z" class="B"></path><path d="M180 450h1v1 3c-2 2-5 4-8 5h-1l-1-1c1-1 1-2 2-3 2-2 5-3 7-5h0z" class="C"></path><path d="M518 578h0l1 1c2 2 2 5 2 8 0 5-3 10-7 14h-1 0c1-2 3-4 4-6 3-5 3-11 1-17z" class="E"></path><path d="M86 280c-2-6-3-11-4-17-1-7-1-15 0-22 0-1 0-2 1-3v12c0 10 2 20 5 30 0-1-1-1-1-2 0 1 0 2-1 2z" class="C"></path><path d="M414 65c3 0 5 0 8 1-5 0-10 1-14 5-3 3-4 7-4 12 0 1 1 3 1 4-1-1-2-3-2-4-1-4-1-8 1-12 3-3 6-5 10-6z" class="B"></path><path d="M154 569v-1c1 0 1 0 2-1v1h0v1h1 0c-5 4-10 9-10 16 1 2 4 4 6 6h0c-1 0-1 0-1-1h-2c-1-1-1-2-2-2-1-1-1-1-1-2h-1v-3h0l1-2h-1v1h0l-1 1v2 1h-1v1 1 3h1c1 1 1 1 1 3 0 1 0 1 1 1h0 1l1-1h1c-1 1-3 2-4 3v-3c-1-1-1-2-3-3h0c0-9 5-16 11-22z" class="D"></path><g class="B"><path d="M201 66c4-1 8-1 12 3 3 2 5 5 5 8 1 4 0 8-3 11 0 0 0 1-1 1l1-1c1-4 2-8 1-12-2-5-6-8-11-9-1-1-3-1-4-1h0zm339 434h1c2 0 4 1 6 2 2 2 3 4 3 7s-1 6-3 8c-1 1-2 2-3 2 1-2 3-4 4-6v-1c1-3 0-5-1-7-2-2-3-2-4-2-2 0-3 0-4 1-2 1-2 3-2 6h-1c-1-2-1-4 0-6s2-3 4-4zm-463 0c2 0 4 0 6 1s3 2 3 4 0 3-1 4h0c0-2-1-3-2-5 0-1-1-1-2-1-2-1-4 0-5 0-2 2-2 4-2 6 0 5 2 7 5 10-2-1-4-2-6-5-1-2-2-5-1-8s3-4 5-6zm359-191c2 0 5 0 7 1 3 3-1 9 1 13 1 3 4 5 7 6 3 2 7 1 10-1h0 1l-1 1c-3 2-6 2-9 2s-6-2-8-4c-4-4-2-10-2-15-2 0-6 0-8-2h1l1-1zM214 454h1c2 0 3 2 3 3 4 5 6 12 7 18v7c-1-2-1-4-1-5-2-5-3-10-5-14-2-2-6-6-6-9h1zm191-1c2 0 2 0 3 1h0c1 1-2 5-3 6-4 5-6 12-8 19l-1 3v-2c-1-9 3-20 9-27zM123 598c-1 1-3 1-4 1-3-1-4-1-6-3s-3-5-3-8 1-6 3-8 4-2 7-2c2 0 4 1 5 3 1 1 2 2 2 4h0c-1-2-2-3-4-4h-6c-2 1-4 3-5 5 0 3 0 5 1 7 1 3 5 4 8 5h2zm380-20h0c3 0 5 0 7 2 2 3 3 6 3 9s-1 6-4 8-6 3-9 2h-1c3-1 5-1 7-2l3-2c1-1 2-3 2-5s0-5-2-7c-2-1-4-3-6-2-3 0-5 2-7 4h0v-3c2-3 4-4 7-4zm-62 30h3c4 0 7 2 9 5s3 7 3 11c-1 3-2 5-4 6-3 2-5 2-8 1-1 0-2 0-3-1h4c3 0 5-1 6-3 2-2 2-4 2-7-1-4-4-8-8-10-1-1-2-1-3-2h-1z"></path><path d="M451 262h4c1 0 1 0 2 1-4 4-11 2-15 5-1 2-1 5-2 6-1 2-3 3-4 4l-2 1h-2c-1-1-1-1-1-2 7-6 10-13 20-15zM292 644h0l1 2c0 6-2 11-6 15-6 6-13 9-21 9h-2 0c5-2 10-3 15-7 6-5 11-11 13-19z"></path></g><path d="M180 602h1c0 1-2 2-2 3-2 2-5 5-7 8s-3 7-1 11c0 3 2 5 4 6 3 1 7 0 9-1h2c-1 1-2 1-3 2-3 1-7 2-11 0-2-1-3-2-4-4-2-4-1-10 0-14 2-4 8-10 12-11z" class="C"></path><path d="M331 641h0c0 1 0 3 1 4 2 10 10 18 19 22 2 1 5 1 7 3h-1c-3 0-6 0-9-1-7-3-13-8-16-14-3-5-3-9-1-14z" class="B"></path><path d="M309 90c4 0 7 2 10 3 2 2 5 3 5 6v1c-5-1-9-5-15-5h0c-4 1-10 3-14 6h-1c0-1 1-1 1-2 2-5 10-8 14-9z" class="E"></path><path d="M309 100h2c9 1 13 8 18 14l-9-4-1-2c-2-2-4-3-6-4h-1c-5 0-8 0-11 4 0 1-1 2-1 2-2 2-6 2-8 3h0c1-1 2-3 3-4 5-5 7-7 14-9zM172 262c3 0 5 0 7 1 5 3 5 7 8 11 0 1 2 3 2 4 0 0 0 1-1 1-1 1-2 0-3 0-5-3-6-6-8-10s-8-4-12-5c2-1 5-1 7-2zm252 200c1 3 1 6 4 8 1 2 3 3 5 2 2 0 3-2 4-3 2 0 3 1 4 3s0 4 0 5l-1 1c-1 1-2 3-4 3s-5 0-7-2c-3-2-5-5-6-9v-1c0-2 0-4 1-7zm-225-2l1 6c0 4-2 8-4 11-3 2-5 4-8 4s-4-1-6-3c0-1-1-3 0-4 0-3 2-4 4-5l2 2c2 1 4 0 5-1 4-2 5-6 6-10zm298-135c20-16 38-37 42-63l1-17v-1c2 22-5 44-19 61-5 6-11 12-18 17-2 2-5 4-7 5h-1l2-2zM179 441h1c3 0 6 1 8 3 1 2 2 5 2 8s-2 7-5 9c-3 3-8 5-12 4-2 0-4-2-5-3l1-1 2 1c2 0 4-1 6-2 3-1 6-4 7-7v-4c-1-1-3-2-4-3l-1 1c-1 2-4 3-6 3-1 1-2 1-3 0v-1h3c1-1 3-2 4-3 1-2 1-4 2-5z" class="C"></path><path d="M378 485h1c4 0 7 1 10 4 7 6 7 14 8 23-1-2-2-4-2-5-1-3-2-5-4-7-2-3-4-5-7-7-3-1-6-1-9 0-4 2-5 5-6 9-1-3-1-8 0-11 2-3 5-5 9-6z" class="B"></path><path d="M242 482h1c1 2 0 4 0 5-1 5-2 8-6 11-1 2-4 4-5 6-3 3-6 8-8 12v1h0c-1-5 0-10 1-15 0-2 0-5 2-6 1-2 2-3 4-4 4-3 10-5 11-10z" class="C"></path><path d="M239 490h1c-2 4-5 6-8 9l-4 4h0 0c2-7 6-8 11-13z" class="D"></path><path d="M409 395h0l-3 4c-3 5-3 10 0 15 1 1 2 3 2 5 0 1 0 6-2 7-1 1-4 2-5 2-2 0-3-2-4-3-2-4-3-9-2-13 1-2 1-5 3-7 0 0 0-1 1-1 0 3-1 5-1 8 1-3 2-5 3-8s4-6 8-9zm-195 0c3 3 7 7 8 11v6c1-3 1-6 1-9 1 2 2 3 3 5 2 6 1 10-1 15-1 2-1 4-3 5-1 0-2 1-3 0-1 0-3 0-4-1-1-2-2-9-1-11s3-4 4-7c0-2 0-7-1-9s-2-4-3-5z" class="C"></path><path d="M309 109c8 8 18 12 29 14 3 1 7 1 10 2-2 1-5 0-8 0-7 0-14 0-20-3-3-1-6-2-9-4-2-2-2-1-3 0-10 6-23 9-35 7 3 0 6-1 8-1 7-2 14-4 20-7a30.44 30.44 0 0 0 8-8z" class="B"></path><path d="M213 430h1c2 0 5 1 6 3 0 4 0 6-1 10-1 2-2 6-5 6-1 1-4 0-6-1-3-1-6-3-9-6 1-3 4-5 7-7 2-2 4-4 7-5zm194-1h1c2 0 5 2 7 4s4 3 6 5c1 1 2 2 2 3-1 2-5 4-8 5-2 1-5 3-8 2-1 0-2-1-2-1-2-4-5-11-4-15 2-2 4-3 6-3z" class="C"></path><path d="M446 461c2 1 4 1 7 1h1c-2 1-3 2-4 3-3 1-6 0-8-1-4-1-7-4-8-7-1-4-2-7-1-10s3-5 5-6c1 0 4-1 4-1 0 1 2 5 3 6 2 1 4 1 6 2l1 1c-2 1-6 0-8 2h-1c1 1 9 6 9 9l-5-1h1c0 1 1 2 3 2h-2-2-1z" class="B"></path><path d="M446 461c-3-1-5-2-6-4-2-2-3-4-3-6 1-2 1-3 3-4 1 0 1 1 2 1 1 2-1 3-2 4 2 4 4 5 7 7h1c0 1 1 2 3 2h-2-2-1z" class="D"></path><path d="M457 251c4 0 9 3 12 5 2 2 4 5 7 6 4 3 8 3 13 3 2 0 4 0 5-1 4-1 6-4 7-7 0 2 0 5-2 7-1 2-2 3-4 3-10 2-21-1-29-6-5-4-12-7-19-6-5 2-10 5-12 11-1 2-1 5-2 7-1 1-2 2-3 4h0c0-1-1-1-1-1 0-2 1-4 1-6 1-3 2-7 4-10 3-5 9-9 15-9 3 0 5 1 8 0h0z" class="B"></path><path d="M285 627c6 0 18 5 23 9 1 1 2 3 3 3h1c5-6 16-11 24-12h2l-3 6c-1 2-5 3-7 5-6 4-9 10-7 17l3 6c-3-2-5-6-5-9-1-5 0-9 3-13 2-3 5-5 8-7-7 3-11 8-14 14-3 5-3 10-5 16-3-12-5-22-16-28-1-1-2-1-3-2 6 5 11 9 12 17 0 4-1 7-3 10l-1 1c0-1 1-2 1-4 2-4 0-9-2-13-1-2-3-4-5-5s-5-2-6-4c-1-3-2-5-3-7z" class="C"></path><path d="M496 327c-1 1-3 2-4 3-10 6-22 11-33 13-10 2-20 1-29-5s-13-17-13-27c0-6 1-12 0-17v-1c0-2-1-3-2-5 4 2 7 4 9 7 6 9 0 21 4 31 2 5 7 9 12 12 13 6 29 0 42-5l-3-2v-1c2 0 4 1 5 0 4 0 9-3 13-5l-2 2h1z" class="B"></path><path d="M108 389h1v1c0 3-2 7-5 8h-4c-5 0-9 0-13 3-2 1-3 4-3 7-1 6 3 13 9 17 2 1 4 1 5 3v1c-2 0-4-1-5-1-6-2-11-7-13-13-2-4-2-9 0-13 3-6 7-8 12-10-4 0-7 1-10 4-4 3-5 8-6 13 2 10 7 16 15 22 5 3 9 6 12 11l-10-4c-6-3-11-7-15-12-4-6-7-13-5-21 0-5 3-10 8-12 2-2 7-4 10-4 3 1 6 2 9 2 3 1 6 0 8-2zm404-1c1 0 2 1 3 2s2 1 4 1 4 0 6-1c5-1 9-1 14 1 4 3 8 7 10 12 2 6 0 13-3 19-5 10-16 16-27 20 2-2 3-4 5-6 3-2 5-3 7-5 7-5 12-11 14-19v-4c0-4-1-9-5-12-2-2-5-3-8-3l2 1c3 1 6 4 7 7 2 4 2 10 0 15-1 4-6 9-11 11-1 1-4 2-6 1v-1c1-2 6-3 8-5 3-3 5-8 5-12 0-3 0-6-2-8-6-7-15-1-21-7-1-2-2-5-2-7z" class="C"></path><path d="M187 237h7c9 2 20 10 25 18 5 7 7 16 6 24 0 2-1 4-1 6h0c1-2 2-4 2-6 3-9 0-20-5-28-2-3-4-5-6-8 2 1 4 3 5 4 6 6 9 16 9 24 0 5-1 11-4 14l-2 2-1 1c0 2-3 3-5 4l-6 2 2-1c5-4 8-7 9-13 0-6-1-12-5-16-9-13-25-18-40-17-3 0-7 1-10 0-1 0-1 0-2-1l1-1c1-1 2-2 4-2 14-4 25-1 37 6v-1c-5-5-12-8-18-9h-10c3-1 5-2 8-2zM86 280c1 0 1-1 1-2 0 1 1 1 1 2 7 16 17 28 31 40 4 3 8 7 13 9 3 1 7 1 10-1 1 0 2-1 3-1 0 1-1 2-2 3s-4 2-6 3l9 3c11 4 24 7 35 2 5-3 10-7 12-13 1-3 1-7 1-11 0-6-1-14 3-20 2-3 5-5 8-7-3 9-2 17-2 25 0 12-5 23-15 28-14 6-28 4-42-2-4-1-7-3-10-5-20-10-38-27-48-48l-2-5zm342-43c4-1 8 0 13 1-10 1-20 2-28 9 9-5 18-7 27-6 5 0 13 2 16 5 0 1 1 1 0 2-3 1-8 0-11 0-2-1-5-1-8 0-12 0-23 4-31 13-5 5-7 10-7 17 1 7 4 11 9 16l-6-2c-4-2-7-5-9-8-4-7-4-16-2-23 3-9 8-15 15-19-2 2-4 5-6 7-4 5-7 12-8 19 0 8 1 14 6 20-1-4-3-7-3-10-2-9 3-18 8-25 6-8 14-15 25-16z" class="B"></path><path d="M121 598l2-1c3-1 4-8 5-10 4-9 11-11 19-14 2-2 5-3 7-4-6 6-11 13-11 22h0c2 1 2 2 3 3v3c1-1 3-2 4-3h1l1 1-5 7 9-6c-1 2-2 5-4 7-2 3-5 4-7 7-3 3-2 11-1 15l2 7c-6-5-11-11-14-18-1-2-2-5-3-7 0-3 0-4 2-6 0-1 1-1 2-1h3 0c0-1-1-1-1-1-6 0-8-3-9-3s-2 2-3 2h-2z" class="E"></path><path d="M137 606v-2l3-3c1 0 2 1 4 1v-1l1 1c-1 0-1 1-2 1h0l-6 3z" class="B"></path><path d="M141 579h0c0 1-2 3-3 4-3 4-5 7-7 11h-1-1c0-2 0-3 1-4 2-6 6-9 11-11zm-4 27l6-3c-1 5-3 11-2 16 0 2 1 4 2 6-5-5-8-10-10-17 0-1 0-1 1-2h3z" class="D"></path><path d="M464 565c4 1 7 3 10 5 3 1 5 2 8 3 6 3 10 8 12 14 1 3 2 6 3 10h-4c-2 1-5 2-7 3v1h2c1 0 2 2 3 3 1 6-3 13-6 18-2 2-7 9-10 9l1-1 1-4c1-4 2-12-1-16-1-2-4-4-6-6s-3-5-4-7c1 1 3 3 5 4s4 2 5 3c-2-2-5-5-6-8 0-1 0-1 1-2 0 0 1-1 2-1 0 1 0 2 1 2 2 0 2-1 3-2 1-2 1-3 1-6-1-9-7-17-14-22z" class="E"></path><path d="M482 585c2 2 4 5 5 8 0 0 0 1-1 2s-3 2-5 2h-1-1c1-1 3-1 4-2 1 0 2-1 2-2s-1-1-2-2c-1-2-1-4-1-6zm-1-8h0c4 1 7 5 9 8 1 2 3 7 2 9-1 0-2-2-2-4-3-4-6-8-9-13h0zm4 29l3 2c-2 6-5 12-9 17 2-7 2-14-1-21h0c1 0 2 0 4 1h0c1 0 2 0 3 1z" class="D"></path><path d="M482 605c1 0 2 0 3 1h-1l2 2-2 6c0-4 0-6-2-9z" class="B"></path><path d="M194 585c2 16 9 34 22 45 2 1 5 3 7 4l1 1c1 0-1 7-1 9-1 5 1 10 3 15-5-4-7-9-9-15l-1-1c-1-1-2-3-3-3s-2 1-2 2c-2 5-1 11 1 16-8-8-13-18-18-28-1-3-2-5-3-8s-1-6-2-9c-1-6-1-13 1-19 1-3 3-6 4-9z" class="C"></path><path d="M198 618h1c1 1 1 2 2 3l3 6c2 2 4 3 5 5 1 1 3 2 3 4h-1c-1-1-3-2-4-3-4-4-9-10-9-15z" class="D"></path><path d="M194 621h0c2 2 3 5 4 6l2 4v1c1 0 1 0 2 1 1 3 4 5 6 6 0 3 1 7 0 9h-1c-1-2-2-4-4-7-1-1-1-2-2-3v-1h1 0c0-2-1-2-2-3 0-1 1 0 0-1l-1-1c-1-1-2-2-2-3l-2-4c0-1-1-1-1-1v-1-2z" class="B"></path><path d="M428 588l1 2c3 5 4 10 4 15 1 5 0 10 0 15 0 2 2 5 2 7-1-1-2-1-2-2-2-3-2-8-1-11v-1h0c-2 11-8 22-13 31-3 5-6 10-9 14 0-4 1-7 0-11 0-2-1-5-2-6h-2c-1 1-1 5-2 7-2 7-8 11-14 15 2-3 4-5 6-7 1-3 3-6 3-9 0-4-2-8-2-12l2-1c10-6 18-15 23-26 3-6 4-13 6-20z" class="E"></path><path d="M426 618c1 6-4 14-9 19-1 1-3 2-3 4-1 0 0 3-1 4 2-3 5-6 7-8l-3 6-5 9c1-4 1-8-1-12h0c8-5 12-14 15-22z" class="D"></path><g class="C"><path d="M268 622c4 0 7-1 10 2 4 2 6 6 8 10 1 6 0 12-2 17-3 5-7 10-12 12-3 1-6 1-9 1-9 1-17-1-25-5-2-1-4-3-7-4h0c2 3 5 6 7 9h0c-2-1-4-3-6-4-4-5-5-11-5-17 0-4 2-10 6-13 3-2 5-3 9-2 2 0 5 2 6 4 2 2 3 6 2 9s-2 6-5 7c-1 1-3 1-4 1-2 0-3-1-3-2-1-1-1-3-1-4h1c0 1 0 2 1 2 0 1 1 0 2 0 0 0 1 0 2-1s1-2 1-4c0-1 0-2-1-3s-3-1-4-1-2 1-3 2c-1 3-2 6-1 9 0 2 2 5 5 7 6 3 15 4 21 2 7-2 10-6 13-12v1c-1 4-2 9-7 12-1 1-3 1-4 2 2 0 5-1 8-2 4-2 7-6 8-10 1-5 1-11-2-15-1-2-2-4-4-4-1-1-1 0-2 0l-1 4-18 7c0-1-1-4-1-6 3-2 7-4 11-7 2-1 4-3 6-4zm69 12c2-5 5-9 10-12 2 0 4 0 6 1l19 11-2 6c-6-2-13-3-18-7 0-1 0-3-1-4h-2c-2 2-4 5-5 8-1 4-1 9 2 13 2 4 6 7 11 9h3c-6-4-9-6-11-13-1-4 0-7 0-10 1 2 1 4 1 6 1 7 6 12 13 14 6 2 15 1 21-2 2-2 5-4 6-8 0-2 0-5-1-7-2-2-3-3-5-3-2-1-3 0-4 1-1 0-2 1-2 3 0 1 0 3 2 5 0 0 1 1 2 1 2 0 2 0 3-1s1-2 1-3h1v3c0 1-1 3-2 3-1 1-3 1-5 1-3-1-5-3-6-6-2-2-2-5-2-8 3-4 5-7 10-7 3 0 6 1 8 2 4 3 6 7 6 12 1 5 0 9-3 13-5 6-15 9-22 10-8 0-19 0-25-6-6-4-9-10-9-17v-8h0z"></path><path d="M267 621c-8 1-16 2-25 1-4 0-9 0-14-1l-6-3c8 1 16 1 24-1-8 0-15-2-22-4l-12-3 11-3c-6-3-11-8-16-12h0l22 1 1-1-1-1 1-1c5 2 10 3 15 5 4 2 8 5 13 6 14 6 32 4 45-2 4-2 6-4 8-6 11 9 24 13 38 12 6 0 13-2 18-6 3-1 5-3 8-4 6-2 13-3 19-5-1 1-2 2-2 3 3 1 6 1 9 1l13-1c-3 3-6 6-9 8-2 1-4 3-7 4h10c-10 6-21 9-33 10 9 1 18 0 26-2-14 8-32 7-48 5l-1 1h1v1c-2-1-4-1-6-1-5 3-8 7-10 12v-1c0-1 1-3 2-5h1c0-2 2-3 3-5h0l-3 3h0c-1 0-1 1-2 1 0 1 0 2-1 2 0 1 0 2-1 3h0 0v1h0-1l3-6h-2c-8 1-19 6-24 12h-1c-1 0-2-2-3-3-5-4-17-9-23-9 1 2 2 4 3 7h0c-2-2-2-4-4-6v-1c0-1-4-4-5-4l-1-1v1h0c1 0 1 1 2 1 1 1 2 2 2 3 1 0 1 1 2 1v1 1h1v1c0 1 1 1 1 1v1 1h0c-2-4-4-8-8-10-3-3-6-2-10-2l-1-1z"></path></g><g class="D"><path d="M242 603c2 1 5 3 8 4 3 2 7 2 10 3h5l-1 1c-7-1-16-2-23-6v-1l1-1zm97 23l6-5c-2-1-4-1-6-2-5-3-10-6-15-10 3 1 5 3 8 5 7 4 14 6 21 7l-1 1h1v1c-2-1-4-1-6-1-5 3-8 7-10 12v-1c0-1 1-3 2-5h1c0-2 2-3 3-5h0l-3 3h0c-1 0-1 1-2 1 0 1 0 2-1 2 0 1 0 2-1 3h0 0v1h0-1l3-6s0-1 1-1zm-72-5c7-2 14-4 20-7l6-3c2-1 3-2 5-3-7 6-14 9-22 12 3 2 6 4 8 6l1 1h0c1 2 2 4 3 7h0c-2-2-2-4-4-6v-1c0-1-4-4-5-4l-1-1v1h0c1 0 1 1 2 1 1 1 2 2 2 3 1 0 1 1 2 1v1 1h1v1c0 1 1 1 1 1v1 1h0c-2-4-4-8-8-10-3-3-6-2-10-2l-1-1zm-29-13c2-1 9 2 12 3 2 0 3 0 5 1h11c1-1 1-1 2-1h8c3 0 6 0 9-1v1l-1 1h-1c-11 4-25 3-36 1-2-1-5-1-7-2-1-1-2-1-2-3z"></path><path d="M377 603h1l1 1v1c-5 3-11 5-16 6-3 1-5 1-8 1 7 1 13 1 20-2 3-1 6-2 9-2-3 4-9 5-14 6l-2 1c-7 0-26 0-32-4h1 12c6 0 15-1 21-3 2-1 5-3 7-5z"></path></g><path fill="#121212" d="M284 626h1c3-1 5-2 8-4 7-4 13-9 19-15 5 6 11 12 18 16 3 1 7 1 9 3-1 0-1 1-1 1h-2c-8 1-19 6-24 12h-1c-1 0-2-2-3-3-5-4-17-9-23-9h0l-1-1z"></path><path d="M147 559c11-1 22-7 31-14a57.31 57.31 0 0 0 11-11c13-15 21-34 19-54l-1-6c-1 12-7 23-17 31-7 5-16 6-24 8l11 2c-1 2-2 4-4 5-2 2-6 2-9 3l-8 3c4 1 10 4 14 2 1 0 2-1 3-3v-1c1-1 3-1 5-2 4 0 6-2 10-4-6 9-15 13-24 17l-9 3-8 1c6 1 12 0 18-2 6-1 11-3 16-6 1 0 1-1 2-1-7 8-16 14-26 17l8-5c-4 0-8 1-12 1-5-1-10-3-14-2-2 0-4 2-5 2 0-2 1-3 2-4 2-2 5-3 7-3-5-5-7-11-11-17-2-3-5-5-8-8l15 3v-1-1c-1 0-1-1-2-1h0c3-2 5-3 8-5v-1c-1-1-1-3 0-5s4-3 6-6c1-2 2-4 4-7 2-4 6-9 10-11s8-3 12-5c-1 4-1 8 2 11 2 2 4 4 7 4 4 0 8-1 11-4s5-7 5-11v-7c-2-8-7-14-10-21 2 1 4 3 6 5 3 1 7 3 9 5 7 5 11 15 13 23 3 18 1 37-6 53-4 10-10 19-16 27-8 12-18 23-26 35-3 6-7 12-9 18-2 5-3 10-2 15 1 4 3 7 6 10 3 1 7 2 10 1 4-1 8-2 11-4-3 6-6 10-12 12-4 1-8 1-12-1-5-3-8-7-10-13-3-10 0-22 4-32 1 0 2-2 1-2 0-1-4-3-6-4h0c-2-2-5-4-6-6 0-7 5-12 10-16 2-2 5-3 7-5 3-2 6-4 8-6 7-5 13-12 18-19-6 5-11 11-18 15-5 3-10 5-17 7-8 3-17 4-26 6-6 1-14 2-20 5 0 1 0 1-1 1v-4c3-1 7-2 11-2-2-1-4-1-6-1-5-1-9-1-13-4 2 0 6 1 8 1h3l-9-3c-6-2-10-7-12-12 8 8 19 13 31 13l3 1v-1c-3-1-7-1-10-2-7-2-12-7-15-13-2-5-3-11-1-16 2-4 6-7 10-9 4-1 10-2 14 0 3 1 5 4 7 8 1 4-2 9-4 13 1 1 1 1 1 2 3 7 8 6 14 8-4 0-9 0-12-2-2-1-3-2-4-4 0-1-1-2-2-3h-2c-2 0-4 0-5-2-2-1-2-3-2-5 0-1 1-2 2-3s2-1 3-1 2 1 2 1c2 3-1 4-2 6h1c1 0 1 1 2 0 2-1 3-3 4-5 0-1 0-3-1-5-1-1-3-3-5-3-3-1-6 0-9 2-2 2-4 5-4 8-1 4 1 8 3 11 6 8 14 10 23 11 2 1 4 2 6 2s6-1 8 0l1-1z" class="C"></path><path d="M166 493c-1 0-2 1-3 1v-1-2h1c1 1 2 1 2 2z" class="D"></path><path d="M164 491h2l1 1c0-1-1-1-1-2s0-2 1-4c0 2 1 2 3 3l2 1v2h-1v-1-1h-1c-1 1-3 2-4 3 0-1-1-1-2-2z" class="B"></path><path d="M143 513h2c2 0 4 0 5 2h0c-1 1-3 1-4 1-2 0-3-1-4-2l1-1zm16-25c0 2-1 4-1 6v4h-1-2l-1-1v-1c1-3 3-5 5-8z" class="D"></path><path d="M162 497c0-1 1-1 1-1 1 0 2 0 2-1 2 0 4 0 7-1 1 0 3-1 4 0h1 0c-1 1-3 1-4 2 0 1 1 1 1 2h-1v-1c-1 0-1 0-1-1h-1 0l1-1c-2 0-3 0-5 1h-2 0c2 0 3 0 4 1h0c1 0 2 1 2 2v1h-3c1 0 2-1 3-1l-1-1c-2-1-6-1-8-1z" class="B"></path><path d="M162 497c2 0 6 0 8 1l1 1c-1 0-2 1-3 1-2-1-5 1-7 0 0-2 0-2 1-3zm15-3c2 0 3-1 5-1l1 1v1c-1 1-4 2-6 3h-3c0-1-1-1-1-2 1-1 3-1 4-2zm-10-8l3-4c1 1 1 3 2 4v3c1 0 2 1 3 1v1h0l-3 1v-2l-2-1c-2-1-3-1-3-3zm-33 31c4 1 9 2 14 3v2h0c-2 1-7 0-9-1s-4-3-5-4zm33 49h0v1l-8 9c-2 2-3 4-5 4h0v-1c1-5 9-10 13-13zm-6-49c2-1 5 0 7 1-2 1-5 2-7 3h-4c-1 0-2 0-3-1v-1c2-2 5-2 7-2zm-23 7c2 1 4 2 7 2 2 1 7 0 9 1h0l1 1v1c-3 1-8 0-11 0l4 3c3 2 6 1 9 1v1c-2 1-7 1-10 0-4-1-7-6-9-10zm52-29h0 1c-4 4-8 7-12 9-8 3-16 4-24 0h0 0 2c1 0 1 1 2 1 2 0 5 0 7-1 9-1 17-4 24-9zm21 9v2c-2 17-13 34-23 48l-11 13-8 10c-1 2-2 4-4 5h-2c-2-2 4-9 5-11l17-19c9-10 16-21 21-34 2-4 4-9 5-14z" class="D"></path><path d="M520 524c3 2 5 5 5 9 1 5 0 11-3 15-4 7-12 11-19 13h-2 2 1c11-2 22-6 29-15l-2 3c-3 8-12 11-19 14 2 0 5-1 7-1 2-1 4-2 6-2-4 3-8 5-13 6-3 0-7 0-10 1h5c2 1 7 2 8 4v1l-1 1c-5-3-11-4-17-5l-17-3c-7-2-14-4-21-7-11-5-20-13-28-22 0 3 2 5 4 6 4 5 9 10 14 14l11 9c6 5 15 12 15 20 0 4-10 8-13 10 2 2 2 5 3 7 4 9 6 19 3 28-2 5-5 10-10 12-4 2-8 2-11 1-6-2-10-7-13-13l8 4c3 2 7 2 11 1 3-2 6-5 7-8 1-2 1-4 1-6 0-7-3-13-6-19-8-17-20-31-31-46-5-8-9-16-13-24-9-21-13-45-5-67 2-4 4-9 7-12 2-1 5-3 7-4 3-2 7-5 11-6 0 1-3 6-4 7-4 8-9 17-6 26 1 4 4 7 8 9 2 1 7 2 10 1s5-3 6-6c1-2 2-5 1-8v-1h0c5 2 10 4 14 8 3 3 5 6 7 10 1 1 6 10 6 10 1 0 2-1 4 0v1c0 1 0 2-1 4h0c2 3 5 4 8 6v1c-1 0-2 0-2 1s0 1 1 1c2 0 5 0 8-1 2-1 4 0 6 0-2 2-4 3-6 6-3 4-5 9-8 13 0 1-2 3-3 4-1 0-1 0-1 1 2 0 6 1 7 4 0 0 1 2 0 3l-1-1c-4-2-11 0-17 0-4 0-7-1-11-1 2 2 4 3 5 5-9-3-16-9-23-16 3 1 5 3 7 4 8 3 16 4 24 4l-15-5c-9-3-17-8-22-16 2 1 5 3 7 4h1 1 0 2l1 1h5c-1-1-2-1-2-1l-1-1s-1 0-1-1h0l-1-2c2-1 12-2 15-3 4 0 7-2 10-3 2-1 4-1 6-2h-1c-2-1-12 3-16 4-13 2-29-4-36-16-3-5-4-10-6-16 0-1 0-4-1-5-2 21 4 41 18 58 11 14 31 25 49 27h1-1c-6-1-11-4-17-6 4 0 8 1 12 1 11 2 23 2 32-5 3-3 6-8 7-12 0-4-1-7-3-10-2-2-5-3-8-3s-5 0-7 2c-1 1-1 2-2 4 0 2 1 4 3 6 1 1 2 1 3 1h1c0-1 0-1-1-1 0-1-1-2-1-3s0-2 1-3h3c2 1 2 3 3 4 0 2 0 3-1 5-1 1-3 2-5 2h-2 0c-3-1-5-4-6-6s-3-5-2-8 3-6 6-8c3-1 7-1 10-1 4 0 8 2 11 4z" class="C"></path><path d="M457 494s-1 0-1-1c1-1 2-3 3-3l1 2v2h-3zm-1 3h5v3h-1-5c0-1 0-2 1-3zm8-2c0-2-1-3 0-5l4 6c0 1-1 1-2 2-1 0-1 0-1-1-1-1-1-1-1-2z" class="D"></path><path d="M460 492c1-1 1-2 2-2l1-1 1 1c-1 2 0 3 0 5-1 0-1 0-1 1h-1 0-1c-1-2-2-2-4-2h3v-2z" class="E"></path><path d="M476 512h1c1 0 1 1 2 2 0 1 0 1-1 1-3 1-4 0-6 0l-5-1c2 0 4 0 6-1 1 0 2-1 3-1zm-24-29s1 0 2 1c0 1 1 2 1 3-1 1-1 1-3 2l-1-1c-1 0-1 0-2-1 1-2 1-3 3-4zm2 35l2-1c4 0 8 0 10 3h0c0 1 0 1-1 1-4 1-8-1-11-3zm-15-24h2c2 1 5 2 7 3 1 1 3 1 4 1v2h-2c-3 0-9-2-11-4v-2zm48 23h0c0 1-1 2-2 3-3 1-9 3-12 3l-1-1v-2c2-1 5-1 8-1 2 0 4-2 7-2zm-36 44c4 3 8 8 12 11l5 5v3c-1 1-1 1-2 1-2-2-4-5-5-7l-10-13zm-5-42h1c4 3 12 5 18 7-4 1-9 3-13 2-2-1-2-3-2-4v-2h-2c-3 0-5 0-8-1h1 1 0 2l1 1h5c-1-1-2-1-2-1l-1-1s-1 0-1-1h0zm38 5v1c-2 4-4 7-8 9-2 1-5 0-7-1 3 0 6 0 8-3h0v-1h-1-2c-3 0-6 1-9 0v-1c2-1 5-1 8-1 4-1 7-1 10-3h1zm-54-29c9 8 21 12 33 11 2-1 5-2 7-1h-2c-7 2-14 3-22 2-7-2-13-6-16-12zm-15 23l5 8c3 6 7 12 11 18l23 27c2 3 4 5 5 8 1 1 1 2 1 4h-2-1c-1-1-3-4-4-5l-6-10c-12-15-27-31-32-50z" class="D"></path><path d="M91 201c1 1 0 4-1 5-2 4-4 7-5 11-5 11-7 24-7 36 0 26 11 51 30 69 13 14 31 24 50 28 4 1 7 1 11 2 3 0 7 1 10 1h0l-20-4c-5-1-9-2-12-4-8-4-16-8-23-14-1 0-3-2-3-3 1 0 5 3 6 4 7 4 15 8 22 11 11 3 22 4 33 5 17 1 35 0 50 10 6 4 13 10 15 17-3-3-5-6-8-8-3-3-6-4-9-6s-7-3-10-4c-7-3-14-3-21-4-5-1-10-1-15-1 7 2 15 2 22 4 5 2 10 4 15 7 8 3 15 10 19 18 1 2 2 5 3 8 2 4 5 8 6 13-1-2-2-3-3-5-2-2-3-5-5-7-5-6-12-11-19-15-5-2-10-4-16-6-4-2-9-4-13-5l-15-4-15-3c-3-1-7-2-10-2 8 4 17 6 26 9 20 5 39 13 54 28 13 13 20 32 20 51-2-5-3-10-5-14-6-14-15-26-26-35-5-4-11-7-16-10-14-7-29-13-44-18-4-1-7-2-11-3-2-1-4-1-7-1l6 2c7 4 16 8 23 13 12 7 23 18 31 30 3 3 6 7 7 12 1 2 2 6 1 8-2 2-14 12-17 12 0 0-3-1-4-2-7-2-16-2-23 0-3-3-4-5-8-7 3-1 6-2 10-3 10-2 21 0 31 5-6-6-15-9-22-10-7 0-12 1-18 3-2 1-4 1-5 3-1 0-8-1-9-1-2 1-4 1-6 2h-1c-4 2-8 4-10 8s-2 9-1 13c1 2 3 4 5 5 3 1 6 0 9-1-3 0-5 1-8-1-2-1-4-3-4-5-1-4 0-9 3-12 2-3 6-6 10-6 6-1 12 0 17 3 4 3 5 8 6 13 1 12-5 24-12 33 1-1 1-3 2-5 2-6 5-14 3-20-1-1-1-1-2-1 0 0-1 0-1 1l-1 2-2 8c-3 12-9 22-17 31 5-2 8-5 12-9l-1 3c-1 2-2 5-3 7-5 6-14 10-20 14-2 0-4 1-6 2s-4 4-7 5c-1 1-2 1-4 2l-8 3c1-2 3-3 4-4 4-4 7-7 11-9-4 0-8 1-11 3-4 1-7 4-9 7-8 7-12 17-12 28 1 12 6 21 14 30h0 0c-2 1-5-3-6-4-7-8-10-18-10-29 1-6 2-12 5-18 4-8 10-14 18-19 4-2 9-4 13-6 6-3 11-6 16-11 7-6 15-17 15-27 0-1 0-2-1-3s-1-1-2 0h-1c1 3 1 6 0 8-1 3-6 8-8 9 2-4 3-9 3-14-2 0-4 1-6 2l-2-2c-1 0-1-1-2 0-1 2 0 5 0 8s-1 6-3 9c-3 6-9 11-16 13-5 2-11 2-16-1-6-3-9-9-11-15-1-4-1-7-1-11-1-3-2-7-3-10 3 3 6 6 11 6 4 1 8 0 12-3v-1c0 4 0 8 3 11 0 1 1 1 2 1 2 0 3 0 4-1s4-6 4-7l-1-2c-1-1-2-3-3-5-2-4-2-10-2-15 0-2 1-5 1-7-1-1-2-1-3-1-1-2-1-4-1-6 0-8 4-16 9-22 2-1 4-3 5-4v-2c1-5 2-8 6-12 2 4 4 8 7 11 2 2 5 1 7 1 17-1 33 6 46 16l9 9c-3-5-7-9-11-12-8-7-17-13-26-19l-23-16c-14-10-27-21-39-34-5-5-11-11-16-18-6-9-12-19-15-30-4-15-4-31-1-46 2-13 8-25 15-35 3-4 7-9 12-12z" class="C"></path><g class="D"><path d="M125 394h1 0c1 1 1 3 1 4l-1 1c-1 0-1 0-2-1 0-2 0-3 1-4zm-8-44h2v1c0 2 1 3 0 5h-1c0-1-1-2-1-2-1-2-1-2 0-4zM95 476h1c1 1 2 4 3 5h-2s-2 0-2-1c-1 0-2-1-2-2l2-2zm58-56c1 0 3 0 4 1v1l-10 2-4 1c3-3 6-4 10-5zm-32 22c2 8 7 15 4 23l-2 1h0c0-3 1-6 0-9 0-5-2-10-2-15zm-6-6h1c1 1 0 3 0 4v8c0 3 1 6 1 8h0c-2-3-3-6-4-9 0-3 0-8 2-11z"></path><path d="M128 349h2c1 0 1 1 2 2 0 1 0 2-1 4-1 1-1 1-2 1h-2l-2-2v-4c1-1 2-1 3-1zm-8 118c-1 2-1 5-3 7-1 3-5 6-9 7-2 0-2 0-4-1 0-1-1-1-1-2l5-1c5-1 9-5 12-10zm20-119h1c2 0 2 1 4 2v3c0 1-1 2-2 3h-2c-2 0-2-1-3-2s-1-3 0-4c0-1 1-1 2-2zm10 64h8c2 1 7 1 8 3v1l-7-1c-1-1-3-1-5 0-3 0-8 2-10 1v-1l1-1c2-1 4-1 5-2zm-23-12h1c1 0 3 1 5 2l-12 6c-5 3-8 8-11 14l-1 3c1-3 2-7 3-9 2-7 9-13 15-16zm-4 77v1c-2 4-5 7-9 9-5 3-11 3-16 1-1 0-1 0-1-1v-1h4c9 1 15-3 22-9zm27-72c5 0 11 1 15 2s8 3 11 5c1 1 2 1 3 2v1l-1 1h-1c-1 0-2-2-3-2l-6-3c-6-2-11-2-17-3-1-2-1-2-1-3zm-7 5h1 1c-2 3-7 4-9 6-7 3-13 10-15 18h-1 0c-1-3 2-8 3-10 4-7 12-12 20-14zm2 25h4l3 3v4c-1 2-2 3-4 3-1 1-2 1-3 1-1-1-3-2-3-3-1-2-1-3-1-5 1-2 2-2 4-3zm-6-30h5l-9 3c-10 4-16 11-20 21 0 0-1 1-1 2h-1v-1c0-2 0-3 1-4 1-4 2-7 5-10 5-6 12-10 20-11zm28-50h1c3 0 6 1 9 1 11 1 20 3 30 6 6 2 13 4 18 8v2h-1c-1 0-3-1-4-1l-10-5c-10-5-21-6-31-8l-8-2c-1 0-3 0-4-1zm-92-77h0c3 12 7 22 14 32 4 7 10 14 16 20 2 1 3 3 5 4 3 2 9 5 10 8 0 1 0 1-1 2s-1 1-2 1c-2-1-1-3-2-4s-3-2-4-3c-3-3-6-5-8-8-13-12-22-27-27-44-1-3-1-5-1-8zm58 82l1-1c5 8 15 13 22 18l16 10c4 3 9 8 13 12s7 8 10 12c0 1 1 2 1 3h-1c-6-9-13-16-22-23l-13-9c-8-6-16-10-24-16-1-1-4-3-5-4 1-1 1-2 2-2z"></path></g><path d="M469 428c-1 0-1 0-2-1-3-3-16-5-21-5-7 1-13 4-18 8 9-3 19-6 29-2l5 2c-3 3-5 4-7 7-5-1-11-2-17-1-1 0-11 3-11 3-1 0-3-2-3-2-4-3-10-7-13-11-1-2-1-4 0-5 0-3 2-6 4-9 11-19 29-34 48-44 3-2 7-4 11-6-11 2-22 6-32 10-8 3-16 6-24 10-15 8-29 20-38 34-4 7-8 14-11 21l-2 9c-1-3 0-7 0-10 2-14 7-26 16-37 17-20 41-30 65-38l14-4 6-3-29 7-11 3c-21 7-42 18-54 37l-6 10c1-6 3-11 7-16 1-3 3-5 5-8 1-2 2-5 3-7 3-6 8-12 13-15 9-6 18-9 28-11 3 0 7 0 9-1-4-1-8 0-11 0-15 2-30 6-41 16-6 5-10 11-13 18 1-11 8-20 17-27 14-11 34-10 51-12 11 0 23-2 33-5s19-7 28-12c2-2 9-7 10-7-5 5-11 9-17 13-9 5-19 10-29 12l-12 3c-2 0-5 0-8 1 1 1 3 0 4 0l13-2c26-5 53-20 68-42s21-48 16-74c-1-6-2-11-4-17-1-2-2-4-4-7s-4-6-4-10l1-1c4 4 7 7 11 12 9 12 15 26 17 41 4 26-1 51-17 72s-37 39-58 54l-27 19c-6 4-13 9-17 15 3-2 6-5 10-7 7-4 15-7 23-7 5-1 11 0 15-2s6-7 7-11c4 3 5 6 6 11 1 1 1 2 1 3l4 4c6 6 10 13 10 22 0 2 0 4-2 6l-2 2c1 8 2 17-2 23-1 1-3 4-4 5 0 2 3 7 5 8 1 1 2 1 4 1 1 0 2-1 3-2 2-3 1-7 1-11 5 4 9 5 15 4 4-1 7-3 10-6-2 4-3 7-4 11-1 3-2 7-3 10-1 7-5 13-12 16-5 2-11 2-17 0-6-3-12-9-14-16-1-2-2-7-1-10 0 1 0 2 1 2h0c1-1 0-5 0-7l-4 3h-1c-1-1-1-2-3-2-1 0-1 0-1 1-2 4-1 7-1 10 1 1 1 2 1 3-3-3-7-8-7-12 0-2 2-3 2-4-2-1-3-1-4-2-1 1-1 2-1 4-1 8 4 18 9 24 10 11 23 13 35 21 7 4 13 10 17 18s6 16 5 25c0 9-4 18-11 24-1 2-3 3-5 3 2-3 5-5 7-8 6-10 10-24 6-34-3-9-10-20-19-24-3-2-8-3-12-3 2 1 4 2 5 3 3 2 5 5 8 8h0v4c-3-2-7-4-11-4-1-1-3-1-5-1v-6c-2-2-6-3-9-5-6-2-15-6-19-12-2-4-3-8-5-12 4 5 8 9 13 11-7-7-11-15-15-24-1-3-1-5-2-8 0-2 0-8-2-10-1 0-1 0-2 1s-1 2-1 4c0 5 1 11 3 16 0 2 1 4 1 6-4-5-7-10-9-17-1-7-2-20 2-26 3-5 9-7 14-8h-3l-1-1z" class="B"></path><g class="D"><path d="M495 395h2v1c0 1 1 2 0 3h-1 0c-1 0-2-1-2-2s1-2 1-2zm9-45c1 0 1 0 1 1 1 2 1 3-1 5-1 0-1 0-2-1v-2c0-1 0-2 2-3zm21 126c1 0 1 0 2 1 0 1 1 1 0 2 0 1-1 2-3 2h-1-1c1-2 2-4 3-5zm-58-56h3c3 0 6 1 9 4l-1 1-1-1c-2 0-4-1-6-2-2 0-4 0-5-1h0l1-1zm34 25c0 4-1 8-2 13 0 3 1 6 1 9l-1-1c-1-2-2-5-2-8 0-4 3-9 4-13zm5-9c1 0 1 0 2 1 2 4 1 11-1 15v1h-1c1-3 1-8 0-12v-4-1zm-3 34c2 3 6 7 11 8h4c0 1-1 2-1 2-1 1-1 1-2 1-4 0-6-2-9-4-2-2-3-5-3-7zm-10-121h2c1 0 2 0 3 1v3c0 1-1 2-3 3h-2c-1 0-2-2-2-2-1-1-1-3 0-4s1-1 2-1zm-14-1h3c1 0 1 1 2 2s1 2 0 3c0 2-1 2-2 3h-2c-1 0-2-1-2-2-1-1-1-2-1-3 0-2 1-2 2-3zm25 165c2 1 3 2 5 3 1 1 2 1 4 2s4 1 7 2v4c-3-2-7-4-11-4-1-1-3-1-5-1v-6zm-41-101c4 0 8 0 11 1 2 0 5 1 6 3v1c-3 0-6-1-9-2-6-1-12 0-19 1 4-2 7-3 11-4zm15-2h1c6 0 13 5 17 10 3 3 6 8 6 13h-1c-1-1-1-4-2-6s-3-4-5-6c-3-4-7-6-12-8-1-1-3-1-4-3z"></path><path d="M498 476c3 4 7 7 11 9 4 1 8 2 12 1h1c1 0 1 0 1 1v1c-1 0-2 1-3 1-4 1-9 1-12-1-5-3-8-7-10-12zm-5-75c1 0 2 0 4 1 3 1 6 4 9 6 3 4 6 10 6 16 0-1 0-2-1-3-2-7-8-13-15-16-2 0-5-1-7-2v-1c1-1 3-1 4-1zm-12 5h2c7 0 16 5 20 10 4 4 7 10 6 16-1 0-1-2-1-3l-3-6c-5-9-14-14-24-17zm-13-1c2 0 3-1 5 0v1c-1 0-1 1-2 1-1 1-6 1-8 2-5 0-14 2-17 5 0 1-1 2-2 2s-1 0-2-1l1-1c8-5 16-8 25-9zm7 30h3c1 0 3 1 3 2 1 2 1 3 1 5-1 2-2 3-4 3-1 0-2 1-3 0-2 0-3-1-4-2 0-2-1-3 0-4 0-3 2-3 4-4zm-6-7c7-1 13-1 19 3 4 3 6 7 7 11 0 3 0 7-2 10-2 2-4 3-6 3-2 1-4 0-7 0 4 0 7 0 10-2 2-3 3-5 3-8 0-4-2-8-5-11-5-4-10-5-15-5h-3l-1-1zm-20-73h1c-2 1-4 1-6 2l-14 3c-5 1-10 2-15 4-7 3-12 6-18 9h-2c0-1 0-2 1-2 1-2 4-4 6-5 4-2 8-3 13-5 11-3 23-4 34-6zm95-63c0 1-2 6-3 7-4 12-12 23-22 32l-7 6-4 4c-1 1-1 2-2 4h-3c0-1 0-1-1-2 1-3 5-5 8-7 2-2 3-3 5-4 13-12 21-25 29-40zm-55 67h1c1 0 2 1 2 2v1c0 1-9 7-11 7l-15 11c-13 9-26 22-36 35-3 4-6 9-9 14l-1 2-1-1c10-21 28-39 47-53 8-5 17-10 23-18z"></path></g><path d="M142 92c0-1-1-2-2-2-2-1-5-2-7-2-7-2-14-2-21-1l-12 3h0c1-3 3-5 5-6 9-6 22-6 31-4 3 0 5 1 7 1-5-3-11-3-17-5 15-1 28 3 40 12 2 0 3 0 5-1 4-3 5-8 6-13 1 2 2 4 4 6 2 1 5 2 7 3 7 3 10 8 13 15-4 0-5 0-8-2l2 5h1c3 0 21 0 23-2h0c-5-1-9-1-14-3 5-1 10 1 15-1 3-1 5-5 6-7l4-6c7-9 16-17 26-23 27-16 62-19 91-8 12 4 24 12 34 20 5 5 9 10 13 16 2 2 3 5 5 7 1 0 2 1 3 1v1c5 1 9-1 13 0-4 2-9 2-13 3h-1l1 1c3 1 6 1 10 1h13l3-5c-1 1-3 2-4 2h-4c0-2 1-4 2-5 3-4 6-8 10-10 2-1 5-2 8-3 2-2 3-4 5-6 1 3 0 6 2 9 1 3 4 4 6 5l7-4c8-5 17-7 26-8 3 0 6-1 9 0-4 1-10 2-14 4 10-1 21-3 30 0 6 3 9 5 12 11-11-4-20-5-31-4-3 1-7 1-10 2h0v1h1c2-1 5 0 8 0 7 2 14 5 21 9 6 3 11 8 15 15-4-4-8-7-13-9-2 0-4-1-6-1l-39 4h20c14 1 30 6 39 17 4 5 7 11 9 17 0 3 1 5 2 7 1-8 0-15-3-23-1-3-3-6-4-10-1-2-1-4-1-6 9 11 12 25 10 39-1 8-6 18-12 23-1 1-1 1-2 1v-2c0-2 2-4 3-6 4-9 2-21-3-29-7-10-18-15-30-18-17-3-35-3-52-2-5 1-10 1-15 2 24 1 49 1 72 7-7 1-15 0-22 0h-45-38c-12 0-24 1-35-1-6-2-14-4-19-8-3-1-5-3-7-5l-1-1c1 2 4 5 4 7h-1c-3-1-6-5-7-8-2-2-4-5-4-8-1-3 0-6-2-8-1-1-3-2-4-3-3-1-6-3-9-3-4-1-9 1-13 4-2 1-4 2-5 4s-1 5-2 7c-1 4-4 8-6 11-1 1-2 3-3 4h-2 0c1-3 3-4 3-7-2 2-3 4-5 6-5 4-11 6-17 7-12 3-26 2-39 2h-53-33c-5 0-10 1-16 0 23-7 48-7 72-7h0c-20-2-39-4-59-2-11 2-22 4-31 11-7 6-12 14-13 23-1 5 0 10 2 15 1 2 4 5 3 8h-1c-8-8-14-18-14-29-1-12 2-23 9-33 0 2 1 5 0 7-1 4-2 7-3 11-2 5-3 10-3 16 0 1-1 4 0 5h1c1-3 1-7 2-10 4-12 12-22 24-27 14-6 28-5 42-6-9-1-18-2-27-2-5 0-10-1-14 0-3 0-7 2-9 4-3 2-5 4-6 6 0-2 1-4 2-6 5-7 14-12 21-16 6-2 12-4 18-2 1 0 2 1 4 2 0-1 0-1 1-1z" class="C"></path><path d="M337 75c4 2 7 4 9 7 1 1 1 1 1 2l-1 1c-3-4-5-7-9-10zM173 92c4-1 9 0 12 1h0-1c-2 0-10 1-12 0v-1h1zm117-21h0v1c-1 1-9 6-12 6h0 0c3-4 7-5 12-7zM167 94c1 0 2-1 3 0-2 2-10 3-13 4h-2-1c4-3 9-3 13-4zm273-10c0-1 1 0 1 0l2 2c-5 0-10 1-15 3h-1c3-3 8-4 13-5zm3 7h4c1 1 1 1 1 2-2 1-8 0-10 0h-7c4-1 8-2 12-2zm-264-7h0c4 0 11 2 13 5h-1c-4-2-9-2-13-2l-1-1 2-2zm128-17c4-1 9 0 14 1-2 1-4 1-6 1-5 0-10 0-15-1 2-1 4-1 7-1zm0-14h11c2 0 4 0 5 1h0c-2 1-7 0-9 0-3 0-15 1-17 0v-1h10zm-8 6h17 5l1 1-1 1h-10-8c-2 0-3 1-4 0s0-1 0-2zm139 40c8-1 17 0 24 4h0-2c-4-1-8-1-12-2h-10c-1-1-2 0-3-1 1-1 2-1 3-1zm-265 0c5 0 12-1 16 1h0l-15 1-16 2c5-3 10-4 15-4zm105-15h1c1 0 3 3 3 5 1 3 1 7-1 10-2 5-7 8-13 10h-1 0 0c5-2 10-6 12-11 3-5 1-10-1-14zm210 11h1c6-1 13 2 17 6l-16 1c-2 0-4 1-5 1 2-1 5-2 8-3 2 0 5 0 6-1-4-3-7-3-12-2h-1c0-1 1-2 2-2zM309 78h1c6 0 11 3 15 7-4-1-9-4-14-5-2 0-4 1-6 1-4 1-9 5-13 7h0c3-5 11-9 17-10zM142 92l1-1c0-2-1-3-2-5l12 4c-1-1-2-3-3-5 1 0 6 1 7 2 2 0 3 1 5 2-2 1-4 2-6 2-1 0-2-1-4-1-1 1-2 1-3 2-2 1-5 3-6 2-1 0-2-1-2-1 0-1 0-1 1-1zm-10 2c1 0 3 2 4 3-5-1-8 0-13 1 5 2 9 2 13 4h-7c-5-1-11-1-16 0 5-5 12-7 19-8zm350-4c0 2-2 4-3 5-3 1-6-2-8-3s-5-1-7-1c-3-1-5-1-7-2 3-1 7-3 10-4h4c-2 1-3 3-5 5 5-1 9-3 14-5-2 1-3 2-5 4 0 0-1 2-1 3l1 1h1c1 0 2-2 3-3 1 0 2 0 3-1v1zM276 67c4 0 7-1 10 0-11 1-21 3-29 12-4 4-4 9-4 14 1 3 2 5 3 7-2-3-4-6-5-9 0-5 1-10 4-13 5-7 13-10 21-11z" class="D"></path><path d="M264 85c1 0 3 0 5 1 1 0 3 2 4 4v5c-1 2-3 3-5 4-1 0-3 1-4 0-2 0-4-2-4-4-1-1-2-3-1-5s3-4 5-5zm88 0h4c2 0 3 2 4 4 1 1 1 4 1 5-1 2-3 4-5 5h-4c-2-1-3-2-4-3-1-2-2-4-1-6 1-3 2-4 5-5z" fill="#121212"></path><path d="M335 67c10 0 19 1 27 7 5 4 8 10 9 16 0 4-1 10-4 13s-8 6-12 6c-5 0-9-1-13-5-4-3-5-7-5-12v-2c0 4 2 8 4 11 3 3 6 5 10 6 4 0 8-1 12-4 3-2 5-6 5-10 1-5-1-9-4-13-8-10-19-11-31-12 1-1 2 0 2-1zm21-2h1c1 0 3 1 5 2 10 5 20 14 25 24 1 3 1 6 2 8s1 4 2 5c3 4 46 0 55 2 1 0 1 0 1 1v1h-7-12-33-7c-1 1-1 2-2 3 2 2 20 0 25 1v1 1h-8c-7 0-14-1-21 0-4 1-10 5-14 4 0-1 3-2 3-2 4-1 11-3 14-7 2-3 1-9 0-13-3-10-11-20-19-25-3-3-7-4-10-6zm-104 6h1c-6 5-11 11-14 18-4 7-4 14-1 21 0 2 10 5 12 6 1 0 2 0 3 1h-1c-5 0-10-3-14-3h-21-6l-1-1c1 0 1-1 1-1 2-1 20 1 24-1 0-1-1-1-1-2-2-1-5-1-7-1h-36c-2 0-14 1-16 0v-2c2-1 9 0 11 0 6 0 38 1 41-2 4-2 4-8 6-11 1-3 2-5 4-7a53.56 53.56 0 0 1 15-15z" class="D"></path><path d="M504 246c-6-2-12 0-18 3 0-13 0-29-9-38-5-5-13-8-20-9h-14-21-67v221 73 22 15c1 5 2 10 5 13 7 7 18 7 26 7h13v26H218l1-27c9 0 30 1 36-5 3-3 4-7 4-10 1-5 1-10 1-15v-22-76-153-65-1l-71-3c-7 0-16-1-24 0-6 1-13 4-18 8-8 7-9 15-9 25l-1 13c-6-2-12-4-19-1-3 1-6 3-8 6-1 3-1 7 0 10 1 4 4 6 7 8-3-4-6-7-5-12 0-3 3-6 6-8-3 4-4 7-3 12 1 2 5 7 7 8 0 1 2 0 3 0h0c0-3-2-6-3-9v-8c1 4 2 8 6 10s12 2 16 0c7-3 11-10 17-13 2-1 3-1 5-1l1 2c8 0 14 0 19 6 5 4 6 11 6 16 0 2 0 2-1 3-2-1-3-4-3-5-2-7-2-12-9-16-4-2-9-2-13-1-7 3-11 8-17 10-3 1-5 2-7 3-4 1-11 1-15-1h-1c1 1 2 1 3 2h2c4 2 9 0 14 2 1 0 3 0 4 2 2 3 3 9 2 13-1 1-1 1-1 2 1 2 7 4 10 4 2 0 5-1 7-2 2-2 4-4 5-6 1 4 1 8-1 13-4 7-12 10-19 12-12 3-24 0-34-6-6-3-13-9-17-15h9c-3-2-6-2-8-4-6-3-12-9-15-15v-3h0c3 2 5 6 7 8 4 5 8 8 13 11 1 1 3 2 5 3 3 1 7 0 10 1 2 1 5 2 7 3 3 1 5 0 8 0h2c-3 0-6 0-9-1s-5-2-7-3h-5c-6-2-12-6-16-10-6-7-9-16-8-26 0-7 4-13 9-18 2-1 4-2 6-4l7-87 390 1 6 85c7 4 13 10 15 18 3 8 1 18-3 25-5 9-12 12-21 17 2 0 8-1 9-2 2-2 4-3 5-3 3-2 5-4 7-5 3-3 6-5 8-8 1-2 3-5 5-7-2 9-7 15-14 20-4 2-8 2-11 4h9c-4 4-7 9-12 12-7 6-16 10-25 11s-21-2-28-8c-3-3-6-7-7-12 0-3 0-6 1-9 2 4 4 9 9 11 3 1 9 0 11-2 2 0 4-1 5-3h0c-2-3-2-8-1-12 1-2 2-4 4-6 2-1 6-1 8-1 6 0 18 0 21-8 1-2 0-6-1-9h0l-1-1h-1v-5z" class="B"></path><path d="M236 161h1c1 0 1 0 1 1-1 2-1 2-2 2h0c-1 0-1-1-1-2s0-1 1-1zm86 156h1c1 1 1 1 1 2s0 1-1 2h0c-1 0-1-1-2-1 0-2 0-2 1-3zm156-44h2v1 3h0-3c0-2 0-2 1-4zM308 518h1c1 0 1 0 1 1 0 2 0 2-1 3h-1c-1-1-1-1-1-2s0-1 1-2zm14-183c1 1 2 1 2 2s0 1-1 2h-1-1c-1-1-1-2 0-3l1-1zm-178-62h1c1 0 1 0 2 1s1 2 0 3h0-3v-4zm7 23h1 0v1c-2 2-4 2-6 3h-1v-1c2 0 4-2 6-3zm141 24l2-1c1 1 1 1 1 2 0 2 0 2-1 3h-1l-2-2c0-1 0-1 1-2zm93-159h1c1 0 1 1 2 2l-2 2h-1l-2-2c1-1 1-2 2-2zM144 281c1-1 2 0 3 0h0v3h-2-3v-1c0-1 1-2 2-2zm164-54h2c0 1 1 1 1 2s0 2-1 2l-2 1-2-2c1-2 0-2 2-3zm183 54c2-1 3 0 5 0v1c-1 1-2 1-3 1s-3 1-5 0v-1c1-1 2-1 3-1zm-14-1h3c1 1 2 1 3 2l-1 1s0 1-1 1-3 0-4-1v-3zm-348 0h0c2 0 5 1 6 2v1l-1 1h-2c-2 0-3-1-5-2v-1l2-1zm364 6h1l-1 1c-3 2-9 2-12 1l-2-1h0c5 0 10 0 14-1zm6-9c1-1 2-1 3 0 1 0 2 0 3 1l-2 2h-4c-1 0-2-1-3-1 1-2 2-2 3-2zm-379-1c3 0 5 1 6 2v1l-2 1h-4c-1 0-2-1-2-1 0-2 1-2 2-3zm368-2h5l-1 1c-1 1-3 3-4 3l-4-1h-1l2-2c1-1 2-1 3-1zm-356 0h6c2 1 2 1 2 2v1h0c-2 1-5 1-6 0-1 0-2-2-2-3zm148 96h1c1 0 2 1 2 2 1 0 1 1 0 2 0 1-1 2-2 2h0c-1 0-2 0-3-1v-3c0-1 1-2 2-2zM175 166h1c1 0 2 0 2 1 1 1 1 2 1 3s-1 2-2 2c-1 1-1 1-2 1l-2-2s-1-1 0-2c0-2 1-2 2-3zm269 0h1 3c1 1 1 2 1 3s-1 2-1 3c-1 0-1 0-1 1-2 0-2 0-3-1s-2-2-2-3 1-2 2-3zM334 276h2c1 0 2 0 3 1 0 1 1 2 1 3-1 2-1 2-2 3h-1c-2 0-3 0-4-1 0-1-1-2 0-3 0-1 1-2 1-3zm-189 19h1v1c-1 1-1 2-3 2-5 2-12 2-17 0l-1-1h0l2 1c6 1 13-1 18-3zm147 144c1-1 2-1 3-1l2 2c1 1 1 2 1 3-1 2-2 2-3 3h-2c-1 0-2-1-2-1-1-1-1-3-1-4 1-1 1-2 2-2zM168 295l-6 6c-8 5-17 6-26 4h-2c5 0 10 0 15-1 7-2 13-6 19-9zm168 95h1c1 0 2 1 2 2 1 2 1 4 0 6-1 1-1 2-3 2h-1c-1 0-2-1-2-2-1-2-1-4 0-6 0-1 1-2 3-2zm117-96h1c7 7 15 10 25 11 2 0 5 0 7 1-8 1-15 1-22-2-4-2-10-6-11-10zm57-3v1c-3 3-7 5-11 6-8 3-16 3-23-1l-1-1h1c0-1 10 2 11 2 9 0 16-3 23-7zM190 161c2 0 2 1 3 1 1 1 4 0 5 0h20c2 0 7 0 8 1v1c-1 1-3 1-5 1h-21c-2 0-5-1-6 0-2 0-2 1-4 2-1-1-2-1-2-2-1-1-1-2 0-3 0-1 1-1 2-1zm242 0h2c1 1 1 1 1 3v2c-1 0-2 1-3 0-1 0-2-1-2-1-2-1-5 0-6 0h-24c-2 0-4 0-6-1v-1c1-1 31 0 35 0 1-1 2-1 3-2zm72 85c3 1 6 2 8 5s2 8 1 12c-1 3-5 7-8 8-1 1-1 1-2 0 0-1 2-2 3-3 2-3 5-9 3-13l-3-3h0l-1-1h-1v-5zm-394-3h1c-3 3-6 5-7 10s0 11 3 15c1 2 3 4 4 6-3-2-5-5-7-7 2 6 4 9 9 13l6 3v1h-2c-6-2-11-7-13-12-3-6-5-15-3-21 2-4 6-6 9-8zm183 18c1-1 1-1 2 0v8 24c0 3-1 8 0 11l1 3c0 2 0 2-1 3h-2c-1 0-1-1-2-2 0-2 1-3 1-4 1-1 0-2 0-3l1-27v-9c0-1-1-3 0-4zm214-19c3 0 7 2 9 3 4 2 5 5 6 9 1 6 0 15-4 19-4 6-9 10-17 12 2-1 3-2 5-3 3-2 5-4 8-7 2-3 5-7 4-11-1 0-2 3-3 3 0 1-1 2-2 3 1-3 3-5 4-7 2-4 2-8 1-12-2-4-6-7-11-9zM336 417h0c1 0 2 1 3 1 1 1 1 2 1 4 0 1-2 2-3 3v35l2 3c1 1 1 2 1 3-1 1-2 2-3 2h-1c-1 0-2 0-3-1s-1-3 0-5l2-2v-2-5-27c-1-1-2-2-3-4 0 0 0-2 1-2 0-2 1-2 3-3zm-1-123h1c1 0 2 1 3 2 1 2-1 3-2 5v4 8 38 11 6l-1 1c-1-1-1-1-1-2-1-6 0-12 0-18v-39-7-2c-1-1-2-1-2-2-1-1-1-2 0-3 0-1 1-1 2-2zm-60-122h1c1 0 2 0 2 1 1 1 1 1 0 2 0 1-1 2-2 2s-3-1-4-1c-4-1-8 0-11 0h-62c-1 0-4 0-5-1v-1c1 0 1-1 1-1h3 10 65s1-1 2-1h0zm71 0c1 0 1 0 1-1 2 0 2 2 3 2h76 1 2c0 2 1 2 0 3h-2-8-17-46-5c-2 0-3 1-5 0-1-1-1-1-1-2 0-2 0-2 1-2zm-68 109c1 0 2-1 3 0 0 0 1 1 1 2 0 0 0 1-1 2h0c-1 2 0 5 0 6v15 30 15 3c1 0 1 1 1 2s-1 2-2 3h-1c-1-1-2-2-2-3v-2s1 0 1-1c1-2 0-6 0-8v-19-26-13c0-1 0-2-1-3v-1c0-1 0-1 1-2zm44 73h1c1 1 1 13 1 16v48c0 7-1 15 0 22 0 1 1 2 1 4 0 1-1 1-1 2l-2 1-1-1c-1-1-1-1-1-3 1 0 1-1 1-2v-8-13-48-12c0-2 0-4 1-6zm-29-20c1-1 1-1 2 0h0c1 2 0 4 0 6v10 62 10 5h-2v-1c-1-1-1-3-1-4v-13-55-19c0-1 1-1 1-1zm14-89h3c1 1 1 2 1 3v1c-1 1-1 2-1 3v12 24 49c0 2 1 3 1 5 1 2 0 2-1 3s-1 0-2 0-2-1-2-2c0-2 0-2 1-4h0v-55c0-10 1-21 0-32 0 0 0-1-1-2v-2c0-1 0-2 1-3zm0 149h0c1 0 3 0 4 1 1 0 1 1 1 3s-1 3-2 4h0v20 36 24c0 7-1 14 1 20 0 1-1 2-2 3h-1c-1-1-2-1-2-3v-2c1 0 1-1 1-2 1-3 0-94 0-95s-2-2-2-3c-1-1-1-2-1-3l3-3z" class="D"></path></svg>