<svg xmlns="http://www.w3.org/2000/svg" xmlns:v="https://vecta.io/nano" viewBox="140 130 774 788"><!--oldViewBox="0 0 1024 1012"--><path d="M512 266h0c1 1 1 3 1 5 0 5 0 10-1 15-2-5-2-15 0-20zm306 246c-8-2-14-1-21 0l4-3c6-3 13-1 19 1l-2 2zM310 629c2-1 5 0 8 0 5 0 11 1 16 2h-24-1l1-2z" fill="#f3f1f1"></path><path fill="#eae9e4" d="M704 629c2-1 7-1 9 0 1 1 1 1 0 2h-13-12 0c5-1 10-2 16-2z"></path><path d="M201 511c8-3 15-6 22-1l5 2c-4-1-7-2-10-2-6 0-11 1-16 2l-1-1zm339-240v1l2 19 2 12c0 2 1 4 1 6l-1-1c-4-10-6-22-7-33 0-2 1-3 3-4z" fill="#f3f1f1"></path><path fill="#eae9e4" d="M483 271c1 0 2 1 2 3 1 2 0 5 0 7-2 10-4 18-7 27 0 1 0 1-1 1l3-16 1-12c1-3 0-8 2-10z"></path><path fill="#f3f1f1" d="M628 659c18-26 45-42 76-47 3-1 6-1 10-1v3c-6 1-13 1-19 3-25 7-49 22-65 43l-2-1z"></path><path d="M785 464s0 1 1 1c5 11 1 20-2 31l6-3c14-6 32-2 45 4 2 1 6 3 7 5 0 2 0 2-1 3h-2c-2-1-5-3-7-4-3-2-8-3-12-5-10-2-20-2-30 2-3 2-6 4-9 5-2 1-2 1-3 1-1-4 3-10 4-15s2-11 1-16l-8 6-52 33c1 7 2 13 2 20-1-2-2-6-2-8-2-5-4-8-6-13l30-19c13-8 27-16 38-28zm-548 0c2 1 5 4 6 5l10 8 35 22 19 12c-4 7-6 14-8 22-1-4-1-7 0-11l2-10c-5-4-10-7-15-10l-37-23c-2-2-6-5-9-6-3 10 3 20 5 28 1 2 1 2 0 3h-1c-1 0-4-2-5-3-2-1-5-3-8-4-12-4-24-3-36 2-3 1-6 4-9 5-1 0-2 1-4 0v-3c3-4 9-6 14-7 9-3 21-6 31-3 4 1 8 3 12 5-2-5-3-9-4-15-1-5-1-12 2-17zm393 196c-8 8-13 18-14 30 0 4 1 9 4 13 3 3 9 5 13 5 6 0 12 0 18-2 11-3 21-8 32-13 9-4 19-8 27-13 5-4 10-8 14-12-6-3-13-6-20-7-18-2-39 2-55 12-6 4-11 8-17 12 9-11 21-21 35-25 14-5 30-5 44-1 6 2 10 4 15 6 4-4 8-9 11-14 3-7 6-13 8-20 3-10 5-21 7-31 3-16 5-30 5-46 0-6 0-12-2-18 0-2-1-4-3-5-2 0-3 1-4 2-4 4-7 10-10 15-9 19-14 41-16 62-1 12 0 23 0 34l-1-3c-2-6-2-13-2-19-1-21 2-42 9-62 3-8 13-32 22-36 2 0 3 0 5 1s3 4 4 7c1 4 1 10 2 15 1 19-2 38-6 57-2 9-3 17-6 26-2 8-6 17-10 24-8 13-18 24-31 31-9 6-19 9-28 13s-18 9-28 11c-10 3-25 4-34-2-3-2-4-5-5-8v-1l-1-3c0-13 8-27 16-36l2 1zm39-57h2c-1 1-4 2-5 2-28 9-54 30-69 55-8 13-15 31-11 46v1c2 5 4 9 6 13h0c-5 7-8 15-11 23-5 18-7 38-5 57 0 7 2 13 3 20-1-2-1-5-2-7-9-29-6-66 8-94-5-9-7-18-8-29-2 3-4 5-6 7-18 29-21 68-16 101 1 8 4 16 5 24-4-8-6-15-8-23-5-27-4-58 4-84 5-14 11-27 19-40 22-33 55-64 94-72zm-317 0l2 1c15 2 30 10 43 18 35 24 65 66 74 108 5 23 5 51-2 75-1 5-3 11-7 16l4-11c9-35 5-79-13-111l-6-9c-2 10-4 20-9 29l6 16c8 23 10 49 4 72-1 4-2 8-4 12l3-17c2-21 0-43-6-63-3-6-5-13-9-18l-1-1c2-4 4-7 5-12h0c3-11 1-22-2-32-10-28-35-50-61-63-6-4-14-6-21-10h0z" fill="#eae9e4"></path><path fill="#f3f1f1" d="M269 524h3c5 1 11 11 14 16 13 22 18 48 18 74 0 10 0 20-3 29v-4c1-29-2-59-14-86-2-6-6-13-10-18-2-2-4-4-7-4-3 2-3 7-3 11-3 21 1 43 5 64 2 9 3 18 6 28 3 9 8 18 14 26 0 0 4 5 5 5 0 0 3-1 3-2 4-1 7-3 11-4 10-3 21-4 31-2 20 2 37 13 48 28-3-3-7-6-11-8-6-5-14-9-22-12-19-6-40-7-58 3 14 15 32 21 51 30 12 5 27 12 41 10h1c2-1 3-1 5-2 4-1 7-4 9-7 2-7 0-17-3-24-4-9-10-17-17-24-16-15-34-26-54-33l-14-3c-3 0-6 0-9-1v-2-1l5 1c31 3 58 19 78 43 9 11 21 26 18 43 0 3-2 7-5 9-8 5-20 5-28 3-13-2-24-7-36-12-11-5-23-10-33-17-7-6-14-12-19-20-6-8-10-17-14-26-4-12-6-24-8-36-4-21-7-43-3-65 0-4 1-7 5-10z"></path><path d="M713 305v1c-3 4-7 8-9 13-4 8-6 16-8 24-2 12-3 24-3 36v36 28c0 5 0 11 1 17 1 5 4 9 6 13l-23 4v-12c1-14 0-28-2-42-2-19-5-38-19-52-4-4-10-8-16-10-7-1-14-1-21-1h-21-56v199 83c-8 0-19 0-24-6-3-4-4-8-5-12-1-7 0-15 0-23v-34-51-31c0-10 3-17 11-24-4-4-8-8-10-14v-1c-2-5-1-11-1-17v-27-79h93 36c13 0 26 0 39-4 7-1 14-3 20-7 4-2 8-5 12-7zm-403 0c5 1 9 6 13 8 7 3 14 6 21 7 12 3 24 3 36 3h34 96v113c0 11-2 17-10 25 5 4 8 11 9 17 1 10 1 19 1 29v41 47c0 10 0 21-1 31 0 4-1 9-4 13s-12 4-17 4c5 1 10 1 14 4s6 9 7 14c2 13 1 26 1 39v68c0 12 0 25 1 37 1-13 1-26 1-39v-63l1-23c0-6-1-11 0-17 1-5 3-10 6-13 7-6 15-6 23-6v122 34c0 8 0 16 1 25 0 6 2 13 5 19 7 16 23 29 39 33 5 2 10 2 15 4v1 3h-7l-16-2-33-3c-28-1-56-1-84 2l-28 2c-4 1-10 2-13 1v-3-2h4c3 0 6-1 9-2 11-3 21-8 29-16 9-9 15-20 17-32 1-7 1-14 1-21v-29-92-328h-53-22c-8 0-15 0-22 2-6 1-12 5-17 10-13 14-16 35-18 53-2 17-2 35-2 52l-24-4c4-6 7-11 7-18v-48c0-25 2-53-6-77-3-9-8-17-14-24v-1zM202 512l-13 4c-3 0-7 1-8 4 0 0 0 1 1 1 2 2 27-3 32-3 8 0 20 2 28 6 0 0 2 1 3 1 0 1-1 4-1 5-3 8-3 17-3 25 0 24 6 49 14 71 17 43 45 81 88 100 20 9 44 12 64 4 2 1 3 3 5 4 6 8 11 16 15 25 6 16 8 35 3 52-2 6-5 11-7 16l50 10v5c-19-1-39-6-57-11-99-27-180-101-218-197-7-16-12-33-17-51l-4-21-2-11v-4c-1 0-3-1-3-2-2-1-4-2-6-4l-36-30 33-29c2-2 5-4 8-6 1-1 4-2 4-3v-2l2-10c2-12 5-25 8-36 15-53 42-99 78-139 57-62 141-104 225-107l23-39 18 30 4 6c1 1 1 2 2 2h1l16 2c21 2 40 7 60 13 35 11 70 29 100 51 50 38 91 89 114 148 10 26 17 54 21 81 9 4 17 12 24 19l21 19-33 28c-2 2-4 4-7 5-1 1-4 2-5 4v3l-2 14c-4 18-8 35-14 53-14 39-34 74-60 107-54 65-136 109-220 117-1-1-1-4-1-6 17-1 34-5 50-9 0-2-3-6-3-8-2-4-3-8-4-12-5-21-1-44 10-62l12-15 1-1s1 1 2 1c2 1 4 2 6 2 12 4 25 2 36 0 38-9 70-37 90-69 9-14 15-30 21-46 10-30 14-61 7-92 14-8 32-8 47-5 4 1 10 3 15 2 1-1 2-1 3-2l-1-2c-3-1-7-2-10-3l-14-3 2-2c8 3 21 8 27-1 1-2 2-5 1-7 0-3-2-4-4-6-6-3-13-5-19-7-3-1-6-2-8-4 0-1 1-1 2-2 3 0 8 3 11 3 0-3 0-4 2-5 2-3 7-3 8-5v-3c-3-1-12 2-16 3-5 3-6 6-9 10-2-7-2-14-4-22-2-12-4-23-8-35-22-75-73-137-140-177-37-21-78-34-120-40l3-27h-10c1 6 2 11 2 17 0 4-1 7-1 10 0 1-1 3-1 4 1 2 3 4 3 6 1 1 0 2 0 3s2 6 3 7c4 11 3 24-4 33-2 3-5 6-7 9-5 6-6 13-7 20-1-4-1-8-1-12 0-6 2-13 0-19-2-4-5-9-3-13 1-2 3-2 5-3 1-1 1-3 0-4 0-2-2-4-3-5-2-1-3-1-5-1-2 1-3 2-3 4l-2 6c-2-3-4-9-7-10-2-1-3 0-4 1-3 1-4 4-5 6 0 1 0 1 1 2 2 1 5 2 6 4 1 5-3 10-4 15 0 6 2 11 3 17 2 7 1 15-2 22 1-13 0-23-9-32-6-7-11-13-13-22 0-6 0-12 2-17 2-4 3-7 3-11 0-3 4-4 4-6 0 0-1-2-1-3l-1-7c0-7 1-14 2-21h-10l3 27c-20 3-40 7-59 13-61 18-113 56-152 105-24 31-41 66-52 104-3 12-6 25-7 38-1 1-2 13-2 14-1 0-23 7-25 8-5 2-10 5-9 11 0 3 1 5 3 6 4 3 10 3 14 2l10-2 1 1z" fill="#eae9e4"></path><path fill="#070807" d="M195 533h3v1c0 1 0 2-2 4h0-1c-1-1-1-2-1-3s1-2 1-2z"></path><path fill="#f3f1f1" d="M177 481s0 1 1 1 2-1 3 0l-1 1h0c1 2 1 4 1 6l-2-1-2-2v-5z"></path><g fill="#070807"><path d="M837 529c1 0 3-1 4 0 2 0 3 1 4 3v1c-3 1-6 1-9-1 0-2 0-2 1-3zm-652-1h2v3c-1 2-4 2-6 2h-2v-3c2-2 4-2 6-2zm-4-46c2 1 5 1 7 2l1 1c-2 2-5 4-8 4h0c0-2 0-4-1-6h0l1-1zm660-1c1 0 0 0 1 1 2 1 0 4 1 6v1c-2 1-4 0-5-1s-3-1-4-1c1-3 4-5 7-6zm16 32c2-1 4-1 6 0 1 1 2 1 2 2l-2 4c-2 1-4 1-5 0-2 0-2-1-3-2 0-2 1-3 2-4zM488 252h2c2 1 3 1 4 2 2 3 1 9 0 12h-1c-2-3-7-7-7-10 0-2 1-2 2-4zm25-99c3 4 9 11 9 15l-1 1c-2 1-4 1-6 2-1-6-1-12-2-18zm-4 1c2 5 1 12 0 17-2-1-4-1-6-2-1 0-2-1-2-1 2-5 5-10 8-14zm23 98c2 0 2 0 3 1s1 2 1 4c-1 3-3 6-6 9h-1 0c-2-3-3-8-1-11 1-2 2-2 4-3zM186 535h3c1 2 3 3 4 5l-8 3c-3 0-5 0-8-1 0-2 0-2 1-4 2-1 5-2 8-3zm647 1h1c3 0 9 1 12 2v4l-2 1h-4c-3 1-6 0-9-2 1-2 1-3 2-5zm39-23h4c2 0 3 0 4 1-2 3-7 6-10 9l-3 3-3-6 3-6c1-1 3-1 5-1z"></path><path d="M533 233c2 0 2 0 3 1 3 4 3 8 3 12 0 2 0 4-1 5l-3-3-2-1c-1 1-3 1-4 1v-2c-1-4 2-10 4-13zm-45-1c1 0 1 0 2 1 3 3 3 10 4 14-2 1-3 0-4 0l-1 2h0l-1-1c-1 1-2 2-3 2h-1c-1-2-1-3-1-5 0-5 1-9 5-13zM182 473h5c4 1 8 2 12 4 3 1 7 3 7 6h-2c-2 1-4 1-5 1-2 1-3 1-5 1-1-1-1-2-2-3-2-3-6-4-9-5h-1c-1-1 0-2 0-4zm665 7h1c3 0 12 9 14 11l-3 2-5 2c-3-1-5-2-8-3v-7l-1-1 2-4zM499 170c4 2 7 4 9 6-1 4-3 8-5 11h-1c-2 0-7-5-9-7 2-3 4-7 6-10zM177 486v5c-1 1-2 2-3 2-3 2-5 2-9 1-2-1-3-1-4-3v-1c1-1 3-2 3-3 3-2 6-5 9-7h3l1 1v5zm346-316c3 3 6 8 7 12l-8 5-1 1c-3-3-5-8-6-12 1-2 6-5 8-6z"></path><path d="M531 187l1 1c1 4 2 12 1 16-1 2-2 3-4 4-1 0-2-1-3-1-2-3-4-7-4-10 1-3 6-8 9-10zM144 512h8c2 1 3 3 4 4h0l1-3c2-1 5 0 7 0 1 0 2 1 3 2 0 2 0 3-1 4-2 1-4 1-6 1-1-1-2-1-3 0 0 2 0 4-1 6h0l-14-13v-1h2zm348-325c1 0 1 0 2 1 3 1 6 6 7 9 0 4-2 8-4 11h-1c-1 1-1 1-2 0-2 0-4-2-4-4-1-4 0-14 2-17zm358 335c2 0 5-1 8 0 2 1 4 4 5 7-2 2-5 4-8 7l-5 3c-1-4-5-10-4-14 1-2 2-2 4-3zM511 177h1c1 7 3 13 6 19v2c-1 2-3 5-6 6h0c-2 0-3-1-4-2-6-7 0-12 2-18 1-2 1-5 1-7zM166 522c3 0 7-1 10 0 0 1 0 1 1 1 1 4-2 11-4 14 0 1 0 1-1 2-4-4-9-7-13-11 2-3 4-5 7-6zm700-29c5 5 12 10 16 16-4 0-9 0-13-1l-1-1c0-2-1-4-2-6-1 2 0 3-1 4s-2 1-3 1c-2 1-3 0-5-1 0-2-1-4 0-5v-2c2-1 5-2 7-1h1 0c0-1 1-2 1-4z"></path><path d="M157 493c1 1 0 2 1 3 1 2 6 1 8 3 1 1 0 4-1 6 0 1-1 1-2 1-2 1-5 1-6 0 0-1-1-2-1-3h0l-1 4-15 1c5-5 11-10 17-15zm313-307h1c1 2 1 5 2 8 0 4 1 8 2 12v1l-9 1h-2l-3-21 9-1zm81 0l12 1-4 21-12-1 4-21zm161 66c7 4 13 10 19 15l-14 16h-1l-17-14 13-17zm-403 0l1-1c5 5 9 12 13 17l-18 15c-4-6-10-11-14-16l18-15zm199-37c4-1 8-1 11 1 5 1 10 6 13 11-1 3-3 6-6 8-3-3-5-6-7-10-1 3-2 5-4 7-1 1-2 2-4 2-3-1-5-5-7-8-2 4-4 6-7 9-2-2-4-5-5-8 0-1 1-2 2-3 3-6 9-8 14-9zm313 325c6 5 12 8 20 9l-4 24-21-6 5-27zm-619-1l4 28-20 5h-1c-2-2-4-19-4-23 8-2 15-4 21-10zm522 197l14 15-21 18h-1l-12-16c0-2 6-5 7-6l13-11zM285 272l15 16c-7 5-13 12-19 18l-15-14 19-20zm451 1h1l19 19c-1 2-4 4-5 5l-9 8-1 1c-1 0-1 1-1 0-2 0-5-5-6-6l-12-11 14-16zm13 436l16 14-6 6-15 16h-1c-4-4-10-9-13-15 7-6 13-13 19-21zm-68-478l25 17-12 15-1 1-23-15 11-18zM188 437l21 5c0 4-2 9-3 14l-2 14c-7-3-15-4-22-5l6-28zm49-109c6 4 11 9 17 13l-16 24-17-11 16-26zm524-29h1l18 23-15 12-2 1-18-23 16-13zm-500-1c5 4 11 9 15 14l-18 23-16-13 19-24zm571 139h2l6 28c-2 1-5 1-7 2l-13 2-1 1c-1-1-1 0-1-1-2-9-3-18-5-27l19-5zM453 188l1 1 3 20c-3 2-7 2-11 2l-17 5-6-21 30-7zm-111 42h1l10 18-24 16c-4-6-9-12-12-18l25-16zm72-32l1-1c2 1 6 18 7 21l-28 10-8-20 28-10zM217 361l18 11-12 26h-1l-19-8c4-10 8-20 14-29zm56 350h2l20 21-14 15-17-17c-1-2-4-4-5-6l14-13zm517-65c6 3 13 6 19 10-1 2-3 5-4 7l-11 20h-1l-17-11c0-1 1-2 2-4l5-8 7-14zm-6-317h1l17 26-18 10c-1 1 0 1-1 1l-15-25 16-12zm20 34h2c5 8 9 18 13 28l-18 7c-1 1-1 1-2 1l-12-27 17-9zM646 213l28 14-10 17c0 1 0 1-1 1l-26-13 9-19zm126 466c6 3 12 7 17 11l-18 26h-1c-2 0-3-2-4-3l-12-10 18-24zm-541-33h1l14 26-17 12-16-28c2-2 4-3 6-3l12-7zm339-458l31 8-5 19-1 1-29-6 4-22zM301 737l23 19-12 17h-1l-24-20 14-16zm308-539l30 11-8 19-1 1-28-10 7-21zm206 377l21 5-9 30-1 1-19-7 8-29zm-11 36l21 7-12 30h-1c-2 0-5-2-7-3l-12-6 11-28zM697 758h1l12 16-26 17c0 1-1 1-1 1-4-6-8-12-11-19l25-15zM205 575h3l7 28-19 7h-1c-2-3-3-8-4-12l-5-18 19-5zm11 36h2c2 3 3 8 4 12l7 16-18 9h-2l-12-30 19-7zm114 150l26 16c-3 6-6 13-10 18h-2l-26-17 12-17zm492-363c1 2 2 5 3 7l7 23c-1 1-17 6-20 7h-1l-9-29 20-8zM249 679h1c3 2 5 7 7 10l12 15-16 14c-7-9-14-18-20-28l16-11zm130-468h0l8 20-27 13-1-1-9-18c1-1 5-2 7-4l22-10zM200 398l20 8c-4 9-6 19-9 29-7-3-14-4-21-6l10-31zm163 382l28 13-5 12c-1 3-1 6-3 8h-1l-29-14c0-2 8-16 10-19zm301-2h2l10 18-28 14-2 1c-3-2-8-16-9-20l27-13zM206 522c11-1 21 1 31 5 0 0 2 0 3 1l-1 2c-2 9-3 18-3 28 1 25 8 49 18 72 13 29 31 55 54 76 13 12 28 23 44 29 15 6 37 9 53 2v-1c9 11 16 21 19 35 5 19 2 37-8 54l-26-9 7-18 1-2h1c1 0 3 1 5 1 5 2 11 4 16 5 1-1 1-4 1-6-11-2-22-6-32-10-30-12-57-30-82-50-38-34-67-79-83-127-8-21-13-43-15-65l21 5c-5-3-12-3-16-7l-3-3c-1-1-1-3-1-3v-8l-11 1c-2 0-5 1-7 0l-1-2 1-1c5-2 9-3 14-4zm597 1c6-1 14-1 20 1 2 0 8 2 10 4l-2 2c-2 1-6 0-8 0l-10-2c0 4 0 8-1 11-1 5-10 8-15 10l16-4c-4 41-18 82-38 118-38 66-100 113-173 133l1 6 21-7 6-2 6 15c1 2 2 4 2 6l-31 11c-5-8-8-17-9-26-3-17 1-35 10-50l10-13c13 6 27 6 41 3 17-4 33-14 46-25 19-15 34-32 47-53 25-39 41-87 31-133 6-3 13-4 20-5z"></path></g></svg>