<svg xmlns="http://www.w3.org/2000/svg" xmlns:v="https://vecta.io/nano" viewBox="127 220 765 684"><!--oldViewBox="0 0 1013 1024"--><g fill="#f0eee8"><path d="M344 744h2v2l-1 1c-1 0-1 0-2-1v-1l1-1zm204-344h0c1 0 3 0 4 1 0 1-1 2-1 3h-2c-2-1-2-1-2-2l1-2zm-106 0c2 0 2 0 3 1 0 1 1 2 0 3 0 1 0 1-1 1-2-1-3-1-4-3l2-2zm180-179c2-1 2-1 4-1 0 1 1 2 1 3 0 2-1 2-2 3h-1c-2-1-2-1-3-2 0-2 0-2 1-3zm-257-1h2c1 2 1 2 1 4 0 1-1 1-2 2h-2c-2-2-2-2-2-4 1-1 1-1 3-2zm89 474c0 3 0 17-1 19h-2l-1-1 4-18zm86-197h1c2 0 11 1 13 3v1c-4 1-10 0-14-1v-3zm0-14h0c3 0 11 4 14 6v1h-2c-3 0-10-2-12-4v-3zm1 55c4 0 9-1 13 1v1l-1 1c-3 0-11 1-13 0 0-1 0-2 1-3zm-99-1c1-1 4-1 6 0 2 0 4 0 5 1v1l-1 1c-3 0-9 2-11 0 0-1 0-2 1-3zm8-54h3v3c-3 2-7 2-10 3-1 0-3 1-4 0 3-3 7-5 11-6zm-9 14c2 0 10-1 12 1v3c-4 0-9 0-12-1-1-1 0-1 0-3zm-35 106h0c2 0 3 1 4 2v4c-1 1-2 2-3 2s-2 0-3-1-1-3-1-4c1-2 1-2 3-3zm-12-11h3c1 1 2 2 2 3 0 2-1 3-2 4l-1 1c-2 0-2 0-3-1-1-2-1-3-1-5 0-1 1-1 2-2zm32-184h3c1 0 2 1 3 2 0 2 0 3-1 4h-3-1-1c-1-1-2-1-4-2v-1c2-2 3-2 4-3zm169 190h0c2-1 3-1 4 0s1 2 2 4c-1 1-2 1-4 2-2 0-5 0-7-1v-1c1-2 3-3 5-4zm-53-130c2 0 9-1 10 1 0 1 0 2-2 3-3 1-6 1-9-1-1-1-1-1-1-3h2zm-144-37h0c2-1 4-1 5 1 2 1 2 2 2 4-1 1-1 1-3 1-1 0-3 0-5-1-1 0-2-1-2-2 1-2 2-2 3-3zm-14 147c2-1 3-1 4 0 1 2 1 3 1 4 0 2-1 2-2 4h-2c-1 0-2-1-2-1-1-1-1-3-1-4 0-2 1-2 2-3zm27-160h1 3c2 1 2 3 3 5l-1 1h-3c-2 0-4 0-5-1s-1-1-1-3c1-1 2-2 3-2zm356 4c0 3-1 6-1 10-1 9 1 15 4 23h0l-4-6c-4-10-2-18 1-27zm-325 46c3-1 7-1 11 0v1c-1 1-3 2-4 3-2 0-3 1-4 2h-1c-1-2-4-4-4-6h2zm100 97l1-1c2 0 9 0 11 2v1l-2 1c-4 0-7 1-11 2l-1-1c0-2 1-3 2-4zm35-149c1-1 3-1 4 0l1 1c0 3 0 4-2 6-2 1-3 1-5 0-1-1-1-1-1-3s1-3 3-4zm11 11h4c2 2 2 2 2 4s-2 2-3 3-3 1-4 0-2-1-2-3c1-2 2-3 3-4zM449 548l3 1c1 0 1 0 1 2-2 1-5 2-8 3-1 1-2 1-3 1s-1 0-1-1c-1-1 0-1 0-2 2-3 5-3 8-4zm114-142h1c2 0 2 0 4 1v4c-1 2-2 2-3 3h-1c-1 0-2 0-3-1s-1-2-1-4c0-1 2-2 3-3zM299 686c2 3 3 6 3 10 0 9-3 19-10 25v1c0-2 2-5 3-7 5-10 5-19 4-29zm80-225h3c2 0 3 1 4 3 1 1 1 2 1 3l-2 1c-2 0-4 0-6-1-1-1-2-2-2-3 0-2 1-2 2-3zm162 89c2-1 4-1 6 0 3 0 6 1 7 3v1c-3 0-12 1-14 0 0-2 0-3 1-4zm185 94h0l4 16c1 7 0 13-5 19 0 1 0 1-1 1 1-2 3-5 3-7 3-10-1-19-1-28v-1z"></path><path d="M443 564c2 0 5 0 7 1 2 0 3 1 4 3-1 1-1 1-2 1-2 0-10 1-11 0v-4l2-1zm-26 49c2-1 3-1 5 0 1 1 2 1 2 3s0 2-2 4h-1c-1 1-3 1-4 0s-2-2-2-4 1-2 2-3zm20 15h2c1 0 3 0 4 1s1 2 1 4c0 1-1 2-2 3h-2-2c-2-1-3-3-3-5s1-2 2-3zm170-49l2-1c2 0 3 1 4 2v4c-1 2-2 2-4 3h0c-1 0-3 0-4-1s-1-2-1-4c1-2 2-2 3-3zm-6 90s1 0 1 1c1 1 9 12 9 14l-2 1h-1c-1-1-2-3-3-4-2-3-6-8-6-11l2-1zM339 394h1l12 10v1l-1 2h-1l-9-8c-2-1-3-2-4-3l2-2zm48-43h0c3 3 5 7 7 10 1 1 2 3 2 4s-1 2-2 2h0c-2-2-10-13-9-15l2-1zm-21 15h1l7 9c1 1 3 3 3 4l-1 2h-1c-3-3-11-11-11-14l2-1zm10-8c2 1 3 3 4 5 2 3 5 6 7 9-1 1-1 1-3 2l-10-14c0-1 1-1 2-2zm-29 26h1c2 2 12 10 13 12l-2 1-1 1-9-9c-1-1-3-2-3-3l1-2zm-16 20c1 0 0 0 1 1l9 6c2 1 4 2 5 4l-2 1h-1c-4-3-10-5-13-9 0-2 0-2 1-3zm66-59h1c3 4 7 10 8 15l-2 1h-1c-2-3-4-7-6-11-1-1-2-2-2-4l2-1zm-41 29h1c3 3 5 6 8 9 2 1 3 3 4 4l-2 2h-1l-8-8c-1-2-3-3-4-4l2-3zm263 281h2c1 1 2 3 3 4 2 2 7 7 7 9l-1 2h-1c-3-3-6-7-9-10l-3-3 2-2zM402 186c6 2 11 5 14 10 5 7 6 14 4 22v1c0-3 0-7-1-10-2-10-8-17-17-23zm197 254h3c1 0 1 0 2 1 1 2 1 3 0 4 0 2-1 3-3 4h-1c-1 0-2 0-3-1-1-2-1-3-1-5 1-2 2-2 3-3zM407 339h2l8 16-2 1h-1c-2-1-7-13-8-16l1-1zm203 323s1 0 1 1l8 9c1 1 2 3 3 5l-2 1h-1c-3-3-6-7-8-10-1-1-2-3-3-4l2-2zM419 334h2l6 16-1 1s-1 0-1 1c-2-2-2-4-3-5-1-4-4-8-4-12l1-1zm140 355s1 0 1 1l4 12c1 1 2 3 1 5h-1-2l-3-11c-1-2-2-4-2-6l2-1zM431 330h2l4 12c0 1 1 3 1 5l-2 1-1-1-4-11c-1-1-2-3-1-5l1-1zm139 355h1c1 4 7 14 6 17l-2 1-1-1c-2-3-3-7-5-11 0-2-1-3-1-5l2-1zm-172-13c1 0 1 0 2 1v1c-2 4-5 10-9 14h-1c-1 0-1-1-2-2l10-14zm238-34h1c5 3 9 7 13 11l-1 2h-1l-9-7-4-4 1-2zm-56 43c1-1 0-1 2 0l5 10c1 2 2 4 2 5l-2 1c-1 1 0 1-1 1-3-5-7-12-7-16l1-1zm49-35v1c3 1 5 5 8 7l4 4v1l-2 2h-1l-9-9c0-1-2-2-3-3v-1l3-2zm-39 29h2c2 4 4 7 6 11 1 1 2 3 2 4s-1 1-2 2h-1c-3-5-7-10-8-16l1-1zm54-47h1c1 0 3 2 4 3 3 2 7 5 10 8l-2 2c-2 0-3-2-5-3-3-2-7-5-9-8l1-2zM388 444h1c1 0 3 0 5 1 1 1 2 2 2 4s-1 2-2 3h-2c-1 0-4-1-5-2s-1-2-2-3c1-2 2-2 3-3zm-82 7h1c3 0 9 3 12 4 2 1 4 1 5 3l-1 2c-3 0-8-2-11-3-2-1-5-2-7-3 0-1 1-2 1-3zm373 87h1 5c3 1 11 1 13 3v2c-2 1-4 0-5 0-5-1-10-1-14-2v-3zm-16 58c2 0 4 1 5 2 4 1 8 3 11 5v3h-1c-1 0-3-1-4-1l-12-6c0-1 1-2 1-3zM311 439c2 0 4 1 5 2l12 5c0 1-1 2-1 3-4-1-9-3-13-5-1 0-3-1-4-2l1-3zm12-24h1c4 2 7 4 10 6 2 1 4 2 5 4l-1 2h-1l-10-6c-2-1-4-2-5-3l1-3zm85 263c2 0 2 0 3 1 0 1-1 3-2 4l-6 12h-1c-1-1-2-1-2-2l8-15zm225-307h1c1 0 1 0 2 1 0 2-2 3-3 5l-8 8c-2 0-2 0-3-1v-1l11-12z"></path><path d="M565 331h1c1 0 2 0 3 1-1 5-4 11-6 16l-1 1c-2 0-2 0-3-1l6-17zm102 81h2c0 2 1 2 0 3l-14 8h-1l-1-1v-1c1-1 3-2 4-2l10-7zm-55-58h1c2 1 2 1 3 2l-10 14h-1c-2 0-2 0-2-1 2-5 6-10 9-15zm39 264h1c5 3 10 5 14 9 1 1 0 2-1 3h-1c-3-2-13-8-14-10l1-2zm-62-277h1c2 0 2 0 3 2l-8 15h-1c-1 0-2 0-2-1 2-6 5-11 7-16zM378 657h1c1 0 1 1 2 2l-11 13h-2l-1-1c0-3 9-12 11-14zm274-267h1l2 2c-1 2-3 3-4 4l-9 7h-2c-1 0-1 0-1-2l13-11zM388 665c1 0 1 0 2 1 0 2-1 3-2 4l-8 11h-1c-1 0-2-1-2-2l11-14zm165-338h0c2 0 3 1 3 1l-4 17h-1c-1 1-2 0-3 0l5-18zm90 53h1c1 1 1 1 2 3l-13 11h-1c-1 0-1 0-2-1 1-2 3-3 4-5l9-8zm-199-53h1c2 5 4 12 4 17l-2 1-1-1c-1-3-2-8-3-12-1-1-2-3-1-5h2zm-84 313h1c1 0 1 0 2 2l-14 12h0c-1-1-2-1-2-2 0-2 2-3 4-4 3-3 6-6 9-8zm59 43h1c1 0 2 1 3 2-2 5-5 10-8 16h-1c-1-1-2-1-2-2l7-16zm-81-73h1c1 1 1 1 1 2-4 4-9 7-14 9h-2c0-1-1-1-1-3l15-8zm285-248h1c1 1 2 1 2 3l-11 13h-1l-2-2 11-14zm-22-15h1c1 0 2 1 2 2l-9 15h-1c-1 0-1 0-2-1 2-6 6-11 9-16zm-53 101c3 0 6 2 9 3l-10 4c-2 0-5 1-7 1v-1c1-3 5-5 8-7zm111-47h2c1 1 1 1 1 3l-13 9h-2c-1 0-1-1-1-2l13-10zm9 184c2-1 3 0 5 1l12 5v1l-1 2h-1c-3-1-15-5-16-7l1-2zM442 692c1 0 2 0 3 1 0 2-1 4-1 6-1 4-2 7-4 11h0c-2 0-2 0-3-1 0-3 1-6 2-9s2-6 3-8zm-11-4c1 0 2 0 3 1-2 6-4 12-6 17h-1c-1 0-2-1-3-2 2-5 4-11 7-16zm227-81c2 0 4 1 5 2 3 2 7 4 10 6 1 2 0 2-1 3-2 1-3-1-5-2l-9-5c-1-1-1-1-1-2l1-2zm-279-49c1 0 1-1 2-1 2 0 3 1 4 2l1 2c-1 2-2 4-4 5 0 1-1 1-2 1s-2-1-3-2-1-3-1-4c1-2 2-3 3-3zm199-223h1c1 0 2 1 2 2l-7 16c-1 0-2 0-3-1 1-5 5-11 7-17zm-30 357h1v1c1 2 5 16 4 17l-2 1-1-1-3-12c-1-2-2-4-1-5l2-1zm126-269h1c1 1 1 2 1 3-1 1-3 2-4 3l-11 5h-1l-1-2c1-2 3-3 4-3l11-6zM345 620h1c1 1 1 1 1 3-4 3-10 7-14 10-2-1-2-1-3-2 1-2 2-3 4-3l11-8zm328-47c1 0 3 1 5 2l11 3c1 1 0 2 0 4-2 0-4-1-5-1-4-2-9-3-12-5-1-2 0-2 1-3zm-305 76h2c1 0 1 1 1 2l-12 13h0c-2-1-2-1-3-2 1-2 2-3 3-4l9-9zm246-92h4c1 0 2 1 3 2-2 3-4 5-7 6h-1c-2 0-4-3-6-5l7-3zM317 427h1c1 0 2 1 3 2 4 1 9 3 12 6 0 1-1 2-1 3-2 0-4-1-5-2-4-2-8-4-11-6 0-2 0-2 1-3zm361 123c1-1 2 0 4 0l14 3c0 1 0 2-1 3s-3 0-5 0c-4-1-9-2-13-3l1-3zm-376-86c3-1 12 2 16 4 1 0 2 0 2 1v2l-2 1-16-5c-1-2 0-2 0-3zm30 135h2l1 2c-2 3-13 7-16 8h-1c-1 0-1-1-2-2 1-1 3-2 4-2l12-6zm-35-110h1c3 0 16 1 17 3v3h-1c-1 0-3-1-4-1-3 0-11 0-13-2v-3zm54 142l1-1c1 0 2 1 3 2-1 3-11 9-14 11h-2s-1-1-1-2c1-2 3-3 5-4l8-6zm329-196h1c1 1 1 2 1 3l-16 7h-1l-1-2c0-2 2-2 4-3l12-5zm12 37h2v4c-4 2-11 2-16 3h-2v-3c4-2 12-3 16-4zM322 577l2-1c1 1 0 2 0 3-4 3-10 4-15 6h-2c-1-1-1-2-1-3 5-3 11-4 16-5zm353-15c2-1 4 0 6 0l12 4c1 1 0 2 0 3h-1l-17-4c-1-2 0-2 0-3zM442 448c1 0 1 0 3 1s7 4 8 7h-5l-13-4c2-1 5-3 7-4zm243-1h1c1 1 1 2 1 3-4 3-12 5-17 6h0c-1-1-1-2-1-3l16-6zm3 13l2-1c1 2 2 3 1 4l-16 5h-1c-1-1-1-1-1-3 1-1 3-1 4-2l11-3zm-389 16c4 0 8 1 11 2 3 0 5 0 7 1 1 2 0 2 0 4-2 0-6-1-8-1-3-1-7-1-10-3-1-1-1-2 0-3zm18 76v1c0 1 1 2 0 3l-17 3c-1-1-1-2-1-3 1-1 2-1 4-1l14-3zm10 36h1c1 1 1 2 1 3l-16 7h-1c-1-1-1-2-1-3 1-2 4-2 6-3l10-4z"></path><path d="M695 485h1c1 2 1 3 1 4l-18 2h-1v-3c2-1 4-1 6-1l11-2zm-377 80c1-1 1-1 2 0l1 2v1l-16 4h-2c-1-1-1-2-1-3 1-1 3-1 5-2l11-2zm290-110h4c1 0 2 1 3 2v3c-1 2-2 3-4 4h-2c-2 0-3 0-4-1-1-2-1-2-1-4 1-2 2-3 4-4zm86 43c1 0 3 0 4 1v3c-1 1-12 1-14 1s-3 1-4 0-1-2 0-3l14-2zm-398 4c6 0 13 0 18 1 1 1 0 3 0 4-4 0-8-1-13-1-2 0-4 0-6-1l1-3zm17 38c2 0 2 0 3 1v2c-1 2-4 1-6 2l-11 1h-2c-1-1-1-2 0-4l16-2zm63-62c5 0 7 2 11 5l-7 3h0-2c-3-1-6-3-7-5v-1c2-1 3-2 5-2zm239-2h3c1 0 3 1 3 3 1 0 0 0 0 1-1 2-3 3-6 4-2 0-4 0-5-1-2 0-2-1-2-3 1-2 3-3 7-4zm-34 133c1 0 2-1 4 0 1 2 1 3 0 5s-4 3-5 4h-4s-1 0-1-1c-1-1-1-3 0-4 1-3 3-4 6-4zm35-116h2c2 0 5 1 6 3h0c-2 3-6 4-10 5-3-1-5-2-8-4l10-4zm-63 135h3c1 0 2 1 2 1 1 2 1 4 0 5-1 2-2 3-4 4h-2c-2 0-2-1-4-3 0-1-1-2 0-3 1-3 3-3 5-4zM374 495c5-1 9 0 14 2-2 2-4 3-7 4-5 0-10-2-15-4 3-1 5-2 8-2zm4 47h5c3 1 5 5 6 8l-9-1h-11c2-3 5-5 9-7zm235-3h2c4 0 7 3 10 5l-8 3c-2 0-5 1-8 0-1 0-2-1-3-2 2-2 4-4 7-6zm-33 16v1c0 4-1 9-2 13-4 9-12 15-20 19-4 2-8 1-12-1-2-1-4-3-5-5v-3h0c2 3 4 5 7 6 4 2 8 2 12 0 8-4 15-11 17-20 1-3 1-6 2-9l1-1zm-21-23c1 0 1 1 1 1v37c8-7 8-12 9-22 0-2 0-5 2-7 1-2 3-2 5-3v1l-2 1c-6 4-3 17-6 23-3 4-7 8-10 11v-13l1-20c0-3-1-6 0-9zm-128-76c0 1 0 2 1 3 1 5 3 43 1 47h-1l-1-20-12 3-19 2h-1c2-1 5-2 7-2l13-2 12-3v-28z"></path><path d="M560 449h0l1 1c-1 11-1 21-1 32l34 7v1c-3 0-6 0-8-1l-13-2c-5-1-9-2-13-4 0 9 1 18-1 27-1-6-1-13-1-19 0-14 0-28 2-42zm-108-38h1c0 2-1 3-3 3-5 3-10 5-15 8-10 6-20 14-27 23-4 5-9 10-10 16-2 5-2 10-2 15v20c0 3 0 8-1 10h-1v-25c0-5 0-12 1-18h0l1-2c1-4 3-7 6-10 7-11 17-21 28-28 7-5 15-9 22-12zm145 121h2c1 4 1 9 1 13l-1 24c0 4 0 9-1 13 0 1-1 3-2 4-5 4-10 7-15 11l-40 25h-1v-1-1c1-1 3-2 4-3l13-7 22-14c5-4 13-8 17-13 2-3 1-9 1-12v-29-9-1z"></path><path d="M540 410c2 0 9 4 11 5 14 8 26 18 36 31 4 5 9 12 11 18v1c2 6 1 12 1 17v24h-1c-1-2-1-6-1-8l1-19c0-5 0-10-2-14-1-5-4-9-7-13-12-18-30-30-49-40v-2zM395 532h2l-1 34c0 4 0 9 1 13 2 7 47 35 56 41v1 1c-9-4-16-10-24-15-8-6-16-11-24-18-3-2-6-4-8-7-2-1-2-3-2-5-1-8-1-16 0-23 0-7-1-15 0-22zm37 0h0l1 1c2 10 1 19 1 29 1 1 2 11 1 12-3-4-7-9-9-14-2-7 0-17-5-22-2-1-4-1-6-1-3 1-6 2-7 5-3 5-2 15-2 21 0 3 0 7 1 10 0 2 1 3 3 4 5 4 11 7 16 11l26 15h1v2l-1 1-32-20c-5-3-10-6-14-10-1-5-1-10-1-14 0-5-1-10 0-15 0-4 1-6 4-8 3-3 6-3 10-3 8 1 6 16 8 22 2 4 4 7 6 11-1-8-1-15-1-23v-14zm-48-9h54c3 0 13-1 15 1v2c-2 2-15 1-18 1h-48c-8 0-16 0-24-1 7-2 14-3 21-3zm156 0h25 32 19c4 0 7 1 11 2 3 0 6 0 8 1h-1l-66 1h-21c-2 0-5 0-7-1v-3zm-184 3l1 1c1 21 9 43 20 61 14 24 35 45 61 56 4 2 9 5 14 6 1 0 0 0 1 1 0 1 1 3 0 5l-3-1c-17-5-34-15-48-27-29-25-47-63-50-101v-1h4zm281 0h6c-1 20-6 40-15 57-17 34-47 60-83 72-1 1-4 2-5 1v-5c17-5 33-14 47-25 20-17 36-40 44-65 3-11 5-23 6-35zM452 381h1v5c-19 6-37 15-52 29-27 25-43 59-44 95h53v-8c0-2 0-2-1-3v-1h11v13l29-1c1 0 3 0 4 1s1 2 0 3H352c-1-22 5-44 15-64 12-23 32-44 55-57 10-5 20-9 30-12z"></path></g><path d="M413 499l6-1c0 4 1 9 0 12h-2-5c-2-1-1-8-1-10v-1h2z"></path><path fill="#f0eee8" d="M540 380c21 7 40 17 57 32 30 26 44 63 46 102h-76-21-5c-1 0-1-1-1-1v-2h2l31-1v-12h11v12h53c-1-23-8-45-19-64-16-28-47-52-78-60h0v-6z"></path><path d="M574 499l8-1 1 12h-9v-11z"></path><g fill="#f0eee8"><path d="M330 533c1-1 1-1 2 0 1 0 1 4 1 5l3 16c4 18 12 36 22 52 21 33 56 61 95 70 0 2 1 6 0 7h-3c-21-6-41-15-57-28-31-23-52-55-63-92l-6-29c2-1 4-1 6-1zm333-1l7 1c-3 24-8 45-19 65-17 32-44 58-76 74-10 4-19 8-29 11l-6 1v-8c21-4 42-15 59-28 27-21 48-50 57-83 3-11 5-22 7-33zM453 353v1 7c-25 5-48 18-67 35-26 22-43 53-51 86-2 11-3 21-4 32h-5l-2-1c0-4 0-10 1-14 2-25 11-49 24-70 23-39 60-65 104-76zm87 0c7 1 15 4 22 6 20 8 39 19 54 34 34 32 53 75 55 121l-8 1c-1-10-1-19-3-28-4-19-11-38-21-55-22-36-58-62-100-72l1-7zm-104-37c3-1 6 3 9 5-8 2-15 3-22 6-24 8-46 20-65 37-30 27-53 62-62 102-4 14-5 28-6 42l-1 1-7-1c1-40 14-80 37-113 22-30 51-55 86-69 10-5 20-9 31-10zM286 541c1 0 3-1 5 0l2 14c4 24 14 48 26 69 24 38 58 68 99 84 11 5 23 8 35 11 0 2 1 6 0 8h-2l-5-2c-53-11-101-47-130-92-16-24-26-51-31-78-1-4-3-10-2-14h3zm269-226h1c5 0 12 2 16 4 28 9 54 24 75 44 39 38 65 91 66 145l-6 1h-1c-1 0-1 0-1-1-1 0 0-7-1-8-2-30-12-60-27-86-20-35-52-65-89-81-13-6-26-10-40-14 2-1 4-3 7-4zm149 225l8 1-3 18c-6 30-18 56-34 81-7 10-15 19-23 28-29 29-66 50-106 58l-7 1v-8c31-6 63-19 88-40 43-35 71-84 77-139zM496 70c2 9 2 20 3 30l4 52 4 39c1 9 3 19 6 27 1 1 0 2 0 3-3 5-4 11-5 18l-5 29c-2 13-5 25-6 38-2-5-2-11-3-17l-6-35c-2-12-3-24-8-35-1-1 2-6 2-8 3-10 4-21 5-32l9-109zm259 437c2-1 8 2 11 2 4 1 9 2 14 3l100 13-107 13-12 2c-2 1-4 2-5 2s-3-1-4-2c-8-2-15-3-23-5l-48-7-31-3 63-9c14-2 29-4 42-9zm-513 0c4 2 10 3 15 4l21 4 69 10-77 10c-6 1-12 2-18 4-3 0-7 2-10 2-2 0-5-1-6-1l-11-2-108-13c3-1 7-1 10-2l20-2 57-7c12-2 25-4 38-7z"></path><path d="M283 277h203c1 3 1 8 2 11l5 33 3 27 8-56c1-5 1-10 3-15h205l-20 110c-1-7-1-13-2-19-1-17-4-34-16-47-12-12-27-14-44-14h-50c-9 0-20-1-29 1-5 1-10 3-13 6-4 5-7 11-7 17-1 6-1 13-1 20v29 92 303c0 17 0 34 7 50 10 23 28 33 51 39 7 2 14 3 20 5H384c19-5 38-8 54-20 17-14 23-33 25-54 1-8 1-17 1-26v-45-141-169-51c0-10 0-20-1-29 0-6-2-13-6-17-5-7-11-9-19-10-12-1-24 0-36 0h-33c-8 0-16 0-24 1-7 2-15 5-21 10-19 17-19 44-21 67h0l-20-108z"></path></g></svg>