<svg xmlns="http://www.w3.org/2000/svg" xmlns:v="https://vecta.io/nano" viewBox="132 20 769 831"><!--oldViewBox="0 0 1024 963"--><style>.B{fill:#efeeeb}.C{fill:#e9e8e6}.D{fill:#f0efe9}.E{fill:#f0eeed}.F{fill:#dad8d6}</style><path d="M411 724l2 1 1 1c-1 1-1 1-2 3-2-1-2-1-3-2v-2l2-1z" class="C"></path><path d="M289 509h0c1 0 2 0 3 1 0 2-1 2-1 3h-1c-2 1-2 0-3-1v-1l2-2z" class="D"></path><path d="M427 542l2-1c1 1 1 1 1 3 0 1 0 1-1 2h-1c-1 0-1 0-2-1 0-2 0-2 1-3z" class="C"></path><path d="M352 522c1-1 2 0 3 0l1 1c0 2 0 2-1 3-2 0-2 1-4-1 0-2 0-2 1-3z" class="D"></path><path d="M288 665h1c1 1 2 2 2 3 1 1 0 2-1 3 0 1 0 1-1 1h-1c-1-2 0-5 0-7z" class="C"></path><path d="M735 690c1 0 2 0 3 1s1 1 1 3l-2 1h-2c-1-2-1-2-1-3l1-2z" class="D"></path><path d="M666 522h1c1 0 2 1 2 2 0 2 0 2-1 3h-1c-1 0-2 0-2-1 0-2 0-2 1-4z" class="E"></path><path d="M266 420h2c1 0 1 0 2 2 0 1-1 1-1 2-1 1-2 1-3 0-1 0-1 0-1-1 0-2 0-2 1-3z" class="C"></path><path d="M423 520l3-14c1 6 1 12-1 17 0-1-1-1 0-2v-2-1h0l-1 2h-1z" class="D"></path><path d="M364 483h1c1-1 1-1 2-1 1-1 2-1 4-1v1c0 2 0 4-2 5-2-1-2-3-5-4z" class="C"></path><path d="M689 759h2c1 1 1 1 1 3 0 1 0 1-1 2h-2l-2-2c1-2 0-2 2-3z" class="D"></path><path d="M661 249c3 1 7 2 9 4 1 1 1 1 1 3h-1c-3-1-6-5-9-7z" class="E"></path><path d="M291 655c2 1 3 2 4 3 0 2 0 4-1 6h-1c-1-1-2-1-3-3 1-1 2-1 2-2l-1-1v-2-1zm405 64v3l1 1v1c0 3-1 5-3 7-1 1-1 1-2 0 0-2 2-4 3-6s1-4 1-6z" class="C"></path><path d="M337 758h1c2 1 2 1 3 2l-2 4h-2c-1-1-2-2-2-3 0-2 1-2 2-3z" class="B"></path><path d="M281 663c1 1 2 2 2 3l-2 2c-1 1-1 5-1 7-1 1-1 2-1 3-1 1-1 1-1 2v-11l1-3h1l1-3z" class="D"></path><path d="M275 328h2c1 1 1 2 1 4 0 1-1 1-2 2h-3c-1-2-1-2-1-3 1-2 1-2 3-3z" class="C"></path><path d="M331 411c8 1 17 1 25 1-5 2-12-1-17 1h0c2 0 2 0 3 1v1h-2c-2-1-3-1-5-2-2 0-3 0-4-2z" class="F"></path><path d="M600 477c1-1 1-1 2-1 2 1 2 1 3 2 0 2 0 2-1 4 0 0-2 1-2 0-1 0-2 0-3-1 0-2 0-3 1-4z" class="D"></path><path d="M300 426h3v1l-9 6c-1 0-1 1-2 0v-2c2-3 4-4 8-5z" class="C"></path><path d="M608 298h2c2 1 2 1 2 3 0 1 0 2-2 3h-2c-1-1-2-1-2-3 0-1 1-2 2-3z" class="B"></path><path d="M717 395c4-5 6-8 7-14 0 8-1 17-7 23h0-1l1-1v-1h1v-1c-1 0-1 0-2 1h0l2-4h1v-1 2h1c0-2 0-2 1-3v-1h0v-1h1c0-2 0-1 1-2l-1-1c-1 1-2 3-5 4zm-396-25c1 0 2 0 2 1 2 1 1 2 1 4l-2 2c-1 0-2-1-3-1-1-1-1-2-1-3 1-2 1-2 3-3z" class="D"></path><path d="M756 715c0-3 3-8 4-10 1-3 2-5 3-7h1c0 1 0 2-1 3 0 0 0 1 1 1-1 5-5 10-8 13zM364 434c2-2 4-3 6-4 4-1 8 0 11 2-3 1-6 1-8 1-3 0-6 1-9 1z" fill="#a8a7a6"></path><path d="M391 375c1-1 2-1 3 0s2 1 2 3c0 1-1 2-2 3h-1c-2 0-2 0-3-1 0-3-1-3 1-5z" class="B"></path><path d="M402 390h-4c1-3 3-5 6-6 1 0 2-1 4 0 0 2-2 3-3 5-1 0-2 0-3 1z" class="E"></path><path d="M723 732c2 0 2 0 4 1 1 1 1 2 1 3-1 2-1 2-3 3-1 0-2 0-3-1s-1-1-1-3c1-2 1-2 2-3z" class="B"></path><path d="M288 655h3v1 2l1 1c0 1-1 1-2 2 0 1 0 2-1 3v-2l-2 1-2-1-1-1 1-3c2-1 2-1 3-3h0z" class="E"></path><path d="M295 643l1 2c-1 2-2 4-4 5-1 2-3 3-4 5-1 0-2 0-2 1l-2-1c3-4 7-8 11-12z" class="F"></path><path d="M602 540c1 0 3-1 4 0s2 2 2 3c-1 2-1 2-2 3l-2 1c-2 0-2-1-3-2s-1-1-1-2c1-2 1-2 2-3z" class="E"></path><path d="M767 492c1-1 2 0 3 0 1 1 2 1 2 3l-2 4h-1c-1 0-2 0-3-1s-2-2-1-3c0-2 0-2 2-3z" class="D"></path><path d="M380 708c1-1 3-1 4 0s1 2 2 3c-1 2-2 2-3 3s-2 1-3 0-2-1-2-3 1-2 2-3zm261-311l1 2-4 19-1-1c-1-2 0-5 0-8l1-1v-3l1-2c0-1 1-2 1-3s1-2 1-3z" class="C"></path><path d="M302 522c2 0 3-1 4 0s1 3 2 4c-1 2-1 2-3 3-1 0-2 1-4 0-1-2-1-3-1-4 0-2 1-2 2-3z" class="B"></path><path d="M709 756h0c2 0 3-1 4 1 2 1 1 2 1 4 0 1-1 1-2 2h-1c-1 0-2 0-3-1s-1-2-1-3c0-2 1-2 2-3z" class="C"></path><path d="M713 702c2 0 3 0 5 1 1 2 1 3 1 5-1 1-2 1-4 2-1 0-2-1-3-1-1-1-1-2-1-3 0-2 1-3 2-4z" class="E"></path><path d="M650 299c1 0 2-1 2 0 2 0 2 0 3 1s1 2 1 3c0 2-1 2-2 3h-3c-1 0-1 0-2-1s-1-2-1-3c0-2 1-2 2-3z" class="C"></path><path d="M734 423c1 0 2-1 4 0 1 1 2 2 2 4s-1 2-2 3c-1 0-2 0-3 1-1-1-1-1-2-1-1-1-1-2-1-4 0-1 1-2 2-3zm-22 102c2-1 3-1 4 0s2 2 2 3c0 2 0 3-1 4h-1c-1 1-3 0-4 0-1-1-2-2-2-3 0-2 1-3 2-4z" class="B"></path><path d="M659 749h2c2 0 2 1 3 2s1 2 1 3c-1 1-1 2-3 3h0c-2 0-3 0-4-1s-1-2-1-4c0-1 1-2 2-3z" class="D"></path><path d="M284 655l2 1-1 1c0 1-1 1-1 2-2 1-2 2-3 4l-1 3h-1l-1 3c-2 4-3 10-4 14-1-11 4-20 10-28z" class="C"></path><path d="M700 368c2-1 3-1 4 0s2 2 2 4c0 1-1 2-2 3-2 1-3 1-4 0-2-1-2-2-2-4s1-2 2-3z" class="E"></path><path d="M322 304c-1-3-2-4-1-6h1c3 1 6 3 7 6 1 2 1 4 1 6-2-2-5-5-8-6h0z" class="B"></path><path d="M353 754h1c2 0 3 0 4 1s2 2 2 3c-1 2-1 3-3 4h-1c-1 0-2 0-3-1s-2-3-2-4c1-1 1-2 2-3zm407-85c3 4 5 9 6 14v1c0 4 0 8-1 12-1-9-3-18-6-26l1-1z" class="D"></path><path d="M303 641c1 0 0 0 1 1-3 4-4 9-7 14h-1l-1-1-3-3c2-2 3-4 5-6s4-3 6-5z" class="C"></path><path d="M382 637h4c-1 2-2 4-3 5-3 4-5 7-7 11h-1c0 1 0 2-1 2 1-4 1-8 3-12 1-2 2-5 5-6z" class="E"></path><path d="M354 605h1v1c1 3 5 6 7 7h0-9c-3 0-5-1-7-3h0c1-3 6-4 8-5z" class="C"></path><path d="M312 734l1-1c2 0 3 1 4 2s1 3 1 4c-1 2-1 3-3 4h-1c-1 0-3-1-3-1-2-1-2-3-2-4 1-2 1-3 3-4zm374-345h2c1 0 3 0 3 2 1 1 1 2 1 4l-3 3h-2c-1 1-3 0-4-1-1-2 0-4 0-5 0-2 1-2 3-3z" class="B"></path><path d="M309 701h3c1 0 2 1 3 2 1 2 1 4 0 5s-1 2-3 3h-2c-2 0-3-1-3-2-1-1-1-3-1-4 1-2 2-3 3-4zm3-397c0-2 0-2-1-3h0l1 1c1 0 1 0 2 1h0c1 1 1 1 2 1h1c4 4 9 9 12 14 2 2 2 5 3 7l-20-21zm-29 362c3 2 4 5 4 9-2 3-4 6-7 8v-8c0-2 0-6 1-7l2-2z" class="E"></path><path d="M616 623h4c-2-1-3 0-5-1 2 0 4 0 5-1v-1h1c5 0 12 1 16 6 1 2 2 5 3 7-3-3-6-6-10-7-4-3-9-3-14-3z" class="C"></path><path d="M655 504h1c1 0 3 1 4 1 1 2 2 3 1 5 0 2-1 3-3 4h-2c-1 0-2 0-3-1-1-2-1-4-1-6 0-1 1-2 3-3zm43 218c0-1 0-1-1-2h0 1c0-1 1-2 1-3 1 4 1 9-1 13s-6 8-10 9c-2 0-4 1-5 0-1-2 0-2 0-3 1-2 3-5 5-6v1l1 1c1 1 3 0 5 1 2-2 3-3 4-7v-4z" class="E"></path><path d="M377 289h3c1 1 3 2 3 3 1 1 1 3 1 5-1 1-2 2-4 3h-2c-2 0-3-1-4-2-1-2-1-4 0-6 0-1 1-2 3-3z" class="B"></path><path d="M295 643c9-8 17-11 29-12-4 3-8 5-13 7h-2c-3 0-9 4-11 5l-2 2-1-2zm-6 34c1 0 3 2 3 3s-1 6-2 7v8c1-1 1-6 1-8s1-3 1-4 0-2 1-3v1 6c-1 6-2 11-5 16-1-4-2-9-3-13-1-5 2-10 4-13zm18-250c1 0 2 0 3 1-1 1-5 3-7 4-9 7-11 15-13 26v1l-1 1c-1-6-2-13 1-18 3-6 10-14 17-15z" class="C"></path><path d="M311 429c2-1 5 0 7 1l-5 2c-10 5-16 14-19 24l-2 6c-1-3-1-6 0-9h0c0-3 1-6 3-9 2-6 9-13 16-15z" class="D"></path><path d="M381 432c2 1 3 1 4 3 0 1 0 2-1 3-1 2-6 3-9 3-3 1-8 0-10-2-1-1-2-1-2-2 0-2 0-2 1-3 3 0 6-1 9-1 2 0 5 0 8-1z" class="B"></path><path d="M423 520h1l1-2h0v1 2c-1 1 0 1 0 2-2 10-9 21-16 28-3 2-8 8-11 8-1 1-3 1-4 0 0 0 11-9 12-11 5-4 10-10 13-16 2-4 3-8 4-12zM313 775h0c6 10 16 8 26 12 2 2 3 4 5 7-7-1-15-2-21-5-5-3-9-9-10-14z" class="E"></path><path d="M612 711c1 1 3 4 4 6 2 2 4 5 7 7 11 11 27 15 42 12 3-1 7-3 11-3l-1 1c-2 2-5 3-7 4-11 4-23 3-33-2-9-5-20-15-23-25z" class="B"></path><path d="M724 772c1 3-2 7-4 9-6 7-18 10-27 11v-1l1-3c3-6 11-5 17-7s10-4 13-9zm-364-46c-2-4-3-7-1-11 0-1 1-2 2-2h0c4 7 5 14 13 17 1 1 3 1 4 1h1c8 1 17-3 23-8l2-3c2-1 5-6 7-7-4 9-10 16-19 20-8 3-16 3-23-1-4-1-6-3-9-6z" class="E"></path><path d="M350 713v-8c1-6 4-12 9-15 2-2 6-2 9-1 3 0 6 3 8 6h-1c-4-1-9-1-13 2s-6 8-7 12c-1 5 0 10 2 14l1 2h0-1l-1-2v2 1c-1-1-2-3-2-4l-3-6c-1-1-1-1-1-3zm55-324h0c6-2 12-5 15-10 2-3 3-8 1-11 0-3-3-5-5-8 5 4 9 8 10 14s-1 13-5 17c-2 3-5 6-8 6-1 1-1 0-2 0l1-1c4-1 9-5 10-9h0c-4 4-7 8-14 9-4 0-6-2-10-4v-1c1 0 2 1 3 0l1-1c1-1 2-1 3-1z" class="C"></path><path d="M360 726h0c2 4 6 7 10 9h0c-2 0-3 0-5-1-2 0-3-1-5-1l1 1h-1c-4-1-7-2-11-5-3-2-9-8-9-13 0-1 0-1 1-1 2 0 3 2 5 3-2-2-4-5-5-8-3-7-2-13 1-19 0 5 1 9 3 14v-5c0-2 0-4 1-5v7c1 4 3 8 4 11 0 2 0 2 1 3l3 6c0 1 1 3 2 4v-1-2l1 2h1 0l2 1zm254-354c2-1 4 0 7 0-2 1-5 2-6 3-3 3-4 7-4 11 1 3 2 6 5 8 4 4 11 3 16 3h0v1c-1 2-4 3-6 3-4 1-10 1-14-2h0-1c2 1 3 2 5 3 4 1 11 1 15-1v-1 1c0 1-1 1-1 2-7 1-13 4-19 1-4-2-7-6-8-10-2-5-2-10 0-15 3-4 6-6 11-7z" class="B"></path><path d="M750 738h1l3 9c1 9 0 18-5 26-5 6-11 10-17 13-13 7-26 11-40 13h-4c0-1 1-2 2-3 3-1 8-2 12-3 12-3 26-8 35-17 11-10 13-24 13-38z" class="E"></path><path d="M759 670c-1 0-1 0-1 1l-3 3c-1 0-2 0-3-1-2-2-3-8-4-11-1-4-3-7-4-10 0 3 0 8-2 10h-1c-2-1-2-4-3-7-1-4-2-8-5-11-4-5-10-6-14-11l-1-1c14 1 26 10 36 20 6 7 11 17 14 26-1 0-2-1-2-1l-6-9c-2-5-5-9-8-13s-7-7-10-10c3 5 7 9 11 13 2 4 4 8 6 11h1l-1 1z" class="C"></path><path d="M324 342h0c0 3 0 5 1 8 1 1 3 2 4 2 0 0 2 0 2-1 4-1 7-1 12 0 1 0 3 1 5 2 6 4 11 10 16 16 8 9 16 19 23 30-3-3-8-5-11-8s-6-7-9-11l-10-10-9-9c-4-2-9-1-13-1-3 0-6-2-8-3-3-2-5-4-5-8-1-3 0-5 2-7z" class="B"></path><path d="M341 383c7-2 8 3 12 7 3 2 6 3 9 5v1c-2 3-4 3-6 5-2 1-1 3-2 4-5 1-10 3-14 3s-7-1-11-1c-1-1-1-1-1-2s0-2 1-3c3-3 7-3 11-4h0c-3-1-6 0-8 0-5 1-9 1-13 1 7-7 13-13 22-16z" class="C"></path><path d="M339 401h0c0 2-1 4-2 5h-2-1c1-2 3-4 5-5z"></path><path d="M285 733h1c-3 12-2 23 3 33 9 18 26 25 44 29 2 1 5 1 7 2h5c1 1 1 2 1 3v1h-5l-6-1-5-1c-12-3-25-8-34-16-7-6-12-13-16-20-4-6-11-18-9-25 3-4 9-4 14-5zm313-330c0 2 0 5 1 8 0 6 6 13 11 16 3 2 6 4 8 6l2 3 1-2 1-1c1 0 1 1 2 2 7 9 9 23 8 35-1-3-1-6-1-9-2-6-3-13-7-19l5 23c1 10 1 21-1 30-1 2-1 5-2 6-1 0-2-1-2-2 0-2 1-6 2-8 1-3 1-7 1-11 0-12-4-24-10-34h0l5 13c2 7 3 15 3 23 0 4 0 10-2 13-1-7-1-16-3-23-3-7-7-12-10-18 0-1-1-2-1-3 1-1 2 0 1-2-1-4-4-5-4-9 0-2 1-2 3-3h1c-6-6-11-14-12-23l-1-1c0-4 0-7 1-10z" class="B"></path><path d="M637 409l-5 26c0-11 1-22 2-33 1-9 1-18 0-27 0-4-1-8-2-12l-2-8c-1-1-1-2-1-3v-1c1-1 2-1 3-1h2c-4-7-8-15-9-23-2-9-1-18 5-25-2 3-3 6-3 9-1 9 2 16 7 22 1-2 1-3 3-4 1-1 1-1 2 0 4 1 7 7 9 10 2 4 4 9 5 13 0 5-2 11-3 17l-6 24 1-18c1-10-2-21-7-29 5 14 6 26 5 41-1 3-1 7-2 10h0c0 1-1 2-1 3s-1 2-1 3l-1 2v3l-1 1z" class="E"></path><path d="M696 719c-1-1-1-5-3-7-3-2-7-4-10-6-6-2-13-3-19-2-9 0-17 2-26 3l15-5c-1-1-3 0-4 0-3 1-7 2-10 2-5 0-11-1-16-3-8-4-13-12-16-20-3-7-4-18 0-26 2-4 5-7 10-9 3-1 7-2 10 0h0-1c-2 1-4 1-5 2-5 3-8 7-9 12l-1 1v11l2-5c1-1 2-1 3 0s2 1 3 3c1 4 1 8 3 12 2 5 5 10 8 15 2-4 5-8 9-9 2-1 4-1 5 0l1 5c3-1 5-4 9-3 2 2 3 4 4 6 7-2 13-4 20 0 9 4 17 12 21 21 0 1-1 2-1 3h-1 0c1 1 1 1 1 2l-1 1-1-1v-3z" class="B"></path><path d="M614 684h1c2 2 3 4 4 7l-5-5v-2z"></path><path d="M312 304l-12-9v-1c-4 6-6 11-5 18 1 8 5 14 11 19l-4-1c-9-4-15-11-18-19s-2-16 1-23l1-1h-2c-1 1-1 1-2 1-2 1-3 0-4-1v-1c3-6 10-13 16-16 9-5 20-4 29-1 4 1 10 4 12 8 0 2-1 6-3 8l-2-1c-2 0-6 3-8 4-3 1-6 2-8 1-2 0-2-1-2-2 1-3 7-7 10-9h-1c-6-1-11-1-16 3-7 4-13 12-15 20h1c0-1 1-3 1-4 1-3 3-6 7-7 6-1 18 9 23 14h0c4 4 8 6 9 12h-1l-15-14h0l1 2c-1 0-1 0-2-1h0c-1-1-1-1-2-1l-1-1h0c1 1 1 1 1 3z" class="D"></path><path d="M389 570h6c6 0 11 1 15 5 5 7 6 18 5 26-1 10-7 19-15 26-5 4-11 7-17 6-2 0-4-1-5-3 1-3 11-7 14-9 2-2 5-3 7-5 6-6 10-14 11-22 0-6-1-9-6-14 0 1-1 3-2 4-3 3-8 4-12 5 1 1 3 2 4 3s1 2 1 3c-3 1-8-1-11-2-7 0-11 4-16 8h8l1 1c-1 2-3 3-4 4-3 1-5 1-8 1h-1c-3-1-6-1-8-2 8-6 15-15 24-20 3-2 6-3 10-3 2-1 5-1 7-2l-1-1c-5-2-13-1-18 2-4 3-8 8-12 12-7 6-16 11-24 16-3 2-6 4-10 5h-9c12-6 25-11 36-21 3-3 7-6 10-9 3-4 6-8 9-11 4-2 7-2 11-3zm306-31c3-1 6-1 7 1 3 1 2 3 3 6 6-2 12-1 17 2 11 5 17 14 20 25-4-5-7-10-12-13-6-3-14-6-21-5-3 1-7 2-10 3l3 2c0 1 1 2 0 3-2 6-11 4-16 6 1 1 3 0 4 1l-2 5c-2 5-2 12 1 17 2 3 6 6 7 11h0-3c-6-1-11-7-14-12-3-6-5-13-3-20 1-8 6-13 13-18-3 0-8 4-10 6-5 5-7 11-7 18 0 8 7 18 13 23 2 2 5 3 7 5-9-4-16-9-21-17-5-9-4-23-1-33 1-2 2-3 4-4 2 0 1 1 3 1v1s4-5 4-6c4-4 9-7 14-8z" class="B"></path><path d="M638 418c0 3-2 10-1 12 2-4 2-9 3-13 4-16 7-32 12-48 3-10 6-20 10-30s10-20 12-31c1-6 2-12 1-17 0-5-1-9-1-13 0-2-1-4 0-5 0-2 1-3 2-3 2 1 3 4 4 6 5 12 3 25-3 36l1 1c6-12 8-25 3-38-1-3-4-7-4-10l1-1c4 2 7 7 9 10-2-6-6-11-8-17 4 4 8 9 9 14 1 3 1 5 1 8v-3c1-3 1-6 1-10l1 2c2 3 3 6 4 9 0 2-1 5 0 7 1-1 2-2 3-2l1 1c2 4-1 15-4 19-4 7-10 12-15 18-5 5-8 11-11 17-12 20-16 43-21 66l-8 34-5 24c-3-9-1-17 0-26l2-18 1 1z" class="E"></path><path d="M690 457c6-1 12 0 18 3s12 8 14 15c2 5 2 10 0 15-3 4-6 8-11 10-8 2-15 0-21-5-2-2-4-4-6-5 3 4 7 7 11 10 5 2 10 3 16 1 9-2 11-9 14-17v2c-1 6-2 12-8 16-5 4-12 5-18 4s-13-6-16-11l-1-1h0c0 1 1 2 0 4h0c-1 2-1 3-3 5 0 0-1 1-2 0-5-1 0-7-2-10-1-2-3-3-5-4-7-1-14 3-20 7 2-5 4-8 8-12 2-2 4-4 7-4v-1h4c10-1 15 4 22 9 4 3 9 6 14 5 3 0 5-2 6-4 3-4 1-10 0-15l4 4h1c-4-5-8-10-14-12-3-1-6-2-10-2 1 1 3 2 3 3 1 1 1 1 1 2-2 2-4 2-7 2-4 0-9 0-14 1-15 4-27 15-33 28-2 4-3 8-5 12v-1c-1-11 9-26 16-35 9-11 22-18 37-19zm-360 79h0c9-1 17 1 23 7 6 5 9 13 9 21 0 2 0 6-1 9s-4 6-7 9c1-6 3-13 2-19-1-4-3-9-6-12-3-2-8-4-12-3h0c1 1 2 1 3 1a25.03 25.03 0 0 1 12 13v1c1 2 1 4 1 6 0 4 0 10-1 13-2 5-8 10-12 14-1-4 1-10 1-14l4-12c-2 0-4 0-6-1-1 0-3-2-3-3-1-3 2-5 3-7-3 2-5 4-8 5 0 0-1 0-1-1-1 0-1-1-1-2s-1-2-1-2c-7 0-13 7-20 8-1 0-1-1-1-2l-1-1c-2 4-5 9-6 14-2 5-1 11-1 16-4-5-6-10-7-16-1-9 2-18 7-25 8-10 18-15 30-17z" class="B"></path><path d="M328 542h2c1 0 1 0 1 2l-1 1h-1c-1 0-1-1-1-2v-1z"></path><path d="M731 284c5-1 10-1 15 2 3 1 6 4 8 7-2 2-4 1-5 2 0 2 2 3 2 5 2 4 2 9 2 13-2-5-4-9-8-13-5-4-12-5-19-5 7 1 14 2 18 8 5 5 5 11 4 18-1-7-2-11-7-15-7-6-14-6-22-5h8c4 0 8 2 12 5s6 6 7 11c-3-2-5-5-8-7-6-5-14-5-21-4-12 1-23 14-30 23 4-2 7-5 11-6 4-2 7-2 11-2-1 2-2 4-4 6 4 2 8 5 13 7s11 2 15-1l4-1c-2 1-4 3-6 3-8 4-20 1-28 2-2 0-5 0-6 1 2 0 3 0 4 1 0 1 1 2 0 3-1 8-17 10-23 12l-6 3-1 1c-6 5-10 12-13 19 4-4 7-9 12-12 3-3 7-5 11-4 1 0 1 1 0 2-1 5-5 10-8 14-2 5-5 9-6 14l-6 14c-1 4-2 10-6 12 0-1 0-1-1-2-2 4-4 9-6 14 3-3 8-8 11-9l1 1s1 1 0 1c0 2-4 6-5 8-3 4-7 9-9 13-3 5-5 10-8 14l11-51c6-25 12-51 26-73 6-9 14-17 21-25 7-6 13-14 21-19 4-3 9-4 14-5zM415 556c2-1 4 0 6 0 3 1 5 2 6 4s2 5 1 7c-1 1-2 1-3 1l-4-3c2 7 6 12 8 19 3 15 0 31-8 43-2 5-6 9-9 13-4 8-4 18 1 26 1 3 4 6 5 9l-2 1c-3 0-5 1-7-1l-3-1 2 3c6 9 14 10 24 12 0 1 0 2-1 3 0 1-1 1-1 1-3 2-10 2-13 1h-1l-1-1c-10-4-16-12-20-22 0 5 0 11 2 16 2 6 7 12 14 15 2 1 4 1 6 2-7-1-13-2-19-7-10-8-11-18-12-30l-1-14c-2 5-4 13-3 17v4c-1-4-2-7-2-11 0-15 10-23 20-33 10-9 16-21 16-34 0-8-1-17-6-22-5-4-12-6-18-5-6 0-12 1-17 5-4 3-7 7-10 11l-8 7c-7 6-15 11-24 15-3 2-7 4-11 6-5 1-13 2-17 2l-1-1c3-1 5-2 8-3 4-2 8-4 11-7-1-2-4-4-5-6 0 0 1-5 1-6 0-2 0-4-1-6-1-5-4-7-8-9 3 0 6 0 8 1 4 2 7 6 10 9 0-1-1-2 0-3h3c1 0 3 1 4 2 2 3 2 8 1 12 0 2-2 3-4 4h0v1c9-4 19-13 25-20 3-4 6-8 10-11 6-5 13-7 20-9 8-1 16 0 23 4 5 4 10 11 11 18 2 15-1 31-11 43-4 4-8 8-12 13-4 7-5 12-3 20 2-6 3-14 7-20 2-4 6-8 9-12 10-11 13-26 12-40-1-8-4-16-10-21v-1h1c1 0 2 1 3 0-1-2-7-1-9-3v-2l8-2v-1h-1c-2-1-3 0-4 0-1 1-2 1-3 1 2-2 4-3 7-4zm302-161c3-1 4-3 5-4l1 1c-1 1-1 0-1 2h-1v1h0v1c-1 1-1 1-1 3h-1v-2 1h-1l-2 4h0c1-1 1-1 2-1v1h-1v1l-1 1h1c-2 4-6 7-9 9-3 1-13 5-14 7 3-1 8-3 11-2-1 1-2 3-4 4-7 5-15 6-23 9-3 1-5 2-8 4-10 6-16 14-23 24l9-6c6-5 11-14 19-16 1 0 2 0 3 1 1 2 0 4-1 6 14-6 29-6 43-1 3 1 19 8 20 10 0 1-1 1-1 1-2 1-4 1-6 0h0v1c2 4 7 8 12 11s12 4 18 2c5-1 10-6 12-11 3-5 4-12 2-18-1-3-2-5-3-7l3 4c3 7 4 15 2 22-3 8-10 14-17 17-9 4-18 4-28 1l11 12c-3-1-6-2-9-4-12-8-16-23-28-30-6-4-13-4-20-2-6 1-11 4-15 7-5 3-10 6-14 9-8 7-14 16-19 25-2 5-3 11-6 15h-1c-1-1-1-2-1-3 0-5 2-10 4-14 6-12 13-22 23-31h0c-13 10-20 19-26 34-1 4-2 8-4 12 0-4 0-8 1-11l3-15c2-9 5-19 9-27s10-15 16-22c8-9 14-18 25-23 7-3 15-4 22-7 5-2 8-4 12-6z" class="B"></path><path d="M716 402c-8 6-15 8-24 13-5 2-9 6-14 9-8 6-15 11-22 18h0l1-1c13-18 33-27 52-37 3-2 6-5 9-6l-2 4z"></path><path d="M364 483c-1 3-3 5-6 7h0c4 3 5 7 9 10 2 3 4 5 7 7-6-1-11-3-16-5l-1-2c-4 2-9 5-13 6-7 1-15 1-21-3-3-2-6-6-7-9-1-9 4-14 9-20-4 2-11 6-12 10-1 5 1 9-3 13h-1c-4-3-6-8-8-12h0c-2 0-4-1-5-2s-1-1-1-2c1-1 2-1 3-2h0c-6-2-14-1-20 0-6 2-12 6-15 11-3 7-3 12-1 19l-1-4c-3-5-3-11-2-17 3-8 9-12 16-16l-6-4c-4-2-4-6-5-10 1 2 2 4 4 6 3 3 11 3 15 2 14 0 28-4 40-11 3-2 6-5 8-7 1-2 2-2 1-4l-1-1c0-2 4-5 5-6-4 2-7 4-11 3-2 0-2 0-2-2 1-3 3-6 5-9 1-1 2-3 2-3h3c2 0 7 0 9-1v-2c-2-2-5-2-7-3-4-1-7-2-10-3-12-6-21-17-25-29-3-10-3-21 2-31 0 2-1 5-1 7-2 7 0 17 4 24 5 11 15 19 26 23 1 2 2 2 4 2 2 1 3 1 5 2h2l20 5c5 0 10 1 14 4-2 1-4 0-6 1l5 1c-3 2-10 4-14 3-1-1-2-2-2-3-3-5-5-5-10-5h0l2 2c0 10-6 17-12 24 7-5 12-10 14-19 0-2 0-5 1-7 3 7 7 16 4 23-1 1-1 2-2 3l-2-1-1-1c-2 0-5 5-7 6-12 11-29 20-46 19-7 0-14-1-21-2 3 2 7 2 10 3 10 2 22 4 32 1 4-2 8-5 13-6 1 7 3 14 9 19 3 2 6 2 10 1 2 0 5-1 7-3-5 1-9 4-14 1s-9-9-10-15c-1-2 0-4 1-6h1c1 1 1 3 2 4 4 5 10 8 15 11-1-5-2-11 2-15 2-2 4-3 7-3 4 1 6 3 9 6 5 6 8 16 7 24 0 3 0 6-2 8-1 1-2 1-3 1-3 0-5-1-7-3-2-3-3-6-2-8v-1h0 1c1 1 2 2 3 2s1-1 2-2c0-1 0-3-1-5v-1c-2 0-3 0-4 1-1 0-1 0-2 1h-1z" class="B"></path><path d="M363 472h1c1-1 2 0 3 1 2 1 2 3 3 5h-1c-2-2-4-4-6-5v-1zm-28 14l1 1c2 4 5 7 9 8l5 1c-3 0-8 1-11-1-2-2-4-6-4-9zm-8-5v1 14c1 1 1 1 0 2l-1-1c-1-1-2-2-2-3-1-5 1-9 3-13z"></path><path d="M616 623l-3 1h0c9 1 15 1 22 7-10 1-24 4-33-2-5-4-8-9-9-14-2-10 2-21 7-29 5-6 11-9 18-11h1c-5-5-8-9-10-15 3 3 6 7 10 9 3 1 6 1 8 1 9 2 15 4 22 9-5-8-13-13-17-21-3-6-4-13-6-19-2-4-4-6-6-9-1-2-1-5-2-7s-4-5-6-7c-3-3-5-6-7-10v-1h4c0-2-3-4-4-5-3-3-7-6-10-9-1-2-3-5-4-7 2 2 4 4 6 5 5 3 11 5 16 7 8 4 16 9 21 16 5 5 9 12 12 19l5 16c1 3 2 8 5 10 1-1 0-6 1-8h1c1 1 2 3 3 4 3 8 2 17 4 25-5-6-11-13-15-19-7-13-12-28-21-40h0c8 13 13 27 20 40 4 8 10 13 15 20 2 3 2 6 3 9-7-9-17-18-23-28-7-12-11-24-18-36h0c2 5 5 10 7 15 3 7 5 14 9 20 4 9 12 17 18 25 4 4 7 8 10 12 6 6 16 10 24 11 6 1 13 0 19 0-4-3-8-7-9-12-1-2-1-4 0-5s2-2 3-2l1 6c1-3 2-6 4-9 3-4 6-6 11-7 2 0 5 0 6 1-1 0-3 0-5 1-2 0-4 2-5 5-2 3-2 9-1 12 3 10 13 13 21 17-7 0-14-1-20-2h-19c-2 0-4 1-7 0h0c-12-3-24-9-34-16-6-5-13-10-20-13-5-3-11-4-17-5h0c5 2 10 3 15 6 12 6 22 14 33 20 7 4 15 7 23 9-9 2-20 5-30 3-2-1-3-1-4-3h0c-2-1-7 2-9 3l2-5c0-1-2 0-4-1v-1c1-3 5-5 7-6l1-1c-6-4-12-4-18-5-4-1-8-2-12-4 2-3 3-5 7-7h0c-4-1-7-2-11-1-6 1-11 4-14 9-3 4-5 12-3 17 0 2 2 4 3 5 5 2 14-1 19-2v-1l-1-2c1-1 2-2 3-2 3-1 6-1 9 1 2 1 4 3 6 3 1 1 2 1 3 2 8 7 9 20 10 29l-7-10c4 14 6 29 15 42 2 3 5 6 8 9l-6-2c-18-9-15-31-21-47-2-6-9-12-15-15h-1c-3-2-6-1-9-1h-1v1c-1 1-3 1-5 1 2 1 3 0 5 1h-4z" class="B"></path><path d="M600 622h0c2 0 2 0 3 1l-1 2h-1c-1 0-2-1-2-2l1-1z"></path><path d="M356 412l1-1c0-1-1-3 0-4 0-2 2-4 3-6 2-2 2-5 4-7 1-1 2-2 4-2 3 1 5 2 7 2 8 4 13 7 17 15 11 17 12 40 12 60 0 6-1 12 0 18 1-4 1-8 1-11 3-23 0-49-11-69-9-16-20-31-33-44l-7-7c-3-2-5-4-8-7-10-13-12-31-12-47 0-7 0-14 2-20 4-13 12-25 24-31 10-5 23-8 33-5 3 1 6 2 8 3v1c-9-3-16-4-24 0-12 4-19 14-24 25-4 11-4 25 0 36 4 7 9 13 17 15 2 1 5 2 8 3-2 4-4 7-8 7-5 1-9 0-13-2h-1c5 3 10 6 15 6 6-1 8-5 12-7 2-2 5-2 8-1l1 1c0 3-4 6-6 9 2-1 4-1 6-2 5-3 9-12 15-12 1 2 1 4 2 4 3-4 1-16 6-18 3 1 4 2 6 5 1-9 0-18-4-25-5-6-10-9-16-12 9 1 17 3 23 10s7 17 6 25c-1 10-5 20-13 26-3 2-6 3-9 6 1 1 3 2 4 3-3 3-6 4-10 5-5 1-10 1-15-1-3-1-5-2-8-3-4-1-8-1-12-2 1 2 3 4 4 6 3 1 7 2 8 4 3 5 2 14 4 20 1 5 6 12 10 16 2 3 5 4 9 5 8 2 14 3 19 11 2 4 2 8 2 13 0 2-1 5-2 7v4c4-5 4-10 3-16-1-7-5-12-9-17 6 2 10 3 14 9 3 6 3 12 1 18-2 9-9 17-14 24 4-2 7-6 9-10 1-2 4-7 6-7 0-1 1 0 2 0 1 1 3 2 4 4 0 5-2 9-4 12-5 6-12 9-17 15-6 8-7 19-9 29-1 10-3 20-6 29 6-8 14-16 16-26v-16c4 4 6 7 7 13 0 14-11 29-20 38l-10 9v1c5-3 9-7 14-10 4-4 7-8 11-12-6 13-14 22-24 31-2 2-4 5-6 6l-15 4 9-17c3-5 6-10 8-15 5-14 5-32 5-47 0-8 0-18-2-26l-2-6c0 7 2 14 3 21 1 12 0 25-1 37-1 6-2 12-4 18-2 7-5 13-8 18-3 6-5 11-9 16-2 2-5 4-7 6 2-5 4-11 5-16 1-6-1-14 2-19 1 0 1-1 2 0 3 0 4 4 5 7h0c8-14 11-29 8-45-1-5-3-11-5-16 0-3-4-15-3-16 2 0 5 1 6 1-2-6-6-14-6-20 1-1 2-2 4-1 3 0 7 2 10 4l3 5c-4-14-8-24-21-31-10-6-23-6-34-9-1-1-1-1-3-1h0c5-2 12 1 17-1z" class="D"></path><path d="M411 414c1 1 3 3 3 4 3 5 2 10 1 15l-1 1c-2-3-1-8-2-12 0-2-1-5-1-8zm-42-7c5-1 9 1 13 4s7 7 10 11c0 1 2 2 2 4l-1-1-6-7c-6-5-13-10-21-10 0-1 2-1 3-1zm-16-144v1l-5 10c-6 16-5 35 1 52 2 6 6 12 9 18 4 7 9 14 12 21l-1-1c-7-10-16-20-22-32-2-6-4-12-5-18-3-17 1-37 11-51z"></path><path d="M311 638c1 1 2 2 4 2 3-1 6-3 9 0 1 0 1 1 1 2 0 2 0 3-2 4l-1 1v1c2 0 5-1 7-2 0-1 1-2 1-3 1-2-2-7-1-8 2-1 3-1 4 0 3 2 4 6 5 9h1c0-4-2-8-4-11-3-4-10-8-16-8-13-1-26 3-35 12-15 12-25 34-26 53 0 11 2 22 9 31 3 3 9 7 13 7h1 0-1c-4-1-9-6-11-10-8-12-8-28-5-42 5-18 14-35 30-44 6-4 15-7 22-5h1l3 1-18 6c-12 6-22 17-28 29-6 13-7 31-2 45 2 4 5 10 9 12h2c2-2 3-3 5-3s3 1 4 3 1 4 0 5-2 3-4 3c-3 1-7 1-10 1s-7-1-9 0l-2 2c-2 4-2 10-1 14 5 20 20 35 36 45 15 8 32 12 48 15-2-9-6-17-11-24-1-2-3-3-4-4-1-2-1-2 0-3 3-2 8-1 12-1l13-2c40-5 67-37 76-76 4-17 4-34 4-52v-54-170-130-40c0-9 0-18-1-26-15-2-31-1-46-1-14 0-28 0-42 1-24 1-49 8-67 24-19 17-29 39-31 64-1 20 3 43 16 58 2 2 5 4 7 6s4 3 5 5v1c-5 1-11 0-15 0-14 0-29 1-43-1-5-1-11-3-16-5-13-7-22-19-27-33-6-21-3-47-2-68 1-27 4-53 3-79-1-25-6-50-13-75l-6-18c19 26 49 45 82 50 11 2 22 1 32 4h1 1c-8 9-17 16-24 25a262.68 262.68 0 0 0-28 40c-17 31-30 65-31 100 0 13 3 25 12 35 1 1 3 3 5 4-3-4-6-7-5-13 0-4 2-6 5-9h0c1 9 1 14 8 19 6 5 14 9 22 8h4c-2-3-6-10-9-11l5 7c-11-2-19-7-25-16-9-14-11-26-10-42-4 5-6 12-8 18 2-54 28-110 68-147 6-6 12-11 19-16l24-12c-11 1-22 3-34 4-32 2-65-6-91-26-8-6-15-13-21-21-4-6-7-14-13-19-4-4-9-6-15-7-1-1-3-1-4-2-1 0-1-1-2-2 0-2 0-2 1-4 14-6 28-10 42-16l26-10c4-1 10-5 14-5 0 1 1 1 1 2-1 2-5 7-6 9-10 13-20 33-14 50h637c5-15 1-28-6-42-2-3-4-7-6-10-2-2-4-5-5-7v-1c2-1 3 0 4 0l22 9 36 14 12 4 6 3c1 1 1 1 1 2 1 1 0 2 0 3-2 2-8 3-11 4-4 2-8 4-11 7-7 7-11 17-17 25-21 27-55 40-89 40-13 0-27-2-40-5l-21-6c-3-1-6-3-9-2 9 3 19 7 28 11 12 7 25 14 36 22 25 20 45 47 57 76 7 16 14 33 18 51v1c1-4-1-10-2-14-7-30-20-59-38-84-7-10-15-19-24-27-6-5-12-10-18-16 26-1 51-6 73-19 10-6 19-14 27-22l5-6c-7 27-14 54-14 82l1 51c1 22 4 44 4 66 0 9 0 19-2 28-4 14-12 28-25 36-18 10-39 8-59 8-5 0-13 1-18 0-1-1-1-1 0-3 5-3 9-7 13-11 7-9 11-20 13-31 4-25 0-53-15-74s-37-33-62-38c-6 0-12-1-18-1l-56-1c-5 0-30-1-33 1-1 10-1 20-1 30v43 144 155 43c0 14 0 28 2 42 3 21 11 41 24 58 15 19 36 31 60 34h14c4 0 10 0 13 1 0 1 1 1 0 2-1 2-3 4-4 6-5 6-10 15-12 22v1c21-4 40-7 58-20 4-4 9-8 12-13 5-6 6-13 5-21-2-5-4-11-8-16-6-6-14-8-15-18-1-3 0-6 1-8 2-2 4-4 7-4 3-1 6-1 8 1s3 5 3 8c0 1-1 1-1 2-1 1-3 2-5 2 0 0 0-1-1-1 2-3 4-2 4-5l-1-1-3 3v2 1s0 1 1 1c1 1 2 1 4 1l3-3c3-3 7-8 8-13 1-4 3-9 3-14 0-4-1-7-1-11 0 0 1 1 2 1 3 8 2 18 0 26-1 7-4 14-10 17-3 2-9 2-12 1-2-1-4-2-5-4 0-2 0-5 1-6 1-2 3-4 6-4h0l-1-1c-1 0-3 0-4 1-2 2-3 4-3 6-1 2 0 4 1 6 3 3 7 3 11 4 5 0 9-3 12-6h1v8c4-6 6-13 8-21 3-16-3-36-12-49-10-14-24-22-40-25 2-1 6-3 9-3 7-1 15 4 21 9 16 13 27 33 29 54 2 15 1 31-9 43v1h0c4-2 7-8 8-12 7-19 3-42-6-60-6-14-18-29-33-34l-7-3c-6-2-13 1-19 3h-4c-2 1-7 8-9 11l6-5c2 0 4 0 6 1v1s0 1-1 1c-1 2-2 4-2 6 0 1 1 1 2 1 6 3 11 0 16-3l1 1c1 1 1 3 0 4-1 5-6 9-10 10-2 1-4 1-5 2v3h-3c-5 0-8-3-11-7-1 2-1 4-2 6h-2c-3-1-4-3-6-6-2-4-2-9-1-13 3-10 13-16 21-20-5 1-10 2-15 5s-8 9-9 16 1 17 5 23c3 5 10 8 16 9 5 1 10 0 15-3 3-3 5-6 6-10v-1h0l1 2c2 5 1 10-1 14-6 10-18 14-29 14-2-1-5-2-7-1 0 1 0 1-1 2h-1c-6-3-13-9-17-14-7-9-10-19-9-30 1-10 8-19 15-25 13-10 30-10 46-8 6 1 11 2 17 5 23 11 37 31 45 55 10 27 10 59-2 85s-34 45-60 54c-11 4-22 7-34 10-5 1-10 2-15 2-2 1-6-1-8-1l-16-4-38-8c-40-8-81-11-121-9-30 1-59 5-87 11l-31 6-14 4c-3 1-7 1-10 1s-6-1-9-2c-14-3-28-7-41-13-26-12-44-33-54-60-6-17-8-38-3-56 2-10 6-19 10-28 9-19 23-40 43-47 14-5 33-5 46 1 10 5 17 15 21 25 2 8 2 17-2 24-3 7-10 12-17 14-10 3-23 1-32-4-8-5-13-14-16-23 1 0 2 1 2 2 2 4 5 8 9 11 6 4 13 5 20 5 3-1 7-2 10-3 6-3 10-7 13-13 2-8 1-14-2-21v12 1c-1 3-2 8-5 11-1 2-2 2-4 2-1-1 0-4 0-5-2 0-3 1-4 2-4 2-7 3-11 3l-4-2v-2c1-1 2-1 3-2l12-5c-8 1-12 5-21 0-3-2-6-6-7-9 0-3 0-4 1-6h2z" class="D"></path><path d="M715 199h1c1 1 1 1 1 2l-1 1-3-1v-1l2-1z"></path><path d="M629 114c2 0 3 0 4 1h7c-2 1-9 1-12 1l1-2z" class="F"></path><path d="M673 158h2c2 2 2 2 2 4h-1c-2-1-3-2-3-4zm40 493h3v1c-1 2-1 2-3 2h-1c-1 0-1 0-2-1l1-1 2-1zM210 165h2c1 3 0 8 0 11l-3-10 1-1zm261 489h0l1 1c0 2 1 8 0 10l-1 1h0c-1-4 0-9 0-12zm184-520c1 0 3 0 4 1 1 0 2 1 2 2l-1 1h-4c-1-1-2-1-2-2l1-2zm122 117h3c1 2 1 2 1 4l-1 1h-1c-1 0-1 0-2-1s-1-2-1-3l1-1zm-70-57h5c-3 2-7 3-10 3h-7l12-3zm-151-74h2l-8 4c0 1-1 2-2 3h0c-2-1-2-1-2-2 2-4 7-4 10-5zM275 228h1c-2 3-4 8-7 10h0c0-1-1-1 0-2 0-4 3-6 6-8zm319-75c2-1 3-1 5 0 2 0 2 2 3 3l-1 1c-2 0-4-1-6-2-1 0-2 0-2-1l1-1zm-347 99c1 5 3 11 0 15-1 1 0 1-1 1-1-5 0-11 1-16zm16-60h1 0c-2 3-4 6-7 8-1-1-1 0-2-1l1-3c2-3 4-4 7-4z"></path><path d="M258 167h0v1c-4 4-9 8-12 13h-1v-1c2-5 7-11 13-13zm524 566v1c-1 1-1 2-2 4-2 4-8 7-12 8l-1-2-1-2h1l4 2c5-3 8-7 11-11zm-105-95v1c1 0 0 2-1 3-1 5-2 13 0 18h0l-1 1c-1-1-2-2-2-4-1-6 1-13 4-19zm68-436c1 0 2 1 3 1 2 2 3 3 3 6l-1 1h-1c-1 0-2-1-3-2-2-1-2-2-2-4l1-2zm-455-33h2 0c-2 3-4 7-7 9l-2-2v-1c2-4 4-5 7-6zm278 571c8 1 17 3 24 6v1 1c-5 1-11-2-15-4l-9-4zm-12-98c1 2 0 4 0 6-1 3-1 7-1 10 0 7 2 13 2 20h0v-2c-1-2-2-6-2-9-2-9-3-16 1-25zm-67-344v1c1 2 1 5 1 7 0 6 3 20 1 25h-1l-1-21c-1-4-1-8 0-12zM196 146h0c5 3 10 5 15 6 3 2 9 3 11 5-5 1-12-3-17-5-2-1-5-1-7-3-1-1-2-1-2-3zm279 617h2c2 1 4 3 5 5h-1l-4-3c-6 2-13 5-20 8-1 1-6 5-7 4 7-6 16-9 25-14zM264 209v1c-4 9-9 19-15 28h-1c4-10 10-20 16-29zm212 84c4 9 6 18 7 28 1 4 2 8 1 11h0-1v-2l-2-9c-1-8-2-16-4-25-1-1-1-2-1-3zm-78-128c6-1 12 0 18 0 5 0 9 0 13 1-7 1-14 1-20 0l-30 1c1-1 3-1 4-1 5-1 10-1 15-1zm-155-7h1c-8 9-13 19-15 31-1 5-2 10-4 16h0v-7l3-14c2-8 8-21 15-26zm299 224c1-1 2-1 3 0 3 1 4 4 6 6 3 6 6 13 9 19-2-3-4-7-7-10-4-5-8-9-11-15zm16 364h0c2 0 5 1 7 2 13 5 25 13 36 23-4-2-9-4-12-6-4-3-7-6-11-9-7-4-13-7-20-10zm271-548c1 0 0 3 0 4 1 16 4 31 5 47h-1c-4-17-5-34-4-51zm-9-37c1 0 0 0 1 1 3 11 2 24 3 36l1 30c-4-18-3-36-4-55 0-4-1-8-1-12zm-589-1c-2 4-5 7-6 10-6 15-5 30-7 44l-1-17c0-10 1-20 7-29 2-3 4-5 7-8zm185 600h0c-11 12-23 22-38 28-5 2-15 6-21 4-1-1 0-1-1-2h2c8 1 14-2 21-5 14-6 26-15 37-25zM219 288l3 20c2 13 4 24 10 35l-3-2c-2-3-5-5-6-9-3-6-3-13-3-20-1-8-1-16-1-24z"></path><path d="M460 750c1 1 2 2 3 4 0 1-2 1-2 4h1c1 0 2 1 3 2h3c1-1 3-1 5-1h0c-1 1-2 1-3 1h-1c-1 1-2 1-2 2h-2l-6 3-1 1-2 1v-3c-1-1-1-2-1-3h-1l-1 1s-1 1-2 1v1c-2-1-2-2-2-4 3-3 7-8 11-10z" class="C"></path><path d="M197 152h0c1 1 2 1 2 2 2 3 3 9 4 13 5 19 9 40 7 60-1 5-2 10-4 15v1c-1-4 0-9 1-13 0-5 1-10 1-15 0-14-1-29-4-43-2-7-5-13-7-19v-1zm631-4v1c-11 9-29 12-43 13 4 2 7 5 10 8 7 7 11 16 14 26 0 2 1 5 1 7l-1-1c-4-14-11-32-25-40v-1c8-1 16-3 25-6 6-2 12-5 19-7zM607 762c18 17 42 28 67 29h0c-6 2-15 1-21 0-14-3-29-9-39-20-2-3-4-6-7-9zM197 190v1c1 1 1 4 1 5 3 14 1 29 0 43l-6 38-1 1h0c-1-13 1-24 3-36l3-24c1-9 0-18 0-28zm159 8h3c-1 1-3 1-4 2l-13 2c-17 4-32 10-47 18-5 3-11 6-15 9l-3 3v-1c4-4 8-8 12-11 6-4 12-8 19-11 16-6 31-9 48-11zm-128-85h76c-3 1-6 2-10 2-10 1-21 2-31 2-15 0-30 1-44-3l9-1zm507 0l74 1c-2 1-7 2-10 2-17 2-34 2-51 1-7-1-14-1-21-3l8-1zm73 182c0 5-1 10-1 14-1 6-2 11-4 17-4 12-12 23-20 33h0c2 0 5-1 7-2 8-4 14-8 18-17v9c-2 6-7 10-12 12s-11 3-16 1h0c10-12 18-28 23-44 2-6 3-12 4-19 0-1 1-2 1-4zM449 760c-5 7-10 13-15 19-2 3-4 6-4 9 1 1 1 1 2 1 3 0 5-1 8-1l13-2c13-2 26-4 39-3 6 0 12 2 18 3h-10-18c-20 1-42 3-62 8 2-4 5-7 8-11 7-9 15-18 23-26a30.44 30.44 0 0 1 8-8l1 1c-4 2-8 7-11 10zM194 101c1 1 2 3 4 5 3 3 7 7 11 9 11 8 26 14 39 15 25 3 51-4 75-11l14-4c2 0 4-1 6-1l-1 1-36 11c-28 8-63 12-90-3-9-5-20-12-22-22zm529 66h1c2 0 6 3 8 4 15 9 29 21 39 36 7 9 12 20 16 30 8 18 13 38 9 57 0-9 0-18-2-27-9-43-35-76-71-100zm110-66v1c-4 8-11 14-18 19-43 28-94 3-138-7h-2c3-1 6 0 9 0 13 2 24 6 36 9 21 6 42 11 63 7 12-1 22-7 32-13 7-5 13-9 18-16zM247 206c-1 6-1 12-2 17-3 10-7 19-9 29-2 7-2 15-3 23 0 12-1 24 0 36-2-3-2-6-3-9-4-15-2-36 2-51 3-10 7-18 10-28l3-14c-9 15-16 31-23 47-3 8-7 17-10 26 1-4 2-9 3-12 5-19 15-37 25-54 2-3 5-7 7-10z"></path><path d="M718 154h2c3 1 7 4 10 6 23 13 46 31 61 53 18 25 30 53 36 83 2 12 4 25 2 38-3 12-9 21-20 28 2-3 5-5 6-8 2-6 0-10-2-15-4-9-6-19-3-29 0-4 2-8 3-12 0 11 0 21 4 31v-10l1-2h0c2 7 6 12 7 19 2-8 2-16 2-24-3-31-14-61-31-87-3-4-6-10-10-13 7 15 15 31 18 48v2 1c-2-3-3-9-4-13-4-14-11-27-19-39-4-6-8-12-13-18-13-16-31-29-50-39zM449 730l-13 5c7-4 14-9 22-11l38 37c7 6 14 12 22 16 6 3 13 4 20 4 6 1 12 2 18 2-3-1-6-3-9-4l-12-9-36-29c-7-6-14-12-21-17-3-2-6-5-10-6-5-2-13-1-19 0 4-2 7-4 12-4h3c1 0 3-5 4-6 3-5 8-10 12-14 29-31 67-56 79-99 4-13 6-28 2-42-1-4-4-9-6-13 11 14 11 30 9 47-3 16-9 33-18 46-5 8-11 15-17 22-3 3-5 4-2 8 9 12 25 26 39 31 1-9-1-18-2-26-2-15 0-32 3-47v-1h1c-3 23-3 46 2 69 1 5 3 9 4 14-6-5-12-8-18-11-9-6-17-12-25-20-3-4-7-7-9-12l-8 8c3 4 6 7 9 10 12 12 26 22 40 31l16 9c-11 0-21 0-32 2-10 2-20 5-30 8 2 2 5 4 9 6 4-2 9-4 14-5 13-3 31-4 43 3 4 2 6 5 9 8-13-8-29-12-44-8-4 1-10 2-12 6h-1c3 4 10 8 14 11 16 12 32 23 51 32 11 5 23 9 35 11l27 4c-15 2-30-1-44-5-4-1-9-4-13-4h-8-14c-17 0-33-1-50-3-8-2-16-3-24-5-4-2-9-5-13-8-11-8-21-18-30-28-3-3-6-7-9-10-2 4-5 8-7 12-6 7-12 13-18 19-9 10-18 20-29 28-3 3-7 5-11 7h-8c7-2 13-5 19-10 11-9 21-22 30-33l15-17c1-2 3-4 5-6v-1h0c0-2 1-2 2-3h0-1c-1 0-3 1-4 1h-1z"></path><path d="M449 730c3-2 5-3 8-3l7 6-3 1-5-5-3 3h0c0-2 1-2 2-3h0-1c-1 0-3 1-4 1h-1z" class="E"></path><path d="M488 761l2-2 19 16c-7-2-15-9-21-14z" class="C"></path><path d="M464 733c2 3 25 24 26 26l-2 2-27-27 3-1z" class="F"></path><path d="M528 700c4 2 8 2 11 4 9 3 18 7 26 11l-25 3-25 7c-2 0-3-1-4-2 0 0-1 0 0-1 0-1 2-2 2-2l6-7c3-4 6-8 9-13zm-15-31l19 22c-1 3-4 5-6 8-5 5-9 11-14 15-2 2-5 4-7 5-2 0-5-1-7-1-3-1-7-2-10-2 12-8 24-20 33-32l-1-1c0-1-1-1-1-2-2 1-4 4-5 6l-9 10c-6 7-15 16-24 20-5 2-8 0-13-2 3-6 7-10 12-14l14-14c6-6 12-13 19-18zm-34 50c6 0 14-1 20 2 8 3 15 9 22 13l49 33c6 4 13 8 20 11 4 2 8 3 12 5h-1-13c-8 0-17 1-25-1-13-3-25-12-35-20l-37-32-13-10 1-1z" class="D"></path><path d="M563 440c-2-3-4-6-5-10-4-6-7-11-12-17 2 4 4 8 5 12 10 21 17 42 14 65-1 12-6 22-15 30l4 3c4-3 8-8 12-12-1 3-1 7-2 10-1 2-2 5-4 7 3 4 4 9 5 14-2-3-3-6-5-9-11-14-31-18-45-28l-3 14c4 3 8 4 12 6 9 4 16 8 22 15 9 9 11 20 10 32-1 21-14 41-27 57l-20 19c-10 11-20 22-31 32l-24 20c4-11 6-22 6-33l1-25v1c2 10 3 24 1 35-1 5-2 9-2 14 4-2 8-6 11-9 7-6 13-12 18-19 1-1 3-4 3-5l-1-1c-13-17-23-34-27-55-2-12-3-29 4-40 1-2 2-3 4-5l3-3-6-7c-2 1-4 3-6 5v-19c4 4 6 8 9 12 5 5 11 10 17 14 3 3 7 6 11 8l3-2c7-7 13-19 18-28 1-2 3-6 3-8-4 1-8-2-12-4-3 5-8 14-14 17-2 1-4 0-6-1-4-2-7-5-10-8-6-4-11-10-14-16-5-11-5-23-4-34 0-11 1-22 4-32 0-4 1-8 3-11 1-4 3-8 3-12 0-1-1-3-2-5-3 3-5 8-8 11 1-9 1-18-1-26l1-1c6 11 15 16 24 24 9 6 17 14 22 24 3 6 5 12 6 19 2 10 1 23 10 31l2 2v1c3-9 4-17 4-26 0-17-7-35-20-46-4-4-9-7-13-10-6-4-13-10-18-15-6-6-11-12-14-19-4-10-4-22-4-33v-22c2 3 5 7 8 11 5 6 10 12 16 18 3 2 20 19 23 19l6-7-1-1c-8-7-15-14-23-21-6-6-13-13-18-20-6-11-11-24-12-36h1v2c4 14 8 31 20 40l2-1 3-2c7-4 13-12 17-18 2-4 5-9 6-13 2-7 0-15-1-21-4-15-9-29-15-43-3-7-6-14-10-20l-8 1 13 38c2 6 5 16 1 22l-3 3c1-2 3-5 3-8 1-1 0-3 0-5-1-12-5-22-9-33-2-5-4-11-8-16-2-1-5 0-7 0l5 20 4 18c1 4 1 8 3 12l2 2v1c-1 1 0 1-1 1-4-2-10-33-11-39-1-4-2-8-4-11-1 7-1 14-2 21 0-7-1-15 0-22v-1c0-3 1-5 2-7 4-1 8 0 11 0l22-1-6-12c-2-3-3-6-5-8-1 0-1-1-2-1-1-1-4 0-5 0l-13-1h-33c-14 0-29 1-43 1 6-4 12-9 18-13l24-16c5-3 11-8 17-11h1c-14-4-28-5-43-5-5 0-11 1-16 2-6 1-12 5-19 6h0c-6 1-11 0-17 1s-13 4-19 6c-14 6-29 15-41 24-16 13-33 30-39 50-1 4-2 8-2 13-1-3-1-7 0-10 1-10 7-20 12-29 4-7 8-15 13-22l11-13c10-14 21-27 34-37 33-25 83-26 121-14 4 2 9 3 13 5 6 3 12 7 19 8l-9-6c-8-4-16-8-24-11-9-3-18-6-27-7-25-4-50 0-74 7l-31 10c-22 7-46 8-69 4-22-4-47-13-61-33-5-7-7-13-5-23v4c2 14 11 25 22 33 12 9 28 15 43 17 23 4 48 2 70-5 21-6 40-15 61-18 39-5 76 4 109 26 12 7 23 16 34 25l24 17c6 4 11 9 18 11s15 2 22 2c8 0 16 0 23-1-7-2-15-4-22-8-14-6-27-16-39-25l-33-25c-10-6-20-13-30-18-6-3-13-5-19-7h12 21 45c5 0 12-1 18 1-4 1-9 1-13 3-14 3-28 6-40 12 4 4 9 8 13 11 3-1 5-3 7-5 1-1 2-3 3-4 3-3 7-4 10-6-2 4-6 9-11 11-3 1-5 3-8 5l2 1c4 2 8 2 12 1 7-2 14-6 19-10 2-1 5-2 6-4-1 0-2-1-2-1v-1s2-1 2 0c1 0 1 1 3 1 2-1 5-3 7-5 5-3 11-6 17-7 10-3 20-3 30-3 4 0 9 1 14 0h1l-1 2c-5-1-11 1-16 2-13 3-27 5-39 10-7 3-14 7-19 12l-1 1c4-1 7-3 10-4l13-4c20-7 40-11 62-10 17 0 34 2 51 5l48 11c28 5 61 5 85-12 10-6 18-15 24-25 2-4 3-7 4-11v-1c1 8-4 17-10 24-15 18-40 28-63 30s-44-4-66-9c-18-3-37-6-56-7-11 0-23 1-35 2-21 2-42 6-62 13l-1 1c2 1 3 1 5 1 8-1 16-4 25-5 23-2 46-2 69 2 10 1 19 4 28 6 9 3 17 5 25 10 2 1 4 2 6 4h1l-15-6c5 4 10 8 14 12s7 9 10 14c2 2 4 4 5 7l-15-15c-7-5-14-10-21-14-7-5-15-9-24-11-11-3-23-4-34-4l-31-1h-23l-23 2 11 7c3 2 6 5 10 6 5 2 10 1 15 1 6 1 12 1 18 2 10 1 21 3 30 5 15 3 30 8 45 12-6-4-12-8-19-12-8-4-19-7-28-10-7-1-15-3-22-5 5 0 10 1 15 2 14 3 28 7 41 13 7 4 14 9 21 13 4 2 9 4 13 6 13 8 26 19 37 30 7 9 15 18 20 29-5-6-11-11-17-16-20-16-45-25-70-30 22-1 39 8 59 16-9-14-26-27-42-31l-36-9c-17-4-35-7-53-9-5-1-13-3-18-1v1c5 6 12 9 19 14 10 7 20 14 32 20l-98-1c-5 7-8 15-12 22l19 1c2 0 8-1 9 0 3 3 4 9 5 13 2 11 3 24 2 36 0 8-1 16-2 24 0 5 0 12-2 16-2 1-5 1-7 2 2-2 4-4 5-7 4-7 4-15 4-23v-22-2c-4 16-9 31-17 45-7 13-15 24-22 36-4 6-9 13-11 20h1 0l9-9c7-9 16-18 28-21 4-1 8 0 12 0h-1c-20 4-35 17-47 34-1 2-3 5-4 7 2 2 4 5 6 6 3-2 5-4 7-7l6-9c8-9 20-16 32-16 1 0 3 0 4 1v1c-1 1-5 1-7 2-4 0-8 1-12 2-9 3-16 11-20 20 9-6 15-15 26-12 4 1 7 4 9 7 4 8 3 18 0 25 0-8-1-15-7-20-4-3-9-4-13-3-15 1-26 12-34 23-6 8-13 17-17 26l4 4c4-3 7-5 10-8-2 4-5 7-8 10l6 4 16-18c3-3 6-7 10-9 2-2 5-3 8-3 4-1 8 4 11 7 9 9 14 19 16 31 2 5 3 9 3 14v1c-1-2-2-4-2-6l-2-2s-1-1 0-2z"></path><path d="M513 360h1l-5 10-3-3 7-7z" class="B"></path><path d="M469 502c-2-8 0-15 2-23 1 3 2 5 3 8h1c-2 3-2 5-3 8l-2 1v1 2 5c-1-2 0-4-1-6v4z" class="C"></path><path d="M547 362c1 0 3-1 5 0 4 1 7 4 9 7v1c2 3 2 6 2 9-1-2-2-5-4-8-1-1-3-3-5-4-6-3-12-2-18 0 4-2 7-4 11-5z" class="E"></path><path d="M563 440h-1c-1-9-7-20-13-27-3-4-7-7-10-11 14 8 21 23 25 38l1 4-2-2s-1-1 0-2z" class="C"></path><path d="M480 146c4 0 14 8 18 10v1l-4 1c-1 0-2 0-4-1-5-2-9-5-13-9 1-1 2-1 3-2z" class="E"></path><path d="M537 185c3 2 6 4 9 7 1 1 1 3 0 4v1c-1 1-3 1-4 0h-1l-1 2-4 8c1-7 1-15 1-22z" class="C"></path><path d="M498 383c3 2 5 4 7 6-2 5-6 10-9 15l-4 5c1-10 4-18 6-26zm4-263c6-1 15 0 21 0-4 2-10 3-14 5l-8 3-10-6h0l11-2z" class="E"></path><path d="M534 401h1c2-1 3 0 4 1v1c-2 2-4 2-6 2s-3 3-4 4c-6 6-12 11-18 16-2 1-3 3-5 3 5-6 10-11 16-17 3-4 7-8 12-10z" class="C"></path><path d="M476 149h0c2 4 7 7 10 10-5 2-11 2-16 3-2 0-4 0-6-1-2 0-3-1-4-2 1-2 3-3 5-3 3-3 7-5 11-7z" class="B"></path><path d="M469 502v-4c1 2 0 4 1 6v-5-2-1l2-1c-1 6-2 10 2 16 1 1 5 4 7 4 2 1 6-1 8-2-2 5-4 10-9 14l-1 1c-7-6-9-10-10-20v-6zm68 50h1c3 2 8 6 10 10 1 3 2 7 0 10-1 2-3 4-6 5h-4c-3-1-4-2-6-4-2-3-3-6-2-10v-1-2c2-4 4-6 7-8z" class="E"></path><path d="M538 562h2 1c1 2 0 4 1 6-1 1-1 1-3 2-1 0-1 0-2-1s-1-3-1-4 1-2 2-3z"></path><path d="M504 180h2c2 12 0 26-5 38l-2-4c-5-10-6-19-7-30l12-4z" class="D"></path><path d="M487 184h1c1 1 1 2 2 4 0 1 0 2-1 3-8 8-35 7-47 7l-1-1c4-2 8-5 12-7s10-2 15-3l19-3z" class="B"></path><path d="M476 431c13 17 9 39 3 57-1 5-4 11-3 17 1 2 2 4 3 5 2 1 3 1 5 0h2c-1 1-3 2-5 2s-4-1-5-3c-3-3-3-6-3-10 1-3 1-9 4-11l1-1c-5-7-6-17-7-25l-6 22c1-18 5-36 11-53z" class="D"></path><path d="M425 140c10-1 21 1 31 4-4 1-7 1-10 2 1 3 15-2 18-2 2 0 6 2 7 2l-19 12c-2 0-5-1-8-2-4-1-8-3-12-3-12-3-25-1-36 0 7-8 18-12 29-13z" class="B"></path><path d="M423 144h1c2 0 4 1 6 2l-1 1h-6l-1-1 1-2z"></path><path d="M465 349l31 31-6 30-1 3c0 1 0 1-1 1l-8-7c-15-16-16-37-15-58z" class="D"></path><path d="M486 375h1c0 1-2 4-3 6-1 3-1 8-1 11-1-3-3-8-2-11 0-3 3-5 5-6z"></path><path d="M476 560h1c1 2 0 6-1 8-1 5-1 10-2 14 0 28 15 47 33 66l-9 10-3-4c-16-17-32-40-31-64 0-10 5-23 12-30z" class="D"></path><path d="M545 143h2c7 7 17 11 26 17l52 35-17-1c-6-1-12-2-17-4-11-4-21-11-31-18-12-8-23-15-34-24 7-1 13-2 19-5z" class="B"></path><path d="M500 160c3 1 6 2 8 4l11 8c-3 1-6 1-9 2-18 5-36 10-55 11h-19c-3 0-8-1-12 0l1 1c-1 2-3 3-5 5h0l6-4 12 2c2 0 6 0 9 1l-2 1c-3 2-6 4-10 5-6 3-16 1-23 0l5-3h0l-4 2c-2 1-4 1-5 0v-1c8-8 20-15 30-22l8-6c1 0 2-1 3-1 2-1 6 0 8 0h13c11-1 20-4 30-5z" class="E"></path><path d="M474 425c9 3 18 11 24 18 15 16 16 36 14 57 0 12-2 29-12 37-2 1-3 2-5 1-5-1-9-5-12-9 6-9 10-18 13-29 2-9 3-20 2-30 0-2 0-5-1-8v-4c-1-1-1-1-1-2h0v3c1 4 1 7 1 11 0 8-1 16-3 24-1 5-3 11-7 13-2 1-4 1-6 1-8-3 1-23 3-28 1-4 2-8 3-11 2-11 2-24-5-33-3-4-6-6-8-11zm-92-294h15c12 0 25 0 36 3l9 3c-12-1-25 0-36 4-6 2-11 5-16 9-5 3-10 6-15 8-7 2-12 0-18 2-5 0-9 2-13 4l-21 10c-6 3-12 6-18 10-4 3-16 14-19 14l-1-1c1-5 13-19 16-23 16-19 33-33 57-39 8-2 16-3 24-4z" class="D"></path><path d="M340 151h3v1c-2 3-4 4-7 5h-2v-1c1-3 4-4 6-5z"></path><path d="M535 416c8 5 14 16 18 24 9 18 14 43 7 62-2 5-7 14-13 16l-3-1-11-6 1-9c3-18 2-37-8-53-3-5-7-10-10-15 7-6 13-10 19-18z" class="D"></path><path d="M542 497c2 0 4 1 5 2v1s-1 1-2 0c-1 0-2-1-3-2v-1zm0-29c2 0 3-1 5 0 1 2 2 3 2 4-1 0-2 1-3 0-2 0-3-2-4-3v-1zm1 15c1 0 1-1 2 0 2 1 3 3 4 5h-2c-1 1-3 0-4-1-1-2-1-2 0-4zm-19-49h2c3 1 6 0 9 0h0l-1 2c-1 1-3 2-5 3-2-2-4-3-5-5zm14 15c3 0 6 2 8 4v1l-2 1c-2 1-3 0-5 0-1-1-2-1-3-3 0-2 1-2 2-3z"></path><path d="M520 174h1c2 2 1 5 2 7v-3l-1-3c4 2 8 5 11 8 1 8 1 16 0 24-1 6-3 12-5 17 1 1 8 1 10 1-1 9-3 15-5 24 1-1 3-2 4-3 3-3 2-16 2-21l10 1c-1 16-7 32-15 45l-6 11c-1 2-1 4-3 5-2 0-2 0-4-2-1-2-1-6-2-9 0-1 0-8 1-8 0-1 7-1 7-1 4-1 7-3 9-5-3 1-5 2-8 3s-7 1-10-1c-4-3-6-11-7-15-1-1-1-2-1-3-2-6-6-10-7-16-1-1-1-3-1-4 0-3 2-7 3-9 4-12 4-26 2-38l13-5z" class="D"></path><path d="M526 230c1 1 1 15 1 17s-1 3-2 4h-2v-1c-3-2 1-8 2-11s1-6 1-9z"></path><path d="M492 225h4c2 1 3 5 4 7 4 8 7 15 10 23 2 6 4 12 6 19l6 26h1 0c2-2 2-4 1-6v-1l2-2 4-7c4-6 8-13 11-19 4-9 6-17 8-26 1-3 1-5 1-8 0-1 0-3 1-5 1 0 1 0 2 1 1 0 1 0 2 1 2 3 0 12 0 15-2 11-7 22-11 33-7 15-16 30-25 44l-7 11c-4 4-10 11-11 16 0 1 0 1 1 2s1 1 3 1v-2c-1-1 1-4 2-6 4-7 9-13 13-19 7-11 14-23 19-34 10-18 17-39 19-59 1 2 2 4 2 6 4 14 0 26-5 39-9 25-24 47-38 70l-12 21-19-18c10-8 17-18 23-28 3-4 5-8 6-12s0-10-1-14c-3-13-7-25-12-37l-10-23c-1-2-3-6-3-8v-1h3z" class="B"></path><path d="M531 532c3 0 7 4 10 6-5 6-11 12-13 20-1 5-1 11 2 16 1 2 4 4 7 5s7 0 9-2c8-5 4-16 2-23-2-2-4-6-3-9h1c1 0 2 2 3 3 5 7 7 16 5 25v1c0 3-1 6-4 8-4 3-8 4-13 3-3 0-6-2-7-4-7-8-6-21-3-30 1-2 3-5 3-7h0c-1 1-3 5-3 6-4 8-5 15-3 23 1 7 5 14 10 17 3 2 6 2 9 1s6-3 9-6l-12 24c-9 12-20 25-31 36-10-9-18-19-24-31-10-17-11-33-5-52 6 5 14 12 22 14 5-4 7-9 10-15 5-10 10-22 19-29z" class="D"></path><path d="M495 608c1 1 1 9 2 11v1h-1c-1-1-1-2-2-3-1-3 0-6 1-9zm-11-28c2 2 4 6 6 7s4 1 5 1l-1 1c-2 1-6 1-8 1l-2-10zm39 23h0c1 0 2 0 3 1-2 6-3 11-5 16l-1 1c-1-2 1-6 1-7 1-4 1-7 2-11zm-15-26l1 2c5 12 2 20-3 31v1c-1-1 1-9 2-11 1-8 1-15 0-23z"></path></svg>