<svg xmlns="http://www.w3.org/2000/svg" xmlns:xlink="http://www.w3.org/1999/xlink" xmlns:v="https://vecta.io/nano" viewBox="144 95 773 816"><!--oldViewBox="0 0 1023 1024"--><style>.B{fill:#efedec}.C{fill:#e7e5e4}.D{fill:#161515}.E{fill:#eceae6}.F{fill:#cfccca}.G{fill:#1e1e1e}</style><path d="M497 129h2c30-2 61 1 91 7 14 2 28 5 42 10 52 15 98 42 139 78 74 65 119 159 125 257 1 28 1 56-3 84-10 72-42 142-91 197-52 58-122 99-198 116-22 5-44 7-66 8-30 2-61 0-91-5-34-6-68-17-99-32-28-14-55-31-79-52-26-23-49-48-69-77-37-56-57-122-61-188-6-101 28-200 95-275 52-59 119-100 195-118 23-5 46-8 68-10z" class="E"></path><path d="M214 686c1 0 1 1 1 2l-1 1h-2v-2l2-1z" class="C"></path><path d="M277 238v1c1 0 1 1 1 1-1 1-1 2-2 2h-1v-1c0-2 0-2 2-3zm546 363c1 0 2 1 3 2h-1l-1 1c-1 0-1-1-2-1l-1-1 2-1zM429 192h1v3h-2c-1 0-1 0-1-1s0-2 2-2zm326 106h1s1 0 1 1-1 2-1 3c-1-1-2-2-2-3l1-1zM446 154c1 0 1-1 2-1s2 1 3 1l-1 2c-2 0-3 0-5-1l1-1zm162 354h2c2 1 2 1 2 2h-3-1v-2z"></path><path d="M261 755l-2-3c1-1 1-1 3-1v1 4h1l-2-1z" class="G"></path><path d="M612 523h2v1l-2 2h-2v-3h2zM472 858l-1-1h1c1 0 4 0 5 1v1h-1c-2 1-2 0-4-1zm224-663c1 0 2 0 2 2 1 0 1 1 1 2l-1 1h-1c-1-2 0-3-1-5h0zm-356 13h3c1 0 3 0 3 1h-2c-2 1-3 1-5 1v-1l1-1zm111 294h1l1 2c-1 1-1 1-3 1h-2v-1c1-1 1-1 3-2zM185 652c1-1 1-1 3 0v1l-1 2-1 1-1-1c-1-1-1-2 0-3zm254-152h1v4l-1 1-2-2c0-1 1-2 2-3zm347 246h1c1 0 1 1 1 2l-1 1c-1 0-1 0-2-1v-1l1-1zm81-136h1v1l-2 4-2-2c0-2 2-2 3-3zM363 837h1c1 0 3 0 4 1v2c-2 0-4-1-6-2l1-1z"></path><path d="M275 721v-2c0-1 0-3 1-4 0 0 1 1 2 1h1c-1 2-3 4-4 5z" class="C"></path><path d="M284 292c2 0 3 2 4 3v2h-1-1c-1-2-2-2-2-5zm587 281h1 0c0 2-1 4-3 5h-1l1-2c0-2 0-2 2-3zm-627-54s1-1 2-1 2 0 4 1l-1 1-1 1c-2 0-3 0-4-1v-1zm196-13l1 1v2c-1 1-1 1-3 2l-1-1v-1l3-3zM311 272c0-1 0-1-1-1-1-1-2-2-3-4l1-1h1l3 5-1 1zm437 96h1l-1 4-1 1c-1-1-2-1-2-2 1-2 1-2 3-3zm-7-141h2l1-1 2 3c0 2-1 2-2 3 0-1 0-1-1-2 0-1-1-2-2-3zM521 780c1 2 1 4 0 6v1c-1-1-2-3-2-5l2-2zm-119 71h2c1 1 2 2 3 4l-1 1c-1 0-2-1-3-1-1-1-2-1-2-3l1-1zm336-95l1 1v2c-1 1-1 2-3 2h-1 0c0-2 2-3 3-5z"></path><path d="M620 518c1 0 3 1 5 1v1l-1 1c-1 0-2 1-4 1l-1-2 1-2z" class="D"></path><path d="M582 857c2 0 3 0 4 1 0 1-1 1-2 2h-2-1l-1-1v-1l2-1zm278-467h0c1 2 1 3 2 5l-1 1h-1c-1-1-1-2-2-3 0-1 1-2 2-3zm-41 111c-1-2-3-5-2-7h1c2 1 2 1 2 3v3l-1 1z"></path><path d="M740 230c1 1 2 2 4 3l-2 4-1-1h0c0-2-2-4-3-5l2-1z" class="D"></path><path d="M218 335h0l2 3c-1 1-2 3-2 5-1 1-1 1-2 1 1-2 1-3 0-4 0-2 1-3 2-5z"></path><path d="M778 754l1-1 2 2c-1 2-1 2-3 3h-2l-1-1 3-3zm-28-8c1 0 1-1 2 0v1l-6 6h-1c1-1 2-2 2-4 1-2 1-2 3-3z" class="D"></path><path d="M314 799h2c2 0 3 1 5 3l-1 1h-1c-2-1-4-2-5-4zm90-596l1-1c1 2 3 4 4 5v1c-1 1-1 1-2 1s-1 0-1-1c-1-2-2-3-2-5z"></path><path d="M752 644c1-1 1-1 2 0s1 1 1 2c1 2 0 1 0 2l-2 1-2-2h0c0-1 0-2 1-3z" class="D"></path><path d="M854 344c0 3 1 8 0 12h-1c0-1-1-1-1-2-1-1 2-8 2-10zm-109 10h1c1 1 4 3 5 4v2h-2v-2l-2 2c-1-2-2-4-2-6zM570 143c2 1 4 3 6 4s4 2 7 3l-2 1-6-3-3-1c-1-1-1-2-2-4z"></path><path d="M261 755l2 1c0 2 2 3 3 5-1 0-2 0-2 1l-4-4 1-3z" class="F"></path><path d="M839 537c1 1 1 2 2 4-1 0-2 1-3 1v1l-2 1c0-1-1-2-1-3l4-4z" class="B"></path><path d="M592 514c2-1 4-1 6 0l1 1v1c-1 1-1 1-2 1-2 0-3-1-5-2v-1zm255 135h0c1 1 2 2 3 2h2l-1 3s-1 1-2 1h-1c-1-2-1-4-1-6zM248 363h2v1l-5 7-1 1c0-2 0-3 1-4 1-2 1-4 3-5zm-23 148h2c2 1 5 1 8 2v1h-1c-2 1-8 0-9-1v-2zm48-265c1 0 1-1 2 0-1 2-4 5-6 6l-1 1h-1c1-3 3-5 6-7zm533 404c3-1 8 1 11 2h1l-1 1c-2 0-10 0-12-2l1-1zM427 511c1 2 1 2 1 4-2 1-5 1-7 0-1 0-1 0-2-1 4 0 5-1 8-3z"></path><path d="M287 791c-1-2-4-4-4-6 0-1 0-2 1-2l3 1c0 1 0 2 1 2 0 2 1 2 1 4l-2 1z" class="D"></path><path d="M216 389l9 3v2l-1 1c0 1 0 1-1 1-1-1-3-1-3-3-1-1-2-2-4-3v-1zm19-90h1l1 1c-2 3-3 5-6 7h0v-2c1-2 2-5 4-6z"></path><path d="M763 735c-2 2-5 6-8 7-1 0-1 0-1-2 2-1 4-3 7-6l2 1z" class="D"></path><path d="M809 527c4 0 10 0 13 1v1c-2 0-4 1-6 1-2-1-5-1-7-3zM474 158c1 1 3 1 4 3 0 1-1 1-1 2-3 0-5-1-7-2v-1c2 0 2-1 4-2zM311 743c1-1 2 0 3 1 0 1 1 1 0 2l-2-2h-4c-1 1-2 2-2 4v1l-2 2-1-1v-1c2-3 4-5 8-6zm200 48h0c1 2 1 3 2 5 1 1 3 3 2 5l-1-1c-2-1-5-4-5-7l2-2z"></path><path d="M684 199c2-1 5-2 8-2h-1v2c1 1 0 1-1 2h-1l-1 1h-2l-2-3z" class="C"></path><path d="M280 311h3v1l-5 7-2 1h0c1-3 2-6 4-9z"></path><path d="M260 742c2 1 4 3 5 5-3-1-6 0-9 0l4-5z" class="C"></path><path d="M418 813h2v1c0 2-2 5-3 6h-2c-1-1 0-2 0-3 0-2 1-3 3-4zm294-609c-2-1-9-3-10-5l1-1c3-1 8 2 10 3 0 1-1 2-1 3zm-218-35h1c1 6 0 12-3 17 0-5 1-12 2-17z"></path><path d="M372 839h2c2 0 4 1 5 3l-2 2h0c-2 0-5-2-6-3l1-2z" class="D"></path><path d="M343 663h2c-4 3-7 7-11 10h-1c2-5 6-7 10-10z"></path><path d="M761 366l5 1c0 2 0 5-1 7-1-1-2-2-3-2l-1-1v-1-4z" class="F"></path><path d="M666 181c3 0 8 0 10 1 1 1 0 1 0 3l-1 1c-4 0-7-3-9-5z"></path><path d="M819 705c0-1 1-3 2-4s0-1 0-2c1-1 2-2 2-3h1c1 0 1 0 2 1-1 1-1 2-1 4l-1 2h-1c-1 1-2 1-3 2h-1z" class="F"></path><path d="M833 612l-1 1c0 3-5 13-7 14-1-1-2-2-2-3 4-4 7-8 10-12z" class="G"></path><path d="M485 161c1 0 1 1 2 1 1 3 2 5 2 8h-2l-4-3c1-2 2-4 2-6z"></path><path d="M470 161c-4 0-8-1-12-2 6-1 10-1 16-1-2 1-2 2-4 2v1z" class="G"></path><path d="M719 256h1c1 2 1 6 1 8h-2-2v-2c0-2 0-5 2-6z"></path><path d="M762 372c-1 1-1 1-2 3h0l-1-2c0-1 0-1-1-1l-1-1-1-1c0-2 0-3 1-4 1 0 3-1 4 0v4 1l1 1z" class="C"></path><path d="M707 242c2-1 3-1 4 0 1 0 1-1 2 0-2 2-3 3-5 4s-3 1-5 0l-1-1c2-2 3-3 5-3zm116 391h1c-1 4-3 8-5 11-1 1-1 1-2 1s-1-1-2-1c3-4 4-8 8-11zm-98 159h2l1 2v2c-2 2-6 3-9 3l-1 1v-1l7-7zm-69-7h1l-1 7-3-2c-3-1-4 0-7 0v1h-2 0c4-3 8-5 12-6z"></path><path d="M336 205c0 2-2 4-4 6h-1l-1 1c-2 1-4 3-5 4l-1-1c1-1 2-2 3-2l1-1c-1-1-1-2-2-3l10-4z" class="F"></path><path d="M732 805v1c-5 4-11 8-17 10h0l19-16c-1 2-2 3-3 5h1z"></path><path d="M287 777c1 2 3 4 4 6 1 3 1 8 1 11-1-1-1-1-1-2v-6h-2c1 2 1 3 0 5h-1-1l2-1c0-2-1-2-1-4-1 0-1-1-1-2v-1-1c-1-2-1-3 0-5z" class="F"></path><path d="M245 336h3c1 1 2 2 3 4 0 1-1 2-2 3h-1c-1 0-1-1-2-2v-1h0c-1 0-2 0-4-1v-1c1-2 2-2 3-2z"></path><path d="M531 199h1c1 1 2 1 3 1 1 1 1 2 2 3 1 0 1 0 2 1l-1 1c-1 0-1-1-2-1h-1l-3 1c-1-1-1 0-2-1l-3-3c0-1 0-1 1-2 1 1 1 1 3 1v-1z" class="C"></path><path d="M695 663c2-1 4 0 5 0 5 1 8 7 10 11-3-2-5-4-7-6-3-1-6-3-8-5zm-517-31h1c2 2 4 8 5 11 0 1 0 1-1 3-2-2-5-10-6-13l1-1z"></path><path d="M760 656l-1 1c-1 1-1 2-2 3-1-1 0-1-1-2-1 0-2 1-4 2h-1c-1 0-1 1-1 0-1-1-1-2-1-3l1-1c1-1 2-2 2-3v-1h1c-1 1 0 2 0 3l3 1c1-1 1-1 1-2l3 2z" class="C"></path><path d="M262 752c4 3 9 9 12 14-3-2-5-3-8-5-1-2-3-3-3-5h-1v-4z" class="D"></path><path d="M203 687c0-3 0-5 1-8s5-9 7-10l1 1h1c0 2 0 3 1 5l-1 1-1-1h-2v-1h-2 0l-1 2c0 1-1 2-1 3l-1 1v1 1h-1v1 2 1h0l1-1h0 2v1l-1 1h-3z" class="F"></path><path d="M178 384c2 0 2 0 3 1v1c-2 4-4 8-7 12h-1-1c2-5 4-10 6-14z" class="D"></path><path d="M472 858c2 1 2 2 4 1h1l2 2 4 1c-2 1-3 1-4 2-2 1-2 4-5 5h-5l1-2 1 1h0c2 0 3 0 4-1 1 0 1-1 1-1 0-1 0-1-1-1h0l-1-1-1-1 1-1h-1 1v-1l-2-3z" class="C"></path><path d="M521 780c2-1 2 0 4 0v1c1 2 2 3 2 5-2 2-4 4-5 7v-4-1l-1-1v-1c1-2 1-4 0-6z" class="B"></path><path d="M279 276l3 1-13 12-2-2 12-11z" class="G"></path><path d="M836 438h2c1 1 2 2 2 4-3 0-6 1-9 2l-3 1h-1c0-1 1-2 1-2 2-3 5-4 8-5zM209 558c1 0 2-1 3 0 4 3 3 13 3 17l-3-7c-1-3-4-7-3-10z"></path><path d="M362 201c6 4 11 10 12 17v1h-1c-3-6-6-11-12-16l1-2z" class="D"></path><path d="M525 780c2 1 2 0 3 2 0 3-1 5-2 7 1 1 1 1 2 1 0 2-1 5-3 7-1 1-1 0-2 0-1-1 0-3-1-4 1-3 3-5 5-7 0-2-1-3-2-5v-1zm283-159c3 2 9 5 10 8h0-2c-5-2-8-3-13-4 1-1 3-3 5-4zm54 1l1 1c-1 3-3 7-4 11l-5 12h-1c0-3 1-6 2-9 2-5 3-11 7-15zM761 734c1-2 3-4 4-6l-1-2c2-2 7-2 10-2l-11 11-2-1zm-54 27c3-1 6 0 8 2 2 1 4 3 4 5s0 2-1 4l-1 1-1-1c-1-3-2-6-4-8-1-2-3-2-5-2h0v-1z"></path><path d="M429 506c-1 1-1 2-2 4v1c-3 2-4 3-8 3v-1c-2 0-4-1-6-1v-1c5-1 11-3 16-5z" class="B"></path><path d="M222 498v8 1c1 2 0 5-1 6h-3-1c-1-6 2-10 5-15zm588 111c4 0 8 2 12 4 2 1 2 1 2 3l-1 1-1 1c-3 0-9-6-12-8v-1h0z"></path><path d="M750 383l-1-1c0-2 0-4 1-5 0-1 0-1 1-1h1c-1 0-1 0-2 2h0v3 1c2 0 3 0 5 1h0l1 1v3c0 2-1 5-1 7v1h-1c0-1 0-2-1-3h0c0-1 0-2-1-3l-2-6z" class="B"></path><path d="M750 383l4 1c1 1 1 1 0 2 0 1-1 2-2 3l-2-6zM264 762c1 2 4 5 4 7h-1l-12-11v-1c1 0 2 0 3-1l2 2 4 4zm-32-114c3-1 9 1 12 1 3 3 6 8 7 12-2 0-3-7-6-8-4-3-10 0-14-3l1-2zm524-261c1-3 2-6 1-8l1-1h1 2c1 2 0 5-1 7 0 2-2 8-5 9 0-2 1-5 1-7z"></path><path d="M507 193h1c1 1 1 2 0 3 1 0 1 0 2-1h2l1 7-1-2v-2h-1-1v2 2h0c0 1 0 2-1 3l-1-1h-1l-1-1-3-3c3-1 3-3 5-6l-1-1z" class="F"></path><path d="M831 420h1s1 1 0 1c-5 2-12 4-16 8l-2 2c-1-1-1-5-2-6 2 0 4 0 6-1 5 0 9-3 13-4z"></path><path d="M266 748l24 23c-1 0-3 1-5 0v-3l-1-1v1c-1 1-1 1-1 2l-2-2c-1 0 0 0-1-1l1-1h1l-4-5c-2-1-5-4-7-6l-5-5v-1-1z" class="C"></path><path d="M866 454c1 1 2 1 3 1-1 6-1 12-3 18l-1 2c-2 0-2 4-5 4 0-1 4-5 4-6l1-1c-1-1 0-4 0-5l1-13z"></path><path d="M461 153h0c-2 2-2 1-4 1-1 1-1 1-3 1-1-2-1-3-1-4-1-1 0-1 0-1l2-2 2-1c2 0 4 2 5 4h4c-2 0-3 0-5 1v1z" class="C"></path><path d="M501 795l5 3c1 6 1 13 1 19h-1c-1-3-1-8-2-11 0-4-2-8-3-11zm203-189c7 2 12 3 20 3h1l-2 1c-2 2-4 3-7 3-5 0-9-4-12-7zM382 843h2c3 0 11 3 13 5v1c-1 1-2 1-3 1-3-1-10-3-12-5v-2z"></path><path d="M279 743l18 18h-1c-4-1-7-6-10-9 1 3 8 7 8 10l-3-3-14-14 2-2z" class="G"></path><path d="M590 180h2c2 0 3 1 5 2l-1 1h-5c-3 4-6 7-10 11-2 0-3 1-5 1 0-1 1-1 1-1 4-2 6-5 8-8 1-2 1-4 3-5l2-1zM209 534h-1c-4 0-9-4-12-6v-1c4-2 8-1 12 0-1 1-1 2-2 3 1 1 2 3 3 4zm354 286c4-1 8-2 12-2l-8 7v-1c-5 0-9 1-14 2 4-3 6-4 10-6zm105-18h1c5 9 13 12 22 17-6-1-14-3-18-7-3-3-5-6-5-10zm118-88c4 1 9 2 13 4-1 0-3 0-4-1l-1 1 3 3c-1 0-1 0-1 1 0-2-3-4-4-5-6 1-10 4-16 6 3-4 5-6 10-9zm-15-392h1c2 1 3 5 5 6 3 3 7 5 11 6-4 1-8 1-12-1s-5-7-5-11zM247 679c2 0 5 0 7 1s4 2 5 4l-1 1c-1-2-3-3-4-3-4-1-8-1-11 1l-1 1c-3 3-4 5-4 10h0c-1-3-1-6 0-8 2-4 5-6 9-7zm393 117c0 2 0 5 1 7 0 3 1 6 1 9h-1l-2-1c-1-2-3-4-3-7s2-6 4-8z"></path><path d="M208 527h4c3 2 9-1 12 1 1 0 7 0 8 1l-1 1c-3 1-19-1-20 0v1 1c0 1-1 1-2 2h0c-1-1-2-3-3-4 1-1 1-2 2-3z" class="B"></path><path d="M198 597h0c5 5 8 21 9 27-3-5-5-10-7-16-1-3-2-7-2-11z"></path><path d="M861 452l2-1c1 1 1 2 1 3l2 1v-1l-1 13c0 1-1 4 0 5l-3-2 1-2-2-16z" class="F"></path><path d="M863 468h0v-2c0-1 1-3 2-3v4c0 1-1 4 0 5l-3-2 1-2z" class="B"></path><path d="M325 744l4 4c-1 2-3 4-5 5-3 3-6 7-8 11l-1 3c-1-1 0-1 0-3 1-7 6-9 9-15 0-2 1-3 1-5zM199 434c1 0 3 1 5 2 4 2 9 5 12 10 2 2 2 6 2 9-2-3-3-6-5-8-4-5-9-9-14-12v-1zm267-283c8 1 17 1 22 7 1 2 2 4 3 5-3-2-5-4-8-6-7-3-15-4-22-4v-1c2-1 3-1 5-1zm369 254h0l8 23c1 4 3 9 3 13-1 1-1 1-2 0l-9-36zM168 616c3 0 9 4 11 6 5 4 7 9 9 14 1 2 3 5 3 7-1 0-1-1-2-2-3-5-4-11-7-15-4-4-8-3-11-6-2-1-3-2-3-4zm27-172h2c6 3 10 8 12 15h1c1 5 0 8-2 13l-1 1h-1l1-2c1-5 0-11-2-16-1-4-4-8-8-10-1 0-1 0-2-1h0zm234 147c1 3 1 20-1 22l-1-2c-1-1-1-3-2-5 0-2-1-7 1-9l3-6zm339 106c1 1 3 5 3 7 2 3 5 4 8 6 1 1 2 1 2 3-1 1-1 1-2 1-3-1-6-2-8-4-2-3-3-9-3-13zm-481 28l1-1 5 6-7 8-1 1 6 6c1 1 3 2 4 3 0 1 1 3 1 4-5-2-10-10-13-14l3-3c2-1 3-2 4-4-2-1-3-2-5-3 0-1 1-2 2-3zm457 36l1 2-10 9c-2 1-6 5-8 5l-1-1c1-2 2-3 3-4 4-4 10-8 15-11zm99-313c1 0 1 0 2 1v3h-7c-5 1-10 6-13 10-1 0-1 1-1 1h0c-1-2 0-4 1-5 4-6 11-9 18-10z"></path><path d="M855 624h1c1 0 1 0 2 2-2 4-4 15-8 18l-1 1-1-1c1-6 4-14 7-20z" class="D"></path><path d="M824 471c2 3 3 6 5 9 4 7 10 11 17 15-5-1-8-1-12-4-6-5-9-13-10-20zM200 695h1c5 10 10 19 16 28-7-5-13-13-16-21-1-3-2-5-1-7zm590-330l1 1 4 9c0 1 2 3 2 3h2c2 0 4 0 6 1 1 1 1 1 1 3h0-1l-3 1c-2 0-3 2-4 4-3-7-6-15-8-22zm-96 80c1 2 1 7 1 9 0 11 1 22 1 32-1 1-1 1-2 1-1-2-1-7-1-10l1-32zm125 140h0c3 0 5 4 6 5 2 2 5 3 7 5h-1c-2 0-4-1-5-3-2-1-3-3-5-4-1 1-2 3-3 5-2 5-5 9-8 14l5-14c1-3 2-6 4-8z"></path><path d="M820 497c1 1 1 2 1 4h0l1 1c1-2 2-3 3-5l-1-1-1 1-1-1c1-1 1-1 2-1 2 0 4 0 6 1-1 0-2 0-2 1-2 1-3 7-5 7h-4-3-3l-1 2c1 1 0 1 1 1-1 1-2 1-3 0s-3-1-3-3c1-2 1-2 3-3-1 1-1 1-1 2 2 0 4 1 5 0s3-2 5-2h0l1-1v-3z" class="C"></path><path d="M787 341h1l1 6c1 3 3 6 6 7 5 2 11 1 16-1h1l-1 1c-5 3-9 4-14 4-2 0-4 0-6-2-2-4-4-10-4-15zM256 747c-1 1-3 3-5 3-4 0-10-5-13-7 4 1 10 3 15 1 2-1 4-2 6-4l1 2-4 5z"></path><path d="M744 761c10-7 17-17 26-24-1 1-1 2-2 3-2 1-4 3-5 5v1c-1 1 0 1 0 2l-18 15-1-2z" class="D"></path><path d="M309 730c3 1 6 4 9 6v1c-1-1-2-1-4-2-4-1-8 2-11 4-2 1-4 4-5 4-1-1-2-1-2-2 1-3 5-4 7-6 2-1 4-4 6-5zm512-330h5c1 0 2 0 3 1l-1 1h-4c-3 1-5 2-6 4s0 7 1 10l1 4v1h-2l-1-1c-1-4-3-12-1-16 1-3 3-3 5-4zm-94-151c4 3 8 6 11 9l15 12v1l-3-1-15-11c-2 1-4 2-7 3l5-6c-2-3-4-5-6-7zM620 596h0c2 0 3 2 3 3 3 5 2 13 0 18l-1 1c-1-1-1-4-1-6-1-5-2-11-1-16zM332 235c2-1 3-1 5 0 1 1 1 2 1 4s-3 5-5 7h-1c-2 0-2 0-3-2v-4c0-3 2-4 3-5zm469 399h3c3 0 5 2 6 3v1c-2 1-6 0-9 0-3 3-4 9-6 12-1 3-2 5-4 7l6-18c1-2 2-4 4-5zM637 164h1l10 5c2 1 5 2 6 4l-2 2s0 1-1 0c-1 0-3-1-4-1-4-2-8-3-11-6 0-1 0-2 1-4zM337 603h2c-1 3-4 6-8 7-3 2-6 2-10 1l-3-3c6-1 13-2 19-5zm498-76h2v1c-7 5-9 10-13 17l-1 1h0c-1-5 0-10 2-14 3-4 6-4 10-5zM326 815c3-1 7 1 10 1 4 1 9 0 12 1l2 2-1 1h-1c-5 2-14 1-19-2-2-1-2-1-3-3z"></path><path d="M819 705h1c1-1 2-1 3-2-1 2-1 3-1 5l1 1c-6 4-12 11-20 9-1 0-3-1-4 0-4-2-9-3-13-4h2l1-1 1 1c1 0 3 0 5 1h1c1 1 1 0 2 1h1c1 0 0 0 1 1 2 0 2 1 4 0v1c2 0 5-1 7-2l4-2h-1 0-1l-1-1v-1c1-2 2-3 3-4v-1h3v-1l1-1z" class="C"></path><path d="M815 708l1 3-2 2c-2 0-1 0-2-1 1-2 2-3 3-4zM713 220h1c3-1 10 5 13 7s12 9 12 13l-1-1-12-9c-4-3-11-6-13-10z"></path><path d="M312 271l1-1c-1 0-1-1-1-1h1l1 1h0s1-2 1-3c-1-1-2-1-2-2 1-1 2 0 4 0l8 5-5 5c-1 0-2 1-3 1-1-1-2-1-3-2h-3v-1-1l1-1z" class="B"></path><path d="M558 837l1 3c1 1 1 2 1 4 1 3-2 6-4 9-1 0-1 0-2-1s-2-3-2-5c0-5 3-7 6-10zm-35-598c1-1 3 0 4 0l1 1c-2 7-5 14-8 21l-8-19h-1c0-1-2-2-3-2v-1c1 0 2 1 3 0h2c1 3 2 6 3 8 2 4 3 8 4 12 1-6 4-14 3-20zm-137-67c1 0 1-1 2-1 0 5-16 8-19 13v2c-1 0-3-1-4-2l-5-2 26-10zm-51 583l2-1c1 1 1 1 2 3-2 2-6 3-9 5-4 3-5 7-5 11-1 1 0 1-1 1s-1-1-1-1c-2-3-1-7 1-9 2-5 6-7 11-9zm426-53c-2 5-11 11-9 18 1 2 4 5 4 7l-1 1-2-1c-1 0-3-2-4-3-1-2-2-3-2-5 1-7 9-13 14-17zM208 403h1l-3 9v3h-1c1 0 3 1 4 1 4 2 10 5 12 9 1 3 1 7 0 10v-1c0-6-9-12-14-16-1-1-3-2-3-4 0-4 2-8 4-11zm11 292v1 3c1 3 2 7 5 8 0-2-2-8-2-11 1 2 2 5 3 7 2 6 4 10 8 15l8 7-6-2c-8-3-12-13-15-21-2-2-2-4-1-7zm641-334h0c2 2 3 7 4 10l9 28c2 5 3 9 4 14h0c-3-5-4-11-6-17l-8-21c-1-5-3-9-3-14zm-669 89c2 0 6 1 7 3 1 1 1 2 1 3 0 2-1 3-3 4-1 0-2 1-3 1-2-1-3-2-4-3-2-2-2-4-2-6 2-2 2-2 4-2zm45-71h2l-1 3c0 2-2 5-4 6-3 1-10-2-13-4-2 0-3-1-4-2 0-1 0-1 1-2l6 2c5 1 8 0 13-3zm584 308h0c1 1 2 1 2 2s-3 5-4 6c-2 3-4 8-7 11-2 2-4 4-6 7v1h2s1-1 2-1v1l-1 1c-2 0-6-2-8-3 5-4 10-8 14-14 2-4 3-8 6-11zM264 302h1c2 4 7 10 6 15 0 1 0 2-1 2 0 1-1 2-2 2l-1-3v-1c-1-2-2-4-4-6l-3 2h-1c1-3 3-8 5-11z"></path><path d="M292 772l1 1 4 4 4 3c-1 7-1 13 1 21l-2-2v-2c0-1 0-1-1-2v-1c1-1 1-3 0-4 0-2 0-2 1-3 0-1-1-2-1-3l-3-2h-1 0c1 2 1 3 1 4 0 2-1 5 0 7v1 1c0 1 1 1 1 3h0v1h0c1 1 1 2 1 3v2c-3-7-3-15-4-23l-4-3h0v-2c0-2 1-3 2-4z" class="C"></path><path d="M292 772l1 1 4 4c-3-1-5-1-7-1 0-2 1-3 2-4z" class="B"></path><path d="M289 623c1 7 1 14 3 21v-1c-1-1-2-2-2-3v-1c-1 1-1 2-3 3h0v1c1 0 2 0 2 1v2l-1 1c-1 0-1-1-1-3h-1l-1 2h0c-1 0-1-1-2-1 0 1 0 1-1 3 0-1-1-1-1-2l1-1v-1c0-2 1-1 2-3 1-1-1-1-1-2 1-2 0-4 0-5l1-2 1-1c1 0 1 1 2 0h1l1 2v-3-3c-1-2-1-2 0-4z" class="F"></path><path d="M829 429h6c2 1 2 2 2 3v1c-4-1-7 0-10 2s-5 6-6 10v9-3c-1-4-2-14 1-18 1-3 5-3 7-4zM579 821h2c2 1 3 1 4 3s1 5 0 7-2 2-3 3h-3c-1 0-2-1-3-2-1-2-1-4 0-6 0-2 1-4 3-5zm45-24h0 0l-5 7c0 7 3 12 3 19v1l-1-1-3-9c-1-3-2-7-4-10-3-1-8 0-11 1l21-8zm199-225l4 7c3 5 9 7 15 8l-7 19c-1 0-1 0-2 1v-1c0-3 1-5 2-8s3-5 5-8c-5-1-11-3-14-7-2-3-3-7-3-11z"></path><path d="M713 201c7 4 13 8 19 13l12 12-1 1h-2s-1-1-1-2l-7-5c-6-6-13-11-21-16 0-1 1-2 1-3z" class="D"></path><path d="M727 785c-6 9-15 15-26 19-5 2-10 3-15 0l-1-1h0 0c17 2 30-8 42-18zm-448-69h1l1 1c-2 2-4 4-5 6l-1 4-16-12a79.93 79.93 0 0 0 13-13c1 1 2 1 2 3v1c-4 2-6 7-10 10l9 6c1 0 1 0 2-1s3-3 4-5zm316 94c2 0 5 0 7 1 4 1 7 4 9 8 1 1 2 3 2 5s-2 5-3 7c3-1 5-1 7-2v1l-1 1-2 1c-1 1-3 1-4 1v-9c-2-5-5-8-10-10-2-1-5-1-7-2v-1l2-1zM217 646h1l1 2c3 5 7 10 13 11 3 0 5 0 8 1 1 0 1 1 2 2h-1l-13 2-3-3c-4-3-8-10-8-15zm453 187h1c1 0 2 1 2 2-1 2-3 3-5 4-8 4-17 6-26 9l-12 6h-2 0c4-5 9-5 15-8 5-1 11-3 16-6 4-2 7-5 11-7h0zM272 693h1c3 3 6 6 9 10l11 11c2 2 5 5 6 7v2h-1c-3-1-17-15-19-19-3-3-5-7-7-11zm-12-365c1 0 1 0 2 1 1 5-1 11-3 16-2 4-6 11-11 12-5 2-11 0-15-3l-2-2h0c4 2 9 3 14 2 5 0 10-5 12-9 3-4 4-10 3-14v-2-1zm-64 322c1 3 3 7 4 10 0 1 1 3 0 4-2 1-4 1-7 1l-3 6c-1 1-1 3-2 3-1-2-1-8 1-11 1-2 3-4 5-6 1-3 1-5 2-7zm171 151h0c-1 1-1 2-2 2-5 6-13 10-21 10-6 0-13-1-18-5-1-1-1-2-1-3 1 0 3 0 4 1 3 1 6 2 10 3 3 1 6 1 10 1 8-1 12-4 18-9zM234 391c1 0 0 0 1 1-2 8-6 17-9 25-4-4-8-6-12-8l-2-2c0-1 0-2 1-3 2 1 3 2 5 3l6 4c1-1 2-2 2-4 2-4 4-13 8-16zm321 440h1c-3 5-7 8-8 13 0 3 1 8 3 10 2 3 5 6 9 6v-1h0c1 0 2 1 2 1h1c1-1 2 0 3 0l-1 1v2l1 1h0c-7-1-13-3-17-9-3-4-4-10-3-14 1-5 5-8 9-10zm-3-688h1c-2 2-7 4-9 5-6 5-13 12-14 19 0 4 1 9 2 13 0 2 2 5 1 7h-1c-2-2-3-5-4-8-1-4-2-12 0-15 6-10 13-18 24-21z"></path><path d="M684 199c-6 4-11 8-16 14-1 2-3 7-5 8h-1v-2c1-8 9-15 14-19 5-3 14-6 20-5h0l-4 2c-3 0-6 1-8 2z" class="D"></path><path d="M384 815c2 0 4 1 6 2l12 5c9 4 18 7 26 11-11-1-23-5-33-10-3-2-7-3-10-6-1-1-1-1-1-2zm48-634h2 0c-3 2-6 3-9 4l-13 7c-7 3-13 7-19 10h-1c-1 0-1 0-2-1 2-2 6-4 8-5 11-6 22-12 34-15zM228 625c2-1 4-1 6-1 2 4 3 8 5 12 0 2 2 4 2 6-1-1-2-3-3-4-2-4-3-7-7-9h0c-6-2-14 1-19 3l-4-7c7 1 13 1 20 0zm107 145h4c2 0 3 1 4 3 1 1 2 3 1 5 0 2-2 4-4 5h-4c-2 0-3-2-4-3-1-2-1-4 0-6s2-3 3-4z"></path><path d="M337 773h1c1 0 2 0 2 1 1 1 1 2 1 3 0 2 0 2-2 3s-2 1-4 0c-1-2-1-3-1-5 1-1 1-1 3-2z" class="C"></path><path d="M609 187c2 0 4 1 5 2h0c-1 0-2 0-3 1v6c0 6-3 13-8 17l-8-1c-2-1-5-1-7-1l9-3c5-2 8-5 10-9s4-8 2-12zM337 296h3c8 1 17 1 26 1v20 1c-2-1-3-1-5-1h0c0-1 2-2 3-2v-18h-25c3 5 5 10 7 15 5 12 9 27 10 40h-1c-3-20-10-38-18-56zM160 610h1c1 1 2 4 2 6l5 12c3 9 7 17 10 26 1 3 1 6 1 9-1-3-3-7-4-10-5-11-10-22-13-34-1-3-2-6-2-9zm199-280h1c2 1 4 2 7 3 1 12 0 25 0 38l1 20c0 5 0 10-1 15h0c-1-1-1-2-1-3v-10l-1-45v-11-3c0-1-5-3-6-4h0zm14 476v1 2c-4 8-13 15-22 18-7 2-16 1-23-2-1-1 0-1-1-2 1 0 1 0 2 1 5 1 10 1 16 0 12-1 21-8 28-18zm377-28h1v1c-2 2-4 3-5 6 1 2 4 5 6 7-2 3-4 7-7 10s-7 6-10 8c-2 1-3 2-5 3l8-7c2-2 6-7 7-11 0-1-2-5-2-6s-1-3 0-4c0-3 5-6 7-7zM525 332h0c1 3 1 79 0 83-2-6-1-15-1-22v-40c0-7 0-14 1-21zm0 266c1 2 1 4 1 6v13 39 24c0 2 0 3-1 4v-2c-1-5-1-10-1-15v-29-23-15c1-1 1-1 1-2zm39-454h1c1 1 2 1 3 2-2 1-5 2-7 2-5 1-11 4-15 8-7 6-8 13-8 22l-1 1h-1c0-1-1-1-1-2-2-5 0-11 2-15 5-9 17-15 27-18z"></path><path d="M259 740h2c4 1 7 5 10 8l14 14c3 3 7 6 10 9v1c0 1 0 1 1 2-2 0-1-1-3-1l-1-1-2-1-24-23-1-1c-1-2-3-4-5-5l-1-2z" class="D"></path><path d="M471 725c4-2 10-1 14-1l36 2c19 0 39-2 59 0v1h-2c-18 1-37-1-55-1-7 0-50 2-53 0l1-1zm413-270c0 4 1 9 0 14v1c-1 5-3 11-6 16-5 9-13 12-22 14h-2c0-1 10-5 12-7 8-5 13-14 15-23l3-15zM768 287h0c3 1 6 5 8 7-3 5-8 9-10 15-2 5 0 10 2 15-3-3-6-6-7-10-3-11 6-12 10-19 0-2-1-3-2-4l-1-2h0v-2zM458 141h3c-1 1-1 1-2 1-6 2-16 8-19 15-1 1-1 0 0 1 3 3 7 2 11 2h6l-10 2-15 6c1-4 2-9 4-12 4-5 10-11 16-13 2-1 4-1 6-2zm224 158c1 1 1 11 1 13v3c0 1 3 2 4 3 1 2 2 3 2 5 0 4-1 6-3 9-1 0-2 1-2 2-1 1-1 5-1 7 0 15 0 30-1 46v-1c-2-14-1-28-1-42v-8-3c1-2 1-1 3-1 1-1 3-3 3-4 1-2 1-6 0-8-1-1-2-2-4-2l-2-2c1-5-1-12 1-17zm-257-98c6 0 8 3 12 6 4-1 6-2 9-5h1 0c0 1 0 2-1 3-2 3-5 5-9 6l-1-1v-2c-1-2-3-3-5-4h0c-1 0-1 0-2 1-2 2-2 4-2 7v1l-9 3c-2 1-5 2-7 1v-1l2-1c4-1 7-3 8-7h0c1-3 2-5 4-7zm111 592h1c0 1-1 2-1 3-3 4-5 8-6 13 2 3 6 4 9 6-3 5-8 9-10 14h0 0l-1-1v-3c1-5 5-8 9-11-3 1-6 3-9 3l-1-1c0-4-1-8 0-12v-1l1-1c0-3 5-8 8-9zm271-52h0c0 3-5 7-7 9-12 15-25 28-40 39h-1l48-48zM358 843c3-1 15 5 19 7l28 11c9 3 18 4 25 8-1 1-1 1-2 1-6-1-13-3-18-5l-37-14c-4-2-12-5-15-8zm477-179h0c3 2 4 7 5 10 2 11-2 24-9 33l-1 1h-1c1-1 2-2 2-3 1-1 2-4 2-6 2-8 3-16 1-23-1-5 0-8 1-12zm-589 22h2c2 0 4 2 5 3 2 2 3 7 2 9s-2 3-4 4h-2c-2 0-4-1-6-3-1-2-2-6-1-9 0-2 2-3 4-4zm414 113c2 2 2 3 3 5 4 9 13 14 22 17 2 0 5 1 7 0 5-1 11-6 17-4v1h-1c-6 1-10 5-16 6-7 1-16-2-22-6-6-5-9-11-10-19zm119-58c5-6 8-8 17-8 2 0 5 0 7-1 7-3 13-8 19-11-4 6-12 10-18 14l-9 8c-2-2-3-5-4-8-4 2-7 5-10 7v-1h-2zM602 185h1v2c0 4-3 9-6 11s-6 3-9 4c-2 1-5 2-7 3-5 1-11 0-16-1h-9c-2-1-2-1-4-3v-1c3-1 7-1 10 0 5 2 13 4 19 3 10 0 15-11 21-17v-1zm36 25c3 0 5 1 8 3-3 3-5 6-5 10 0 2 3 4 4 6l-21-9-3-1c-3-2-8-3-9-6l1-1c6 3 13 8 21 7 3-2 3-6 4-9zM148 483l1 1c1 6 0 13 1 19 0 4 0 9 1 13 0 6-1 11-1 17 0 5 0 11-1 16 0 1 0 1-1 1l-1-24c0-11-1-21 0-32 0-4 0-8 1-11zm304-299h1c1 0 2 1 2 1v3c1 3 1 5 2 7 2 3 5 6 9 6 7 2 15-5 22-9h0c0 1-1 2-1 3l-4 4c-3 3-8 5-13 5-6-1-16-4-20-9-2-3-2-5-1-8 1-2 1-2 3-3z"></path><defs><linearGradient id="A" x1="486.105" y1="147.932" x2="481.585" y2="171.575" xlink:href="#B"><stop offset="0"></stop><stop offset="1" stop-color="#28272a"></stop></linearGradient><linearGradient id="B" gradientUnits="userSpaceOnUse"></linearGradient></defs><path fill="url(#A)" d="M464 145h2v1c5-2 13-1 17 1 7 2 13 6 16 13 4 7 3 16 0 23v1h-1c1-3 1-6 1-9-1-8-2-15-9-20-5-4-11-6-18-7-2-1-5-1-7-1h0-1-1 0l1-2z"></path><path d="M622 152h1c2 0 6 2 8 2 17 5 32 11 48 19 5 3 11 6 16 10-11-4-21-10-32-15l-25-9c-3-1-14-4-16-7z"></path><defs><linearGradient id="C" x1="713.829" y1="205.08" x2="713.681" y2="229.855" xlink:href="#B"><stop offset="0"></stop><stop offset="1" stop-color="#2d2c2d"></stop></linearGradient></defs><path fill="url(#C)" d="M738 231l-15-12c-5-4-12-8-18-9v-1c-6-1-11-1-16-1l-1-1v-1c3-1 6-2 9-2 16 0 32 15 43 26l-2 1z"></path><path d="M702 190c4 0 10 3 14 4 10 6 19 13 28 21 3 3 6 6 8 9 2 2 2 5 3 7-6-5-11-11-17-17-9-8-18-14-29-20-2-1-4-2-7-3v-1zm176 414h0c-3 18-11 36-18 52-2 4-3 9-6 13h-1c4-14 9-28 15-42 3-8 6-15 10-23zM601 849h2c-3 5-6 10-10 14s-12 11-19 11v-1l4-1c1-1 4-2 4-3l-1-1-1-1c2-3 5-4 8-5 2-2 3-3 3-6l-2-2c-1 0-15 1-16 2h0c-3-1-7 0-9-1h1c6-1 12-1 18-2s12-3 18-4zm-189-55c2 0 7 2 9 2l23 7c-2 1-4 3-5 5-7 7-9 15-9 25l-2-6v-5c2-8 5-12 11-17-7-2-13-6-21-7 0 3-1 7-4 9 0 0-1 1-1 0h-2c0-1 2-7 2-9 0-1-1-3-1-4zm-29-12c5 2 10 4 14 7s6 7 6 11c1 5-2 8-5 11 4 2 11 4 14 8h-1-1l-18-8c2-4 6-10 6-15 0-2-1-5-2-6-2-2-3-3-6-3s-4 0-7 2h0v-7zm-57-573l-10 7 2-3v-2c4-5 12-9 18-10 7-2 15-2 20 2s11 11 13 17h-1c-3-6-8-10-14-13-5-2-13-4-17-2h-1l-10 4zM217 582h1c2 2 2 6 3 8l10 27c-7 0-14 1-20 0 4-3 9-3 12-7 2-8-3-17-6-23l-5 3c-3 3-7 6-12 5h0c4-2 8-4 11-7l6-6zm432 217h2c2 0 9 13 11 16s4 5 7 7c7 5 16 7 25 6 2 0 8-3 10-2l-2 1c-8 4-18 5-27 2-10-3-14-9-20-17-2-3-4-5-5-8-1-2-1-3-1-5zm24-18c0 3-1 7 0 10v1c1 5 6 10 10 14 6 4 11 3 17 3l4 3v1h-2c-7 2-12 2-18-1-7-4-13-11-15-19-1-4 2-8 4-12zM279 276l21-18a57.31 57.31 0 0 0 11-11c0-3-1-5 0-8v-1c1-7 7-13 12-18-5 8-10 16-7 26v2c-1 3-5 5-7 7l-18 15c-3 2-6 4-9 7l-3-1zm542 76c1 1-5 10-6 12v2c1 5 5 12 9 15h1c-3 4-4 8-5 12h-10v-1c1-3 5-4 7-6 1-1 2-3 3-5 0-4-6-10-9-13-3 1-6 2-9 2s-3-1-5-3v-1c2 1 4 1 7 0 7-2 12-7 16-13l1-1zm-533-74h1c1 1 2 2 2 3 3 3 6 8 10 9 1 0 3-1 4-2 0-1-1-2 0-3l3 3c-5 5-13 16-20 17h-1v-1c3-2 5-3 7-5l3-3c-4-4-7-7-10-12-3 3-7 5-10 8-2 2-4 4-7 6 2-4 6-8 9-11s5-7 9-9zm365 540c2 0 4 3 5 4-8 2-15 6-22 9l-25 9c-6 2-12 5-18 6-9 2-17 3-26 4h-3v-1c2-1 4-1 6-1l18-3c7-2 14-4 21-7 11-3 22-7 33-13 4-2 8-3 11-7zM182 533c10-1 18 2 25 9-1 0-3-2-5-2-5-3-11-4-17-4-10 0-19 5-25 12-5 7-7 16-9 24-1-8 2-20 7-27 6-8 14-11 24-12zm507 304h2 0c-7 5-14 9-22 12-12 5-25 9-37 14-10 3-20 6-30 8h-2l89-34zm-29-9c1-1 2 0 4 0v1c-2 3-6 4-10 6l-10 4c-1-1-2-1-3-1-4 3-9 4-14 5-3 1-6 2-9 4-1 1-2 3-3 5-4 6-6 10-13 13l-5 3c2-2 5-4 7-6 4-4 6-9 9-13 1-2 2-3 4-4 5-3 12-5 18-7 8-3 16-8 25-10zm-75-531h2l-1 19-123 1-1-14v-1h1v14l72-1c17 0 34-1 50 1v-19h0zm-394 34h0c0 4-1 7-2 11-1 2-1 5-2 6 0 1-1 1-2 1-2 1-4 6-5 8-5 12-9 24-12 36-2 4-2 8-4 12-1 3-4 7-6 10 2-6 4-12 5-18 7-23 15-46 28-66zm216-35h41v21h-69v-18h1v10 7l67-1v-17h-33c-7-1-15 0-23-1 6-1 11-1 16-1z"></path><defs><linearGradient id="D" x1="789.955" y1="717.708" x2="794.653" y2="738.267" xlink:href="#B"><stop offset="0"></stop><stop offset="1" stop-color="#2b2a2a"></stop></linearGradient></defs><path fill="url(#D)" d="M799 718c1-1 3 0 4 0 8 2 14-5 20-9 0 2 0 3-1 4-6 9-18 11-28 13-4 1-7 1-11 3-3 2-5 5-8 7l-12 12c0-1-1-1 0-2v-1c1-2 3-4 5-5 1-1 1-2 2-3v-1c4-4 10-10 17-12 2-1 6-1 9-2h0c0-1 0-1 1-1l-3-3 1-1c1 1 3 1 4 1z"></path><defs><linearGradient id="E" x1="736.066" y1="767.806" x2="771.934" y2="776.469" xlink:href="#B"><stop offset="0"></stop><stop offset="1" stop-color="#242423"></stop></linearGradient></defs><path fill="url(#E)" d="M734 800h0c1-2 2-3 2-5 1-3 1-9-1-11-1-2-2-2-4-2v-1l48-40h2v1l-19 18-18 17c-2 1-5 3-6 5 1 7 2 13-2 19-1 2-3 3-4 4h-1c1-2 2-3 3-5z"></path><path d="M576 141c5 1 10 2 14 5 8 6 14 15 15 25-12-4-23-6-36-6-3 0-6 1-8-1v-2c0-2 0-2 2-2 2 1 4 1 6 1 5 1 10 1 15 2 5 0 10 2 15 3-1-5-2-9-5-12s-7-5-10-8c-3-1-6-3-8-5zm-9 684c1 4 4 8 7 10 3 3 7 3 12 3 4 0 8-2 11-6 2-3 2-7 4-9 1 0 2 0 3 2 0 3-1 4-3 7-8 8-18 11-30 11-3 0-5-1-7-3s-3-6-3-10c0-1 1-2 2-3s3-2 4-2zM189 353c2 4 5 9 6 14v3c-1 5-10 35-12 37s-6 3-8 5c-8 4-13 11-17 18l-2 3h-1c2-8 8-18 15-23 3-2 6-3 9-5 2-3 3-8 5-11 2-5 5-11 6-16s-1-9-1-13v-12zm552 374h1l1 2h0c-7 3-11 10-17 14l6 6 7-7c2 1 5 3 6 5 0 2-1 2-2 3h-4c-2 0-6 5-8 7-3-2-6-6-8-9 0-1 0-1-1-2l-5 4-3 3s4 0 5 1c3 3 7 10 7 15h0l-3-6c-3-6-7-8-13-9 5-6 11-10 17-15 4-4 9-10 14-12zm140-140v1c-5 9-12 13-21 19-3 2-5 4-7 7-4 7-6 16-9 24-1 3-3 8-3 11 0 2 1 4 2 6 2 4 4 9 5 13s1 10 0 13l-1-1c0-11-6-19-10-28 0-3 2-7 3-11l8-25c1-2 1-7 3-8 0-1 1-1 2-1l10-5c2-1 5-2 7-4 5-3 7-7 11-11zM531 426c0 1 1 4 0 5 0 2-3 3-5 4h0c-1 3 0 7 0 10v24l-1 107c2 1 4 2 5 3 1 2 2 4 1 6 0-1 0-2-1-3 0-1-1-2-2-2-2-1-4-1-6-1l-1 1c-1 1-2 3-3 4h0v-3c1-2 3-4 6-5h1l-3-145h0l4 1c2 0 3 0 4-1 1-2 1-3 1-5h0zM298 804c0 1 2 5 3 7-10-6-18-14-26-22l-29-28c-8-9-16-16-23-25 3 1 6 2 8 4 4 4 6 9 10 13l19 19c11 10 23 21 35 30-1-3-2-5-3-8 0-3 0-8-1-11-1-2-3-4-4-6h0l3 1h0l4 3c1 8 1 16 4 23zm95-245c6-1 11 0 16 3-3 0-5 1-8 1-10 4-17 12-22 21l-5 12v-1c-1-8-1-20 3-27 4-6 9-8 16-9zm33 287c6 1 13 4 19 5 6 2 13 3 19 5-2 1-7 1-8 3 0 0 0 1 1 1l1 1-20-5c1 3 2 5 4 7 3 3 7 5 11 7 2 2 6 2 8 5h-1c-4 1-14-3-17-5-9-6-15-14-17-24zm-65-643l-4-2c-6-4-16-6-23-4-12 3-19 11-24 21 0-3 1-6 2-9 8-13 24-17 37-20 6-2 13 1 18 4 7 5 13 12 15 20h-1c-2-1-5-5-6-7-3-4-7-6-11-9-4-2-9-5-14-5-3 0-6 1-8 2 7 1 14 3 20 7l-1 2zm488 153h1c1 1 2 2 2 4-2 2-3 4-4 6-1 3-1 6-1 9 0 4 1 8 2 11 2 8 3 19 8 25l9 6c5 4 13 12 16 19 0 1 1 2 0 4-1-3-3-6-5-8-6-7-15-12-23-15-3-7-4-14-6-21-3-8-6-16-5-24v-1c1-5 3-10 6-15z"></path><path d="M569 810h0c6-1 14 2 18 6 3 3 5 7 5 11 0 2-1 3-2 4h-1c0-4 0-8-3-12-2-3-6-6-10-7-7-1-16 4-22 8-7 5-11 12-12 20-1 6 1 13 5 18 5 5 10 7 17 9 2 1 5 1 7 3 0 1 0 1-1 1-5 1-15-2-19-4-6-4-11-9-12-16-2-7-1-16 3-22 6-10 16-17 27-19zM456 165c4 0 10-1 14 1-31 1-59 16-85 32l5 13c1 2 1 5 3 7 4 4 6 1 11 1l1 1c-2 3-6 4-8 5-5 1-9 6-13 7l-1-1 1-2c2-2 5-2 8-3-5-6-5-17-8-24-2-3-4-5-6-7 11-4 20-9 30-13 6-4 13-6 20-8 9-4 18-7 28-9z"></path><path d="M294 762c0-3-7-7-8-10 3 3 6 8 10 9h1l2 2c11 10 25 26 40 25 3 0 6-1 8-4 2-2 3-5 3-8l-1-3v-2c4 2 8 3 9 8 1 2 1 6 0 9-1 2-4 5-6 6-7 2-17-1-23-4s-11-7-16-11c-7-6-13-11-19-17z" class="D"></path><path d="M830 656c0 5-1 9-1 13 1 2 1 3 2 4 0 3 1 5 1 7-2-2-3-4-5-6-2-1-3 1-4 2-4 4-7 9-10 13-3 6-7 11-11 15-2 2-5 4-8 5-2 0-3-1-4-2-2-2-8-2-10-3-3-1-4-3-5-5v-1-1c-1-3-1-5 0-8l2 4c2 4 5 6 8 8 4 1 10 0 13-2 4-2 7-5 10-9a84.69 84.69 0 0 0 15-30c0 2 0 6 2 7 3-2 4-7 5-11zm-74-423c2 2 5 4 6 6l-1 1-4-4c-2 2-4 5-6 8 6 8 15 15 23 22 5 5 9 10 14 15 3 2 7 4 10 5s7 1 10 1l10 2c-2-3-5-5-7-7l-10-12-21-22c-5-5-9-10-14-14 2 0 4 1 5 3 17 10 30 27 41 43 4 5 7 10 12 15l-3-2c-8-4-19-6-27-4h-1c-1-1-3-2-4-4l-9-9-12-12-20-19 8-12zm-122 96c7 1 14 1 22 1l13 1h0l1 32c-1 0-1 0-1-1-7-9-14-18-23-25-4-2-8-5-12-8h0z"></path><path d="M667 331h0l1 1v25l-11-13-10-8-4-4 24-1z" class="E"></path><path d="M183 543c6 0 10 2 14 6-6-1-11-3-17-1-7 1-12 5-15 11-3 5-5 10-3 16 2 8 6 13 13 18-1-8-4-16-3-23v-1c0-3 1-5 2-7 2-2 3-4 5-4v1l-2 4c-5 11 3 27 7 38-4-1-8-2-12-4-7-6-12-15-13-24-1-8 1-16 6-22 5-5 11-8 18-8zm20 144c-1 2 0 5-1 6h-2c-1-1-1-2-2-3-1-5 1-11 4-15 2-2 4-4 5-6s1-4 0-6c-3-10-9-20-14-31-2-5-4-12-8-16-3-3-9-4-12-6-9-4-13-12-16-21l4 5c7 9 13 13 25 14 3 9 8 18 11 26 4 8 7 16 11 24 2 4 4 7 7 10 1 2 3 4 4 7v1h-2c-1-3-2-5-4-6h-1l-1-1c-2 1-6 7-7 10s-1 5-1 8zm18-377h0c1 3-3 9-4 12-3 5-5 10-6 15 0 3 0 7 2 10 1 2 1 5 1 7l10-12c1 4 1 8 2 12 1 7 6 8 11 12h0c-1 1-1 1-2 1-2 0-4-1-6-1-8-2-15-6-21-12-2-1-3-3-4-5-4-5-3-15-1-21 1-5 4-12 8-15 2 2-4 14-5 17s-2 7-1 11c0 3 2 7 5 9l1-1c1-2-1-5-1-7-2-12 3-22 11-32zm217-165h1c-6 5-13 9-16 16 0 2 0 2-1 3h-2c-1-1-2 0-3 0l-6 6c-3 3-6 6-9 8-5 4-11 5-16 8-3 1-7 4-10 4-1 1-2 0-2 0-2 0-3-2-3-3 8 0 17-7 25-10 3-2 6-2 8-4 4-2 5-7 8-9 4-4 9-6 13-9 1-1 2-2 2-4-4-2-10 3-15 4-12 4-24 9-36 14l-17 9c-4 1-7 4-10 6-2 1-5 1-7 1 1-1 5-3 6-4 17-13 39-20 59-26l11-4c3-1 7-1 10-2 3 0 7-3 10-4zm36 26c2-1 6-1 8 1s4 5 5 8c0 3-1 6-2 8-3 4-8 6-13 6-2 1-5 0-7-2-2-1-3-3-2-5 0-1 0-3 1-3 2-1 3-1 5-1 1 2 1 3 1 6h2c1 0 1-1 2-2 0-1 1-2 0-3 0-3-2-4-4-5h0-2c-3-1-5-1-7-1-6 0-10-1-15 3s-5 10-5 15l-1-1c-1-4-2-12 1-16 5-4 12-5 19-6l14-2zm222 598c2 0 4 0 6 1s4 3 5 6c1 2 1 3 0 4h-1v-1c-1-2-3-4-5-6-2-1-5-2-8-1-2 1-4 2-5 4s-1 4 0 5c1 2 3 4 5 5 1 0 2 0 3-1 1-2-2-3-2-5-1 0 0-1 0-2 0 0 1-1 2-1 2 0 3 0 4 1 5 5-1 8-1 12l1 1c4 0 8-2 12-4l12-9-2 2c-5 9-18 15-28 18-3 1-10 0-13-2-2-2-3-4-4-7 0-4 1-8 4-12 4-5 9-7 15-8zM267 287l2 2-13 12c-2 2-5 5-7 8-1 2-1 4-1 5 0 2-1 3-1 5 1 1 2 2 2 3 2 3 5 5 5 8 1 2 1 5 0 6h-1c-1-2-2-3-4-4s-4-1-7 0c-1 0-4 2-4 4-1 4 0 7 3 9 1 1 3 2 4 3-2 2-2 2-4 2-4 0-6-1-9-4-2-2-3-4-3-7s1-6 2-8c2-10 8-16 15-23 7-8 14-14 21-21zm28 485c14 13 34 30 55 29 4 0 7-2 10-5 3-4 5-9 5-14-1-5-4-10-7-13-4-2-7-4-11-5h0c5-1 10 2 14 5 8 7 8 16 9 26l-3 3c-4 3-7 6-13 7-11 2-20-2-30-7-4-2-8-5-12-7l-7-6c-2 10 0 19 3 28l-6-12c-2-8-2-14-1-21l-4-3-4-4c2 0 1 1 3 1-1-1-1-1-1-2zm503-113c8-1 15 0 23 2-5 5-6 10-9 15-2 5-6 10-9 14-2 2-5 4-8 6-3 1-6 1-9 0-3-2-5-4-6-7-1-2 0-5 1-7s3-4 5-5c2 0 4 0 6 1l1 1v1c0 1-3 0-4 1v2c0 2 1 3 2 4h5c1-2 3-6 3-9 0-6-6-6-9-9 1-1 2 0 3 0 3 0 8 2 10 5v6c0 2 0 3 1 5l1-1c1-2 2-4 3-7 1-2 1-4 0-7-3-5-10-7-15-9h-1c2-2 4-2 6-2zM491 329h1c2 3 1 9 1 13v33 95 22c0 3-1 6 0 9h18V329c-3 0-5 1-7 0h3c2 0 4 0 5 1v171c-2 1-4 1-6 1h-15v-64-78l-1-21c0-3 0-7 1-10zm295-21c1-1 2 0 3 0h0c-1 1-3 2-5 3-2 2-3 3-3 6 1 2 1 3 2 4 2 1 3 1 5 0 1-1 1-2 1-4-2-1-2 0-4 0v-1c0-1 1-2 2-3s5-1 7 0c7 1 14 10 17 16 2 4 4 9 2 12-1 4-4 6-7 7s-7 1-9 0c-3-2-4-4-5-7 0-2 0-2 1-4 1 0 2-1 4-1s3 1 4 2 1 3 2 4 1 1 2 1l1-1c1-2 1-5 0-7-3-5-9-2-14-4-4-1-11-4-13-7-1-3-1-6 0-9s3-6 7-7zm-242 21h16v173c-2 1-19 0-21 0l-1-76 1-59v-23-5c0-1 1-1 1-1v15 35 113h17l1-171c-4 0-17 1-19-1h1 4z"></path><path d="M304 211h1c2 2-4 19-2 23h1c3-3 5-6 9-9-2 3-4 6-5 10-1 3-1 7-3 9-4 6-9 11-14 15l-21 19-33 31c1-3 3-7 3-10 0-2 0-2-1-3s-3-1-5 0c-4 0-5 3-7 7-1 1-1 2-2 3h-1l1-2h0-1c0-1 1-2 1-2l1-1v-1c-1 1-1 2-2 2v-3h0c-3 1-5 5-7 8h-1c0-1-1-1 0-2 0-4 4-6 7-8 9-5 16-6 27-3l22-22 18-16c1-1 2-2 2-3 4-9 3-19 5-28 2-6 3-10 7-14zm204 305h0c2 0 3-1 4 0l1 133-1 22c0 2 1 6-1 8h0V518l-18 1v12 147h12c1 0 3 0 4 1h-18V517l17-1zm-88-186l2 1c-2 1-4 3-6 4l-8 7c-13 11-22 25-29 40l-1-51 42-1z"></path><path d="M380 332h37c-2 3-7 6-10 8-4 4-9 9-13 14-5 6-10 13-14 21v-8-35z" class="E"></path><path d="M180 551c4 0 8 0 12 2 5 3 10 7 11 13 1 3 1 8-1 10-1 1-3 3-4 3-2 1-3 0-5-1-1-2 1-2 1-4s0-3-1-4c-1-2-3-2-4-2s-2 0-2 1c-1 1-1 3-1 5s2 5 4 7 6 2 9 2c5-1 9-6 12-10-1 3-1 5-2 7-2 3-6 6-9 7-5 2-10 0-15-3l14 35c6 13 11 26 18 38 2 6 5 11 9 15l10-3 3-1c3 0 6-1 9 0 4 0 8 1 10 4 1 1 1 2 1 3-3-2-8-5-11-5-7-1-17 3-22 7h0c-4-6-7-12-11-18-10-21-19-42-27-64-3-8-9-17-8-25 0-5 2-9 6-12v-1h0c-1-1-2-1-3-1-2 0-5 0-7 1-4 2-7 6-8 11-1 1-1 1-1 2h-1c0-3 1-6 2-8 3-6 6-9 12-11zm97 194l-13-14c0-1-2-2-2-2s-5 4-6 4c-3 2-7 3-10 3-8 0-14-3-20-9-3-2-5-6-7-9-6-9-11-18-12-30 2 4 3 8 5 12 1 4 4 7 6 11l6 9c3 4 7 7 13 8 2 0 8 2 9 0 0-2 0-4-1-6-1-1-3-2-4-3-3-2-5-4-7-7-6-7-8-15-7-24 1-5 4-9 7-12 2-1 5-1 7-1-3 2-6 4-8 7-2 4-2 8-1 12 2 4 5 9 9 11 4 3 9 3 14 1 2-1 5-2 6-5s0-7-1-11l1 2c1 3 3 5 2 8-2 7-11 12-17 15 3 1 7 2 10 4v1c9 6 17 15 23 23l-2 2zm589-266c2-3 4-6 5-9 3-8 4-21-1-30 0-1-1-4-3-5-3 0-5 2-7 3l-1 1c-2-5-2-11-3-16 7 3 12 7 16 14 6 10 7 19 4 30-2 8-6 16-13 20-5 3-12 3-18 1-5-1-10-6-13-11-1-2-2-9-1-11l3-3c4-2 8-5 12-6 2 0 3 0 5-2 7-8-15-66-16-79 2 6 4 12 6 19 6 19 12 38 15 58 0 5 0 12-3 15-1 2-2 3-4 3l-3-3c-1-1 0-1 0-3l1-1h1c0-1 0-1 1-2h-1-1c-2 0-3 1-4 2h-1c-1 0-1 2-1 3 0 2 0 4 2 5 1 2 4 3 7 3 2 0 4-1 6-3 5-5 5-13 5-19v-1l2 16-1 2 3 2-1 1c0 1-4 5-4 6 3 0 3-4 5-4v1c0 1-1 1-1 2v2l1-1h1z"></path><path d="M842 464c2-2 5-3 7-3s3 0 4 1 1 1 0 2c-2 2-4 0-7 1l1-1h1c0-1 0-1 1-2h-1-1c-2 0-3 1-4 2h-1zm4 21c-4-1-7-5-10-8 5 2 10 5 15 4h1v1c2 0 2 0 3-1 1 0 2 0 3-1v1h0c-1 1-2 1-4 2h-1c-2 1-3 1-5 1l-2 1z" class="F"></path><path d="M852 481c5-3 8-6 10-11l3 2-1 1c0 1-4 5-4 6 3 0 3-4 5-4v1c0 1-1 1-1 2v2l1-1h1c-2 3-6 7-10 7s-7 0-10-1l2-1c2 0 3 0 5-1h1c2-1 3-1 4-2h0v-1c-1 1-2 1-3 1-1 1-1 1-3 1v-1z" class="C"></path><path d="M210 490v1c0 4-1 8 0 12v3h0c-2 0-4 1-5 0l-1-3c-1-1 0-1-2 0-9 3-18 4-28 3-4 0-8-1-12 0l-1 1c4 4 34 3 40 3 4 0 12-1 14 1l1 2h-1c-2 1-7 1-9 1l-32 1c-4 0-8 0-12 1v1c3 2 28 2 33 2h18c5 0 21-1 23 1v2c-3 1-7 1-11 1h-9l-23-1c-10 1-20 2-30 4l-1 1s0 1 1 1h4c5-1 10-1 16-1 2 0 5 0 8 1l-12 1c-10 2-19 7-25 15v1c1-12 4-25 2-38 0-3-2-6-3-9 0-3-1-5-1-8 7 8 14 11 25 12 7 0 15 0 21-3 4-2 8-6 12-9zm663 90c2-5 3-10 3-15-1-6-5-12-10-16-8-5-14-5-23-4 3-1 5-2 8-3h1c4-1 8 0 12 1 7 3 12 9 14 16s0 18-4 24c-5 10-13 15-22 18 1-4 2-9 4-13 2-7 7-18 5-26-1-4-3-7-7-9v-1h-2c-2-1-6-1-8 0l1 1c3 0 6 1 9 4 3 4 2 9 2 13-1 8-5 16-7 23l-25 66h-1v-1c0-2-1-3-2-5v-1h1 1l6-12c2-7 22-57 21-61l-3-6c-1 2-2 6-4 7-1 1-4 0-5 0-3-2-5-5-6-8s-1-10 1-13c3-5 10-10 15-11s9 0 13 2c2 2 8 7 8 9v1c-2-2-3-4-5-5v15c1 1 1 1 2 1v2l-1 1h0c1 2 0 6 2 6 1 1 3 0 4 0v1l1-1h1z"></path><path d="M873 580c-1 1-1 3-2 4-2 1-4-1-6-1-1 2-2 4-4 5h-1c0-3 2-6 2-9 1-3 1-6 2-9 1 1 1 1 2 1v2l-1 1h0c1 2 0 6 2 6 1 1 3 0 4 0v1l1-1h1zm-29-28l1 1c-1 1-1 0-1 2l1-1h3c1 1 4 2 4 4 1 2 1 4 0 5-1 2-2 4-4 5-2 0-4 0-6-1s-5-3-5-5c-1-2 0-4 1-6 2-2 3-3 6-4z" class="C"></path><path d="M844 557c1 0 2 0 3 1s2 1 2 3c-1 2-1 2-2 3-1 0-3 0-4-1-1 0-2-1-2-3 1-1 1-2 3-3zM616 296h53v21h-13-55c-1-2 0-4 0-6v-15h15z"></path><path d="M648 297l19-1 1 19h-47-19l1-17c1-1 4 0 6 0h11l28-1z" class="E"></path><path d="M509 801c2 1 5 1 6 3 1 4 1 9 1 13 0 7 0 49 3 53 1 0 1 0 1-1l1-51c0-4 0-14 2-16 1 1 1 4 1 5l2 45c0 2 0 7 1 9s4 4 5 6c2 2 3 4 5 6-2 1-5 1-7 1-12 1-21 1-32-3-5 2-9 3-14 6 6 1 11 0 17 0l15 1c11 0 22 0 32-1-6-3-11-6-14-12-4-7-5-19-4-27 0-3 1-6 2-8l1-2h0c-1 10 0 25 6 34 7 10 17 12 27 14-5 1-10 1-16 2-22 2-45 3-67 1-5 0-9 0-13-2 2 0 5-1 7-1 3-1 7-3 10-4 8-4 13-11 16-19 5-14 0-24-6-37l5 5c2 1 6 3 6 5 1 1 0 5 0 6v20c0 6-1 12 0 18h1l1-1c1-3 1-6 1-9 1-10 1-20 1-31 0-7 1-14-1-22 0-2-1-4-2-6zm-9-613c1-2 2-4 3-7 1-6 2-18 0-24-3-6-13-14-20-16-3-1-6-1-9-1 10-2 21-3 32-4s22-1 32 0c9 0 17 2 25 3l-6 2c-6 1-13 0-19-1l-24-1c-5-1-10 0-15 0-3 1-7 1-10 2 2 1 4 2 7 2h0c5 1 11-1 16-1s10 0 14 1h16c-6 4-10 9-15 14l-1-9h0c-2 2-1 7-1 9-1 9-1 18 1 26 1 4 2 7 4 11-2-1-3-4-4-6l-2-5c0 8-1 16 0 24l1 12c0 3 1 5 0 8-1-3-3-6-4-9-1-6 0-14 0-20l-1-23v-19c0-3 0-7-1-9h-1c-1 3-1 7-1 11-1 4-1 9-1 14l-1 25c0 9 1 18 0 27 0 1 0 4-1 5h-1-1c0-3 1-5 1-8 2-6 2-14 0-19h0l-1-7h-2c-1 1-1 1-2 1 1-1 1-2 0-3h-1l1 1c-2 3-2 5-5 6-3 2-7 3-10 4h0-2c0-1 1-3 2-4 3-4 6-7 9-10l-2-2z"></path><path d="M493 204c0-3 3-5 5-7 4-3 10-7 12-12l2-4v14h-2c-1 1-1 1-2 1 1-1 1-2 0-3h-1l1 1c-2 3-2 5-5 6-3 2-7 3-10 4h0z" class="B"></path><path d="M507 193l1 1c-2 3-2 5-5 6-3 2-7 3-10 4 0-1 0 0 1-1l13-10z"></path><defs><linearGradient id="F" x1="512.931" y1="175.871" x2="498.682" y2="164.133" xlink:href="#B"><stop offset="0" stop-color="#cec9ca"></stop><stop offset="1" stop-color="#e9ece6"></stop></linearGradient></defs><path fill="url(#F)" d="M500 188h0c3-1 6-8 7-11 2-10 0-21 3-32 2 10 2 19 1 29-1 4-2 8-4 11-1 2-3 4-5 5l-2-2z"></path><path d="M667 194c-11-6-21-11-32-16-4-1-19-5-20-7-1-1-2-4-2-5-3-7-6-12-11-17 3 0 9 0 11 1-1 1-3 1-5 1 1 2 3 4 4 6 6 1 13 1 18 5v3c-3 0-6-3-8-3-3-2-6-2-9-3l3 9c12 4 24 8 35 14 7 3 14 8 21 11 4-3 11-7 16-6 1 0 1 0 1 1v1c-2 1-5 1-8 2-12 5-21 14-25 26-2 4-3 7-2 11 1 2 2 2 4 3l5 1s1 6 1 7c-3-2-13-7-14-10-1-5 3-15 5-19l-26-13c-1 4-1 9-4 11-1 0-1 0-2-1 0-2 2-2 3-4 1-1 1-5 2-7l-3-3c6 2 12 4 18 7 5 3 11 6 16 7l3-3c-2-2-5-3-7-5-16-8-33-14-49-20-11-3-21-7-32-6-5 0-11 4-16 0-2-1-3-4-4-7h-1c-1 1-2 2-1 4 0 4 1 6 4 9 2 2 4 3 7 3 5-2 7-5 13-3 2 1 3 1 4 3 1 3 0 4-2 6-3 4-8 5-13 6-6 0-11-2-14-6-4-3-6-7-6-11 0-7 4-13 8-18 1 0 3-2 3-3l-6 3c-3 3-5 8-7 11 0 2 0 4-1 5l-1-1c0-5 1-10 5-14 6-5 17-9 26-8 1 0 2 0 4 1v1h-5c-5 0-13 1-16 5v1h1c-1 2 0 5 1 7 1 1 2 2 3 2 3 1 6 0 8 0h14c6 1 12 3 18 5 20 6 38 13 56 23 2 1 6 3 9 2v-2l2-3z"></path><path d="M667 194c1 0 2 1 3 2l-5 3v-2l2-3z" class="B"></path><path d="M830 496c7 6 13 9 23 8s17-5 25-12c1 6 0 13 0 19v18c1 6 1 11 4 17 1-4 1-9 1-14 1-18-1-38 3-56 1 10 1 20 1 31v31l-2 23c-3-10-9-19-19-23-6-3-16-6-23-4-2 1-3 2-4 3l-4 4c-4 4-6 8-9 13 1-5 2-10 5-14 7-11 18-11 30-10 2 0 6 0 8-1 1 0 2 0 2-1-3-1-7-1-11-2-8-1-15-2-23-2-14-1-27 0-40-3 4-1 8 0 12-1l27-1c13 1 25 2 37-1l-33-2c-13 0-28 1-41-3 6-1 12 0 18-1l41-1c5-1 10-1 15-2l-26-2c-4 0-13 1-15-1v-1l11 1h-1l-13-6-2 7h-14c-1 0 0 0-1-1l1-2h3 3 4c2 0 3-6 5-7 0-1 1-1 2-1zM483 862c5-2 9-4 11-10 1-4 1-12 0-16h-1c-2 7-4 12-10 18-13-1-27-4-39-8l-18-4c-13-4-26-8-38-13l-10-5c-1 0-2-1-4-1l-2 2-1 1c1 2 6 4 8 5l37 14c1 7 3 14 6 20-2-2-4-4-5-7l-6-9c-3-3-8-5-12-7l-18-7c-4-2-9-4-14-4-3-1-5 0-8 1-6 1-13 2-20 0 3-1 9 0 12 0 6-1 13-3 18-6 2-2 4-4 5-6 4-5 8-10 10-16 0-2 1-7 3-9 1 1 1 1 2 3 0 7-8 18-12 24 21 8 42 16 64 21 10 3 25 6 35 2 3-2 5-4 7-7v-3c-1-2-1-2-2-3-1 1-2 1-2 2-3 4-7 7-12 8-7 2-18 1-24-3-3-3-6-7-7-11 0-4 1-9 4-13 3-3 8-7 13-8l8 1c-7 2-14 7-17 14-2 4-2 7 0 11 1 3 4 6 8 7 3 1 8 1 11 0 3-2 5-5 6-8 0-2 1-4 0-6-1-1-2-2-3-2-2 0-2 0-4 1 0 3 0 3 2 6l-2 2c-3 1-5 1-8-2-2-1-3-3-3-5 0-3 2-6 4-9 4-3 9-4 14-4 8 0 16 4 21 10 6 6 9 13 9 23v3l-1 1c-1 6-4 11-9 15-4 3-13 6-18 5h-1l-1-1h5c3-1 3-4 5-5 1-1 2-1 4-2z"></path><path d="M463 817c5-1 11-1 15 1s9 6 10 10c0 1 1 3 0 4l-3-3c-1-3-4-4-6-6-5-2-10-3-15-2-2 0-4 2-6 4 0 1 0 4 1 5h-1c-2-1-3-2-4-3 0-1 0-3 1-4 2-3 5-5 8-6z" class="B"></path><path d="M688 212c6-1 8 2 13 5 4-2 8-1 11 0-3 0-5 1-8 1 4 3 6 5 8 8-6 0-14 1-18 6-1 2-2 4-2 6 2 1 2 2 4 2h1c0-2 0-3 2-5 3-3 7-5 11-5 11 0 19 8 27 14 14 12 27 24 40 37 7 8 13 15 20 22 0-2-1-5-1-8 3 0 6 0 9 1 10 2 20 7 26 15-3-1-6-3-9-5-6-3-12-3-18-3 4 6 9 11 13 18 5 9 6 18 9 28 1 4 3 9 5 13 0 2 1 3 3 4 0-1 1-1 1-2 2-2 2-5 2-8 0-9-4-19-7-28l-3-9c0-1-1-2 0-3 3 2 4 5 5 8 4 8 6 17 9 25l2-4c2-6-2-14-4-20l-6-11c5 5 8 9 11 16 2 2 3 5 4 8 1 5-4 14-6 19-2 4-3 9-6 12-1 1-3 1-4 2-2-1-3-3-3-5-2-4-4-10-7-14 0-1-2-3-2-3v-4c1-3 1-6 0-9-2-10-9-19-17-25-3-2-6-3-9-5l-9-6-4 3c-3 2-6 7-7 12v2l-2-2c-1-1-1-3 0-4 1-6 7-12 13-16h0l-21-22c-8-9-18-16-27-23-5-4-10-9-16-11-5-2-11-2-16 0-2 0-4 2-6 3v1c0 1 0 2-1 3h-3c-4 0-7-1-9-4-3-4-1-11-1-15v-1l-1 1c-2 2-4 6-4 9 0 4 1 8 4 11 3 4 8 4 14 4l-3 2c-3 1-5 2-8 1a30.44 30.44 0 0 1-8-8c-3-5-3-13-1-19 1-4 3-10 6-12 1-1 3-2 4-3zM408 566c4 0 7 0 11 1 4 2 8 6 9 10 1 3 1 8-1 11-2 5-6 7-11 9-9 2-17-1-25-6 2 3 4 5 7 7 7 4 16 4 24 2 0 5 1 10 3 15s6 9 9 14c1 1 1 1 1 2-4 4-8 7-14 8-8 3-18 2-26-2-8-5-13-14-15-22-3-10-1-22 4-31s13-15 24-18zM162 447l3-13c-7 10-14 23-12 36 1 8 7 16 13 21 6 4 13 4 20 2 7-1 14-4 19-9 2-2 3-4 5-5-5 9-12 16-23 18-7 2-17 1-24-3-7-5-11-14-12-22-3-14 5-26 12-37 2-3 3-6 5-9 4-5 11-9 17-11 0 0 1 0 1-1 4-7 6-15 9-22 2-6 6-14 6-20 1-5-2-10-3-14s-1-8-2-12c-2-19 3-26 12-41 5-7 11-15 20-18 3-2 7-2 11-2 3-1 5-1 7-2s4-3 6-5l11-11c5-5 12-9 17-14 2-2 4-4 5-7l1-2v-1c1-4 1-12-1-15 0-1-1-1-1-2-4 1-7 4-10 7-14 12-26 26-39 40-3 4-7 9-11 12 4-10 11-19 19-27 9-10 19-19 30-28 4-3 10-7 14-11 3-3 3-6 6-8h1c-1 5-3 9-3 14-1 6 0 13-2 18-1 3-2 6-4 9-6 6-12 11-18 17l-10 11-7 7c-3 1-8 0-11 0-16 1-26 12-34 25-5 10-11 21-7 33 0 3 2 5 3 8 2 4 5 11 9 13 5 3 10 4 14 6 2 0 4 1 5 2-2 1-9-1-11-2h-1c-1 0-2 3-3 4-5 8-9 18-13 28l-15 45c1-6 1-13 3-19 2-8 5-15 8-22l10-24c2-3 7-11 6-15h-3c-4 2-6 7-7 10l-8 17c-3 9-7 17-10 26l-3 15c-1 8-3 16 2 23 2 3 5 4 8 4l9 1c0 6 0 11-5 16-4 4-11 7-17 7s-11-3-15-7c-5-6-5-12-5-19l1-5c-1-1-1-2 0-3 0-1 1-1 1-2v-1c0-1 0-1 1-2v-2z"></path><path d="M162 447l1-1c3-7 4-16 12-19 2 0 4 0 6-1-1 6-6 31-3 36 1 2 2 3 3 4 2 1 6 3 7 4-2 2-4 2-7 2-2 0-5-1-6-3-4-6-3-15-2-21 0-5 3-12 2-16-1 0-2 0-3 1s-1 2-2 4v1h0c1-1 2-2 2-3l2-2v1 2h0c0 2-1 5-1 7l-2 13c-1 3-2 6-2 9 1 1 1 4 1 6 1 2 6 5 6 6l-2 1c6 3 11 2 17 2-4 3-9 5-15 4-5-1-11-6-13-10s-3-10-1-15v-1c0-1-1-1-1-1h-1c-1-1-1-2 0-3 0-1 1-1 1-2v-1c0-1 0-1 1-2v-2z" class="C"></path><path d="M557 516h2l1 1-1 162h-18-2c-1-5 0-12 0-17v-35-75-35l18-1z"></path><path d="M549 519l9-1v160h-10-8V519h9z" class="E"></path><path d="M725 556c-2-8-8-16-15-20l-7-3c4-2 8-3 12-1 11 4 20 17 24 27 3 6 4 13 5 19 3 14 4 28 2 43 0 7-1 15-4 21-2 5-5 8-9 11 3 1 7 2 9 3-1 2-1 2-2 3h-1c0-1 1-1 1-2h0c-1 0-2 2-3 1-2 0-4-1-6-2-7-3-15-10-20-17-6-9-11-21-12-32 5 4 10 9 16 9s12-3 16-7c6-6 8-13 10-21-4 7-9 14-17 16-6 1-12 1-17-2-5-4-8-9-9-15-2-9-1-19 0-28v-19c9 2 16 5 22 12l3 6s0 2 1 2h0c1 1 1 0 1 1v1c1 1 1 2 1 2v3c1-1 1-2 0-3 0-1-1-4 0-5h-1v-3z"></path><path d="M725 556c3 7 3 14 3 21 0 2 0 5-1 7h0c0-8-1-16-3-24h0c1 1 1 0 1 1v1c1 1 1 2 1 2v3c1-1 1-2 0-3 0-1-1-4 0-5h-1v-3z" class="C"></path><path d="M317 265c-1-2-3-3-4-5l6-6c4 5 7 9 14 11 1 0 1-1 2-2v-1c-6-4-12-9-13-17-1-4 0-9 2-13 2-3 6-5 10-5 4-1 9 0 12 2s4 5 5 8v2h1c1-1 2-1 2-3 0-4-3-9-7-11-7-6-15-4-23-4 4-4 7-7 13-7h6c2 0 4-3 6-3 6 1 13 2 16 8 4 4 5 9 4 14-2 7-6 14-12 17-4 3-7 4-12 3-2-1-5-2-7-4v-1l2-2c1 0 1 0 2 1 3 2 6 3 9 2 4 0 8-3 11-7 2-3 3-8 2-11s-3-6-5-8c-2-1-5-1-7 0h-1c4 2 7 4 8 8 0 2 0 5-1 7-2 2-4 4-7 4-2 1-4 1-6 0v-4c0-2-1-4-3-6s-5-3-8-3c-3 1-5 2-7 4-3 4-3 8-3 12 1 4 2 7 5 9 4 2 8 4 12 5l-8 9c-5 5-11 10-17 14 2 0 7 1 9 1 0 0 2-1 3-2 4-3 8-6 12-10l18-12 16-12c20-13 43-21 66-27l30-6c8-1 17-2 25-5 2-1 4-2 7-4-1 5-2 12-4 17l-6 9c5-2 9-3 12-8l3 5c1 2 1 3 1 5-1 3-8 4-8 7 2 2 5 4 7 6 3 3 5 7 7 11l5 15v-1c2-4 3-7 5-11 2-5 4-10 7-14 3-2 6-4 8-6-4-1-8-2-10-6 0-1-1-2 1-4 1-1 2-2 4-2s6 4 9 5c-1-5-3-10-5-15-1-2-3-6-3-8 18 3 36 4 53 8 31 6 58 19 85 36 6 3 12 6 17 10l15 12c3 2 7 6 10 7 2 1 7 0 9-1l-16-13-6-6c0-3 3-5 4-7 3-3 10-9 14-9h2 0c-5 1-11 7-13 11-1 1-2 4-2 6 1 3 11 10 15 12 1 1 4 1 6 0 3-2 7-4 11-6 6 3 9 7 12 13 1 3 1 5 0 7-1 3-4 6-7 8 4 4 10 8 10 15h0c-5-2-9-8-13-12-3-3-6-5-9-8l-5 4c9 8 18 17 26 26 9 10 17 21 24 33 13 25 21 52 28 79 5 17 10 34 11 52 0 2 0 3-1 4-3 0-6-1-8-2 0 3 3 10 3 12-2 1-2 1-3 3 0 2 2 2 3 3l-8 1h-1v-4c-1-2-1-6-3-8-1 1-1 1-2 1l-9 11c-10 9-28 9-40 9h-23c-5-1-10-1-15-2-2 0-5-1-6-2 2-3 11-5 15-7l9-6c8-7 13-17 17-26 3-6 5-11 9-16 2-2 4-4 7-6 3-3 7-4 10-7 4-2 6-6 8-9 6-13 5-26 1-40-1 10-2 20-9 29-2 3-6 7-9 10 7-3 11-5 16-11-1 5-2 10-5 14s-6 6-10 8-7 4-10 7c-5 6-7 13-11 20 2-7 1-13 2-20 2-7 5-15 7-22 3-11 5-22 8-32 1-3 3-7 5-9 2-3 6-6 7-9l3-9c-1 0-5 0-6 1-1 0-1 1-2 2v-1c1-2 1-5 1-7 1-4 3-12 0-15 0-2-1-2-3-2-1 0-1 0-2 1-3 3-2 5-2 8-1 0-1-3-2-4-1-9-3-15-8-23-5-7-11-12-20-14 4 3 8 5 11 8 8 9 11 19 14 30l-2-3c-2-2-6-6-10-6-1 0-2 1-4 2 0 5 3 10 6 15 0 0-6-3-7-4h-1c-5-1-11 0-16 3-8 5-10 14-13 23 4-7 8-15 15-20 3-2 8-3 12-2 1 0 2 1 3 2l-6 3c-4 3-4 8-5 13l1-1c4-6 8-9 15-10 1 1 2 2 2 3 3 4 4 10 5 15 2 20-2 39-8 58-2-10-7-22-14-29-6-6-16-7-23-7l-1 1c5 4 13 3 18 6 3 1 7 5 8 9l-7-3c-5-2-12 0-18 2 5 0 10-1 15 0 6 2 11 4 14 9s4 10 4 15c2 8 2 16 0 24-2 10-9 19-18 24-3 2-8 3-11 2-3 0-4-3-5-5 2-2 6-3 9-4 8-5 16-15 18-24 2-8-1-18-5-25v5c1 13 0 24-10 34-5 5-9 6-16 7l-1-85c0-11 1-22 2-33 1-6 2-12 5-17 2-4 5-6 8-8 2-1 4-2 5-3l-1-1c-3-2-4-4-5-7-3-9 1-19 5-26 4-8 12-16 20-19 1-1 3-1 5-2 2 0 3-2 4-3 1-2 1-4 0-5-1-2-2-3-3-3-2-1-4 0-5 1-2 1-2 2-3 4v2c-9 2-19 2-29 2l-30 1h-86-173l-88-1c-5 0-9 0-13-2-1-1-2-1-2-3 3 0 4-3 6-5h0l5-5-8-5z"></path><path d="M361 276l-3 4c-3-1-5-2-7-3 1-1 2-3 3-4 2-2 5-4 8-4-3 2-6 4-7 8l1 1c1-1 3-2 4-3l1 1z" class="B"></path><path d="M432 278c6 0 11-1 15-6 2-1 3-2 4-3-2 4-4 8-9 10-4 1-10 1-14 0l4-1zm-72-3c3-3 7-5 11-4 4 0 7 4 9 7-5-2-12-5-17-3l-2 1-1-1z" class="C"></path><path d="M619 272h2c-1 1-3 2-5 3-5 3-11 3-17 1-1 0-2-1-3-1 1-1 3 0 4-1h9c3 0 7-1 10-2z" class="E"></path><path d="M428 279c-9 0-16-7-22-12 4 1 7 2 11 4 5 3 9 6 14 7h1l-4 1z" class="B"></path><path d="M672 272h5c5 0 15 5 19 9l-8-3c-8-3-17-1-25-1 0-1 4-3 5-4s3-1 4-1zm122 170c2 5 3 11 3 17-1 12-10 21-20 25-6 3-13 5-17 9-2 1-2 3-3 5 0 2 2 5 3 7 1 0 1 0 1 1-2 0-5 0-7-1-1-1-2-3-2-4 0-3 1-6 3-9 8-10 22-10 31-19 4-4 6-10 6-16h-1c-2 3-4 8-7 9-1 1-4 2-5 3 4-10 10-17 15-27z" class="E"></path><path d="M575 226c13-2 26 4 36 11l-5-1c-12-3-22-2-33 4-8 5-13 13-20 19 1-7 2-14 5-21 4-6 10-10 17-12z" class="B"></path><path d="M576 229c3 0 7 0 10 1 0 1-2 1-3 1-7 2-12 5-18 10l-5 4c0-2 1-3 2-5 3-6 8-9 14-11z"></path><path d="M622 246c7 0 16 1 22 4l12 6c3 1 7 1 10 2 6 2 15 5 20 9-9-1-17-5-26-6-23-5-43 4-65 10l-12 2c2-5 4-11 9-14 3-2 8-3 12-3-5 6-9 8-15 12 12-2 22-6 33-9 9-2 18-3 28-3-12-6-24-7-37-7l3-1c2-1 4-1 6-2z" class="B"></path><path d="M406 245c7-1 10 0 16 3-11-1-20 1-31 6h5c3 0 7 0 11 1 5 1 10 4 16 5 6 2 12 3 19 3l-8-12 7 2c6 2 9 10 12 15v1h-9c-11-1-19-4-29-7-10-4-23-5-33-2-6 1-11 4-16 6 5-5 11-9 17-12 7-4 15-8 23-9zm53-19c5-1 10 2 14 5 11 9 16 21 18 35-5-6-10-12-15-17-3-2-5-4-8-6-12-7-27-10-41-6 7-7 23-10 32-11z" class="E"></path><path d="M456 230c3 0 7 0 10 1 6 3 12 9 15 16h-1l-1-1c-3-3-6-6-10-8-4-1-7-3-11-4-1-1-5-1-6-3 2-1 3-1 4-1zM345 486v3c-3 1-7-1-9-2-7-3-12-9-15-16-2-7-2-15-3-22h-1c-3 8-2 20 1 27 4 9 10 15 19 19 2 1 3 1 4 2-12-1-23-8-31-18-13-18-19-42-22-64-2-9-3-18-1-27 1-6 4-16 10-19l1-1h0c4 2 8 2 12 3 3 1 5 2 7 3 1 1 2 2 4 2-3-5-6-10-12-11-1-1-3-1-5-1 5-3 12-4 18-2 6 3 11 7 17 10-4-6-13-14-20-16-7-1-15 2-22 3l1-1c4-3 5-9 5-14-2 0-7-1-9 0-3 3-6 8-9 12 4-13 10-30 22-37 5-4 10-6 15-9-11 3-23 6-29 16-5 8-9 19-12 28h0 0c0-3-1-5-3-6-1-1-1-1-2-1-2 0-4 2-4 3-2 4 0 13 2 16 2 1 3 0 4 0l1 1-2 2h0l-1-1c-1-1-2-1-3 0 0 0-1 0-1 1h-8c2 4 6 8 8 13 3 7 5 14 8 22l12 45c-4-3-7-6-11-8s-8-3-12-5c-9-4-12-12-12-21 4 5 5 13 13 15l1-1c-3-2-5-5-7-8-4-8-3-18-3-26-6 7-9 14-8 23 1 7 4 14 10 19 3 3 7 4 11 6 4 1 8 3 11 5 7 5 10 15 13 22-3-3-5-5-9-7h-1c-3-2-6-2-10-2 2 2 5 2 7 4 3 1 5 3 8 5 8 8 13 18 22 25 5 5 11 9 17 14 3 2 7 3 9 6-11 1-23 0-34 1-17 0-40 4-54-7l-8-9c-1 2-2 4-3 5-4-1-4-2-7-4v-1c0 3 1 7 1 10v1c-3-1-6-2-8-5-3-3 1-9-2-12-3 0-4 0-6 2-3 3-3 8-7 10l-1-1c2-4 5-8 6-12 2-5 2-10 3-15 2-11 3-23 6-34 4-19 10-37 17-55 5-11 11-21 16-31 9-15 18-29 29-41 8-9 17-17 26-25 10 8 20 20 22 34 1 5 1 9-2 13-1 2-3 3-4 4 9 4 14 8 17 17 3 6 4 13 5 20 3 17 4 36 5 54 0 5 0 12-2 17-1 3-3 4-2 8 0 1 2 3 3 4 3 1 5 1 8 0 2-1 4-4 5-7 2-5 2-10 2-16 0-5 1-10 2-15l6-18c10-27 29-55 54-70 14-8 29-10 46-9v92 143 75c0 14 1 30-1 45-2 12-7 24-15 32-11 12-26 18-42 18-4 0-7 0-11-1-2 0-4-2-6-2-1 0-3 0-4 1-1 2-2 3-2 5 1 1 1 2 2 3 2 2 5 2 7 2h2c0 2 1 5 2 7 2 0 4 0 5-1 2-1 2-3 4-5 5-3 13-4 18-4h112 34c8 0 17 0 25 1 6 1 12 2 17 7 2 2 3 3 6 4 1 0 3 0 4-1 1-2 2-6 2-8h1c3 0 6 1 8-1 1-1 2-2 2-4 0-1 0-3-1-4s-2-2-4-2c-4 0-7 3-11 3-17 1-34-4-47-16-12-12-17-29-17-46V328c20-1 39 0 56 10 7 3 13 8 18 13 30 26 42 67 44 106l1 29c-2 1-5 1-7 2-1 1-1 4-1 6 1 2 4 4 5 5-3 1-6 3-7 6-1 1-1 3 0 5s2 3 4 4h0c-2 2-7 1-10 1-14 0-29 0-43-4-5-1-10-3-15-5 3 3 6 4 10 6l-1 1c-2-1-5-2-7-3-1-1-2-2-3-4-2-2-4-2-7-3 0-2-1-5 0-8v-1c1-5 6-9 10-13-4 1-8 1-11 5-4 6-4 13-5 20l-2-3c0-1-1-2-2-3-2 1-2 1-3 2 0 3 1 5 2 7-3 0-8 1-10 3 0 1-1 2-1 4 1 2 3 3 5 3 3 1 7 2 10 3-4 1-8 0-11 3-1 1-1 2-1 3 0 0 0 1 1 1 1 1 3-1 4 1 0 1 1 2 1 2 4 1 7-2 11-2-3 3-6 5-6 9 0 2 2 6 4 7 0 1 1 1 2 2l1-1c-2-5-3-10 1-15 1-1 2-2 3-2 1 1 1 4 2 4 1-2 3-4 4-6 6-4 13-5 20-6l44-2-1 1c0 2 0 4 1 6 2 2 4 2 6 4-2 1-5 3-6 5v3c2 2 3 2 5 2h3c1 23 1 54-16 71l-2 2c0-15-3-27-13-37-5-5-9-8-15-10 7-2 14-3 20 0 5 2 9 7 10 12 2 7 1 16 2 24 4-9 6-17 2-26-3-7-7-12-13-15-8-4-22 1-30 4-7 3-12 7-15 14-2 4-2 8-3 11 0 9 2 18 3 26v12c0 2 0 5 1 7 1 1 2 2 3 2v-1c-2-6-1-9 2-14 3-6 5-11 3-18l-1-5c6 5 13 8 21 7 3 0 5-1 7-2-10 0-20-1-27-9-3-2-6-6-6-11 0-4 2-7 5-10s7-4 11-4c8 1 14 5 19 11 4 6 6 11 8 18 2 11 1 24-5 33-5 7-11 11-19 13-8 1-16 0-23-4-3-2-5-5-7-8-11-13-15-28-18-44l-2-17c-1 5-2 11-1 17 0 5 2 11 3 16 3 9 6 18 11 26 2 4 6 7 10 12-4-2-9-4-13-2-3 1-5 4-6 7-1 2-1 5 0 8h0v-1c1-4 2-7 5-9 2-1 5-1 8-1l9 3c7 3 14 4 21 3 2 0 5-1 7-1 1-1 3-2 5-2-3 15-3 33 6 47 5 7 13 11 22 13 11 2 28 1 37-5l4-3c-2 0-4 1-5 1l-9 3c-14 3-37 1-46-11-2-3-4-7-4-11h1c4 3 8 9 13 11 3 1 5 1 8 1-4-3-7-5-10-8-7-6-13-16-14-25-1-5 1-14 4-18 4-4 7-7 10-12 2 8 5 18 10 24 2 3 5 5 8 7l34 20c-4-7-8-20-16-23-11-4-22 0-28-13-3-8-5-18-4-26 4-5 9-9 13-15 6-10 7-24 8-36 1-9 2-19 1-27v-2h0l4-1v1 1c-1 7-1 16-1 23-2 27-4 55 12 78a79.93 79.93 0 0 0 13 13c4 3 8 5 12 7-2 4-5 8-7 13l7 1c-3 7-7 11-12 16l6-3c5-3 10-9 14-15-3 13-2 28-15 36-14 9-30 9-46 8 2 2 4 5 6 8 3 5 5 10 12 11v-1c-4-2-6-6-8-11 3-2 9-2 12-3 7-2 14-3 20-6 11-5 17-13 19-24 2-8 2-15 5-21 0 2 1 3 2 5 1 1 1 1 3 2 0-1 0-1 1-1 3-2 3-10 3-13h3c2 0 4 0 6-2 0-3-2-5-3-7l-3-2v-1c2-1 4-1 5-1h1c-1-3-3-5-4-8-2-5-3-11-4-17l-6-46c-3-19-8-39-24-51-5-4-11-7-16-10 6 1 13 0 19 0h30c8 1 19 2 27 6 3 2 6 4 9 7h0l1-3h0c2 1 3 1 5 1 2-1 0-2 1-4l2-1c1 0 2 1 2 1 1 0 1 6 3 7 1 1 1 0 1 1-3 2-5 5-7 8 5-1 10-2 15-5h0v1c0 2-1 5-1 8l-4 16c-9 40-26 78-47 114-13 20-27 39-45 55-9 8-19 15-29 21-8 6-16 12-25 18-20 12-44 21-67 27l-29 5c-11 3-23 6-35 5 1-6 4-11 7-17-4-2-8-2-11-6 0-2 1-2 2-3 1-2-1-4-2-6-5-8-8-15-12-23-2 6-4 12-7 18-2 3-8 7-8 10 0 1 0 1 1 2l3 1c1 0 1 1 1 2s-1 3-2 4h-4c-3-1-4-3-5-6v1h0c-2 10 1 17 4 26-16-6-33-9-49-13-16-3-31-7-46-12-9-4-19-8-27-13-7-4-13-8-19-12l-17-12c-12-9-22-18-32-28-10-9-21-20-30-31-10-13-19-27-27-42-7-11-13-23-17-35s-8-24-11-36c-2-9-3-20-6-29-1-1-2-2-3-4h0c0-2 1-5 3-7h1c2-1 3 0 5-1v-2c3-1 9-3 11-2l1 2c2-1 5-3 7-5s5-3 8-4c9-3 19-4 29-5l48-1h0c-5 3-9 6-14 9-16 15-22 35-28 55l-5 23-3 22c-2 7-2 15-6 21l-3 3 7 2c-2 3-6 6-6 9 0 2 0 3 1 3 1 1 2 1 2 1l3-1h1c0 5 0 11 5 15l1 1c2-2 1-3 2-5 0-2 0-2 1-3l1-1c1 2 2 5 2 8 1 4 2 8 4 12 1 3 3 6 5 10l-7-32c2 1 3 3 4 5 2 2 3 5 5 6l3-3c0-4-4-8-7-11 10-1 18-6 25-14 14-16 23-38 26-58 1-7 1-14 3-21 3 9 5 19 10 27 2 4 5 9 8 13 0 1 2 3 2 3 1 6-1 14-3 19-2 4-4 8-8 11-3 2-7 4-11 6-7 3-15 8-20 15-3 3-4 8-4 12l18-14c5-3 10-6 14-9 9-8 16-18 17-30l1-7c7 14 14 30 9 45-5 13-17 23-29 29 11-2 18-7 26-14-2 3-4 7-6 11-5 7-12 13-20 16s-16 3-23 5c9 3 19 1 28-3 13-7 22-17 27-31 3-9 4-19 3-29 0-3-1-7-1-10 13 6 24 9 39 3 6-2 15-9 22-6 4 2 6 6 9 9 1-1 0-3 0-4 0-4-3-7-5-9-4-2-8-2-11-1-2 0-4 1-6 2l9-9c8-10 13-24 14-37 0-5 0-9-1-14-1 5-1 10-2 15-2 15-9 31-21 41h-1c-2-7-3-13-4-20v-16c0-6 0-12-2-18s-6-10-11-14c-7-5-15-7-23-10l-12-5c2 3 5 5 7 7-7 2-13 4-17 10-5 7-6 16-5 24l2 10c1 4 1 9 2 13-8-11-14-22-17-36l-3-17c0-5 0-14-2-17h-1c-1 6 0 14 0 20 0 2 1 5 0 7-1-6-2-12-2-17-1-3 0-8-1-10v-2h-2c-2 3 0 14 0 17 1 11 4 26-3 35-5 6-16 10-23 11-9 0-15-3-21-7 4 9 11 17 21 20 5 1 10 1 15-2 2-1 4-3 7-5-1 3-2 8-3 11-5 13-13 28-23 37-3 3-7 5-11 5-3 0-5-1-7-3l-2-2c3-1 6-2 8-4 1-2 1-5 1-7h-1-1c-2 2-4 3-6 3-2-1-4-3-5-4-2-7-2-14-3-21 1-22 3-45 13-66 5-10 16-23 28-27 3-1 8-2 11 0 0 0 1 0 0 1 0 0-8 4-9 5-6 5-11 12-13 20-2 4-2 9 0 13h1l2-7c2-9 7-16 15-21 4-2 10-3 14-1h1c4 2 6 3 9 7 1 1 2 3 3 4-1-7-2-12-6-18l1-1 2-1c2-1 3-2 4-4 0-3-1-4-2-7h0c18 0 37-1 55 4 3 1 6 2 8 3s5 5 6 5l1-3h1c1 0 2 0 3 1 2 2 4 5 4 8 1 4-2 8-4 11 2-1 5-3 7-5 3-4 2-9 2-14 2 1 5 2 7 1 2 0 3-2 4-3-1-3-6-6-9-8l6-1c3 0 5-1 6-3 0-2 0-2-2-3-1-1-3-2-5-1h0l1 2h0c-2 1-4 1-5 0h-1c2-3 3-3 6-4 1-1 3-3 4-5 0-1-1-2-1-2-4-4-7-1-10-2-3 0-3-8-4-10 0-2-1-3-1-4-3-4-8-4-12-5 3 3 6 5 8 8 0 2 0 5-1 7 0 1 0 0-1 1l-2-2c-2 1-2 4-2 6l-3 3v1c-5 2-11 4-16 5-18 4-37 3-55 3 2-1 4-1 5-3 2-2 2-4 2-6-1-4-4-5-7-7 2-5 4-9 6-14-5 2-6 5-11 6l-1-2h-1v1c0-1 0-1-1-1v-1c1-1 1-2 0-3h0v5c-1 1-2 1-3 0 0-1 0-2-1-3v3h0c0-1 0-2-1-3z"></path><path d="M325 391h1c2 0 2 0 3 1s1 2 1 3l-2 2-2 1c-2-1-2-1-2-3s0-3 1-4zM222 537c2-1 3 0 5-1v-2l1 1c0 2 3 4 4 6h0c-3 1-5 1-7-1l-3-3zm475 200h0c7 0 10-8 16-8v1c-4 4-10 8-16 8h0v-1z" class="B"></path><path d="M662 765h1 1c-1 1-2 2-3 2-5 4-10 5-16 4-1 0-1 0-2-1 3-1 5 0 8-1 3 0 8-3 11-4zM350 484c1-7 1-14 3-21h1c1 2 0 5 0 8-1 5-1 12-2 17h0-1v1c0-1 0-1-1-1v-1c1-1 1-2 0-3zm291 178c1 0 0 0 1 1-3 8-4 17-5 26-1-5-1-9-1-14s2-10 5-13zM348 454v1c1 3-1 5 0 8 0-1 0-2 1-3v-1-1-1c1-1 0-1 1-1h0c-2 8-2 16-3 24 0 2 0 5-1 6v3h0c0-1 0-2-1-3-1-2 0-4 0-6 0-9 1-17 3-26zm86-104c0-1 1-1 2-1 7 1 14 14 18 19l-6-2c-4-2-5-6-8-9s-9-2-13-2c2-2 4-4 7-5z" class="C"></path><path d="M618 347h4c4 1 7 4 9 6 3 4 6 9 8 14s3 10 7 15 11 8 14 13c-5-2-10-4-13-8-4-3-7-7-9-11-2-5-3-10-5-14-2-5-6-10-11-12h-6c-1 1-1 3-2 4 1 3 2 5 3 7-2-1-5-3-6-5s-1-4 0-6c2-2 4-3 7-3zM358 720h24l-1 2c-3 4-7 8-13 8-2 0-4 0-6-1 1-2 4-3 6-5v-1c-5-1-12 1-17 2l-14 2v1c4 2 9 4 14 5 3 0 7 0 10 1l-5 2c-2 0-5 0-7-1-8-1-14-4-21-9l30-6zm-87-144v1c-3 7-6 15-8 23-2 6-1 15-3 21-3-11-1-21 2-32-6 6-8 14-9 22 0 6 2 11 5 16 1 2 3 4 4 7-4-3-7-6-9-10-4-6-5-13-3-19 3-12 10-23 21-29z" class="B"></path><path d="M762 584l5 2c8 5 16 12 19 22 1 4 1 9-1 13-1 1-3 3-3 4v-14h0l-1-2c-1-6-5-10-10-14l3 6 2 7c2 7 2 16 0 23-1 3-3 6-5 9 2-7 3-15 2-22 0-6-2-12-4-17-3-6-5-11-7-17z" class="C"></path><path d="M608 666c5 10 5 21 13 30l7 7c2 2 10 6 10 8h-2-11c-5-1-10-3-13-8-8-10-6-25-4-37z" class="B"></path><path d="M610 688c2 2 4 6 6 9 3 4 8 7 12 11h-1c-3 1-6-1-9-3-6-4-7-11-8-17z"></path><path d="M681 748h2l-1 1c-5 4-12 7-18 9-11 4-20 8-32 7 7-3 15-4 22-8l-4-1c-15-2-29-3-43 1-2 1-4 1-6 2l2 1 13 1-1 1c-7 3-19 1-26 1 9-11 26-12 39-12 5 0 9 0 14 1 6 1 13 4 19 3 6 0 14-5 20-7z" class="B"></path><path d="M281 526c2 1 3 2 4 3s1 3 1 5c-1 4-2 6-4 9-9 9-22 9-32 16-5 5-6 10-6 17 2-4 5-11 10-13 1-1 1-1 2-1 1 3-3 9-5 12-3 6-6 11-8 18v-1c-4-7-5-20-2-27 5-11 18-13 28-17a19.81 19.81 0 0 0 11-11h1c1-3 1-7 0-10z" class="E"></path><path d="M755 528l-2 4c-2 3-3 6-1 9 2 6 12 8 18 10 4 1 7 2 11 3 5 3 11 7 14 13 3 9 0 19-4 27-1-4-2-9-5-12-2-4-6-7-10-10-3-3-5-5-6-9h0c8 2 14 12 19 18 1-2 2-4 2-5 2-16-15-20-27-22-5-2-11-2-14-7-3-3-3-7-2-10 0-4 4-7 7-9zM391 642c4 1 7 3 10 6 6 8 5 19 9 28 3 6 9 15 16 17 2 1 4 1 6 0 9-4 14-17 17-26l1 7c0 4 0 8-1 11-1 5-3 10-8 13-3 2-8 3-12 2-11-3-20-16-23-27-2-5-2-11-5-16-2-6-7-10-10-15z" class="B"></path><path d="M444 688v1c0 2-1 3-3 5-2 3-4 3-8 3v-1l11-8z"></path><path d="M245 439v10c3 11 14 17 20 25-4-1-8-3-12-6-2-1-7-7-8-7v1c0 3 1 6 4 8 3 4 6 7 11 9 4 1 8 3 12 5 3 1 5 3 8 5l2 4c3 6 2 13 0 19-1-1 0-4-1-5 0-3 0-6-1-9-2-9-11-11-19-14-4-2-7-4-11-6-5-3-9-8-11-14-2-10 1-17 6-25zm97 299c4 1 9 4 13 6 6 2 12 4 18 5 20 4 39-1 59 0 9 1 17 3 26 6h-1c-3 3-7 6-11 7-5 3-12 1-17 1 5-4 12-6 18-8-8-2-16-3-25-3s-17 2-26 2c-10 0-19-1-29-3 1 5 4 8 8 11 11 5 24 2 35-1-6 5-11 7-18 8-10 0-20-2-25-10-2-3-4-7-7-9s-7-4-10-6-6-4-8-6z" class="B"></path><path d="M542 758c8 8 15 15 26 19 13 5 30 7 44 2 4-1 8-3 11-4-2 2-4 3-6 5-9 4-18 8-27 10-9 3-20 3-28-2-12-7-17-17-20-30z" class="E"></path><path d="M551 773c4 2 7 4 11 6 7 4 15 7 22 8h1l-1 1c-4 1-10 1-14-1-9-2-15-7-19-14z"></path><path d="M348 454c2-8 4-16-2-24-4-5-9-9-16-11-9-2-18 0-26 6-3 2-5 5-8 7 3-9 6-18 15-22 7-4 16-5 24-3 7 3 13 12 16 18 5 10 3 21-1 30v1h0c-1 0 0 0-1 1v1 1 1c-1 1-1 2-1 3-1-3 1-5 0-8v-1z" class="E"></path><path d="M324 410h4c6 1 9 4 12 8l-10-3c-6-1-12-1-18 0 4-2 7-4 12-5z"></path><path d="M491 760h1c-1 6-3 13-7 18-3 6-12 10-19 11-10 2-20 0-30-3-8-2-15-5-22-9l-6-5c7 2 13 6 21 8 24 5 43-8 62-20z" class="B"></path><path d="M483 770v1c-1 3-3 6-6 8-6 6-13 7-21 6h-1c11-4 19-9 28-15z"></path><path d="M402 380h0c1 5-1 10-3 14 5-1 11-1 16-1 7 0 13 1 20 2 5 0 10 1 15-2 3-2 5-5 6-9l1-1h0c1 2 1 3 1 5 0 3-2 6-4 8-5 4-14 3-20 3 9 5 15 11 20 19 7 13 10 31 6 45-1-12-1-24-6-35-4-12-12-22-24-27-10-4-22-5-32 0-9 3-15 11-18 20-3 8-3 17 1 26 4 8 13 18 22 21 5 1 12 0 17-3 4-2 7-5 8-10 1-3 0-8-3-11-2-4-6-6-10-7-8 0-14 4-21 9 4-6 8-10 15-12 6-2 11 0 16 3-1-4-3-7-3-11-1-10 2-15 9-22-2 5-2 10-1 15 1 6 4 11 5 17 3 8 1 16-3 23-7 13-16 16-29 20l-21 6c3-3 6-5 10-8-5-1-11-3-15-8-3-3-6-8-6-13l1-6 6 13c3 6 8 9 14 11 5 1 11 1 15-2h0-2c-3 0-5-1-8-2-3-2-6-5-9-8-7-7-11-14-14-23-2-12 5-28 13-36 3-4 7-7 9-11 3-4 4-8 6-12z" class="B"></path><path d="M425 421l1 1c4 8 8 16 6 25h0c-4-7-8-18-7-26z"></path><path d="M587 383c2 1 3 3 4 4 8 12 25 8 38 6 5-1 10-1 16 0s12 3 18 7c-2-4-4-11-3-16h1c3 10 6 19 11 28l3-9v13l1 18c1 5 0 11 0 16 0 6 0 13-3 18-3 6-10 8-16 10l6 5-14-3c-11-3-21-5-29-14-4-4-5-8-6-13-2-10 0-17 4-25 3-6 6-11 7-17 0-1-1-1 0-2 3 3 3 7 4 11 0 6-2 10-6 15 1-3 2-7 2-11h-1c-4 6-7 14-8 21a30.44 30.44 0 0 1 8-8c5-4 12-4 18-3l1 1c7 2 12 7 15 13-4-4-8-7-14-9s-13-2-18 1c-4 3-6 7-7 11-1 3 0 7 2 11 4 4 10 7 15 8 7 1 13-1 19-5 9-8 16-17 17-29 1-10-1-19-7-27-6-7-15-11-25-12s-20 4-27 11c-11 9-18 23-21 37-1 6-1 12-2 19-1-6-2-10-1-15 0-13 6-27 14-37 4-5 9-10 14-14l-6 1c-5 1-14 1-18-3-4-3-5-8-6-13z" class="B"></path><path d="M671 453c1 0 1 1 1 2 0 5-1 10-4 13-5 5-15 7-21 7v-1c2-1 5-1 7-2 7-4 13-13 17-19z"></path></svg>