<svg xmlns="http://www.w3.org/2000/svg" xmlns:v="https://vecta.io/nano" viewBox="200 103 634 762"><!--oldViewBox="0 0 1024 1022"--><style>.B{fill:#f7efe4}.C{fill:#ede9e5}.D{fill:#080b0c}.E{fill:#020202}</style><path d="M409 247l-2-2c-1-2-2-3-4-4-4-2-7 0-11 1l3-3c3-1 5-2 8-1s5 4 7 7l-1 2z" class="C"></path><path d="M350 649h1c-1 5-3 8-6 12-4 5-9 6-15 6h-1c1-1 0-1 1-1s3 0 4-1c9-3 12-9 16-16z" class="B"></path><path d="M275 549l2-1c2 1 2 3 3 5h-7c-4 1-6 4-8 7 0 1 0 2-1 2h0c-1-2 0-5 1-7 2-4 6-5 10-6z" class="C"></path><path d="M314 609c1 0 1 1 2 1 1 3-1 6-3 9-3 5-9 8-15 10h-1v-1c1-1 3-1 4-2 7-4 11-9 13-17z" class="B"></path><path d="M657 644c2 2 4 5 6 7 5 7 10 10 18 12l1 1c-4 1-9 0-13-2-7-4-10-10-12-18z" class="C"></path><g class="B"><path d="M731 548c2-1 3-1 4 0 4 1 7 3 9 7 2 3 2 7 1 10h-1c-1-4-2-8-5-11s-6-3-9-3c0-1 0-2 1-3zM253 408c2 0 2 3 4 4l6 3c7 2 12 4 15 11 1 2 1 4 0 6-1 0-3-4-4-5-4-5-8-7-14-10l-3-4s-1 0-2-1-2-3-2-4z"></path><path d="M756 408h0 0c0 2-2 4-3 5-2 1-3 3-5 5-2 1-4 1-6 2-5 3-8 6-12 9 0 1 0 1-1 0 0-2 1-3 2-5 4-6 8-7 14-9 2-1 4-1 5-2 2-1 4-4 6-5zM591 224c1-2 4-3 7-4 6-3 10-9 7-15-1-4-4-7-6-9v-1l2 1c3 2 8 6 8 11 1 4 0 8-3 11-3 4-8 6-13 7l-2-1z"></path><path d="M712 349c1 1 1 6 1 7 1 2 1 3 3 5 2 3 7 4 11 5 7 0 10-4 15-8 0 0 1-1 2-1v1l-1 3c-4 4-7 7-13 8-4 1-10 0-14-3-3-2-6-6-7-9 0-4 1-5 3-8zm-416 0h1c0 1 1 1 1 2 1 2 2 4 1 6-1 4-4 8-8 10s-10 3-15 1h0c-5-1-7-3-10-6-1-1-2-2-2-4h0c2 0 4 2 6 4 3 1 6 3 9 3 4 1 9 0 12-3 4-4 5-8 5-13z"></path></g><path d="M384 595h2c1 0 2-1 4-1v23c0 3 0 8-1 11-1 2-3 5-4 6l-1-9c-1-1-3 0-4 0-2 0-4 2-5 4h0c0-2 0-4 2-5s5-2 7-2v-27z" class="C"></path><path d="M557 584c16 14 30 34 35 54-3-4-6-9-9-14-7-12-15-23-25-32l-1-8zm-107 0h0c0 1 1 7 0 8 0 1-3 3-4 4-4 4-8 8-11 13-7 9-14 19-20 29v1-1c0-2 1-6 2-8 7-17 19-33 33-46z" class="B"></path><path d="M575 623c1 1 4 3 4 5 1 2 0 5 0 8v13c0 13 1 27 0 39l-4-4c-2-4 0-55 0-61zm-16-20l4 4c1 2 1 12 1 15l-1 47-4-4v-62z" class="C"></path><path d="M432 622c1 10 0 21 0 32v18c0 2 1 6 0 9 0 2-3 4-4 6h0l-1-1v-8-17-21c0-4 0-8 1-12 0-2 3-4 4-6z" class="B"></path><path d="M449 604v61c-1 2-3 3-5 4v-15-32-10-3l5-5zm110-224c3-1 7 0 10 0 16 0 31 4 45 12a86.97 86.97 0 0 1 27 27c2 3 4 6 5 9-4-4-6-9-10-13-4-5-8-9-13-14v22l-6-6v-10-9c-2-3-8-5-11-7-2 10-1 22-1 33 0 2 0 6-1 8l-1-1c-2-2-2-9-2-12l1-29c-7-4-15-5-22-6v22l-5-5c-1-5-1-12-1-17-3-1-8-1-11 0v6h0c-2 0-3 0-4-1 1-3 0-6 0-9zm-121 0h12c-1 3-1 5-2 8-1 2-1 2-3 3l-1-1v-7l-8 1h-4c-1 0 1 11 0 16 0 1-4 5-5 6l-1-17c0-1 1-4 0-5-7 1-13 3-20 6h-1c0 2 1 30 0 34 0 2 1 5 0 6 0 1-2 3-3 4l-1-42-6 4c-1 1-5 3-5 4-1 1 0 3 0 3v10 4c-1 2-5 5-7 7l1-19c-9 6-15 16-22 24h0c4-8 9-15 14-21 17-18 38-27 62-28z" class="C"></path><path d="M702 378h1c4 11 9 19 15 29 11 20 17 41 19 64h21l-3 5h-33l-22 1-3-6h35c-2-21-8-42-18-61-3-6-8-12-11-18-2-4-2-10-1-14z" class="B"></path><path d="M306 377c1 4 1 8 0 12-2 7-7 13-11 20-10 19-17 40-19 62h34l-2 6-22-1-23 1c-3 0-7 0-10-1 0-1-1-2-1-4h0v-1h19c2-21 8-43 18-62l11-19c2-4 4-9 6-13zm253 306c1 1 4 3 4 4v2 9 57c0 9 0 19 1 27 0 2 0 3 1 4 2 4 5 6 9 7l1-90h0c2 2 3 4 4 6v90c-5-1-11-3-15-7-3-2-4-5-5-8-1-5 0-9 0-14v-20-67z" class="C"></path><path d="M449 683v68 21 11c0 2-2 5-3 7-5 6-12 8-19 9v-8-15c0-21-1-43 1-64 1-3 2-5 4-8v63l1 15c0 4-1 7 0 10 0 1 0 1 1 1 2 0 4-1 6-3 1-1 3-3 3-6 1-3 1-7 1-10v-17-63c0-2 0-5 1-7 0-1 3-3 4-4zm110-278l4 4v61l12 4 1-48 4 4c1 2 0 8 0 11 0 12-1 24 0 35l1 1v1l-1 1c-1 1-1 7-1 9 4 1 8-1 12 0v4h-12v27 11c0 2-3 4-4 5v-34c-3-2-7-3-10-3-2 3-2 39-2 45-1 1-3 1-4 2-1-5 0-10 0-15v-27-98z" class="B"></path><path d="M568 476c1 0 3 0 4 1 2 0 3 1 3 2v12c0 1 0 3-1 5l-1-1-9-3c0-4 0-10 1-13 1-2 1-2 3-3z" class="D"></path><path d="M350 509c1 0 2 0 3 1s1 2 1 3h-5 0c-2 0-4 1-6 2-7 3-13 9-15 16-4 11-1 23 4 32-8-8-11-20-12-31-1-4-1-9-2-14h-41l3 16c11 40 40 80 76 101l7 4v4h-1c-10-5-20-11-29-18-8-6-15-13-21-21-21-24-36-54-40-86h-20l3-6 67 1c1 5 1 10 2 15l3-5c5-8 14-13 23-14zm99-104c1 4 0 8 0 12v26 102s-4-2-5-2v-6-30c0-1 1-7 0-8l-12 3v32c-1-1-3-2-4-3-1-4-1-9-1-13v-26c-2 0-10 1-12 0 0-2 0-3 1-4h11c0-2 1-8 0-10h-1c1-1 1-1 1-2 1-5 0-11 0-17v-29c1-2 3-4 5-6v49l12-3 1-60c0-2 3-4 4-5z" class="B"></path><path d="M436 477c3 0 4-1 6 1 3 3 2 10 1 14-1 2-4 2-6 3l-5 2c0-6-1-13 0-19 1-1 3-1 4-1z" class="E"></path><path d="M654 508c3 0 5 0 8 1 8 3 18 10 22 18v1c1-5 1-10 1-15l68-1 3 6h-20c-1 9-3 19-6 28-8 22-21 42-36 59 2 3 3 7 5 10 3 4 8 7 13 8 1 0 2 0 2 1h0c-1 0-2 1-3 0-6 0-10-2-14-6-2-3-4-6-4-10v-1c-9 10-21 20-32 27-6 3-10 6-16 8h-1v-4l1-1c1-1 3-2 5-3l9-6c25-16 46-41 59-68 6-13 10-27 13-42h-42c-1 17-1 32-13 46 1-3 3-5 4-8 2-6 3-14 2-21h0l-2-4c-3-8-9-14-16-17-3-1-6-2-9-1h-2 0c-1-2 0-3 1-5zm-420-27c1 0 2 0 4 1 4 1 7 4 9 8h71 21 13l1-1v10l-51-1h-53l-3 6c-3 4-8 6-12 6-7 0-10-5-15-9-4-3-18-2-23-2h-1v-7c7-1 13 0 20 0 2 0 4 0 5-1 4-2 6-6 9-8 2-1 3-2 5-2z" class="B"></path><path d="M236 493v-2c-1-1-3-1-3-3 2-1 3-1 4-1 2 1 4 2 5 4s1 6 0 8c-1 1-2 3-4 3-2 1-3 1-6 1l3-1h2 1l1-1c1-1 1-1 1-2l-1 1h-2v-1l1-1v-4c-1-1-1-1-2-1z" class="E"></path><path d="M232 503c0-1 0-1-1-1-2-1-3-3-3-4-1-3 0-5 1-7 2 0 5 2 7 2 1 0 1 0 2 1v4l-1 1v1h2l1-1c0 1 0 1-1 2l-1 1h-1-2l-3 1z" class="D"></path><path d="M772 480h0c2 0 4 0 6 1 4 1 7 5 11 8 5 4 17 3 23 2h1v8c-6-1-12-1-17 0h-7c-1 1-2 3-3 4-2 2-4 5-7 6-4 1-8 1-12-1s-6-5-7-9l-1-1h-53l-53 1v-9c8-1 17 0 25 0h57c8 0 17 0 26-1 3-4 5-7 10-9h1z" class="B"></path><path d="M769 488c2-1 4-1 6-1 2 1 2 1 3 3 2 2 2 4 2 6s0 4-2 5c-2 2-4 2-6 2s-4-1-5-3-2-5-1-7c0-3 1-4 3-5z" class="D"></path><path d="M769 488c2-1 4-1 6-1 2 1 2 1 3 3-1 1-1 3-4 4h0-1c-1 0-2-1-3-2v-3l-1-1z" class="E"></path><path d="M510 88h1c-1 6-1 13-1 19 1 0 0 4 1 4 0 1 1 2 2 2 3 3 7 5 9 10 1 4 1 8-1 12-2 5-6 7-11 8l1 143h-7c-1 0-1 0-2-1V144l-2-1-6-3c-3-3-4-7-3-11 0-7 6-12 11-16 1-8 0-17 0-25h8z" class="B"></path><path d="M506 123h0l1-1c1-1 3-2 4-1 2 0 4 1 6 3 1 2 1 5 0 7 0 2-2 4-4 5-2 2-5 2-8 1s-5-2-6-5c-1-2-1-4 0-7 1-2 2-2 4-3l1 1v1c1 0 0 0 1 1h0v-1l1-1z" class="E"></path><path d="M504 123v1c1 0 0 0 1 1h0v-1l1-1v3c0 1 1 2 3 3 1 0 1 0 3-1 0-1 0-2 1-3h1v2 3c-1 1-2 1-3 1-2 1-4 0-5-1-2-2-2-4-2-7z" class="C"></path><path d="M558 392c9 7 16 15 24 23l58 60c-1-6 0-12 0-18v-6c-1-1-4-3-5-4l-13-15v17c-1-1-4-3-5-5-1-1 0-4 0-6-1-5-1-10-1-15 10 8 18 19 28 27l1 78c5 0 10 1 15 4 3 3 6 7 7 11 0 8-2 16-8 22-10 12-27 15-42 16v-60-54l6 5v102l8-1c3 0 6-1 8-4 3-5 3-10 0-14-2-3-6-5-8-8-1-2-1-5-1-8v1c1 2 2 4 4 5 3 4 8 7 10 12 3 4 1 9 0 13 7-4 13-8 16-15 2-5 2-10 0-15-1-2-3-4-5-5-3-1-6-1-8 0s-3 3-3 5c-1 1-1 2-2 2s-2-1-2-3c-1-1-1-4-1-5v-12-33c0-2 1-6 0-8 0 0-2-2-3-2l-18-17-15-15c-4-4-7-9-12-14l-33-34v-7zm18 168c8 8 16 14 25 19l1-132c0 1 2 3 3 4v3 8l1 119 1 1c3 1 6 3 9 4 9 4 23 10 33 8 23-5 47-31 54-53 1-3 2-7 2-11 1-2 0-6 2-7 1 0 1-1 2 0 1 15-5 30-13 42-9 13-24 26-39 32-5 2-9 3-14 4v45c0 6 0 13 1 19 1 8 4 17 9 23 8 9 17 14 29 15v1 1c-8 0-15-1-22-5-10-6-15-14-18-25-2 3-2 6-4 9-3 8-9 15-15 21v17c0 5 4 11 8 14 0 1 1 1 1 2v1c-2-1-4-3-5-4-2-2-5-3-7-6-1 0-2-2-3-3v-5-13-60h1c1 1 4 6 5 8v3 10 27c8-7 11-14 14-23-3-8-9-14-13-20l-13-19c-1-3-3-6-6-8l1 146c-1-3 0-8-1-11 0-4-1-8-1-11-4-15-12-27-20-39s-16-23-26-33v-7c9 8 17 18 24 28 7 11 14 22 20 33-1-12 0-112 0-112-1-3-4-5-5-7-9-12-18-24-28-34-1-2-11-9-11-11-1-2-1-3 0-5 3 2 6 5 9 7 12 11 22 23 31 36l20 27c7 11 13 22 20 32v-66l-15-4v25c2 0 5 0 7 2 2 1 3 3 4 4h-2c-2-2-3-3-6-3-5 0-2 5-5 7h-1c-1-1-2-3-2-4-1-4-1-8-1-12v-20c-13-6-25-13-36-22l-23-20v-6c9-4 17-8 24-15 3-3 6-6 9-8-2 4-4 8-7 12-1 1-4 4-4 5-1 2-1 4-1 6v13 1l-2-1-1 1z" class="B"></path><path d="M576 560c-5-3-9-6-13-10l12-7v10 4c1 0 2 1 2 2l-1 1z" class="E"></path><path d="M410 245v-1c4-6 9-12 13-18h-1c-6-2-11-5-14-10-2-4-3-10-2-13 1-2 2-4 4-5v1h0c-2 5-2 9 0 14 3 5 9 9 15 11 10-10 19-18 32-25 5-3 11-6 17-8 1 0 7-2 7-3v-21l-1-5h6l-1 121h0c-5-1-9-1-14-1h-17-51c-34 0-71 1-98-21-7-5-12-11-16-19-1-2-2-4-2-6 1-1 1-1 2-1 3 4 4 8 7 12 8 11 22 20 35 24 7-2 11-4 14-10 1-3 2-5 4-7l1-1h0c-2 7-4 14-11 18l-3 1c24 6 48 5 73 5h72v-15l-22 1c-1 2-3 7-5 8h-1c0-3 2-6 3-9h-49l-3 10h-5l2-9c-8-1-18 0-26-1-3-1-6-2-8-3-7-4-15-8-20-14-8-7-15-19-14-30 0-1-1-1 0-2 2 2 3 9 4 12 7 15 23 28 40 32 9 1 18 1 26 1l6-11 1-2z" class="B"></path><path d="M481 227c1 10 0 21 0 30h-18c2-3 4-6 6-10 2-3 5-6 7-9-5 3-8 7-12 11l-6 9-17-1c10-14 23-24 40-30z" class="E"></path><path d="M480 195h1v23 5l-2 1-9 3c-4 2-8 4-12 7-8 5-17 14-22 23h0-25-2l1-2c11-21 27-40 48-51 7-4 14-7 22-9z" class="D"></path><path d="M665 257c2 3 4 8 7 10 2 2 5 3 8 4 14-3 29-13 37-25 1-2 4-10 6-11h2c0 2-1 3-1 5-2 5-4 9-8 13-15 19-40 25-63 27-15 2-30 2-45 2h-47-21c-4 0-9 0-14 1V162h7 0c-2 4-2 7-2 11v15c18 4 35 14 49 26l7 7c1 1 3 3 4 3 3 6 8 11 12 17 4 5 6 11 10 16 7 0 14 1 21 0 11-2 22-8 30-15 6-6 11-13 13-22 1-3 1-6 3-8 1 10-2 20-8 27-7 9-16 14-25 19-4 2-9 4-14 4h-18l3 11-6-1c-1-3-2-7-4-10h-49c1 2 3 5 3 8h-1c-2 0-2 0-3-2l-3-6h-24v15h70c24 0 49 1 74-4-2-2-5-3-6-5-4-3-5-9-6-14l-1-1c1 1 3 2 3 4z" class="B"></path><path d="M532 226h0c17 4 34 17 43 31h-17c-2 0-5-6-6-7-3-5-8-9-13-12l13 19h-21l1-31zm0-33l6 3c30 10 55 33 68 61h-25c-11-16-29-31-49-35h-1l1-29z" class="D"></path><path d="M384 595l-14 4v4 9 53c6-9 11-19 17-28 12-18 26-38 41-54 7-8 15-14 22-21v1 5c0 1-2 2-3 3l-7 6c-10 10-18 21-27 32-2 3-6 8-7 11-1 2-1 6-1 8v20l1 85c3-6 6-12 10-18 8-16 20-33 34-44 0 1 1 5 0 6-1 2-3 3-4 5l-13 15-10 15c-7 9-15 21-18 32s-3 22-4 32c-1-2-1-8-1-11l1-22v-25-92l-30 46c1 9 7 18 13 25v-27c0-4-1-10 0-14 1-3 4-7 6-10v56 15c0 2 0 5-1 7-1 6-7 11-12 14 1-4 5-7 6-11 2-5 1-12 1-17 0-1 1-5 0-5 0-1-2-2-2-2l-4-4c-6-8-8-15-12-23-4 8-9 17-17 22-6 4-16 9-23 7v-1c1-1 4-1 5-1 2 0 4-1 6-2 4-2 8-4 12-7 8-8 14-18 15-30 1-8 0-16 0-23l1-40-5-1c-19-4-35-19-45-34-7-10-13-23-14-35-1-3-1-5 0-8h1c1 1 1 0 1 1 1 13 4 22 11 33 9 15 27 33 45 37 6 2 10 0 16-1 4-1 25-10 26-13v-4-15-75-23-12c1-1 1-3 2-4l1-1-23 23-9 8c-1 1-3 2-3 3-2 1-1 8-1 10v22l-1 17c0 3 1 7-1 10 0 1-1 1-2 1-1-1-2-3-4-4s-6-1-8 0c-2 0-4 2-5 4-1 3-2 8 0 12 3 9 11 14 19 19-1-3-2-5-2-7-2-10 5-14 10-20 2-2 3-4 5-6-1 3-1 5-2 8-3 4-8 7-9 12-1 4 0 8 2 11 3 4 9 4 13 5l1-100c0-3 4-6 6-8v115c-13-1-28-4-38-12-6-6-11-13-11-22 0-4 0-9 4-12 5-6 10-6 17-6v-79l29-27c-1 4-1 9-1 14 0 1 1 4 0 5 0 2-4 5-5 6v-15l1-1-6 5c-3 3-12 13-13 16v6 15l23-24 29-29c10-10 20-21 31-29v8c-6 4-10 10-15 15l-26 25-4 4v9 28 97c6-3 11-6 16-10 2-2 5-3 7-6-1-1-1-3-1-5v-12-5c-1-2-4-5-5-7-2-3-4-7-6-11 3 2 5 6 8 8 7 7 16 12 26 16v6c-13 12-28 23-43 32l-17 10c-2 0-3 1-4 1h-2z" class="B"></path><path d="M432 543l12 7-8 6-7 5c4-5 3-12 3-18z" class="D"></path><path d="M744 263l4 5c-2 2-5 3-7 5-9 6-17 14-24 22-15 18-28 40-32 63-2 9-2 19-2 29v35 35 20 2h-11l1-14c0-9 0-18-1-27-2-19-10-36-24-50-8-7-17-13-27-19-8-4-17-8-26-10-10-2-21-2-31-2h-32c1 5 3 11 3 16 2 13 1 27 1 40v71 228 50c0 9-1 20 1 29v1c5 20 22 28 41 31 4 1 10 1 13 2 2 1 4 3 6 5H408l3-3c6-4 11-3 18-4 4 0 7-1 11-2 18-4 30-17 33-35 1-10 0-20 0-30v-45-224-72c0-13-1-26 0-38 1-7 2-14 5-20h-37c-7 0-13 0-19 1-24 4-47 17-63 34-11 11-20 25-22 41-3 14-1 30-1 45h-12v-17-29-38c0-15 0-30-4-44-6-24-19-44-36-62-6-7-12-13-20-18l5-5 3 4c4 4 10 8 15 11 17 11 35 18 55 22s41 3 62 3h54 162c32 0 66-2 94-18 12-7 21-15 30-24z" class="B"></path></svg>