<svg xmlns="http://www.w3.org/2000/svg" xmlns:v="https://vecta.io/nano" viewBox="171 162 661 736"><!--oldViewBox="0 0 1005 1024"--><g fill="#edebe5"><path d="M344 562h1c1 0 2 0 2 2s0 2-1 3h-2c-1 0-1-1-1-2 0-2 0-2 1-3zm-75-46h2l2 2c0 2 0 2-2 4h-1c-2-1-2-1-3-2l2-4zm62 42h2c1 1 2 1 2 3 0 1-1 2-2 3h-1c-2-1-2-1-2-3-1-1 0-2 1-3zm-64 0l2-1c2 1 2 1 3 2 0 2 0 2-1 4h-2c-2 0-2 0-3-1 0-3 0-3 1-4zm457-3h2c1 1 2 1 2 3s0 1-2 3h-2c-1-1-1-2-2-3 1-2 1-2 2-3zm1-42h3c1 1 1 1 1 3s-1 2-2 3h0c-2 0-2 0-3-1 0-1-1-2-1-2 0-2 1-2 2-3zm-446 4h1c3-1 13 0 15 1l-1 1h-8c-2 0-5 1-7 0v-2zm-1 41c4-1 14-1 17 1l-1 1c-5 1-11 0-15 0h-1v-2zm125-262h1c-1 1-53 16-59 17l-1 1v-1c4-2 9-3 13-5 15-5 30-9 46-12zM220 507c2 4 3 8 4 13 2 5 3 10 3 16 0 11-4 21-8 31l-1 2c1-5 3-10 4-16 1-8 1-16 0-24 0-8-1-15-2-22zm365-163h1c3 0 8 1 11 3 10 4 20 9 28 17 3 3 6 7 9 10 3-1 5-3 8-4h1v2c-1 5-1 10 3 13 4 6 7 6 14 7 0 1 0 1-1 1-5 3-10-3-14-4l-1 1c-1 4 1 9 4 13h0l3 3c4 2 9 2 13 1h1l1 1c-1 0-2 1-2 1-4 2-9 2-13 1-16-5-18-22-24-35-9-17-25-26-42-31z"></path><path d="M404 343v1c-4 2-8 3-12 5-16 8-28 16-35 33-4 7-5 16-10 23-3 5-8 9-14 10-5 1-9 0-13-3v-1l4 1c5 1 8-1 12-4 2-1 3-3 4-4 2-4 2-8 1-12h-1c-2 2-6 6-9 6-2 0-3 0-4-1h0l2-1c3 0 6-1 9-4 5-6 4-11 4-18h1c2 0 3 0 5 2 0 0 2 1 3 1l3-3c13-16 30-25 50-31zm251 330c5-1 9 0 13 2-5-1-10-2-14 1s-8 8-9 13c0 2 0 4 2 5 1 0 3 0 4-1 3-1 6-2 9 0h0c-2 0-4 0-6 1-4 1-8 5-10 9-2 5-1 12 1 16-3-1-6-2-8-3-2 0-3 1-4 1-3 3-6 7-8 9-5 6-10 10-16 13-8 5-17 9-27 11 5-3 10-4 14-6 16-8 28-19 34-36 3-8 4-17 9-24 4-6 9-10 16-11zm-329 1c21-3 25 20 31 35 3 6 7 13 11 18 6 9 14 16 23 21 3 2 6 3 9 5-7-2-14-5-20-9-6-5-12-10-17-15-4-4-8-10-12-12-4-1-7 1-10 3 1-4 2-9 1-14h0c-1-3-2-4-3-6-3-4-6-6-11-6-1 0 0 0-1-1h1c3-1 4-1 7 0 2 1 4 2 6 2v-1c1-1 1-5 0-7-1-4-5-8-8-10-4-2-8-2-12 0h-1v-1c2-1 4-2 6-2zm257-307h3c11 5 19 14 24 24 3 6 4 13 7 19 7 12 16 24 30 28 9 3 19 3 27-1 5-2 10-7 11-13h1c1-4 1-9 1-13l15 8 2 2c-15 6-23 20-40 23-22 3-40-10-50-29-4-9-7-18-12-27s-11-16-19-21zm-175-8h1 0c-11 9-19 23-25 36-4 8-7 16-11 24-5 11-13 19-24 24-5 2-10 3-16 3-8 0-15-2-22-6s-15-10-23-13c-1-1-1-1-2-1l2-3c4-3 9-5 13-8 1 4 1 8 3 12 3 7 9 11 16 14 9 3 20 2 28-2 13-6 22-18 26-31 2-6 3-12 5-18 5-15 15-25 29-31zm248 279c3-1 8-1 11 0 15 4 25 16 39 23-5 4-12 8-18 11 1-6 1-11-2-17-3-7-10-10-17-12-10-3-20-1-29 3-15 9-23 23-28 38l-5 20c-5 15-14 24-28 31 2-3 5-5 7-8 4-5 8-11 11-16 6-10 9-21 13-32 3-8 6-15 12-22 8-11 20-17 34-19zm-326 0c2 0 5 0 8 1 34 6 39 44 52 69 3 7 7 14 12 20 3 4 5 7 8 10-16-9-26-23-33-40l-4-17c-3-10-8-19-16-26-8-8-19-13-30-12-7 0-14 2-19 7-6 6-6 14-6 22-6-3-12-7-17-11 11-5 18-13 28-18 6-3 11-4 17-5zm76-314h5l-34 7c-20 4-39 11-58 19-33 15-64 37-84 68-8 13-14 28-20 42l-2 4v-1c0-4 2-10 4-13 8-23 19-44 36-62 38-42 97-62 153-64zm174-11c8-1 15 0 23 1 28 3 55 11 79 26 34 22 59 56 76 92 4 10 9 21 12 32-2-1-2-4-3-6l-4-11c-5-11-11-22-17-32-11-17-24-33-40-47-23-21-52-37-83-46l-25-6-18-3zm142 89h1c6 7 11 15 16 23 13 21 23 44 29 69l4 20c1 4 1 8 2 12 1 2 2 4 4 5 4 1 16-2 21-3 11-1 21 2 30 7v1c-5 3-12 5-18 5s-11-2-17-3h-15c-3 13-3 27-5 41-3 25-9 50-19 74-22 55-61 99-116 122-17 7-38 13-57 12l23-5c23-6 44-16 63-28 47-30 82-77 93-132 5-24 7-47 7-71 0-14 0-27-2-41-3-30-13-58-28-83l-16-25z"></path><path d="M327 355h1l-3 1c-47 25-85 64-101 115-6 21-8 43-9 66-1 22-1 44 3 65s12 41 22 60c11 22 26 42 44 59 30 30 68 50 108 62v1c-16-3-32-8-47-15l-15-7c-63-32-109-93-119-164-1-7-1-15-2-22v-20c0-4 0-9-1-12-1-2-3-4-5-5-3-1-8 0-11 0-13 1-25 0-37-6 5-2 10-5 15-5 12-2 26 2 37 4 2-9 3-18 5-27 3-18 8-35 15-52 17-36 42-66 77-86 7-5 15-9 23-12zm-34 339c19 23 41 42 69 54 9 5 19 8 29 11h0c-41-7-79-30-104-63-10-13-19-27-26-42-6-14-11-29-9-45 2-11 7-19 9-30 12 2 24 1 36 1v-38l-48-1c-2 0-4 1-5 3-6 7 2 20 3 29-3-7-6-14-8-21-1-4-2-8-2-13-1-3-1-9-2-12-1-1-2-3-3-4a30.44 30.44 0 0 0 8-8l7-9c-2 7-5 12-5 20 0 3 1 6 3 8 1 1 3 2 4 2 5 1 11 0 16 0h33l-1-35c-12 0-24-1-36 1 0-7-2-13-4-19-2-7-3-14-2-21v-1c2-13 9-24 16-36 6-10 13-19 20-28 25-28 57-49 92-63 8-3 17-6 25-6-37 11-73 32-100 61-12 12-23 26-33 40-8 12-17 26-16 40 0 8 2 16 8 21 8 7 20 7 30 7 0-21-5-42-14-60l8 11c3 0 6 3 8 4 8 6 19 12 29 13 17 2 33-7 46-17 6-5 13-11 16-19 0-3 1-5 1-8 1 4 2 11 6 13 5 1 13-10 18-13-2 3-4 5-6 7l-9 13c-13 20-23 41-29 65-2 11-4 22-5 33-1 9 0 18 1 26 2 12 4 24 9 35 8 23 22 43 35 64l-5-5c-4-3-8-5-13-7-2 3-3 7-5 11 0-7-1-13-5-18-11-14-29-23-46-25-19-2-31 6-46 18v-1c7-7 15-14 25-18 18-8 40-1 56 10l9 7c1 1 3 3 5 3 1 1 0 0 1 0h0c1-2-2-5-2-7l-11-19c-4-9-7-18-10-27l-3-15c-2-7-3-21-8-26-1-1-2-2-3-2-5-1-10-1-15-1h-31l-1 17c6 0 12-2 18-1 1 0 1-1 2 0v3h-1c-2 1-6 0-7-1h-12c0 7 1 14 1 20 14 1 29 3 44 2 3 14 14 24 22 36l-15-15c-15-12-32-16-51-17-1 13-3 25-8 38l-6 12c-1 4-5 7-7 10 2-5 5-10 7-15 6-15 6-30 7-46h-4-10 0c-5 1-10 2-14 5-7 5-11 13-12 21-2 13 3 24 8 35 8 18 16 33 28 48z"></path></g><path fill="#090908" d="M291 448h1c2 3 5 5 8 8 7 5 14 10 22 12h1c13 4 28-2 40-9l16-10c3-2 6-4 9-5l1 1c0 2-2 5-3 7l-9 17c-4 9-8 19-11 28l-3 18c-1 7-2 14-7 20-5 1-11 1-16 1h-27-9c-1-12 0-23 0-35l33-1h6c2 1 4 1 5 1 2-13 10-21 17-31 2-2 4-5 6-7-6 4-10 10-15 15-14 15-32 17-52 18-1-13-5-27-10-40-1-2-3-7-3-8z"></path><path d="M345 516h1c2 1 2 1 3 2 0 2 0 2-2 3-1 1-2 1-3 0v-1c-1-1 0-3 1-4zm-15 1h1c1-1 2-1 3 0 1 2 1 3 0 4l-1 1c-2 0-2 0-3-1-1-2-1-3 0-4zm-16 0c3 0 6-1 9 0v3c-3 0-5-1-7-1-4 0-7 0-11-1h0c2-1 7-1 9-1zm388 120c-3-1-6-4-9-6-10-8-23-13-37-12-11 1-22 6-31 12-6 3-12 6-16 11s-4 11-4 17l-5-8c-4 1-9 3-12 6-4 2-7 6-10 10 4-8 9-15 13-23 14-24 26-49 31-76 5-28 3-58-7-84-5-12-11-22-17-32l-20-29c5 2 8 7 12 10 1 2 2 2 4 2 4-3 5-8 7-12 1 5 2 9 5 13 10 13 29 22 45 25 16 2 29-2 42-12 3-3 6-5 9-8 4-2 6-7 9-10-3 6-6 11-8 17-6 15-7 30-8 47 8 0 15 0 22-3 8-4 14-11 16-19 4-11 1-22-4-32-19-42-69-82-113-96-9-3-18-6-28-8-4 0-10 0-14-2 3-1 10 0 14 1 48 5 95 32 125 70l12 16c11 17 18 36 12 56-2 7-5 13-5 21h-37v16l15-1c2 0 5-1 6 0v2c-1 1-18 0-21 0h0l1 18c4 1 53 2 55 1 1-1 2-2 3-4 3-9-3-19-7-27l1 1c5 5 13 13 13 20 0 12-4 24-9 35-1 3-3 7-5 9 2-6 6-12 6-18 0-3 0-6-3-8-1-1-2-2-4-2-6-1-12-1-18-1h-32l-1 16c3 0 18-2 20-1v2l-1 1-19-1v22c12 0 25 0 37-2 0 3-1 6 0 9 0 5 2 9 4 13 1 6 3 11 3 17 1 14-4 27-9 40-7 15-16 29-28 42-24 27-59 45-94 55-8 2-16 4-24 5 0-1 1-1 1-1l11-3c30-7 61-24 85-44 8-7 15-14 22-23 10-13 18-28 24-43 3-8 6-16 7-24 0-9-2-19-8-26-8-10-19-11-31-11 0 16 3 34 10 49l8 18-11-13z" fill="#edebe5"></path><path fill="#090908" d="M703 441c1 1-3 7-3 8-7 15-11 29-12 46-13 0-28-2-40-9-3-1-5-3-8-5-3-3-17-18-19-19 9 12 20 23 23 38l2-1c8-3 18-2 26-1h16l1 35-7 1h-35c-4 0-9 0-12-3-2-3-3-9-4-13l-3-13c-2-7-4-14-7-20l-13-30c-2-3-6-9-5-12 1-1 2 0 4 1 5 3 10 7 16 10 13 8 29 13 44 12 11-1 21-7 28-15 3-3 5-6 8-10z"></path><path d="M645 514h1c1 1 2 1 2 2 0 2 0 2-1 4-2 0-2 0-3-1s-1-1-1-2c0-2 1-2 2-3zm16-1c1 0 1 0 2 1s1 1 1 2c0 2-1 2-2 3h-2c-1-1-1-2-1-3 0-2 0-2 2-3zm10 1h1c2-1 11-1 13 1l-1 1c-3 0-10 2-13 1-1-2 0-2 0-3z" fill="#edebe5"></path><path fill="#090908" d="M681 540h8l-1 38-43 4c-4 14-15 23-23 35h0c5-4 9-10 14-14 15-14 32-20 52-20 2 19 5 35 14 52v2-1c-7-8-18-16-28-19h-1c-4-1-9-1-13-1-16 1-35 10-49 18-2 2-5 4-8 4l-1-1c0-3 3-6 4-9l8-13c7-15 12-32 16-48 1-7 3-20 9-24 2-2 4-2 6-3h20 16z"></path><path d="M644 561c1 0 2 0 3-1l1 2c0 2 0 2-1 4h-1c-2 0-2-1-3-2 0-2 0-2 1-3zm16-5h2c1 1 1 1 2 3-1 2-2 2-3 3h-1c-2-1-2-2-2-3 0-2 1-2 2-3zm11-1c4 0 11 0 15 1v1h-2c-3 0-11 2-14 1 0-1 0-2 1-3zM492 146h0c2 3 2 8 2 11l4 23c0 4 1 8 1 12s-3 8-3 12c-1 3-1 7 1 9s6 3 9 3c10 1 20 0 30 0h58l194 1c-9 4-17 9-24 16-20 18-33 44-34 71-1 13 1 26 0 40l-3-17c-4-15-10-29-21-41-11-11-25-17-40-20-17-4-35-2-52-2h-80-1v12 31 112 205 62c0 13 0 26 1 39s4 26 9 38c9 20 25 36 46 44l25 8c-8 2-17 1-26 1h-46c-8 0-15-1-23 1-4 0-8 2-11 5-3 2-5 4-6 7-3 7-3 15-4 22l-6 43-2-12-5-33c0-5-1-12-3-18-1-3-3-6-6-8-3-3-7-6-11-7h-12-20-73c6-3 12-4 18-6 19-7 36-16 49-30 14-14 22-33 25-53s2-41 2-62v-95-184-122h-78-31-19c-10 2-21 5-30 9-22 12-31 31-36 54-1 6-2 13-4 19v-39c0-19-1-38-10-56-4-10-12-19-21-24-7-5-15-8-23-10l71-1h128 50c9 0 17 1 26 0 3 0 6 0 8-2 3-2 3-2 4-5 0-4-1-8-2-11-1-1-2-3-2-3 0-4 1-10 2-13 2-12 3-24 5-36z" fill="#edebe5"></path><g fill="#090908"><path d="M376 238c1 0 2 0 3 1s1 2 2 4c-1 1-2 1-3 2h-3c-2-2-1-2-1-4s1-2 2-3zm86 1c1-1 2-1 3 0s2 1 2 3 0 2-2 3h-3c-1-1-2-1-2-3s0-2 2-3zm-175-1h3c1 1 2 2 2 3 0 2 0 2-2 4-1 0-2 0-4-1-1-1-1-2-1-3s1-2 2-3zm146 0c1 0 2 0 3 1 1 2 1 2 1 4-1 1-1 2-3 2h-3c-1-2-1-2-1-4 1-2 1-2 3-3zm100 1h4c1 1 1 2 1 4 0 1-1 2-2 3-2 0-2 0-4-1-1-1-1-2-1-4 0-1 1-1 2-2zm-129 0c2-1 3-1 5 0 1 1 1 2 1 4l-2 2c-1 0-2 1-3 0-2-1-2-1-2-3s0-2 1-3zm272 1c1 0 2 0 3 1 1 0 2 2 2 3 0 2-1 2-2 3h-4c-1-1-1-2-1-4 0-1 1-2 2-3zm-331-2c2 0 3 0 4 1s1 2 1 3c0 2 0 2-2 3-1 0-2 0-4-1-1-1-1-1-1-3 1-1 1-2 2-3zm145 113c1-1 2-1 3-1 1 1 2 2 2 3 0 2 0 2-1 4-1 1-2 0-4 0-1 0-1-1-2-2 0-2 1-3 2-4zm0 120h3c2 2 2 2 3 4-1 1-1 2-3 3h-3c-1-1-2-2-2-3 1-2 1-3 2-4zm0-31l1-1c1 0 2 0 3 1s1 2 2 3c-1 2-1 2-3 3h-2c-2-1-2-1-3-3 0-2 1-2 2-3zm129-201h4c1 1 1 2 2 4-1 1-1 2-2 3h-3c-2-1-2-2-3-3 0-2 1-2 2-4zm-29-1c1 0 2 1 3 1 1 2 1 2 1 4-1 1-1 1-3 2-2 0-2 0-3-1s-1-2-1-3c1-2 1-2 3-3zm-272 0h3c1 1 1 2 2 4-1 1-1 2-2 3h-4c-1-1-2-2-2-4 1-2 1-2 3-3zm241 1h3c1 1 1 2 1 4 0 1-1 2-2 3h-2c-1 0-1-1-2-1-1-2-1-2-1-4 1-1 1-1 3-2zm87 1h4c1 1 1 2 1 4 0 1 0 2-2 3h-3c-1-1-2-2-2-4s1-2 2-3z"></path><path d="M491 273c1 0 2 0 3 1s1 2 1 4c0 1-1 2-2 2-2 0-2 1-3 0s-2-2-2-4c1-1 1-2 3-3zm-1 108c2 0 3-1 4 0s1 2 2 4c-1 1-2 2-3 2-1 1-2 1-3 0s-2-1-2-3c1-2 1-2 2-3zm2-139c1 0 1 1 2 1 1 2 2 2 2 4-1 1-2 2-3 2h0c-2 0-3 0-4-1s-1-2-1-3c1-2 2-2 4-3zm-1 55c2 0 2 0 4 1 1 1 1 2 1 3-1 2-2 2-3 3-1 0-2 0-3-1s-2-1-2-3c1-2 1-2 3-3zm0 112c1 0 2 0 3 1s1 2 1 3c0 2-1 2-2 3-2 0-2 1-3 0-2-2-2-2-2-4 1-2 1-2 3-3zm211-169c1 0 2 0 4 1 1 1 1 2 1 4l-2 2h-4c-1-2-1-2-1-4 0-1 1-2 2-3zm-212 82c2 0 3 0 4 1s1 2 2 3c-1 2-1 2-3 3h-3c-1-1-1-2-2-3l2-4z"></path></g></svg>