<svg xmlns="http://www.w3.org/2000/svg" xmlns:v="https://vecta.io/nano" viewBox="153 135 732 719"><!--oldViewBox="0 0 1024 1003"--><style>.B{fill:#eee8e2}</style><path d="M702 377h3v1l-1 3-2 1h-1c0-2 0-3 1-5zm-108 21h1v3c-1 7-5 13-12 18-4 3-8 5-14 4l-1-1c0-2 4-2 5-3 4-1 8-4 11-6 5-5 7-10 10-15zm-164 1c2 1 5 7 7 9 6 8 14 12 24 13v1l-1 1c-3 1-8 1-11 0-7-3-17-12-19-20-1-1-1-2 0-4zm214-3h1c0 4-2 8-3 11-1 8 2 16 7 21 2 2 4 3 6 5l-1 1-1 1c-4-1-6-3-8-5-5-6-6-13-6-20 0-6 1-10 5-14zM451 279h14l-6 3c2 6 3 9 9 10 1 1 2 1 3 1v1h-1c-11 1-9-6-15-12h-2c-5 1-10 8-13 12-3 3-6 3-10 4 3-3 7-3 8-7 0-4-1-5-3-8-4-1-10 1-14 2 6-4 10-5 17-6 2 1 3 5 3 7 3-3 6-5 10-7zm141-56l2-1c2 1 3 3 5 4-19 4-38 10-54 21l-5 4c2-4 4-8 7-11s8-5 12-7c10-4 22-7 33-10zm-3 55c7 0 12 1 19 6-5-1-9-4-14-2-2 1-3 4-4 6 0 1 0 3 1 5s3 3 5 3c1 1 2 1 3 1v1c-9 3-15-10-24-12h0c-6-1-5 7-11 9-2 0-4 1-6 0v-1c2-1 5-1 6-2 3-2 4-5 4-7-1-4-6-2-9-4 1 0 1 0 2-1 8-1 18 2 25 7l3-9zm162 97c1 1 2 2 3 4 1 3 0 8-1 11-2 10-3 20-7 30-3 8-6 13-14 17h-2c-1-1 0-1 1-2 4-4 6-8 9-13 7-15 9-30 11-47zm-473 2c1 2 1 7 1 10 2 8 3 17 5 25 2 6 4 12 7 16 3 3 6 6 9 8h0-3c-2 0-5 0-7-2-6-3-9-17-11-23l-3-19c-1-2-2-5-1-8 0-2 1-5 3-7zm332 1h1c1 1-2 6-2 8v6c1 10 7 18 17 22 2 1 4 1 5 2s1 2 1 3c-2 1-10-1-12-1-3-1-6-1-8-1-7 1-11 4-15 8-3 5-4 9-4 14l-1-2c-2-5-2-9 1-13 3-8 12-11 19-13-4-8-10-15-8-25 1-3 3-6 6-8zm-196 0c1-1 3 0 4 1 3 2 4 5 5 8 2 10-2 19-7 27v1c3 0 7 0 11 2 5 2 10 8 12 14 1 2-1 5-2 7-1-5-2-9-7-13v-1c-8-5-14-4-23-1-3 1-6 2-9 2l-1-1c0-2-1-7 1-8h0l2 2v1h2c7-3 12-11 15-18 3-9 0-15-3-23zm160 2c2-1 5-1 8 0s6 4 7 7c2 3 1 7 0 10s-4 5-8 7c-2 1-4 1-7 0s-6-3-8-6c-1-3-2-7-1-11 2-4 5-6 9-7z" class="B"></path><path d="M576 384h4c2 1 4 3 4 4 1 3 1 6 0 8s-3 3-5 4h-4c-2-1-4-2-5-5-1-2-1-4 0-6 1-3 3-4 6-5z"></path><path d="M447 379c2 0 4 0 7 1 3 2 5 5 7 8 1 3 0 8-2 11s-5 4-9 6c-3 0-5 0-8-2-3-1-5-4-6-7-1-4-1-8 2-11 2-4 5-5 9-6z" class="B"></path><path d="M446 384h5c2 1 3 3 4 4 1 3 2 5 1 7-1 3-3 4-6 5h-4c-2-1-4-2-5-4s-1-4-1-6c1-3 3-5 6-6z"></path><path d="M708 349h1c4 4 7 7 9 12 7 14 6 29 1 44-5 16-15 29-30 36-20 11-43 11-65 8-7-1-14-2-21-4h18c11 0 22-1 33-3 4-1 9-2 13-4 13-6 25-18 32-31 2-5 4-11 6-16v6c-1 18-11 28-24 40 5-2 11-6 15-10 13-11 19-27 20-44 0-8 0-17-4-25l-5-5c-1-2 0-2 1-4zM584 240c11-1 22 1 32 6 8 4 16 12 19 21 1 4 1 13-2 18h-3c0-4 1-9 0-13-1-8-6-15-13-20-10-6-24-8-35-5-11 2-19 6-27 13-3 3-6 6-8 9 7-4 14-8 23-10 12-4 23-3 34 3 5 3 8 7 11 12 2 5 5 15 3 20-1 2-2 3-3 3h-1v-8c0-7-2-12-6-17-6-6-15-9-24-9-16 0-36 9-46 23l-3 6-3 6c-2 0-3 0-4-1 1-12 5-22 12-31 11-15 26-23 44-26zM320 348h2c0 1 1 3 1 4-5 4-7 7-10 12-6 15-1 31 5 45 5 13 15 23 28 28-3-2-6-5-8-7-8-8-13-18-14-28-1-4 0-7 0-10 3 7 5 14 8 21 8 14 21 24 36 29 9-8 19-21 15-34 0-3-3-7-2-10l1-1c4 4 6 11 7 16 0 12-7 22-15 30 10 3 21 4 32 4h19c-10 2-20 3-30 3-12 1-24 1-35-2-16-3-33-10-42-24-8-11-12-24-13-37 0-6 0-12 1-18 2-9 6-16 14-21zm113-109h8c17 2 31 10 43 23 7 8 16 21 14 33 0 2 0 2-2 3-2-2-3-6-5-9-2-4-6-8-10-11-6-4-12-7-19-10-8-3-16-6-26-5-7 1-14 4-18 10-5 6-6 13-5 20 1 2 1 4 0 5h-1c-2-1-3-2-3-5-2-7 0-15 4-22 4-6 10-11 18-13 16-5 33 2 47 9l-2-2c-10-11-24-18-39-19-11 0-23 1-32 9-5 5-9 11-10 18-1 3-1 6-1 10h-1-1c-1-3-1-5-1-7-1-9 3-18 9-24 9-10 21-12 33-13zm-96 87h17 29 98 140 46 27c-3 6-7 12-9 18-10 24-6 49-5 74h-9c-1-18-6-35-19-48-6-6-14-11-22-14-16-5-33-4-50-4h-40v391c1 19 11 37 24 50 15 12 34 16 53 17l-1 9H411v-9h1c20 0 38-3 53-18 10-10 17-26 19-40 1-6 1-13 1-19v-23-79-279h-38c-25 0-50-1-69 17-10 8-17 21-19 34-1 5-1 10-2 15h-8c1-11 2-21 2-32 0-14-2-28-7-41-2-5-5-9-7-13-1-2-1-4 0-6zm176-225l3 21 9 53 2 13v1c1 1 9 1 10 1 11 1 23 3 34 5 49 10 94 33 131 67 54 50 84 119 87 193l91 18-93 13c-1 13-3 26-6 39-9 33-22 63-41 91-34 48-85 84-142 101-11 3-22 5-33 7v-17c1 0 3-1 5-1 4-1 8-1 12-3V504l-12 7c-2-2-3-5-3-7 5-3 10-7 14-12 4-6 5-11 4-18-2-11-10-18-18-24l2-7c13 5 28 9 42 11l27 2c13 1 25 3 38-1 21-7 41-23 51-43 7-14 9-31 9-47 0-7 0-15-3-22-2-6-7-12-13-14-3-1-5-2-8-3-1-1-1-2-1-3v-1h6c6 1 13 6 16 11 8 11 9 24 9 37 0 8-1 16-2 24-3 13-7 25-15 35-7 10-16 17-26 24l25-9c4-2 8-2 13-4 4-2 8-4 13-6 1 0 3-1 5-1 3 1 7 4 9 6s2 4 2 7c0 7-14 7-19 11v1c2 1 5 1 8 1l17-1c0-3 0-21-1-22s-3-1-4-2c-5-2-9-3-14-6-1-1-3-1-4-3h1c4-2 15 5 20 6l-2-11c-3-18-8-35-15-52-13-34-34-65-60-90-8-8-17-16-26-22-2 9-3 19-6 28l1 1c6 7 13 14 21 15 4 0 7-1 10 0-1 1-3 2-4 2-3 1-9 2-12 1-7-3-12-11-19-14l-3 4c-3 4-7 7-12 7s-9-1-13-4l7 2c3 0 6 0 9-2 8-6 12-20 13-30 0-3 2-14 1-15s-3-2-4-2l-10-6c-28-17-58-28-90-33-10-2-20-3-30-4-1 7-1 14-1 20 3-5 3-10 9-13 3-1 7-1 10 0 2 1 4 3 5 6 2 7-4 10-7 16-2 6-2 12-4 18-4 10-10 18-13 28-1 4-2 8-2 11-1 2-1 4-2 6h-2s-1 0-1-1v-2-8-71-16c-1-5-3-10-5-15-3 5-4 9-5 15-1 8 0 17 1 25v39c0 6 2 31 0 34h-4c-1 0-1 0-1-1v-3l-1-10c0-3-1-6-2-10-2-7-6-14-9-20s-3-13-7-18c-2-4-6-7-9-11 0-1 0-1 1-2 0-3 2-8 5-9 2-2 7-2 10-1 5 2 8 8 10 13 1-6-1-14-2-20-5 0-11 1-17 2-15 2-31 5-45 10 5 4 11 7 16 10l15 8c5 3 11 5 15 9 2 2 2 4 3 6l-39-20c-5-2-12-5-17-8v-2c-4 0-9 2-13 4-16 6-31 14-45 23 0 4 0 7-1 11l-2 17c0 2-1 5-1 7l1 1c3 5 9 12 15 13 4 1 7-1 11-3h0c0 1 0 2-1 2-1 3-4 5-7 5-9 1-16-8-22-14-4 3-7 9-11 12-5 4-11 6-17 5-3 0-5-2-6-3v-1h2c8 1 15 0 20-5 11-10 11-28 12-42-8 4-14 10-21 16-17 14-31 31-44 49-19 28-33 61-40 95l-1 10c-1 2-1 4-1 5 6 2 14-5 19-7l-1 1c-4 7-12 10-19 12l-2 24 22 1c1 0 1 0 2-1-1-2-3-2-4-2-5-1-12-3-15-7-1-2-1-5-1-7 1-3 4-5 7-7 3-1 6-2 10-1 6 1 11 6 17 9 4 1 9 1 14 3 7 2 13 6 20 8l-10-7c-17-13-27-34-30-55-1-7-1-14-1-21-1-14 0-27 9-39 3-4 6-7 11-8 3 0 8 0 10 1v1c-3 2-6 2-9 3-5 2-8 5-11 10-4 9-5 19-5 28 1 13 2 26 6 38 7 20 22 36 41 45 11 6 25 7 38 7l15-2c7-1 14-1 21-2 15-2 30-5 44-10l2 7c-6 4-12 8-16 15-3 5-5 12-3 18 3 9 11 16 18 21l-2 6-14-7v200l20 4v5 12c-44-7-84-24-120-51-48-36-79-86-94-144-4-14-6-28-8-42l-95-14 87-17c1 0 6-1 7-2v-2-10l3-22c8-52 30-99 65-139 49-55 118-87 191-92 1-1 1-3 2-5l2-16 7-40 4-27z" class="B"></path><path d="M280 481h0c0 3-12 6-14 8s-3 4-3 6c0 4 3 6 5 9h-2-2c-2-1-3-1-4-3-1-5-3-12-1-18l21-2zm207-262c1 0 3-1 4 0 2 3 2 7 4 10l6 12c2 3 2 8 2 12 1 3 1 6 1 9l-1-1c-2-6-4-12-7-18-2-3-3-6-5-8-3-5-6-9-6-14 0-2 1-2 2-2zm218 260h13c9 1 15 5 23 8 4 1 9 2 13 4 2 0 3 1 4 3 0 1 0 1-1 2s-1 1-2 1c-2 1-4 0-6 0-5-2-8-5-13-6l-31-12zM537 218h2c1 0 2 1 3 2 1 3-2 7-3 9-6 11-9 22-13 34l-2 6c0-9 0-17 1-25 1-6 5-9 7-14 1-3 1-7 3-10 0-1 1-1 2-2zM303 479h17c-3 2-6 4-9 5-9 3-19 5-27 9h0c-3 2-5 4-8 5-2 0-3 0-5-1-1-1-1-2-1-3 1-2 2-3 4-3 3-2 7-3 10-4 6-3 12-7 19-8zm-31-39c8-1 14 5 21 7l13 4c5 1 9 3 14 4 4 1 9 1 13 3h0-2-20c-5 0-11-1-15-3-4-1-7-3-10-4-5-1-13-1-16-5-1-1-1-2-1-3 1-2 2-3 3-3z"></path><path d="M749 440l4-1c2 1 4 2 4 3 1 1 1 2 1 3-3 3-8 4-12 5-6 2-12 5-18 6-11 2-22 2-33 3-4 0-9 0-13-1 3-1 6-1 9-1 4-1 8-1 12-2 6-1 11-3 17-5s12-3 18-5c4-2 7-4 11-5zM420 664c6 4 12 9 17 14v23l-17-6v-31zm185-2v12 22l-16 5h-1v-23l17-16zm-185-51l14 17c1 0 3 3 3 3 1 2 0 8 0 10v32l-17-15v-47zm185 2v14 30l-17 15v-1-42c1-2 4-4 6-6l11-10zm-239-2c2 6 8 13 12 19 1 1 3 3 3 4 1 2 0 7 0 9v34c-5-2-11-6-15-9v-57zm238-115h0c2 2 1 8 1 11v30l-17 14h0c-1-5-1-11-1-16l1-33 16-6z"></path><path d="M595 524h2 0c0 2-1 4-2 6h-1c-1-1-1-1-2-3 1-2 2-2 3-3z" class="B"></path><path d="M660 613c-1 6 0 12 0 18v38l-16 9h0c-1-9 0-20 0-29v-11c0-1-1-3 0-5 0-2 3-5 5-7l11-13z"></path><path d="M650 653h1c2 0 2 1 3 2s1 2 0 3c-1 0-2 0-3-1s-1-2-1-4z" class="B"></path><path d="M420 495l17 6c1 5 0 12 0 17v39l-11-13c-2-2-5-4-6-6s0-8 0-10v-33z"></path><path d="M427 524h2c1 0 1 0 2 2v4h-3l-1-1v-5z" class="B"></path><path d="M420 544h0l13 15c1 1 3 3 4 5v3 8 50l-13-14c-1-1-3-3-4-5v-3-10-49z"></path><path d="M427 569h1c2 1 3 1 4 2 0 2 0 2-1 4h-1c-1 0-1 0-2-1-1-2-1-3-1-5zm0 25h1c1 0 3 0 4 1 0 2 0 3-1 5h-3c-1-2-1-4-1-6z" class="B"></path><path d="M605 543v63c-5 6-11 12-17 17l-1-65 18-15z"></path><path d="M596 592h1v3c-1 2-1 2-3 4h-2c0-2 1-3 1-5 1-1 1-2 3-2z" class="B"></path><path d="M373 464c2 0 6 3 8 3h1c5 1 11 1 16 0 3 0 16-2 18-1 1 1 3 3 3 5s0 5-1 6-6-1-7-2c-13-4-26 0-39 0h-39-52c-11 1-23 3-33 1-7 0-13-2-20-4 5-2 10-5 15-5 4-1 9-1 14-1h20 67 19 8l2-2zm281 0h1c1 1 2 1 3 1 4 1 8 1 11 1h21 72c7 0 16-1 23 0 4 0 8 2 11 4v1l-9 3c-4 1-8 2-12 2-10 1-22 0-32-1h-28l-31-1h-28c-10 0-20-1-30 0-6 0-11 2-17 3-1 0-1 0-2-1-1-2-1-4 0-6 0-1 2-5 2-5 1 0 11 2 12 2 5 1 11 1 17 1 2 0 6 0 9-1 2 0 5-2 7-3zm-277 30c1-1 3-1 4 0v14c-4 4-9 9-11 15 4-2 8-5 11-9h0v14c-9 12-18 24-30 33-4 4-9 8-15 9-5 1-10 0-14-2-5-3-9-8-10-13-1-4 0-8 1-12 2-10 5-20 11-29 7-9 16-16 27-20-4 3-8 6-11 9-10 8-14 18-16 30 3-4 5-9 8-13 7-11 17-16 29-22v34-1c1-1 4-4 4-5 1-2 0-6 0-9v-20c3-2 9-3 12-3z"></path><path d="M327 538c3-1 6-1 9 0 2 1 5 3 6 6 2 3 2 7 0 10-1 3-3 5-7 7h-7c-3-1-5-3-7-5-1-3-2-7-1-10 1-4 4-6 7-8z" class="B"></path><path d="M332 541c1 0 2 0 3 1 2 1 3 3 3 5 1 3 0 5-1 7-2 2-3 2-5 2h-2c-2-1-4-3-5-4-1-3-1-5 0-7 2-2 4-3 7-4zm312-48c5 0 10 1 16 3v21c0 4-1 8 0 12 1 3 3 6 4 9l1-40c12 4 23 12 30 22 2 4 4 8 6 11 1-1 1-2 0-3-1-16-14-25-25-34 5 2 9 4 13 6l9 7c9 8 13 19 17 30 1 4 2 8 3 13 0 6-2 11-6 16-4 4-9 6-14 6-14 0-28-14-38-24l-13-14c0-1-3-3-3-5-1-3 0-7 0-10v-26z"></path><path d="M646 511c2 1 4 5 6 7 1 2 3 3 2 5h-1c-2 0-6-4-7-7 0-1-1-4 0-5zm46 27c3-1 6-1 9 0s5 4 6 7 1 7 0 10c-2 3-4 4-7 6h-7c-3-1-6-3-8-7-1-2-2-6-1-9 2-4 5-6 8-7z" class="B"></path><path d="M695 541c1 0 2 0 3 1 2 0 3 2 4 3 1 2 1 6 0 8s-3 3-5 3h-4c-2-1-3-3-4-4 0-2 0-5 1-7s3-3 5-4zm-68-49h12v189l-20 10-8 3-1-200 17-2zm-240 0c9-1 19 0 28 2v199l-29-13c-1-3 0-9 0-12v-32-143l1-1zm-29-13c1-1 3 0 5 0s8-1 10 0 5 5 6 6c-15-2-31 0-44 8-14 9-23 23-27 40-2 10-4 25 2 34 3 4 9 7 15 8l1 1h5c7 0 13-3 18-7 13-9 22-21 32-32v91c-1-1-3-4-4-6l-9-10c-2-3-4-7-7-10v62c-27-19-49-42-67-69-9-16-17-32-23-49-4-12-7-24-10-36 3-2 6-4 8-5 4-1 7-1 11-3 5-2 8-7 13-9 6-4 12-5 18-6 8-3 16-6 23-6-5 2-11 5-16 8-17 12-26 30-30 50-1 7-2 14-2 21 0 4 0 10 1 14 1 5 4 10 7 15 5 6 10 12 18 13 3 0 8 1 10-1v-1c-1-1-7-2-9-2-3-2-6-3-9-5-6-5-10-12-11-20-2-16-1-35 6-49 3-7 7-13 12-19 11-14 29-24 47-26z"></path><path d="M273 514c1-1 2-1 3 0v1c0 1 0 3-1 4l-1 1c-1 0-2-1-2-2-1-1 0-3 1-4zm103 48v1c0 3-1 6-3 8h-1l-1-2c0-2 3-5 5-7zm-41 59h2v1l-4 5h-1-1v-4c1-1 2-2 4-2zm15-14c1 0 1 0 2 1-1 2-3 4-5 6h-1c-1-2-1-2-1-4 2-1 3-2 5-3zm-56-108h2 0c-1 5-5 10-7 14-5 12-9 26-11 39h-1c-1-2-2-5-3-7 5-10 7-22 10-34 2-5 5-9 10-12zm69 68h1c1 5 2 10 4 15 2 6 5 11 8 17 0 1 1 3 1 5-4-2-8-10-11-14l-8 8c-5 5-12 5-19 5h0c-3-1-5-1-7-3-3-2-5-5-5-8-1-2 0-3 1-4h1l1 3c1 2 3 4 5 5 3 3 8 4 12 3 6-1 11-5 14-10 0-1 2-3 2-4s-1-3-1-4l-3-10 4-4z" class="B"></path><path d="M660 478c16 0 34 6 46 16 15 14 28 34 28 54 1 20 1 42-21 49-3 1-7 1-9 3v2h1c6 0 11 0 16-3 9-6 16-15 19-27h0c1-6 1-11 1-16 0-8 0-16-2-24-5-18-15-34-31-44-4-3-9-5-14-8h1c3 0 7 2 11 3 9 4 19 6 28 10 8 5 12 11 22 13 3-2 6-5 8-7 1-2 1-5 1-7-4-6-13-8-19-11 1-1 4 0 6 0l18 2c-1 6-1 14-4 20-2 2-6 2-8 3 2 2 5 3 7 4l-11 42c-3 7-6 14-10 21-18 36-46 69-79 92l-1-64c-5 9-13 18-20 26v-89c12 13 35 40 53 39 7 0 15-3 19-8 6-7 6-15 6-23-1-18-7-34-20-46s-31-16-49-16c-2 1-4 1-5 0v-1c3-2 9-4 12-5z"></path><path d="M755 513c0-1 1-1 1 0 1 0 1 0 2 1 0 2 0 3-1 5-2 0-2-1-3-2 0-2 0-2 1-4zm-107 51l3 2c2 2 3 3 3 6h-1c-1 1-1 0-2 0-2-3-2-5-3-8zm41 56h2c1 0 2 1 3 2 1 2 0 3 0 4l-1 1c-1-2-4-4-4-7zm-15-14c1 0 1 0 1 1 2 1 5 1 7 2 0 2-1 2-1 3l-2 2c-2-1-3-2-4-3-1-2-1-3-1-5zm56-108c8 4 14 11 17 19 1 4 2 9 3 13s3 9 3 14c0 1-1 3-1 4l-1 1c-2-3-3-9-4-13-2-6-4-13-6-20-3-6-7-12-11-18zm-70 68l2 2c1 1 3 4 3 5v4c-1 3-2 5-2 8 1 3 2 5 5 7 4 5 9 8 16 8 5 0 10-3 13-7 1-2 1-4 3-5 1 0 1 1 2 2 0 2-1 4-2 6-2 4-6 6-11 7h0-5c-10 0-16-6-23-13-4 6-8 10-14 14 2-4 4-7 6-11 5-9 7-17 7-27z" class="B"></path></svg>