<svg xmlns="http://www.w3.org/2000/svg" xmlns:v="https://vecta.io/nano" viewBox="150 128 764 780"><!--oldViewBox="0 0 1024 1020"--><path d="M604 375h0c2 0 2 0 3 1s1 1 1 2c0 2-1 2-2 3h-2c-1 0-2-1-2-2 0-2 0-2 2-4zm-174 0c1 0 1 0 2 1 2 1 2 1 2 3-1 1-1 1-2 3l-3-1c-1-1-1-1-2-3 1-2 1-2 3-3z" fill="#f0eeea"></path><path d="M729 414c-1-6-2-12-4-18-1-4-3-8-4-11v-5h1c2 3 3 6 4 10l4 17v1-1c-1-1-1-1-1-2v-2c0-1-1-1-1-2v-1c-1 2 0 2 0 4v2c1 1 1 1 1 2v2 3 1zM624 593c1 0 3 0 4 1-1 1-4 2-5 4-6 4-7 9-8 15l-1 2-1-1c-1-3-1-8 1-11 1-5 5-8 10-10z" fill="#fcfaf9"></path><g fill="#f0eeea"><path d="M408 593h5c4 2 8 5 10 9 2 3 2 7 1 11h-1c-2-5-3-11-8-14-2-2-5-3-7-4v-2zm-47-48h0c1 1 2 1 2 2-3 4-8 6-12 7-9 3-16 3-24-1-2-2-2-2-2-3v-1l5 2c11 3 22-2 31-6zm316 0h1l7 4c6 2 15 4 21 3 2-1 5-2 8-3v1 1l-1 2c-2 1-5 2-7 2-9 3-18 0-26-4-1-1-3-3-4-5l1-1zM409 253h8c3 1 6 4 8 6 1 3 1 7 1 10l-2 2c-4-1-2-5-3-8l-3-3-3-1c-5-2-12-1-17 2l-5 2c5-6 9-9 16-10zm214 0c2 0 5 0 8 1 7 1 10 4 14 10-2-2-5-3-8-4v-1c-4-1-6-1-10-1-1 0-2 1-4 1-7 2-5 6-8 11-2 0-1 0-3-1 0-4-1-8 1-11s6-4 10-5zM391 434h2c2 0 5 1 6 3 0 1 1 1 0 2-2 1-4 1-6 1-3 1-5 3-6 7-1 3 0 7 1 9 3 5 6 7 12 9v2c-3 1-5 0-7 0-5-2-9-6-11-10s-3-10-1-14c2-5 6-7 10-9zm250 0c3 0 6 0 9 2 3 3 5 6 5 10 1 4-1 9-4 13-3 5-8 7-14 8l-2-1v-1c3-1 5-2 8-4 3-3 5-6 5-10 1-3 0-7-3-9-2-3-5-2-9-2v-1-2c1-1 3-2 5-3zm128 1c3 0 7 0 10 1 8 2 15 8 19 16s6 18 3 26c-1 4-5 9-9 11-1 1-1 0-2 0v-1s3-3 3-4c2-1 2-3 3-5h1c2-7 1-16-2-22-4-7-10-12-17-14-10-3-19 0-27 5 5-7 10-11 18-13zm-504 0h6c6 1 13 7 16 12-5-3-10-5-16-5-7-1-14 2-20 6-7 7-10 14-10 24 0 3 0 8 1 11 1 2 3 3 3 5l-1 1h-1c-4-4-7-8-7-13-1-11 2-21 8-30 6-7 12-10 21-11zm9 118h1c5-1 9-1 13 3 2 1 2 2 2 4-2 0-6-3-9-3-4-1-10 1-14 4-3 2-6 7-6 11-1 6 0 10 4 15 6 7 16 9 25 10 2 0 5 0 7 1 1 0 1 2 1 3h-1c-6 2-14 3-20 2h0c-3-1-6-2-9-4-5-3-11-9-13-15s-2-13 2-18c4-7 9-11 17-13zm484 0c5-1 9 0 14 2 7 5 10 11 13 19 1 5-2 12-4 16-5 7-12 12-20 13-5 1-11 0-16-1-2 0-4 0-5-1l1-2 1-1 4-1c11 0 21-3 28-11 3-4 4-8 4-12-1-5-3-11-7-14-3-2-8-4-12-3h-1c-3 0-6 2-8 3h-1c0-1 0-1 1-2 1-3 5-4 8-5zm-10 99l1 1v1l-3 14c-6 34-19 73-47 95-3 3-6 6-11 5h0c0-2 4-4 5-6 4-3 8-6 11-10 5-5 9-11 13-17 7-12 11-26 15-39l11-35c1-3 2-7 5-9zm-458 0h1c1 0 2 1 2 2 3 6 5 14 7 21l6 18c6 21 12 42 29 59l10 10c2 2 4 3 6 5l-1 1c-1 1-2 1-3 0-3 0-5-3-7-4-12-10-22-23-29-37-6-14-11-29-15-44l-4-18c-1-4-3-10-2-13zm290-450h1c19 6 38 17 53 30 6 4 25 21 25 28v1c-2 0-4 1-5 0-5-10-15-21-25-26l-1-1c-4-1-9 0-13 1-9 2-17 7-22 16-1 3-2 6-4 8h-1 0c-1-6 3-14 6-18 7-9 17-11 27-12-8-7-18-12-27-17-4-2-9-4-13-7-1-1-1-2-1-3z"></path><path d="M454 202h2v1c0 2-1 3-3 5-4 3-10 5-15 8-7 4-14 8-21 13 7 1 13 2 19 5 7 3 10 8 12 15 1 3 3 9 2 11l-1 1c-3-2-4-8-5-10s-3-4-4-6c-7-9-17-10-28-11-10 1-18 14-24 22-1 2-2 5-5 6-1 0-2-1-3-2 0-2 0-3 1-4 10-21 52-46 73-54zm-45 181c1-1 1-1 2 0 1 2 1 6 3 8 8 12 25 13 38 10 3-1 7-3 9-3l1 2c0 3-4 3-6 4-4 2-8 5-11 7-14 8-16 21-14 36 1 2 2 6 1 9h-1c-4-4-4-13-5-18-4 8-4 20-11 28l-1-1c0-4 2-8 2-12 2-9 4-17 5-26 0-4-1-8-4-11-4-5-10-7-16-7-8-1-18 1-25 5-2 2-5 4-7 6 2-3 4-6 7-9 7-6 18-9 28-8 6 1 13 4 17 9s5 12 5 19v1h1c1 0 1-6 1-7 0-2 1-4 2-6 2-5 8-7 8-12-1-2-3-1-5-2-3 0-6-1-9-2-6-2-12-7-15-13-1-2-1-5 0-7zm216 0c2-1 2-1 3 0v1c1 10-11 17-18 20-3 1-9 1-12 3 1 5 8 8 10 13 1 3 1 6 1 9 0 1 0 3 1 4l1-1v-9c0-3 1-6 3-9 3-5 8-9 14-10 9-3 21-1 30 5 3 2 7 5 7 9v1c-7-6-13-9-21-10s-16 0-22 5c-4 3-6 6-7 11 0 6 1 11 2 16 1 4 6 22 6 24h-2c-4-4-5-12-7-18-1-1-2-4-3-5 0-1 0-1-1-1-1 1-1 3-1 5-1 3-1 6-3 9-1 1-2 0-2 0h-1c0-1 1-6 2-7 1-5 1-11 0-16-2-15-12-20-23-26-3-2-6-3-8-5 0-1 0-1 1-3 3 1 7 3 11 3 11 2 23 1 32-6 5-3 6-6 7-12zm-25 104c12 0 22 3 31 10s17 19 18 31c0 3 0 4-2 7-1-1-1-1-1-2-1-2-1-4-1-6-1-4-2-7-4-10-5-11-14-18-25-21-9-3-18-3-27 1-6 4-10 10-12 17-3 10-2 21 4 30 2 4 5 7 9 10 6 3 12 4 18 3 6-2 11-6 11-13 0-2 0-4 1-6 1-1 1-1 2 0 2 2 2 5 2 7-1 5-3 10-7 13-5 4-12 6-19 5-9-1-16-6-22-13-7-9-9-21-8-32v-1c1-7 4-13 8-19 7-7 14-11 24-11zm-173 0c6 0 12 0 17 2 9 3 15 9 18 17 5 10 6 24 2 34-3 9-10 17-19 20-6 3-14 5-21 2a19.81 19.81 0 0 1-11-11c-1-3-3-8-1-11 2-4 5-5 8-6-2 2-3 4-4 7s0 7 1 9c2 3 6 6 9 6 8 2 15 0 21-5 3-2 5-5 7-8 5-7 7-19 4-28h0c-2-8-6-13-12-17-8-5-17-5-25-3-14 4-26 15-30 29-1 3-1 8-2 10h-1c-1 0-1-1-1-2-1-2 0-5 0-8 2-6 5-13 9-18 7-11 18-17 31-19zm90 319h7l1 25h30l-16 10c-4 4-10 8-12 13-2 4-2 7-3 11l-1 12-5 38h0l-8-55c-3-13-17-21-27-29h10 17l2-24 5-1zm213-399c2 6 3 13 4 19l3 17c12-19 18-37 21-59 3-15 4-31 0-46-2-9-6-18-11-25-4-5-8-9-11-13 10 4 20 15 25 25 5 11 8 26 7 38 0 4-3 8-1 11l1 1c5-4 9-11 16-12l1 1c0 3-4 6-6 8-4 4-10 9-12 14-3 5-4 13-5 18-3 11-8 21-14 30-3 6-6 11-11 16l1 13c0 2-1 4 0 6 2 1 2 2 4 1 2 0 5-2 8-3 4-2 12-4 16-1 2 1 5 3 6 5v2 1c-6-3-12-4-18-2s-12 7-14 12c-4 7-4 15-4 23v5h-1c-1 0-4 1-5 0-1-2-2-19-2-22-3-14-6-29-11-43-2-3-7-12-6-16 1 0 1 0 2 1 6 4 10 21 13 28 2 6 4 11 5 17h1 1c1-1 0-7 0-9 0-18-2-36-4-54v-1-3-2c0-1 0-1-1-2v-2c0-2-1-2 0-4v1c0 1 1 1 1 2v2c0 1 0 1 1 2v1-1zM302 301h1c-1 2-5 5-7 7-7 8-13 17-15 27-3 11-4 22-3 32 1 19 4 37 11 54 3 7 7 15 11 22 3-19 7-37 12-55 1-4 3-9 5-13h1c1 0 1 1 1 2 0 3-2 7-3 10-1 5-3 10-4 15-5 21-7 42-8 63 0 3-2 9-1 12h1c2-2 2-6 3-8l5-14c2-8 5-19 11-25h1c1 3-2 10-3 13l-4 10c-5 19-10 39-12 59h-6v-17c-1-7-3-14-9-18-4-4-12-7-18-5-2 0-4 2-6 2l-1-1c0-1 1-3 2-4 4-5 13-6 18-4 3 2 9 7 12 6 2-2 2-5 2-7v-15c-4-4-6-8-8-13-6-10-12-21-15-33-2-5-2-12-5-17-4-8-11-13-16-20-1-2 0-2 1-3h1c5 2 9 7 13 11h1c2-4-1-8-1-12-1-7 0-16 2-22 5-18 14-31 30-39zm-82 304c4 7 6 15 9 22 4 11 9 22 14 33 33 63 86 115 151 145 15 7 31 13 46 18 12 4 26 7 37 13v1c-16-2-31-4-46-8-56-15-107-50-146-92-25-27-45-59-59-93-2-6-5-13-6-19s-1-13 0-20zm598 4c0 5 3 13 1 18v1c-2 7-5 15-9 22-11 26-25 49-43 71-41 52-101 94-166 110-12 3-25 4-37 6-1 0-1 0-2-1 2-2 7-3 9-4l38-13 27-10c68-29 124-81 159-147 9-17 16-35 23-53zM601 194c3 0 7 1 10 2 21 5 41 14 60 24 73 40 128 108 151 188 4 10 6 21 8 32 0 3 1 7 1 9-1 2-3 4-3 6h-1l-2-3-9-35c-5-17-11-33-18-48-29-63-80-113-141-146-21-11-43-19-65-27 2-1 6-1 9-2zm-167 1l12 1-73 32c-65 36-116 95-142 164-4 12-8 24-11 36-2 8-3 16-5 23l-2 6-5-10c1-12 4-25 8-37 10-36 27-70 50-101 34-46 81-82 134-103 10-5 23-10 34-11zM206 471h1c2 1 5 4 5 5 1 1 1 4 1 5 0 6 1 11 4 17 4 6 10 12 17 14h1c4 1 9 1 14 1h23l56 1v10h-60-17c-3 0-6 0-9 1-4 0-8 3-11 5-9 7-11 20-12 31l-2 26v1l-3 9c-1-7-2-16-4-23-2-5-4-9-6-14-1-5 0-10-1-14l-3-6c-9-12-24-14-37-17l-32-4 53-8c7-1 14-8 18-14 5-8 4-14 3-22 0-2 0-3 1-4zm622 1h1c2 0 5 3 5 5 1 3 1 6 1 9 0 4 2 7 4 10 3 7 9 12 16 15 3 1 7 1 10 2l27 3c5 1 11 1 16 3l-33 4c-6 1-13 2-19 5-8 4-18 10-20 20 0 4 1 7 0 10s-2 6-3 8l-3 11c-2 7-3 14-5 20-1-3-1-7-2-11l-2-24c-1-10-3-22-10-30-4-3-11-6-15-7-3-1-5-1-8-1h-15-65v-11h82c12 0 22-1 30-10 6-6 10-13 9-23 0-2-1-5-1-7v-1zM518 88h0l11 96 18-1 24 19c-12 1-23 5-32 14-5 6-5 11-4 19-3 1-5 1-8 3-1 2-1 5-1 7 0 4 0 6 3 9h1l-2 2c-4 2-7 4-10 7-3-4-7-7-12-9v-1c1 0 3-2 3-2 1-3 0-8 0-11-2-3-5-4-8-5l2-5c0-4-1-10-3-13-8-9-23-14-34-15l16-12c2-2 5-6 8-7h3l14 1 11-96z"></path><path d="M700 414h0c2 0 3 1 4 2 2 10 0 21-1 31-3 19-7 38-15 56-6 14-14 27-24 38l-15 18c-3 3-6 6-7 9s-1 7-2 11c-2 13-2 27-2 40l1 13c0 2 0 5-1 7h-1c0-1-1-1-1-1-1-2-1-7-1-9-2-13-2-25-1-38 0-5 1-9 1-13 0-2 1-3 0-5h-1c-3 2-6 5-9 7l-16 14c-4 4-11 11-11 17 0 7 7 17 13 21 12 12 27 16 44 15 13 0 27-5 35-14 2-2 3-3 2-5-3-6-12-9-18-12-6-4-8-8-9-15 3-16 25-15 38-18 10-2 21-8 28-16 0-1 1-2 1-2 1-1 1-4 1-5 0-7-2-14-2-21v-1c2 0 3-1 4 0 4 10 4 24 3 35 0 13-4 27-8 39-5 18-12 33-25 48-3 4-6 8-10 11-5 5-11 8-17 12-16 12-33 25-45 41-9 12-16 26-23 40-6 11-11 23-18 33-6 7-12 11-18 17 10-1 20-5 29-9 19-9 35-23 47-39 6-9 12-19 17-29l22-37c10-17 20-35 34-49 14-15 35-21 52-32 12-8 22-20 23-35 0-4-2-8-1-12h1c1 1 1 2 2 3 4 6 3 13 1 19-4 21-27 31-43 41l-1 1c0 6 1 13 4 18 3 6 10 13 17 14 2 1 5 0 8 1-1 1-3 2-4 2-5 1-11 0-15-3-10-7-12-19-14-30-5 2-9 5-14 8-20 16-33 40-46 61l-16 27c-7 12-14 25-23 36-7 11-17 20-27 29-9 7-21 14-32 17-4 2-8 2-13 3s-12 2-17 1c-5 0-11-4-14-7-1-2-2-5-1-7 0-1 1-2 2-3 1 0 2 0 3 1 2 2 0 3 0 5 1 2 2 3 4 4 1 1 3 1 4 0 3-1 7-3 10-5 22-15 28-43 40-66 5-10 11-19 18-27 5-6 11-12 18-17l12-9c4-3 13-7 15-12 0-1-1-1-2-1-3-1-7-1-11-1-6-1-11-2-17-4-12-4-22-10-29-21-2-3-3-6-5-8-1-2-4-4-6-6-5-7-8-14-12-21-5 5-9 13-12 19-5 13-8 30-3 43 7 18 36 15 51 11 5-1 9-2 13-3 3-1 8-4 10-2l1 1-1 1c-19 9-41 15-62 10-6-1-12-5-16-11-3-6-4-13-4-20 0-23 10-41 23-59 4-6 8-13 13-18 8-8 18-15 28-23 9-7 18-17 25-26 8-11 15-22 21-33 6-13 10-27 13-41-10-2-19-1-28 4-7 5-12 13-14 21-1 5-1 9-2 13-1-5-2-9-1-14 0-8 5-15 11-21 10-9 22-9 35-8 2-9 3-17 4-26 0-6 0-12 1-19z"></path></g><path fill="#060706" d="M731 574h0 1l-3 15c-4 24-13 48-29 68-3 3-6 7-9 9-10 6-29 4-39 2-11-3-21-10-27-20l8 3c8 3 16 3 25 2 12 0 29-7 37-16 2-3 4-7 3-11 0-2-1-3-3-4-4-5-10-8-15-11-3-2-5-3-8-5-1-1-1-2-1-3 4-9 17-11 25-13 5-1 10-2 15-4 8-3 13-7 20-12z"></path><path fill="#f0eeea" d="M336 301h364c2 0 4 0 5 2 2 2 1 87 1 97-3-18-7-34-21-47-7-8-16-13-26-16-9-2-19-2-28-2h-24-65v266 73 31c0 12 1 25 4 37 4 17 17 29 31 38H455l7-6c12-12 20-27 24-43 6-27 5-54 5-82v-70-244h-69-20c-6 0-12 0-17 1-11 2-21 6-29 14-18 16-22 40-24 63 5 7 6 18 7 27 0 6 1 13 3 19 5-1 11-2 17-1 7 1 16 7 21 13 5 8 8 17 7 26v1c-1 3-2 4-3 6 0-4 1-9 0-14-2-8-7-16-14-22-8-5-17-6-27-4 5 26 14 50 30 70 4 6 9 11 14 16 4 4 8 9 13 13 10 9 22 16 31 26 5 5 7 10 11 15 1 3 3 5 5 8 6 9 11 19 14 30 4 13 5 29-1 41-4 7-10 10-16 12-16 4-34 1-48-5-4-1-7-3-10-5-2 0-2-1-3-2l1-1c3-1 7 2 10 3 4 1 8 3 13 4 12 2 30 4 41-3 5-4 8-9 9-15 4-18-2-36-11-51l-3-4c-3 6-6 12-10 17-2 3-5 6-7 8-1 2-2 3-3 5s-4 5-6 7c-3 3-7 7-11 10-13 9-30 12-47 13 5 5 12 9 18 13a137.47 137.47 0 0 1 38 38c19 27 22 65 52 85 2 1 5 3 7 2s5-3 7-5c-1-2-1-3-1-5 2-1 2-1 4-1l1 1c1 2 1 5 1 6-1 4-5 7-8 8-10 5-21 3-32-1-27-8-51-30-67-53-6-9-12-19-17-28l-18-31c-13-22-33-58-58-66-3 10-4 23-15 30-4 3-11 4-16 2-2 0-2-1-3-2 2-1 7 0 9-1 3 0 6-2 8-3 10-8 11-18 13-29-6-5-14-8-20-13-12-8-23-18-26-32v-1c-1-3-1-5-1-8 1-3 2-7 5-9 0-1 1 0 2 0 0 2 0 4-1 6v8l3 9c1 1 1 3 2 5 1 3 5 6 7 9 10 8 21 15 32 21 9 4 19 8 26 15 13 11 21 26 30 40l24 43c8 13 15 26 24 38 11 15 26 27 43 36 8 5 17 9 27 10l-4-4-6-7c-3-3-6-7-8-11-7-10-11-20-16-31-11-21-24-41-41-58-8-7-17-14-26-21-4-2-8-4-11-7-7-6-13-12-19-20-4-5-8-10-11-17-6-12-10-25-13-39-2-8-3-17-4-25 0-8 0-15 1-23v-9c0-2 0-2 2-3 2 0 3-1 4 0 1 4 0 9-1 13v12c2 3 4 6 7 8 10 9 22 12 35 14 5 1 11 2 16 4 4 2 8 5 9 10 1 2 1 5 0 8-4 9-14 11-22 15-2 1-4 3-5 5-1 1 0 3 0 4 3 6 11 10 17 12 15 6 34 7 48 0 11-5 22-15 26-26 1-3 2-7 0-10-5-9-16-17-24-24-3-3-6-6-10-7-1 1-1 1-1 3-1 4 1 9 1 13 1 12 0 24-1 36-1 2-1 5-1 7-1 2-2 2-3 2s-1 0-1-1v-18c1-14 0-28-1-42 0-3 0-7-2-10-1-2-3-4-4-5l-12-13c-6-7-12-15-18-23-6-11-12-22-16-34-3-9-5-18-7-28-7-37-6-75-6-113v-28c0-6-1-13 1-18 1-2 2-3 4-3z"></path><g fill="#060706"><path d="M506 670s1-1 2-1l1 1c0 2 0 2-1 3h-1-2c0-2 0-2 1-3zm10-151h3v2l-1 1c-1 1-1 1-3 0 0-1 0-1 1-3zm117-212h1c1 1 1 1 2 3 0 1 0 1-2 3h-2l-2-4c1-2 1-2 3-2zm-55 0h2c1 2 1 3 1 5s0 2-2 3h-1-1c-1-2-1-4-1-5 0-2 0-2 2-3zm-192-1c1 0 2 0 3 1 1 2 1 5 0 7 0 1 0 1-1 2-1 0-2 0-3-1 0-1-1-4 0-6 0-2 0-2 1-3zm114 1l1-1 2 2c1 4 1 10 0 14l-2 1c-1 0-1 0-2-1s-1-2-1-4c0-4-1-8 2-11zm-66-1c1 0 2 0 3 1 1 3 1 9 0 12 0 1-1 1-2 2h-2c-2-4-2-9-1-13l2-2zm81 255c4 0 11-1 14 0 1 1 1 1 1 2 0 2 0 2-1 3-4 1-10 1-14 0l-1-1c0-1 0-2 1-4zm2 56h1c3-1 10-1 12 1 0 1 1 2 0 2 0 2-1 2-2 2-3 1-11 1-14-1v-2c1-2 1-2 3-2zm-1 52c3-1 11-1 13 0s2 1 2 2c0 2 0 2-2 3-3 1-12 1-14 0-1-1-1-2-1-3l2-2zm0 47h12c2 0 2 0 3 2 1 1 1 2 0 3 0 1-1 1-2 1-3 0-12 1-14-1 0-1-1-2 0-3 0-1 0-1 1-2zm-10-213c2-1 5-1 7-1 4 0 8 0 12 1 1 1 1 2 1 3l-1 1h-14c-2 0-4 0-6-1 0-2 0-2 1-3z"></path><path d="M507 386h7 11c2 2 1 2 1 4l-1 1h-12-7c-1-2-1-2-1-4l2-1zm-1 59c4-1 8 0 12 0 3 0 6-1 8 1v3h-2c-4 1-17 2-20 0 0-2-1-2 0-4h2zM307 573c2 0 6 4 7 5 3 2 5 4 8 5 5 3 11 5 17 6 8 2 18 3 25 9 2 1 4 3 4 6-2 4-8 6-11 8-5 3-11 6-14 10-2 3-4 5-3 8 0 5 5 9 8 12 14 10 33 13 50 11l10-3c-2 5-6 8-10 11-13 9-31 11-46 7-6-1-10-6-14-11s-8-10-12-17c-9-16-14-35-18-54-1-4-2-9-1-13z"></path></g></svg>