<svg xmlns="http://www.w3.org/2000/svg" xmlns:xlink="http://www.w3.org/1999/xlink" xmlns:v="https://vecta.io/nano" viewBox="132 150 779 778"><!--oldViewBox="0 0 1024 1024"--><style>.B{fill:#201f1f}.C{fill:#0d0d0c}.D{fill:#020101}.E{fill:#272726}.F{fill:#232323}.G{fill:#e6e2dd}.H{fill:#e3ded9}.I{fill:#c6c3bf}.J{fill:#181817}.K{fill:#cdcbc5}.L{fill:#b6b1ad}.M{fill:#ece6dd}.N{fill:#858280}.O{fill:#a49f9b}.P{fill:#464748}</style><path d="M493 568h1 1c0 2 0 2-1 4h-1v-2-2z" class="C"></path><path d="M436 535v-1c0-2 2-4 4-4v-1c1 0 3-1 3-3 1-1 1-2 3-3 1 0 2 0 4 1-1 1-3 2-4 2l-2 2h0c-2 1-3 2-4 3-1 0-3 3-4 4zm17 32v-3c0-1 0-2 2-2l3-3c1-1 4 0 6 0-4 2-8 5-11 8z" class="B"></path><path d="M668 455v4c-1 0-1-7-1-8h0l-1 1c-1-1 0-2-1-3v-2-3h-1c0-2-1-4-2-6v-1c-1-2-1-2-1-4 0 1 0 1 1 2 0 1 0 1 1 2l1 2c0 1 0 1 1 2s1 3 1 4l1-2c1 4 1 8 1 12z" class="C"></path><path d="M439 516c0 1-1 3-1 4l1-1c0 1 0 1-1 2-2 2-3 5-4 8-1 2-1 3-2 4-1-1-1-1-1-2v1c-1 1-1 2-2 3h-1c3-7 7-13 11-19z" class="B"></path><path d="M716 403v5l1 1h0c0-1 0-2 1-3v-2c1-1 1-2 1-3h1 0l-3 10c-1 1-2 2-2 4l-2 2v2l-1-1 4-15z" class="H"></path><path d="M636 461l2 1h0c2 1 3 2 4 4l1 1 3 9c1 1 1 2 1 4l1 1c1 2 1 4 1 6v1c-3-11-7-19-13-27z" class="E"></path><path d="M465 544h1c-1 2-1 2-1 4l-3 2c-1 2-3 3-4 4v2c-2 0-3 1-4 2h0l-1-1h0-1-1l7-6c1-2 2-4 4-4l3-3z" class="F"></path><path d="M720 405l1 1c-3 6-6 12-8 18-1 3-3 6-6 9 0-2 0-3 1-4 1-2 1-4 2-6h0l2-5 1 1v-2l2-2c0-2 1-3 2-4 2-1 3-4 3-6z" class="G"></path><path d="M398 437c9-7 20-14 27-22 0 1 1 2 0 4 0 1-1 2-2 2-1 1-1 0-2 2-5 3-10 6-15 10-1 1-5 2-6 4h0c-1-1-1-1-2 0z" class="H"></path><path d="M647 423h3l1 1c0 1 1 1 1 2l2 2 1 2c2 2 4 6 5 9 0 1 0 0 1 2l1 1v1 2l1 1v1l-1 1c1 1 1 2 1 3h-1c0-1 0-1-1-1-1-3-2-7-3-9-3-7-7-13-11-18z" class="F"></path><path d="M517 644l3-1v-1l2 1-1 1-1 2 1 2h-1c-1 1 0 1-1 2h1c1-1 3-2 4-4l1 1-5 5h0l-6 6h1c-2 1-3 1-5 1h0c3-3 5-10 7-15z" class="K"></path><path d="M450 524c1-1 2-1 3-2 2-2 4-3 5-6v-2l1-1c0 3-1 8-3 10s-6 4-7 6v1c-2 1-5 2-7 4 0-1 1-2 2-3h-1c-2 1-4 2-5 4 0-1 3-3 2-4 1-1 2-2 4-3h0l2-2c1 0 3-1 4-2z" class="E"></path><path d="M520 625c3 1 4 2 6 4 0 1 0 2-1 4 1 1 1 1 1 3-1 0-1 1-1 1-2 0-1-1-2 0 1 1 1 1 1 2s-1 3-2 4l-2-1v1l-3 1c1-5 1-10 2-15l1-4z" class="I"></path><path d="M484 619c1-5 3-7 6-10 1-1 2-1 3-1h1 2c-2-1-5-1-7 0-2 0-3 1-4 2s-1 2-1 4c0 0-1 1-1 2-1 1 0 3-1 5 0-2 0-3 1-5 1-4 1-6 4-9 2-2 5-2 8-1s5 3 6 7c0 2 0 4-1 6 0 1-1 2-2 2h-1-1c1-1 1-1 2-1v-1c1-1 1-1 0-2l-1-1h-2c1-1 1-1 2-1h0 0c-1-1-1-1-2-1v-1h0c-1-1-1-1-2 0-2 0-5 3-6 5v5h-1c0-2 0-6 1-8l6-5h-2c-2 1-6 5-6 7v2h-1z" class="G"></path><path d="M545 497h1v1c-1 4-2 10 1 14 4 6 14 10 21 14s13 11 18 18l1 3v1c-3-5-6-9-10-13-2-2-7-7-9-7l3 3v1l-4-4c-2-3-13-7-16-9-2-1-6-4-6-6l-1-1c0-4-1-8 0-12l1-3z" class="L"></path><path d="M696 397v-2c0-2-4-7-3-9 4 7 9 17 9 25v12h-1c0 2 0 4-1 7v4l-1-1c-1-3-1-6-1-9 0-6 1-13 0-19 0-2-1-6-2-8z" class="P"></path><path d="M698 424l1-1c0-2 0-4 1-6v1 12 4l-1-1c-1-3-1-6-1-9z" class="N"></path><path d="M488 634c-2-5 1-13 2-18 1-1 2-2 5-3v1c1 0 1 0 2 1h0 0c-1 0-1 0-2 1h2l1 1c1 1 1 1 0 2v1c-1 0-1 0-2 1h1-1c0 1-1 1-2 1l-2 2h0 1c2-2 3-2 6-2l1 1c-1 1-2 1-3 1-1 1-1 1-2 1-2 3-2 3-3 7v2l1 4-1-1c-1-1-1-1-1-2l-1 1-1-1v-2l-1 1z" class="I"></path><path d="M459 513c1-1 0-3 1-4v-2h1v1c1 1 1 2 2 3l1 1v1c0 1 0 1 1 2v1 1 2 2 2l-1 1h0c0 2-2 3-3 5l-3 3-2 1h0l1-2 1-1 2-2v-1c-1 1-2 1-2 2h-2c-1 0-2 0-3 1h-4v-1c1-2 5-4 7-6s3-7 3-10z" class="C"></path><path d="M624 504c-5-11-10-20-21-28-6-4-12-8-18-11-5-2-9-4-14-6h-1c0 1 0 1 1 2h0c-3-3-6-8-6-13 0-1 1-1 1-2v1c0 3 0 6 3 8 4 4 11 5 16 7 7 4 13 8 19 13 5 5 10 9 14 15 3 5 5 11 7 16 1 3 2 6 2 9 0 1 0 3 1 4 0 4 1 9 0 13 0 2 1 4 0 5 0-11 0-23-4-33z" class="G"></path><path d="M484 619h1v-2c0-2 4-6 6-7h2l-6 5c-1 2-1 6-1 8h1v-5c1-2 4-5 6-5 1-1 1-1 2 0h0c-3 1-4 2-5 3-1 5-4 13-2 18l1-1v2l1 1 1-1c0 1 0 1 1 2l1 1c0 1 1 1 1 2l1 2h0c1 2 2 4 3 5s1 2 1 2v1l-1-1-1 1 1 2c-3-1-6-5-9-8 0-2-2-3-2-5l-2-7c-2-4-1-9-1-13z" class="B"></path><path d="M488 634l1-1v2l1 1 1-1c0 1 0 1 1 2l1 1c0 1 1 1 1 2l1 2h0c1 2 2 4 3 5s1 2 1 2v1l-1-1-1 1h0c-5-4-8-10-9-16zm101-195c0-1 0-2 1-3v-1c1 1 5 2 6 4l4 4c2 2 7 5 8 8l1 1 8 8-1 1-6-6h-1c12 11 21 26 25 42 1 3 1 6 1 9 0 2 0 13-1 14 0-6 1-13 0-20h0c-2-8-5-14-8-20-3-5-5-9-8-13-8-10-19-19-29-28z" class="K"></path><path d="M500 623v8l1 7c2 7 4 15 8 21h-2c-1 0-4-2-5-3 0-2-2-3-4-4l-1-2 1-1 1 1v-1s0-1-1-2-2-3-3-5h0l-1-2c0-1-1-1-1-2l-1-4v-2c1-4 1-4 3-7 1 0 1 0 2-1 1 0 2 0 3-1z" class="G"></path><path d="M500 623v8l1 7c-1 1-1 0-1 1v2h-2c-1-1-1-1-1-2h0l-1-1 1-2h0l-1-1h0v-1c-1 0-1 0-2-1 1 0 2-1 2-1-1-1 0-1-1-1 1-1 1-2 1-2-1-1 0-1-1-1l1-1-1-2c1 0 1 0 2-1 1 0 2 0 3-1z" class="K"></path><path d="M391 350c1 2 1 3 0 4v1c-1 1-1 2-1 3h-1c-1 4-4 7-6 10l-3 3c-1 2-2 3-4 5l-3 3-1 1c-2 2-3 5-5 6l-1 1c0 1-1 1-1 2l-1 2c-1 1-1 2-2 3l-4 7-1 2c0 1-1 1-1 2h-1l1-2v-1c0-3 1-5 2-7v-2c0-3 4-6 5-8 2-3 5-6 7-9 6-6 11-12 16-18 1-3 3-4 4-7 0-1 0-1 1-1z" class="B"></path><path d="M370 446h0c0 1 1 2 1 3h1v-4l1-1 2 1v-1c0-1 0 0 1-1v-1-1c1-1 1-1 1-2 1-1 2-3 3-3 1-2 2-3 3-4l2-3v1 1h0c0 2-1 2-2 4h1 0l-3 6c0 2-1 3-2 5v-2h0v-1c-1 1-2 3-2 4v1c-1 1-1 2-2 3v1c-1 1-1 2-2 4v2c0 1 0 0-1 1v2c0 1 0 3-1 5v2c-1 1 0 3 0 4l-1 5v5h-1c-1 1-1 3-1 5h0c-1-1-1-2-1-3 0-4-1-7-1-10-1-10 1-19 4-28z" class="F"></path><path d="M434 437h0c2 1 5 3 6 5l-2-1c0 1 0 2 1 3 1 3 1 8 0 11 0 1 0 1-1 1-3 2-5 4-7 6-6 4-12 7-17 12-3 2-4 4-6 6-2 3-4 5-5 8-3 4-5 10-7 15-1 4-1 10-2 14-1 1-2 0-2 0l1-6c1-9 4-18 9-26 6-9 15-16 24-23 0-1 1-2 2-3l1-1 1-1c1-1 2-3 3-4s1-2 2-4h0c0-2 1-4 0-6 0-2-1-3-1-5v-1z" class="K"></path><path d="M434 437c2 2 3 5 4 8h0c2 4 1 6 0 10l-3 2c-2 2-6 4-9 5 0-1 1-2 2-3l1-1 1-1c1-1 2-3 3-4s1-2 2-4h0c0-2 1-4 0-6 0-2-1-3-1-5v-1z" class="E"></path><path d="M561 491h1 1c1 0 1 0 2 1h1 1c1 1 2 1 3 1l3 2c1 1 2 1 3 2l3 1v1l2 2c4 2 9 7 11 11 1 0 2 1 2 2l3 3 2 3h3c1 2 2 3 3 5s2 3 2 4l-2-1h-1v1c1 0 1 0 1 1s1 3 1 4l2 6 1 2h0c0 2 1 8 0 9 0 1-1 1-1 1-1 1-1 2-1 3-1-14-6-25-13-36-2-2-3-5-5-7h1l-1-1-4-4c-5-4-10-9-16-12-3-1-5-2-8-4z" class="B"></path><path d="M623 519v-3c-1-1-1-1-1-2-1-1 0-2 0-3h0l1-1c-1-1-1-1-1-2h0l-1-1v-2c-1-1-1-2-1-3v-1c1 2 1 2 2 3h2c4 10 4 22 4 33 1-1 0-3 0-5 1-4 0-9 0-13 1 1 1 1 1 3 0 1 0 3 1 4 0 2-1 4 0 6 0 1 1 3 0 5h0c0 1 0 2-1 3h1v1h0l-9 27h-1v-5c2-9 4-19 4-28 0-5-1-11-1-16z" class="C"></path><path d="M609 452h1c3 3 6 6 8 9 2 2 5 4 6 7 1 0 1 1 2 1 0 1 1 2 1 3 1 1 2 2 3 4 1 1 2 3 3 6s3 8 3 12c1 1 1 2 1 3 1 1 1 2 1 4v3c1 3 1 6 0 8v8c-1 2-1 4-1 6l-1 1v1 3 1c0 1 0 3-1 5v4c-2 5-4 9-6 13-2 5-4 11-7 15-2 2-2 4-3 6 0-1-1-1 0-2v-1-1c1-1 1-1 1-2l-1 1h0c-1 1-1 2-2 3 0 1-1 2-1 3h-1v-2h1c0-2 1-5 2-6 1-2 0-2 1-3 0 0 1-1 1-2v5h1l9-27h0c4-4 3-11 5-16v-3c1-4 1-7 1-10v-6c0-3 0-6-1-8-2-9-6-17-10-25-1-2-3-4-4-6s-3-4-5-6l1-1-8-8z" class="O"></path><path d="M596 439c5 3 10 5 14 8 8 6 14 14 19 22s9 15 11 24l2 10c0 3 0 7-1 10v2c0 1-1 2-2 3 0 4 0 9-1 13l-2 7-1-1c1-2 1-4 1-5v-1-3-1l1-1c0-2 0-4 1-6v-8c1-2 1-5 0-8v-3c0-2 0-3-1-4 0-1 0-2-1-3 0-4-2-9-3-12s-2-5-3-6c-1-2-2-3-3-4 0-1-1-2-1-3-1 0-1-1-2-1-1-3-4-5-6-7-2-3-5-6-8-9h-1l-1-1c-1-3-6-6-8-8l-4-4z" class="E"></path><path d="M600 443h2c0 1 1 1 1 1 2 0 4 3 5 5 4 4 10 8 13 13l2 2h0c-1-5-9-12-13-15h1c3 3 10 9 12 13 1 2 2 3 2 4 1 3 4 5 5 7 0 0-1 1 0 1 2 2 3 5 4 8 3 7 5 15 6 23 1 4 0 8-1 13 0 4 0 9-1 13l-2 7-1-1c1-2 1-4 1-5v-1-3-1l1-1c0-2 0-4 1-6v-8c1-2 1-5 0-8v-3c0-2 0-3-1-4 0-1 0-2-1-3 0-4-2-9-3-12s-2-5-3-6c-1-2-2-3-3-4 0-1-1-2-1-3-1 0-1-1-2-1-1-3-4-5-6-7-2-3-5-6-8-9h-1l-1-1c-1-3-6-6-8-8zm23 95c1-13-3-27-8-38-3-7-8-13-13-18-3-2-5-5-8-7-4-3-8-5-11-7h0c2 0 4 1 5 2 9 5 17 13 23 21 6 9 9 18 12 28 0 5 1 11 1 16 0 9-2 19-4 28 0 1-1 2-1 2-1 1 0 1-1 3-1 1-2 4-2 6h-1v2h1c0-1 1-2 1-3 1-1 1-2 2-3h0l1-1c0 1 0 1-1 2v1 1c-1 1 0 1 0 2s0 1-1 2l-1 1c-1 4-3 5-4 9l-7 9c-3 4-6 6-9 10l-5 6h-2l1-2 12-15c7-10 13-23 15-34 2-8 2-16 1-24 0-10-2-21-6-30-3-8-8-14-13-20-3-3-4-5-7-7v-1h0l2 1c2 2 5 6 7 8 4 5 8 11 11 17 4 9 6 19 7 29 1-1 0-4 1-5 2 3 0 6 2 9z" class="L"></path><path d="M620 534c1-1 0-4 1-5 2 3 0 6 2 9l-2 13c0 1 0 2-1 3v-20z" class="E"></path><path d="M616 576c0-1 1-2 1-3 1-1 1-2 2-3h0l1-1c0 1 0 1-1 2v1 1c-1 1 0 1 0 2s0 1-1 2l-1 1c-1 4-3 5-4 9l-7 9c0-1 0-2 1-3l3-6h0l2-5c2-2 3-4 4-6z" class="I"></path><path d="M589 439l-6-6c-4-4-6-10-6-15 1-4 2-8 5-10l1-1c0 1 0 1-1 2-2 3-3 6-2 10 0 4 4 8 7 11 8 5 17 7 25 11v1c-3-2-6-3-10-4h0c9 4 19 9 26 17l6 9 2 4 2 3c1 1 1 1 2 3 0 1 0 1 1 2 0 2 1 3 1 5 1 0 1 1 1 1v1c0 1 1 2 1 2h-1c-1-1-1-3-2-4 0-1-1-1-1-2-1-1-1-2-2-3l-1 1h1v2l1 3 1 3 1 4c1 1 1 2 1 2 0 2 0 3 1 4v1 1 1c0 1 0 1 1 2v1c0 2 0 7-1 8 0-2 1-4 0-6h-1l-2-10c-2-9-6-16-11-24s-11-16-19-22c-4-3-9-5-14-8-1-2-5-3-6-4v1c-1 1-1 2-1 3z" class="M"></path><path d="M643 503l-1-5v-3c-1-2-2-5-3-7-4-13-11-26-20-35-5-5-10-8-15-12 2 1 5 2 7 3 14 7 20 18 28 30h0l-1-3c1 1 1 1 2 3 0 1 0 1 1 2 0 2 1 3 1 5 1 0 1 1 1 1v1c0 1 1 2 1 2h-1c-1-1-1-3-2-4 0-1-1-1-1-2-1-1-1-2-2-3l-1 1h1v2l1 3 1 3 1 4c1 1 1 2 1 2 0 2 0 3 1 4v1 1 1c0 1 0 1 1 2v1c0 2 0 7-1 8 0-2 1-4 0-6z" class="D"></path><path d="M600 398l1-1 17 14a79.93 79.93 0 0 1 13 13l2 2c4 5 8 11 12 17 1 3 4 6 5 9 3 5 6 13 6 20 1 4 0 11 2 15l1 1v-5c1-2 0-4 1-5h1c0 1 0 1-1 2 0 4 0 6-1 10v2c-1 2 0 4-1 6h0v3h0v1c-1 2-1 5-2 7v-1-1h-1l-2 9c-1 5-2 11-4 16v-1l-1-1h0c-1 0-1-1-2-2l1-2c0-1 1-4 1-5 0-2 1-4 1-6 1-11 0-21-3-32-3-9-8-17-14-25-2-3-4-6-7-8-4-3-9-6-13-8v-1c5 3 11 6 16 10 3 3 5 7 8 10 6 8 10 16 13 27 2 8 3 19 1 27l-1 8c2-3 3-10 4-14 1-7 2-15 2-22-1-25-14-47-31-64-8-8-18-15-24-24l-1-1h1z" class="G"></path><path d="M600 398l1-1 17 14a79.93 79.93 0 0 1 13 13l2 2-1 1c1 1 2 2 3 4h0c-1 0-1-1-2-1l-33-32z" class="B"></path><path d="M633 426c4 5 8 11 12 17 1 3 4 6 5 9 3 5 6 13 6 20 1 4 0 11 2 15l1 1v-5c1-2 0-4 1-5h1c0 1 0 1-1 2 0 4 0 6-1 10v2c-1 2 0 4-1 6h0v3h0v1c-1 2-1 5-2 7v-1-1h-1c0-3 1-7 1-10 1-5 0-9 0-14-3-20-11-37-23-53 1 0 1 1 2 1h0c-1-2-2-3-3-4l1-1z" class="E"></path><path d="M638 471l-2-3-2-4-6-9c-7-8-17-13-26-17h0c4 1 7 2 10 4 4 2 9 5 13 8 3 2 5 5 7 8 6 8 11 16 14 25 3 11 4 21 3 32 0 2-1 4-1 6 0 1-1 4-1 5l-1 2c1 1 1 2 2 2h0l1 1c-2 3-2 6-3 9 0 1 0 1-1 2 0 1-1 2-1 3l-5 6c0 1 0 1-1 2-4 6-8 11-12 17-3 6-8 12-13 17 1-4 3-5 4-9l1-1c1-1 1-1 1-2 1-2 1-4 3-6 3-4 5-10 7-15 2-4 4-8 6-13v-4l1 1 2-7c1-4 1-9 1-13 1-1 2-2 2-3v-2c1-3 1-7 1-10h1c1 2 0 4 0 6 1-1 1-6 1-8v-1c-1-1-1-1-1-2v-1-1-1c-1-1-1-2-1-4 0 0 0-1-1-2l-1-4-1-3-1-3v-2h-1l1-1c1 1 1 2 2 3 0 1 1 1 1 2 1 1 1 3 2 4h1s-1-1-1-2v-1s0-1-1-1c0-2-1-3-1-5-1-1-1-1-1-2-1-2-1-2-2-3z" class="F"></path><path d="M646 528c1 1 1 2 2 2h0l1 1c-2 3-2 6-3 9 0 1 0 1-1 2v-1c-2 0-2 0-3 1l-1-1 5-13z" class="H"></path><path d="M639 540c2-4 4-8 5-12h0c0 3-4 11-3 13l1 1c1-1 1-1 3-1v1c0 1-1 2-1 3l-5 6c0 1 0 1-1 2-1 0-2 1-2 2h-1c0 1 0 1-1 2 0 1-1 1-1 2l-2 2c0-1 1-2 1-2 1-1 1-2 1-3h0c1-3 2-5 3-7s4-7 3-9z" class="M"></path><path d="M644 501s1 1 1 2c1 2 0 6 0 9v1c0 1 0 1-1 3v2c0 1 0 1-1 2h0v3l-1 2s0 1-1 2l1 1c0 1 0 1-1 1-1 3 1 0-1 2h0c-1 2-1 3-1 5l1 1-1 2s-1 1-1 2l1-1c1 2-2 7-3 9s-2 4-3 7h0c0 1 0 2-1 3 0 0-1 1-1 2l2-2c0-1 1-1 1-2 1-1 1-1 1-2h1c0-1 1-2 2-2-4 6-8 11-12 17-3 6-8 12-13 17 1-4 3-5 4-9l1-1c1-1 1-1 1-2 1-2 1-4 3-6 3-4 5-10 7-15 2-4 4-8 6-13v-4l1 1 2-7c1-4 1-9 1-13 1-1 2-2 2-3v-2c1-3 1-7 1-10h1c1 2 0 4 0 6 1-1 1-6 1-8z" class="B"></path><path d="M635 537l1 1-9 26h0l10-21h0v2c-1 1-1 2-1 3-2 3-3 5-3 8h0c0 1 0 2-1 3 0 0-1 1-1 2l2-2c0-1 1-1 1-2 1-1 1-1 1-2h1c0-1 1-2 2-2-4 6-8 11-12 17-3 6-8 12-13 17 1-4 3-5 4-9l1-1c1-1 1-1 1-2 1-2 1-4 3-6 3-4 5-10 7-15 2-4 4-8 6-13v-4z" class="H"></path><path d="M563 627c0-1 5-7 5-8 4-5 7-11 8-18 2-4 1-9 1-13 1-4 1-7 1-10 0-8-3-17-6-23l-2-3c-4-7-10-13-15-19-4-3-9-8-11-13-1-3-1-7-1-10-1-3-1-7-1-10h1c0-3 1-5 3-7h1c-1 1-1 2-2 3v1h0l-1 3c-1 4 0 8 0 12l1 1c0 2 4 5 6 6 3 2 14 6 16 9l-1 1h0c1 1 2 2 3 4 0 1 1 2 2 2h0v1c2 2 4 4 5 7 3 5 5 10 7 15s4 12 4 17h0l-1-1c-1 1 0 1-1 1v16l-1 4c-1 1-1 0-1 1l-1 1-1-4c-2 11-6 22-12 30-1 2-2 3-4 4v1l-2-1z" class="L"></path><g class="C"><path d="M581 593c1-7 2-17 0-24v-1l-6-15c-1-1-1-2-1-3-2-2-2-3-4-5-1-2-3-3-4-6h1c1 2 2 3 3 4 2 2 6 4 7 7s2 5 3 7c3 6 4 12 5 18v16l-1 4c-1 1-1 0-1 1l-1 1-1-4z"></path><path d="M545 497h0l-1 3c-1 4 0 8 0 12l1 1c0 2 4 5 6 6 3 2 14 6 16 9l-1 1h0c1 1 2 2 3 4 0 1 1 2 2 2h0v1c2 2 4 4 5 7 3 5 5 10 7 15s4 12 4 17h0l-1-1c0-5-2-12-4-17-1-1-3-4-3-6-1-1-1-1-1-2l-1-2c-1-1-1-3-2-4l-2-2c-3-1-4-4-7-7-2-2-5-3-8-6h1l5 3c3 2 5 4 7 7h0 1c-3-5-8-10-14-11-3-1-4-1-6 0 1 2 2 2 3 3 2 2 8 6 9 9 2 4 6 7 9 12 6 10 8 21 7 33v7c-1 1 0 2-1 4v-1-5c2-12-1-24-6-35-1-2-4-5-5-7 0-2-2-3-3-4l-10-11c-4-5-9-9-11-16h0c0-2 0-3-1-4v-2c-1-4 0-9 2-13z"></path></g><path d="M449 530h4c1-1 2-1 3-1h2c0-1 1-1 2-2v1l-2 2-1 1-1 2h0l2-1 3-3v1h0l-2 2 1 1c-1 0-2 1-2 1v2c0 1-3 2-4 3-3 2-5 7-9 9-1 0-1 1-2 2v1c0 1-1 2-1 2 0 2-1 3-2 4v1c0 1 0 1-1 2v2c-1 2-1 3-1 5-1 1-1 2-1 3 1 0 1-1 2-2v2c-1 2-1 4-1 6h0c1-2 1-4 2-7 1-1 1-2 1-3l2-5s0-1 1-2v1h0v2s-1 1-1 2v1l-1 1v1c0 1 0 2-1 3v2l-1 1c0 2 1 3 0 5 0 1 0 3-1 5h0 0c0 5 0 10 2 15v1c1 2 3 6 5 8 1 1 2 2 2 3 0 4 4 8 6 11h0c-4-4-6-9-10-12-3-2-5-5-8-7l1-1h0v-1c-4-7-7-13-8-21v-3h0v-2c-1-1-1-2-1-3-1-2 0-3 0-4-1-2-1-5-1-6 1-2 1-4 1-6 0-1 0-2-1-2l-1-1v-2c1-2 3-6 5-8 1-3 3-5 5-7 1-1 3-4 4-4 1 1-2 3-2 4 1-2 3-3 5-4h1c-1 1-2 2-2 3 2-2 5-3 7-4z" class="E"></path><path d="M431 575c1-2 1-2 1-4l1 1c0 2-1 5 0 7v5c0-1 0-1-1-2v-1c-1-2-1-4-1-6z" class="C"></path><path d="M431 542s1 0 2-1l1-1c0 2-1 3-1 4v1c-1 1-1 1-1 2l-1 1c-1 2-2 4-3 7 0-1 0-2-1-2l-1-1v-2c1-2 3-6 5-8z" class="B"></path><path d="M429 576c0-2 0-4 1-5v-5c1-2 1-4 1-6v-1l1-1v-2-1h1c1-1 1-3 2-4l1 2c0 1 1 3 0 5-1 0-1 2-1 3v2l-1 2v2 1c-2 2-1 8-1 11-1-2 0-5 0-7l-1-1c0 2 0 2-1 4-1 1-1 2-1 2l-1-1h0z" class="J"></path><path d="M449 530h4c1-1 2-1 3-1h2c0-1 1-1 2-2v1l-2 2-1 1-1 2h-1l-3 1h0c0-1 1-1 2-2h1c-2-1-4-1-5-1l-1 1h-2c-2 1-4 2-5 4h-1c-2 2-5 4-6 6 0 1-1 2-2 3v-1c0-1 1-2 1-4l-1 1c-1 1-2 1-2 1 1-3 3-5 5-7 1-1 3-4 4-4 1 1-2 3-2 4 1-2 3-3 5-4h1c-1 1-2 2-2 3 2-2 5-3 7-4z" class="P"></path><path d="M333 410c-1-6 2-12 4-17h1c8-16 21-25 34-35 5-4 11-8 14-13s4-8 5-13c0 5 0 8-2 14 1 1 1 3 2 4-1 0-1 0-1 1-1 3-3 4-4 7-5 6-10 12-16 18-2 3-5 6-7 9-1 2-5 5-5 8v2c-1 2-2 4-2 7v1l-1 2h1l-1 3c-1 1-1 1-1 2l-2 6s-1 1-1 2v1l-2 9c-1 0-1 1-1 1-1 4-1 11-1 16 1 1 1 1 1 2 0 2 0 3 1 5v2 1 2h-1v1l-1-3h-1l-1-2c-1-1-1-3-2-4 0-1-1-2-1-2v-12c0-7 0-14 1-20 3-14 11-28 20-39-2 0-4 3-6 4h-1c2-1 3-2 4-4l-1-1-4 4h0c4-6 9-11 14-16-3 2-5 3-7 5-2 1-3 1-4 2h-1c-2 2-4 5-6 6-1 1-2 2-2 3l-2 2c-1 1-2 2-2 3l-3 3c0 1-1 2-2 3 0 0 0 1-1 2 0 0-1 1-1 3l-2 2v2l-1 3s-1 1-1 2v1 1c-1 1-1 3-1 4z" class="H"></path><path d="M359 375c8-9 18-15 26-23h0c-6 9-15 16-22 24h0c-2 0-4 3-6 4h-1c2-1 3-2 4-4l-1-1z" class="P"></path><g class="F"><path d="M358 393v2c-1 2-2 4-2 7v1l-1 2h1l-1 3c-1 1-1 1-1 2l-2 6s-1 1-1 2v1l-2 9c-1 0-1 1-1 1l-1-1v-5c1-2 1-4 1-6v-1c2-8 5-16 10-23z"></path><path d="M346 455l-1-7h-1l-1-2c-1-6-1-15 0-21 1-13 6-26 13-37 1-2 2-3 3-5l8-11c6-6 13-11 19-18l1-1h0l-7 9c-2 5-7 9-10 13-10 11-19 24-22 39-1 3-1 7-1 10-1 2-1 4-1 6 0 4-1 10 1 14v1c1 1 1 1 1 2 0 2 0 3 1 5v2 1 2h-1v1l-1-3h-1z"></path></g><path d="M394 517c1-4 1-10 2-14 2-5 4-11 7-15 1-3 3-5 5-8 2-2 3-4 6-6 5-5 11-8 17-12 2-2 4-4 7-6 1 0 1 0 1-1 1-3 1-8 0-11-1-1-1-2-1-3l2 1s1 1 1 2c2 3 2 7 1 11-3 9-12 15-17 22l-12 16c0 1 0 0-1 1-1 3-3 7-5 10-2 7-4 14-5 21 1 0 1 0 2 1h1l-1 4c-2 9-1 20 2 29v2h-1c0-1-1-1-1-2 0-2-1-3-1-5v-1l-1 1v1 1 1 1l2 2v1l-1 1c1 1 2 1 3 2l-1 1-1-1h0l-1-1-1 1c0-1 0-1-1-1v1l1 1c1 1 2 2 3 4 0 1 0 1 1 2v1h0l-11-14c-1-1-1-1-1-2l-1-3 1-1 1 1v-1h0c0-2-1-3-2-4 0-1-1-3-2-5l2-2 1 4h1c-3-9-3-18-3-28 0 0 1 1 2 0z" class="H"></path><path d="M402 525c1 0 1 0 2 1h1l-1 4c-2 9-1 20 2 29v2l-2-6c-2-4-2-8-2-12-1-6-1-12 0-18z" class="B"></path><path d="M400 503v-3c1-2 2-4 3-5 1-2 1-4 2-6 2-3 9-12 13-13 1 0 1-1 2-1v-1c2 2 3 2 5 3l-12 16c0 1 0 0-1 1h0-1c0 1-1 2-1 3l-1-1-1 1c1 1 1 1 0 2v1h0c-1 1-1 2-2 3v-2h0c0-2 0-1-1-2 0 1-1 1-1 2 0 2-1 2-1 4-1 1-1 3-2 5l-1 3v2 1c0 1 0 3-1 4v5 1l-1-1c0-2-1-4 0-5 0-2 0-4 1-5v-2h0c0-2 0-2 1-3v-2-1c1-2 2-4 3-5v-2c-1 1-1 0-1 1l-2 2z" class="I"></path><path d="M419 477h1c1 0 1 0 2 1-1 1-2 1-3 2-1 0-2 0-2 1l-1-1 3-3z" class="H"></path><path d="M394 517c1-4 1-10 2-14 2-5 4-11 7-15 1-3 3-5 5-8 2-2 3-4 6-6 5-5 11-8 17-12 2-2 4-4 7-6 1 0 1 0 1-1 1-3 1-8 0-11-1-1-1-2-1-3l2 1s1 1 1 2c2 3 2 7 1 11-3 9-12 15-17 22-2-1-3-1-5-3v1c-1 0-1 1-2 1-4 1-11 10-13 13-1 2-1 4-2 6-1 1-2 3-3 5v3c-1 2-2 5-2 8l-1 8c-1 2 0 3-1 5v-4c1-6 1-12 3-18h0 0c-2 4-3 9-4 13 0 4-1 8-1 11 1 3 1 6 1 9v1c-1-1 0-2-1-3 0-5-1-10 0-16z" class="B"></path><path d="M441 444c2 3 2 7 1 11-3 9-12 15-17 22-2-1-3-1-5-3l5-4v-1c-3 2-4 4-7 5-1 2-3 3-5 4-2 2-3 4-5 6h-1c2-2 3-5 5-7 1-1 3-1 4-2 2-2 4-5 7-7l14-10c2-2 3-2 4-4h0c1-1 2-5 1-6 0-1-1-2-1-4h0z" class="M"></path><path d="M560 597c-1-8-4-15-8-22-3-7-10-13-16-18-1-2-3-4-4-5-1 1-1 1-1 3h-1c0-4 1-5 3-8-3 0-5 0-7 2v-1c2-2 6-3 9-4h0c-3-2-5-4-7-7 4 4 7 6 13 7 1 0 3 1 5 1 3 3 7 6 10 9 11 7 14 20 16 32 2 8 0 20-3 28-1 3-3 5-4 8l-1 2v-2c-2 2-2 4-4 5l-7 8c-1 2-3 3-3 5-2 3-8 5-11 7-2 1-4 3-6 3h-1c-3 1-8 5-12 7-2 0-4 1-5 1h-1l6-6h0c2 1 3-3 5-4 1 0 2 1 3 0 2-1 4-4 6-4l1 1 2-1 1 1-5 3h1l9-6c1-1 2-1 3-2 2-1 7-5 7-8s1-6 2-8c0-1 1-1 1-2v-1c1-1 1-2 2-4v-1l1 1v-1l1-2v-2c1-1 1-1 1-2-2-4 0-9-1-13z" class="O"></path><path d="M555 624c0-1 1-1 1-2v-1c1-1 1-2 2-4v-1l1 1v1 2l-6 12c0-3 1-6 2-8z" class="F"></path><path d="M565 579c1-1 1-1 1-3h-1l1-1c1 1 1 1 1 2l2 1c4 11 3 26-2 36l-2 5c3-14 4-26 0-40z" class="J"></path><path d="M565 579c-2-4-3-9-6-13a30.44 30.44 0 0 0-8-8v-1l-5-5v-1l8 6h0c-2-2-4-3-6-5-1-1-2-2-3-2-3-1-6-2-9-4l9 2c1 0 1 0 2 1 2 1 4 3 6 4 3 2 8 5 10 9 2 5 5 10 6 16l-2-1c0-1 0-1-1-2l-1 1h1c0 2 0 2-1 3z" class="D"></path><path d="M561 610v-14c-2-9-6-19-11-26-3-5-7-8-11-12-1-2-3-3-4-5l12 11c0-3-8-10-10-12h3c3 1 6 4 8 6 2 3 5 5 7 8v-1c0-1-2-2-3-3-2-3-5-6-8-9l-2-2c1 0 3 2 4 3 4 4 9 9 12 14 4 7 7 13 8 21 2 8 0 18-2 26-1 5-4 10-7 14 7-14 9-30 4-45-1-5-3-10-6-14-1-3-4-6-6-9s-6-6-9-8h0c1 3 6 6 8 9 13 15 19 36 12 56 0 1-1 2-1 2v-2-1-1l1-2v-2c1-1 1-1 1-2z" class="J"></path><path d="M308 397l-1-11c-3-26 4-55 20-76l26-32 14-20c2-4 5-9 8-13-4 10-8 20-13 29-6 11-13 21-20 32-13 19-22 39-27 62-1 7-2 15-2 22 1 12 2 23 5 35 1 3 3 8 5 10 1 1 1 1 1 3 0 1 1 3 2 4 0 1 0 1-1 2v-1h-2l-10-22v-1s-1-1-1-2c1-3 0-6-1-8l-3-13z" class="G"></path><path fill="#f7f1e7" d="M310 367c-1-1-1-2-1-2 1-2 1-3 1-4l2-10v-1l1-2v-2-1s1-1 1-2l2-5 3-9 4-6 1-2c0-1 1-2 1-3l4-6 3-3 1-1c1-2 3-4 5-6v1c0 3-1 3-2 5l-4 6-1 1v1l-2 2-2 4-5 9v3l-2 4-3 8v2c-1 1-1 2-1 2l-1 2v2 2l-2 7v2c-1 1-2 2-2 3v7h-1c0-3 1-6 0-8z"></path><defs><linearGradient id="A" x1="322.534" y1="418.047" x2="310.207" y2="418.544" xlink:href="#B"><stop offset="0" stop-color="#d1cbbb"></stop><stop offset="1" stop-color="#d6d5d6"></stop></linearGradient><linearGradient id="B" gradientUnits="userSpaceOnUse"></linearGradient></defs><path fill="url(#A)" d="M310 367c1 2 0 5 0 8h1v-7c0-1 1-2 2-3 0 3 1 12-1 14v11h1c1 12 2 23 5 35 1 3 3 8 5 10 1 1 1 1 1 3 0 1 1 3 2 4 0 1 0 1-1 2v-1h-2l-10-22v-1s-1-1-1-2c1-3 0-6-1-8l-3-13c2-2 1-5 1-8-1-4-1-8-1-12l1-1c0-3-1-6 1-9z"></path><path d="M310 367c1 2 0 5 0 8h1v-7c0-1 1-2 2-3 0 3 1 12-1 14-2 5-1 10-1 15h-1v-1c-1-1 0-4 0-5s-1-1-1-2v-4c0-2 1-3 1-5l-1-1c0-3-1-6 1-9z" class="H"></path><path d="M716 403c0-3 1-7 1-11 1-11 1-23-1-35-3-19-11-39-22-55l-15-21c-6-8-12-16-16-25-2-5-3-10-4-15 12 27 38 44 53 68 14 22 18 50 12 74l-4 18h0-1c0 1 0 2-1 3v2c-1 1-1 2-1 3h0l-1-1v-5z" class="M"></path><path d="M722 381v-2c1-1 1-2 1-3 1-2 0-8 0-10v-1-5c2 2 1 4 1 7v11c0 2-1 3 0 5l-4 18h0v-3h0v-1c1-6 0-11 2-16z" class="K"></path><path d="M722 381l-1-12c-1-3 0-5-1-8 0-3-1-7-1-10v-1l-1-1v-2-1-3c1 1 1 2 1 3l1-1v-4c-1-1-1 0-1-1v-1c0-1-1-2-1-2v-2h0v-1c1 1 1 1 1 2v1c1 1 1 0 1 2v2c1 0 1 0 1 2v2c1 0 1 0 1 2v2c1 1 1 2 1 4v3c1 1 1 2 1 3l-1 1v5 1c0 2 1 8 0 10 0 1 0 2-1 3v2z" class="H"></path><path d="M704 397c0-21-12-42-26-59-6-7-12-14-18-22-6-11-8-23-5-35 0 3 0 7 1 11 6 15 22 28 33 40 13 15 23 33 24 53 2 12-1 26-3 38-1 2-1 4-2 6-1 1-1 2-1 4 0 1-1 1-2 2-2 2-2 3-3 5l-1 1-1 1-1-2c3-12 5-23 6-35l-1-8z" class="G"></path><path d="M705 377c-1-1-1-2-1-3l-1-2v-1h0c-1-1-1-1-1-2 0-2-1-4-2-5l-1-3-3-6-10-13c-1-3-4-5-6-7l-1-1-9-12h1 0c1 0 1 0 2 1v-1h0v-1l1-1v1c2 2-1-1 1 1l1 1c2 3 5 4 7 8l3 3c1 1 2 2 3 4 1 1 2 1 2 3 1 1 2 1 3 3l1 1c1 1 0 0 1 2l1 1 4 6c1 1 1 1 1 2l1 1 2 4c1 3 3 6 4 9v2 1l1 2v2l1 1v2 2l1 1v1s0 1 1 1c2 12-1 26-3 38-1 2-1 4-2 6-1 1-1 2-1 4 0 1-1 1-2 2-2 2-2 3-3 5l-1 1-1 1-1-2c3-12 5-23 6-35l-1-8c1 2 1 2 1 4h0c1-1 1-1 0-2h0l1-1v-3c1-1 1-3 1-5-1-1-1-4-1-6v-2-1c-1 0-1-1-1-2v-2z" class="M"></path><path d="M705 377l1 1v3l1 1v1 2c1 2 0 5 1 7 1 4 1 10 1 14v1l-1 1c0 1 0 1-1 2v1c0 2 0 3-1 5v-1-3c-1-2-1-4-1-7l-1-8c1 2 1 2 1 4h0c1-1 1-1 0-2h0l1-1v-3c1-1 1-3 1-5-1-1-1-4-1-6v-2-1c-1 0-1-1-1-2v-2z" class="H"></path><path d="M705 405c0 3 0 5 1 7v3 1c1-2 1-3 1-5v-1c1-1 1-1 1-2l1-1c0 4-1 9-2 13l-2 15c-2 2-2 3-3 5l-1 1-1 1-1-2c3-12 5-23 6-35z" class="I"></path><path d="M452 472c0-1 0-2-1-3-1-2-2-4-4-5l1-1c5 5 7 10 8 17 0 4 0 8-1 12h0c-2 7-9 14-13 20-1 1-2 3-3 4-4 6-8 12-11 19-1 5-2 9-3 13 0 1 1 1 0 2l1 1v-1h0v2l1 1c1 0 1 1 1 2 0 2 0 4-1 6 0 1 0 4 1 6 0 1-1 2 0 4 0 1 0 2 1 3v2h0v3h-1c0 7 4 15 8 21h-1l-3-3c0-1 0-1-1-2-2-1-3-4-5-5-2-4-5-6-6-10-2-8-6-16-7-25 0-2 0-5-1-8 0-2 1-4 1-6v-1h-1c1-1 1-2 1-3h-1v1l-1 1v-3l-2 3c0 1 0 1-1 2h0c0-1 0-1-1-2v4c0 10 2 19 6 28-1 0-1-1-1-1l-1-1c0 1 0 2-1 2-1-2-1-4-2-5l-1-3c-1 0-1 0-1-1l-1-1h1v-2c-3-9-4-20-2-29l1-4c4-13 13-25 26-31 6-2 13-4 17-9 3-3 3-7 3-11h0v1l2-2h-1l1-1h-1v-1z" class="N"></path><path d="M435 509v4l-6 7c0 2 0 2-1 4-1-1-1-1-2-1 2-5 5-10 9-14z" class="E"></path><path d="M437 502c-1 1 0 1 0 2-4 6-9 11-12 18h0c0-2-1-3-2-3h0c4-7 9-12 14-17z" class="B"></path><path d="M418 551l3 1v1 6c0 1 0 3 1 4v4l5 21c-2-3-3-5-4-7-3-7-5-14-6-22 0 1 1 2 2 2-1-3-1-5-1-9v-1z" class="C"></path><path d="M418 551l3 1v1 6c0 1 0 3 1 4v4 1h-1c-2-2-2-4-2-7-1-3-1-5-1-9v-1z" class="D"></path><path d="M425 548c0 1 1 1 0 2l1 1v-1h0v2l1 1c1 0 1 1 1 2 0 2 0 4-1 6 0 1 0 4 1 6 0 1-1 2 0 4 0 1 0 2 1 3v2h0v3h-1c0 7 4 15 8 21h-1l-3-3c0-1 0-1-1-2l1-1c-1-2-2-3-3-5h0l-1-1c1-1 0-2 0-3 0-2-1-5-2-7 0-1 0-3-1-4v-6h-1c-1-2 0-2 0-4 0-5 1-10 1-16z" class="F"></path><defs><linearGradient id="C" x1="412.256" y1="537.8" x2="428.299" y2="532.876" xlink:href="#B"><stop offset="0" stop-color="#161512"></stop><stop offset="1" stop-color="#353537"></stop></linearGradient></defs><path fill="url(#C)" d="M423 519c1 0 2 1 2 3h0c-1 3-3 5-4 9v1c-2 7-3 13-3 20h0c0 4 0 6 1 9-1 0-2-1-2-2-2-8-2-20 1-28v-1l5-11z"></path><path d="M407 539c1-15 8-27 20-37 1-1 2-2 4-2h0c0 1 0 1-1 1v1c-2 2-4 5-6 7-7 6-11 13-13 23-1 2-2 5-2 7 0 1 0 1-1 2h0c0-1 0-1-1-2v4h0v-4z" class="B"></path><path d="M452 472c2 3 2 10 1 14-3 8-11 12-16 18 0-1-1-1 0-2 3-2 5-5 7-7s4-3 5-5c-1 0-1 0-1 1-3 2-6 4-9 5h-1c-1 0-1 1-2 1h-2c-1 0-2 2-4 2l-1-1c-2 1-3 3-4 4-5 4-8 10-12 14-5 5-5 12-7 19v4l-1 2c0-6 0-12 2-18l3-6 1-2c6-12 16-18 28-21l2-1c4-1 8-5 9-8v-1c2-2 1-5 1-8l2-2h-1l1-1h-1v-1z" class="E"></path><path d="M411 536c1-6 3-12 6-17 5-8 12-16 21-20-6 6-12 12-16 20-6 8-7 19-8 28 0 4 0 9 1 12v2c1 4 2 7 3 11 1 2 2 6 2 8-2-8-6-16-7-25 0-2 0-5-1-8 0-2 1-4 1-6v-1h-1c1-1 1-2 1-3h-1v1l-1 1v-3z" class="B"></path><path d="M405 526c4-13 13-25 26-31 6-2 13-4 17-9 3-3 3-7 3-11h0v1c0 3 1 6-1 8v1c-1 3-5 7-9 8l-2 1c-12 3-22 9-28 21l-1 2-3 6c-2 6-2 12-2 18l1-2h1v4h0c0 10 2 19 6 28-1 0-1-1-1-1l-1-1c0 1 0 2-1 2-1-2-1-4-2-5l-1-3c-1 0-1 0-1-1l-1-1h1v-2c-3-9-4-20-2-29l1-4z" class="G"></path><path d="M435 509c3-3 6-7 9-10 4-4 9-8 11-13 0 1 0 3-1 5h0c-2 7-7 12-11 17-5 7-10 14-13 21-2 3-3 7-4 11-1 3-2 5-2 7 0 3 0 8-1 10s-1 3-1 5v1c-1-1-1-3-1-4v-6-1l-3-1c1-5 2-11 4-17 0-4 2-8 4-11 1 0 1 0 2 1 1-2 1-2 1-4l6-7v-4z" class="J"></path><path d="M435 513v-1l2-2h0 1 0c0 1-1 2-1 2v2c-1 3-4 4-5 7-1 1-1 1-1 2l-1 2-1 2c-1 0-1 1-1 2l-1 1c-2 4-3 8-4 12v1c-1 2-1 4-1 6 0 1 0 2-1 3v1-1l-3-1c1-5 2-11 4-17 0-4 2-8 4-11 1 0 1 0 2 1 1-2 1-2 1-4l6-7z" class="C"></path><path d="M426 523c1 0 1 0 2 1-1 1-1 1-1 3l-3 4c0-1 1-1 0-3 0 2-1 5-2 6 0-4 2-8 4-11z" class="B"></path><path d="M425 415v-1c2-3 3-6 2-10-1-2-2-4-3-5h1c4 5 6 10 6 17-1 10-8 18-14 26-5 5-9 10-14 16-5 8-10 17-13 26-3 12-5 25-3 37 1 7 3 14 6 20l-2 2c1 2 2 4 2 5 1 1 2 2 2 4h0v1l-1-1-1 1 1 3c-2-2-3-4-5-6l-7-11c-1-3-2-6-4-8v-1l1-1v-1-2c0-4-2-9-3-12-2-8-6-16-6-24 0-3 1-5 2-7 1-6 2-12 4-17v-1c3-11 13-21 22-28 1-1 1-1 2 0h0c1-2 5-3 6-4 5-4 10-7 15-10 1-2 1-1 2-2 1 0 2-1 2-2 1-2 0-3 0-4z" class="I"></path><path d="M425 415v-1c2-3 3-6 2-10-1-2-2-4-3-5h1c4 5 6 10 6 17-1 10-8 18-14 26-5 5-9 10-14 16-5 8-10 17-13 26-1-2 0-4 1-7 0-1 0-1 1-2v-1l1-1 1-3c1-2 2-5 4-7v-1c1-1 1-2 2-2l1-2 2-2v-1l1-1c1-2 2-2 3-4 1-1 3-3 4-5h0c2-1 4-3 5-4 2-3 4-5 6-7 1-2 1-3 2-4h1c0-1 1-2 1-3v-1l-2 3-1 1c-1 1-3 3-4 5 0 0-1 1-1 2l-1 1-5 5h-1c0-3 4-4 5-6l1-1c2-2 3-4 4-7l2-2h1v-2l1-2 1-1h-1 0c-1 0-1 1-2 1v-2c1 0 2-1 2-2 1-2 0-3 0-4z" class="G"></path><path d="M422 424h0c-2 4-5 5-9 8-2 2-4 5-6 8 3-4 6-7 11-9-5 5-10 10-14 15-10 11-17 24-21 38 0 3 0 6-1 10h0c0 3-1 6 0 9v8c0-1-1-5-1-6-1-2-1-4-1-7 0-7 1-16 2-23 2-8 7-17 12-24l11-11c2-2 3-5 5-7s5-3 7-5c2-1 3-3 5-4z" class="E"></path><path d="M400 437c1-2 5-3 6-4 5-4 10-7 15-10h-1c-3 4-7 6-11 10-2 2-3 4-5 7-9 9-18 19-22 32-1 5-2 10-2 15-1 5-1 10-1 15 1 9 4 19 6 27 2 5 4 9 6 14 1 2 2 4 2 5 1 1 2 2 2 4h0v1l-1-1-1 1 1 3c-2-2-3-4-5-6l-7-11c-1-3-2-6-4-8v-1l1-1v-1-2c0-4-2-9-3-12-2-8-6-16-6-24 0-3 1-5 2-7 1-6 2-12 4-17v-1c3-11 13-21 22-28 1-1 1-1 2 0h0z" class="B"></path><path d="M381 528l3 7c0-1 0-2-1-3-1-3-2-7-2-10h0v1c2 6 5 11 7 16 2 3 3 6 5 9h0c1 1 2 2 2 4h0v1l-1-1-1 1 1 3c-2-2-3-4-5-6l-7-11c-1-3-2-6-4-8v-1l1-1 2 2v-1h0v-2z" class="K"></path><path d="M398 437c1-1 1-1 2 0h0 0l-8 9c-5 6-11 13-14 22-2 6-2 14-3 21-1 5 0 9 0 14-1-1-1-2-1-4-2-9 2-19 3-28 1-11 12-25 20-32h0c-8 6-16 16-20 26-2 5-3 13-4 19 0 4-1 9 0 13 0 3 1 5 2 7 1 3 1 6 2 10 1 3 3 6 3 10 0 1 1 3 1 4v2h0v1l-2-2v-1-2c0-4-2-9-3-12-2-8-6-16-6-24 0-3 1-5 2-7 1-6 2-12 4-17v-1c3-11 13-21 22-28z" class="L"></path><path d="M685 432c0-18-7-34-17-49-4-6-10-13-15-19s-10-13-12-21-1-15 4-22c-1 5-2 9-1 14 2 3 3 6 5 8 6 6 13 11 19 16 7 6 14 12 19 19 1 3 3 6 4 10 2 3 4 5 5 9 1 2 2 6 2 8 1 6 0 13 0 19 0 3 0 6 1 9l1 1c0 2-1 4-1 6l1 2c-1 2-2 4-2 6l-6 13c-1 4-3 7-5 10-2 6-5 12-9 17v2l-1-1-2 2h0 0-1l-1-1 1-2c4-11 8-22 9-33 1-1 0-3 1-4l1-12v-7z" class="H"></path><path d="M647 344c2 2 4 4 5 6 3 2 4 6 7 8 3 4 7 6 10 10 8 8 16 20 19 31 6 24 3 48-4 72-1 5-5 11-6 17v2l-1-1-2 2h0 0-1l-1-1 1-2c4-11 8-22 9-33 1-1 0-3 1-4l1-12v4h1c1-4 0-8 1-12 1 3 1 11 0 14-1 2-1 4-1 6h1c0-2 0-4 1-6 2-7 1-17 1-25l-1-1v-2l-1-5c0-1 0-2-1-3l1-1v-3-1c-1-1-1-2-2-3l-2-5v-1-2c-1-2-1-2-2-2h0c-1 0-1-1-2-2l-1-2c0-1 0-2-1-2l-1-2-1-1c0-1-1-1-1-2l-2-2v-1l-3-3c-1-1-2-2-2-3-2-3-6-5-8-9l-6-6h-1l1-1h1l-1-2c-1 0-1-1-2-2s1 0-1-1c0 0-1-1-1-2-1-1-2-1-3-2l1-2z" class="I"></path><defs><linearGradient id="D" x1="695.565" y1="421.324" x2="679.619" y2="421.539" xlink:href="#B"><stop offset="0" stop-color="#100f0d"></stop><stop offset="1" stop-color="#2b2b2c"></stop></linearGradient></defs><path fill="url(#D)" d="M644 335c2 3 3 6 5 8 6 6 13 11 19 16 7 6 14 12 19 19 1 3 3 6 4 10 2 3 4 5 5 9 1 2 2 6 2 8 1 6 0 13 0 19 0 3 0 6 1 9l1 1c0 2-1 4-1 6l1 2c-1 2-2 4-2 6l-6 13c-1 4-3 7-5 10-2 6-5 12-9 17 1-6 5-12 6-17 7-24 10-48 4-72-3-11-11-23-19-31-3-4-7-6-10-10-3-2-4-6-7-8-1-2-3-4-5-6l-2-3c-1-2-2-3-1-6z"></path><path d="M644 335c2 3 3 6 5 8 6 6 13 11 19 16 7 6 14 12 19 19 1 3 3 6 4 10 2 3 4 5 5 9 1 2 2 6 2 8 1 6 0 13 0 19 0 3 0 6 1 9l1 1c0 2-1 4-1 6l1 2c-1 2-2 4-2 6l-6 13c-1 4-3 7-5 10 0-4 2-8 3-12 4-11 7-22 7-34 0-22-8-42-23-57 5 1 11 11 14 16 0 1 2 4 3 5l-3-6s0-1-1-1c-4-11-16-19-25-27-2-1-4-3-6-4-3-3-7-5-9-9-1-1-1-1-2-1-1-2-2-3-1-6z" class="O"></path><path fill="#988e8b" d="M525 571l-1-1c1-1 0-1 1-1l1-1c1-1 0-1 2 0h0l6 2c3 1 7 4 9 6 3 2 5 5 7 6s3 3 4 5v-4h-1l1-1c1 2 2 5 3 7 0 2 0 6 1 7 1 0 1 0 2 1 1 4-1 9 1 13 0 1 0 1-1 2v2l-1 2v1l-1-1v1c-1 2-1 3-2 4v1c0 1-1 1-1 2-1 2-2 5-2 8s-5 7-7 8c-1 1-2 1-3 2l-9 6h-1l5-3-1-1-2 1-1-1c-2 0-4 3-6 4-1 1-2 0-3 0-2 1-3 5-5 4l5-5-1-1c-1 2-3 3-4 4h-1c1-1 0-1 1-2h1l-1-2 1-2 1-1c1-1 2-3 2-4s0-1-1-2c1-1 0 0 2 0 0 0 0-1 1-1 0-2 0-2-1-3 1-2 1-3 1-4-2-2-3-3-6-4 0-1 0-1-1-2v-2h0c-1-1-1-2-2-4 0-3 0-5 2-8 2-4 7-5 11-5v-1h2 0l-2-1c-1 0-1-1-2-1l-2-2 1-1-1-1v-3c1 0 1 0 2-1l-1-2v-1c-1-1-1-2 0-4-2-2-4-3-4-5v-1c-1 1-2 3-2 4s0 2-1 3v-2c0-1 1-3 1-4-1-1-1-1-1-2h1 1c-1-1-2-1-2-1-2 0-2 1-3 3h-1 0c0-2 1-3 2-4l1-1-1-1c-1-1-2-3-2-6 1 2 1 4 3 5 1 1 2 0 4-1h1c-2-2-2-2-3-4v-1l2 3h2z"></path><path d="M532 591c5 4 8 7 10 13-1-1 0-1-1-2s-1-1-2-1l-1-1h-1v1c-1 0-2 0-2-1l-1-1 3 1v-3h-1c-1-1-1-2-2-2l-1-1c-1-1-1-2-1-3z" class="B"></path><path d="M527 586c0 1 2 2 2 2 1 1 0 1 1 2l2 1c0 1 0 2 1 3l1 1c1 0 1 1 2 2h1v3l-3-1h-1-2c0-1-1-1-2-2l-1 1-1 1v-1l-1-1v-3c1 0 1 0 2-1l-1-2v-1c-1-1-1-2 0-4z" class="D"></path><path d="M547 600l-4-6c-3-5-8-10-13-13l-1-1c-2 1-2 1-4 0h0c0-1 4-1 5-1 8 5 15 10 19 18 2 2 2 4 2 6l1 1v7c0 8-1 15-5 22 2-9 4-18 2-27l-2-6z" class="J"></path><g class="F"><path d="M547 600h0c0-1 1-1 1-2 1 1 1 2 2 3 0 2 0 4-1 5l-2-6z"></path><path d="M542 604c2 2 3 5 4 8v-3c-2-7-7-14-12-19-1-1-3-2-4-3-2-2-4-4-7-6 2 0 4 1 5 2 2 1 6 6 7 6l-4-6c8 7 17 16 18 27 1 9-3 20-9 27l-1 2c1-3 3-6 3-9v-1c1-1 1-4 1-6 0-1-1-2-1-3-1-3-1-5-3-8-1-1-2-3-4-4-1-1-2-2-4-3h0v-1h-1v-1h2 0l-2-1c-1 0-1-1-2-1l-2-2 1-1v1l1-1 1-1c1 1 2 1 2 2h2 1l1 1c0 1 1 1 2 1v-1h1l1 1c1 0 1 0 2 1s0 1 1 2z"></path></g><path d="M527 599l1-1 1-1c1 1 2 1 2 2h2 1l1 1c0 1 1 1 2 1v-1h1l1 1v3c-2 0-3-1-5-2l-2-1h-2c-1-1-2-1-3-2z" class="C"></path><path d="M530 604h1v1h0c2 1 3 2 4 3h-2c-2-1-3-1-5-1h0c0 1 1 1 2 1 2 2 3 4 5 5v1c-2-1-3-3-5-4-1-1-2-1-3-1-2 1-2 2-3 4v1l2-1c1 1 1 2 2 3 1 2 4 3 5 5v1c1 2 1 6 0 8v3c0 2-1 2-2 3-1 2-2 2-2 4-1 1-2 3-3 4l-1 3-1-1c-1 2-3 3-4 4h-1c1-1 0-1 1-2h1l-1-2 1-2 1-1c1-1 2-3 2-4s0-1-1-2c1-1 0 0 2 0 0 0 0-1 1-1 0-2 0-2-1-3 1-2 1-3 1-4-2-2-3-3-6-4 0-1 0-1-1-2v-2h0c-1-1-1-2-2-4 0-3 0-5 2-8 2-4 7-5 11-5z" class="G"></path><path d="M527 620v1c2 1 3 2 4 3h0c0 1 0 1 1 2v-2l-1-1v-1l-1-1-1-1-2-3h0c1 0 3 2 3 2 1 1 0 0 1 2h1v2c1 1 1 2 1 2v-3c1 2 1 6 0 8v3c0 2-1 2-2 3-1 2-2 2-2 4-1 1-2 3-3 4l-1 3-1-1c-1 2-3 3-4 4h-1c1-1 0-1 1-2h1l-1-2 1-2v1c1 0 1 0 2-1h0l7-13v-3l1-1-1-1v-1c-1-1-2-3-3-4v-1z" class="L"></path><path d="M519 621l1-1 1-1-1-2h1 1l4 3h1v1c1 1 2 3 3 4v1l1 1-1 1v3l-7 13h0c-1 1-1 1-2 1v-1l1-1c1-1 2-3 2-4s0-1-1-2c1-1 0 0 2 0 0 0 0-1 1-1 0-2 0-2-1-3 1-2 1-3 1-4-2-2-3-3-6-4 0-1 0-1-1-2v-2h0z" class="B"></path><path d="M519 621l1-1 1-1-1-2h1 1l4 3h1v1c1 1 2 3 3 4v1l1 1-1 1v3l-1-1c-2-5-6-6-10-9h0z" class="I"></path><path d="M525 571l-1-1c1-1 0-1 1-1l1-1c1-1 0-1 2 0h0l6 2c3 1 7 4 9 6 3 2 5 5 7 6s3 3 4 5v-4h-1l1-1c1 2 2 5 3 7 0 2 0 6 1 7 1 0 1 0 2 1 1 4-1 9 1 13 0 1 0 1-1 2v2l-1 2v1l-1-1v1c-1 2-1 3-2 4v1c0 1-1 1-1 2-1 2-2 5-2 8s-5 7-7 8c-1 1-2 1-3 2l-9 6h-1l5-3 7-7v-1c1-2 3-4 5-5 1-2 1-5 2-7 1-8 3-17 0-24-1-3-3-7-5-10-4-5-12-11-18-14h-3 1c7 0 12 5 17 9h1c-3-2-5-4-8-6l-1-1h1c3 1 10 6 11 9v1c0 2 2 3 2 4 1 3 2 5 3 7h0c0-4-2-7-4-11v-1c-2-3-5-7-8-8-4-2-6-3-10-4 0 0-1 0-2-1h0-5c0-1 0-1 1-1 3 0 4 0 6 1l1 1 1-1c3 1 5 2 8 3 2 2 4 5 6 5v-1c-2-3-5-4-8-5-3-2-6-5-10-5h-2c-1-1-2-1-2-1z" class="E"></path><path d="M550 632h1c4-11 5-22 4-33 0-4-3-8-5-12 0-1-2-2-2-4 3 2 4 5 5 7 2 3 2 5 3 8v1c2 8 0 16-1 25-1 2-2 5-2 8s-5 7-7 8c-1 1-2 1-3 2l-9 6h-1l5-3 7-7v-1c1-2 3-4 5-5z" class="N"></path><path d="M587 532c-2-2-4-6-6-9-1-3-3-5-5-8l-11-13c-2-3-6-7-8-10-3-4-4-8-4-13l2 6c1 4 3 5 6 6 3 2 5 3 8 4 6 3 11 8 16 12l4 4 1 1h-1c2 2 3 5 5 7 7 11 12 22 13 36 0 12-1 24-5 35-1 3-8 12-8 13h1 0c-2 2-3 4-4 7h0l-1 2c-5 5-9 9-15 13-1 1-3 3-4 3h-2c-2 1-3 2-5 3-1 0-2 2-3 3l-7 5-1-1c3-3 7-7 10-9l2-1v-1c2-1 3-2 4-4 6-8 10-19 12-30l1 4 1-1c0-1 0 0 1-1l1-4v-16c1 0 0 0 1-1l1 1h0c0-5-2-12-4-17s-4-10-7-15c-1-3-3-5-5-7v-1h0c-1 0-2-1-2-2-1-2-2-3-3-4h0l1-1 4 4v-1l-3-3c2 0 7 5 9 7 4 4 7 8 10 13v-1l-1-3v-2-4l1-1h0l-2-3 1-1 1-1z" class="O"></path><path d="M586 544v-2-4l1-1h0l-2-3 1-1c3 5 5 11 7 17v4l-1-1c-1-1-1-3-1-4s-1-2-1-3h-1c1 1 1 3 0 4v1l-2-4-1-3z" class="C"></path><path d="M589 551v-1c1-1 1-3 0-4h1c0 1 1 2 1 3s0 3 1 4l1 1h0l1 1c2 7 1 14 0 21 0 4-1 9-3 13h0c0-2 1-5 2-7v-1c1-4 0-8 0-12-1-6-2-12-4-18z" class="B"></path><path d="M565 628v-1c2-1 3-2 4-4 6-8 10-19 12-30l1 4 1-1c0-1 0 0 1-1-2 6-3 13-7 18 0 1-1 1-1 2-3 5-8 10-12 14l-1 1v-1l2-1z" class="E"></path><path d="M592 537c0 1 1 1 1 2s0 1 1 2c1 2 1 3 2 5l1 3v-1c0-1-1-3-1-4l-3-7c-1-1-1-3-1-4h1l1-1c0 1 1 1 1 2l1 1c0 1 0 1 1 2v3h1 0c2 3 3 8 4 12 0 5 1 10 1 15-1 7-3 14-4 20-2 6-7 10-8 15-1 2-2 3-3 4h0l3-6c2-5 5-9 6-14 1-4 2-7 2-11 1-3 1-6 1-9-1 1-1 5-1 7-1 5-2 13-5 17l-9 18h-1l8-16c2-5 3-10 3-15 2-10 2-20-1-30-1-3-2-6-4-9l1-1h1z" class="C"></path><path d="M567 528l4 4v-1l-3-3c2 0 7 5 9 7 4 4 7 8 10 13 5 11 7 24 4 37-1 4-2 8-4 12l-4 8c0 1-1 2-1 3l3-9c-1-2 1-6 0-8v-16c1 0 0 0 1-1l1 1h0c0-5-2-12-4-17s-4-10-7-15c-1-3-3-5-5-7v-1h0c-1 0-2-1-2-2-1-2-2-3-3-4h0l1-1z" class="B"></path><path d="M571 535c7 5 14 21 16 29s2 15 0 24c0 3 0 5-1 8 0 1-1 2-1 3h0c-1-2 1-6 0-8v-16c1 0 0 0 1-1l1 1h0c0-5-2-12-4-17s-4-10-7-15c-1-3-3-5-5-7v-1z" class="N"></path><path d="M587 532c-2-2-4-6-6-9-1-3-3-5-5-8l-11-13c-2-3-6-7-8-10-3-4-4-8-4-13l2 6c1 4 3 5 6 6 3 2 5 3 8 4 6 3 11 8 16 12l4 4-1 1c1 3 3 5 5 8 6 8 11 19 12 28 0 3 1 8 1 11 0 1-1 2-1 2 0 14-2 28-10 39l-1 1h-1c4-5 7-10 8-15 1-9 4-17 3-26-1-4-1-8-2-13-3-12-10-25-19-35-2-2-4-4-7-5l-2-2 14 16c1 1 2 3 3 4 3 5 5 9 7 15h-1v-3c-1-1-1-1-1-2l-1-1c0-1-1-1-1-2l-1 1h-1c0 1 0 3 1 4l3 7c0 1 1 3 1 4v1l-1-3c-1-2-1-3-2-5-1-1-1-1-1-2s-1-1-1-2h-1l-1 1-3-7v1z" class="D"></path><path d="M587 532c-2-2-4-6-6-9-1-3-3-5-5-8l-11-13c-2-3-6-7-8-10-3-4-4-8-4-13l2 6c1 4 3 5 6 6 3 2 5 3 8 4 6 3 11 8 16 12l4 4-1 1c-3-4-7-7-11-10-2-2-7-5-10-6l8 7c3 3 10 5 11 9-1 0-1-1-2-2s-2-1-3-2c-5-2-9-6-13-9 1 2 5 5 6 7l10 13c2 1 2 2 2 4 2 4 5 9 6 14h-1l-1 1-3-7v1z" class="G"></path><path d="M587 531c-2-4-4-8-7-12l-6-9c-2-2-5-5-6-8 5 5 9 9 13 15 2 2 4 4 5 6 1 4 4 10 5 14l-1 1-3-7z" class="D"></path><path d="M464 559c6-3 13-6 18-10h0l-6 5c3-1 5-2 8-3 2-1 4-4 5-5l1-7c1 2 0 5 0 7 0 1-1 1-1 2h1c0 2-2 4-4 6-4 4-10 7-14 10v1h-1c-1 2-3 4-5 5v1c2 0 3-4 5-3h0l-3 3v1c2-2 4-3 5-5 1-1 0 0 2 0v-1c1 0 2-1 3-1h1 1c-1 3-11 11-14 14-2 3-4 7-5 11s-3 8-2 13l1 2c0 2 1 3 2 4 0-1 0-2-1-2 0-5 2-13 5-17 4-7 9-9 16-12 3-1 5-2 7-2 2-1 5-2 6-3 2-3 2-6 2-9h0c1 1 1 5 1 7-1 1-1 3-3 4-1 0-1 0-2 1h4c2 1 3 2 4 4l-3-2c-1 0-2 0-3 1v1h-1l2 1c1 1 2 2 2 3-2-1-3-2-5-2l3 3c0 2 0 3-2 4v1l1 1c-1 1-1 2-2 3v-3c1-1 0-1 0-2 1 0 1-1 2-2v-2h-1v2l-2 2c-1 1-1 2-3 3-1 2-3 3-4 5s-3 3-4 5c-1 0-1 0-1 1l2 2c3-2 7-3 11-5h1c1-1 3-4 3-5s1-2 1-2c0 2-1 5-3 7s-3 2-6 3c-7 2-8 4-9 10 0 3-1 6 0 9 0 8 2 12 6 18 1 2 2 3 3 4 3 3 6 7 9 8 2 1 4 2 4 4l-2-1h-2c-9-5-18-11-26-18-2-1-4-2-5-4l-5-5c-7-7-14-16-15-25v-7h-1v6c-2-5-2-10-1-15v-4l3-9c1-1 1-2 1-3h0l1-2 3-2c3-3 7-6 11-8z" class="L"></path><path d="M475 597c2-3 4-5 6-7 2-1 3-3 4-4 2-1 3-2 5-3-2 2-6 5-7 7l-1 1c-2 2-3 4-4 6l-2 2-1-2z" class="C"></path><path d="M457 569h1c4-1 10-6 13-8 2-1 4-2 5-4h0l-3 1h0c1-1 2-2 4-2 2-1 6-3 8-5 1-1 2-1 3-2h0c-3 4-7 5-11 9-2 2-5 3-7 5-2 1-4 3-7 4 0 1-1 1-1 2h0c-2 2-4 3-5 6h1l-2 3c-2 1-2 4-3 7-1-1-1-1-1-2l-1-1 1-2v-3l3-5c1-1 1-2 2-3z" class="J"></path><path d="M461 607c2-9 5-18 12-23 2-1 3-2 5-2l1-1c2-1 4-1 6 0v-1h5c-2 1-4 0-6 1l-2 1h-3c-3 1-6 5-8 7-4 4-5 9-7 13-1 5-1 10 0 15l1 3c1 4 3 7 5 11-2-2-3-4-5-7v-1c-1-3-4-11-3-14 0-1 0-2-1-2z" class="C"></path><path d="M450 569h1c1 0 3-3 5-4 2-2 5-3 7-5 4-2 7-3 11-5l-3 2c-2 2-5 3-8 4-5 3-13 11-14 17l-3 18v6c-2-5-2-10-1-15v-4l3-9c1-1 1-2 1-3h0l1-2zm32 36c-2 2-2 5-2 7-2 5-2 9-1 13 0 7 4 16 10 20l2 2c-3 0-6-5-8-6 0-1 0-1-1-2-2-4-5-8-6-13-2-8 0-20 5-28 2-1 8-8 10-9l-2 3c-1 2-3 3-4 5s-3 3-4 5c-1 0-1 0-1 1l2 2z" class="F"></path><path d="M457 580l1 1c1-1 1-1 2-1v-1l1 1h0l-1 2c-1 1 0-1-1 1h0c0 2-1 4-1 5-1 3 0 5-2 7v1l1 1c0 1 0 3 1 5v6h0c1 4-1 7 1 10v1c2 5 7 9 10 13 2 1 3 3 4 3 3 1 6 5 9 7h0l-9-6c-7-6-13-12-17-21h1c0-4-1-7-1-10-1-2 0-6-1-8-1 1-1 2-1 3v6c1 3 2 6 2 8-2-3-2-6-3-9-1-9 1-17 4-25zm19 19c-2 6-4 14-4 20v5c1 0 1 1 1 2v-1-2c0-1-1-2-1-3 2-7 3-17 7-24h1c2-4 6-6 9-8-1 2-4 4-5 6-6 6-9 14-10 22-1 9 2 17 7 24l-4-4-1-1h1c-1-3-3-6-5-8-3-5-3-10-3-15 2-6 3-11 6-15l1 2z" class="B"></path><path d="M488 582h1c-2 2-4 2-5 4v1c-9 5-13 12-15 21 0 2 0 2-1 3h0c1-8 3-18 10-22 2-1 4-2 6-4-2 0-4 2-6 2-6 4-9 11-10 17v2c-2 8 0 17 4 23l4 6c-5-4-9-12-11-18h0c-1-4-1-6-1-9v-1c1-5 2-9 4-13s6-8 11-9c0 0 1 0 1-1h1c2 0 4-1 6-1l1-1z" class="D"></path><path d="M447 596v-2l2-13c1-4 3-8 6-11l1-1c1-2 4-4 6-5h1v-2c3 0 6-2 9-3-3 2-5 4-8 5-2 2-5 3-7 5-1 1-1 2-2 3l-3 5v3l-1 2 1 1c0 1 0 1 1 2 1-3 1-6 3-7-2 5-3 11-4 17-2 8 1 17 5 24 1 4 4 7 7 10 0 1 3 3 3 4l-5-5c-7-7-14-16-15-25v-7z" class="B"></path><path d="M472 564v1h-1c-1 2-3 4-5 5v1c2 0 3-4 5-3h0l-3 3v1c2-2 4-3 5-5 1-1 0 0 2 0v-1c1 0 2-1 3-1h1v1c-2 2-4 4-7 6-6 6-10 11-12 20-1 2-2 5-2 7v1l1 1v2c1 2 0 3 1 5 1 6 2 12 5 18-2-2-3-5-4-7l-1-1c-2-3-1-6-2-10v-6c-1-2-1-4-1-5l-1-1v-1c2-2 1-4 2-7 0-1 1-3 1-5h0c1-2 0 0 1-1l1-2h0l-1-1v1c-1 0-1 0-2 1l-1-1 2-5c1-4 9-9 13-11z" class="F"></path><path d="M362 368c2-2 4-3 7-5-5 5-10 10-14 16h0l4-4 1 1c-1 2-2 3-4 4h1c2-1 4-4 6-4-9 11-17 25-20 39-1 6-1 13-1 20v12s1 1 1 2c1 1 1 3 2 4l1 2h1l1 3v-1h1l2 2c-1-5-1-11 0-16 3-14 11-29 22-38 5-5 12-9 17-12 7-3 14-6 20-11 2-1 4-4 6-6l1 1-1 4-2 3c-1 3-3 5-5 7-7 8-16 14-22 23-9 10-13 20-17 32-3 9-5 18-4 28 0 3 1 6 1 10 0 1 0 2 1 3h0c0-2 0-4 1-5 0 2 0 5-1 7 1 5 2 11 4 16 1 7 4 14 7 21v2 1l-1 1v1l-3-6c-2-2-4-6-5-9-2-1-3-2-3-4v-1c-2-1-2-2-2-3l-1-1v-1 3h1l-1 1v1h1l1 2h0c-3-1-4-6-6-9l-2-4c-2-1-3-3-4-5l-3-6-1-1c0-1-1-2-1-2v-1c-1-1-1-2-1-3l-3-6-4-10-6-22c-2-9-2-16-2-24-1-4-1-7 0-10 0-1 0-3 1-4v-1-1c0-1 1-2 1-2l1-3v-2l2-2c0-2 1-3 1-3 1-1 1-2 1-2 1-1 2-2 2-3l3-3c0-1 1-2 2-3l2-2c0-1 1-2 2-3 2-1 4-4 6-6h1c1-1 2-1 4-2z" class="G"></path><path d="M345 453l1 2h1l1 3v-1h1l2 2c0 5 0 9 1 14 0 3 1 7 2 11-2-2-2-6-3-8-2-7-4-15-7-22h0l1-1z" class="E"></path><path d="M355 477c-2-11-3-23-1-34 3-10 8-19 13-27 2-2 3-4 4-5l6-6c1-1 2-1 3-3-1 0-1 1-2 1-5 4-9 9-13 14-5 8-9 16-11 25l-2 5c-1-3 2-11 3-14 3-6 6-11 9-17 2-2 3-4 5-6 3-4 7-6 11-9 8-5 16-9 25-13h0c-3 1-5 3-9 4-2 1-3 2-5 4-1 1-3 2-4 4-2 1-3 2-4 4-2 1-3 3-4 4-2 3-5 6-7 9-7 10-11 21-13 33-1 8 0 17 1 25-2 0-2 0-4-1l-1 3z" class="C"></path><path d="M362 368c2-2 4-3 7-5-5 5-10 10-14 16h0l4-4 1 1c-1 2-2 3-4 4h1c2-1 4-4 6-4-9 11-17 25-20 39-1 6-1 13-1 20v12s1 1 1 2c1 1 1 3 2 4l-1 1c-1-2-2-4-2-6-2-2-2-6-2-9-1-8-2-18 0-26 2-7 4-14 7-20 2-2 7-9 7-11l-3 4c-2 2-3 4-4 7-7 12-10 26-9 40 1 4 1 8 2 12 0 3 2 6 3 9l5 18c2 5 3 10 6 14 1 3 3 7 3 10 0 2 1 3 1 4-2-1-3-3-4-5l-3-6-1-1c0-1-1-2-1-2v-1c-1-1-1-2-1-3l-3-6-4-10-6-22c-2-9-2-16-2-24-1-4-1-7 0-10 0-1 0-3 1-4v-1-1c0-1 1-2 1-2l1-3v-2l2-2c0-2 1-3 1-3 1-1 1-2 1-2 1-1 2-2 2-3l3-3c0-1 1-2 2-3l2-2c0-1 1-2 2-3 2-1 4-4 6-6h1c1-1 2-1 4-2z" class="F"></path><path d="M335 444l2-2c1 6 3 12 5 18 4 12 9 24 15 36 0 2 1 3 1 4-2-1-3-3-4-5l-3-6-1-1c0-1-1-2-1-2v-1c-1-1-1-2-1-3l-3-6-4-10-6-22z" class="H"></path><path d="M333 410c0-1 0-3 1-4v-1-1c0-1 1-2 1-2l1-3v-2l2-2c0-2 1-3 1-3 1-1 1-2 1-2 1-1 2-2 2-3l3-3c0-1 1-2 2-3l2-2c0-1 1-2 2-3 2-1 4-4 6-6h1c1-1 2-1 4-2l-1 1c-4 5-9 10-14 15-9 13-15 30-13 46l3 12-2 2c-2-9-2-16-2-24-1-4-1-7 0-10z" class="G"></path><path d="M412 386c0-1 1-1 2-2-1 3-3 5-5 7-7 8-16 14-22 23-9 10-13 20-17 32-3 9-5 18-4 28 0 3 1 6 1 10 0 1 0 2 1 3h0c0-2 0-4 1-5 0 2 0 5-1 7 1 5 2 11 4 16 1 7 4 14 7 21v2 1l-1 1v1l-3-6c-2-2-4-6-5-9-7-13-12-25-15-39l1-3c2 1 2 1 4 1-1-8-2-17-1-25 2-12 6-23 13-33 2-3 5-6 7-9 1-1 2-3 4-4 1-2 2-3 4-4 2 0 6-5 8-6 5-1 9-4 13-6-3 3-7 5-10 9h0c0 1 0 2-1 2-1 1-1 1-1 2 2-1 3-3 5-5l6-6c2-1 2-3 5-4z" class="I"></path><path d="M361 448c1 4 0 8 1 12v2c0 4-1 10 0 14l3 7c0 2 1 3 1 5 1 1 1 3 1 4-1-1-1-3-1-4l-3-6c-3-9-5-24-2-34z" class="F"></path><defs><linearGradient id="E" x1="355.491" y1="474.211" x2="369.486" y2="507.969" xlink:href="#B"><stop offset="0" stop-color="#0f0d0c"></stop><stop offset="1" stop-color="#494542"></stop></linearGradient></defs><path fill="url(#E)" d="M355 477l1-3c2 1 2 1 4 1 3 13 5 25 9 37 1 3 2 5 4 8 1 2 2 3 2 5-2-2-4-6-5-9-7-13-12-25-15-39z"></path><path d="M387 400c2 0 6-5 8-6 5-1 9-4 13-6-3 3-7 5-10 9h0 0l1-2h-1l-3 3-3 3c-3 2-5 4-7 6-11 10-20 28-22 43 0 4 0 8-1 12v-2c-1-4 0-8-1-12-1-1 0-3 0-4 2-6 4-12 6-17 2-3 3-5 5-8 3-5 7-9 11-15h0c1-2 2-3 4-4z" class="E"></path><path d="M398 397c0 1 0 2-1 2-1 1-1 1-1 2 2-1 3-3 5-5l6-6c2-1 2-3 5-4-3 3-5 6-8 9-6 6-13 11-18 18-12 13-19 32-21 49 0 5-1 9 0 13v3c1 2 1 3 1 5-3-4-3-13-3-18 1-4 0-9 1-14 3-14 8-26 17-38 2-2 3-4 4-5 4-3 11-7 13-11h0z" class="B"></path><path d="M667 443c-5-18-15-32-27-45-5-5-10-10-14-15-3-4-6-10-5-15 2 1 3 2 4 3 3 2 5 3 7 5 5 2 9 4 13 5 4 2 7 5 10 7 6 4 11 8 15 14 9 12 12 24 12 39h1v-8l2-1v7l-1 12c-1 1 0 3-1 4-1 11-5 22-9 33l-1 2c-2 5-4 10-6 14l-5 11-1 2c-1 1-1 3-2 4l-4 7c-3 4-5 8-9 12 1-3 1-6 3-9v1c2-5 3-11 4-16l2-9h1v1 1c1-2 1-5 2-7v-1h0v-3h0c1-2 0-4 1-6v-2c1-4 1-6 1-10 1-1 1-1 1-2h-1c-1 1 0 3-1 5v5l-1-1c-2-4-1-11-2-15 0-7-3-15-6-20-1-3-4-6-5-9-4-6-8-12-12-17l-2-2a79.93 79.93 0 0 0-13-13l-17-14-1 1h-1v-1c0-1 1-2 3-2h2c-1-2-4-5-5-7 2 2 4 5 6 6 3 3 7 4 11 6 11 6 23 13 31 23 4 5 8 11 11 18 1 2 2 6 3 9 4 16 6 31 3 47 0 5 0 8-2 12-1 1-2 3-1 3 1-3 4-6 4-10l3-31c0-5 1-11 0-16 0-4 0-8-1-12z" class="L"></path><path d="M657 470c2-5 1-10-1-14-1-1-1-2-1-3l2-1c1 7 4 15 3 23v3c-1 1 0 3-1 5v5l-1-1c0-6 0-11-1-17z" class="C"></path><path d="M685 432v7l-1 12c-1 1 0 3-1 4h-1 0c0 2 0 4-1 5l-1-1v-3h0l1 1v-11c0-2 0-3 1-5h1v-8l2-1z" class="E"></path><path d="M654 442c1 3 2 6 3 10l-2 1c0 1 0 2 1 3 2 4 3 9 1 14-1-7-3-15-7-20 1 0 1-1 2 0v1l1-1c0-1-1-2-1-4l1 1 1 1v-1-5h0z" class="B"></path><path d="M679 441c-1-11-2-22-8-32-3-5-6-9-10-13h1c-1-1-2-2-3-2-4-2-7-6-10-8-2-2-4-3-7-4 4-1 12 7 16 9 5 3 11 10 14 16h1c5 10 8 19 8 30v7 1c-1-1-1-2-2-4z" class="C"></path><path d="M668 443v-2-1c-1-3-2-6-2-9-1 0-1-1-1-2l-1-1c-1-3-1-5-3-8v-1s-1-1-1-2h-1l1-1h0 1v-1c1 0 2 1 3 1 2 5 4 9 5 14 1 4 3 9 3 14 1 8-1 17-1 25-1 5-1 11-2 15h0c0-4 0-8 1-13 0-9 1-18-2-28z" class="E"></path><path d="M659 406l-7-9c-1-1-2-3-3-5-8-7-17-11-24-19l15 9c3 2 6 3 8 5 2 1 3 2 4 3 5 4 11 8 14 14h-1l-1-1-1 1 1 1v1l-2-1v1h0c1 1 1 1 1 2-1-1-2-1-2-2h-1-1z" class="D"></path><path d="M672 472c0 1-1 3 0 4 2-2 3-3 3-6 0-2 1-5 2-7v-5c1-2 0-10 2-12v1l1-1v10 3l1 1c1-1 1-3 1-5h0 1c-1 11-5 22-9 33l-1 2c-2 5-4 10-6 14l-5 11-1 2c0-1 1-2 1-3 1-3 4-8 4-11 0-4 2-8 3-12 0-2 0-3 1-5 2-3 1-10 2-14z" class="F"></path><path d="M680 446v10 3l1 1c1-1 1-3 1-5h0 1c-1 11-5 22-9 33v-3c1-2 1 0 1-2l1-4v-1c1-1 1-1 1-2 0-2 1-3 1-4v-2c1-1 1-2 1-3 1-6 0-14 0-20l1-1z" class="D"></path><path d="M650 450c-1-1-10-16-11-19-7-10-17-19-27-26-3-3-6-5-9-8 2 1 4 3 7 4 1 1 4 4 5 4 0-1-1-2-1-2 2 0 5 4 6 5 3 2 5 3 7 5 1 1 3 2 5 3h0l-14-11h1c3 1 6 4 9 6 10 8 20 19 26 31h0v5 1l-1-1-1-1c0 2 1 3 1 4l-1 1v-1c-1-1-1 0-2 0z" class="F"></path><path d="M668 443l-3-9c-3-8-7-15-12-22-10-14-26-24-31-41 4 6 9 11 15 14l3 2c10 7 18 18 24 29-1 0-2-1-3-1v1h-1 0l-1 1h1c0 1 1 2 1 2v1c2 3 2 5 3 8l1 1c0 1 0 2 1 2 0 3 1 6 2 9v1 2zm-9-37h1 1c0 1 1 1 2 2 0-1 0-1-1-2h0v-1l2 1v-1l-1-1 1-1 1 1h1c3 3 5 6 7 11 3 8 5 18 6 27v-1c1 2 1 3 2 4l-1 1-1 1v-1c-2 2-1 10-2 12v5c-1 2-2 5-2 7 0 3-1 4-3 6-1-1 0-3 0-4 0-6 1-12 2-19 0-17-6-32-15-47z" class="B"></path><path d="M673 415c3 8 5 18 6 27v-1c1 2 1 3 2 4l-1 1-1 1v-1-2c-1-1-1-1-1-2v-3l-1-1v-3l-1-2v-1l-3-8v-2l-1-1v-2c-1-1-1-1-1-2 1-1 1-2 2-2zm-13 60h0c2-6-1-15-2-21l-1-1v-2c0-1 0-3-1-5-2-8-8-17-14-23-2-3-6-6-8-9l-3-3c-6-4-12-8-18-10-2 0-7-3-9-5 1 0 2 1 3 1 5 3 11 5 17 8 17 10 30 25 36 43 2 7 3 14 4 20 1 3 1 7 1 10s0 5-1 8c-1 9-2 19-6 28-2 4-6 8-6 13 0 1-2 4-3 5h0c2-5 3-11 4-16l2-9h1v1 1c1-2 1-5 2-7v-1h0v-3h0c1-2 0-4 1-6v-2c1-4 1-6 1-10 1-1 1-1 1-2h-1v-3z" class="J"></path><path d="M658 501c1 2 1 4 0 5v1c0 1 0 2-1 3v2c-1 1-2 4-3 4h-1l2-9h1v1 1c1-2 1-5 2-7v-1z" class="D"></path><path fill="#f7f1e7" d="M720 405c16-37 17-82 1-119-10-25-28-44-53-55-13-5-26-7-40-8l-1-13h264v25c-33 3-63 17-84 43-14 17-24 37-33 58l-20 41-79 169-109 229-34 72c-7 17-16 34-22 51l-24-52-49-104-126-268-54-116c-11-24-22-50-37-72-14-20-34-37-57-45-10-4-20-6-30-7v-24h278v13c-7 0-14 1-21 2-22 4-42 14-56 31-9 10-15 22-20 34-11 27-15 53-12 82 1 16 6 30 10 46 0 1 1 2 1 2v1l10 22h2v1c1-1 1-1 1-2-1-1-2-3-2-4 0-2 0-2-1-3-3-7-5-15-5-22-2-17 2-35 10-50 11-21 32-35 45-55 3-4 5-9 7-14 0-2 1-4 1-5 3 30-21 48-36 71-7 12-13 25-15 39-2 9-1 19 0 28 2 19 8 39 18 55 0 1 0 2 1 3v1s1 1 1 2l1 1 3 6c1 2 2 4 4 5l2 4c2 3 3 8 6 9h0l-1-2h-1v-1l1-1h-1v-3 1l1 1c0 1 0 2 2 3v1c0 2 1 3 3 4 1 3 3 7 5 9l3 6c2 2 3 5 4 8l7 11c2 2 3 4 5 6 0 1 0 1 1 2l11 14h0v-1c-1-1-1-1-1-2-1-2-2-3-3-4l-1-1v-1c1 0 1 0 1 1l1-1 1 1h0l1 1 1-1c-1-1-2-1-3-2l1-1v-1l-2-2v-1-1-1-1l1-1v1c0 2 1 3 1 5 0 1 1 1 1 2l1 1c0 1 0 1 1 1l1 3c1 1 1 3 2 5 1 0 1-1 1-2l1 1s0 1 1 1c-4-9-6-18-6-28v-4c1 1 1 1 1 2h0c1-1 1-1 1-2l2-3v3l1-1v-1h1c0 1 0 2-1 3h1v1c0 2-1 4-1 6 1 3 1 6 1 8 1 9 5 17 7 25 1 4 4 6 6 10 2 1 3 4 5 5 1 1 1 1 1 2l3 3h1c-4-6-8-14-8-21h1c1 8 4 14 8 21v1h0l-1 1c3 2 5 5 8 7 4 3 6 8 10 12h0c-2-3-6-7-6-11 0-1-1-2-2-3-2-2-4-6-5-8v-1c-2-5-2-10-2-15h0 0c1 2 1 5 1 8 0 6 3 10 6 15h0c0-2 0-3-1-4-3-5-2-12-1-18 1-2 1-4 2-6 1-3 2-5 3-7 0 1 0 2-1 3l-3 9v4c-1 5-1 10 1 15v-6h1v7c1 9 8 18 15 25l5 5c1 2 3 3 5 4 8 7 17 13 26 18h2l2 1c1 1 4 3 5 3h2 1 0c2 0 3 0 5-1 1 0 3-1 5-1 4-2 9-6 12-7h1c2 0 4-2 6-3 3-2 9-4 11-7l13-13 2 1-2 1c-3 2-7 6-10 9l1 1 7-5c1-1 2-3 3-3 2-1 3-2 5-3h2c1 0 3-2 4-3 6-4 10-8 15-13h2l5-6c3-4 6-6 9-10l7-9c5-5 10-11 13-17 4-6 8-11 12-17 1-1 1-1 1-2l5-6c0-1 1-2 1-3 1-1 1-1 1-2 4-4 6-8 9-12l4-7c1-1 1-3 2-4l1-2 5-11c2-4 4-9 6-14l1 1h1 0 0l2-2 1 1v-2c4-5 7-11 9-17 2-3 4-6 5-10l6-13c0-2 1-4 2-6l1-1 1-1c1-2 1-3 3-5 1-1 2-1 2-2 3-3 5-6 6-9 2-6 5-12 8-18l-1-1z"></path><path d="M474 703h3c0 2 0 2-1 4h-1l-2-2 1-2z" class="C"></path><path d="M418 667h1l1 1c0 2 1 2-1 3h-2c-1-1-1-1-1-2l2-2z" class="E"></path><path d="M600 669h0c2 0 2 0 3 1 0 2 0 2-1 3h-2l-1-1c0-2 0-1 1-3zm-23 48h0c2 0 2 0 3 1 0 1 0 2-1 3h-2c-1-1-1-1-1-3l1-1z" class="D"></path><path d="M471 738h3c1 1 1 1 1 3l-2 1h0c-2 0-2 0-3-1 0-2 0-2 1-3z" class="C"></path><path d="M467 769h0c2 0 2 0 3 1 0 2 0 2-1 4h-2l-2-2c1-2 1-2 2-3zm84-71h2l2 2c0 1 0 2-1 3-1 0-2 0-2 1l-2-2c0-2 0-2 1-4zm-25 87l1-1c2 1 2 1 3 2-1 2-1 2-2 3l-1 1c-2-1-2-1-3-2 1-2 1-2 2-3z" class="D"></path><path d="M426 672h2l2 2c0 2-1 2-2 3l-1 1c-1-1-1-1-3-2 1-2 0-2 2-4z" class="B"></path><path d="M550 733h2c1 1 2 1 3 2-1 2-1 2-2 3s-1 1-2 1c-2-2-2-2-2-4l1-2zm-57 52h2l2 2c0 2 0 2-1 3l-1 1c-2-1-2-1-3-2 0-2 0-2 1-4zm61-20h1c2 0 2 0 3 2 0 1 0 1-1 3h-1c-2 0-2 0-3-1 0-2 0-2 1-4z" class="D"></path><path d="M746 290h0c2 2 2 4 2 6l3 10c1 4 0 9 0 14v-1c0-4 0-9-1-13l-4-16z" class="M"></path><path d="M562 691c1 0 2 0 2 1 2 1 2 1 2 3-1 1-1 1-3 2h-1c-2-1-2-1-2-3 1-1 1-2 2-3zm-97 5h2c2 1 2 1 2 3 0 1 0 1-2 3h-2c-1-1-1-1-2-3 1-2 1-2 2-3zm91-35c1 0 2 0 3 1s1 2 1 3c-1 1-2 2-3 2h-2l-2-4c1-1 1-2 3-2zm-95 69h2c1 1 2 2 2 3 0 2 0 2-1 3-2 1-2 1-3 0-1 0-2-1-2-2 0-2 0-2 2-4zm128-55c1-1 1 0 2 0 2 1 2 1 3 3l-3 3h-2c-1-1-2-1-2-3s0-2 2-3z" class="D"></path><path d="M465 660c1 0 2 0 3 1s1 1 1 3c0 1-1 2-2 3-1 0-2 0-3-1s-2-2-1-3c0-2 1-2 2-3z" class="C"></path><path d="M530 813c1-1 2 0 3 0s2 1 2 2c0 2 0 2-1 4h-4c-1-1-2-2-2-3 1-2 1-2 2-3z" class="D"></path><path d="M673 490l1 1h1 0 0l2-2 1 1-4 7c-1-1-1 0-1-1h0c-1 1-1 2-1 3-1 3-3 4-5 5 2-4 4-9 6-14z" class="G"></path><path d="M488 814c1-1 2-1 3 0s2 1 2 3c0 1 0 2-1 3-2 0-2 1-4 0-1 0-1-2-2-3 0-2 1-2 2-3zm-37-161c1 0 3 0 4 1v4c-1 1-1 2-3 2s-2 0-4-1c0-1-1-3 0-4s1-2 3-2zm-15 25c1-1 2-1 4 0 1 1 1 2 1 3 0 2 0 3-2 4h0c-1 0-2 0-3-1-1 0-2-2-2-3 0-2 1-2 2-3zm133-25h4c1 1 1 1 2 3l-2 4c-2 0-3 1-4 0s-2-2-2-3c0-2 1-3 2-4zm15-7c2 0 3-1 4 0 2 1 2 3 2 4-1 2-1 2-3 3-1 1-2 0-3 0l-2-4c1-2 1-2 2-3zm-149-1h1c2 0 3 1 4 2s1 2 1 4c-1 1-2 2-3 2-2 0-3 0-4-1s-2-2-1-3c0-2 1-3 2-4z" class="D"></path><path d="M576 681h0c2 0 3 0 4 1 2 2 1 3 1 5 0 1-1 2-3 3h-1c-2 0-3-1-4-2s0-2 0-4c1-1 1-2 3-3z" class="C"></path><path d="M450 685s0-1 1-1 3 1 4 2 1 3 1 4c0 2-1 3-3 4h-1c-2 0-3-1-4-2s-1-3-1-4c0-2 1-2 3-3zm-30-49h2c2 0 3 1 3 3 1 1 1 3 0 4s-2 2-4 2h-2c-1 0-2-2-3-3 0-1 0-2 1-4 1-1 1-2 3-2zm180 0c1 0 2-1 3 0 1 0 3 1 3 2 1 2 1 3 0 4-1 2-2 2-3 3h-2c-1 0-3-1-4-2v-4c1-2 2-3 3-3zm-154 83c1 0 2-1 3-1 2 1 3 1 4 3 1 1 1 3 1 4-1 2-2 3-4 4-1 0-2 1-2 1-2-1-3-1-4-3-1-1-1-3-1-5 1-2 2-2 3-3zm116 2c2-1 3-1 5 0 1 0 3 1 3 3 1 1 1 3 1 5-1 2-2 3-4 4h-3c-2 0-4-2-5-3s-1-3 0-5c0-2 2-3 3-4z" class="D"></path><path d="M220 255h1c3 2 6 4 8 6 15 14 19 36 26 54-1 0-1 0-1-1-5-9-8-18-11-27-2-4-4-9-6-12-5-8-10-15-17-20z" class="B"></path><path d="M538 771c1-1 2-1 4 0 1 0 3 2 4 3s1 3 1 5c-1 2-3 3-5 4-1 1-2 1-3 1-2-1-4-2-5-4-1-1-1-3 0-5 0-2 2-3 4-4zm-58 0h3c2 0 4 2 5 4 0 1 1 3 0 5s-3 3-5 4h-3c-2 0-3-1-4-3-1-1-1-4 0-6 0-2 2-3 4-4zm329-522h2c-15 8-24 21-30 36-3 8-5 16-7 23-1 1 0 1-1 1 2-9 3-19 7-27 6-15 14-27 29-33z" class="D"></path><path d="M344 347v1l1 1h0l-5 8-1 1c-2 2-3 6-5 9-1 2-1 3-2 5l-1 1v3h-1v2c-1 3-2 6-3 8v3l-1-1v-1c0-1 1-1 1-2v-1c1-1 0-2 1-4-1 0-1-1 0-1l-1-1-1 1c-1 1-1 1-1 2-1 1-1 2-1 3h0c-1-1-1-1 0-2v-2l3-9 4-6c0-1 0-2 1-3l2-3 1-2c1-1 3-2 4-3 0-2 1-2 2-3 1-2 2-3 3-4z" class="K"></path><path d="M531 738h4c2 0 4 3 5 4 1 2 1 3 0 5 0 2-2 4-4 5h-4c-2 0-4-1-5-3-1-1-1-4-1-5 1-3 3-5 5-6zm-47 0h4c2 1 4 2 5 4 1 1 1 4 0 6s-3 3-5 4h-3c-2 0-4-1-5-3s-1-4-1-6c1-2 3-4 5-5zm50-71c1 0 3 0 4 1 2 0 4 2 4 3 1 2 1 4 1 5-2 3-3 4-6 6-2 0-3 0-5-1s-3-2-3-4c-1-2-1-4 0-6s3-3 5-4zm-47 35h4c2 0 4 2 5 4 1 1 1 4 0 6 0 2-3 3-5 4-1 1-3 1-4 0-2 0-3-2-4-3-1-2-1-4-1-6 1-2 3-4 5-5zm1-35h4c3 1 4 3 5 5 1 1 1 3 0 5s-3 4-5 5c-1 0-3 0-4-1-2 0-4-2-4-4-1-2-1-4-1-5 1-3 3-4 5-5zm45 35h4c3 1 4 2 5 4s1 4 0 5c0 3-2 4-4 5s-3 1-5 0c-2 0-3-2-4-3-1-2-1-5-1-7 1-2 3-3 5-4z" class="C"></path><path d="M411 536v3l1-1v-1h1c0 1 0 2-1 3h1c-3 10 0 23 3 32 2 4 3 7 4 11 5 9 13 17 20 25h-1c-10-11-20-23-26-37-4-9-6-18-6-28v-4c1 1 1 1 1 2h0c1-1 1-1 1-2l2-3z" class="J"></path><path d="M515 661v1c1 3 0 7 0 11-1 8-2 16-1 24 1-2 2-4 3-5l3-4c2-2 4-4 6-5h0l-4 4c-11 11-9 27-8 42 1-1 3-3 3-4 3-3 6-6 9-8h1c-3 2-5 4-8 7h0l-1 1c-5 7-5 18-5 26 0 4-1 8-1 12v2h-1v1 1l3-5h0l1-1c3-3 5-6 8-8h1c-4 3-7 7-9 11-1 1-1 3-2 4-1 2 0 3 0 5v15 5c-1 2-1 0-1 1v4h-1c-2-2-1-8-1-11v-9h0c0-2 0-5 1-7h0l-1-1c-1-3-2-5-4-8v-1l3 4 1 1c0-8 2-16 1-24-1-2 0-5-1-8-1-4-3-7-6-11h0v-1c3 3 4 6 6 8h1v1c0-2 1-3 1-5v-11c0-5 1-10-1-14s-3-7-6-10v-1l4 4 2 4c1-11 2-21 0-31v-1h0l1 2v6c2 2 0 12 1 17v-4c1-2 1-6 1-7 1-2 0-6 0-8 1-1 1-3 1-4v-1-6z" class="M"></path><path d="M311 276h0c-5 7-9 14-12 21-14 32-7 68 5 99l-1 1-1-3-7-17c-5-12-8-24-8-36-2-25 7-46 24-65zm410 130c16-36 28-78 14-116-4-9-8-18-14-26-2-3-5-5-7-8 2 1 4 3 6 5 9 10 16 22 21 35 13 38-3 80-21 114-2 5-4 10-7 14 2-6 5-12 8-18z" class="B"></path><defs><linearGradient id="F" x1="789.375" y1="293.357" x2="731.558" y2="287.993" xlink:href="#B"><stop offset="0"></stop><stop offset="1" stop-color="#434140"></stop></linearGradient></defs><path fill="url(#F)" d="M715 230c2 0 5 2 7 3 20 13 34 32 39 55 4-11 9-22 17-31 9-11 21-19 35-24 2-1 4-2 6-2-3 2-7 3-11 5-12 6-22 15-29 26s-11 22-15 33c-3 5-1 14-2 20 0 11-3 21-7 31-2 2-3 5-5 8 4-11 7-21 8-32 1-10 0-21-1-31-4-19-13-36-27-50-5-4-10-7-15-11z"></path><path d="M318 231c1 0 1-1 2 0-17 7-31 16-40 32-18 29-11 68-3 99-2-2-3-5-3-7-5-13-8-27-9-41 0-5 1-11 0-16-1-6-5-13-8-19-6-13-14-24-25-34-4-4-9-7-13-10v-1c21 12 38 30 47 53 1-6 3-12 5-18 10-20 27-31 47-38z" class="B"></path></svg>