<svg xmlns="http://www.w3.org/2000/svg" xmlns:v="https://vecta.io/nano" viewBox="210 117 634 814"><!--oldViewBox="0 0 1024 1024"--><style>.B{fill:#0d0d0f}.C{fill:#1b1a1a}</style><g fill="#f8f5f4"><path d="M382 239c6 0 14 0 20 1l-26 5-11 2c-2 0-3 0-4-1l1-1c5-6 13-6 20-6zm5 14h1 0c-4 3-9 4-13 6-6 3-13 7-19 10-3 0-5 1-7 1-2-2-2-2-2-3v-1c3-6 32-11 40-13zm41 205l33 2-15 3-14 3c-4 1-8 1-11-1-1-1-2-2-2-3v-2c2-2 6-2 9-2zm127 38c4 5 8 9 12 13l9 6c4 2 9 4 11 8 0 2 1 2 0 4h-1c-1 1-2 1-4 1-3-1-6-4-9-6-7-8-13-16-18-26zm-9 12c4 7 6 14 9 21l9 17c2 4 4 8 5 11 1 2 1 4 0 6h-2-2c-2-2-4-4-4-6-3-6-5-13-7-20l-8-29zm22-139c1 0 3 2 5 3l10 5 22 11c5 3 12 5 17 8 0 2 0 2-1 3s-2 1-3 1c-8 0-16-6-22-10-10-6-20-13-28-21zm-95 98v1c-3 8-7 15-10 22l-7 14c-3 4-5 9-9 12-2 0-2 0-4-1v-1c-1-2-1-3 0-4 3-8 10-14 15-21l15-22zm78-25l9 9c9 7 19 13 30 17 4 2 16 4 17 7l-1 2c-3 1-6 1-9 1-7-2-13-5-18-9-12-7-20-16-28-27zm-101-10h15l-43 9c-3 0-6 1-8 0-2 0-4-1-5-2s0-2 0-3c1-1 2-2 3-2 5-2 10-2 15-2h23zm169-131c1 0 3 1 4 1l8 3c4 1 8 2 12 2 6 1 13 1 20 0h13c2 0 3 1 5 2-1 2-1 2-2 3-2 1-4 2-6 2-18 3-40-3-54-13zm-51 109h0c2 0 4 1 5 2l8 3c10 5 21 6 33 7 4 0 14-1 18 1 1 1 1 1 1 3l-1 1c-2 1-3 2-5 2h-12c-16-2-34-9-47-19zm39-168c2 0 5 4 6 6 5 3 10 5 15 6l1 1c10 2 21 0 30-5 3-1 6-4 9-4 2-1 2 0 3 1 0 1 0 1-1 3-3 4-8 7-13 8-11 4-25 3-36-2-5-3-11-8-14-14zM477 491c0 5-3 11-5 16-3 9-6 19-10 29-1 2-3 7-6 8-1 0-2 0-3-1s-2-1-2-2c-1-6 15-30 19-36l7-14zm122-183c1 0 2 1 3 2 2 2 4 4 7 5 4 4 9 7 14 9 8 4 16 8 25 11 4 1 9 2 13 4 2 1 2 1 3 2l-1 2h0c-3 2-7 2-10 1-8-1-17-6-24-11-11-7-22-15-30-25zm-180-47h1c-9 8-19 15-29 23l-12 10c-4 3-7 6-11 8-2 1-4 2-6 1h0c-2-1-2-1-2-3 1-3 4-5 6-7 8-7 18-11 28-17l25-15zm200 12c4 1 7 3 11 4 13 4 27 4 40 2l16-5c3 0 6-1 9 1 0 2 0 2-1 3-4 5-12 6-18 7-20 3-41 0-57-12zm-187 18h0v1c-14 12-31 21-48 30-6 3-11 7-18 5l-2-2v-2c1-2 3-3 4-4l15-6c9-3 18-6 27-10 8-3 15-7 22-12zm112 152c3 3 4 8 6 12 7 11 14 22 24 30 4 4 9 8 14 11 3 2 6 4 10 6 2 1 4 1 6 3l-1 1c-1 1-2 1-3 1-7 1-16-4-21-8-14-12-25-29-32-46-1-3-2-6-3-10zm-86-86h1v1c-11 9-23 16-36 22-11 4-24 10-35 5l-2-1c-1-2-1-2-1-4 2-1 3-2 4-2 4-1 9-1 14-1 6 0 12-1 19-3 13-4 25-9 36-17zm20 31h2l-1 1c-1 1-5 1-6 2l-18 5-28 10c-6 2-11 4-17 6-3 1-6 1-9 0h-1c-1-1-1-2-1-3 1-3 3-4 6-5 9-4 19-5 28-7l45-9zm71 8h0c10 15 21 27 35 37 8 5 16 10 24 14 4 1 8 3 12 5 0 1 1 1 1 2l-1 1v1c-4 2-9 0-12-1-6-2-11-5-15-8-8-6-15-12-21-19-9-9-18-20-23-32z"></path><path d="M451 313h1c-1 2-4 4-6 5-13 9-26 16-39 24-7 4-13 8-20 11-4 2-7 3-10 1-1 0-2-1-2-2s-1-1 0-2c0-3 4-5 6-6 7-3 14-6 21-8 17-7 34-13 49-23zm120 4c1 1 2 3 3 4l5 9c5 6 9 12 15 18 12 12 27 22 43 29 4 1 9 2 13 4 1 0 1 0 1 1l-1 2c-1 0-2 0-2 1-7 2-15-1-21-4-25-12-47-38-56-64z"></path></g><path fill="#f6eee8" d="M247 180h198c-7 4-14 7-21 10l-47 22c-10 6-20 11-29 19-7 6-13 13-17 22-3 8-5 17-3 26 1 4 3 8 4 12l8 19 26 63 58 146 48 121c4-14 6-29 7-43l7-53 19-156 6-52c2-10 2-21 4-31 1 3 1 6 2 9l2 17 7 65 19 155 13 88 50-120 58-137 28-68c5-11 11-22 14-33 2-8 0-17-2-25-10-25-34-38-58-49l-33-16-24-11h232L517 909 216 180h31z"></path><path d="M620 594l1-2c1-1 1-1 2 0l-1 6-2-1v-3z" class="C"></path><path d="M544 795h2c1 0 2 1 3 2v4c-1 1-2 2-4 2s-3 0-4-1c-1-2-1-3-1-4 1-2 2-3 4-3zm-56 0h1c2 0 3 0 4 2 1 1 1 2 0 4-1 1-1 2-3 2h-1c-2 0-2 0-3-1-1-2-2-3-1-4 0-2 2-2 3-3zm124-155h0c-5 11-13 22-20 32 1-3 3-6 4-9 5-8 10-16 16-23z" class="B"></path><path d="M321 188h49 14c3 0 6 0 9 1-19 2-38 1-57 1-3 0-8 1-12 0h0 5c1-1 5-1 7-1h-10c-2 0-4 0-5-1z" class="C"></path><path d="M620 597l2 1c-4 18-12 35-21 51 1-6 6-14 8-20 5-10 8-21 11-32zm135-292h0l-14 30c-4 8-8 17-13 24h0c6-19 16-37 27-54zm-421-81h1c-8 8-15 16-20 26-2 4-3 9-4 13h-1c-1-2-1-7 0-9 2-13 14-23 24-30zm208 511h4c1 0 3 2 4 3 1 2 2 4 1 6s-2 3-4 5h-5c-1-1-3-2-4-3-1-2-1-5 0-7 0-2 2-3 4-4zm-57 0c2 0 4 0 5 1 2 0 3 2 4 4 1 1 1 4 0 5-1 2-3 3-5 4-1 0-3 0-5-1-1 0-3-2-3-3-1-2-1-4 0-6s2-3 4-4z" class="B"></path><path d="M315 357l-34-69h1l35 69c-1 1-2 0-2 0z" class="C"></path><path d="M698 224c10 5 20 14 25 25s3 24-2 35c0 1 0 1-1 2 2-6 3-11 3-16 0-20-11-33-25-46zM515 797c1 0 3 0 5 1 1 1 3 3 3 4 1 2 0 4-1 6s-3 3-5 4c-2 0-3 0-5-1-1 0-3-2-4-4 0-2 0-5 1-7s3-3 6-3z" class="B"></path><path d="M676 402l1 1-38 87-2-2 39-86z" class="C"></path><path d="M514 713h1 4c1 0 4 1 5 3s1 5 0 7c0 3-3 4-5 6h-4c-2-1-4-2-5-4-2-1-2-4-2-6 1-3 3-5 6-6zm-1 127h4c2 1 4 2 5 4 2 2 2 5 1 7-1 3-3 4-5 6-2 0-4 0-5-1-2 0-4-2-5-3-2-2-2-5-1-7 1-3 3-5 6-6zm1-85c1-1 2-1 4 0 2 0 4 2 6 4 1 2 1 5 0 7 0 3-3 4-5 6h-4c-3 0-5-2-6-4-2-2-2-5-1-8s3-4 6-5zm123-267l2 2-53 120v-1l51-121zM433 660c13 19 22 41 29 63 4 11 8 23 10 34-2-3-3-8-4-12l-10-25-25-60zm169 3c-4 12-10 23-15 34l-16 38c-4 10-8 20-11 30v-1c0-1 1-3 1-4l3-11c5-20 12-39 21-58 3-6 5-11 9-16 2-4 5-8 8-12z" class="B"></path><defs><linearGradient id="A" gradientUnits="userSpaceOnUse" x1="545.635" y1="665.869" x2="613.865" y2="640.631"><stop offset="0" stop-color="#100b0c"></stop><stop offset="1" stop-color="#292c29"></stop></linearGradient></defs><path fill="url(#A)" d="M605 595c-4 19-14 37-21 54l-26 58c0-4 0-8 1-11 2-6 5-11 7-16l14-32 13-28c4-9 7-17 12-25z"></path><path d="M515 665c2 0 4 0 6 1 3 1 6 4 7 7s1 6 0 9c-2 3-5 5-8 6-3 0-6 0-9-1-3-2-5-4-5-7-1-3-1-7 1-10s5-4 8-5zM324 190l-89 1 9 19c10 21 21 41 28 63-1-1-1-3-2-4l-5-9-19-41-10-19c-3-3-5-7-6-11l91-1c1 1 3 1 5 1h10c-2 0-6 0-7 1h-5 0z" class="B"></path><path d="M443 600l34 80c10-26 15-52 19-78l3-24 1-7c0-2-1-4 0-5 0 8-1 16-1 24-3 34-10 69-21 102-2-4-4-9-6-14l-13-34-18-42 2-2z" class="C"></path><path d="M787 188h22c-1 4-3 7-5 11l-6 12-21 43h0l26-62c-6-1-13-1-19-1h-31l-62-1c-16 0-33 1-49-1l145-1zM511 528c2 4 1 10 1 14 2 20-1 38-4 57-3 21-8 42-13 63l-15 50-1 2c0-4 6-22 7-27l9-32c6-29 9-58 12-88l4-39zm84 76l-16 34-15 34c-2 7-5 14-9 19-3-6-4-14-6-21-9-33-15-68-17-102-1-4-2-8-1-12 0 1 0 2 1 3 0 4 1 9 1 13l4 27c3 18 6 36 11 54 2 8 5 18 8 26 6-8 10-19 14-28l24-48 1 1zm-76-95h1c0 14 3 28 4 42 4 34 7 68 14 102l7 29 5 19c2 4 3 8 3 13h0c-2-5-3-11-5-16-12-39-19-79-25-119l-3-20c-1-6-2-11-2-17-1-11 0-22 1-33zM323 397l1 1 108 241c-3-2-99-220-109-242zm-58-177l-7-8c2 5 3 11 5 17-3-4-4-10-6-14-3-4-6-7-9-11 1 3 2 5 3 8 1 2 1 3 1 5-4-8-6-13-6-22l130 1c-5 1-10 3-15 3-4 1-9 1-14 1h-27-68c2 4 5 7 8 10 0-2-1-3 0-5l3 1h-1v1l-1 1v2c-1 0-2 1-3 1 2 2 3 3 4 5 1 0 1 1 2 1 1 1 0 0 1 2v1h0z" class="B"></path><path d="M274 222c-1-1-1-3-2-4h3 1 0c1 2 4 4 6 6l36-1-32 8c7 11 13 25 18 37l46 104h-1l-45-95-15-31c-2-5-4-11-7-15-2-4-5-7-8-9z" class="C"></path><path d="M620 594l-1-1c2-5 4-11 6-16l14-34 54-122c10-22 19-45 31-66-6 22-16 43-26 64l-52 119c-8 18-16 35-23 54-1-1-1-1-2 0l-1 2zM315 357s1 1 2 0v1c6 9 10 19 14 29l29 63 82 193c1 3 8 18 8 21L315 357zm-47-120c3 5 6 10 8 15l14 27 31 66 11 23 21 46 81 185 29 71c4 9 8 17 10 26 2 3 2 7 2 11l-18-42-18-44-83-188-31-69-10-21-16-37c-11-23-23-45-31-69z" class="B"></path><defs><linearGradient id="B" gradientUnits="userSpaceOnUse" x1="433.047" y1="344.032" x2="327.275" y2="408.353"><stop offset="0"></stop><stop offset="1" stop-color="#252425"></stop></linearGradient></defs><path fill="url(#B)" d="M260 205h11 19l64-1c-4 2-8 4-12 5-6 1-12 1-17 1l-29-1c-10 0-21 1-31 0 1 1 3 4 5 4 7 1 16 0 24 0l29 1c4 0 9 0 12 1-14 3-28 2-43 3h-16-1-3c1 1 1 3 2 4l169 378-2 2-12-27-24-56-61-133-11-27-10-20-27-56-23-50-8-13h0v-1c-1-2 0-1-1-2-1 0-1-1-2-1-1-2-2-3-4-5 1 0 2-1 3-1v-2l1-1v-1h1l-3-1z"></path><defs><linearGradient id="C" gradientUnits="userSpaceOnUse" x1="576.601" y1="269.157" x2="764.004" y2="510.976"><stop offset="0" stop-color="#020202"></stop><stop offset="1" stop-color="#292625"></stop></linearGradient></defs><path fill="url(#C)" d="M781 207l6-7h-1c-7 1-15 0-23 0h-46c-13 0-26 1-39-1-5 0-9-2-13-3h82l30-1c6 0 13 0 19 1-2 6-5 12-8 18l-17 34-15 32-20 42-12 27c-3 7-9 13-13 21l-20 45-50 115-23 51-12 36c-5 12-11 24-16 36-2 3-3 8-6 11 5-15 12-30 18-45 3-9 5-19 8-28l45-105 50-111 13-26 55-116 15-28c-5 5-11 12-15 18-5 9-9 19-14 28l-27 57-20 43-9 18-38 84-37 84-12 29c-2 5-4 10-7 16-4 7-9 14-14 22l-1-1 174-381c-3 1-6 5-8 8-7 12-13 26-19 39l-36 79c-4 7-9 14-12 21l-16 34-1-1 78-172-36-7h42l5-5-33-1c-10 0-21 0-30-2 4-1 10-1 14-1l40-1c3 0 10 1 13 0 1-1 4-3 5-4l-49 1h-18c-3-1-7 0-11-1s-8-4-12-5l93 1 2-2s1 1 1 2h0l1 2z"></path><path fill="#f8f5f4" d="M777 205l2-2s1 1 1 2h0l1 2-5 6c1-3 2-5 1-8z"></path></svg>