<svg xmlns="http://www.w3.org/2000/svg" xmlns:xlink="http://www.w3.org/1999/xlink" xmlns:v="https://vecta.io/nano" viewBox="120 105 799 816"><!--oldViewBox="0 0 1024 1024"--><style>.B{fill:#1c1b1a}.C{fill:#e6e4e4}.D{fill:#dedcdc}.E{fill:#171717}.F{fill:#262525}.G{fill:#2d2d2c}.H{fill:#f0efef}.I{fill:#c2c1c0}.J{fill:#d2d1d2}</style><path d="M825 225l-1-1c-3-2-7-2-10-2 2-1 7-1 9-1 3-1 9 2 11 4h1-3l-1-1v2h0c1 1 1 1 1 2h-1c-1-1-2-1-3-2-1 0-2 0-3-1z" class="D"></path><path d="M843 233l-1-1c-2-6-9-9-14-11 0-1-1-1-1-1 4-1 8 1 11 3 4 3 7 6 9 10 1 1 2 4 3 5s0 0 0 1v1 1c0 5 1 11-1 16l-2-12v-1c0-2-1-3-1-5-1 0-1-1-1-1l-1-2c-1-1-1-2-1-3z" class="C"></path><defs><linearGradient id="A" x1="480.836" y1="511.882" x2="469.041" y2="499.461" xlink:href="#B"><stop offset="0" stop-color="#838282"></stop><stop offset="1" stop-color="#a1a0a0"></stop></linearGradient><linearGradient id="B" gradientUnits="userSpaceOnUse"></linearGradient></defs><path fill="url(#A)" d="M475 490l8 25-1-1c-1-1 0-1-1-2-2 2-3 4-5 5l-1 3-7-20h1c1-1 6-4 6-6-1-1 0-2 0-4z"></path><path d="M175 247c0-1 1-2 1-3 1-5 3-9 6-13 4-6 10-10 17-11 2-1 8-1 9 0-1 0-3 0-5 1-3 0-6 2-9 3-3 2-10 7-11 11v1c0 1 0 1-1 3 0 0-1 1-1 2l-1 3-1 2c0 3 1 12 0 14-1-1-1-2-1-3h0v-3c-1 2 0 4 0 6v1h-1v-2 1l-1 1c0-1-1-2-1-4v-1c-1-1-1-7 0-8v-1h0z" class="C"></path><defs><linearGradient id="C" x1="549.407" y1="518.498" x2="562.162" y2="495.287" xlink:href="#B"><stop offset="0" stop-color="#717070"></stop><stop offset="1" stop-color="#a2a1a1"></stop></linearGradient></defs><path fill="url(#C)" d="M557 492c0 1 1 1 2 2 2 0 3 2 5 3v-1l1 1-9 25c-1-1-2-2-3-2-2 0-4-1-5-2l9-26z"></path><defs><linearGradient id="D" x1="539.268" y1="548.306" x2="553.78" y2="520.129" xlink:href="#B"><stop offset="0" stop-color="#2c2b2b"></stop><stop offset="1" stop-color="#747373"></stop></linearGradient></defs><path fill="url(#D)" d="M548 518c1 1 3 2 5 2 1 0 2 1 3 2l-16 45c0-1 0-2 1-3v-1-1h0l1-1v-1-1h0l1-1v-1-1h0l1-1v-1-1l1-1-6-6-4 9v1l13-38z"></path><defs><linearGradient id="E" x1="498.315" y1="548.783" x2="471.837" y2="520.38" xlink:href="#B"><stop offset="0" stop-color="#2e2d2d"></stop><stop offset="1" stop-color="#858485"></stop></linearGradient></defs><path fill="url(#E)" d="M475 520l1-3c2-1 3-3 5-5 1 1 0 1 1 2l1 1c3 7 5 14 8 21 2 8 6 17 7 25h0l-3-9-1-1v1c-1 2-3 4-5 6 2 3 4 9 4 12-3-5-4-10-6-15l-12-35z"></path><path fill="#f8f7f7" d="M579 427c0-2 2-6 3-8l7-22 26-74 11-33c3-8 6-17 8-26 1-8 1-17-2-25s-9-15-16-19c-6-2-13-3-19 0-5 2-9 5-10 9-2 4-2 8 0 12 1 3 4 5 7 6 5 2 8 1 12-1h1c2 4 3 8 2 13 0 7-4 13-9 18s-13 8-21 7c-10 0-19-5-25-13-10-10-12-24-11-37 1-18 11-34 24-45 11-9 25-16 39-19 9-1 19-1 28-1h31 108 84 25 14c1 0 3 0 4 2 2 3-6 9-8 13-1 2-2 5-2 9l-4-1c-2-1-5 0-6 2-4 3-5 7-5 11-2 1-5 1-7 2s-6 4-7 7l5 5c8 9 11 22 10 33-1 13-7 26-17 35-9 8-20 13-33 12-9 0-17-4-23-11-6-6-8-13-8-21 1-8 4-12 10-17 1 0 2-1 3-1 4-2 8-1 12 1 1 1 3 2 3 3 1 2 1 4 0 6l-3 3c-2 0-5 0-7-1h-1 0c0 1 1 3 2 4 1 2 2 2 5 3 3 0 7 0 10-3 4-3 6-8 7-13 0-6-2-11-6-16-7-7-15-10-25-10 7-2 13-3 20-1 1 1 2 1 3 1 1 1 2 1 3 2h1c0-1 0-1-1-2h0v-2l1 1h3c3 2 5 5 8 8 0 1 0 2 1 3l1 2s0 1 1 1c0 2 1 3 1 5v1l2 12c2-5 1-11 1-16v-1-1c0-1 1 0 0-1-2-8-8-14-14-18-3-1-5-2-8-2 4-2 8 0 11 1 7 3 13 8 16 14 1-1-1-3-2-4-2-4-6-7-10-9-3-2-6-3-9-4h-1c-6-1-15 2-21 5-4 1-8 3-11 5-9 7-14 16-18 25l-21 47-33 78-95 226-45 107-42 100-26 68c-3 6-6 13-8 20l-12-33-82-199-81-194-64-152-18-41c-5-12-10-24-17-35-5-9-10-17-19-21s-21-8-31-4c-8 3-15 10-19 18v1h0 1c3-8 10-15 18-18 4-2 8-2 12-2-1 1-2 1-4 2-7 1-13 7-17 13-3 5-4 9-5 15h0v1c-1 1-1 7 0 8v1c0 2 1 3 1 4l1-1v-1 2h1v-1c0-2-1-4 0-6v3h0c0 1 0 2 1 3 1-2 0-11 0-14l1-2 1-3c0-1 1-2 1-2 1-2 1-2 1-3 5-7 9-11 18-14h0c4-1 8 0 12 0l-10 3c1 1 5-1 7-1 4 0 8 1 11 2-9 1-17 3-23 10-4 4-7 10-6 16 0 5 2 10 6 14 2 1 6 3 9 3 2-1 5-2 7-4 1-2 1-3 1-5l-1-1h0c-1 1-1 2-2 3-2 0-5 0-6-1s-2-3-2-4c0-2 0-4 2-6s6-3 9-3c5 0 10 3 13 7 4 5 6 11 5 17-1 8-5 15-11 20-7 6-17 8-27 7-12-1-24-8-31-18-9-11-13-26-11-40 2-12 7-19 15-27-2-3-3-5-6-6-2-1-4-1-6-2h-2l-1-4c-1-5-4-10-9-10h-4l-1 1c-1-4-2-7-4-10-1-3-10-9-8-12 1-1 3-2 4-2 6-1 11 0 16 0h26 83 106 33c9 0 18 0 27 1 15 2 29 9 41 19 13 11 22 28 23 45 1 14-2 27-12 37-6 7-15 13-25 13-8 0-15-2-21-7-6-6-9-13-9-21 0-3 0-7 2-10h1c4 2 9 3 14 1 3-2 5-4 7-8 1-4 0-8-2-11-2-5-7-8-11-9-7-2-14-1-20 3-8 4-13 12-15 21-1 5-1 10 0 15 3 14 9 27 13 39l33 94 9 27c2 5 4 10 5 15 2 4 20 55 20 57s-1 3 0 4c0 2-5 5-6 6h-1l7 20 12 35c2 5 3 10 6 15 0 2 1 5 2 6l6 19v-15l2-43 3-57c1-17 2-35 1-52 0-10-2-20-5-30-4-9-9-17-18-22 2-1 4-2 5-3 16-10 21-65 25-84l11 55c2 8 5 21 11 28 3 2 5 3 8 4-3 2-6 3-8 5-4 5-7 10-9 16-4 13-5 26-6 40-1 10 0 20 0 30l1 31 4 115 14-46 16-45 9-25-1-1v1c-2-1-3-3-5-3-1-1-2-1-2-2l22-65z"></path><path d="M372 364c-1-1-2-1-3-2v-1c2-1 3 0 4 0l-1 3z" class="H"></path><path d="M545 735l1 1h1v2l-1 3h-3l2-6zm220-526h0 1c-2 3-3 4-5 5-1-1-2-1-2-2l6-3z" class="B"></path><path d="M255 225l1-1c1 1 2 1 3 3 1 1 1 0 1 2-2 0-4-2-6-3l1-1zm10 7h1c2 1 3 2 4 4l-1 1c-1 0-1 0-2-1-1 0-2-2-3-3l1-1z" class="F"></path><path d="M492 705c1-1 2-1 3 0l1 6-2 1c-1-2-1-5-2-7z" class="E"></path><path d="M762 231c1-1 1-1 3 0 0 1-2 3-3 4l-2 1v-1l-1-1c1-2 2-2 3-3z" class="G"></path><path d="M753 216c1-1 2-1 3 0v1l-3 3h-1c-1 0-1 0-2-1 1-2 2-2 3-3z" class="B"></path><path d="M282 223h3c1 1 2 2 2 4l-1 1h-2l-3-3 1-2zm-23-15h1c3 0 7 3 9 4l-1 2-1 1c-3-1-5-5-8-7z" class="F"></path><path d="M272 216h1c1 0 2 1 4 2 1 0 1 0 1 2l-1 1h-1c-2 0-3-1-4-2v-3z" class="B"></path><path d="M540 688v-3c1-2 1-2 3-2 1-1 1-2 1-4 1 1 1 4 1 6v1c-1 1-2 2-3 2h-2z" class="E"></path><path d="M725 246c-2 0-3-1-4-3 0 0 0-1 1-2l3-3c2 1 2 1 3 2v1l-1 1c-1-1-1-1-1-3-1 1-1 2-2 3v2c1 1 1 2 1 2z" class="F"></path><path d="M725 246s0-1-1-2v-2c1-1 1-2 2-3 0 2 0 2 1 3l1-1v-1l1 2c0 2-1 3-2 4l-1 1-1-1z"></path><path d="M357 295c2 1 3 0 5 1 1 1 2 3 3 4h1v1l-2-1c-1-1-1-1-2-1l-3 3c-1-2-1-5-2-7z" class="F"></path><path d="M546 686v-1c1 0 1 0 1-1 2 1 4 0 4 1 0 2-1 4-2 6v-3h-1l-1 3c0-1-1-2-1-3v-2z" class="B"></path><path d="M343 300h-3c-2-1-3-2-3-3-1-2-1-3 0-4 1-2 2-2 3-2h0c0 2-1 2-2 3 1 2 3 3 3 5l2 1z" class="F"></path><path d="M274 239c1 0 2 1 3 1 1 1 2 3 2 5l-1 1c-1 0-2 0-3-1s-2-3-2-5l1-1z" class="B"></path><path d="M743 223c2-1 3 0 4 1 0 1-1 3-2 4-1 0-1 0-2 1l-3-3c1-2 2-2 3-3z" class="G"></path><path d="M292 230c1 0 2 1 3 1 2 1 2 2 2 4l-2 2h-2l-3-3c0-2 1-2 2-4z"></path><path d="M761 217c2 0 5 0 7 1h0c-2 1-3 2-4 3-1 0-2 1-3 1l-3 3h-1-1l1-1v-1l1-1c2-2 2-3 3-5z" class="C"></path><path d="M733 230h3c1 1 2 1 2 3-1 1-2 2-3 4h-2l-3-3c1-2 2-3 3-4z"></path><path d="M751 239s1 0 1-1c1 0 2 1 3 2 0 2-2 4-3 5s-1 1-2 1c-1-1-2-1-2-3 1-2 1-3 3-4z" class="E"></path><path d="M805 250c1 0 2-1 3-1 4-2 8-1 12 1h-6c-2 0-4 1-6 2v1c-1 0-2 1-2 2l-1-1 1-1-1-3z" class="C"></path><path d="M577 588v1 2 1c1 1 3 0 5 1v1c-1 1-2 1-2 1-1 1-1 0-2 1l-3 3v-1c1-2 1-3 1-4h-2v-1l-2 1h-1c1-2 1-2 2-3l3 1c0-1 0-2 1-4zm-128 3v-1l1 2h3 1c1 1 1 2 1 3h-4c-1 3 0 6 0 8-1-2-1-5-2-8h-1c0 1 0 1-1 2-1-1-2-2-2-3-1-1 0-1 0-2 1 1 2 1 3 1l1-2zm291-340h2c1 1 1 1 1 3-1 2-1 3-3 5h-1s-1-1-2-1c-1-1-1-2-1-3 1-2 2-3 4-4z"></path><path d="M356 290h-3v-1c0 1 0 2-1 3 0-1 0-1-1-2v-1l-1-1 1-1c1 1 1 1 3 1v-1c0-3-3-2-5-3v-1c1-1 2-2 3-4l3 3v1c0 1 0 3 1 4v3z" class="C"></path><path d="M285 251h1c2 0 4 3 5 4 0 2 0 2-1 4h-2c-2-1-3-3-4-5 0-2 0-2 1-3z" class="B"></path><path d="M308 276l2-2 2 1c0-1 1 0 1-1s1-2 1-2v-1l1-1 5 8h-1l-3-3v1 1h0l-3 3c-1-3-3-4-5-4z" class="C"></path><path d="M483 690c1 1 2 1 2 2s0 2 1 4c1 4 2 9 1 13-4-5-3-13-4-19z" class="D"></path><path d="M517 831c0 1 0 4 1 5l2-2h1c-1 4-2 8-4 10 0 2 0 4-1 6v-2c0-1 0-1-1-2v-1c0-5 0-9 2-14h0z" class="C"></path><path fill="#a7a5a6" d="M517 831c0 1 0 4 1 5l2-2h1c-1 4-2 8-4 10v-13h0z"></path><path d="M267 223c3 0 3 2 5 3 1 0 2 1 2 2 2 0 1-1 2 0 0 1 1 2 2 2l2 2h0l-1 1c-2 0-5-4-7-5l-1-1h0 0v2l1 1c-1 0-1 1-1 2l2 2h0c-1 0-2-1-3-1 0-1-3-3-3-4s2-3 2-4h-1l-1-2z" class="C"></path><path d="M297 264c2 0 2 0 3 1 2 1 3 2 3 4-1 2-1 2-3 4h-1s-1 0-1-1c-2-1-2-3-3-4 1-2 1-3 2-4zm43 27c2-1 2-1 4 0 1 2 2 4 2 5-1 2-2 3-3 4l-2-1c0-2-2-3-3-5 1-1 2-1 2-3h0z"></path><path d="M520 817c0 1 0 3 1 4v5c0 3 0 5-1 8l-2 2c-1-1-1-4-1-5 0-4 0-9 1-13v8c1-2 1-7 2-9z" class="I"></path><path d="M715 250h0c2 0 2 0 3 1s2 2 2 4c-1 1-1 2-3 3-1 0-2 0-3-1-2-1-2-1-2-2 0-3 1-4 3-5z"></path><path d="M521 834c2-3 1-5 3-7v-1c0-1 1-1 2-1-1 1-1 2-1 3-1 1-1 3-1 4-1 1-1 1-1 2 0 3-1 5-2 8l-4 12c0-1 0-3-1-4 1-2 1-4 1-6 2-2 3-6 4-10z" class="D"></path><path d="M705 261h2c1 0 2 1 3 1 1 2 1 2 1 4l-3 3-1 1c-1 0-2-1-3-1-1-1-1-3-1-4 0-2 1-3 2-4zm23 3c1 0 2 0 3 1s2 2 2 3c-1 2-2 3-3 4l-2 1-1-1c-2-2-2-2-3-4 1-2 2-3 4-4z"></path><path d="M313 258h-1c-1 0-1 0-2-1s-2-2-2-4c1-1 1-2 3-3 1 0 1-1 2 0 2 1 3 2 3 4 1 1 1 1 0 2 0 1-1 2-3 2h0z" class="F"></path><path d="M313 258c-1-1-1-2-1-3 1-1 0-1 1-1l1-1 2 1c1 1 1 1 0 2 0 1-1 2-3 2h0z" class="B"></path><path d="M301 239h1c1 0 3 0 4 1s2 2 2 4l-3 3c0 1-1 1-1 1-3-1-4-3-5-6 0-1 1-2 2-3zm381 97c1 0 3 0 4 1 2 1 2 1 2 3s-1 3-2 4h0c-3 1-4 0-7-1v-1c0-2 2-4 3-6z"></path><path d="M559 667h1l1 2v1c2 1 1 0 2 0v1s-1 1-1 2h0v1c0 1-1 2-1 2v2s-1 1-1 2l-1 3v2l-1 3h-1 0c-1-3-3-8 0-9l2-2c-1-1-2-1-2-3 2-1 2-1 3-3l-1-4z" class="C"></path><path d="M321 262h0c2-1 2-1 3 0 2 1 2 3 3 5-1 2-3 2-4 3l-1 1c-1 0-3-1-3-2-1-1-2-3-2-4 1-2 2-3 4-3zm-13 14c2 0 4 1 5 4 1 1 1 1 0 3-1 1-2 2-3 2h-3c-1-1-2-3-2-5s1-3 3-4zm42 68c-1 1-3 1-4 1-1 1-2 0-3 0-2-2-2-4-2-6 1-1 1-2 2-2 2-1 4 0 5 1 1 2 2 4 2 6zm345-68c1 0 1-1 2-1s3 1 3 2c1 1 2 2 1 3 0 2-1 3-3 4h-1c-1 0-3 0-4-1s-1-2-1-4c1-1 1-2 3-3zm23 0c1 0 2-1 2 0 2 0 3 1 3 2 1 1 1 2 0 3 0 2-1 3-3 4h-1c-1 0-3-1-4-2s-1-2-1-3c1-2 2-3 4-4zm-34 16h3c1 0 2 1 3 2s1 2 1 3c0 2-1 3-3 4h-1c-1 0-2 0-3-1s-2-2-2-3c0-2 1-4 2-5zm-353-17h2l3 3v4c-1 1-3 2-5 2h-1c-2 0-2-1-3-2-1-2-1-3 0-4 0-2 2-3 4-3zm337 48h2c2 0 3 1 4 2 1 2 1 3 0 5 0 1-1 2-2 2s-2 1-2 1c-2-1-3-2-4-3s-1-2-1-3c1-2 2-3 3-4zm39-33c1 0 1-1 1-1 2 0 3 1 4 2 2 1 2 2 2 3-1 2-1 3-3 5h-1c-1 0-3 0-4-1s-2-2-2-3c1-2 2-4 3-5zm-389-2h0c2 1 4 2 5 3 1 2 1 3 1 5-2 1-2 2-4 2h-2c-1 0-1 0-2-1s-2-3-2-6c1-1 2-2 4-3zm38 35l2-1c1 1 2 1 3 2s1 3 1 5-1 2-3 3h-4c-1-1-1-1-1-2-1-1-2-3-1-5 1-1 2-2 3-2zm321-16h1c2 0 4 1 5 3v4c-1 2-2 2-4 3h0c-3 0-4-1-5-3-1-1-1-2 0-3 0-2 1-3 3-4zm21-2h3c1 0 3 1 4 2v3c0 2-1 3-3 4h0c-2 1-3 1-5 0-1-1-2-2-2-4s2-3 3-5zm-438-30l-15-35 18 15-1 1-12-10 12 27-2 2zm68 29h1l3 3c1 2 1 3 0 4-1 2-2 2-4 3h-2c-1-1-2-3-3-4 0-2 0-3 1-4s2-2 4-2z"></path><path d="M348 306h2c1 0 2 1 3 2 2 1 2 3 1 5-1 1-1 2-3 3h-1c-2 0-3 0-4-2-1-1-2-3-1-5 1-1 1-2 3-3z"></path><path d="M689 321h2c2 0 3 1 5 2 0 1 1 2 0 3 0 2-1 3-3 5h-3c-2-1-3-2-4-4 0-2 1-4 3-6z" class="B"></path><path d="M334 321h1c1 0 3 0 4 1 2 1 3 3 3 5-1 2-1 2-2 3s-3 1-4 1-2-1-3-1c-1-2-1-4-1-5 0-2 1-3 2-4z"></path><path d="M532 699l16-52c0 1 1 3 0 4 0 2 0 3-1 5h0-1c0 1 0 1-1 2v1 1l-1 1v1h0v1c-1 1 0 1-1 2 0 1 0 1-1 2v1l1 1v1 1c-1 0-1 1-1 2v1 1l1 1-3 3v1l1 1c1 0 0 0 1 1-2 1-2-1-3 2 0 1 0 1-1 1 0 1 0 2-1 3 0 3-1 6-2 9 0 2 0 3-1 5l-1-1c0-1 0-2-1-2z" class="C"></path><path d="M619 208s1 0 1 1h1 1v1c0-1 0-1 1-2l1 1v1c2 0 2 1 3 2 3 1 7 6 9 9v1l3 6 4 7c1 2 2 4 2 6v1c1 1 1 0 1 2h0v5l-1-1v-3l-1-1-1-4c0-2-1-3-2-5l-4-8c-1-3-7-8-9-10h-1l-2-2c-3-1-6-3-8-5h0 2v-2z" class="H"></path><path d="M348 338c0-3-1-1-1-3h1l-1-2v2l-1-1v-3c1 0 2 1 2 2h1c0 1 0 1 1 2v-2c2 3 3 5 4 8 1 2 2 3 2 5s1 5 2 7c1 4-1 6-3 9l-4-13c0-2-1-3-1-4v-1c0-2-1-4-2-6zm291-121h2c1 1 0 1 1 2v-1l1-1c0 1 0 2 1 2 1 4 3 9 6 12h0c0-1 0-2 1-3l1 1v2 2c1 0 1 0 1 2h0c0 1 0 1 1 2v1s-1 1-1 2c-1 1-1 1-1 2l-3 3c0 1 0 2-1 2 0 1 0 2-1 2h0 0v-2c1-2 1-5 1-7l-1-3v-1l-1-4c-2-5-4-11-7-15z" class="C"></path><path d="M358 190h1c0 1 0 3-1 4l1 1h3v1c-3 2-7 2-10 3 1 1 4 2 5 4v2h-2c-2-2-3-3-5-3l-1-1c-3-1-7-5-10-6-1-1-1-1-2-1 6-5 14 1 21-4h0z"></path><path d="M505 798c0-1 1-1 1-2h0c1-4 1-7 2-10v1l3 48-1 1h0l-5-23c-1-4-2-9-3-13 1 1 1 1 2 1v-1l1-1v-1z" class="B"></path><path d="M505 799c1 4 0 7 1 10 0 1-1 2-1 4-1-4-2-9-3-13 1 1 1 1 2 1v-1l1-1z" class="G"></path><path d="M354 275l1-2h1c3 3 4 7 6 11 3 4 7 6 9 10-1 1-2 1-4 1s-3-1-4-2l-1 1v2c-2-1-3 0-5-1l-1-5v-3c-1-1-1-3-1-4v-1l-3-3c0-1 1-2 2-4z"></path><path d="M354 275c2 4 2 8 2 12-1-1-1-3-1-4v-1l-3-3c0-1 1-2 2-4z" class="D"></path><path d="M719 181h2c-5 2-10 4-14 6l-12 6c-3 1-6 1-9 3-2 1-6 6-8 6l-2-1c-1 0-3 3-5 3l-1-1c1-2 2-3 3-4v-1h-2 0c-3 0-4-1-6-3 1-2 2 0 4-1v-4c1-1 1 0 2 1 3 2 11 0 14 0 2 0 3 1 5 2h0c7 0 12-5 18-7 4-2 8-3 11-5zm-45 91h1c1 2 3 4 3 7v1l-3-6c-1 6 0 10-1 16 0 4-2 8-4 12 0-2-1-4-2-5l-3 2-2 1v-1l2-1c2-2 2-3 2-5v-1l-3 2c-2 1-3 0-5 0v-1c2-4 6-7 9-10 2-4 3-8 6-11zM451 603c2-1 0-3 1-5l7 10c4 6 7 11 7 19-1-1-1-2-2-2v-1 2 1c1 0 2 0 3 1v1c0 1 1 1 1 2h-1c-1 0-1-1-2-1l-2-1c-1 2-1 4-1 6-1-1-1-2-1-4 0-1 0-1-1-2l-1-1-3 2h0c-1-9-4-18-5-27z"></path><path d="M536 745l2 2c0-1 0-2 1-3-1 5-2 10-4 15l-6 18c-2 7-5 14-6 21-1 1-1 2-1 4 0 1 0 1-1 2h0l-1 2c-1 2 0 6 0 8l-1 1 1 2c-1 2-1 7-2 9v-8l1-35 1 1v7l2-5h0l14-41z" class="B"></path><path d="M523 798c2-2 2-6 3-9l6-14 11-34h3c-2 7-4 14-7 21l-10 24 1 1c0 2 0 5-2 8-1 2-2 6-2 8v1 1c-1 1-1 2-1 3v3l-1 1v3 1c0 2-1 4-1 7v1l-2 2v-5c-1-1-1-3-1-4l-1-2 1-1c0-2-1-6 0-8l1-2h0c1-1 1-1 1-2 0-2 0-3 1-4z" class="E"></path><path fill="#a7a5a6" d="M521 821v-4c0-3 1-6 1-9 1-2 2-4 2-7 1-4 4-7 4-11 0-2 1-3 1-4l1 1c0 2 0 5-2 8-1 2-2 6-2 8v1 1c-1 1-1 2-1 3v3l-1 1v3 1c0 2-1 4-1 7v1l-2 2v-5z"></path><path d="M379 406c2 1 3 7 4 10 1 4 3 8 5 12 1 3 3 6 4 9 1 2 1 6 3 7 1 1 3 2 4 3-2 3-3 5-6 6-1 1-2 1-3 1-2-3-3-6-3-8l-5-17c-2-4-4-8-4-12 2 0 2 0 4 1v-1c0-4-2-8-3-11zm271 6c1 2-1 4 0 6-2 9-5 17-8 25-1 3-1 8-3 10 0 1-1 1-1 1-3 0-4-1-6-3-1-1-2-2-2-4l2-2c5-4 12-29 13-30l1 2c1 1 1 1 2 0l2-5zm-79 187v2c1 2 4 1 5 2-2 4-2 7-3 11-1 5-3 10-3 15v3h-1l-2-2h0l-3 5h-1l1-2v-3c0-1-1-2-2-2l-5 4c1-12 10-22 14-33z"></path><path d="M582 635h0c1 0 1 0 2-1-1 1-1 1 0 2l-37 102v-2h-1l-1-1 23-66c5-11 8-23 14-34z" class="E"></path><path d="M700 213h1c1 1 1 2 1 3 0 4-3 8-5 11-3 5-7 9-11 14-5 6-9 15-16 20l1-1c4-7 8-15 11-23-2-1-4-2-5-3 1-6 11-10 16-13 3-2 5-5 7-8zm-373 1h1c1 2 3 5 6 6 5 4 13 7 17 12 0 1 1 2 0 3l-5 3c2 8 6 15 10 22l2 3h0l-15-18c-6-7-15-16-17-26-1-2-1-3 1-5z"></path><defs><linearGradient id="F" x1="476.074" y1="494.719" x2="456.453" y2="464.589" xlink:href="#B"><stop offset="0" stop-color="#a1a1a1"></stop><stop offset="1" stop-color="#d1cfcf"></stop></linearGradient></defs><path fill="url(#F)" d="M455 433c2 4 20 55 20 57s-1 3 0 4c0 2-5 5-6 6h-1l-12-37c-1-1-1-1-1-2l-1-2v-1-1c-1-1-1-1-1-2-1-1 0-1-1-2l-5-15 1-1c1 1 1 1 1 2h0l2 7 1 1c1 2 1 4 2 5v1c0 1 0 1 1 2v1 1l1 1v2c1 0 1 1 1 2h0c1 1 1 1 1 2v2c2-1 3-3 4-4l1-1h0v-3h0v-1l-1-1v-1-1l-1-1v-1l-4-10c0-1 0-4-1-5l-1-1v-1-2h0z"></path><defs><linearGradient id="G" x1="557.124" y1="493.327" x2="576.618" y2="457.224" xlink:href="#B"><stop offset="0" stop-color="#a3a1a1"></stop><stop offset="1" stop-color="#cfcece"></stop></linearGradient></defs><path fill="url(#G)" d="M579 427c0 2 0 3-1 5v2c-1 1-1 1-1 2v1c-1 0-1 2-2 3v2 1l-1 1h0v1l-1 1v1 1c-1 1-1 2-1 3l-1 1v1 1l2 1c0 1 0 1 1 2h1l1 1c1-2 2-5 3-6l2-6v-1c0-1 0-1 1-2h0c0-2 1-3 1-4 0-2 1-3 1-4s0 1 0 0l1-2 2-7c2-4 0 1 1-2v-1l1 1h1l-1 1v1l-4 13c-1 1-1 2-2 3l-3 10-2 5-2 7-8 22c-1 4-2 7-3 11l-1-1v1c-2-1-3-3-5-3-1-1-2-1-2-2l22-65z"></path><path d="M641 379l4-16c-3 1-6 3-9 2-1 0-1-1-1-2 0-2 0-3 2-4 2-2 5-2 8-3 1-1 1-2 2-2l6-9c1 5 3 16 7 19v1c4-1 7-8 9-11l5-13c1 1 0 3 0 4-2 3-4 9-3 12 0 1 1 3 2 4l5-15c0 4-2 8-2 11-2 6-3 16-7 21-1 1-2 1-3 1-1 1-2 0-3 0l-1 1c0-2 2-7 3-10h-1c-1 1-2 1-4 1-2-1-5-3-7-5-2 5-3 9-5 13-1 3-3 5-5 8 1-2 1-3 1-5-1-1-1-2-3-3z"></path><path d="M502 690v-11l-1-19h22v31h-1v-1h-15c-1-1-3 0-5 0z" class="C"></path><path d="M262 273l27 57 23 59 29 68 14 34 25 61 49 115 16 38 11 27 17 39c2 5 5 12 6 18L260 275l2-2zm1-18c13 13 27 27 37 43 7 11 12 24 18 36l29 65 41 98 55 133 25 67 6 17c1 2 1 5 2 7l11 27v2h-3L334 374h0c0 1 1 3 1 4 1 2 2 4 2 7v1c-3-10-9-19-13-29l-7-20c-4-12-10-26-17-37-10-16-24-30-38-44l1-1z" class="B"></path><path d="M502 690c2 0 4-1 5 0h15v1 6c0 3-1 18 1 20l-2 8c-2 15 1 30-1 46-1-2-1-3-1-4v-5c1-2 1-4 1-5-1-1-1-2-1-3h1v-7-10c0-1 0-2-1-3l-1 1h-3 0v1l-1-1-1 1h-1l-1 1h-1-1-2-1v2h1v6c0 1-1 0 0 1v3 6c1 1 1 0 1 1 0 2 0 3-1 5v1l1 13-2-1v-1-8l-1-1-1 1c0-3 1-6 0-8s-1-7-1-8l-1-14-7-35v-4c1-1 1-2 1-3l7 30h1l-1-4v-1-22c-1-2-1-4-1-6z" class="I"></path><path d="M502 690c2 0 4-1 5 0h15v1 6l-1 2v3h0l-4 1h-13c0-3 1-11-1-13-1 1 0 4 0 6-1-2-1-4-1-6z" class="D"></path><path d="M496 693l7 30h1l-1-4 1-3v4c1 2 0 5 1 7l1 25c1 3 0 6 1 10l1 13-2-1v-1-8l-1-1-1 1c0-3 1-6 0-8s-1-7-1-8l-1-14-7-35v-4c1-1 1-2 1-3z" class="E"></path><path d="M545 686h1v2c0 1 1 2 1 3 0 10-4 21-2 31l10-29c1 2-8 28-10 31 0 2 0 3-1 5l-5 15h0c-1 1-1 2-1 3l-2-2-14 41h0l-2 5v-7l-1-1c0-4 0-8 1-12 2-16-1-31 1-46l2-1 1-3 1 2 2-5 1 1h0c3-3 5-5 8-7 3-3 3-8 3-12l1-10v-2h2c1 0 2-1 3-2z"></path><path d="M527 730c0-2 0-3 1-5h1c1 2 1 8 0 11-1 1-1 3-1 4-1 1-1 3-1 5-1-1-1-2-1-3l1-12z" class="D"></path><path d="M545 686h1v2c-2 6-3 14-6 20v-10c0-2 1-6 0-8v-2h2c1 0 2-1 3-2z" class="C"></path><path d="M529 736h0c2-3 2-7 4-10 2 6 0 11-1 17-1 1 0 3 0 5 0 1 0 1-1 2v2c0 1 0 1-1 2v1 1s-1 1-1 2 0 3-1 4c0-1-1-1-1-2v-1c-1 1 0 0-1 0v-1h-2l2-16c0 1 0 2 1 3 0-2 0-4 1-5 0-1 0-3 1-4z" class="I"></path><path d="M532 748c1-4 0-8 2-12 2-2 3-4 4-6h2c0 1 0 3-1 5l-3 10-14 41v-8c0-3 1-5 1-8l1-12h2v1c1 0 0 1 1 0v1c0 1 1 1 1 2 1-1 1-3 1-4s1-2 1-2v-1-1c1-1 1-1 1-2v-2c1-1 1-1 1-2z" class="D"></path><path d="M524 758h2v1c1 0 0 1 1 0v1c0 1 1 1 1 2s0 2-1 3v2 2c0 1 0 1-1 2v2c0 1 0 1-1 2 0 1-1 3-2 4 0 0 0-1-1-1 0-3 1-5 1-8l1-12z" class="J"></path><path d="M525 723l2-5 1 1c-1 4-2 7-2 11h1l-1 12-2 16-1 12c0 3-1 5-1 8v8h0l-2 5v-7l-1-1c0-4 0-8 1-12 2-16-1-31 1-46l2-1 1-3 1 2z" class="E"></path><path d="M525 723l2-5 1 1c-1 4-2 7-2 11-1 3 0 6-1 8l-2 25c-1 1 0 4-1 5v-4l1-13c0-4-1-8-1-13h0l3-15z" class="D"></path><path d="M582 635l26-65 65-152 35-78c6-15 12-31 21-44 7-11 15-20 24-29 8-10 18-19 28-27L586 699c1-3 3-7 4-10l13-31 25-60 44-105 65-158 40-90c-16 13-31 28-43 45-13 21-22 44-32 66l-36 82-11 25-12 29-28 66-23 56c-3 7-5 15-8 22-1-1-1-1 0-2-1 1-1 1-2 1h0zm-103 67c-1-3-1-6-1-9-1-3-4-4-4-8h1c1-1 1-1 2-1h1v-5c-1 0-1 0 0-1 0 2 1 3 1 4 0 3 2 1 4 2 0 0 1 0 1 1 1 1 1 1 0 3l-1-1c-2 1-1 2 0 3 1 6 0 14 4 19a30.44 30.44 0 0 0 8 8c0-2 0-3-1-5l2-1c1 8 3 14 3 22h0c1 1 1 1 1 2l1 1 1-1 1 14c0 1 0 6 1 8s0 5 0 8l1-1 1 1v8 1l2 1c1 4 0 9 0 12v-1c-1 3-1 6-2 10h0c0 1-1 1-1 2v1l-1 1v1c-1 0-1 0-2-1l-3-8-15-42h3v-2l-11-27c1 1 2 1 2 2l2 4v1-2h0v-1l-1-1v-1s0-1-1-1l1-1v-2c-1-1-1 0-1-1v-1-1s-1-1-1-2l-2-6-2-6 1-1s0 1 1 2l3 9v2c1 1 1 2 1 3 0 0 0 1 1 2h0v-7-2c0-1-1-1-1-2v-1-5z"></path><path d="M479 702v-1-1c-1-4 0-8-3-12h2 1 2c2 6 0 17-1 24v-2c0-1-1-1-1-2v-1-5z" class="D"></path><path d="M496 748c-2-7-3-15-2-22h1l1 2 3 5c0 2 1 4 1 7l-2 1-1-4c0 3 1 5 1 8l-1 1h0c0 1 0 1-1 2z" class="J"></path><path d="M497 737v-2c-1 0-1-1-1-1 0-2 0-3-1-4h0l1-2 3 5c0 2 1 4 1 7l-2 1-1-4z" class="H"></path><path d="M499 733h0c1 1 1 1 1 2l1 1 1-1 1 14c0 1 0 6 1 8s0 5 0 8l1-1 1 1v8 1l2 1c1 4 0 9 0 12v-1c-1 3-1 6-2 10h0c0 1-1 1-1 2-2-5-1-11-1-17l-1-1v-1l-1-1v-2c1-3-1-8-2-11l-4-17c1-1 1-1 1-2h0l1-1c0-3-1-5-1-8l1 4 2-1c0-3-1-5-1-7h0z" class="F"></path><path d="M499 733h0c1 1 1 1 1 2l1 1 1-1 1 14c0 1 0 6 1 8l-1 4-5-20h0l2-1c0-3-1-5-1-7h0z" class="D"></path><path d="M496 748c1-1 1-1 1-2h0l1-1 4 21c1 5 2 10 2 15l-1-1v-1l-1-1v-2c1-3-1-8-2-11l-4-17z" class="I"></path><path d="M476 721c1 1 2 1 2 2l2 4v1-2h0v-1l-1-1v-1s0-1-1-1l1-1v-2c-1-1-1 0-1-1v-1-1s-1-1-1-2l-2-6-2-6 1-1s0 1 1 2l3 9v2c1 1 1 2 1 3 0 0 0 1 1 2h0c0 4 1 8 3 11 9 18 14 38 20 57 1-3-2-6-2-9l-9-29c-2-7-4-13-5-20h1c2 0 2 2 3 3 1 3 1 5 2 8l2 12 7 24v2l1 1v1l1 1c0 6-1 12 1 17v1l-1 1v1c-1 0-1 0-2-1l-3-8-15-42h3v-2l-11-27z" class="D"></path><path d="M499 792l1-1c1-1 1-2 2-3l2 12v1c-1 0-1 0-2-1l-3-8z" class="E"></path><path d="M487 748l15 40c-1 1-1 2-2 3l-1 1-15-42h3v-2z" class="F"></path><path d="M641 379c2 1 2 2 3 3 0 2 0 3-1 5 0 2-1 3-1 5 0 1-1 3-2 4v1 1c-1 1-1 2-2 3 0 2-1 3-1 4l-1 2v1c0 1-1 2-1 3s-1 3-2 4c0 1-1 2-1 4l-1 1-4 14c0 1 0 2 1 3l4 3c0 1 0 2-1 4l-1 1h-1c-2-1-4-2-7-2-4 7-6 16-9 24l-18 47c-2 5-4 10-5 16-1 1-1 2-1 4 1 1 1 3 3 4h1s-1-1-1-2c0-2 8-12 10-15 0 2-1 3-1 4l3-5h0v-1c1 1 0 2 1 3 0 1 2 3 3 5h0c-2-1-3-2-3-4-1 8-1 16-4 23-1 1-1 3-3 4h-2c-2 0-3-3-4-4-1 0-1 1-2 2 0-2 2-3 1-4-2-1-4-3-6-3-5 9-8 19-11 28l-17 51-7 20c-1 2-2 5-2 7l-16 52-5 19-2 5-1-2-1 3-2 1 2-8 3-16 1-5 21-68 2-7 20-55c3-10 7-20 9-30-2 1-4 3-7 3-1-1-2-1-2-2-1-2-1-3-1-4 1-2 1-2 3-3 1 1 2 1 3 2 0 1 1 1 2 1 1-1 2-2 4-3 2-2 4-6 6-9 3-7 6-16 9-23l15-39c2-6 6-14 6-19v-1c-1 0-1 0-2 1s-4 2-6 1c-1 0-3-2-4-3 0-1 0-3 1-4 0-2 1-2 3-2 1 1 2 2 3 2 2 1 3 1 4 0 2-1 3-3 5-4 8-11 11-27 17-40-1-1 1-6 2-7l1-4z"></path><path d="M618 443h1c0 5-3 10-4 15l-22 58c-1 4-3 8-4 13h-1c0-2 0-5 1-7 0-4 2-8 3-11l10-25 16-43z" class="D"></path><path d="M641 379c2 1 2 2 3 3 0 2 0 3-1 5 0 2-1 3-1 5 0 1-1 3-2 4v1 1c-1 1-1 2-2 3 0 2-1 3-1 4l-1 2v1c0 1-1 2-1 3s-1 3-2 4c0 1-1 2-1 4l-1 1c-2 3-4 10-5 14-2-7 1-12 3-19l6-16 3-9c-1-1 1-6 2-7l1-4z" class="H"></path><path d="M552 621l17-48 7-19c2-4 3-7 4-10 0 3-1 7-2 10l-8 23-21 60c0 1 0 2 1 3-1 2-2 5-2 7l-16 52-5 19-2 5-1-2-1 3-2 1 2-8 3-16 1-5 21-68 2-7h2z" class="C"></path><path d="M527 696c1 0 1 0 2 1h1l-2 8-2-4 1-5zm23-75h2l-2 7h-2l2-7z" class="B"></path><path d="M526 701l2 4-3 16h-1l-1 3-2 1 2-8 3-16z"></path><path d="M525 721c2-2 3-13 4-17l3-12 17-55c0 1 0 2 1 3-1 2-2 5-2 7l-16 52-5 19-2 5-1-2h1z" class="B"></path><path d="M548 628h2l-20 69h-1c-1-1-1-1-2-1l21-68z" class="F"></path><path d="M708 397l27-63 2 1-65 158-44 105-25 60-13 31c-1 3-3 7-4 10v3c-1 1-2 4-3 6l-1 1-1 4-2 3-2 7-2 2-2 5v1c0 1-1 2-1 3l-1 2c-1 1-1 2-2 4l-1 2c0 1 1-1 0 1h0c-1 3-2 5-3 8l-1 2c0 1 0 0-1 1l-1 1v1l-1 3c-1 2-2 3-2 5l-2 5-1 2c0 1 0 0-1 2v1c-1 1-1 2-2 3h0v1l-7 16v1c-1 1-1 2-2 3h0v-1-2l-1-1h0l2-5 1-3c1-2 1-2 1-3 1-4 3-8 4-11 2-4 4-8 6-13l10-29 14-33 72-176 18-44 14-33 20-47h3z" class="C"></path><path d="M685 444l20-47h3l-20 48-3-1z" class="E"></path><path d="M547 783c1-4 3-8 4-11 2-4 4-8 6-13l10-29 14-33 72-176 18-44 14-33 3 1-141 338z" class="B"></path><path d="M350 345c0 1 1 2 1 4l4 13c2-3 4-5 3-9-1-2-2-5-2-7 2 4 8 19 12 20 2 0 3-1 4-2l1-3h0c2-3 3-11 6-13 3 1 4 7 7 9s7 1 9 5c1 2 0 2 0 3-2 1-3 2-4 1-2 0-4-1-6-2l3 13c1 2 1 4 1 6 2 6 4 13 7 19 3 9 5 19 11 26 1 1 2 3 3 4 1 0 1 0 2 1h0c3 1 6 0 8-2 2 1 2 1 3 2 0 2 1 3 0 4-1 2-2 3-3 3-3 1-7-2-9-4 0 3 1 6 1 8 2 5 4 9 5 14l12 32 12 32c1 2 3 8 5 9s5 1 6 1c1-1 1-2 3-1 1 0 2 1 3 3 0 2-1 2-2 3-2 1-3 1-5 0l-3-1v1c-1 3 2 8 3 12l6 19 18 54c2 6 4 11 5 16 3 6 4 12 6 18 4 12 8 25 10 37 0 1 0 2-1 3v4l7 35-1 1-1-1c0-1 0-1-1-2h0c0-8-2-14-3-22l-1-6c-1-1-2-1-3 0 0-1 0-3-1-4l-2-12-11-35-36-114c-3 1-5 3-7 3h-1v3c-2 2-3 4-5 4-1 0-1 0-1-1-4-4-6-27-7-33 6 6 10 14 15 21 2-1 2-3 3-4-2-10-6-20-10-29l-22-61-7 2c-2 0-2-1-3-2s-1-2-1-3c4-2 5-4 7-7-3-4-5-10-6-14 0-1 0-1-1-2v-1-1l-1-4-3-6c-1-2-2-4-2-7-1-1-2-2-2-4 0-1-1-2-1-4h-1v-3c-4-6-6-13-8-20l-4 3c-2 1-6 2-8 1h-2c1 1 2 3 2 5 1 1 0 3 1 4 1 3 3 7 2 9l-3-9h-3-2c-5-4-11-29-11-35z"></path><path d="M396 415l3-1c2 6 5 12 4 17h-1c-2-4-3-9-5-12 0-1 0-1-1-2v-1-1z" class="D"></path><path d="M386 387c-1-2-1-3-1-5l2-1c1 1 1 1 1 2l11 31-3 1-1-4-3-6c-1-2-2-4-2-7-1-1-2-2-2-4 0-1-1-2-1-4h-1v-3z" class="H"></path><path d="M479 650l-34-108c2 2 3 8 4 11l30 87v-3l1 1h0c3 6 4 12 6 18 4 12 8 25 10 37 0 1 0 2-1 3v4l7 35-1 1-1-1c0-1 0-1-1-2h0c0-8-2-14-3-22l-1-6c-1-1-2-1-3 0 0-1 0-3-1-4l-2-12-11-35 1-1v-3z" class="C"></path><path d="M479 650l16 55c-1-1-2-1-3 0 0-1 0-3-1-4l-2-12-11-35 1-1v-3z" class="B"></path><defs><linearGradient id="H" x1="481.919" y1="666.565" x2="492.529" y2="665.441" xlink:href="#B"><stop offset="0" stop-color="#0f1115"></stop><stop offset="1" stop-color="#27221e"></stop></linearGradient></defs><path fill="url(#H)" d="M479 640v-3l1 1h0c3 6 4 12 6 18 4 12 8 25 10 37 0 1 0 2-1 3v4l-16-60z"></path><path d="M262 273l-12-27 12 10c14 14 28 28 38 44 7 11 13 25 17 37l7 20c4 10 10 19 13 29 0 1 2 4 2 6h-2l1 1c0 1 0 2 1 3v1l1 1c0 2 0 3 1 4l1 3s0 1 1 2c0 1 0 1 1 2v1 1h0c-1-1-1-2-2-3v1c-1-1-2-7-3-8l-1-1v-2l-3-7-2-5c-1-3-2-6-3-8l-3-6c-1-2-1-3-2-4l-2-5-5-10c0-1-1-2-1-2-9-23-18-45-34-64h-1l2 3c-1 1-1 1-2 1l-8-15 5 14 38 84 44 107 101 247c3 6 5 13 8 19 4 10 9 20 11 30 1 1 1 1 1 2 0 2 0 3 1 5v2h0-1l-2-8v1c2 10 7 19 11 29h-1l-8-18v1c-1 1-1 1-1 2-1-1-1-1-1-2l-1-1v-1c-1-6-4-13-6-18l-17-39-11-27-16-38-49-115-25-61-14-34-29-68-23-59-27-57z" class="H"></path><defs><linearGradient id="I" x1="293.172" y1="389.264" x2="335.828" y2="380.236" xlink:href="#B"><stop offset="0" stop-color="#040a08"></stop><stop offset="1" stop-color="#332b2b"></stop></linearGradient></defs><path fill="url(#I)" d="M356 483c-3-4-4-9-6-12l-9-22-33-81-15-31-15-34c-6-13-11-26-15-39l10 20 11 23 17 37 14 34 23 56 12 28 5 12c0 2 1 4 2 5 0 1-1 2 0 3s1 2 2 4h-1l-1-3-1-1v1z"></path><path d="M357 479l67 164 16 37c3 8 5 17 9 24 2 2 4 7 5 10l6 13 2 1c3 6 5 13 8 19 4 10 9 20 11 30 1 1 1 1 1 2 0 2 0 3 1 5v2h0-1l-2-8v1c2 10 7 19 11 29h-1l-8-18h0c-5-17-12-33-19-49l-17-42-50-120-28-67-12-29v-1l1 1 1 3h1c-1-2-1-3-2-4s0-2 0-3z" class="B"></path><path d="M449 704c2 2 4 7 5 10l6 13 2 1c3 6 5 13 8 19 4 10 9 20 11 30 1 1 1 1 1 2 0 2 0 3 1 5v2h0-1l-2-8v1c-1 0-5-13-6-14l-18-46c-2-5-5-10-7-15z" class="D"></path><g class="C"><path d="M273 284c2 1 2 3 3 5 2 4 4 9 7 14 0-4-4-9-4-13h0l38 84 44 107 101 247-2-1-6-13c-1-3-3-8-5-10-4-7-6-16-9-24l-16-37-67-164c-1-1-2-3-2-5l-5-12-12-28-23-56-14-34-17-37-11-23z"></path><path d="M279 290l-5-14 8 15c1 0 1 0 2-1l-2-3h1c16 19 25 41 34 64 0 0 1 1 1 2l5 10 2 5c1 1 1 2 2 4l3 6c1 2 2 5 3 8l2 5 3 7v2l1 1c1 1 2 7 3 8v-1c1 1 1 2 2 3h0v-1-1c-1-1-1-1-1-2-1-1-1-2-1-2l-1-3c-1-1-1-2-1-4l-1-1v-1c-1-1-1-2-1-3l-1-1h2c0-2-2-5-2-6v-1c0-3-1-5-2-7 0-1-1-3-1-4h0l150 376 15 42 3 8c1 4 2 9 3 13l5 23h0l1-1v1c0 3 2 7 1 10v8l-4-8c-1-2-2-4-1-6h0v-2c-1-1-1-2-2-2-1-2-1-3-1-6 1-1 0-1 0-1l-1-1v-1 1h-2v1h0c-1-1-2-3-2-5-1 0-1-1-1-1-1-2-2-4-3-5v-2l-1-1v-4c-1 0-1-1-1-2-1-1-1-2-2-3 0-2-1-3-2-5h1v-1c-1-2-1-4-2-6-4-4-4-10-6-15 0-1 0-1-1-2-2-10-7-20-11-30-3-6-5-13-8-19L361 481l-44-107-38-84z"></path></g><path d="M467 730h1v1c1 0 1 0 2-1l5 14h-2l-6-14z" class="B"></path><path d="M447 670h0c2 3 3 7 5 11 0 1 1 3 2 4l-1-3c0-2-1-3-2-5v-1c-1-1-1-3-1-5l2 6 5 15-1 2-6-16c-1-3-3-5-3-8z" class="D"></path><path d="M475 731l10 26h-1-1c-1 0-1-1-2-1l-8-22 2-3z" class="F"></path><path d="M454 676l21 55-2 3-16-42-5-15c1 0 1-1 2-1zM318 372l46 109h-3l-44-107 1-2z" class="G"></path><path d="M284 290l-2-3h1c16 19 25 41 34 64-3-4-5-9-7-13 1 4 2 9 3 13 3 9 8 18 12 26 1 2 4 7 3 9l-32-70-8-18c-1-3-2-6-4-8z"></path><path d="M457 692l16 42 8 22 6 14c-1 1-1 1-1 2l1 5c1 1 1 2 2 3 0 3 2 7 4 10l1 2c0 2 1 5 2 7 1 1 1 1 1 2v1l1 1v1c1 1 1 1 1 2v2c1 1 1 1 1 2 1 1 1 2 1 3-1-2-2-3-3-4v-1-2c-1-1-1-2-2-3v-1c-1-1-2-3-3-5l-1 2c-2-7-5-13-7-20-1-3-2-7-3-10l-9-25h2l-5-14-14-36 1-2z" class="C"></path><path d="M475 744c2 5 4 12 7 18 0 2 2 4 2 7 2 3 1 7 3 11 1 5 4 9 5 14 0 1 2 2 2 4 1 1 2 3 2 5v-1c-1-1-2-3-3-5l-1 2c-2-7-5-13-7-20-1-3-2-7-3-10l-9-25h2z" class="G"></path><path d="M450 671v-1c-1-4-3-8-5-12l-11-28-50-126-19-45h1l88 217c-1 0-1 1-2 1l-2-6z" class="B"></path><defs><linearGradient id="J" x1="282.48" y1="324.974" x2="310.02" y2="326.526" xlink:href="#B"><stop offset="0" stop-color="#050a0b"></stop><stop offset="1" stop-color="#251f1e"></stop></linearGradient></defs><path fill="url(#J)" d="M279 290l-5-14 8 15c1 0 1 0 2-1 2 2 3 5 4 8l8 18-1 1 23 55-1 2-38-84z"></path><path d="M284 290c2 2 3 5 4 8l8 18-1 1-13-26c1 0 1 0 2-1z" class="I"></path><path d="M481 756c1 0 1 1 2 1h1 1l16 43h1c1 4 2 9 3 13l5 23h0l1-1v1c0 3 2 7 1 10v8l-4-8c-1-2-2-4-1-6h0v-2c-1-1-1-2-2-2-1-2-1-3-1-6 1-1 0-1 0-1l-1-1v-1 1h-2v1h0c-1-1-2-3-2-5 0 1 1 1 1 2l1 1h1l-1-4-1-1v-1-2-1l-1-1v-1c0-1-1-2-2-3s-1-2-2-4l-1-6h-1v-2c-1-1-1-2-1-2l1-2c1 2 2 4 3 5v1c1 1 1 2 2 3v2 1c1 1 2 2 3 4 0-1 0-2-1-3 0-1 0-1-1-2v-2c0-1 0-1-1-2v-1l-1-1v-1c0-1 0-1-1-2-1-2-2-5-2-7l-1-2c-2-3-4-7-4-10-1-1-1-2-2-3l-1-5c0-1 0-1 1-2l-6-14z" class="J"></path><path d="M481 756c1 0 1 1 2 1h1 1l16 43c0 4 3 8 3 12l-1 1c1 2 1 3 1 4l-1-3c-1-8-5-16-8-24-2-6-4-14-8-20l-6-14z" class="G"></path><defs><linearGradient id="K" x1="456.899" y1="690.977" x2="450.588" y2="694.029" xlink:href="#B"><stop offset="0" stop-color="#020000"></stop><stop offset="1" stop-color="#292929"></stop></linearGradient></defs><path fill="url(#K)" d="M467 730c-1-3-3-6-4-9l-9-24-9-25-48-120-10-24-8-21-10-22-11-28-10-24c-1-2-3-6-3-8l102 245c0 3 2 5 3 8l6 16 14 36c-1 1-1 1-2 1v-1h-1z"></path><path d="M361 481h3l16 39 29 70 20 50 20 50 9 26 18 43c2 6 5 11 6 17 2 4 3 10 5 14v1l1 1v1c1 2 2 4 2 7-1-2-1-4-2-6-4-4-4-10-6-15 0-1 0-1-1-2-2-10-7-20-11-30-3-6-5-13-8-19L361 481z" class="B"></path><defs><linearGradient id="L" x1="724.986" y1="542.75" x2="602.46" y2="424.231" xlink:href="#B"><stop offset="0" stop-color="#ceced1"></stop><stop offset="1" stop-color="#f8f5f2"></stop></linearGradient></defs><path fill="url(#L)" d="M584 636c3-7 5-15 8-22l23-56 28-66 12-29 11-25 36-82c10-22 19-45 32-66 12-17 27-32 43-45l-40 90-2-1-27 63h-3l-20 47-14 33-18 44-72 176-14 33-10 29c-2 5-4 9-6 13-1 3-3 7-4 11 0 1 0 1-1 3l-1 3-2 5h0c-1 4-2 8-4 11 0 2-2 4-3 6v-1-2c-1 2-3 5-4 7v3c-1 1-2 3-2 5-1-1-1 0-1-1l-2 1v1l-1 1c-1 0-2 0-2 1v1c-2 2-1 4-3 7h-1c1-3 1-5 1-8l2-2v-1c0-3 1-5 1-7v-1-3l1-1v-3c0-1 0-2 1-3v-1-1c0-2 1-6 2-8 2-3 2-6 2-8l-1-1 10-24c3-7 5-14 7-21l1-3 37-102z"></path><path d="M577 662l2 2-27 74-1-3-1 1 27-74z" class="B"></path><path d="M550 736l1-1 1 3-12 33-3 10c-1 3-1 7-3 10-1 3-3 6-4 9v5c-1 1-1 2-1 4-2 2-4 5-3 8l-1 2h0v-1s0-1-1-2v-1-3l1-1v-3c0-1 0-2 1-3v-1-1c0-2 1-6 2-8 2-3 2-6 2-8 2-4 3-9 5-11 4-4 5-11 7-16l8-24z" class="E"></path><path d="M526 803c1-3 3-7 4-10l4-12c1-2 1-4 3-6 0 1-2 9-2 10-1 6-4 10-6 15h1v5c-1 1-1 2-1 4-2 2-4 5-3 8l-1 2h0v-1s0-1-1-2v-1-3l1-1v-3c0-1 0-2 1-3v-1-1z" class="I"></path><path d="M733 315l12-24c2-6 5-12 8-17 0 2-1 5-2 6l-9 23-12 27c-2 4-4 8-6 11l-12 30-1-2h1v-1l-1 2h-1l13-32 10-23z" class="B"></path><path d="M723 338h0c0 2-1 4-2 5l-3 10c-1 1-2 2-1 3 1-1 1-2 2-4l3-6 1-4c0-1 0 0 1-1v-1h0v1l-12 30-1-2h1v-1l-1 2h-1l13-32z"></path><path d="M540 771h3l-6 20c-1 2-2 5-2 8l6-17h2c-1 4-2 8-4 11 0 1-1 3-2 4l1 4c0 2-1 3-2 5v2c-1 2-3 5-4 7v3c-1 1-2 3-2 5-1-1-1 0-1-1l-2 1v1l-1 1c-1 0-2 0-2 1v1c-2 2-1 4-3 7h-1c1-3 1-5 1-8l2-2v-1c0-3 1-5 1-7 1 1 1 2 1 2v1h0l1-2c-1-3 1-6 3-8 0-2 0-3 1-4v-5c1-3 3-6 4-9 2-3 2-7 3-10l3-10z" class="J"></path><path d="M541 782h2c-1 4-2 8-4 11 0 1-1 3-2 4h0l-2 4c-1 2-2 3-2 5 0 1 0 1-1 2v-1-2c1-2 2-3 2-5l1-1 6-17z" class="C"></path><path d="M579 663h2 1v-1c0-1 1-1 1-2v-1s1-1 1-2c1-1 0-1 1-1v1l-42 114h-3l12-33 27-74v-1z" class="D"></path><path d="M577 662l120-288 1 1-119 288v1l-2-2z" class="E"></path><path d="M743 306c7-14 12-30 21-43-1 4-3 8-5 12l-24 59-27 63h-3l38-91zM585 657c3-5 5-12 7-17l22-54 50-119 12-28 22-54 13-30c9-24 17-47 31-69-2 10-6 19-10 28L550 755l3 2-10 25h-2l-6 17c0-3 1-6 2-8l6-20 42-114z"></path><path d="M550 755l3 2-10 25h-2c2-9 6-18 9-27z" class="J"></path><path d="M550 755l182-441 1 1-10 23-13 32h1l1-2v1h-1l1 2-21 50-9 22-40 95-1-1-22 52-66 168-3-2z" class="D"></path><path d="M690 419l1 2-9 22v-1h-1 0-1l10-23z" class="E"></path><path d="M710 370h1l1-2v1h-1l1 2-21 50-1-2 10-25c3-8 6-17 10-24zm-30 72h1 0 1v1l-40 95-1-1 39-95z" class="B"></path><path d="M742 303l1 2v1l-38 91-20 47-14 33-18 44-72 176-14 33-10 29c-2 5-4 9-6 13-1 3-3 7-4 11 0 1 0 1-1 3l-1 3-2 5h0c-1 4-2 8-4 11 0 2-2 4-3 6v-1-2-2c1-2 2-3 2-5l-1-4c1-1 2-3 2-4 2-3 3-7 4-11l10-25 66-168 22-52 1 1 40-95 9-22 21-50 12-30c2-3 4-7 6-11l12-27z" class="D"></path><path d="M641 537l1 1-22 52-1-1 22-52z" class="G"></path><path d="M619 589l1 1-33 81-9 25-11 27-11 30-11 26-3 9c-2 5-3 8-4 13l-1-4c1-1 2-3 2-4 2-3 3-7 4-11l10-25 66-168z" class="F"></path></svg>