<svg xmlns="http://www.w3.org/2000/svg" xmlns:v="https://vecta.io/nano" viewBox="162 127 714 748"><!--oldViewBox="0 0 1024 1024"--><path d="M183 238h50l30 65c-2 1-4-1-7-2-6-3-12-8-18-12l-34-21-32-22c-3-2-7-3-9-5-1-1-2-1-2-3h15c2 0 4 1 6 0h1zm675-48l13 38-32 8-12 3c-3 0-7 1-9 2-3 2-5 5-8 7l-11 11-43 38-10 9c0 1-2 2-3 3h-3l30-71h45l43-48z"></path><path fill="#f4f1ea" d="M584 238l16-16 30-33c1 0 3-3 4-3h3 7 38 180l-4 4-43 48h-45l-30 71-227 542-250-548-30-65h-50-25l49-52h258l-4 4c3 5 4 12 6 18l7 20-37 9-11 2c-3 1-5 1-7 3-11 8-19 21-30 29l70 152 30 65c3 6 6 13 9 20 3 6 7 11 11 17l11 18c3-3 5-5 7-8l9-12-24-22c0-1-1-2-1-2-1-1-1-5-1-7v-34l1-1-1-2c10 3 19 11 25 18 9 11 17 23 24 35l29 52 6-14-34-67c2 1 3 4 4 5l6 10 17 26 11 16c2-4 3-8 5-11 0-2 1-4 1-5 1-1-2-4-2-5l-7-11-41-71c-7-11-14-23-18-35-2-6-3-10-4-16 2 3 2 7 4 11 6 16 16 30 26 44 3-2 4-5 6-7l12-15c-8-9-17-15-27-22l-2-29v-12l1-1v-1c8 3 15 7 21 13 16 14 27 34 39 53l20 32 3-6c1-4 3-8 5-12l-37-58c5 4 9 10 12 14l14 18c5 6 9 12 14 17l4-12c1-1 2-4 2-4 0-1-10-13-11-15l-37-46c-9-11-18-23-26-36-4-7-8-14-9-22 3 4 4 9 7 14 8 14 19 25 30 36 2-2 4-4 6-7l12-15-32-26c-2-6-2-12-3-18-2-8-4-17-4-25l-1-1v-1c0-1 1-4 2-5h1z"></path><path d="M415 578h2c1 1 1 1 2 3-1 2-1 2-2 3h-2c-1-1-2-2-2-3 1-2 1-2 2-3zm-81-181h2c2 0 2 1 3 2 0 1 0 2-1 3s-2 1-3 1c-1-1-2-1-2-3 0-1 1-2 1-3zm3-114h2c1 1 1 1 2 3-1 2-1 2-2 3h-2c-2-1-2-1-2-3 1-2 1-2 2-3zm-8 18h2c1 1 1 1 1 3-1 2-1 2-2 2-1 1-2 0-3 0-1-2-1-2-1-3 1-2 1-2 3-2zm-42-9c1 0 1-1 2-1s1 1 2 2c0 2 0 2-1 4h-1c-2 0-2 0-3-1 0-3 0-3 1-4zm89 42h2c2 1 2 1 3 2-1 2 0 2-2 4h-1c-2 0-2-1-3-2 0-2 0-2 1-4zm-68 1h2c1 1 1 1 2 3-1 1-1 1-2 3h-1c-2-1-2-1-3-3 0-1 0-2 2-3zm108 53h2l2 2c0 2 0 2-2 4-2 0-2 0-3-1 0-1-1-1-1-2 1-2 1-2 2-3zm9 81c1 0 1 0 2 1 1 2 1 2 1 4l-2 1h-2c-2-2-1-2-2-4 1-1 1-1 3-2zm-5 48h2c1 1 1 1 2 3 0 1-1 2-2 3h-2c-1-1-1-1-2-3 1-2 1-2 2-3zm-20-112h3c1 1 1 1 1 3l-2 2h-2c-2-1-2-1-2-3l2-2zm-30 76s0-1 1-1 2 1 3 2c0 2 0 2-1 4h-2c-2 0-2 0-3-1 1-2 0-3 2-4zm16-57h1c2 0 2 0 3 2-1 2-1 2-2 3h-2c-2 0-2 0-2-2s0-2 2-3zm-2 82h2c1 1 1 1 2 3-1 1-1 2-2 3h-2c-2-1-2-1-2-3s0-2 2-3zm24-12h2l2 2c0 2 0 2-2 3l-2 1c-1-1-1-2-2-3 0-2 1-2 2-3zm68 23c1 0 1 0 2 1s2 1 2 3c-1 1-2 2-3 2h-1c-2-1-2-1-2-3s0-2 2-3zM311 317h2c1 1 1 1 2 3-1 1-1 2-2 3h-1c-2 0-2-1-3-2 0-2 0-2 2-4zm44-52c1 0 1-1 2-1 1 1 2 1 2 3s1 2-1 3l-2 1-2-2c0-3 0-3 1-4zm98 205h2c2 1 2 1 2 3 0 1 0 1-1 3h-2l-2-2c0-2 0-2 1-4z"></path><path d="M335 337h3c1 1 1 1 1 3 0 1 0 1-1 2s-2 1-2 1c-2-1-2-1-2-2 0-2 0-2 1-4zm156 394h3c1 1 1 1 2 3 0 1-1 2-2 3h-1c-2-1-2-1-3-2 0-2 0-2 1-4zm-60-175h2c1 2 1 2 1 4 0 1-1 1-2 2-1 0-1 0-2-1s-1-1-1-2c0-2 0-2 2-3zm33-58h2c2 0 2 1 2 2 0 2 0 2-1 3h-3c-1 0-2-1-2-2 0-2 1-2 2-3zM354 385h2c1 0 1 1 2 2 0 2 0 2-1 3l-1 1c-2 0-2 0-3-2 0-2-1-2 1-4zm11 30c1 0 2 0 2-1 2 1 2 1 3 3-1 2-1 2-2 3-1 0-2 0-2 1-2-1-2-2-2-3 0-2 0-2 1-3zm61-5h2c2 1 2 1 2 3 0 1 0 2-1 3h-2c-2-1-2-1-2-2 0-2 0-2 1-4zm73 166l2-1c1 1 1 1 2 3 0 1 0 1-1 3h-1c-2 0-2 0-3-1 0-2 0-3 1-4zm10 19h2l2 2c0 2 0 2-1 3s-2 1-3 1l-1-2c0-2 0-2 1-4zM345 414l2 1c1 1 1 1 2 3-1 1-1 1-3 2h-2c-1-1-1-2-1-3 0-2 1-2 2-3zm2-172h2c1 1 1 1 2 3-1 1-1 1-2 3h-2c-2-2-2-2-2-3 0-2 0-2 2-3zm-17 17h2c2 1 2 1 3 2-1 2-1 2-2 3h-2c-2 0-2-1-2-2 0-2 0-2 1-3zm168 376h2c2 0 2 0 3 2 0 2 0 2-1 3l-2 1c-2-1-2-1-3-2 0-2 0-2 1-4zm-50 12h2c1 1 1 2 2 3-1 2-1 2-2 3h-2c-1-1-2-1-2-3s1-2 2-3zM314 240h1c1 0 2 0 3 1s1 2 1 3l-2 2h-1c-2-1-2-1-3-2 0-2 0-2 1-4zm97 193h2c2 1 2 1 2 3 0 1 0 1-1 3h-3c-1-1-1-1-2-3 1-1 1-2 2-3zm255-25h3c1 1 1 1 2 3-1 2-1 2-2 3h-1c-2 0-2 0-3-2 0-2 0-2 1-4zM519 613h3c1 1 1 1 2 3 0 1 0 1-2 3h-2c-1-1-2-1-2-2 0-2 0-2 1-4zm-40-28h2c1 0 1 1 2 2 0 2 0 2-1 4h-3l-2-2c0-2 1-3 2-4zm271-373h3c1 0 1 1 2 2 0 2-1 2-2 3 0 1-1 1-2 1-2-1-2-1-2-2 0-2 0-3 1-4zM624 511h3c1 2 1 2 1 3 0 2 0 2-2 3-1 1-1 0-3 0 0-1-1-2-1-3 0-2 1-2 2-3zM466 665c1 0 1 0 2 1 2 1 1 2 1 4 0 1-1 1-2 2-1 0-2 0-3-1s-1-2-1-3c1-2 1-2 3-3zm16-17h3c1 1 2 2 2 3-1 2-1 2-2 3-2 1-2 0-4 0-1-1-1-2-1-3s1-2 2-3zm193-258c1-1 1-1 3 0 1 1 1 1 1 3 0 1 0 2-1 3h-3c-1-1-2-2-2-3 0-2 1-2 2-3zM442 582h3c2 1 2 1 2 3s0 2-1 3h-2c-2 0-2 0-3-2 0-2 0-2 1-4zm237-369s1 0 2-1c2 1 2 2 3 3l-2 4h-4c0-1-1-2-1-3 0-2 1-2 2-3z"></path><path d="M437 495c1 0 1 0 3 1 1 1 2 2 1 3 0 2-1 2-2 3h0c-2 0-3 1-4-1-1 0-1-2-1-3 1-1 1-2 3-3zM263 234c1 0 2 0 3 1s2 2 2 4c-1 1-1 1-3 2h0c-2 1-3 1-4-1-1 0-1-2-1-3 1-2 1-2 3-3zm334 341h0c2 0 3 1 4 1 1 1 1 3 1 4-1 2-2 2-3 3h0c-2 0-3 0-4-2-1-1-1-2-1-3 1-2 1-2 3-3zm-19 52c2 0 2 1 4 2 1 1 1 2 0 4s-1 2-3 2h0c-2 0-3 0-4-1v-4c1-2 2-2 3-3zM367 211h1c2-1 3 0 4 1s1 3 1 4c-1 1-1 2-3 3h-1c-1 0-2 0-3-1s-2-3-1-4c0-2 1-2 2-3zm221 385l1-1c1 0 2 1 3 2 2 1 1 2 1 4 0 1-1 2-2 3-2 0-2 0-4-1-1-1-1-1-2-3 1-2 1-3 3-4zm147-362h1c1-1 2 0 4 0 0 2 1 3 1 4 0 2-1 3-2 4h-1c-2 0-3 0-4-1s-2-2-2-4c1-2 1-2 3-3zM381 379h1c1 1 2 1 3 2 1 2 1 3 1 5-2 1-2 2-4 2h-2c-1 0-2-2-3-3 0-2 0-3 1-4s2-1 3-2zm80 191l1-1c2 0 3 0 4 2 2 1 1 2 1 4s-1 2-2 3h-1c-1 1-2 0-4 0-1-1-1-3-1-5 0-1 0-2 2-3zm37 92h2c1 0 2 0 3 1 2 1 2 3 2 5l-3 3h-2c-1 0-2 0-3-1s-1-3-1-4c0-2 1-3 2-4zM294 211h1c1 0 3 0 4 1s2 3 2 4c0 2-1 3-3 4h-2c-1 1-2 0-3-1s-2-3-2-4c1-2 2-3 3-4zm189 464h2c1 0 2 1 3 2 1 2 1 3 0 5-1 1-1 2-3 2h-1c-2 0-3 0-4-1-1-2-1-4 0-6 1-1 1-2 3-2zM260 211c1 0 2-1 2-1 2 1 3 1 4 3 1 1 1 2 1 4l-3 3h-2c-1 0-3 0-4-1-1-2-1-3 0-5 0-2 1-2 2-3zm447 102h2c1 0 2 1 3 3 1 1 1 3 0 4 0 2-1 2-3 3h-3c-1-1-2-2-2-3-1-1-1-3 0-4 1-2 2-2 3-3zm-76 177s1-1 2 0c1 0 2 0 3 1 1 2 1 3 1 5l-3 3h-2c-2 0-3-1-4-2 0-1-1-3 0-4 0-2 1-3 3-3zM516 647h1c2 0 3 1 4 3 1 1 0 3 0 4-1 2-2 2-4 3h-1c-2 0-3-1-4-2v-5c1-2 2-2 4-3zm-48-12h2c1 1 2 1 3 2 1 2 1 3 0 5 0 2-2 2-3 3h-2c-1 0-3-1-3-2-1-2-1-4-1-5 1-2 2-2 4-3zM300 259h2c1 0 3 1 3 2 1 1 2 3 1 4 0 2-2 3-3 4h-2c-1 0-3-1-3-2-1-1-1-3-1-4 0-2 2-3 3-4zm155 269c1-1 2 0 3 0 2 0 3 1 3 2 1 2 1 3 0 5-1 1-1 1-3 2h-2c-1 0-3 0-4-2v-4c0-2 2-2 3-3zm63 157h1c2 0 3 1 4 2 0 2 1 3 0 4 0 2-2 3-3 4h-3c-2-1-3-2-3-4-1-1-1-3 0-4s2-2 4-2zm-74-136h3c1 0 2 1 3 2s1 3 1 4c-1 2-2 3-4 4h-2c-2 0-3-1-3-2-1-2-1-4-1-5 1-2 2-2 3-3zm73 173h3c1 0 3 1 3 2 1 1 2 3 1 4 0 2-1 3-3 4h-2c-2 0-3 0-4-1 0-2-1-3-1-5 1-2 2-3 3-4zm-74-105c1 0 2-1 3-1 2 1 3 2 4 3 0 1 1 3 0 4 0 2-2 2-3 3-1 0-2 1-3 0-1 0-3-1-3-2-1-1-1-3-1-4 1-2 2-2 3-3zm17-18c1 0 2-1 3-1 1 1 2 1 3 3 1 1 1 3 1 4 0 2-2 2-3 3l-3 1c-1 0-2-1-3-2-1-2-1-3-1-5 1-2 1-2 3-3zM353 355h3c1 0 3 1 3 2 1 2 1 4 1 5-1 2-2 2-4 3h-2c-1 0-2 0-3-1-1-2-2-4-1-5 0-2 1-3 3-4zm343-117h18l-3 8-1 2c-5-1-10-7-14-10zm-296-27c1-1 2-1 4 0 1 0 2 1 3 2s1 4 0 5c0 2-1 2-3 3-1 1-2 1-3 1-1-1-3-2-3-3-1-1-1-3-1-5 1-2 2-3 3-3zm133 492h3c2 1 3 2 4 3 0 2 0 4-1 6-1 1-2 2-4 2h-3l-3-3c0-2-1-3 0-5s2-2 4-3zm-33 0h3l3 3c1 2 1 4 1 5-1 2-3 3-4 4-2 0-3 0-4-1-1 0-2-1-3-2-1-2-1-4 0-6s2-2 4-3zm-75-112c1 0 2-1 3 0 2 0 3 1 4 2 1 2 1 4 0 5 0 2-2 3-3 4h-4c-2-1-3-1-3-3-1-1-1-3-1-5 1-2 3-2 4-3zm359-379c1-1 2-1 4 0 2 0 3 1 4 3 1 1 1 4 0 5 0 2-2 3-4 4-1 1-2 1-4 0-1 0-3-1-4-3-1-1-1-4 0-5 1-2 2-3 4-4zm-142-5h4c2 1 3 2 4 4s1 4 0 6-2 3-4 3c-1 1-3 1-4 0-1 0-3-1-4-3s-1-4 0-6 2-3 4-4zM520 749h3c2 1 4 3 5 5s1 4 0 6c-1 3-3 4-6 5-1 0-3 0-4-1-2-1-3-2-4-4s-1-5 0-7c1-3 3-4 6-4zm-33-144h3c2 1 4 2 5 4 2 3 2 5 1 8-1 2-3 3-6 4h-4c-2-1-3-2-4-3-1-3-2-6-1-8 1-3 3-4 6-5zM356 445h3c2 0 5 2 6 4s1 5 0 8c-1 2-3 4-5 5-2 0-4 0-5-1-2 0-4-2-5-3-1-2-1-5 0-7 1-3 3-5 6-6zm189 218h4c2 1 4 3 5 5s1 5 0 7c-1 3-4 4-7 5-1 0-2 0-4-1-2 0-3-2-4-4s-1-5-1-7c2-3 4-4 7-5zM224 207c2 0 4 0 5 1 2 1 4 3 4 5 1 2 1 4 0 6-2 3-4 4-7 5-1 0-3 0-4-1-2 0-4-2-5-5-1-2-1-5 1-7 1-3 3-4 6-4zm173 146c1 0 3 0 4 1 2 1 4 3 5 5s0 5-1 7c-1 3-3 4-6 5-2 0-4 0-6-1s-3-3-4-5c0-3 0-6 1-8 2-2 4-3 7-4zm-7 101c1-1 3-1 4 0 2 0 4 2 6 4 1 2 1 5 0 7-1 3-3 5-6 6h-3c-3 0-5-2-6-4-2-2-2-5-2-7 1-4 4-5 7-6zm220 84h3c3 0 5 2 6 4 2 3 2 6 1 8-1 3-4 4-6 6-2 0-4 0-5-1-2 0-4-2-5-4-1-3-1-5 0-8s3-4 6-5zm112-270h0c1 0 3 0 4 1 2 1 5 3 5 5 1 2 1 6 0 8-1 3-4 4-7 5-1 0-3 0-4-1-3-1-5-3-5-5-1-2-1-5 0-7 1-3 3-5 7-6zm-45-30h15c4 5 10 11 15 15h1l-3 6v2h-1c-10-6-20-14-27-23zm15 115c1-1 3 0 4 0 3 1 5 3 6 6 1 2 1 6 0 8-2 3-4 4-7 5-2 0-3 0-5-1-2 0-4-2-5-4-1-3-1-6 0-9s4-4 7-5zM330 208h4c2 1 5 3 6 5 1 3 1 6 0 8-1 3-3 5-6 6h-6c-2-1-4-3-5-5s-1-6 0-8c1-3 3-5 7-6zm108 228h4c3 1 5 3 6 6 1 2 1 5 0 7-2 4-4 5-8 6-1 0-3 0-4-1-3 0-5-2-6-4-1-3-1-6 1-9 1-3 4-4 7-5zm273-225c2 0 3 0 5 1 2 0 4 2 5 5 2 2 2 5 1 8s-4 4-7 6c-2 0-3 0-5-1s-5-2-6-5-1-6 0-9c2-2 4-4 7-5zm-61 231h4c2 1 5 3 6 6s1 6-1 8c-1 3-4 5-7 6h0c-2-1-4-1-6-2s-4-3-4-6c-1-2-1-5 1-7 1-3 4-5 7-5zM272 254h1c1 0 2 0 4 1s4 3 5 6c1 2 1 5 0 8-2 3-4 4-7 5-2 0-4 0-6-1s-4-3-5-6c-1-2-1-6 1-8 1-3 4-4 7-5zm201 443c2 0 3 0 5 1 3 1 5 3 6 6s1 6 0 8c-2 3-4 5-8 6h0-1c-1 0-3 0-5-1s-4-4-5-6c-1-3-1-6 0-8 2-3 5-5 8-6zm-72-155c2 0 4 0 6 1s5 3 5 6c1 3 2 6 0 9s-4 4-8 5c-2 1-4 1-6 0s-4-4-5-6c-1-3-1-7 0-9 2-4 4-5 8-6zm-77-183c1-1 3-1 5 0 3 0 6 3 7 6 1 2 1 6 0 8-1 4-4 6-7 7h-7c-2-1-5-4-6-6-1-3-1-7 0-9 2-3 5-5 8-6zm155 181h6c3 1 5 3 7 6 2 2 2 6 1 9s-4 5-7 7c-2 0-4 1-6 0-3 0-6-2-7-5-2-3-2-7-1-10 1-4 4-5 7-7zm34 1c2 1 3 4 4 5l9 15 23 37 16 24-5 11-1 4-46-96zm146-303h15c8 11 19 20 28 30-1 2-2 4-2 7-1 1-1 2-2 3-6-3-11-8-15-12-9-8-19-17-24-28z"></path><path d="M362 288c2 0 5 0 8 1 4 1 7 4 9 8s2 8 0 12c-2 5-5 7-10 9-3 1-6 1-9 0-4-2-7-5-8-8-2-4-2-9-1-12 2-5 6-8 11-10zm269-50h20c1 0 4-1 6 0 1 0 6 10 7 12 9 13 20 24 32 35l-3 8-2 2h0l-27-21c-13-11-24-21-33-36zm-170-48c3 5 4 12 6 18l7 20-37 9-11 2c-3 1-5 1-7 3-11 8-19 21-30 29l-15-33h44l43-48zm120 53c0-1 1-4 2-5h1 31c5 0 10-1 15 0 9 18 22 33 37 47 7 7 15 13 21 19l-5 14c-5-3-10-8-15-12-11-11-22-22-30-34-3-5-6-10-9-14 5 15 16 31 27 43l17 18c0 1 6 6 7 7l-2 3-4 11c-11-11-21-23-30-35-12-15-22-30-35-44-8-7-18-15-28-18zm1 2c30 15 41 47 58 73 9 14 19 25 29 37l-4 9c-12-10-22-23-35-33 10 15 23 27 33 41l-6 14-54-50c2-2 4-4 6-7l12-15-32-26c-2-6-2-12-3-18-2-8-4-17-4-25zm-71 212c10 5 17 12 23 20 7 10 11 22 16 33l15 36 10 19c2 5 5 9 6 14l-3 6c0 1-1 3-2 4-7-9-14-18-20-27-4-5-7-11-11-14l18 32c3 6 8 12 11 19-2 3-3 7-4 11l-6-6-8-12-36-49c3-3 5-5 7-8l9-12-24-22c0-1-1-2-1-2-1-1-1-5-1-7v-34l1-1zm51-20c3-2 4-5 6-7l12-15c-8-9-17-15-27-22l-2-29v-12l1-1c22 10 32 30 42 50l14 30 9 20c3 6 6 11 8 17l-4 10-31-41c2 6 6 12 9 17l15 25c0 1 4 6 4 7 0 0-1 2-1 3l-5 11-50-63z"></path></svg>