<svg xmlns="http://www.w3.org/2000/svg" xmlns:xlink="http://www.w3.org/1999/xlink" xmlns:v="https://vecta.io/nano" viewBox="185 89 679 832"><!--oldViewBox="0 0 1024 1024"--><style>.B{fill:#2d2f2f}.C{fill:#232526}.D{fill:#353535}.E{fill:#1e2123}.F{fill:#474646}.G{fill:#393a3b}.H{fill:#101112}.I{fill:#9a908c}.J{fill:#3f3f3f}.K{fill:#afa5a1}.L{fill:#292927}.M{fill:#060606}.N{fill:#1a1a1a}.O{fill:#525252}.P{fill:#705f56}.Q{fill:#a09590}.R{fill:#7d6d64}.S{fill:#55504c}.T{fill:#4d4d4e}.U{fill:#8a8180}.V{fill:#807a79}.W{fill:#5f5e5d}.X{fill:#656464}.Y{fill:#dfd9d4}.Z{fill:#bfb6b2}.a{fill:#c3bdb9}.b{fill:#181b1c}</style><path d="M397 588l1 1h1v1c0 1 1 2 2 3v1c0 1-1 2-2 2h-1l1-1c-1-1-1-2-1-3 0-2 0-1-1-2v-2z" class="E"></path><path d="M426 192c1-1 3-2 4-3h1c0 1 1 2 2 2v1l-6 1-1-1z" class="H"></path><path d="M465 773h0c-1-1-1-1-1-2-1-2-2-3-3-4 2 0 3 0 4 1 1 2 3 4 3 6-1-1-2-1-3-1z" class="C"></path><path d="M318 385c3 1 4 2 6 4v1c-2 0-6-2-8-3l2-2z" class="B"></path><path d="M504 309h3c1 1 1 2 2 3 0 0-2 4-2 5l-3-8z" class="L"></path><path d="M466 761c1 1 2 2 2 4l1 2v3c-1-1-3-4-4-5h0c0-2 0-3 1-4z" class="C"></path><path d="M711 406c3-3 8-4 11-5l-5 5h-5-1z" class="H"></path><path d="M437 779c1-3 1-6 3-8 0 1 1 2 2 2-1 3-2 5-3 7l-2-1z" class="P"></path><path d="M272 238s-1 0-1-1 2-4 2-5c1-3 1-7 1-10h1c0 4-1 8-1 12 0 2-1 3-2 4z" class="H"></path><path d="M423 714c3 0 5 1 7 4v2h-1l-2-1c-1-1-2-1-3-2-1 0-1-1-2-1l1-1h1l-1-1z" class="E"></path><path d="M312 328c2 0 3-1 5 0 1 1 2 2 2 4v3-2l-1-1c-2-3-6-1-9-1v-1l3-2z" class="M"></path><path d="M622 632c1-2 3-5 4-8 0-1 2-3 3-3l2-2c-1 2-2 3-2 5h0c-1 1-2 2-3 2-1 2-1 3-1 5h0-1 0c0 1 0 1-1 2l-1-1z" class="E"></path><path d="M667 565h0l2-9c1 5 1 11 4 16-3-2-4-5-6-7z" class="Q"></path><path d="M437 779l2 1v3l-1 5c-1 2 0 5-1 7-1-5-1-11 0-16z" class="S"></path><path d="M431 664c1 0 1 0 2 1l1 1-9 3h-3c3-3 6-4 9-5z" class="T"></path><path d="M606 664c4 0 8 2 10 5h0-2c-2-1-10-3-11-5h3z" class="I"></path><path d="M316 387c-3-1-8-1-11-2l1-1h2l1-1c3-1 7 1 9 2l-2 2z" class="F"></path><path d="M419 198c2 1 3-2 6-1l-2 2c-1 2-1 3-1 5-2-1-3-2-5-3h-1c0-1 2-2 3-3z" class="B"></path><path d="M719 354c0-1 1-2 2-3v-2-3-1l1-1c1 3 2 7 2 10l-1 2h-1c0-1 0-2-1-2h-2z" class="L"></path><path d="M293 388c-3 1-6 4-10 6 2-5 4-7 9-10 1 2 1 2 1 4z" class="P"></path><path d="M505 299l1 1c0 1-1 2-1 3h2 0c0 2 0 3 1 4h1 1l-1 5c-1-1-1-2-2-3h-3c-1-2-1-3-1-5 1-2 2-3 2-5z" class="B"></path><path d="M505 303h2 0c0 2 0 3 1 4l-1 1-2-1v-4z" class="D"></path><path d="M265 210c0-2-1-1-3-1l1-1 1-1h4c0-1-1-2-2-3l1-1c1 2 2 3 2 5h-1-1c0 1 1 1 2 1 1 1 2 1 2 2h1l4 4v1h1c0 1 1 2 1 3-1-2-3-4-5-6l-1 1h0c-2-2-3-3-7-4zm217 145c-1-1-1-1-2-1l-1 1h0l-1 1-1-1 1-2h-1-1c-1-1-2-1-2-2h-1l-1-1v-1l1 1 1-1-2-1v-1h0c6 3 10 5 14 10l-1 1c-1-2-2-2-3-3z" class="H"></path><path d="M342 413l-1-1c-2-2-4-4-6-7h0c1 0 3 2 5 3v-1c1 0 1 1 2 1v1c1 1 2 2 3 2h3v1c0 1 0 1-1 2 0 1 1 1 1 2-3-1-4-3-6-3zm318 186c-1 0-2 1-3 1l-1-1c-2 0-3 0-4-2 0-2 0-2 2-4h2c1 2 3 4 4 6z" class="E"></path><path d="M410 643c0 2 1 3 1 4-1 4-1 8-1 12l-1-3h0c-2 2-1 5-2 8 0-4-1-8 1-12 0-1 0-1-1-2 0-1 1-2 1-3 1-1 1-3 2-4z" class="J"></path><path d="M365 612l3 3h-2c-6 2-11 5-17 9 1-1 1-1 1-2l9-7c2 0 4-2 6-3z" class="P"></path><path d="M425 197c2-1 3-3 5-3 3-1 5 0 7 1l-1 1c-3 0-5 1-8 3 0 0-2 1-3 1h-1l-1-1 2-2z" class="M"></path><path d="M716 354c1-2 1-3 2-5v3l1 2h2c1 0 1 1 1 2h1c0 1 1 2 0 3l-1 1h-4c-1-1-2-3-2-4v-2h0z" class="J"></path><path d="M718 352l1 2h2c1 0 1 1 1 2h0c-2 1-2 1-4 1v-5z" class="D"></path><path d="M184 104h1 1 1c-1 2-1 3-2 4-1 2-1 5-1 7h-2 0v3 9h-1c-1-8 0-16 3-23z" class="Z"></path><path d="M465 773c1 0 2 0 3 1 0 2 0 5-2 7-1 2-3 4-5 5-2-1-3-1-4-2 1 0 1 0 1-1 2 0 4-1 5-3 2-1 2-3 2-6v-1z" class="D"></path><path d="M508 287c1 2 1 3 1 4l-1 3c-1 1-2 4-3 5 0 2-1 3-2 5l-1-1 1-2v-3c0-2 1-4 1-6h1c0-2 0-2 1-3 0 1 1 1 0 2v2h1c0-2 1-4 1-6z" class="N"></path><path d="M312 380l-1-1 1-1 2 1 2-2 1 1c2 2 5 1 7 4 2 2 4 3 4 5-4-4-11-6-16-7z" class="J"></path><path d="M322 474c0 1 1 1 1 2-2 1-6 2-7 4v1l-10 6c4-7 9-10 16-13z" class="R"></path><path d="M612 239c0-1 0-1-1-1-2-3-6-9-6-12h1l5 3 1 1h0c1 3 1 5 1 8l-1 1z" class="O"></path><path d="M602 420s-1 1-2 1h0-2-6c-2 0-4-1-5-1-2 0-3 0-4-1 3 0 6 0 8-1 2 0 3-1 4-1h3v2l1 1v-1h2 0c1 1 0 1 1 1z" class="E"></path><path d="M637 578l1 1c2 5 3 10 3 16-2-2-3-4-4-6-2-4-2-7 0-11z" class="G"></path><path d="M346 496c0 1 0 1-1 2l-1-1v1l-2-1c-1-1-1-2-2-3h-1c-2 1-3 3-5 4-1 0-1 0-1-1l2-2c1-1 2-2 2-3l1-1c1-1 1-1 3-1h0 1l1 1-1 1v1c1 1 3 2 4 3zm229 273c1 0 0 0 1 1 0 1 0 2-1 3v3c-1 5 3 5 6 8-1 1-1 1-2 1h-2c-1 0-1 0-2-1 0-1 0-1 1-2l-3-2v-2-1l-1-1v-2c0-3 1-3 3-5z" class="C"></path><path d="M608 225c2 2 4 3 7 3 2 1 3 3 5 4 0 0 1 0 1 1s-1 1 0 2l1 1h-1c-1-1-1-1-3 0-2-3-4-4-6-6h0l-1-1-5-3 2-1z" class="F"></path><path d="M610 371l7 11v2h-3l-3-7c-1 6-3 10-7 15 0-1 1-3 2-4s2-3 3-4h0v-1-1c0-1 1-3 1-4v-2l1-1v-1-1c-1 0-1-1-1-2h0z" class="C"></path><path d="M305 284c-2-1-3-2-4-3l-2-2v-1c-4-5-8-7-14-9l1-2c0-1-1-2-2-2l1-1s1 1 2 1v2c1 1 3 1 5 2 1 1 1 0 1 1 2 1 4 3 5 4 1 2 2 3 4 5 0 1 1 2 2 3l1 2h0z" class="H"></path><path d="M704 392c0 1 0 2 1 3 1-1 1-2 3-2 1-1 2-1 3-2 3-1 5-3 8-4 1-1 1-1 2-1h1l2-1h1c1-1 1-1 2-1h1c1 0 2-1 3 0v1h-2c-1 1-1 1-2 1s-2 1-3 1l-1 1-1-1s-1 1-2 1h-1l-1 1h0c-5 2-8 4-12 7h-1c-2-1-2-1-2-4h1z" class="C"></path><path d="M709 387v-2c3-1 4-5 7-6h2 2 5 2c1 0 0 0 1 1-5 0-11 2-15 5-2 0-3 1-4 2z" class="K"></path><path d="M356 492h-1s0-1 1-1h-1c-1-1-1-1-2-1-1-1-2 0-3-1l-2-1h-1v-1l1 1h1 1c1 0 3 0 4 1 1 0 1 0 2-1 4 1 8 2 11 6 1 1 2 2 3 4l-1 1v-1l-1-1h-1 0l1-1-1-1-1 1h-1l1-2-1-1c-1 0-2-1-4-1 0 0-1 0-2-1h0l-2 1h-1z" class="B"></path><defs><linearGradient id="A" x1="331.116" y1="479.357" x2="332.904" y2="473.578" xlink:href="#B"><stop offset="0" stop-color="#635346"></stop><stop offset="1" stop-color="#494a4a"></stop></linearGradient><linearGradient id="B" gradientUnits="userSpaceOnUse"></linearGradient></defs><path fill="url(#A)" d="M338 474c0 1 1 1 2 2l2-1v2h-7c-7 0-13 2-19 4v-1c1-2 5-3 7-4 3-1 7-1 10-1 2 0 3 0 5-1z"></path><path d="M300 380l3-1 1 1-1 1-1 1c1 0 2 0 3-1v1c-3 2-8 4-12 6 0-2 0-2-1-4 0 0 7-4 8-4z" class="S"></path><path d="M275 222l1-1c0 3 1 7 1 10s1 5 1 8v5c-1-1-1 0-1-1h-1c-1-2-1-3-1-5s0-3-1-4c0-4 1-8 1-12z" class="B"></path><path d="M445 762c1 0 3 1 4 2 3-2 6-2 9-2v1h-4c-4 1-7 3-10 6l-2 4c-1 0-2-1-2-2 1-3 3-6 5-9z" class="R"></path><path d="M342 578c3 1 7 5 10 4 0 1 0 1 1 2v4c2 2 3 3 4 5-5-3-12-10-15-15z" class="D"></path><path d="M648 580c-1 2-2 3-4 4-1-1-1-4-2-6h-1c0-1 0-3 1-4 0 0 1-1 2-1h0c2 2 3 2 5 2l-1 2v3z" class="E"></path><path d="M612 230c2 2 4 3 6 6 2 1 3 3 5 4-2 0-4 0-6 1v3l-3 1h0v-1c2-2 0-4-1-6 0-3 0-5-1-8z" class="K"></path><path d="M343 491l1-1v-1c1 0 1 0 2 1l2 2c1 0 1 0 2-1h2v1h-1c-1 0-2 0-2 1v1c1 0 1 1 2 1l1 1v-1l-1-1h1 1 1c0 1 0 2-1 3-1 2-2 0-2 3 1-1 1-2 3-2h2c-1 1-3 2-4 3h0c-2 0-2 0-3-1 0-1 0-1 1-2 0-1 0-1 1-2-1-1-1-1-3-1l-2 1c-1-1-3-2-4-3v-1l1-1z" class="B"></path><path d="M274 234c1 1 1 2 1 4s0 3 1 5h1c0 1 0 0 1 1-2 3-5 7-8 7v-1c1-2 1-2 1-4v-1l1-1c0-1 0-1-1-2 0-1 1-2 1-3v-1c1-1 2-2 2-4z" class="G"></path><path d="M610 371l-4-7v-1c2 3 4 7 7 9 1 2 3 3 5 5 2-2 4-4 5-6l1 1c-1 1-1 1-1 2 1-1 2-1 2-2-1 4-5 6-8 10l-7-11z" class="R"></path><path d="M508 274h1v5 5c0 1 0 2-1 3 0 2-1 4-1 6h-1v-2c1-1 0-1 0-2-1 1-1 1-1 3h-1v-3c-1-1-1-2-1-3 1-2 1-4 2-6 1 1 0 0 1 0l1-2c1-1 0-3 1-4z" class="G"></path><path d="M605 697c2 3 4 5 7 6 4 1 8-1 11-2 7-1 14-2 20 1 3 1 5 2 6 4 0 1 1 2 1 2h0-1c-2-4-5-5-9-7h-12c-5 1-13 6-18 4-3-1-4-4-5-6v-2z" class="U"></path><defs><linearGradient id="C" x1="489.858" y1="303.945" x2="493.584" y2="293.716" xlink:href="#B"><stop offset="0" stop-color="#bcb1af"></stop><stop offset="1" stop-color="#d6cfc9"></stop></linearGradient></defs><path fill="url(#C)" d="M486 293l-1-8 12 21-1 1-4-3-6-11z"></path><path d="M627 655c0 2 0 2-1 3v-1l-1-1h-1l-1 1c-1-2-1-5-2-6-1-3-2-5-2-7v-2-1l1-1c1 1 2 2 2 3l4 8c0 1 1 2 1 2v2z" class="L"></path><path d="M622 643l4 8c0 1 1 2 1 2v2c-1 0-1 1-2 0s-2-3-2-5c0-1 0-2-1-3v-1c-1-1 0-2 0-3z" class="D"></path><path d="M356 438c-1 0-1 1-3 0-1-1-1-3-2-5-3-6-8-10-10-16h1c5 5 13 14 14 21z" class="B"></path><path d="M364 573l1 1-13 8c-3 1-7-3-10-4l-1-1h0c2 0 5 0 7-1h3c0 1 0 1 1 2 4 0 9-3 12-5z" class="V"></path><path d="M604 392c4-5 6-9 7-15l3 7c0 2 0 4-2 6h-1c-1 1-3 2-3 3l-1 1h0c0-2 1-2 2-4-4 1-4 6-9 6l4-4z" class="J"></path><path d="M430 296c1 0 1 1 2 2 3 1 5 2 8 1l1-1 1 1c-4 6-7 12-6 19l1 1-1-2c-1-1-1-2-2-2 0-1-1-2-1-2-1-2-2-3-2-5 3-2 5-4 8-6l-4-2c-2-1-4-2-5-4z" class="Q"></path><path d="M181 127h1v-9-3h0 2c-1 4-1 8 0 12 0 5 2 10 4 15 0 1 0 2-2 3-3-6-4-12-5-18z" class="K"></path><path d="M649 543l1 1c0 1 0 1 1 2 2 8 9 15 16 19 2 2 3 5 6 7h0l-1 1c-6-6-13-9-17-15-2-2-3-5-4-7l-2-8z" class="I"></path><path d="M511 288h2c-1 1-1 2-1 4 0 5-1 10-2 15h-1-1c-1-1-1-2-1-4h0-2c0-1 1-2 1-3l-1-1c1-1 2-4 3-5 1-2 2-3 3-5v-1z" class="L"></path><path d="M511 288h2c-1 1-1 2-1 4 0 5-1 10-2 15h-1c0-2-1-3-1-5v-2h-1l1-1 1 1c2-2 2-8 2-11v-1z" class="G"></path><path d="M623 240c6 1 12 2 17 4l4 2c3 1 7 4 8 6l-3-2c-10-6-21-8-32-6v-3c2-1 4-1 6-1z" class="a"></path><path d="M660 294l2-1v1c-5 5-9 10-12 17l-1-1-1-1c-1-1-1-1-2-1s-2-1-3-1v-5c1-1 1-2 3-2 2 1 3 2 3 4 1 1 1 0 2 1l1-1 1-2 1-1c2-3 4-5 6-7z" class="S"></path><path d="M597 802v-6c0-10-4-21-11-28h-1v-1c2 1 4 3 5 4 4 3 5 6 7 10 2 6 2 12 1 17v1l1 1v2h-2z" class="B"></path><path d="M450 223h5c-1 1-2 1-2 2l-3 3-4 8c-1 1-1 2-2 3-1-2-2-3-3-6l1-1v-1l1-1 2-2c-1-2 3-3 5-5z" class="O"></path><path d="M442 231l1-1c0 2 0 1 1 2v2l2 2c-1 1-1 2-2 3-1-2-2-3-3-6l1-1v-1z" class="W"></path><path d="M450 223h5c-1 1-2 1-2 2l-3 3c-2 0-4 2-6 2 1-1 3-2 4-3-2 0-2 1-3 1-1-2 3-3 5-5z" class="G"></path><path d="M672 573l1-1 1 1c4 2 8 4 13 5 1-1-1-2 1-2h2c2 1 5 1 7 1h0 0c-3 2-4 4-7 5-1 0-2 1-3 1-4-3-8-6-13-8l-2-2z" class="K"></path><path d="M634 593c1 0 2 3 3 4-6 7-11 13-14 21-3 7-4 13-7 19l-1 1h-1l5-12c1-5 3-9 5-13 1-2 1-3 2-4l2-2v-2h1v-1-1-1c1-3 4-6 5-9zm8-304c1 0 1-1 1-1h1l1 1h1c1 1 1 1 1 2v1c1 0 1 1 2 1v3l3 4h0 0l1-2c1-1 0-3 0-4v-14 3c1 1 0 3 1 5v9h2l1-1 1-1 2-1c-2 2-4 4-6 7l-1 1-1 2-2-1c0-2-2-5-4-6h-1c1-1 1-1 1-2l-1-1c-1-1-2-3-3-5z" class="B"></path><path d="M622 188l2 1c1 1 2 1 3 2s1 4 1 5c1 1 3 2 4 3s1 3 1 4c-2-1-4-2-5-3-3-2-8-5-12-4h-2c2-2 7-3 8-4v-4z" class="M"></path><path d="M435 697c1 0 2 1 3 1l10 10s0 1 1 1v1h-1-1s-1-1-2-1c-2-1-3-3-5-5-1 0-2-1-3-2s-1-1-1-2l-1 1-3 3c-2 1-4 2-6 1h-1c-1 0-1 0-2-1l1-1h4l3-2c2-1 3-2 4-4z" class="E"></path><path d="M272 254c3 0 7 0 9 3h-1c0 1 1 1 1 1 2 1 4 2 5 2v1c-9-4-19-3-29 1h0 0v-1c1-1 1 0 2-1 4-3 9-4 13-6z" class="V"></path><path d="M701 492h0 0c2 3 5 4 7 6 6 6 11 15 10 24 0 3 0 5-1 8v-2c1-8-1-16-6-22-4-5-9-9-13-14h3z" class="Q"></path><path d="M365 612c1 0 2 0 3-1 0-1 0-1 1-2h2c0-1 1-2 2-2 2 0 2 0 3 2l1 1 4 1 1 1 2 2c-1 1-13 1-16 1l-3-3z" class="W"></path><path d="M377 610l3 2v1c-1 0-2 0-3 1h0-2-1c0-1 0-1-1-2l-1 1c-2-1-2 0-2-2h2 1l-1-2h1 3l1 1z" class="R"></path><path d="M838 86c2 0 3 1 4 3 7 8 11 20 11 31v8c0 1 0 0-1 1v-1c1-2 1-8 0-9v-1c0-1 0-3-1-4v12c-1 3-1 5-3 7h0c1-3 1-6 2-9 2-14-3-27-12-38z" class="I"></path><path d="M445 762c1-2 2-2 4-3h1c1 0 2-1 3-1 4 0 9 0 13 3-1 1-1 2-1 4h0c-4-2-7-1-11-2h4v-1c-3 0-6 0-9 2-1-1-3-2-4-2z" class="D"></path><path d="M648 629h2c1 0 2 1 5 1 2 1 4 2 6 4 3 3 5 7 5 12h-1c-1-3-3-6-6-8-4-3-8-5-11-8v-1z" class="Y"></path><path d="M670 494c-2 1-2 1-3 3 0 1 0 1-1 1 0 2 1 3 2 5l-1 1c-2 1-4 4-5 5s-1 0-2 1l-1 2c-1-2 4-5 5-8h-2l-1 1c0-2 1-3 2-4l1-2c0-2 2-3 3-4s1-2 2-2l2-1v-1c1-1 2-1 3-2 2-1 2-2 5-2l3-1c1-1 3 0 5 0 0-1 1-1 1-1 0-1 2 0 2 0l1-1c2 0 5 0 6 1-2 0-5 0-8 1-5 0-9 1-13 4-3 1-4 2-6 4z" class="H"></path><path d="M592 726c3-1 5-1 8 0l7 1c-6 3-13 5-19 8h-1c0-2 0-4 2-6 1-1 2-1 2-3h1z" class="I"></path><path d="M438 788c3 3 1 13 2 18h1v-9c1 1 1 2 1 3 0 5 1 11 2 16 1 3 4 8 3 10-1-2-2-5-4-8-3-7-6-15-6-23 1-2 0-5 1-7z" class="D"></path><path d="M384 630h5v-1l1 1v1c1 0 1 0 2-1v1h0l-1 1c-5 2-12 6-16 12-1 1-2 4-3 6l1-6c1-5 4-10 8-12l3-2z" class="P"></path><path d="M588 339h4c-2 1-4 0-5 1-1 0-2 1-2 1h-5l-12 3c-5 1-10 4-14 7-1 1-1 1-2 1 3-3 6-5 9-7l-1-1c-1 1-3 1-4 2h0l-1-1h0 1c1-1 3-2 4-2 1-1 4-1 5-2 8-2 15-2 23-2z" class="J"></path><path d="M674 575c5 2 9 5 13 8h0c-4 2-7 5-11 6l-1-1v-11h0c-1-1 0-1-1-2z" class="M"></path><path d="M689 486h6c2 0 4 1 5 2s1 2 1 4h0l-1-2c-6-3-15-3-22 0-1 1-3 2-4 4s0 4 1 6h-1v2h0-2c-1-1-3-2-4-4 0-2 1-3 2-4 2-2 3-3 6-4 4-3 8-4 13-4z" class="C"></path><path d="M640 228l-1-2c1-1 1-1 2-1v-1h1c1 0 1 0 2 1 1 2 3 2 4 4l1 1 2 1h0c1 1 1 1 1 2l2 2c0 2 0 2 2 3h1c0-2-1-4-2-6-1-1-1-1-1-2s-1-2-1-3l-1-1-1-2c-1-1-1-2-1-3h1c1 3 3 6 4 9h0c0 1 1 2 1 3l1 1v1c1 1 0 2 0 3v1c-2 0-2 0-2-1 0 1 0 2 1 3v1c1 1 1 1 2 1v1 1h0l2 2c0 1 0 2 1 3l1 2c0 1 0 2 1 3-2-1-3-4-4-7-1-2-3-5-5-8-1-3-4-6-7-8h0c-2-2-5-3-7-4z" class="M"></path><path d="M405 676l-1 1 1 1c0-1 1-2 2-2 2 0 5-1 7-1-1 2-2 2-4 2h-2v1h-2v2l1 1-1 1c-9 3-15 11-18 20h-1c3-12 9-18 18-26z" class="U"></path><path d="M731 380c0-1 0-2 1-3 3 0 5 4 7 5 1 0 2-1 3-1h0c7 3 10 7 14 13-8-5-17-8-25-14zM420 223c3 2 6 3 10 2h1c5-1 8-2 13-4 6-2 13-2 20 0h1c4 1 8 3 12 6-4 0-8-2-11-3-4-1-7-1-11-1h-5c1-2 3-1 4-2-3 0-5 0-8 1h-1l-10 4h-1c-4 1-9 2-13 0-1-1-2-1-2-2l1-1z" class="K"></path><path d="M446 222c3-1 5-1 8-1-1 1-3 0-4 2-2 2-6 3-5 5l-2 2-1 1v1l-1 1c-1 2-1 3-2 5l1 3c0 1 1 2 2 3-1 0-3-1-4-2v-1h-5-2l1-2c2-2 3-4 6-6 1 0 0 0 0-1h0l-1-1 3-3h0c1-2 3-3 5-3l2-2-1-1z" class="J"></path><path d="M442 231v1l-1 1c-1 2-1 3-2 5l1 3c0 1 1 2 2 3-1 0-3-1-4-2v-1h-5c3-3 6-8 9-10z" class="V"></path><path d="M378 571l1 1c1 0 1 0 2 1h4c2 1 4 2 6 4l3 3v3c-1 0-2-1-3-1-4-3-9-6-14-5-2 1-3 1-5 1l1-1-1-1 1-1c1-2 3-3 5-4z" class="U"></path><defs><linearGradient id="D" x1="204.184" y1="157.717" x2="187.383" y2="151.113" xlink:href="#B"><stop offset="0" stop-color="#997865"></stop><stop offset="1" stop-color="#bd9d81"></stop></linearGradient></defs><path fill="url(#D)" d="M186 145c2-1 2-2 2-3 5 7 11 12 18 17h-3c0 1 1 2 0 4h-1c-6-4-12-11-16-18z"></path><path d="M356 492h1l2-1h0c1 1 2 1 2 1 2 0 3 1 4 1l1 1-1 2h1l1-1 1 1-1 1h0c-1 2-1 2-3 3l-1 1c2-1 3 0 4-1l-1 1h-4c-2 0-5 2-7 2l-2-1h0c2-2 4-3 5-4h-2-2c-2 0-2 1-3 2 0-3 1-1 2-3 1-1 1-2 1-3v-1l1 1c1-1 1-1 2-1l-1-1z" class="G"></path><path d="M358 498l1-1c1-1 2-2 4-2h1c1 1 0 1 0 2-2 2-3 2-5 3h-1-1c-1 1-2 2-4 2 2-2 4-3 5-4z" class="F"></path><path d="M363 610c1-1 2-2 2-3v-1c1 0 2-1 3-1 1-1 2-2 3-2 5 0 10 3 15 5l-1 1c-1 0-2-1-3-1l-1 1 1 3-1-1-4-1-1-1c-1-2-1-2-3-2-1 0-2 1-2 2h-2c-1 1-1 1-1 2-1 1-2 1-3 1-2 1-4 3-6 3l4-5z" class="B"></path><path d="M363 610h3c1-1 0-2 1-2s1-1 2-1c1-1 2-2 4-2 3 0 6 4 8 6l-4-1-1-1c-1-2-1-2-3-2-1 0-2 1-2 2h-2c-1 1-1 1-1 2-1 1-2 1-3 1-2 1-4 3-6 3l4-5z" class="O"></path><path d="M305 284c1 1 2 1 2 3l4 5c0 1 0 1 1 2v1c1 1 2 2 2 4 1 1 2 2 2 3v1c0 1 0 1 1 2s2 4 3 5v2s1 1 1 2h0v2c0 1 0 1 1 2v1l1 1h0l-1 1-1-1-1 1-1-2v-1l2 1h0c-1-3-6-11-9-13s-7-3-10-6c1 0 3 1 5 1 2 1 5 2 7 4l1 1 1-1c-1-1-2-2-3-2l-1-1c-2-1-4-2-6-2-1-1-2-1-3-2 3 0 5 0 8 1l2 1 1-1c-1-2-2-3-3-4h-3v-1h2 1c-2-4-4-7-6-10h0z" class="M"></path><path d="M277 231c1 2 2 5 2 7l2 4h0l3 3h1c1 1 2 2 3 4l-4-2c-2 0-3 0-5 1h-1c-1 2-2 3-4 4l-2 2c-4 2-9 3-13 6-1 1-1 0-2 1v-1l-1 1-2-2c4 0 7-2 11-4 1-2 3-3 5-4 3 0 6-4 8-7v-5c0-3-1-5-1-8zm162 552c0 2 0 2 1 3 0-1 0-4 1-5 3-2 5-7 8-10 1-1 1-2 2-2 1-1 2-1 3-1l1-1 1 1c-6 3-10 10-12 17 0 1-1 2-1 3-1 4-1 8-1 12 0-1 0-2-1-3v9h-1c-1-5 1-15-2-18l1-5z" class="E"></path><path d="M184 104c5-12 13-21 25-26 2-1 4-2 7-2h0l-6 3c-7 4-13 9-16 16-3 5-4 10-5 15l-1 2h0l-1-1c1-1 1-1 1-2v-3l1-1v-2h1v-1-1c0-1 1-2 1-3h1l-3-3c-2 3-3 6-4 9h-1z" class="a"></path><path d="M613 238c1 2 3 4 1 6v1h0c-10 7-16 15-20 27 0-2 1-6 1-8 4-10 10-17 17-25l1-1z" class="P"></path><path d="M457 335c5 1 10 1 15 1l1 1c2 0 4 1 6 2v2h-1c2 1 2 2 4 2 1 0 2 2 3 3-4-2-8-3-12-4-3-3-16-2-20-3v-1h-1-3c3-2 5-2 8-3zm-16-102c1 3 2 4 3 6 5 6 11 13 14 20 1 4 2 8 3 11l-3-6c-3-6-7-11-12-15-1-2-2-3-4-5-1-1-2-2-2-3l-1-3c1-2 1-3 2-5z" class="Y"></path><defs><linearGradient id="E" x1="656.572" y1="261.877" x2="652.031" y2="243.971" xlink:href="#B"><stop offset="0" stop-color="#060708"></stop><stop offset="1" stop-color="#2d2e2f"></stop></linearGradient></defs><path fill="url(#E)" d="M654 240l5 8c1 3 2 6 4 7v2c1 2 0 5 1 7v1c0 2 1 3 1 5 0-4-3-8-6-11-1-2-3-5-6-6l-1-1c-1-2-5-5-8-6 3-1 5-1 7 0 1 1 2 2 3 2s1-1 2-1v-1c-1-2-1-3-2-5h0v-1z"></path><path d="M644 573l1 1c2 0 3 0 5-1h0v-1c-3-1-4-2-5-4-1-1-1-2-1-3v-1l1 1c1 2 4 4 6 5 1 1 3 1 5 1 6 1 8 3 11 8-7-2-12-2-18 1h-1v-3l1-2c-2 0-3 0-5-2z" class="K"></path><path d="M353 584c3 3 6 4 9 6 5 1 8 3 13 3 2 2 2 3 1 6-7 0-13-2-19-6-1-2-2-3-4-5v-4z" class="I"></path><path d="M601 775c1 2 2 4 2 6h0c1 5 1 11 0 16-2 9-6 19-10 27l-1-1c2-7 5-14 5-21h2v-2l1-20c1-1 1-3 1-5z" class="D"></path><path d="M549 293l4-8v8c-1 2-1 5-2 7-2 3-4 6-5 9 0 2-3 4-4 6h-1v-1c-1-1-2-1-2-2l-2 1h0c3-7 8-13 12-20z" class="I"></path><path d="M549 293l4-8v8c-1 2-1 5-2 7-2 3-4 6-5 9h-2c1-1 1-2 2-3h0c1-1 1-1 1-2 1-1 1-2 1-3 0-3 2-5 1-8z" class="K"></path><path d="M600 780c0-3-2-6-3-8-4-5-9-9-15-9-2 0-4 1-6 0h1c-1-1 0-1-1-2 2-1 3-2 5-3 3 0 7 0 10 2h0c4 2 6 5 8 9l2 6c0 2 0 4-1 5zm64-166h-1c-1-1-1-1-2-1v-1h0c2-3 4-5 7-5h2c2 1 4 4 6 4h1c5 4 9 9 13 13-8-4-15-11-26-10z" class="Z"></path><defs><linearGradient id="F" x1="452.989" y1="728.398" x2="439.332" y2="734.967" xlink:href="#B"><stop offset="0" stop-color="#252728"></stop><stop offset="1" stop-color="#505152"></stop></linearGradient></defs><path fill="url(#F)" d="M438 726c5 0 11-1 16 3l2 2h0v1c0-1 0-1-1-1v1c0 1 1 2 2 4v1c2 2 0-1 1 1l1 1h-1l1 2c-2 0-5-3-7-4-3-3-7-5-11-7-3-1-5-2-7-3l4-1z"></path><path d="M536 314c0 1 1 1 1 2 1 0 1-1 2-2l1 1 2 1v2h-2v1c0 1-1 2-2 3v1c0 1 0 0-1 1s0 2-1 3v1l-1 1v1c0 1-1 3-2 4v1c0 1-2 2-3 4h-1 0-1v-1l1-1h-2c0-3 3-10 4-13l2-3 3-7z" class="J"></path><path d="M531 324l2-3h2v1c-1 2-2 2-4 2z" class="T"></path><path d="M536 314c0 1 1 1 1 2 1 0 1-1 2-2l1 1c-2 1-2 3-4 4v3h-1v-1h-2l3-7z" class="O"></path><path d="M527 292c1 2 2 3 2 4s0 1 1 1l1-2c2 3 3 6 4 9v4c0 1 0 2-1 3s-1 2-2 3l-2-1v-1c-1-2-2-2-3-3v-2c-1-1-1-2-3-2v-1l-1-1 1-1 1-6 1 2h1v-6z" class="J"></path><path d="M531 295c2 3 3 6 4 9v4l-2-1h-1c-1 0-1-1-2-1v-1l-2-2c1-2 1-3 2-5v-1l1-2z" class="S"></path><path d="M530 305c0-1 0-2 1-3h1l3 2v4l-2-1h-1c-1 0-1-1-2-1v-1z" class="W"></path><path d="M365 574l2-1 1 1c0 2 0 3-1 4 0 2-1 3-1 5 0 1 0 5-1 5v1h-1l-2 1c-3-2-6-3-9-6-1-1-1-1-1-2l13-8z" class="M"></path><path d="M642 289c1 2 2 4 3 5l1 1c0 1 0 1-1 2h1c2 1 4 4 4 6l2 1-1 1c-1-1-1 0-2-1 0-2-1-3-3-4-2 0-2 1-3 2v5h-1c-2 0-4 0-5-2-2 0-3-1-4-2l-3-2c2 0 3-1 4-2h1v-1c4-2 6-4 7-9z" class="F"></path><path d="M642 289c1 2 2 4 3 5-1 1-1 1-1 2l-1 1c0 1-1 1-1 2-1 1-1 1-1 2h-1c-2 0-3 1-5 2h-2l-3-2c2 0 3-1 4-2h1v-1c4-2 6-4 7-9z" class="D"></path><path d="M651 551h-1v-3c-1-1-1-3-1-4 0 0-1 0-1-1v-3c1-4 0-9 1-12l1-5 2-4h1c0-2 1-3 3-4h1s1-1 2-1 1 0 1-1l2 1-3 1c-1 0-1 0-1 1h0 1c1 0 4-1 5 0h0c1 0 1 0 2 1h1l3 3v1h-1c-2-1-3-1-5-2-2 0-4 1-5 2-3 2-8 8-8 12v1l-1 1v1-4h-1c0 3-1 9 0 11l2 8z" class="M"></path><path d="M272 239c0 1-1 2-1 3 1 1 1 1 1 2l-1 1v1c0 2 0 2-1 4v1c-2 1-4 2-5 4-4 2-7 4-11 4-4 3-10 9-11 14v2c-1 1-1 1-1 2v1c-1 1 1 4-1 6l-1-1v-5l1-3h0c0-1 0-2 1-2 0-3 1-4 2-7h1c1-3 4-5 6-7h1c3-3 7-5 11-7 1-1 2-2 4-3h0c1-1 1-1 1-2l1-1c-1-2-1-3-3-4v-1c0-1 0-1 1-1 2 0 3 0 5-1z" class="F"></path><path d="M514 293l2-2v1l2 18c0 4 0 7-1 11 0 1-1 2-1 3v9 7c0 3 0 4-1 6 1 1 1 1 2 1v9l-1 1-2-2v-5c1-1 1-4 1-6v-7c-1-1-1-3-1-5v-4c0-1 0-2 1-3h0c-1-2-1-3-1-4 1-4 2-10 1-13-1-2-1-3-1-4l1-1c-1-1-1-8-1-10z" class="B"></path><defs><linearGradient id="G" x1="587.443" y1="400.444" x2="591.51" y2="405.991" xlink:href="#B"><stop offset="0" stop-color="#6a6a69"></stop><stop offset="1" stop-color="#827d7c"></stop></linearGradient></defs><path fill="url(#G)" d="M600 396c5 0 5-5 9-6-1 2-2 2-2 4h0l1-1c0-1 2-2 3-3l-2 3c-6 8-17 14-27 16h-4l-1-1c-1-1-1-1-1 0-2 1-3 1-5 2h-1c1-2 0-2 0-3h-2c-1-1 0-1-1 0h-1l-1-1h2v-1h-1l-3-3c-1-1 0-2 0-2 2 2 5 3 7 6h0c2 0 4 0 6-1l1 2c9-1 16-5 23-11z"></path><path d="M308 371c0-2 3-5 4-7h0c1 0 0 0 1 1h1v2-1c1-1 1-1 1-2s1-2 2-3l1-4c1 0 1 1 2 1v1c0-2 0-2 1-3h1c0 3-1 5-2 8h-1c-1 3-2 5-3 7-1 3-5 7-7 9l-4 2v-1c-1 1-2 1-3 1l1-1 1-1-1-1-3 1c3-3 6-6 8-9z" class="F"></path><path d="M308 371c0-2 3-5 4-7h0c1 0 0 0 1 1h1v2-1c1-1 1-1 1-2s1-2 2-3l1-4c1 0 1 1 2 1v1c0-2 0-2 1-3h1c0 3-1 5-2 8h-1l-2 2v1l-1 1c-1 1-1 3-2 4 1-3 3-6 3-8h0l-1 2c-1 1-3 3-3 5-1 2-2 3-4 5l-1-1c1-1 1-3 2-4h-2z" class="D"></path><path d="M603 224h-1c-5-1-10-1-15 0l-9 3c4-3 7-5 12-6h1c5-2 12-2 17-1h0c8 3 15 7 24 4v1c-1 1-2 1-4 1l-3 1h-1c-2 1-3 1-4 1l-7-3 2 3c-3 0-5-1-7-3l-2-1-1 1c-1 0-2-1-2-1z" class="V"></path><path d="M603 224v-1-1h-2c1-1 2-1 3-1s2 0 4 1h0c1 0 1 0 2 1h-1 0c1 1 3 2 4 2l2 3c-3 0-5-1-7-3l-2-1-1 1c-1 0-2-1-2-1z" class="S"></path><path d="M777 257c-3-2-6-3-9-5-1-2 0-2 0-3s-3-5-3-6c-1-2-2-4-2-6h1c1 2 2 3 4 3h3v1 1c-1 1-2 3-1 5 2 5 12 8 16 11 5 4 9 10 11 16v1c1 4-1 8-1 12h0v-1c1-5-1-14-4-18-4-6-9-9-15-11z" class="Y"></path><defs><linearGradient id="H" x1="723.761" y1="359.524" x2="724.754" y2="369.623" xlink:href="#B"><stop offset="0" stop-color="#554942"></stop><stop offset="1" stop-color="#69615c"></stop></linearGradient></defs><path fill="url(#H)" d="M724 354c1 10 7 17 13 24l5 3c-1 0-2 1-3 1-2-1-4-5-7-5-1 1-1 2-1 3h-1l-5-5c-1-2-3-5-4-7-2-2-3-5-3-8h4l1-1c1-1 0-2 0-3l1-2z"></path><path d="M721 368c1 0 2 0 3 1 2 2 3 4 5 5h0v-2c1 0 1 1 2 1-1 1-1 2-1 2h-1-4c-1-2-3-5-4-7z" class="Q"></path><path d="M731 373c2 2 3 4 6 5l5 3c-1 0-2 1-3 1-2-1-4-5-7-5-1 1-1 2-1 3h-1l-5-5h4 1s0-1 1-2z" class="I"></path><path d="M317 378c2-1 3-1 5 0h0l2 2c1-1 1 0 1-1l1 1v-1c1-1 2-1 3-1 0-1-1-1-1-2h0v-2h0v-1h0c1 2 2 2 3 4h3c2 2 5 3 7 5 0 1-1 2 0 4 0 2 0 2-2 4h-3 0-2l-2-3h-1v1c1 2 2 3 3 5h-1c-1-2-3-4-5-6 0-2-2-3-4-5-2-3-5-2-7-4z" class="B"></path><path d="M336 390c-1-2-3-4-4-6h1l-4-4 1-1 2 2h1 1c0 1 1 2 1 4h1c0-1 0-2-1-2l1-1v-1c1 1 1 1 1 3l1 1c1 1 1 2 1 3h-1v-1c-1 1-1 0-1 1 0 2 0 1-1 2h0z" class="F"></path><path d="M265 210c4 1 5 2 7 4h0l4 6c1 1 2 2 2 3 2 5 3 11 6 15 1 2 3 4 5 6 2 1 4 4 6 5-1-2-2-3-3-5-1-1 0-1-1-2 0-1-2-2-3-3v-1-1l1 1 4 4c1 1 0 3 1 3 0 1 1 2 2 3l2 2h0c0 2 0 3 1 4h-1-1c0-1-1-1-1-2l-1-1c0-1-2-2-3-3l-6-6c-1 0-2-2-2-3-1-1-2-3-3-4 0-3-1-5-2-7v-1c-1 3-1 5 0 8l1 2 1 1v2c1 1 2 3 4 4h0c1 1 1 1 2 1 1 1 2 2 3 4 0 1 1 1 2 2s0 0 1 2l3 3 1 1 1 1c0 1 1 2 2 2v1l1 1v1h0c1 1 0 1 1 2h-1v1l-3-4c-1-3-4-3-6-5-1-1-2-1-3-2v-5l-1-1c-1-2-2-3-3-4h-1l-3-3h0l-2-4c0-2-1-5-2-7 0-3-1-7-1-10-1-3-7-7-10-8-2 0-3 0-4-2v-1h3z" class="M"></path><path d="M289 250c5 4 9 10 12 15v1l-3-4c-1-3-4-3-6-5-1-1-2-1-3-2v-5z" class="G"></path><path d="M348 411c1 1 2 1 3 2v1h0l2 2v1l1 1 1 1v2l1 1v1h1v1c0 2 2 3 3 5h0c0 1 0 1 1 2v1 1l1 1c0 1 0 1 1 2v6 1l1 3 3 9 1 3 3 5-1 1c-1-2-1-4-3-5h0c0 2 1 5 2 7l1 3c1 1 1 2 1 3 1 0 1 0 1 1l1 2h0l-1 1v-1c0-1 0-1-1-2s0-1-1-1c0-2 0-2-1-3l-1-4c0-2-1-3-1-4l-1-1c0-1 0-2-1-3 0-1 0-1-1-2 0-1 0-2-1-2l-2-6v-3c-1-1-1-3 0-4v-1c-1-1-1-2-2-3v-1-1l-3-6c0-1 0-1-1-1v-2l-1-1h0l-1-1v-1c-1-1-2-2-4-2l-2-2h0l-5-5c2 0 3 2 6 3 0-1-1-1-1-2 1-1 1-1 1-2v-1z" class="H"></path><path d="M342 413c2 0 3 2 6 3 0-1-1-1-1-2 1-1 1-1 1-2 2 2 4 4 5 6 0 2 0 3 1 4h0c-2-1-3-3-5-4h-2l-5-5zm-64-165h1c2-1 3-1 5-1l4 2 1 1v5c1 1 2 1 3 2v1c0 1 0 1-1 2v1c2 1 3 2 5 5 1 1 4 3 5 5h0c-3-2-5-4-7-5l-1-1-7-4v-1c-1 0-3-1-5-2 0 0-1 0-1-1h1c-2-3-6-3-9-3l2-2c2-1 3-2 4-4z" class="B"></path><path d="M278 248h1c2-1 3-1 5-1l-1 1c0 2 0 2 1 3 1 0 2 1 2 1l-1 1-7-5z" class="D"></path><path d="M284 247l4 2 1 1v5l-3-3s-1-1-2-1c-1-1-1-1-1-3l1-1z" class="J"></path><path d="M274 252c4 0 7 0 10 4 1 1 5 2 6 3v3l1 1c1 0 2 1 2 2l-7-4v-1c-1 0-3-1-5-2 0 0-1 0-1-1h1c-2-3-6-3-9-3l2-2z" class="G"></path><path d="M687 583v5c-2 1-4 4-6 5-4 3-9 5-14 5-2 1-5 0-7 1-1-2-3-4-4-6 6 0 14-2 20-4 4-1 7-4 11-6z" class="U"></path><path d="M667 598l-2-1c0-1-1-2-1-3 2-1 4-1 6-1 3-1 6-2 9-2 1 0 1 1 2 2-4 3-9 5-14 5z" class="K"></path><path d="M407 212l8-10c2 0 4 1 6 3 0 1 0 1-1 2-3 1-5 1-7 2l-1 1-1 1h0c0 1 0 1 1 2l-2 1c-1 1-1 1-1 3h0l1-1c1 0 1 1 2 1h2s0 1 1 1l-1 2c0 2 0 5 1 7l1 1c-1 0-1 0-2 1-1 0-1 1-2 1l-5 3c0-6-2-14 0-21z" class="M"></path><path d="M409 217l1-1c1 0 1 1 2 1h2s0 1 1 1l-1 2c0 2 0 5 1 7l1 1c-1 0-1 0-2 1v-2c-1-1-3-2-4-2l-1 1h0-1v-1l1-1c1-1 0-5 0-7z" class="N"></path><path d="M384 630h0c3-1 5-4 8-3l3 3c3 4 6 9 7 14v1c1 1 1 2 1 3 1 1 1 3 1 5-5-2-7-8-12-10h-1l-8-2c4-2 7-5 10-8v-1l-1-1h0v-1c-1 1-1 1-2 1v-1l-1-1v1h-5z" class="C"></path><path d="M335 469c4-1 8-1 12-1l3 1c1 0 2 0 2 1h2c0 1 0 1-1 2s-1 1-1 3h-4l1 1 1 1v2c-3-1-6-2-8-2v-2l-2 1c-1-1-2-1-2-2-2 1-3 1-5 1-3 0-7 0-10 1 0-1-1-1-1-2l1-1c4-2 8-3 12-4z" class="O"></path><path d="M323 473c4 1 8-2 12-1l1-1h2v1h-3v1h2l1 1c-2 1-3 1-5 1-3 0-7 0-10 1 0-1-1-1-1-2l1-1z" class="S"></path><path d="M469 363h1c3 0 5-2 9-3l2-1c4 3 6 5 8 9v1c0 2 0 5-1 8 0 1 0 3-1 4s-2 2-2 4c0 1-2 7-2 8l-3 6-1-1h0c1-3 2-5 3-8 2-7-2-12-6-18l2 1c2 2 4 3 6 5h1v-5c0-1 0-2-1-3-3-6-11-6-17-7h2v-1 1zm171 338c0 1 0 2-1 3-5 0-11 0-15 2h1 4-2c-1 0-2 1-3 0-1 0-1 0-2 1v-1h0l1-1-2-1c-1 1-2 0-3 1h1 1v1l-1 1h-1c-2-1-2-2-3-1h-3-1c0-1-1 0-2-1h0c-2-1-2-1-3-1 0-2 0-2-1-3-1 0-1 0-1 1l-1 1c-1 0-2 1-3 2h0l-2 1v1l-2 1c-2 1-2 3-4 4 0 0-1 0-1 1-2 0-3 2-4 3h-1c0 2-2 3-3 4h-1v1c-1-1 0-2 0-2l1-1c0-1 1-2 2-3 0-1 1-1 1-2 1-1 1-2 2-2l1-2c0-1 0-1 1-2h0l2-2c2-1 0 1 1-1l2-1h1l1-2c2-1 4-3 5-4s1-2 2-2h0 1c1 1 1 1 0 2v2c1 2 2 5 5 6 5 2 13-3 18-4h12z" class="M"></path><path d="M605 699h0c-3 4-6 6-10 9l-10 8c3-4 5-8 9-11 3-3 7-5 10-9 0-1 0 0 1-1v2 2z" class="E"></path><path d="M505 280l8-53 2 2h0l1 1c1-1 1-1 2-1l-1 10v7 6h-1c-1-1 0-1-1-1h-1c-1 1-1 4-2 7 0 2-1 3-1 5v6h-1v-3c-1 1-1 2-1 3v1l-1 4c-1 1 0 3-1 4l-1 2c-1 0 0 1-1 0z" class="S"></path><path d="M515 229l1 1c1-1 1-1 2-1l-1 10-3 1c0 2 0 2-1 3-1-4 2-9 2-14h0z" class="O"></path><path d="M513 243c1-1 1-1 1-3l3-1v7 6h-1c-1-1 0-1-1-1h-1c-1 1-1 4-2 7-1-2-1-3 0-4 0-2-1-4 1-6 1-1 0-3 0-5z" class="F"></path><path d="M522 301c0-3 0-6 1-9 1 4 0 7 1 10l-1 1 1 1v1c2 0 2 1 3 2v2c1 1 2 1 3 3v1l2 1c-1 1-1 3-2 5-1 1-1 1-1 2l-1 2s0 1-1 1c-2 5-2 11-4 16v-4c0-1-1-3-1-4 0-2 0-4-1-6v-4c0-2-1-5 0-8l1-13z" class="D"></path><path d="M524 305c2 0 2 1 3 2v2c0 1-1 2-1 3l-1 1v2c0 1-1 1-1 3v1l-1 1v-5c0-3 1-7 1-10z" class="L"></path><path d="M592 726c-2 0-2 1-3 1-4 3-8 4-10 8l-1 2-2 3-1 2c0 1-1 2-1 3l-1 1h0c-1-1 0-1 1-2v-2c1-2 2-4 3-5 2-3 3-5 6-7h0c1-1 2-1 3-2l1-1c1-1 0 0 2-1 1 0 3-1 5-2h0c1-2 2-3 4-4l2-1v-1c2-1 3-3 5-4 1 0 2-1 4-1l1-1h1s1 0 2-1v-1h3 1 6v-1h2l1 1h-2c0 1 1 1 2 1h0l-1 1-1-1h0l-2 1h-1c0 1-1 1-1 1l-1 1h-2c-1 1-3 2-4 3v1h0c-2 1-3 3-5 4-1 2-4 3-6 4h-2c-3-1-5-1-8 0z" class="H"></path><path d="M674 502v-2h1c-1-2-2-4-1-6s3-3 4-4c7-3 16-3 22 0l1 2h-3c-1 1-2 1-3 2s0 2-2 2l-4-2c-1 1-1 2-1 3 0 2 0 3 1 4-4-1-4-4-8-3h-1l1 1c1 2 3 4 4 7l-1-1c-2-2-4-4-8-4l-2 1z" class="F"></path><defs><linearGradient id="I" x1="684.041" y1="470.904" x2="694.443" y2="460.013" xlink:href="#B"><stop offset="0" stop-color="#303132"></stop><stop offset="1" stop-color="#4d4d4e"></stop></linearGradient></defs><path fill="url(#I)" d="M681 465c3-2 4-8 5-11v-4c2 3 5 8 8 9h1c2 1 5 0 7 0h1c1 0 1 0 2-1v1s-1 1-2 1l-1 4h0v4h0c-4 1-8 0-12 1h-3c-1 1-3 1-4 1l-2-1v-4z"></path><path d="M702 468c-1-1-2-3-3-3-1-1-2-1-2-2l1-1c1 0 2 0 3-1 1 0 1 0 2-1l-1 4h0v4z" class="T"></path><path d="M516 285l2 3c0 3 0 6 1 8v2l-1 3 1 1v1 1c2 0 2-2 3-3l-1 13c-1 3 0 6 0 8v4c1 2 1 4 1 6 0 1 1 3 1 4v4 2c-1 3-1 6-1 9-1 2-1 4-1 6v2c-1 1-2 1-3 2-1-8-1-16 0-24v-5-6-7c1-3 1-6 0-9l-2-18v-7z" class="U"></path><path d="M518 332c0-2 1-2 2-3v1c0 2 0 3 1 4v2l1 1h-1c0 1 0 1 1 2 0 1 0 1-1 3 0 2-1 6 0 9l-1 1c-1 0-1 0-2-1v-14-5z" class="Q"></path><path d="M632 673h0 1c1 3 4 5 6 7 5 6 11 12 12 20-6-10-12-17-24-20-3-1-7-1-10-1s-7 2-10 1h-1c0 1-1 1-2 1v-3c1 1 1 0 2 1 0-1 0-2 1-3s2-1 3-1h0c4-2 9 0 13-2h3l3 1 3 1v-2zM838 86c-3-2-5-4-8-6s-6-3-9-5c12 3 22 10 29 20 7 11 9 25 6 38-1 5-4 12-8 16-2 1-2 2-4 3v1l-1-1 2-1v-1c1-1 2-2 3-2s1-1 1-1v-1l2-1v-1-1c1-2 0 0 1-1 0-1 1-1 1-2v-1c0-1 1-1 1-2v-1c1-1 1-2 1-3l-2-1c-2 1-1 3-3 4v-1-1c1-2 1-3 2-5 1-1 1 0 1-1v-8c0-11-4-23-11-31-1-2-2-3-4-3z" class="Y"></path><path d="M522 249l3 35 2 8v6h-1l-1-2-1 6c-1-3 0-6-1-10-1 3-1 6-1 9-1 1-1 3-3 3v-1-1l-1-1 1-3v-2c-1-2-1-5-1-8l1-3v-5c-1-1-1-2 0-3 0-4-1-8 1-12h1v4l1 1-1-13c0-1 0-3-1-5v-2h1 1v-1z" class="Q"></path><path d="M518 288l1-3v2c1 0 2-1 3-2 0 3 0 5-1 7 0 2-1 5-1 7-1 0 0 0-1-1v-2c-1-2-1-5-1-8z" class="a"></path><path d="M519 280c-1-1-1-2 0-3 0-4-1-8 1-12h1v4l1 1v15c-1 1-2 2-3 2v-2-5z" class="Y"></path><path d="M335 469l2-3h0c0-2-1-3-2-4l-1-1v-2c1-1 2-1 3 0 2 1 5 0 7 0 4-3 7-6 10-9l1 7v1 1c0 2 1 3 2 5h0l2 3c0 1 1 2 2 4 1 0 1 1 1 2l-4-2-3-1h-1-2c0-1-1-1-2-1l-3-1c-4 0-8 0-12 1z" class="B"></path><path d="M411 622c1 1 2 2 3 4l2 4c1 0 1 1 1 2s1 1 1 2 1 2 1 4c1 0 1 0 1 1l1 1c1 2 3 4 3 6 1 0 0 2 0 3h0c-1 1-1 2-1 3l-3 6h-1s-1 1-1 2v2 1h0l-2 2c-2 0-2 0-4-2-1-4-1-8 0-13l2-6-1-1v-3c1-1 2-2 2-3 0-2 0-4-1-6 0-2-1-3-2-5-1-1-1-2-1-4z" class="E"></path><path d="M550 376c0-1-1-3-1-4s3-6 3-7c2-3 3-4 5-6 1 0 2 0 3 1h1l1 1 2 1c1 0 2 0 3 1h1c-1 1-4 1-6 1l-1-1c-1 0-3 0-4 1-2 2-5 7-4 10v4 1c3-2 5-6 9-7-3 3-7 7-8 11 1 6 3 10 6 15h0c1 1 2 1 3 2 0 0-1 1 0 2l3 3h1v1h-2c-2-1-2-1-4-1-5-2-7-6-9-11h0l-1-1c0-2-1-5-2-6l-1-1-1-1v6c-1-2-1-6 0-8 0-1 0-2 1-3v-2l2-2z" class="M"></path><path d="M550 376l2 9c-3-1-3-3-4-5v-2l2-2z" class="E"></path><path d="M547 391c-1-2-1-6 0-8 0-1 0-2 1-3 1 2 1 4 4 5 1 4 2 8 4 12 1 2 3 3 4 5h1c0-2 0-3-1-4 1 1 2 1 3 2 0 0-1 1 0 2l3 3h1v1h-2c-2-1-2-1-4-1-5-2-7-6-9-11h0l-1-1c0-2-1-5-2-6l-1-1-1-1v6z" class="L"></path><path d="M628 329h0v-1l5-8v-1c1-2 1-6 1-9h-1c0-3-1-5-3-7-1-1-2-3-2-5 2 1 4 1 6 1h1-1c-1 1-2 2-4 2l3 2c1 1 2 2 4 2 1 2 3 2 5 2h1c1 0 2 1 3 1s1 0 2 1l1 1 1 1c-2 3-3 7-4 11l-1-1c-1 1-1 1-1 2l-1-1h-1-3 0l-1-1c1 0 1 0 2-1l-1-1c-2 1-3 3-3 5h-1v2l-2 2-2 1s-1 0-1 1l-2-1z" class="W"></path><path d="M643 307c1 0 2 1 3 1s1 0 2 1l1 1-1 2h-1c-1 0-1 1-2 2h-2s-1-1-2-1v-1-2c0-1 1-2 2-3z" class="F"></path><path d="M635 317c2 0 2 1 4 2-2 1-3 3-3 5h-1v2l-2 2-2 1s-1 0-1 1l-2-1c3-3 6-8 7-12z" class="L"></path><path d="M633 328c-1-1-1-1-1-2 1-1 1-2 2-3l1 1v2l-2 2z" class="C"></path><path d="M650 311c-2 3-3 7-4 11l-1-1c-1 1-1 1-1 2l-1-1h-1-3 0l-1-1c1 0 1 0 2-1l-1-1c-2-1-2-2-4-2l1-2c1 0 1-1 2-1l4 3 1-1h0v-2h2c1-1 1-2 2-2h1l1-2 1 1z" class="O"></path><path d="M643 314h2l1 2c0 1 0 1-1 1 0 1-1 2-1 3h-1c-1-1-1-2-1-3l1-1h0v-2z" class="P"></path><path d="M473 342c4 1 8 2 12 4 3 3 7 5 10 9 1 0 2 1 3 1 1 1 1 3 2 4v5c-1 1 0 1-2 0v3 1 6h0l-1-4 1 12h-1c-1 0-1-5-2-6 0-3-1-8-3-11l-2 1c-1-1-3-5-3-6-1-2-1-2-2-3l1-1c-4-5-8-7-14-10-1-1 0-1-1-1l-1-1c-2 0-3-1-5-1-1 0-1 0-2-1l1-1c0 1 1 1 1 1h2 0 2c6 4 13 8 19 12-1-2-5-4-5-6h1c-1-1-1-2-2-2-1-1-2-1-3-2s-2-1-3-1l-2-2h-1z" class="E"></path><path d="M486 357l6 9-2 1c-1-1-3-5-3-6-1-2-1-2-2-3l1-1z" class="b"></path><path d="M495 355c1 0 2 1 3 1 1 1 1 3 2 4v5c-1 1 0 1-2 0v3 1 6h0l-1-4c-1-3-2-6-4-9 0-2-2-4-3-6l1-1c1 1 2 2 4 2v-2z" class="H"></path><path d="M495 355c1 0 2 1 3 1 1 1 1 3 2 4v5c-1 1 0 1-2 0-1-2-1-5-3-8v-2z" class="X"></path><path d="M551 300c1-2 1-5 2-7 0 3 0 5-1 7 0 2 0 6 1 8v5c0 1-1 2-1 3 1 2 4 5 5 6s0 0 1 2 4 3 6 6h-2v-1c-1-2-3-3-4-4v2l-1-1c0-1-2-2-3-3v2l1 1c1 0 1 1 1 2h0l-3-2-1-1h-2c-2 0-1 2-3 0v-2c-2 0-3 2-5 3v-2h-1c-1 2-2 4-3 5l-2-1v-1c1-1 0-2 1-3s1 0 1-1v-1c1-1 2-2 2-3v-1h2v-2l-2-1-1-1c-1 1-1 2-2 2 0-1-1-1-1-2l1-1h0l2-1c0 1 1 1 2 2v1h1c1-2 4-4 4-6 1-3 3-6 5-9z" class="J"></path><path d="M547 314l3-2v1c1 2 1 4 0 7l1 1s0 1 1 1c0 1 1 2 0 3h-2c-2 0-1 2-3 0v-2c-2 0-3 2-5 3v-2l1-2c1-2 2-3 3-5 0-1 0-2 1-3z" class="L"></path><path d="M551 300c0 3-1 8-3 11 0 1-1 2-1 3-1 1-1 2-1 3-1 2-2 3-3 5l-1 2h-1c-1 2-2 4-3 5l-2-1v-1c1-1 0-2 1-3s1 0 1-1v-1c1-1 2-2 2-3v-1h2v-2l-2-1-1-1c-1 1-1 2-2 2 0-1-1-1-1-2l1-1h0l2-1c0 1 1 1 2 2v1h1c1-2 4-4 4-6 1-3 3-6 5-9z" class="R"></path><path d="M708 376h4l1-1c1 0 1 0 2-1h1v1l1-1v-1c-3-5-2-14-1-19h0 0v2c0 1 1 3 2 4 0 3 1 6 3 8 1 2 3 5 4 7l5 5h-2c-1-1 0-1-1-1h-2-5-2-2c-3 1-4 5-7 6v2c-2 2-4 3-5 5h-1l-1-1h-2c0-1 0-1-1-1v-1c-1 1-1 2-2 3v-1c0-2 0-4 1-5 1-3 2-5 3-8h2c2 0 3 0 5-2h0z" class="B"></path><path d="M719 369h1s1 0 1 1c1 1 0 2 0 3h-1c-1-2-1-2-1-4z" class="G"></path><path d="M702 391c0-1-1-1-2-2l1-1v-2l1-2c1-1 2-3 3-4l6-2h1l1-1h4l1-1v1c1-1 1-1 2-1 0-1 2 1 3 1l2 2h-5-2-2c-3 1-4 5-7 6v2c-2 2-4 3-5 5h-1l-1-1z" class="O"></path><path d="M407 664c1-3 0-6 2-8h0l1 3c-1 6-2 11-4 16h1c5-3 10-3 16-3h1c5 0 9 1 13 4h0l1 2c1 0 1 1 1 3h1c1 0 1 0 2 1 0 1 0 1 1 2 0 1 1 1 1 2v1c1 1 1 2 1 4 1 1 2 1 3 2 0 1 0 1 1 2h-1c-5-5-9-8-14-12-3-1-5-2-8-3-4-1-11-1-15 0h0l-4 1-1-1v-2h2v-1h2c2 0 3 0 4-2-2 0-5 1-7 1-1 0-2 1-2 2l-1-1 1-1c2-4 2-8 2-12z" class="S"></path><path d="M425 674c2 0 5 0 6 2h0c2 0 2 0 3 1 2 2 1 4 4 4v1h-1-1l-2 1-8-3c2 0 3 0 4-2v-1h-2l-3-3z" class="V"></path><path d="M414 675c1 0 2 0 3-1h0 1 2 5l3 3h2v1c-1 2-2 2-4 2-4-1-11-1-15 0h0l-4 1-1-1v-2h2v-1h2c2 0 3 0 4-2z" class="I"></path><path d="M526 234c2 9 2 18 4 27l1 10 1 5 2 8c1 1 1 2 1 3h0v2c0 1 0 1 1 2h-1v2l-2 2c-1-1-2-1-2-2v-1l-1 1c1 1 1 1 1 2l-1 2c-1 0-1 0-1-1s-1-2-2-4l-2-8-3-35v-5h1c0 4 2 25 4 28h2v-6c-2-5-2-12-3-18v-5c-1-2-1-4-1-5 1-1 1-3 1-4z" class="F"></path><path d="M525 284c1-2 0-3 2-4h0v2c1 1 1 2 1 3l1 1v-2l2 2s0 1 1 2l1 1v-1-2c-1-1-1-2-1-3-1-1-1-1-1-3l2 2v2h1c1 1 1 2 1 3h0v2c0 1 0 1 1 2h-1v2l-2 2c-1-1-2-1-2-2v-1l-1 1c1 1 1 1 1 2l-1 2c-1 0-1 0-1-1s-1-2-2-4l-2-8z" class="B"></path><path d="M542 326c2-1 3-3 5-3v2c2 2 1 0 3 0h2l1 1 3 2h0c0-1 0-2-1-2l-1-1v-2c1 1 3 2 3 3l1 1v-2c1 1 3 2 4 4v1h2v1h1 5v1h-7c-4 1-8 3-12 4-3 2-7 5-10 8h0l-1 2c-1 2-2 3-3 4 0 1 0 1-1 2h0v-2h0c-1 0-2 0-2-1h0v-1l1-1 1-1c0-1 1-2 0-3v-1l-1 3c0 1-1 1-1 2v2c-1 1-1 2-1 3l-2 2c2-6 5-12 6-19 1-3 3-6 5-9z" class="E"></path><path d="M539 343l-2 2v-1c1-1 1-3 2-4l3-8c1-2 2-3 4-4v1c0 1 1 1 1 2h-2l-1 2v1l1 1 1-1 1 1-4 3c0 1 0 1-1 2l-3 3z" class="F"></path><path d="M553 326l3 2h0c0-1 0-2-1-2l-1-1v-2c1 1 3 2 3 3l1 1v-2c1 1 3 2 4 4v1h2v1h1 5v1h-7c-4 1-8 3-12 4-3 2-7 5-10 8h0l-2-1 3-3c1-1 1-1 1-2l4-3-1-1-1 1-1-1v-1l1-2 1 1c0 1 1 2 2 2l1-1v-1c-1-1-1 0-1-1l1-1c0-1 0-1 1-2 1 1 1 1 1 3h1v-1h1c1 1 2 1 2 1 1 1 1 1 1 0h0c0-1-2-3-3-4v-1z" class="L"></path><path d="M631 619c0-1 1-2 2-2 4-8 11-8 18-11h-1-2v-1h2l1-1 1 1h1 1c2-2 6-2 10-2s5 0 8 3c1 1 1 1 1 2 1 1 2 2 4 3h-1c-2 0-4-3-6-4h-2c-3 0-5 2-7 5h0v1c1 0 1 0 2 1h1v1c-3 0-7 0-10-1h-3c-1 0-4 3-5 4v1l-11 17v1c-1 1-1 1-1 2s0 2-1 3c0 0 0 1-1 2 0 0-1 1-1 2h-1v-3c1-1 1-1 2-1v-2c1-1 0-1 1-2l1-2v-2c1-1 1-2 2-2v-2c1-1 1-2 2-3s1-2 2-3c-1 0-1 0-1-1 2-2 3-4 4-6 1-3 3-5 5-7h-2c-5 1-7 6-12 8-1 0-2 1-2 2h0v1c-1 1-1 2-2 3h-1c0-2 1-3 2-5z" class="C"></path><path d="M631 619c1-1 3-2 4-4h0c2-3 5-4 8-5 4-2 7-4 11-2l-3 1c-1 0-2 0-3 1h-2c-5 1-7 6-12 8-1 0-2 1-2 2h0v1c-1 1-1 2-2 3h-1c0-2 1-3 2-5z" class="B"></path><path d="M654 608h1c-1 2-3 3-5 5-4 3-8 7-10 11-1 0-1 0-1-1 2-2 3-4 4-6 1-3 3-5 5-7 1-1 2-1 3-1l3-1z" class="Q"></path><path d="M711 396h1c3 0 8-3 12-1 1 0 2 0 3 1h3c-2 2-5 3-8 5-3 1-8 2-11 5-3 2-8 4-10 7v1c0 1-2 2-2 3-3 4-4 8-8 11l2-3c-1-1 0-3 0-4l3-4c1-1 1-2 1-3-2 0-5 2-6 3l-3 3h-1v-1c-1 0-1 0-1-1 1-3 3-6 6-8 2-1 4-4 6-5 1-1 2-1 2-2s1-1 2-2c2 0 3 0 4-1l5-4z" class="M"></path><path d="M691 417c0-1 2-2 2-3 1-2 1-2 2-3 4-1 7-6 11-7-2 2-6 5-8 7v4c-1 4-3 7-5 10-1-1 0-3 0-4l3-4c1-1 1-2 1-3-2 0-5 2-6 3z" class="G"></path><path d="M711 396h1c3 0 8-3 12-1 1 0 2 0 3 1l-5 1c-2 0-4 1-7 2h0c-2 1-7 5-9 5-4 1-7 6-11 7-1 1-1 1-2 3 0 1-2 2-2 3l-3 3h-1v-1c-1 0-1 0-1-1 1-3 3-6 6-8 2-1 4-4 6-5 1-1 2-1 2-2s1-1 2-2c2 0 3 0 4-1l5-4z" class="E"></path><path d="M518 201l1-6 5 27c1 4 1 9 2 12 0 1 0 3-1 4 0 1 0 3 1 5v5c1 6 1 13 3 18v6h-2c-2-3-4-24-4-28h-1-1v-6-13h-1c0 4 0 9-2 13-1 2 0 6 0 8h-1v-7l1-10c-1 0-1 0-2 1l-1-1h0l-2-2 3-18c1-1 2-6 2-8z" class="I"></path><path d="M518 201v4c1 0 1 0 2 1 0 2 0 2-1 4v6c-1 1-1 2-1 3l-1-2c1-2 0-6-1-8 1-1 2-6 2-8z" class="U"></path><path d="M513 227l3-18c1 2 2 6 1 8l1 2v4h0v6c-1 0-1 0-2 1l-1-1h0l-2-2z" class="T"></path><path d="M515 229c2-4 1-8 2-12l1 2v4h0v6c-1 0-1 0-2 1l-1-1z" class="P"></path><defs><linearGradient id="J" x1="333.095" y1="354.84" x2="308.135" y2="369.638" xlink:href="#B"><stop offset="0"></stop><stop offset="1" stop-color="#303436"></stop></linearGradient></defs><path fill="url(#J)" d="M322 356l1-1c2-4 1-13 0-18v-1c-1-3-2-6-5-8v-1c1 1 2 2 3 2 0-1-1-1-1-2-1-1 0 0 0-1h0c2 4 3 8 4 12 4 10 4 22 7 32h4v1c-1 1-2 2-3 4h1c2-2 3-4 5-6-1-2-2-4-2-6 1 1 1 2 1 3h1v1 1 3l-1 1h-1v1c-1 1-2 2-2 3l2 2 3 2c1 0 2 1 3 3l1 1h-1l-1-2c-2-2-5-3-7-5h-3c-1-2-2-2-3-4h0v1h0v2h0c0 1 1 1 1 2-1 0-2 0-3 1v1l-1-1c0 1 0 0-1 1l-2-2h0c-2-1-3-1-5 0l-1-1-2 2-2-1-1 1 1 1h-3c2-2 6-6 7-9 1-2 2-4 3-7h1c1-3 2-5 2-8z"></path><path d="M386 608h1 6c1 1 6 4 7 5 1 0 1 0 2 1h1l-1 1c1 0 1 1 2 1l2 2 5 4c0 2 0 3 1 4 1 2 2 3 2 5 1 2 1 4 1 6 0 1-1 2-2 3v3l-2 4c0-1-1-2-1-4-1 1-1 3-2 4-2-9-7-19-12-27l-6-6c-1-2-3-4-5-5l1-1z" class="J"></path><path d="M406 618l5 4c0 2 0 3 1 4 1 3 2 8 1 11l-1 1h0l-1-1v-2h-1l1-1v-2l1-1-1-1c0-1-1-1-1-2 0-2 0-3-1-5l-3-5z" class="D"></path><path d="M412 626c1 2 2 3 2 5 1 2 1 4 1 6 0 1-1 2-2 3v3l-2 4c0-1-1-2-1-4-1-4-2-7-4-11 1 1 1 2 2 2l1 1c1 1 1 2 2 3 0 1 0 1 1 1v-1h0l1-1c1-3 0-8-1-11z" class="B"></path><path d="M386 608h1c1 1 2 1 4 2l2 1c1 0 2 0 3 1s3 3 5 3l5 12c1 1 1 3 1 5l-4-6v1l3 5c2 4 3 7 4 11-1 1-1 3-2 4-2-9-7-19-12-27l-6-6c-1-2-3-4-5-5l1-1z" class="S"></path><defs><linearGradient id="K" x1="619.915" y1="394.502" x2="628.558" y2="404.863" xlink:href="#B"><stop offset="0" stop-color="#0b0d0f"></stop><stop offset="1" stop-color="#3d4042"></stop></linearGradient></defs><path fill="url(#K)" d="M599 417l2-2s1 0 1-1h1 1c0-1 1-1 2-2v-1c0-1 1-1 2-1 5-2 10-6 14-10-1-1 0-1 0-2l-1-1c1-1 1 0 2 0 0-1 0-2 1-3 1 0 1-1 1-1l1-1c1-1 2-3 2-4 1 0 1-1 2-1 0-2 0-1 1-2l1-1c1-1 1-2 2-3l3-4c0-1 0-1 1-2h0c0-1 1-2 1-3l1-1v1c-1 2-1 3-2 5-1 1-1 3-1 4v3 1c-1 4-3 10-5 13s-4 4-4 7c-2 2-2 3-3 5-1 1-6 5-7 5-2 0-2 0-3 1l-6 1c-2 1-6 2-7 3-1 0 0 0-1-1h0-2v1l-1-1v-2h1z"></path><path d="M599 417l10-4h3c-1 1-1 2-2 3-1 0-1 0-1 1-2 1-6 2-7 3-1 0 0 0-1-1h0-2v1l-1-1v-2h1z" class="B"></path><path d="M570 332c4 0 7 0 11 1h0c5 1 10 3 15 5 1 1 4 2 5 3l-9-2h-4c-8 0-15 0-23 2-1 1-4 1-5 2-1 0-3 1-4 2h-1 0c-1 1-2 1-2 2h-2-1l-2 2c-1 1-3 3-4 3l1-2v-2l1-1h-1l-3 2c-1 0-1 0-2 1v-1c1-2 3-4 4-6-2 1-2 3-4 3l1-2h0c3-3 7-6 10-8 4-1 8-3 12-4h7z" class="S"></path><path d="M560 343c-1-1-2-1-3 0-1 0-2-1-3-1l1-1c8-4 19-6 29-5h-3v1h0l7 2c-8 0-15 0-23 2-1 1-4 1-5 2z" class="a"></path><path d="M570 332c4 0 7 0 11 1h0c5 1 10 3 15 5 1 1 4 2 5 3l-9-2h-4l-7-2h0v-1h3 1c2 1 4 1 6 1h-1c-3-1-5-2-7-2s-3-1-4 0h-6c-6 1-11 2-17 4v-1l-1 1c-1 1-3 2-5 2v-1c1-1 1-2 2-2h2c1-1 1-2 2-2h1c1-1 2-1 3-1h1v-1c-2 0-3 1-4 1-2 1-3 2-6 1 4-1 8-3 12-4h7z" class="Y"></path><path d="M555 354c1-2 4-4 6-4h1c3-2 8-4 12-5 2 0 1 0 2-1 2-1 3-1 5-1-1 1-1 1-2 1-4 1-7 3-10 4l-2 1c-3 1-6 3-9 4l-2 2v1h0c-2 1-3 3-5 5h0c-4 4-6 11-8 17h0c1 2 1 3 1 5l4-5v2c-1 1-1 2-1 3-1 2-1 6 0 8l1 6h-1l-2-6c-1-3-1-6-1-9-1 3-1 6-2 8v7h-1v-3h-1v5-6c-1-5-1-10-1-14 0-3 1-5 0-7h0l-1 2v3h-1v-8h0l-1 4v-4l1-3c1-4 1-10 4-12h1l-1 4v1l2-2c1-2 2-2 3-3 2-3 5-5 7-7 0-1 1-1 2-2l1 1h0c1-1 3-1 4-2l1 1c-3 2-6 4-9 7 1 0 1 0 2-1 0 1 0 2 1 3z" class="B"></path><path d="M552 352c1 0 1 0 2-1 0 1 0 2 1 3-1 2-4 4-6 6l-1-1v-1-1c1-2 2-4 4-5z" class="E"></path><path d="M555 345l1 1h0c1-1 3-1 4-2l1 1c-3 2-6 4-9 7-2 1-3 3-4 5v1c-2 2-3 4-4 6v1c-2 5-2 10-3 15 0 2 1 7 0 9l-1-1c0-3-1-10 0-12s0-4 1-6c0-4 1-9 3-12l2-4c2-3 5-5 7-7 0-1 1-1 2-2z" class="b"></path><defs><linearGradient id="L" x1="618.623" y1="654.618" x2="642.542" y2="639.65" xlink:href="#B"><stop offset="0" stop-color="#05090b"></stop><stop offset="1" stop-color="#3b3b3c"></stop></linearGradient></defs><path fill="url(#L)" d="M646 610h2c-2 2-4 4-5 7-1 2-2 4-4 6 0 1 0 1 1 1-1 1-1 2-2 3s-1 2-2 3v2c-1 0-1 1-2 2v2l-1 2c-1 1 0 1-1 2v2c-1 0-1 0-2 1v3h1v2h0c-1 1 0 4-1 5v-1c-1 5 0 10 0 14l1 3c0 2 0 2 1 4v2l-3-1c0-1-1-3-1-5-1-3-1-5-1-8s1-5 0-8c0 0-1-1-1-2l-4-8c0-1-1-2-2-3l1-1 1-1v-2l-1 1h0-1-1c1-1 1-1 1-2 1-1 2-2 2-3l1 1c1-1 1-1 1-2h0 1 0c0-2 0-3 1-5 1 0 2-1 3-2h0 1c1-1 1-2 2-3v-1h0c0-1 1-2 2-2 5-2 7-7 12-8z"></path><path d="M630 624c1-1 1-2 2-3v-1h0c0-1 1-2 2-2 5-2 7-7 12-8-1 1-4 3-5 5 0 1 0 1-1 2-2 2-2 5-4 7l-2 1 1 1v1c-1 0-1-1-1-1h-1c-1-2-1-2-3-2z" class="D"></path><path d="M518 246c0-2-1-6 0-8 2-4 2-9 2-13h1v13 6h1v5 1h-1-1v2c1 2 1 4 1 5l1 13-1-1v-4h-1c-2 4-1 8-1 12-1 1-1 2 0 3v5l-1 3-2-3v7-1l-2 2-2-1c0-2 0-3 1-4h-2v1c-1 2-2 3-3 5l1-3c0-1 0-2-1-4 1-1 1-2 1-3v-5-5h-1l1-4v-1c0-1 0-2 1-3v3h1v-6c0-2 1-3 1-5 1-3 1-6 2-7h1c1 0 0 0 1 1h1v-6h1z" class="Z"></path><path d="M517 246h1c-1 8 0 16-1 24l-1-4c-1 1-1 2-1 3 0 3-1 6-2 9 1-7 2-13 2-20v-7c1 0 0 0 1 1h1v-6z" class="O"></path><path d="M513 278c1-3 2-6 2-9 0-1 0-2 1-3l1 4v4 4l2 2v5l-1 3-2-3v7-1l-2 2-2-1c0-2 0-3 1-4h-2v-1c1-3 1-6 2-9z" class="B"></path><path d="M513 288v-1-8h1l1 1c-1 2-1 2-1 4 1 3 0 5 2 7l-2 2-2-1c0-2 0-3 1-4z" class="C"></path><path d="M517 274v4l2 2v5l-1 3-2-3v7-1c-2-2-1-4-2-7 0-2 0-2 1-4 1-1 1-2 1-4l1-2z" class="D"></path><path d="M517 274v4l2 2v5l-1 3-2-3c1-3 0-6 0-9l1-2z" class="K"></path><path d="M512 258c1-3 1-6 2-7h1v7c0 7-1 13-2 20-1 3-1 6-2 9v1 1c-1 2-2 3-3 5l1-3c0-1 0-2-1-4 1-1 1-2 1-3v-5-5h-1l1-4v-1c0-1 0-2 1-3v3h1v-6c0-2 1-3 1-5z" class="D"></path><path d="M509 279h1v2h1l2-13c0-4 0-7 2-10 0 7-1 13-2 20-1 3-1 6-2 9v1 1c-1 2-2 3-3 5l1-3c0-1 0-2-1-4 1-1 1-2 1-3v-5z" class="C"></path><path d="M415 218c1 2 4 5 5 5l-1 1c0 1 1 1 2 2 4 2 9 1 13 0h1l10-4h1l1 1-2 2c-2 0-4 1-5 3h0l-3 3 1 1h0c0 1 1 1 0 1-3 2-4 4-6 6l-1 2c-3 0-7 0-11 1-2 0-3 1-5 2l-1 1c-1 2-3 2-4 2l-3-14 5-3c1 0 1-1 2-1 1-1 1-1 2-1l-1-1c-1-2-1-5-1-7l1-2z" class="V"></path><path d="M427 238c3-4 8-9 13-10l-3 3c-3 3-6 6-10 7z" class="F"></path><path d="M424 237c-2 1-4 2-6 1l-1-1h-2v-1c1-1 1-1 1-2s0 0 1-1l5-1 1 1h1 2c1-1 1 0 2-1 0 1-3 4-4 5z" class="U"></path><path d="M423 233h1 2c1-1 1 0 2-1 0 1-3 4-4 5-3 0-6-1-9-1 3-1 5-1 8-1v-2z" class="I"></path><path d="M437 231l1 1h0c0 1 1 1 0 1-3 2-4 4-6 6l-1 2c-3 0-7 0-11 1-2 0-3 1-5 2v-2l1-1c4 0 8-1 11-3 4-1 7-4 10-7z" class="D"></path><path d="M414 220c1 1 2 1 2 2 0 2 0 2 1 3l3 2v1h-1l-1 1c0 1 0 0-1 1s-3 3-4 5h1v3c1 1 2 0 2 2v1l-1 1v2l-1 1c-1 2-3 2-4 2l-3-14 5-3c1 0 1-1 2-1 1-1 1-1 2-1l-1-1c-1-2-1-5-1-7z" class="W"></path><path d="M407 233l5-3v1c0 1-1 2-2 3 0 2 0 5 1 7l1 1v1c1 0 2-1 3-1v2l-1 1c-1 2-3 2-4 2l-3-14z" class="B"></path><path d="M636 222l1-1h1v4l-2 1c1 1 1 2 3 2h1c2 1 5 2 7 4h0c3 2 6 5 7 8v1h0c1 2 1 3 2 5v1c-1 0-1 1-2 1s-2-1-3-2c-2-1-4-1-7 0l-4-2c-5-2-11-3-17-4-2-1-3-3-5-4 2-1 2-1 3 0h1l-1-1c-1-1 0-1 0-2s-1-1-1-1c-2-1-3-3-5-4l-2-3 7 3c1 0 2 0 4-1h1l3-1c2 0 3 0 4-1v-1l4-2z" class="F"></path><path d="M637 232h3 1c1 1 2 1 3 1h0c1 0 2 1 3 1l1 1 1 1h0c-1 0-2 0-2-1l-2 1v1 1c-3-1-4-1-5-3l-3-3z" class="T"></path><path d="M636 222c0 2-3 3-4 5l-3 1c0 1 0 1 2 2 1 0 1-1 3 0 0 1 1 1 2 2h1l3 3-5-1c-2 0-5-1-7-2h-2v1 2h0c-2-1-2-1-3-3l-2 1c0-1-1-1-1-1-2-1-3-3-5-4l-2-3 7 3c1 0 2 0 4-1h1l3-1c2 0 3 0 4-1v-1l4-2z" class="P"></path><path d="M623 232h0l-2-2c2-1 2 1 5 0h0l2 2h-2v1 2h0c-2-1-2-1-3-3z" class="R"></path><path d="M635 234c-1 0-1 0-2-1 0-1 0-1-1-1s-2-1-3-2c0 0-1 0-2-1h0l2-1c0 1 0 1 2 2 1 0 1-1 3 0 0 1 1 1 2 2h1l3 3-5-1z" class="X"></path><path d="M626 235v-2-1h2c2 1 5 2 7 2l5 1c1 2 2 2 5 3v-1l3 1h2v1c1 1 1 1 1 2l2 2c-2 1-3 1-5 1-2-1-4-2-6-1-1 0-1 0-2 1-5-2-11-3-17-4-2-1-3-3-5-4 2-1 2-1 3 0h1l-1-1c-1-1 0-1 0-2l2-1c1 2 1 2 3 3h0z" class="T"></path><path d="M645 238v-1l3 1c1 1 3 2 3 4-2 0-3 1-5 0h-2c-1 0 0 0-1-1-1 0-3 0-4 1l-1-1c1-1 4-1 5-2l1 1 1-1v-1z" class="W"></path><path d="M626 235v-2-1h2c2 1 5 2 7 2l5 1c1 2 2 2 5 3v1l-1 1-1-1c-1 1-4 1-5 2h-1-2c-2 0-4-1-5-2-1-2-3-3-4-4z" class="V"></path><path d="M636 238h5c1 1 1 1 2 1-1 1-4 1-5 2h-1l-2-2 1-1z" class="X"></path><path d="M630 239v-1l1-1c2 0 3 0 5 1h0l-1 1 2 2h-2c-2 0-4-1-5-2z" class="P"></path><path d="M431 241h2 5v1c1 1 3 2 4 2 2 2 3 3 4 5 5 4 9 9 12 15h-1c-1 0-2-1-3-3-4-5-10-12-17-13-5-1-9 1-13 3-3 1-6 3-8 5l1 1v-1c2-1 4-3 6-4l-8 8 1 5c1 1 1 1 1 2v2h0c1 1 1 2 2 3 2 7 5 14 8 20v1c1 2 1 2 2 3h1c1 2 3 3 5 4l4 2c-3 2-5 4-8 6 0 2 1 3 2 5 0 0 1 1 1 2 1 0 1 1 2 2l1 2v1c0 1 1 2 1 3l1 1c0 1 1 2 2 3 0 1 1 1 2 2v1h0c-2-1-3-1-4-1h-1c0-1-1-1-2-1-3-7-5-15-8-22-7-20-14-39-18-59 1 0 3 0 4-2l1-1c2-1 3-2 5-2 4-1 8-1 11-1z" class="M"></path><path d="M431 241h2 5v1c1 1 3 2 4 2 2 2 3 3 4 5-7-5-15-7-24-6h-1c-2 1-4 1-7 2l1-1c2-1 3-2 5-2 4-1 8-1 11-1z" class="K"></path><path d="M342 417l1-1 1 1c1 1 2 3 3 4l1 1 3 4c0 1 1 2 1 2 2 2 3 4 4 6l1 1v1 3c0 1 0 2 1 3v3c0 1 0 2 1 3v2l1 2h0c1 1 1 1 1 2h0v1c1 1 0 1 1 2v3c1 1 1 1 1 2 0-1 0-1 1-1v1l1 1v2l1 1c0 1 0 1 1 2h0v2l1 1c1 2 2 3 4 4l-1 2h0v1l1 1c1 2 0 1 1 2s2 1 2 2l2 2c0 1 0 1 1 2v1l2 2v1h0c1 1 1 1 1 2l1 1c0 1 1 2 2 4h0l1-1h-1v-1l-1-1 1-1h-1v-1c-1-1-1-2-1-3-1-1-1-2-1-3v-1c-1-2-1 0-1-1v-2l-1-2-1-2v-1h-1l-1-7c-1 0-1 0-1-1h0l-1-1v-2h0v-1c-1-2-1-1-1-2v-1c-1-2-1-1-1-2 0 0 0-1-1-1v-2-1c-1-2-1-1-1-2s-1-2-2-4h0v-2-1c-1-1-1 0-1-1s0-2-1-3l-1-1v-2-1h-1v-2s0-1-1-1v-1-1-1l-1-1h0v-1l-1-1 1-1h-1v-1c-1-1-1-1-1-2v-1s-1-1-1-2 0 0-1-1l1-1-1-1h0c0-2-1-1-1-2s1 0 0-1h0c0-1 0-1-1-2h0v-1l-1-1h1l-1-1c0-2 0-2-1-2v-2l-1-1c0-3 0 1 0-1 0-1 0-1-1-2v-1c0-2-1-3-1-4-1-1-1-2-1-3-1-1 0-1-1-2s-1-3-1-5l-2-3 1-1 7 20 27 79 9 25c2 6 5 12 6 19v1h0l-1-3-1-1v-2c-1-1-1-1-1-2l-1-3c-1-2-1-3-2-4h0v-2c-1-1-1-2-2-3l-1-4v-1l-1-1v-1c0 1 0 1-1 2h-1l-1-3-2-2c0-1-1-2-2-3v-1c-2-1-4-4-6-5h0l-2-2c-1 0-2 0-3-1h-1v-1c-2 0-3 0-4-2h0c-1-1-4-2-6-3h0c-1 0-1-1-2-1h-1 0-1c-1-1-1-1-2-1-1-1-1 0-2-1h-2-2c-1-1 0-1-1-1h-5 0l-4-1h7c2 0 5 1 8 2v-2l-1-1-1-1h4c0-2 0-2 1-3s1-1 1-2h1l3 1 4 2c0-1 0-2-1-2-1-2-2-3-2-4l-2-3-1-5c0-2-1-8 0-10l1 1v1 2l3 9c1 2 2 5 3 7h1c1 2 0 1 1 2s3 4 4 4c1-1-2-3-3-5s-2-3-3-5v-1c-1-2-1-1-1-2s0-1-1-2v-1c-1-1-1-3-1-4-1-1-1-2-1-4-2-4-2-9-3-13-1-7-9-16-14-21z" class="H"></path><path d="M370 479c5 4 7 8 10 13 2 4 3 7 5 10l-11-11c0-1 1-2 1-3s-2-4-3-5c0-1-1-3-2-4z" class="C"></path><path d="M354 470h1l3 1 4 2h0c1 0 2 1 3 2 2 1 4 2 5 4 1 1 2 3 2 4 1 1 3 4 3 5s-1 2-1 3l-5-4-5-3c-1 0-4-2-5-2-3-1-6-3-9-3v-2l-1-1-1-1h4c0-2 0-2 1-3s1-1 1-2z" class="X"></path><path d="M362 473c1 0 2 1 3 2 1 2 2 3 4 5 1 2 2 3 1 5l-1 1v1l-5-3 1-1h2l1-1c-2-1-3-3-4-4v-1c0-1-1-2-1-4h-1z" class="O"></path><path d="M365 475c2 1 4 2 5 4 1 1 2 3 2 4 1 1 3 4 3 5s-1 2-1 3l-5-4v-1l1-1c1-2 0-3-1-5-2-2-3-3-4-5z" class="J"></path><path d="M355 470l3 1c1 1 1 2 2 3 2 2 3 4 4 6l-1 1c-1 1-2 0-4 0l-1-2c-2 0-2 0-3-1s-2-1-3-1l3-6v-1z" class="R"></path><defs><linearGradient id="M" x1="660.421" y1="351.566" x2="630.579" y2="352.449" xlink:href="#B"><stop offset="0" stop-color="#090a0c"></stop><stop offset="1" stop-color="#373a3a"></stop></linearGradient></defs><path fill="url(#M)" d="M640 372h0c1-1 1-1 1-2s1-2 1-3l2-5v-1c1-1 1-1 1-2v-2c1-1 1-1 1-2 1-2 0-3 0-4 1-1 1-3 1-4 1-1 0-3 0-4 1-2 1-6 1-7 1-2 0-5 0-7 1-1 1-4 1-6v-1h0v-2c1-1 1-2 1-3l2-5s0-1 1-2 2-3 3-4l2-3 1-1c1-2 0-1 1-2s1-1 3-1c0 1 0 1-1 2-1 2-2 5-3 7v1c-1 1-1 3 0 4l2 4v2c1 1 1 1 1 3l-1 1c-1-2-1-3-2-4-1 1-1 2-1 3-1 1 0 2 0 4-2 2-1 6-1 8-1 1-1 6 0 7v3 1c1 1 1 3 0 4-1 0-1 0-2-1 1-1 0-1 0-2h0l-1 3c0 7 0 15-3 21 0 1 0 3-1 4v3l-1 1v5 1c-1 4-5 11-8 15l-5 5c-2 0-5 1-7 3-1 1-2 3-4 3 1-2 1-3 3-5 0-3 2-4 4-7s4-9 5-13v-1-3c0-1 0-3 1-4 1-2 1-3 2-5z"></path><path d="M628 405c2-1 4-3 6-5l1-1h1c0-1 0 0 1-1 1 1 1 1 2 1l1-1 1 1-5 5c-2 0-5 1-7 3-1 1-2 3-4 3 1-2 1-3 3-5z" class="T"></path><path d="M639 319l1 1c-1 1-1 1-2 1l1 1h0 3 1l1 1c0-1 0-1 1-2l1 1-3 20c-1 4-1 8-2 12 0 1 0 3-1 4-4 17-13 30-28 42h1l-1 1-2 1h0l-1 1h-1l-2 2h0-1l-1 1h-1 0l-2 1c-2 1-4 2-6 2-1 0-1 1-2 1-2 1-5 1-7 1v1h-1c-1-1-2 0-3 0h0-1-3c-1-1-1-3-2-3-2 0-2 1-3 1h-2c2-1 3-1 5-2 0-1 0-1 1 0l1 1h4c10-2 21-8 27-16l2-3h1c2-2 2-4 2-6h3v-2c3-4 7-6 8-10 0 1-1 1-2 2 0-1 0-1 1-2l-1-1c1-2 3-5 4-7 0-1 0-1 1-2l1-2c0-1 1-2 1-3 0-2 1-3 1-4l2-3v-2-2c1-1 1-1 1-2h0v-1c0-1 0-2 1-3v-4c1-1 0-2 0-3l-4-4 2-1 2-2v-2h1c0-2 1-4 3-5z" class="J"></path><path d="M614 384h3l-2 2c-1 4-2 7-4 10l-2-3 2-3h1c2-2 2-4 2-6z" class="B"></path><path d="M635 333v-1-2c1 0 1 1 3 2v1 1c0 2 0 4-1 6 0 5-2 9-3 13s-3 8-5 11v2l-2 2c0-1 0-1 1-2v-1l-1-1c0-1 0-1 1-2l1-2c0-1 1-2 1-3 0-2 1-3 1-4l2-3v-2-2c1-1 1-1 1-2h0v-1c0-1 0-2 1-3v-4c1-1 0-2 0-3z" class="L"></path><defs><linearGradient id="N" x1="600.785" y1="405.307" x2="599.143" y2="396.297" xlink:href="#B"><stop offset="0" stop-color="#131213"></stop><stop offset="1" stop-color="#282e2f"></stop></linearGradient></defs><path fill="url(#N)" d="M609 393l2 3h0c-7 9-18 13-29 14-1 0-4 0-5 1 2 1 6 0 7 0h1c3-1 6-1 9-2 7-2 12-6 18-9h1l-1 1-2 1h0l-1 1h-1l-2 2h0-1l-1 1h-1 0l-2 1c-2 1-4 2-6 2-1 0-1 1-2 1-2 1-5 1-7 1v1h-1c-1-1-2 0-3 0h0-1-3c-1-1-1-3-2-3-2 0-2 1-3 1h-2c2-1 3-1 5-2 0-1 0-1 1 0l1 1h4c10-2 21-8 27-16z"></path><path d="M639 319l1 1c-1 1-1 1-2 1l1 1h0 3 1l1 1c0-1 0-1 1-2l1 1-3 20c-1 4-1 8-2 12 0 1 0 3-1 4v-1c-1 1 0 1-1 2l-3 9c-1-1-1-1-1-2s0-2 1-2v-1c0-1 0-1 1-2v-2l-1 1-1-1c-1 1-1 2-2 3l-1 3v2h0l-1-1 2-6c1-1 1-1 1-2 1-3 3-6 4-9 0-2 1-4 1-6v-7-2h-1v-1-1c-2-1-2-2-3-2v2 1l-4-4 2-1 2-2v-2h1c0-2 1-4 3-5z" class="D"></path><path d="M639 319l1 1c-1 1-1 1-2 1l1 1h0 3 1l1 1-1 3h-5-2v-2c0-2 1-4 3-5z" class="J"></path><defs><linearGradient id="O" x1="570.521" y1="180.895" x2="652.552" y2="189.72" xlink:href="#B"><stop offset="0" stop-color="#626163"></stop><stop offset="1" stop-color="#8a8380"></stop></linearGradient></defs><path fill="url(#O)" d="M583 168c-6-2-12-5-17-8h30c5 0 11-1 16 0l-43 1c4 1 9 2 14 3l23 4c9 2 18 4 27 7 7 4 14 7 20 12 12 10 20 24 25 39h-1 0c0-1-1-1-1-2s-1-2-1-4l-1-1v-2l-1-1v-1l-3-6-2-3-1-1v-1l-1-1-1-1v-1c-1-1-3-2-4-3v-1c-1-1-2-2-2-3-2-2-4-4-6-5l-1-1v12h0v1l-1 1v1s-1 1-1 2v1c0 1-1 1-1 2 0 2 1 2 2 4 1 1 2 2 2 3l3 6 1 3h0l1 2c1 0 0 0 1 1v1 1s1 1 1 2l1 1v1 2l-4-8c-3-9-7-16-14-23-4 0-6-1-10 2v-2h0v-1c0-1 0-3-1-4s-3-2-4-3c0-1 0-4-1-5s-2-1-3-2l-2-1c-2-2-6-4-8-5l-31-15z"></path><path d="M627 191c6 4 12 8 16 13-4 0-6-1-10 2v-2h0v-1c0-1 0-3-1-4s-3-2-4-3c0-1 0-4-1-5z" class="C"></path><path d="M583 168c2 0 4 0 6 1s4 2 7 3c2 0 3 1 5 2 1 0 3 1 5 2s5 2 7 4h1l2 2c1 1 3 2 5 4l3 3-2-1c-2-2-6-4-8-5l-31-15z" class="X"></path><path d="M386 551c-1-3 0-6 0-8v-8-1s-1-1-1-2h1l-1-1h2 0c-1-1-1-1-1-2-2-4-5-8-9-9-1-1-3 0-5 0-2 1-3 4-5 4h-1c0-1 1-1 1-2l1-1 4-4h1c0-1 1-1 1-1h1c2 0 5-1 7 0h0c-1-1-1-1-2-1l-1-1c-1 0-3 0-5 1h-1c0-1 1-1 2-1h1c2-1 3 0 4 0h1 1c1 1 1 1 2 1 1 1 2 3 3 4s2 1 2 3l3 7 1 1h0v-3l1 1v2 1s0 1 1 2v1 2c3 5 4 11 6 17 0 2 1 6 3 8l1-1v-2l1-1 6 18c2 5 5 11 6 16l33 97 5 13 12 37 2 7 6 17-1 1v-1l-1-2v-3h-1l-1-3v-1-1c-1-1-1-2-1-3l-1-1v-2c-1-1-1-2-1-3l-1-3c0-1 0-1-1-2h0v-1c0-1-1-1-1-2l-9-28c0-1 0-1-1-2h0v-1h-1v-1h0v2h0c-2-2-4-4-5-7-1-1-2-1-3-2-1-3-3-5-5-6l-1-1c-1-1-2-1-2-2-1 0-1 0-2-1h0-1c0-1-1-1-1-2-2 0-2 0-2-1h-1-1 0c-1-1-2-1-2-1h-1l-1-1h-3-3c-1-1-2-1-3-1-2 1-5 0-7 1h0v-1h0c4-1 11-1 15 0 3 1 5 2 8 3 5 4 9 7 14 12h1c-1-1-1-1-1-2-1-1-2-1-3-2 0-2 0-3-1-4v-1c0-1-1-1-1-2-1-1-1-1-1-2-1-1-1-1-2-1h-1c0-2 0-3-1-3l-1-2h0c-4-3-8-4-13-4 1 0 4-1 5 0 1 0 2 0 3 1h1c2 0 3 1 5 2s3 2 4 4l1 1c1 2 4 6 5 9v2l1 1h1c1 2 0 4 2 6h0c1 2 2 3 3 4v-2l-7-18c0-2-1-3-1-4-1-2-1-3-2-4l-11-33c0-2-1-3-1-4h0l-1-2c0-1-1-2-1-3l-2-7v-1l-1-1c0-1-1-1-1-1v-1h0c0-1 0-2-1-3v-1c0-1 0-1-1-2 0-1 0-1-1-2l-1-3c0-2-1-3-1-4l-2-6c-1-2-1-3-1-4l-2-2c-1-1-1-2-1-3h0c-1-1-2-2-2-3-1-3-3-6-4-9v-1h-1v-2 2c0 1 0 2 1 3v3l1 3v1c1 1 1 2 1 3l1 1c0 2 2 5 3 7v1c2 5 5 10 6 15v2l-1-1h0-1v1l1 1c0 1 1 2 1 3v1l1 1v2l2 6c0 1 1 2 1 4 1 1 1 3 2 5l1 1v1l3 4c2 3 5 8 6 12h-1-1c0-1-1-1-1-2l-1-2-2-2-1-3-1-1c-2-3-5-6-6-9-1-2-2-3-3-5h0v-2-1c-1-1-1 0-1-1s0-2-1-3h0v-1s-1-1-1-2h0v-1h-1v-1c0-1 0-1-1-2h0v-1l-1-1v-2l-1-1v-1-1l-1-1h-1v-1c0-1 0-1-1-2h0c-1-2-1-2-2-3v-1l-1-1h0l-2-2c-2-2-4-3-5-6h-1-1c1 0 2-1 2-2v-1c-1-1-2-2-2-3v-1h-1l-1-1 1-3v-1l-1-1 1-1c0-2 0-3-1-5-1-1 0-4-1-5h-2l-1-1c-3 1-5 1-8 2h-4c-1-1-1-1-2-1l-1-1c-2 1-4 2-5 4-2 0-3 0-4-1v-1s0-1-1-2l-1 2-2 1-1-1c4-3 5-11 6-15 0 2 0 5 2 7h2c5-3 10-9 12-14z" class="M"></path><path d="M378 571h2c6 0 9 0 13-4 0-1 1-1 1-2 1 2 0 4-1 6-3 1-5 1-8 2h-4c-1-1-1-1-2-1l-1-1z" class="V"></path><path d="M418 591c-4-3-8-12-9-17 1-1 2 1 3 1 2 5 5 11 6 16z" class="D"></path><path d="M420 625c1 1 2 2 2 3l2 2c2 5 3 10 6 15 1 2 3 5 4 8-3-5-8-11-10-16-1-1-2-3-2-4 0-3-1-6-2-8z" class="E"></path><path d="M411 603c6 8 10 17 13 27l-2-2c0-1-1-2-2-3-2-6-4-12-7-17-1-1-1-3-2-5z" class="b"></path><path d="M398 585c1-2 4-6 6-7 0 3 0 7-1 10l-2 6v-1c-1-1-2-2-2-3v-1h-1l-1-1 1-3z" class="C"></path><path d="M403 594h0c1-1 1-2 1-3h1v1c1 4 4 8 6 11 1 2 1 4 2 5 3 5 5 11 7 17 1 2 2 5 2 8-4-11-7-20-14-29-2-3-4-5-6-7l1-3z" class="B"></path><path d="M403 594c1 2 5 5 6 7l-1 3c-2-3-4-5-6-7l1-3z" class="D"></path><path d="M386 551c2-4 3-8 3-12 1 7-1 14-5 19-4 6-10 9-16 13l-1 2-2 1-1-1c4-3 5-11 6-15 0 2 0 5 2 7h2c5-3 10-9 12-14z" class="P"></path><path d="M783 194c0 2-2 5-4 7s-7 4-7 6c0 1 0 2-1 2 1 1 1 1 2 1h1 2c1 1 2 2 4 2-5 1-10 1-14 4h0c-2 1-3 2-3 4h1c-1 5-2 10-1 15v2c0 2 1 4 2 6 0 1 3 5 3 6s-1 1 0 3c3 2 6 3 9 5l-1 1c3 1 5 3 7 5v1l2 2 1 1 1 1v1c-2-1-4-3-7-3l-1-1-1-1h-1c-1-1-3 0-4 0h-1c-1 1-2 1-2 1h0l1 1-2 2c-2 1-3 3-5 3l-1 1h-1c-1 0-2-1-3 0h0-2v1 1l3 1c1 0 0 0 1 1v1l-1 1c-1-1-2-1-2-2h-3c-2 1-4 4-6 5-2 2-5 4-8 6-1 1-2 2-3 2-2 1-2 1-4 1v1h-4-1 0c-1 3-2 4-2 7 0 0-1 0-1 1h1c3-2 4-2 8-2 0 1 0 2-1 2s-1 1-2 1h-1v1h3 0c-3 3-8 4-11 8-1 1-2 4-2 6l-3 6c2 0 2-1 3-1-2 3-5 5-4 9-1 3-2 7-4 9h0 0c-2 9-5 18-9 26-1 1-1 2-1 4-1-1-1-2-2-2l24-74 14-38c3-9 8-17 12-26 2-3 4-7 6-10 7-9 16-18 26-24z" class="H"></path><path d="M761 226h0c0 2 0 4-1 5-1 6-1 9 2 15v1c1 2 1 2 0 4l-3-4c-1 1-2 1-2 2h-1v-2l-1-1c-2 1-2 1-3 2l-1 1c-1 0-2 1-3 2 0 0 0-1 1-2v-1c2-1 4-4 7-5 0 0 3-2 3-3v-5c1-3 1-6 2-9z" class="E"></path><path d="M762 253h2c4 2 8 3 12 5 3 1 5 3 7 5-8-4-14-4-22-4-2 0-4-1-6-1v-1l1-1 1-1c2-2 2-2 5-2z" class="K"></path><path d="M763 220h1c-1 5-2 10-1 15v2c0 2 1 4 2 6 0 1 3 5 3 6s-1 1 0 3c3 2 6 3 9 5l-1 1c-4-2-8-3-12-5l-2-2c1-2 1-2 0-4v-1c-3-6-3-9-2-15 1-1 1-3 1-5h0c0-2 1-4 2-6z" class="B"></path><path d="M748 251c1-1 2-2 3-2l1-1c1-1 1-1 3-2l1 1v2h1c0-1 1-1 2-2l3 4 2 2h-2c-3 0-3 0-5 2l-1 1-1 1v1c2 0 4 1 6 1-5 1-9 3-13 5l-6 4s-2 1-2 2l-6 6h-1c1-1 3-3 3-5 1-5 4-9 7-12l5-8z" class="D"></path><path d="M748 254l1 2c2 0 4-2 6-2h0l-1 1c0 1-1 1-1 2-1 1-1 2-2 2v2h0c-1 1-3 1-3 3l-6 4c0-2 2-3 4-4h-1l-1-1c0-1 0-1 1-2s2-1 3-2l-1-1c-1 1-1 1-2 0v-1l3-3z" class="F"></path><path d="M748 254c1-1 2-2 4-3 1-1 0-1 1 0v1c1 0 2-1 3-1h0 1c1 0 2 0 3 1l2 1c-3 0-3 0-5 2l-1 1-1 1v1c2 0 4 1 6 1-5 1-9 3-13 5 0-2 2-2 3-3h0v-2c1 0 1-1 2-2 0-1 1-1 1-2l1-1h0c-2 0-4 2-6 2l-1-2z" class="Q"></path><path d="M752 266c1-1 2-1 3-1 2-1 4-2 7-2h0l-3 1c-1 0-1 1-2 1 1 0 1 0 2 1h1c2 1 3 1 4 3h0c2-1 3-2 6-4l1 1-2 2c-2 1-3 3-5 3l-1 1h-1c-1 0-2-1-3 0h0-2v1 1l3 1c1 0 0 0 1 1v1l-1 1c-1-1-2-1-2-2h-3c-2 1-4 4-6 5-2 2-5 4-8 6-1 1-2 2-3 2-2 1-2 1-4 1v1h-4-1c1-3 2-5 4-7v-1c1-1 2-2 4-3 1-2 3-4 4-6 1-1 3-2 4-2 3-2 5-4 7-6z" class="C"></path><path d="M741 274c1-1 3-2 4-2 3-2 5-4 7-6 0 3-3 5-5 7-3 0-4 2-6 4v-1c1-1 0-1 1-1l-1-1z" class="b"></path><path d="M717 329c0-1 1-3 2-3h0v1 1 1l1 1c0 1 0 2-1 3-1 4-1 10-1 15v1c-1 2-1 3-2 5h0c-1 5-2 14 1 19v1l-1 1v-1h-1c-1 1-1 1-2 1l-1 1h-4 0c-2 2-3 2-5 2h-2c-1 3-2 5-3 8-1 1-1 3-1 5v1c1-1 1-2 2-3v1c1 0 1 0 1 1h2l1 1c0 3 0 3 2 4h1c4-3 7-5 12-7v1h-1l-6 6-5 4c-1 1-2 1-4 1-1 1-2 1-2 2s-1 1-2 2c-2 1-4 4-6 5-3 2-5 5-6 8 0 1 0 1 1 1v1h1l3-3c1-1 4-3 6-3 0 1 0 2-1 3l-3 4c0 1-1 3 0 4l-2 3-1 1c-1 2-3 5-4 7 0 1 0 2-1 2l-2 1h0 1c2 3 1 6 2 9v2 4c-1 3-2 9-5 11v4l2 1c1 0 3 0 4-1h3c4-1 8 0 12-1 4 2 9 3 13 5 7 3 12 7 17 13l-5-2c-2 1-5-1-8-1s-6 1-9 1h0l1-1h1 1c2-1 4-1 5-1s3 0 4 1h2c-1 0-1 0-2-1s-2-1-3-1-1-1-2-1h0-1-2v-1h-3c-1 0-1-1-2-1h-1-3c-2-1-4-1-6 0h-3l-1 1h-1-2 0-3v1h-2-1v1h-1-1-1v1h-2l-2 1-2 1-1 1h0c-1 0-2 1-2 1h-1v1h-1l-1 1h0l-1 1h-1l-2 2h0-1c-2 2-4 3-5 6l-1 1-1 1s-1 1-1 2c-1 0-2 1-2 2v1c-1 1-2 3-2 5l-2 5c0 1-1 2-1 4l-1 3c-1 1-1 2-1 2v1h-1v3l-1 1h0c0 2-1 2-1 4h0c-1 1-1 1-1 2v1l-1 1-1 4v1c-1 1 0 0-1 2v1l-1 2v-1c0-2 2-7 2-9l13-35 7-21 20-60 18-54c1 0 1 1 2 2 0-2 0-3 1-4 4-8 7-17 9-26h0 0c2-2 3-6 4-9z" class="M"></path><path d="M683 459c-1 1-1 2-1 4l-1 2v4l2 1c-2 1-3 1-5 2v-1c0-3 3-9 5-12z" class="E"></path><path d="M691 423l2-2c0 1-1 3 0 4l-2 3-1 1c-1 2-3 5-4 7 0 1 0 2-1 2l-2 1c0-3 1-6 2-8 2-3 3-5 6-8z" class="B"></path><path d="M691 423l2-2c0 1-1 3 0 4l-2 3-1 1c-1-2 0-4 1-6z" class="D"></path><path d="M678 471v1c-1 2-2 3-4 5-1 1-2 2-2 3-2 1-2 1-3 3-1 1-2 3-1 4v1 1c-3 2-6 5-9 8v1c0-3 1-5 2-7 4-8 10-14 17-20z" class="L"></path><path d="M703 368c0-2 0-3 1-4 4-8 7-17 9-26h0 0l-3 14-1 11c-1 2-1 6-2 7-2 0-3 0-4-1v-1z" class="C"></path><path d="M683 470c1 0 3 0 4-1-1 1-2 1-3 2-2 2-5 3-6 6h0v2c-1 1-1 1-1 2l2 1-11 6v-1c-1-1 0-3 1-4 1-2 1-2 3-3 0-1 1-2 2-3 2-2 3-3 4-5 2-1 3-1 5-2z" class="P"></path><path d="M683 439h1c2 3 1 6 2 9v2 4c-1 3-2 9-5 11l1-2c0-2 0-3 1-4v-2c1-3 2-4 0-7h-1c-1 7-4 14-8 20-1 2-5 6-7 7l1-1v-1c10-7 13-24 15-36z" class="C"></path><path d="M719 329l1 1c0 1 0 2-1 3-1 4-1 10-1 15v1c-1 2-1 3-2 5h0c-1 5-2 14 1 19v1l-1 1v-1h-1c-1 1-1 1-2 1l-1 1h-4c4-8 5-16 6-24s0-17 5-23z" class="E"></path><path d="M687 469h3c4-1 8 0 12-1 4 2 9 3 13 5 7 3 12 7 17 13l-5-2c-6-5-14-6-22-7-4 0-8 0-12 1-5 1-9 2-14 4l-2-1c0-1 0-1 1-2v-2h0c1-3 4-4 6-6 1-1 2-1 3-2z" class="K"></path><path d="M705 477c-3-1-6-2-9-1h-2c-1-1-3 0-4 0l-1-1v-1l1 1c1 0 1 0 2-1v-1c3 0 6-2 10-2s9 3 13 2c7 3 12 7 17 13l-5-2c-6-5-14-6-22-7z" class="Z"></path><path d="M848 133l-2 6h3l1-1c0 3-2 6-3 8-2 2-3 4-5 5l-6 6c-3 2-7 4-11 6-12 6-26 7-39 12h-1-1c-3-1-9 0-13-1h-51-57-27c-1 0-2 1-3 1-9-3-18-5-27-7l-23-4-14-3 43-1h121c22 0 44 1 65 0 9-1 19-2 28-6 10-4 17-11 22-21h0zm-663-29c1-3 2-6 4-9l3 3h-1c0 1-1 2-1 3v1 1h-1v2l-1 1v3c0 1 0 1-1 2l1 1h0c-1 13 1 23 9 32 10 11 26 15 41 16h249v1c-1 0-2 1-3 1-8 0-17 3-24 4-12 2-25 4-36 8-5-1-12 0-17 0h-37-9-38-25c-3 0-7-1-9 0v1h-1l-1 1h-1c0-1-1-1-1-2-4-1-7-1-10 1h-1c1 1 0 1 1 1 1 1 2 1 3 2l3 3c-1 2-1 4-1 7-1 1-3 1-5 1-1-2-2-5-3-7-4-2-8-3-13-5s-11-4-16-5l-23-6-14-7c-7-5-13-10-18-17-2-5-4-10-4-15-1-4-1-8 0-12 0-2 0-5 1-7 1-1 1-2 2-4h-1-1z" fill="#f2eee7"></path><path d="M633 175c1 0 2-1 3-1h27 57 51c4 1 10 0 13 1h1 1c-7 4-13 8-19 13-4 4-6 8-11 10-3-2-6-4-9-8-13 15-23 30-30 48-2 5-3 10-5 15s-4 11-6 16c-1 3-1 6-2 8h0c-1-2-1-3-2-4-4-3-8-4-12-5h-3c-1 2 0 5 0 7 1 2 0 3 2 5h-2c-1-3-1-7-1-10l-2-19-3-16c-1-3-2-7-3-9-5-15-13-29-25-39-6-5-13-8-20-12z" class="Y"></path><defs><linearGradient id="P" x1="702.094" y1="502.115" x2="606.114" y2="462.304" xlink:href="#B"><stop offset="0" stop-color="#7f726f"></stop><stop offset="1" stop-color="#ebe2da"></stop></linearGradient></defs><path fill="url(#P)" d="M848 133c2-2 2-4 3-7v-12c1 1 1 3 1 4v1c1 1 1 7 0 9v1c-1 2-1 3-2 5v1 1c2-1 1-3 3-4l2 1c0 1 0 2-1 3v1c0 1-1 1-1 2v1c0 1-1 1-1 2-1 1 0-1-1 1v1 1l-2 1v1s0 1-1 1-2 1-3 2v1l-2 1 1 1v-1c2-1 2-2 4-3-4 8-15 18-24 22h0c-12 9-28 13-40 22 0 0-1 0-1 1-10 6-19 15-26 24-2 3-4 7-6 10-4 9-9 17-12 26l-14 38-24 74-18 54-20 60-7 21-13 35c0 2-2 7-2 9L540 834l-20 65-2-7c0-1 0-1 1-2 0 1 0 1 1 1 1-2 0-4 0-7 1-3 2-9 1-12s-1-6-1-8c0-4 0-8-1-12v-6c-1-1-1-2-2-3v-2h1 2 1v-4c-1-2-2-2-3-2 0-2 0-4-1-5s-1-1-1-2h1c1 0 1 1 2 1s1-1 2-1l-1-1 2-1s0-1 1-1c0-2 1-3 2-4h1c-2 2-2 5-3 7 2-2 4-4 5-7v-1h0c0-1 1-2 1-2l1-4c0-1 1-2 1-3l6-17v-2h1v-1-2l1-1v-1c0-1 1-2 1-3l1-1c0-1 0-3 1-4v-1c0-1 0-1 1-2v-1l1-1v-1c0-2 1-3 2-5h0l2-4v-1-1c0-1 0-1 1-2v-2l2-5 1-1v-3c1-1 1-3 2-4v-1l1-1c1-2 0 0 0-1l57-157s0-1 1-2l1-4c1-2 2-5 3-7 0-1 1-2 1-4 1-1 1-2 1-3 1-1 1-2 2-4h0v-1c0-1 0-1 1-1 0-1 0-2 1-2v-2c1-1 0-1 1-2v-1h0l2-6s0-1 1-2v-1c0-1 1-2 1-4 1 0 1-1 1-2v-1h1v-1-1s1-1 1-2 0-1 1-1v-1-1-1l3-6v-2l1-1v-1h0v-2l3-9h0l1-1v-2c1-1 0-1 1-2l3-9v-2-1c1 0 1-1 1-1 0-1 1-1 1-2v-2-1c1-1 2-2 2-4 0-1 1-2 1-4 1-1 1-2 2-3l1-4c0-1 1-2 1-2v-3c1 0 1-1 1-2h-1l1-1v1l1-1h-1v-1h0c1-2 2-4 2-6v-1l1-1h0c0-1 1-2 1-3l3-8 2-5 2-8c1-2 1-3 2-4v-1c1-2 2-4 2-6v-1c1-1 1-3 2-4 0-1 0-2 1-3h0c0-2 1-3 1-4 1-2 2-4 2-5v-1c-1 1-2 1-3 3-1 0 0 0-1 1l-1-1c-1 1-3 1-4 0h-1l-1 2v3c-1 1-1 2-1 3l-1 1-1 5v3l-1 2c-1 2-1 4-2 6 0 1-1 2-1 3l-1 2v3l-2 6-1 1v-3l2-4v-2l2-5v-2c1-1 1-3 1-3 1-2 1-4 1-5l1-1v-3h0c1-2 1-1 1-2h0c1-2 2-7 3-9v-2h2c1 1 2 0 4 0h1c1-1 3-2 4-4l1-1v-1h0-1-1c-3-2-3-4-3-8v-4-3c1-1 1-1 1-2v-2c1-1 1-1 1-2v-2c1-1 1-1 1-2v-2c1-1 1-1 1-2 1-2 0-1 0-2s1-5 2-7v-2c0-1 1-1 1-2 0-2 0-3 1-5 2-9 4-20 5-30 1-4 0-9 1-12l1-1c0-2 1-2 2-3h1 2c2-2 4-4 5-6 1-3 1-5 0-8h-1c0-1-1-3-2-3-1-1-2-1-2-2s0-1 1-1c-1-2-2-2-3-2-2-2-1-3-2-5 0-2-1-5 0-7h3c4 1 8 2 12 5 1 1 1 2 2 4h0c1-2 1-5 2-8 2-5 4-11 6-16s3-10 5-15c7-18 17-33 30-48 3 4 6 6 9 8 5-2 7-6 11-10 6-5 12-9 19-13 13-5 27-6 39-12 4-2 8-4 11-6l6-6c2-1 3-3 5-5 1-2 3-5 3-8l-1 1h-3l2-6z"></path><path d="M519 846c-1-1-1-2-2-3v-2h1 2 1c2 9 3 21 1 30v-1c0-6 0-11-1-16l-2-2v-6z" class="P"></path><path d="M751 228v-2l1-1c0-1 0-2 1-3h1v-1c1-2 0-2 1-4h1v1c1-2 2-3 3-4 1-2 3-3 5-5 0-1 0-1 1-2l5-4 1-1c0-1 1-2 2-2l1-1 12-8c1-1 5-4 7-4h1c0-1 1-2 2-2l3-3c1-1 0-1 1-1 3 0 7-4 10-5 2-1 4-2 7-2 1 0 1-1 2-1h1l1-1c1-1 2-1 3-1-12 9-28 13-40 22 0 0-1 0-1 1-10 6-19 15-26 24-2 3-4 7-6 10z" class="V"></path><path d="M522 871c1 1 1 2 0 3v7c2-1 1-1 1-2s1-2 2-2c0-2 1-4 1-6l4-13c1-1 1-3 2-4l5-15c1-3 1-4 3-5l-20 65-2-7c0-1 0-1 1-2 0 1 0 1 1 1 1-2 0-4 0-7 1-3 2-9 1-12s-1-6-1-8c0-4 0-8-1-12l2 2c1 5 1 10 1 16v1z" class="R"></path><defs><linearGradient id="Q" x1="385.142" y1="548.343" x2="424.941" y2="532.879" xlink:href="#B"><stop offset="0" stop-color="#7d614d"></stop><stop offset="1" stop-color="#c4a289"></stop></linearGradient></defs><path fill="url(#Q)" d="M202 163h1c1-2 0-3 0-4h3l14 7c7 2 15 4 23 6 5 1 11 3 16 5s9 3 13 5c1 2 2 5 3 7 2 0 4 0 5-1 0-3 0-5 1-7l-3-3c-1-1-2-1-3-2-1 0 0 0-1-1h1c3-2 6-2 10-1 0 1 1 1 1 2h1l1 1 3-1c1 1 3 2 4 4v2c-1 2-2 3-4 5h0c0 1 0 1-1 2h1c1 1 2 2 2 3s1 2 2 3c0 1 1 1 1 2l1 1c1 1 3 2 4 3 3 2 5 4 8 6 4 4 7 9 11 14 1 2 4 5 4 7l1-1h1c-3 5-5 8-5 13 0 2 1 5 1 7s1 2 3 3l8 32 70 208 6 17 65 186 11 33 15 47 9 28c3 7 5 14 8 20 1 1 2 2 2 4h-2c-1 1-1 2-1 3h0c0 1 0 1 1 2s1 3 1 5c1 0 2 0 3 2v4h-1-2-1v2c1 1 1 2 2 3v6c1 4 1 8 1 12 0 2 0 5 1 8s0 9-1 12c0 3 1 5 0 7-1 0-1 0-1-1-1 1-1 1-1 2l-42-130-6-17-2-7-12-37-5-13-33-97c-1-5-4-11-6-16l-6-18-10-28c-1-7-4-13-6-19l-9-25-27-79-7-20-37-110c-3-5-5-12-7-17-5-12-10-24-17-35-2-2-4-6-5-8-3-4-6-7-9-10-12-10-23-17-37-23-8-4-18-8-26-14-2-2-4-4-7-6z"></path><path fill="#9c7d68" d="M420 583h1l1 3h1v-1l1 2c-1 1-1 1-3 1l-1-1v-4z"></path><path d="M468 738h4v2c-1 2-1 3-2 5l-2-7zm-17-50c3 1 3 2 4 5v3c1 1 1 3 1 5l-5-13z" class="R"></path><path d="M483 737l4 11c0 2 1 4 1 6h-1c-1-1-1-3-3-4-1-1 0-1-1-2l1-1h-1c0-2 0-2 1-3-1-1-1 0-2-1v-1-1-1c-1-1-2-1-2-1l-1-1h2 1l1-1zM287 224l10 18c0-3-2-3-1-5 2 1 2 4 3 6 1 1 1 1 1 2 0 2 2 4 3 6 0 2 1 4 1 6 1 2 2 3 2 5s1 3 1 5l3 9c-3-5-5-12-7-17-5-12-10-24-17-35h1z" fill="#9c7d68"></path><path d="M519 890c-1-5-1-9-1-14 0-10-1-20 1-30v6c1 4 1 8 1 12 0 2 0 5 1 8s0 9-1 12c0 3 1 5 0 7-1 0-1 0-1-1z" class="I"></path><path d="M202 163h1c1-2 0-3 0-4h3l14 7c7 2 15 4 23 6 5 1 11 3 16 5s9 3 13 5c1 2 2 5 3 7 2 0 4 0 5-1 0-3 0-5 1-7l-3-3c-1-1-2-1-3-2-1 0 0 0-1-1h1c3-2 6-2 10-1 0 1 1 1 1 2h1l1 1 3-1c1 1 3 2 4 4v2c-1 2-2 3-4 5h0c0 1 0 1-1 2h1c1 1 2 2 2 3s1 2 2 3c0 1 1 1 1 2l1 1c1 1 3 2 4 3 3 2 5 4 8 6 4 4 7 9 11 14 1 2 4 5 4 7l1-1h1c-3 5-5 8-5 13 0 2 1 5 1 7s1 2 3 3l8 32 70 208 6 17 65 186 11 33 15 47 9 28c3 7 5 14 8 20 1 1 2 2 2 4h-2c-1 1-1 2-1 3h0c0 1 0 1 1 2s1 3 1 5c0 1 1 1 1 1l1 1h0l-3 1c-2-2-1-4-2-6 0-2-2-4-2-5-2-4-3-8-5-13l-20-60c0-2-1-4-1-6l-4-11-31-93-33-93-52-153-28-80c-6-19-11-38-18-56-7-17-15-32-24-47h-1c-1-1-2-2-3-4-3-3-8-12-12-13h-1 0-1v3h0c2 1 3 1 4 3 0 2-1 2-1 3l-2 3c0 3 0 4 3 7h0v1l4 6h-1c-2-2-4-6-5-8-3-4-6-7-9-10-12-10-23-17-37-23-8-4-18-8-26-14-2-2-4-4-7-6z" class="P"></path><path d="M202 163h1c1-2 0-3 0-4h3l14 7h-1c-2 0-3 0-5-1l-3-1-1 1v3l-1 1c-2-2-4-4-7-6zm70 43c-1-1-1-3-2-4s-1-2-1-4c0-1-1-1-1-2-1 0 0-2 0-2-1 0-3-2-4-3h-1l-1-2c2 0 2 1 3 1h1c1 0 2 1 3 1 0 1 1 1 2 2v-1c-1-1-1-1-2-1l1-2c2 1 3 3 6 2 6 3 17 18 21 24h-1c-1-1-2-2-3-4-3-3-8-12-12-13h-1 0-1v3h0c2 1 3 1 4 3 0 2-1 2-1 3l-2 3c0 3 0 4 3 7h0v1l4 6h-1c-2-2-4-6-5-8-3-4-6-7-9-10z" class="R"></path><path d="M275 189c2 0 4 0 5-1 0-3 0-5 1-7l-3-3c-1-1-2-1-3-2-1 0 0 0-1-1h1c3-2 6-2 10-1 0 1 1 1 1 2h1l1 1 3-1c1 1 3 2 4 4v2c-1 2-2 3-4 5h0c0 1 0 1-1 2h1c1 1 2 2 2 3s1 2 2 3c0 1 1 1 1 2l1 1c1 1 3 2 4 3 3 2 5 4 8 6 4 4 7 9 11 14 1 2 4 5 4 7l1-1h1c-3 5-5 8-5 13 0 2 1 5 1 7-2-4-5-7-7-10-7-10-14-21-18-32h-2-2l-18-16z" class="a"></path><path d="M290 198c-1-1-1-2-1-3 1 0 2 2 4 1h1l3 9h-2-1c-1-3-2-5-4-7z" class="W"></path><path d="M290 198c-2-2-7-6-7-9h1c4 2 8 4 10 7h-1c-2 1-3-1-4-1 0 1 0 2 1 3z" class="R"></path><path d="M275 189c2 0 4 0 5-1 0-3 0-5 1-7l-3-3c-1-1-2-1-3-2-1 0 0 0-1-1h1c3-2 6-2 10-1 0 1 1 1 1 2h1l1 1 3-1c1 1 3 2 4 4v2c-2 1-4 1-4 3l-1 1c-2 2-3 2-6 2v1h-1c0 3 5 7 7 9s3 4 4 7h1-2l-18-16z" class="I"></path><path d="M633 206c4-3 6-2 10-2 7 7 11 14 14 23l4 8c9 33 7 69 2 102-2 12-5 22-7 33l-12 41-4 10-52 150-21 59-7 18-3 9h-1c-4-8-6-17-9-25l-21-56-73-202h1 0c1-1 1-2 2-4l1-1v1 5c-1 4 8 23 12 28 1 1 1 1 3 2 2 0 4-1 5-3l3-3 3-6c0-1 2-7 2-8 0-2 1-3 2-4s1-3 1-4c1-3 1-6 1-8v-1c-2-4-4-6-8-9l-2 1c-4 1-6 3-9 3h-1c1 0 1-1 2-1 1-1 3-1 5-2l3-3c1 0 1 0 2-1l-1-1v-1l2 1c1 1 2 1 3 3 1 1 1 1 2 3 0 1 2 5 3 6l2-1c2 3 3 8 3 11 1 1 1 6 2 6h1l-1-12 1 4h0v-6-1-3c2 1 1 1 2 0v-5c-1-1-1-3-2-4-1 0-2-1-3-1-3-4-7-6-10-9-1-1-2-3-3-3-2 0-2-1-4-2h1v-2c-2-1-4-2-6-2l-1-1c-5 0-10 0-15-1h2v-1c-1 0-2 0-3 1h0l-1-1c1-1 1-1 2-1h2c1-1 2-1 3-1 5-1 9 0 14 0l1 1h2l1 1h1l4 1c2 1 4 2 5 3l2 1c1 0 2 0 3-1h0v-1c-1-2-2-4-2-5 0-3-1-5-1-7l-4-8c0-1 0-1-1-2h0v-3c-1-2-1-3-1-4 1-1 1-3 1-4l-1-11 6 11 4 3 1-1 4 6c5 8 7 18 10 26l3 12v5l2 2 1-1v-9c-1 0-1 0-2-1 1-2 1-3 1-6v-7-9c0-1 1-2 1-3 1-4 1-7 1-11 1 3 1 6 0 9v7 6 5c-1 8-1 16 0 24 1-1 2-1 3-2v-2c0-2 0-4 1-6 0-3 0-6 1-9 0 3 0 5 1 7l2-7c0-2 1-3 1-5h2l-1 1v1h1 0 1c1-2 3-3 3-4v-1c1-1 2-3 2-4v-1l1-1 2 1c1-1 2-3 3-5h1v2c-2 3-4 6-5 9-1 7-4 13-6 19l2-2c0-1 0-2 1-3v-2c0-1 1-1 1-2l1-3v1c1 1 0 2 0 3l-1 1-1 1v1h0c0 1 1 1 2 1h0v2h0c1-1 1-1 1-2 1-1 2-2 3-4 2 0 2-2 4-3-1 2-3 4-4 6v1c1-1 1-1 2-1l3-2h1l-1 1v2l-1 2c1 0 3-2 4-3l2-2h1 2c-2 2-5 4-7 7-1 1-2 1-3 3l-2 2v-1l1-4h-1c-3 2-3 8-4 12l-1 3v4l1-4h0v8h1v-3l1-2h0c1 2 0 4 0 7 0 4 0 9 1 14v6-5h1v3h1v-7c1-2 1-5 2-8 0 3 0 6 1 9l2 6h1l-1-6v-6l1 1 1 1c1 1 2 4 2 6l1 1h0c2 5 4 9 9 11 2 0 2 0 4 1l1 1h1c1-1 0-1 1 0h2c0 1 1 1 0 3-2 0-4-1-6-2 0 1 0 2-1 3 1 0 2 1 3 2h0 2c3 2 9 5 11 8v1c2 1 4 3 5 4 2 0 3-1 4 0l1 1c5-1 9-2 14-4s10-5 15-8c1 0 6-4 7-5 2 0 3-2 4-3 2-2 5-3 7-3l5-5c3-4 7-11 8-15v-1-5l1-1v-3c1-1 1-3 1-4 3-6 3-14 3-21l1 11c-1 1-1 2-1 4v3c-1 1-1 0-1 1v3l-1 1v2h1c-1 1-1 2-1 3-1 2-2 4-2 7-1 0-1 1-1 2-1 1-1 1-1 2-1 1-1 3-2 4l-2 4h-1c0 1 0 1-1 2v1h0c-1 1-1 2-2 3h-1v1l-2 1c0 2-1 2-2 3l-1 1c0 1-5 6-6 7h-1l-2 2-1 1-1 1h-1l-1 1h0l-1 1h-1l-1 1h0c-1 1-1 1-2 1l-1 1s-1 1-2 1c-2 1-4 2-5 3-1 0-2 1-3 1h-1c-3 1 1 0-1 1h-1-2c-1 1-1 1-1 2l1 1 3-1c2 0 4-1 6-2h1 1l1-1c1 0 2 0 3-1l3-3c2-1 3-3 5-5 1 0 0 1 1 0s2-2 3-2c1-1 1 0 1-1 2-1 3-3 5-3l-1 1c-2 0-3 2-4 3l-3 2c-2 1-8 6-9 8v1c-1 0-2 0-3 1-1 0-1 0-1 1h0 2l4-2c1 0 2-1 3-2 1 0 2 0 3-1l1-1c5-3 10-7 14-12h1l3-6v-1l1-1 1 1v-2s0-1 1-1c0-2 0-4 1-5v-1-1h1v-1-2h0c1-1 1-2 1-3 1-1 1-2 1-2v-2h0c1-2 1-3 2-4v-2l1-2v-2h0l1-1v-3c0-1 1-2 1-3s0-2 1-3c0-1 0-3 1-5 0-1 0-1 1-2 0-1 0-3 1-4v-4c1-1 1-1 1-2v-1c0-1 0-1 1-2v-3c0-1 0-1 1-2v-3c0-1 0-2 1-3v-4c0-1 0-2 1-3v-4c0-1 0-2 1-4v-4c1-1 1-4 1-5 1-3-1-6 0-8 1-3 0-4 0-6l1-2c-1-1-1-1-1-2 1-1 1-1 0-1 0-3 1-5 0-7v-4-7c-1-3 0-4-1-6v-2h1c-1-2-1-4-1-6v-4c-1-1-1-2-1-3v-3c-1-1-1-1-1-2h0v-1l-1-2v-1-1-1l-1-1v-2c0-1 0-1-1-2h0v-1c-1-1-1-2-1-3l-1-1h1l-1-1v-1c0-1-1-2-1-2l-3-6c0-2-2-6-4-7v-1h0l-1-1c-1-2-2-2-3-2-1-1-2-1-2-1v-1-3h-1c-2-1-2-2-4-1-1 0-2-1-3 0-1 0-1 0-1 1l-1 1h-1l1 1h1c1-1 1 0 1-1h1 2 1c1 0 2 0 3 1v3c0 1 1 1 1 2-2-2-1-2-2-5h-4-1c-1 1-3 1-4 0v-2z" class="M"></path><path d="M513 473c0-1 0-2 1-3l2 1v-1 2l1 5v1c-1-1-1-1-1-2l-3-3z" class="E"></path><path d="M539 495v1c-1 2-2 3-2 5s-1 3-1 4c-1-1-2-2-2-3 1-3 2-4 5-7z" class="b"></path><path d="M555 638h2c2 3 1 7 0 9l-3-6c0-2 0-2 1-3z" class="C"></path><path d="M563 523h1l5-5h0v1c-1 1-1 3-1 4v1h0c1 0 2-1 3-1-1 2-2 2-4 3-1-1 0 0 0-2l-1-1-2 1c-1 0-1 0-1-1z" class="N"></path><path d="M585 498c2 0 3-1 5-1-3 2-6 5-8 7h-1v-1c-1-1-1-1-2-1h-2l4-3 1-1v1c0 1 0 0 1 1 1 0 2-1 2-2z" class="H"></path><path d="M528 553l3 9c-1 1-1 2-2 3h-1v-2c-2-2-1-7 0-10z" class="N"></path><path d="M536 505l-4 9c0 1-1 2-1 3v-1-9c1-2 1-3 3-5 0 1 1 2 2 3h0z" class="H"></path><path d="M522 543c1 0 1 1 2 2v4c0 1 1 2 2 4l-2 7-3-9c1-1 1-4 2-6l-1-2z" class="N"></path><path d="M523 466l2 6v3 1h4l1-1c1 0 0 0 2 1h0c1 1-1 3-1 4-1 0-2-1-2-2h-1-2l-1-1h-1v-2l-2-2c1 0 1-1 1-1-1-3-1-4 0-6zm31 155h1 3l-1 2h0c-3 1-5 4-6 6v1l-1 1c0-2-1-4-1-6 1-2 3-3 5-4z" class="b"></path><path d="M495 418c0-1 1-3 1-4l1-2c0-1 1-3 1-4v-1h1c0 6 0 11-3 17v-1c0 2-1 3-2 4h0c0-2 1-4 1-6 0-1 0-1 1-2v-1h-1z" class="B"></path><path d="M538 404l1-1v1c0 2 1 3 1 4l2 8c1 2 2 4 2 7 0 1-1 1-1 2l1 2-1 1c-3-8-3-16-5-24z" class="G"></path><path d="M538 576v1c2-2 6-5 9-5l1-1h1l-1 1s-1 1-2 1-4 3-4 2c-2 1-2 2-3 4v1l-1 1-1 1c-1 2-1 5-1 7v1h0l-1-1c-1-2-1-4-1-6 1-4 2-5 4-7z" class="N"></path><path d="M528 553l2-4v-1c1-2 2-4 4-6v3c-1 0-1 0-1 1-1 2-2 3-1 4v5h0c1 1 1 1 2 1l-3 6-3-9z" class="C"></path><path d="M488 437l2 3c3 4 3 8 3 12l-1 1c-2-1-3-5-4-7 0-3 0-5-1-7v-1l1-1zm92 58c1 1 1 2 1 4l-4 3-6 6h-1 0l1-5v-1h0c2-1 3-2 4-3l5-4z" class="O"></path><path d="M570 508h1c2 4 5 11 3 16 0 1-1 1-1 2-3 0-5 2-7 1v-2l-2-1 2-1 1 1c0 2-1 1 0 2 2-1 3-1 4-3h0l2-4c-1-4-1-7-3-11z" class="E"></path><path d="M528 513c1 4 0 7 1 11 0 5 1 10 0 15 0 3 0 6-2 8v-5c0-5-1-10 0-14 0-2 1-4 1-6v-9z" class="N"></path><path d="M562 541c2-3 6-5 9-7l3-1s1-1 2-1c1-1 1-1 3-1 1-1 5-1 7-1-4 2-8 5-12 6-4 2-8 3-12 5z" class="H"></path><path d="M598 490l10-2 1 1h-1v1c-1 1-4 2-6 3l-12 4c-2 0-3 1-5 1l1-1s2-1 3-2h1c1-1 2-1 3-1 2 0 4-3 5-4z" class="C"></path><path d="M495 418h1v1c-1 1-1 1-1 2 0 2-1 4-1 6h0c1-1 2-2 2-4v1c0 3-1 6-2 10-1 2-1 5-1 7l-4-4c1-6 4-12 6-18v-1z" class="G"></path><path d="M543 428l1-1-1-2c0-1 1-1 1-2l5 13v1l-2 7c-1 2-2 3-3 4 1-5 3-10 0-15l-1-5z" class="T"></path><path d="M502 334l2 5c1 1 1 3 2 4 0 3 2 5 2 7l1 1 2 6c0 5 1 10 1 15v8c-1-5-1-9-1-13l-3-12c0-2-1-4-2-6v-1c-1-2-1-3-2-5l-1-2c0-1-1-1-1-2s0-2-1-3l1-2z" class="J"></path><path d="M522 414v-7h1v20c0 4 0 9 1 13l-1 1v-2c0-2 0-2-1-3v-1-5 2 2 1 1h0v14 10c0 2-1 3-1 5v-3c-1-2-1-3-1-4v-2c0-2 1-5 1-7 1-4 0-9 0-13l1-22z" class="B"></path><path d="M579 485l1 1c2 0 4-2 6-3h0l2 1c-1 1-7 7-9 7-1 0-2 1-3 2-1-1-1-1-1-2-1 1-3 3-4 3-2 0-3-1-5 0h0l-2-1c6-2 10-4 15-8z" class="P"></path><path d="M556 550c1 3 1 5 3 7-2 2-2 4-2 6-1 2-2 5-3 7v2c0 1 1 1 2 1v1l1 3h0-4l-1-1h-2v1h-1c0-1 1-2 1-3v-1c-1 0-1-1-2-1l1-1h-1l-1 1c-3 0-7 3-9 5v-1c4-4 11-5 14-9h1v1c2-2 2-4 3-6 1-4 1-7 0-10v-2z" class="O"></path><path d="M526 478h2 1c0 1 1 2 2 2-3 7-2 13-3 20-2-2-1-3-1-6l-1-1h0l-1-1v1l-1 1v2c0-4 1-8 0-12l1-1 1-5h0z" class="C"></path><path d="M525 483v2c1-1 1-2 1-3h1c1 1 1 3 1 5l-1 1v2 1s0 2-1 2h0l-1-1v1l-1 1v2c0-4 1-8 0-12l1-1z" class="D"></path><path d="M543 590l1 1 2-1v-1c0-1 1-2 1-3 2-2 1-3 4-4 1 0 2 1 3 1-1 0-1 1-2 0h-1v1l-2 2-1 2c-1 0-1 1-2 2 0 1 0 1-1 2h-1c-1 0-1 1-2 1h-1v1h0c2-1 3-1 5-2h2l1-1c1 0 4 0 5 1 1 0 2 1 3 1h1c1 0 2 1 2 1l1 1h1l1 1 3 3c2 0 4-1 5-4h1 1v1h0c-2 2-5 4-7 6l-1-1v-1c-1-4-4-4-8-6l-2-1c-2-1-5-1-6-1-2 1-5 1-6 2l-1 1-3 1 1-3c-1-1-1-1-1-2v-1l-1-1v-5h1 1c1 2 1 5 2 7v1l1-2z" class="N"></path><path d="M572 450c0-1-1-1-1-2h1s1 1 2 1h4c12 4 24 7 36 9-2 1-3 1-6 0-11-3-25-2-36-8z" class="L"></path><path d="M518 411v-7h1v5-1l2 2-1 2c1 1 1 2 2 2l-1 22c0 2 0 3-1 4v2h-1v-3c1-6 0-12 0-18h-2v-4l1-6z" class="O"></path><path d="M518 411v-7h1v5 12h-2v-4l1-6z" class="J"></path><path d="M579 485c3-3 6-6 8-9 1-1 2-2 2-3l1-1h0v3c2 0 5-4 8-6 1-1 3-2 5-3l-1 1c-3 6-8 10-12 15l-2 2-2-1h0c-2 1-4 3-6 3l-1-1z" class="G"></path><path d="M564 524l2 1v2c2 1 4-1 7-1l-2 2c-1 1-5 5-7 5-1 0-2 1-3 2h-10c-2-1-4-1-6-1l2-1 13-4c2-2 3-3 4-5z" class="F"></path><path d="M564 524l2 1v2c2 1 4-1 7-1l-2 2h-1c-1 0-1 1-2 1-1 1-1 1-2 1-2 0-3 1-5 1h0v-2h-1c2-2 3-3 4-5z" class="B"></path><path d="M548 572c1 0 1 1 2 1v1c0 1-1 2-1 3h1v-1h2l1 1c-4 1-6 3-8 8-1 1-1 2-2 3v2l-1 2v-1c-1-2-1-5-2-7h-1-1v-3l1-1v-1c1-2 1-3 3-4 0 1 3-2 4-2s2-1 2-1z" class="W"></path><path d="M538 581l1-1v-1c1-2 1-3 3-4 0 2-1 3 0 4l1 1h0c-1 2-1 3 0 5v2 1 2l-1 2v-1c-1-2-1-5-2-7h-1-1v-3z" class="E"></path><path d="M572 445c2 0 2 0 4 1 1 1 2 0 3 0 2 1 4 1 6 2 1 0 3 1 5 1l22 7h1c1 1 7 2 8 3-2 0-5 0-7-1-12-2-24-5-36-9-2-1-4-3-6-4z" class="I"></path><path d="M472 405l1 1c2-1 4-1 7-1v1h-1 0c-1-1-3 0-4 0l-1 1c1 1 3 0 5 0v2 1c1 4-4 8-1 11 1 0 2-1 3-2l1-2c1-1 1-1 1-2v2s0 1-1 1h1l-6 13c-1-2-2-5-3-7 0-1-1-3-1-4s1-2 1-3l4-8c-4 0-8 0-11-2v-1l5-1z" class="B"></path><path d="M555 495c3-1 6-2 9-2l2 1h0c2-1 3 0 5 0l-4 2c-1 1-3 2-4 2-2 1-5 0-6 1-6 0-12 0-17 3l-1 1-3 2h0c0-1 1-2 1-4 2-1 5-4 6-6l2-2-2 6c2-1 5-2 7-2 2-1 4-2 5-2z" class="O"></path><path d="M555 495c3-1 6-2 9-2l2 1h0c2-1 3 0 5 0l-4 2c-3 0-6-1-10 0-1 0-1 0-2-1z" class="X"></path><path d="M517 421h2c0 6 1 12 0 18-1 3 0 5 0 8 0 5-1 9 0 13v3c-1 1-1 0 0 1 0 2 0 4-1 5l-1 1-1-24c0-1 0-3-1-4h0l1-1-1-1h0c0-2 0-4 1-6v-6c1-3 1-5 1-7z" class="L"></path><path d="M521 436c0 4 1 9 0 13 0 2-1 5-1 7v2c0 1 0 2 1 4v3c0-2 1-3 1-5 1 2 1 4 1 6-1 2-1 3 0 6 0 0 0 1-1 1l2 2v2h1l1 1h0l-1 1c-1 1-1 1-1 2l-1-1v-3l-1-1-2 1v-3c-1-1-2-2-4-2v-2h1l1-1c1-1 1-3 1-5-1-1-1 0 0-1v-3c-1-4 0-8 0-13 0-3-1-5 0-8v3h1v-2c1-1 1-2 1-4z" class="G"></path><path d="M522 460c1 2 1 4 1 6-1 2-1 3 0 6 0 0 0 1-1 1v-3c-1-2-1-4-1-5 0-2 1-3 1-5z" class="C"></path><path d="M539 495s1-1 1-2c2-2 5-4 5-6 1-1 1-2 1-3h1c-1-2-3-3-4-4-2-2-5-4-5-7l1-1c1 1 1 1 2 1 0 1 1 2 2 2l2 2c2 1 0-1 1 1 1 0 1 1 2 1l1 1v1c1 0 2 0 3-1 1 0 2 1 3 1l1-1h1 1c1 0 1 0 2-1l1 1c1-1 1-1 2-1l-11 3c-3 1-4 5-5 9l-1 1-1 1-2 2c-1 2-4 5-6 6 0-2 1-3 2-5v-1z" class="H"></path><path d="M553 428c1 0 2 1 2 1h1v-1h1l9 10c2 2 4 5 6 7 2 1 4 3 6 4h-4c-1 0-2-1-2-1h-1c0 1 1 1 1 2-1 1 1 2 0 4-2-1-2-2-3-3-1-2-1-3-2-5-2-2-3-4-5-7-1-3-3-7-6-8 0 1 0 1 1 2 1 0 0 0 1 1v1l1 1v1c0 1 1 2 2 3l1 1-1 1c-2-3-3-7-6-10 0-1-1-3-2-4z" class="C"></path><path d="M537 377h1v-3l1-2h0c1 2 0 4 0 7 0 4 0 9 1 14v6c0 4 2 17 5 20 0 2 6 14 6 15l-1 1h0c0 1-1 2-1 2v-1l-5-13c0-3-1-5-2-7l-2-8c0-1-1-2-1-4v-1l-1 1h0v-3c-1-4-1-8-1-12-1-2-1-4-1-5l1-1v-6z" class="b"></path><path d="M586 530l2 1c-2 1-5 2-7 3-4 1-7 4-10 6s-5 3-7 5-3 5-4 8c-1 1-1 2-1 3v1c-2-2-2-4-3-7 0-2-2-4-3-6 0-1 1-1 1-1h0 1 0c3 1 5-1 7-2 4-2 8-3 12-5 4-1 8-4 12-6z" class="E"></path><path d="M540 346c2 0 2-2 4-3-1 2-3 4-4 6v1c1-1 1-1 2-1l3-2h1l-1 1v2l-1 2c1 0 3-2 4-3l2-2h1 2c-2 2-5 4-7 7-1 1-2 1-3 3l-2 2v-1l1-4h-1c-3 2-3 8-4 12l-1 3v4 2h-1l-1-3c2-4 1-9 2-12h-1c0 1-1 3-1 4 0 2 0 5-1 7 0-7 1-13 3-19h0c1-1 1-1 1-2 1-1 2-2 3-4z" class="G"></path><path d="M528 431v-9l-1-18c0-3 1-6 0-9v-8c0-6 0-12 2-18 0 0 1 1 1 2 1 2 0 6 0 8v33c0 4 1 8 1 12v1l-1-9c-2 5-1 10-2 15z" class="C"></path><path d="M571 494c1 0 3-2 4-3 0 1 0 1 1 2 1-1 2-2 3-2l-4 4v4c-1 1-2 2-4 3h0v1l-1 5-4-4h-1c-8-4-17-4-26-1l1-1c5-3 11-3 17-3 1-1 4 0 6-1 1 0 3-1 4-2l4-2z" class="Q"></path><path d="M571 502c-1 0-1 1-2 1-2 0-3 0-4-1v-1c3 0 7-4 10-6v4c-1 1-2 2-4 3h0z" class="G"></path><path d="M516 472c2 0 3 1 4 2v3l2-1 1 1v3l1 1c0-1 0-1 1-2l1-1-1 5-1 1c1 4 0 8 0 12v8l-1 1c-1 1-1 0-1 1-1-2 0-8-1-11l-3-2v-13c-1 0 0-3-1-3l-1-5z" class="S"></path><g class="X"><path d="M523 480l1 1c0-1 0-1 1-2l1-1-1 5-1 1h0v4h-2-1l1-1c-1-1 0-1-1-2h-1c0-2 0-4 1-5 1 1 0 3 1 5v-1-4h1z"></path><path d="M518 480l1 2h0c0 2 0 3 1 5v1c1 1 1 2 1 3v4l-3-2v-13z"></path></g><path d="M510 426c1-7 1-13 1-20 0-5 0-11 1-16l1 22v1h0 1c0-1 0-1 1-2h1c0 3-1 3 1 6v4c0 2 0 4-1 7v6c-1 2-1 3-2 4v-1c-1 1-2 2-2 4v1h-1v-6l1-1c0-2 0-8-1-10v4l-1-3z" class="J"></path><path d="M513 413h1c0-1 0-1 1-2h1c0 3-1 3 1 6v4c0 2 0 4-1 7h-1c0-1-1-2-2-3v-12z" class="F"></path><path d="M526 433v-4l1-1v4l1 2 1 1c2 8 3 16 7 24 1 3 2 5 4 7 4 5 9 8 12 13h-1c-8-8-17-14-22-24 0-1 0-1-1-2-2-3-3-8-5-12l1-1c1 1 1 1 2 3l-1 1h1 0c1 1 1 3 2 3 0-2 0-4-1-6 0-3 0-6-1-8z" class="G"></path><path d="M539 596l3-1 1-1c1-1 4-1 6-2 1 0 4 0 6 1l2 1c4 2 7 2 8 6v1l1 1-1 1c-2-2-5-5-9-5-5 0-9 2-12 5-1 1-1 2-2 3h-1c0-1-1-2-1-3l1-3-1-1c-1 0-1 0-2-1l1-2z" class="C"></path><path d="M544 603l1-4c3-2 5-3 8-3 4-1 9 3 12 5l1 1-1 1c-2-2-5-5-9-5-5 0-9 2-12 5z" class="Q"></path><path d="M588 484l2-2v1l-1 1 1 1-1 1c1 0 2-1 3-1 1-1 4-3 5-2l-4 4h2 0l-5 4 8-1c-1 1-3 4-5 4-1 0-2 0-3 1h-1c-1 1-3 2-3 2l-1 1c0 1-1 2-2 2-1-1-1 0-1-1v-1l-1 1c0-2 0-3-1-4l-5 4v-4l4-4c2 0 8-6 9-7z" class="N"></path><path d="M584 493h0l4-2s1 0 2-1c-1 3-6 6-8 8l-1 1c0-2 0-3-1-4 1-1 3-2 4-2z" class="F"></path><defs><linearGradient id="R" x1="587.775" y1="490.802" x2="576.802" y2="490.228" xlink:href="#B"><stop offset="0" stop-color="#0c0f11"></stop><stop offset="1" stop-color="#2b2c2d"></stop></linearGradient></defs><path fill="url(#R)" d="M588 484l2-2v1l-1 1 1 1-1 1c1 0 2-1 3-1-2 2-5 4-7 6 0 1-1 1-1 2-1 0-3 1-4 2l-5 4v-4l4-4c2 0 8-6 9-7z"></path><path d="M548 421l2 1h0c-1-2-2-4-2-6 1 0 1 1 2 1 0 1 1 2 1 3v1c1 1 2 1 2 1l1 1c0 1 1 2 2 2h0 1v1 2h-1v1h-1s-1-1-2-1c1 1 2 3 2 4s0 2 1 2l-1 2 1 1v1l-1-1h0c-1 0-1 0-1 1h1v1c-3 2-5 5-7 8-1 3-2 5-5 8h-1l2-7c1-1 2-2 3-4l2-7s1-1 1-2h0l1-1c0-1-6-13-6-15 1 1 2 1 2 3l1 1v-2z" class="X"></path><path d="M548 421l2 1h0c-1-2-2-4-2-6 1 0 1 1 2 1 0 1 1 2 1 3v1c1 1 2 1 2 1l1 1c0 1 1 2 2 2h0 1v1 2h-1v1h-1s-1-1-2-1c0-1 0-1-1-1-1-2-2-3-3-5v1l1 2c0 2 2 4 1 6-1-1-1-3-2-5l-1-3v-2z" class="T"></path><path d="M487 304c2 8 7 14 9 21 1 2 2 4 3 7l2 4c1 1 1 2 1 3s1 1 1 2l1 2c1 2 1 3 2 5l-3-1c0-3-2-5-2-8-1-3-3-3-4-6 0 0-1-2-1-3l-1-1v4l1 1c0 1 0 1 1 2 1 2 1 3 2 5s2 4 1 7l-2-3-6-6c1 0 2 0 3-1h0v-1c-1-2-2-4-2-5 0-3-1-5-1-7l-4-8c0-1 0-1-1-2h0v-3c-1-2-1-3-1-4 1-1 1-3 1-4z" class="C"></path><path d="M537 552c2-3 5-6 9-8 2 0 4-1 6 0h1c1 2 3 4 3 6v2c1 3 1 6 0 10-1 2-1 4-3 6v-1h-1c1-2 1-3 1-3 1-2 2-5 1-7v-1-1h-1c0-2-1-3-2-5 0-1-2 0-3-1-4 3-7 5-9 9l-2 3v1c-1 0-1 1-1 2s-1 4-2 5v-1c0-5 1-9 4-14h-1l2-2c-1 0-2 1-3 1l1-1z" class="L"></path><path d="M537 552c2-3 5-6 9-8 2 0 4-1 6 0 1 2 2 3 2 4s0 1-1 2c-2-2-3-2-6-2s-7 4-9 6h-1l2-2c-1 0-2 1-3 1l1-1z" class="H"></path><path d="M510 426l1 3v-4c1 2 1 8 1 10l-1 1v6h1v-1c0-2 1-3 2-4v1c1-1 1-2 2-4-1 2-1 4-1 6-1 1-1 2-1 3-3 8-7 18-12 24-1 2-7 8-9 8 0-2 2-3 3-4 1-2 2-3 3-4 7-13 10-26 11-41z" class="B"></path><path d="M573 596v1c2 0 3-3 5-5-3 7-7 14-14 18l-1-1 3-2c-2 0-4 2-5 3-2 1-5 3-7 4l-5 2c-2-2-3-3-4-5v-1h0c1-2 3-3 5-4 3-1 8-2 11 0h3c1 0 2-1 2-2l-1-1 1-1c2-2 5-4 7-6z" class="C"></path><path d="M554 614l-1-2c0-1 1-1 2-3h3c1 1 2 1 3 1-2 1-5 3-7 4z" class="G"></path><path d="M555 432c3 3 4 7 6 10l1-1c1 1 2 2 2 3l1 1h0c0 2 0 3 1 4 0 1 1 2 1 3l1 1v1c-1 2-1 3-2 4-1-1-1-1-2-1-1-2-3-3-4-4-3-2-4-4-7-6l-2 5h-1c1-2 3-5 2-6l-2 1h-2c2-3 4-6 7-8v-1h-1c0-1 0-1 1-1h0l1 1v-1l-1-1 1-2c-1 0-1-1-1-2z" class="H"></path><path d="M555 432c3 3 4 7 6 10l1 1c1 3 3 7 5 10-1 0-6-8-7-9-2-1-3-3-5-4v-1-1h-1c0-1 0-1 1-1h0l1 1v-1l-1-1 1-2c-1 0-1-1-1-2z" class="F"></path><path d="M547 533l2-2h1l4-1h-3-3v1h-1c-1 1-3 0-4 0h-1c-1 1-1 1-2 1-1 1-1 1-2 0h-1v-3-3c-1-2 0-7 0-10 0-1 1-1 1-1h0v2 1 1c-1 1 0 3 0 4v-1c1-2 2-4 3-5l1-1c0-1 4-4 5-5v-1l2 1h-1c0 3-3 4-5 6 0 2-1 3-1 4h2c0-1 1-1 2-1h1v1c-1 0-2 1-2 2h0l2-1v1c1 0 1 0 2 1h0-1c-1 1-2 1-4 2v1l1 1h0c-1 0-2 0-3 1h-1-3v2h1l3-1c1 0 2-1 2-1l6-1 1-1 7-2c2-1 3-1 5-2 0 1 0 1 1 1-1 2-2 3-4 5l-13 4z" class="E"></path><path d="M625 410c2 0 3-2 4-3 2-2 5-3 7-3-2 3-4 6-7 8l-4 4c-6 4-12 9-19 11-1 1-2 1-4 2l-2 1v-2c0-1 0-1 1-2l2-3c5-2 10-5 15-8 1 0 6-4 7-5z" class="X"></path><path d="M602 429v-1l2-1-1-1c2-2 5-4 8-5-1 2-1 4-2 4s-2 1-2 1h-1v1c-1 1-2 1-4 2z" class="U"></path><path d="M619 416c2-2 5-4 7-5 2 0 2 0 3 1l-4 4c-2-1-4-1-6 0z" class="V"></path><path d="M619 416c2-1 4-1 6 0-6 4-12 9-19 11v-1h1s1-1 2-1 1-2 2-4c3-1 6-3 8-5z" class="Q"></path><path d="M521 388l1-1 1-5c0-4 0-8 1-11h1c-1 5-1 9-1 13v8c1 11 1 22 1 33 0 2 0 6 1 8s1 5 1 8c1 2 1 4 1 6-1 0-1-2-2-3h0-1l1-1c-1-2-1-2-2-3-1-4-1-9-1-13v-20h-1v7c-1 0-1-1-2-2l1-2-2-2c1-2 0-5 1-7h0l-1-2c-1-1-1-1-1-3h-1l2-2c0 1 1 1 1 2l-1 1h1v1l1 1v-2-1-2-6z" class="W"></path><path d="M523 427c0 1 1 3 2 4 1 3 1 6 1 8v4c1 1 1 0 0 1h0-1l1-1c-1-2-1-2-2-3-1-4-1-9-1-13z" class="F"></path><path d="M540 399v-5h1v3h1v-7c1-2 1-5 2-8 0 3 0 6 1 9l2 6c1 5 2 8 2 13 2 5 4 10 7 15h0c-1 0-2-1-2-2l-1-1s-1 0-2-1v-1c0-1-1-2-1-3-1 0-1-1-2-1 0 2 1 4 2 6h0l-2-1v2l-1-1c0-2-1-2-2-3-3-3-5-16-5-20z" class="G"></path><path d="M548 421c-1-2-3-7-2-9-1-3-2-5-3-7v-4h0c1 1 2 2 2 3l1 1c1 1 2 3 3 5 2 5 4 10 7 15h0c-1 0-2-1-2-2l-1-1s-1 0-2-1v-1c0-1-1-2-1-3-1 0-1-1-2-1 0 2 1 4 2 6h0l-2-1z" class="O"></path><path d="M523 342c0 3 0 5 1 7v3 1c0 2 0 3-1 5v1h1c1 0 1 1 2 1s1 0 2 2c-1 1-1 2-1 4s-1 3-2 5h0-1c-1 3-1 7-1 11l-1 5-1 1v6 2 1 2l-1-1v-1h-1l1-1c0-1-1-1-1-2h0c-1-2-1-10-1-12v-1-6-4-10c1-1 2-1 3-2v-2c0-2 0-4 1-6 0-3 0-6 1-9z" class="R"></path><path d="M523 342c0 3 0 5 1 7v3 1c0 2 0 3-1 5v1h1c1 0 1 1 2 1s1 0 2 2c-1 1-1 2-1 4s-1 3-2 5h0-1c-1 3-1 7-1 11l-1 5-1 1 1-37c0-3 0-6 1-9z" class="T"></path><path d="M493 407c1 2 1 2 0 4v1l1 1h1c0 2-1 4-1 5l-4 11-2 5v3l-1 1v1c1 2 1 4 1 7-2-4-4-5-8-7v-1l1-2c0-1 0-1-1-2h0v-1-1c0-2 1-4 2-5 1-2 1-3 2-5s3-4 3-6c0-1 0 0 1-1v-1h0c0-1 1-2 1-3v-1h1c1 0 0 0 1 1h0c1 0 1-3 2-4z" class="J"></path><path d="M484 422c1-2 3-4 3-6 0-1 0 0 1-1v-1h0c0-1 1-2 1-3v-1h1c-1 2 0 2 0 4h0l-1 1c1 2-1 3 0 5l-1 1c-2 3-1 5-3 8v2l-1 1c0 1-1 2-2 3l-1 1c0-1 0-1-1-2h0v-1-1c0-2 1-4 2-5 1-2 1-3 2-5z" class="B"></path><path d="M482 427l2-1v4l-2 2h1 1c0 1-1 2-2 3l-1 1c0-1 0-1-1-2h0v-1-1c0-2 1-4 2-5z" class="C"></path><path d="M561 535c1-1 2-2 3-2-3 3-8 6-10 10 0 0-1 0-1 1h-1c-2-1-4 0-6 0-4 2-7 5-9 8l-1 1c-1 1-2 2-2 3-1 0-1 0-2-1h0v-5c-1-1 0-2 1-4 0-1 0-1 1-1v-3c3-3 7-6 11-8 2 0 4 0 6 1h10z" class="T"></path><path d="M561 535c1-1 2-2 3-2-3 3-8 6-10 10 0 0-1 0-1 1h-1c-2-1-4 0-6 0-4 2-7 5-9 8l-1-2c0-4 6-9 9-13h3s1 2 2 2h3s1-1 2-1 1 0 2-1l1-1c1 0 2-1 3-1z" class="I"></path><path d="M557 426c2 3 4 5 6 7h1c2-1 3 0 5 0h0c2 2 3 3 6 4h3c3 2 6 4 10 5l28 11h-3l-1-1h-1 0-1l-1-1h-1 0-1l-1-1h-2v-1h-1-1c-1-1-3-1-5-1 1 1 1 1 2 1 1 1 1 2 2 2l1 1h1 2v1h3 0l1 1c1 0 1 0 2 1l1 1-22-7c-2 0-4-1-5-1-2-1-4-1-6-2-1 0-2 1-3 0-2-1-2-1-4-1-2-2-4-5-6-7l-9-10v-2z" class="N"></path><path d="M557 426c2 3 4 5 6 7h1c5 5 12 9 18 12 3 1 5 2 8 4-2 0-4-1-5-1-2-1-4-1-6-2-1 0-2 1-3 0-2-1-2-1-4-1-2-2-4-5-6-7l-9-10v-2z" class="X"></path><path d="M524 496v-2l1-1v-1l1 1h0l1 1c0 3-1 4 1 6v13 9c0 2-1 4-1 6-1 4 0 9 0 14v5l-1 6c-1-2-2-3-2-4v-4c-1-1-1-2-2-2v-5l-3 2-1-2v-4h1 1c0 1 0 1 1 1 1-6 0-12 1-18v-1-10c0-1 0 0 1-1l1-1v-8z" class="B"></path><path d="M524 549l1-3v-8c0 1 1 2 1 3l1 1v5l-1 6c-1-2-2-3-2-4z" class="C"></path><path d="M522 506c0-1 0 0 1-1l1-1c0 5 1 10 0 15-1 3 0 7-1 10v-8c-1-2-1-3-1-5v-10z" class="F"></path><path d="M518 534h1 1c0 1 0 1 1 1 1-6 0-12 1-18v-1c0 2 0 3 1 5v8 6c-1 1-1 2-1 3l-3 2-1-2v-4z" class="X"></path><path d="M518 310c1 3 1 6 0 9v7 6 5c-1 8-1 16 0 24v10 4 6 1c0 2 0 10 1 12h0l-2 2h1c0 2 0 2 1 3l1 2h0c-1 2 0 5-1 7v1-5h-1v7l-1 6c-2-3-1-3-1-6h-1c-1 1-1 1-1 2h-1 0v-1l-1-22v-3-7-8c0-5-1-10-1-15 1 2 1 4 1 6 0 1 1 2 1 2v2 4 1c0 2 1 3 2 4 1-2-1-3 1-5l-1-1v-2c-1-2 0-6 0-9-1-1-1-2-1-3v-1l2 2 1-1v-9c-1 0-1 0-2-1 1-2 1-3 1-6v-7-9c0-1 1-2 1-3 1-4 1-7 1-11z" class="F"></path><path d="M518 375v6 1c0 2 0 10 1 12h0l-2 2h1c0 2 0 2 1 3l1 2h0c-1 2 0 5-1 7v1-5h-1v7l-1 6c-2-3-1-3-1-6h-1c-1 1-1 1-1 2h-1 0v-1c1-2 2-3 2-4-1-4-1-8 0-12h0l-1-1c0-2 1 0 0-2h0l1-3c0 1 0 1 1 1v-5c0-3 0-6 1-8 0-2 1-2 1-3z" class="S"></path><path d="M517 396h1c0 2 0 2 1 3l1 2h0c-1 2 0 5-1 7v1-5h-1v7l-2-2c0-2-1-7 0-9 0-1 1-1 1-1v-1-2z" class="T"></path><path d="M536 328l2 1c1-1 2-3 3-5h1v2c-2 3-4 6-5 9-1 7-4 13-6 19-1 5-2 10-2 15-2 6-2 12-2 18v8c1 3 0 6 0 9l1 18v9l1 4-1-1-1-2v-4l-1 1v4c-1-2-1-6-1-8 0-11 0-22-1-33v-8c0-4 0-8 1-13h0c1-2 2-3 2-5s0-3 1-4c-1-2-1-2-2-2s-1-1-2-1h-1v-1c1-2 1-3 1-5v-1-3l2-7c0-2 1-3 1-5h2l-1 1v1h1 0 1c1-2 3-3 3-4v-1c1-1 2-3 2-4v-1l1-1z" class="J"></path><path d="M536 328l2 1c1-1 2-3 3-5h1v2c-2 3-4 6-5 9-1 0-1-1-1-2-1 2-1 3-2 4l-1 2c-1 2-1 3-1 5-1 2-1 3-2 5 0 2-1 3-3 4 0 2-1 4-1 7-1 0-1-1-2-1h-1v-1c1-2 1-3 1-5v-1-3l2-7c0-2 1-3 1-5h2l-1 1v1h1 0 1c1-2 3-3 3-4v-1c1-1 2-3 2-4v-1l1-1z" class="O"></path><path d="M527 337h2l-1 1v1h1 0 1s0 1-1 2v1l-1 1-2-1c0-2 1-3 1-5z" class="F"></path><path d="M524 353v-1c1-1 1-2 1-3l1-1 1 1h1l-1 4c0 2-1 4-1 7-1 0-1-1-2-1h-1v-1c1-2 1-3 1-5z" class="W"></path><defs><linearGradient id="S" x1="505.104" y1="380.07" x2="504.196" y2="361.965" xlink:href="#B"><stop offset="0" stop-color="#151617"></stop><stop offset="1" stop-color="#2e3031"></stop></linearGradient></defs><path fill="url(#S)" d="M462 332c5-1 9 0 14 0l1 1h2l1 1h1l4 1c2 1 4 2 5 3l2 1 6 6 2 3c2 5 5 11 6 17 1 4 0 10 2 14 1 2 0 5 0 6h0l-1-3v1 5c-2-2 0-6-1-9-2 1-2 1-2 3l-1-1c-1-4 0-8 0-13 0-1 0-2-1-3v-3h0c0-2-1-3-1-5v-1h-1c-1 1-1 1 0 1v3h0c-1-1-1-3-2-4-1 0-2-1-3-1-3-4-7-6-10-9-1-1-2-3-3-3-2 0-2-1-4-2h1v-2c-2-1-4-2-6-2l-1-1c-5 0-10 0-15-1h2v-1c-1 0-2 0-3 1h0l-1-1c1-1 1-1 2-1h2c1-1 2-1 3-1z"></path><path d="M457 335h2v-1c-1 0-2 0-3 1h0l-1-1c1-1 1-1 2-1h2c1-1 2-1 3-1l1 1c3 1 7-1 10 1h3 1l1 1h2l1 1 1-1v2c-2 0-3-1-4-1l-1-1h-2l-2-1h-2-1c-2 0-9-1-10 0 3 3 8 0 11 2h3c1 0 1 0 2 1h2 1c1 1 2 1 3 2l2 1c2 1 4 2 6 4l2 1c2 2 6 5 7 7 0 1 1 2 1 2 1 1 2 3 2 4 0 2 1 2 0 4h0c0-2-1-3-1-5v-1h-1c-1 1-1 1 0 1v3h0c-1-1-1-3-2-4-1 0-2-1-3-1-3-4-7-6-10-9-1-1-2-3-3-3-2 0-2-1-4-2h1v-2c-2-1-4-2-6-2l-1-1c-5 0-10 0-15-1z" class="B"></path><path d="M479 339c8 2 15 9 18 16l1 1c-1 0-2-1-3-1-3-4-7-6-10-9-1-1-2-3-3-3-2 0-2-1-4-2h1v-2z" class="a"></path><path d="M486 293l6 11 4 3 1-1 4 6c5 8 7 18 10 26l3 12v5 1c0 1 0 2 1 3 0 3-1 7 0 9v2l1 1c-2 2 0 3-1 5-1-1-2-2-2-4v-1-4-2s-1-1-1-2c0-2 0-4-1-6l-2-6-1-1c0-2-2-4-2-7-1-1-1-3-2-4l-2-5-1 2-2-4c-1-3-2-5-3-7-2-7-7-13-9-21l-1-11z" class="O"></path><path d="M502 334c-1-2-3-6-3-9 2 1 2 1 3 2 0 1 0 2 1 3h1c0 2 0 5 1 6 0 1 0 2-1 3l-2-5z" class="C"></path><path d="M504 330v1c0 1 1 2 2 3 0 1 0 2 1 3l2 14-1-1c0-2-2-4-2-7-1-1-1-3-2-4 1-1 1-2 1-3-1-1-1-4-1-6z" class="B"></path><path d="M492 304l4 3 1-1 4 6v1c-1 1-1 2-2 3h-1c-1-1-1-3-2-4 0-2 0-3-1-4l-3-4z" class="Z"></path><path d="M486 293l6 11 3 4c1 1 1 2 1 4v-1c-1 0-2-1-3-2h-1c1 4 4 9 6 13h2c1-1 1-1 2-3v5h-1l-1-1c-2 0-2 2-4 2-2-7-7-13-9-21l-1-11z" class="I"></path><path d="M513 473l3 3c0 1 0 1 1 2v-1c1 0 0 3 1 3v13l3 2c1 3 0 9 1 11v10 1c-1 6 0 12-1 18-1 0-1 0-1-1h-1-1v4l1 2 3-2v5l1 2c-1 2-1 5-2 6l-7-17c-3-9-3-18-3-27 0-7-1-15 0-22-2-2-2-5-3-7v-1l2 1h2 0c1-2 1-3 1-5z" class="D"></path><path d="M518 538l1 2 3-2v5l1 2-2 1c0-1 0-1-1-1-2-2-2-5-2-7z" class="G"></path><path d="M511 485l1 3c1 4 0 10 1 14l1 15c0 3 1 5 1 8s0 6-1 9c-3-9-3-18-3-27 0-7-1-15 0-22z" class="C"></path><path d="M517 528c-1-3 0-8 0-10-2-3 0-6-1-8l-1 2c0-3-1-5-1-8v-1-2-11l1 2c1-1 1 0 2 0 0-2-2-2-2-4l1-1h-1c0-2-1-4 0-6 0-1 0-3-1-5h0l1 1 1 1h1v-1c1 0 0 3 1 3v13c0 3-1 7 0 10l-1 9v16z" class="G"></path><path d="M518 493l3 2c1 3 0 9 1 11v10 1c-1 6 0 12-1 18-1 0-1 0-1-1h-1-1c-1-2-1-4-1-6v-16l1-9c-1-3 0-7 0-10z" class="R"></path><path d="M518 503c1 1 2 2 2 4s0 4 1 6l-1 2-1-1-2-2 1-9z" class="U"></path><path d="M469 363c1 0 1-1 2-1 1-1 3-1 5-2l3-3c1 0 1 0 2-1l-1-1v-1l2 1c1 1 2 1 3 3 1 1 1 1 2 3 0 1 2 5 3 6l2-1c2 3 3 8 3 11 1 1 1 6 2 6h1l-1-12 1 4h0v-6-1-3c2 1 1 1 2 0v-5h0c1 1 0 1 1 2 0 1 0 2 1 3h0c-1 1-1 1 0 1 0 4 0 10-1 14v24h0l-1-1v-3h-1c0 1 0 2 1 4v1h0l-1 2h-1v1c0 1-1 3-1 4l-1 2c0 1-1 3-1 4v1l-1-1c0-1 1-3 1-5h-1l-1-1v-1c1-2 1-2 0-4-1 1-1 4-2 4h0c-1-1 0-1-1-1h-1v1c0 1-1 2-1 3h0v1c-1 1-1 0-1 1 0 2-2 4-3 6v-2h0c0-2 0-2 1-3 0-1 0-1 1-2h0v-1-1c-1 1-2 4-3 5h-1c1 0 1-1 1-1v-2c0 1 0 1-1 2l-1 2c-1 1-2 2-3 2-3-3 2-7 1-11v-1-2c-2 0-4 1-5 0l1-1c1 0 3-1 4 0h0 1v-1c-3 0-5 0-7 1l-1-1c2 0 4-1 5-3l3-3 3-6c0-1 2-7 2-8 0-2 1-3 2-4s1-3 1-4c1-3 1-6 1-8v-1c-2-4-4-6-8-9l-2 1c-4 1-6 3-9 3h-1z" class="E"></path><path d="M497 371l1 4h0v-6-1c1 5 2 27 0 29v-12-2l-1-12z" class="M"></path><path d="M490 367l2-1c2 3 3 8 3 11 1 1 1 6 2 6h1v2h-1v6c-2-8-4-16-7-24zm-1 1c1 2 2 3 2 5l1 1c1 4 1 8 0 13-1-4-1-7-1-11-1 3-3 7-3 10l-1 1c-1 0-1-1-2-2 0-2 1-3 2-4s1-3 1-4c1-3 1-6 1-8v-1z" class="H"></path><path d="M490 410c0-3 2-9 3-12 1-1 1-1 1-2v-1c1-2 0-5 1-7 0 3 0 7 1 10 1 0 1 1 1 1v3c0 4 0 7-2 11h-1l-1-1v-1c1-2 1-2 0-4-1 1-1 4-2 4h0c-1-1 0-1-1-1z" class="D"></path><path d="M493 407v-1c0-1 0-2 1-4h1v3h1c0-2 0-2 1-3 0 4 0 7-2 11h-1l-1-1v-1c1-2 1-2 0-4zm-8-22c1 1 1 2 2 2l1-1c-1 1-1 2-1 3l1 1 1 4v7h0l1-1v-1-7c-1-1 0-6 1-7 0 5 1 12-1 16l-3 8v1c-1 1-1 2-1 3-1 1-2 4-3 5h-1c1 0 1-1 1-1v-2c0 1 0 1-1 2l-1 2c-1 1-2 2-3 2-3-3 2-7 1-11v-1-2c-2 0-4 1-5 0l1-1c1 0 3-1 4 0h0 1v-1c-3 0-5 0-7 1l-1-1c2 0 4-1 5-3l3-3 3-6c0-1 2-7 2-8z" class="G"></path><path d="M487 389l1 1 1 4c-1 1-1 2-2 2l-1-2h-1c0-1 1-3 2-5zm-4 4c1 1 1 2 1 3v1c-1 2-2 4-4 5h-3l3-3 3-6z" class="L"></path><path d="M485 385c1 1 1 2 2 2l1-1c-1 1-1 2-1 3-1 2-2 4-2 5l-1 3v-1c0-1 0-2-1-3 0-1 2-7 2-8z" class="N"></path><path d="M547 391v-6l1 1 1 1c1 1 2 4 2 6l1 1h0c2 5 4 9 9 11 2 0 2 0 4 1l1 1h1c1-1 0-1 1 0h2c0 1 1 1 0 3-2 0-4-1-6-2 0 1 0 2-1 3 1 0 2 1 3 2h0 2c3 2 9 5 11 8v1c2 1 4 3 5 4 2 0 3-1 4 0l1 1c5-1 9-2 14-4l-2 3c-1 1-1 1-1 2v2h0-4l-5-1c2 2 3 2 6 3l2 2h-1c2 2 1 3 1 4 1 1 2 3 3 4h3 2c1 0 1 0 2 1s2 0 4 0c3 0 9-1 12 1l1-1v1c-1 1-1 2-2 2v1c-1 2-1 3-1 5l2 2v1l-2-1-7-1-28-11c-4-1-7-3-10-5h-3c-3-1-4-2-6-4h0c-2 0-3-1-5 0h-1c-2-2-4-4-6-7v-1h-1c-3-5-5-10-7-15 0-5-1-8-2-13h1l-1-6z" class="F"></path><path d="M602 442h3 2c1 0 1 0 2 1s2 0 4 0c3 0 9-1 12 1-3 1-5 1-7 1-3 0-7 1-9 0-1 0-2-1-3-1-2 0-2-1-4-2z" class="N"></path><path d="M555 417v-2c-1-1-1-2-1-3 0-2-1-5-2-7h0l3 4c3 6 5 11 10 16v3c-4-3-6-6-9-10l-1-1z" class="I"></path><path d="M547 397h1c1 5 3 10 5 15 0 2 1 3 2 5l1 1c0 2 0 3 1 4l1 2-1 1h-1c-3-5-5-10-7-15 0-5-1-8-2-13z" class="C"></path><path d="M556 418c3 4 5 7 9 10 4 4 8 6 13 9h-3c-3-1-4-2-6-4h0c-2 0-3-1-5 0h-1c-2-2-4-4-6-7v-1l1-1-1-2c-1-1-1-2-1-4z" class="B"></path><path d="M588 442h3v-1h-1c-1-1-2-1-3-2l1-1v1c4 1 7 2 11 3 2 1 3 2 5 4 1 0 3 0 4 1 3 1 5 2 8 2l1-1h3c-1 1-1 1-2 1h-1c0 1 1 1 2 1s2 1 3 1v1c0 1 1 2 1 2l-7-1-28-11z" class="Z"></path><path d="M565 425c9 8 20 12 32 14 1 1 2 2 2 3-4-1-7-2-11-3v-1l-1 1c1 1 2 1 3 2h1v1h-3c-4-1-7-3-10-5-5-3-9-5-13-9v-3z" class="K"></path><path d="M556 408c0-1-2-4-2-6-1-2-3-6-2-8 2 5 4 9 9 11 2 0 2 0 4 1l1 1h1c1-1 0-1 1 0h2c0 1 1 1 0 3-2 0-4-1-6-2 0 1 0 2-1 3 1 0 2 1 3 2h0 2c3 2 9 5 11 8v1c2 1 4 3 5 4 3 2 6 3 8 6 1 0 2 1 3 1l1 1c0 1 1 1 1 2-3 1-5-1-8-1-4-1-8-3-13-5-7-3-17-14-20-22z" class="U"></path><path d="M579 422l3 3v1l-4-4-1 1c-1 0-1-1-2-1v1l-1-1-1 1c-3 0-7-5-9-7v-1c-1-1-3-4-3-6 0-1 0 0-1-1h0v-1c1 0 3 1 4 1 0 1 0 2-1 3 1 0 2 1 3 2h0 2c3 2 9 5 11 8v1z" class="C"></path><defs><linearGradient id="T" x1="677.216" y1="504.352" x2="284.237" y2="487.87" xlink:href="#B"><stop offset="0" stop-color="#b9b1ad"></stop><stop offset="1" stop-color="#e0dad5"></stop></linearGradient></defs><path fill="url(#T)" d="M424 174c11-4 24-6 36-8 7-1 16-4 24-4-5 4-12 5-18 8-12 6-24 12-36 19-1 1-3 2-4 3-3 2-6 4-7 6-1 1-3 2-3 3h1c2 1 3 2 5 3l-1 1c-2-2-4-3-6-3l-8 10c-2 7 0 15 0 21l3 14c4 20 11 39 18 59 3 7 5 15 8 22l17 46 73 202 21 56c3 8 5 17 9 25h1l3-9 7-18 21-59 52-150 4-10 12-41c2-11 5-21 7-33 5-33 7-69-2-102v-2-1l-1-1c0-1-1-2-1-2v-1-1c-1-1 0-1-1-1l-1-2h0l-1-3-3-6c0-1-1-2-2-3-1-2-2-2-2-4 0-1 1-1 1-2v-1c0-1 1-2 1-2v-1l1-1v-1h0v-12l1 1c2 1 4 3 6 5 0 1 1 2 2 3v1c1 1 3 2 4 3v1l1 1 1 1v1l1 1 2 3 3 6v1l1 1v2l1 1c0 2 1 3 1 4s1 1 1 2h0 1c1 2 2 6 3 9l3 16 2 19c0 3 0 7 1 10h2c1 0 2 0 3 2-1 0-1 0-1 1s1 1 2 2c1 0 2 2 2 3h1c1 3 1 5 0 8-1 2-3 4-5 6h-2-1c-1 1-2 1-2 3l-1 1c-1 3 0 8-1 12-1 10-3 21-5 30-1 2-1 3-1 5 0 1-1 1-1 2v2c-1 2-2 6-2 7s1 0 0 2c0 1 0 1-1 2v2c0 1 0 1-1 2v2c0 1 0 1-1 2v2c0 1 0 1-1 2v3 4c0 4 0 6 3 8h1 1 0v1l-1 1c-1 2-3 3-4 4h-1c-2 0-3 1-4 0h-2v2c-1 2-2 7-3 9h0c0 1 0 0-1 2h0v3l-1 1c0 1 0 3-1 5 0 0 0 2-1 3v2l-2 5v2l-2 4v3l1-1 2-6v-3l1-2c0-1 1-2 1-3 1-2 1-4 2-6l1-2v-3l1-5 1-1c0-1 0-2 1-3v-3l1-2h1c1 1 3 1 4 0l1 1c1-1 0-1 1-1 1-2 2-2 3-3v1c0 1-1 3-2 5 0 1-1 2-1 4h0c-1 1-1 2-1 3-1 1-1 3-2 4v1c0 2-1 4-2 6v1c-1 1-1 2-2 4l-2 8-2 5-3 8c0 1-1 2-1 3h0l-1 1v1c0 2-1 4-2 6h0v1h1l-1 1v-1l-1 1h1c0 1 0 2-1 2v3s-1 1-1 2l-1 4c-1 1-1 2-2 3 0 2-1 3-1 4 0 2-1 3-2 4v1 2c0 1-1 1-1 2 0 0 0 1-1 1v1 2l-3 9c-1 1 0 1-1 2v2l-1 1h0l-3 9v2h0v1l-1 1v2l-3 6v1 1 1c-1 0-1 0-1 1s-1 2-1 2v1 1h-1v1c0 1 0 2-1 2 0 2-1 3-1 4v1c-1 1-1 2-1 2l-2 6h0v1c-1 1 0 1-1 2v2c-1 0-1 1-1 2-1 0-1 0-1 1v1h0c-1 2-1 3-2 4 0 1 0 2-1 3 0 2-1 3-1 4-1 2-2 5-3 7l-1 4c-1 1-1 2-1 2l-57 157c0 1 1-1 0 1l-1 1v1c-1 1-1 3-2 4v3l-1 1-2 5v2c-1 1-1 1-1 2v1 1l-2 4h0c-1 2-2 3-2 5v1l-1 1v1c-1 1-1 1-1 2v1c-1 1-1 3-1 4l-1 1c0 1-1 2-1 3v1l-1 1v2 1h-1v2l-6 17c0 1-1 2-1 3l-1 4s-1 1-1 2h0v1c-1 3-3 5-5 7 1-2 1-5 3-7h-1c-1 1-2 2-2 4-1 0-1 1-1 1l-2 1 1 1c-1 0-1 1-2 1s-1-1-2-1h-1 0c0-1 0-2 1-3h2c0-2-1-3-2-4-3-6-5-13-8-20l-9-28-15-47-11-33-65-186-6-17-70-208-8-32c-2-1-3-1-3-3s-1-5-1-7c0-5 2-8 5-13h-1l-1 1c0-2-3-5-4-7-4-5-7-10-11-14-3-2-5-4-8-6-1-1-3-2-4-3l-1-1c0-1-1-1-1-2-1-1-2-2-2-3s-1-2-2-3h-1c1-1 1-1 1-2h0c2-2 3-3 4-5v-2c-1-2-3-3-4-4l-3 1-1-1 1-1h1v-1c2-1 6 0 9 0h25 38 9 37c5 0 12-1 17 0z"></path><path d="M671 387c0 4 0 6 3 8h1c-1 1-2 2-3 2h-2-1c0-2 1-3 1-4 0-2 0-4 1-6z" class="K"></path><path d="M675 395h1 0v1l-1 1c-1 2-3 3-4 4h-1l-2-1v-1l-1-1s1-1 1-2h0c1 0 1 0 1 1h1 2c1 0 2-1 3-2zM517 821l1-1s0-1 1-1h0 1l1 1v1 4h-1v2l1 1c-1 0-1 1-2 1s-1-1-2-1h-1 0c0-1 0-2 1-3h2c0-2-1-3-2-4z" class="Z"></path><path d="M489 572h2l1 1h3c1 0 2 0 3 1 0 1 0 2-1 3l-1 1c-2 1-3 1-5 1-2-2-2-3-2-5l-1-1 1-1zm-43-145l-1 2c0 1 0 1-1 2-1 2-4 3-6 3-1 0-2 0-3-1 0-3-1-4 1-7v2c1-1 0-2 1-4h1l6 1c1 1 1 2 2 2z" class="N"></path><path d="M696 288c-1 2-1 3-2 4-1 3-3 3-5 4-2 0-2 0-4-1-1-1-1-2-1-3-1-3 0-5 2-7 0-1 1-1 2-1 1 1 2 1 2 2-1 0-2 0-3 2l1 1c1-1 3 0 4 0h1l2-1h1zm-315-33v2h0c-1 2-3 5-5 6-1 0-2 0-3-1s-2-1-2-3c-1-3 0-4 2-7 2-1 3 0 5 0l3 3zm31 103h0 1c2 0 5 1 6 2s1 2 1 3c0 2-2 3-4 5-2 0-4 0-5-1-2-1-2-1-2-3 0-1 0-4 1-5l1 1 1-2z" class="L"></path><path d="M543 750c-2-1-3 1-5 1-1 0-2-1-2-2l-1-1v-1c-1-1-1-2-2-3h0v-2c1-1 0-3 0-5v-2-2h-1v1c-1-1-2-1-2-1l-1-1c-1 1 0 2-1 4l-1-1c1-1 0-1 1-2 0-1 1-2 1-3 4-1 6-5 11-4v1c1-1 2 0 3 0v1h-2l1 1h-1l-1 1c-3 1-4 3-5 5l-1 4c0 1 0 3 1 5 0 1 1 2 1 4 3 2 4 1 8 1 0 1 0 0-1 1z" class="K"></path><path d="M540 727c1-1 2 0 3 0v1h-2l1 1h-1l-1 1c-3 1-4 3-5 5v-2c0-3 3-5 5-6z" class="I"></path><path d="M477 687v4 1 7c1 2 1 4 3 5l2 1 1 1 1-1c1 1 3 5 4 6l2 2h1l-1 1h-1l-1-1-1-1c-1 0-1 1-1 2 0 2 1 3 1 5h0c-1-1-2-1-2-2l-1-1v-2c-1-1 0-1-1-2v-3l-2-2h-2l1 1v1 1 1h1v1 1 1h1v2 1c1 1 1 2 1 2 1 1 1 2 1 3s0-1 0 1l1 3-11-33c0-1 1-2 2-3 0-1 0-2 1-3z" class="K"></path><path d="M526 748h1c2 0 3 1 4 2v6c-2 3-4 4-6 5-2 0-3 0-4-1-2-2-2-5-2-8 2-2 4-3 7-4z" class="N"></path><path d="M541 725c2-2 5-5 6-7v-1c0 1 1 2 0 3s-4 3-4 4c2 0 2 0 4 1h0c2 0 3 1 4 3h0-1-1 0l-1 1c0 1 1 1 2 2 2 1 2-1 3 1 0 1 0 2 1 3v3h0c-1 2-1 6-3 8h0l-1 1-4 5s-1 0-1 1c-1 0-2-1-2 0l-3 6h0c-1 1-1 2-2 2h0 0c1-2 2-3 2-5 0-1 1-1 1-2h0v-1l2-2v-1c1-1 1 0 1-1-4 0-5 1-8-1 0-2-1-3-1-4-1-2-1-4-1-5l1-4c1-2 2-4 5-5l1-1h1l-1-1h2v-1c-1 0-2-1-3 0v-1l1-1z" class="I"></path><path d="M540 726l1-1c2 0 3 0 5 1h1s1 0 1 1v1h0c-1 0-2 1-3 1h-3l-1-1h2v-1c-1 0-2-1-3 0v-1z" class="Q"></path><path d="M542 729h3c2 1 4 2 5 4v1 1c1 2 0 5-1 7-1 1-3 3-5 3h-4l-3-3-3-3 1-4c1-2 2-4 5-5l1-1h1z" class="D"></path><path d="M537 742c0-3-1-5 0-7l2-2 1 1v1c2 1 4 0 6 1l2 1c1 1 1 1 1 2-1 2-2 3-4 4h0c-2 1-3 1-5 2l-3-3z" class="N"></path><path d="M424 174c11-4 24-6 36-8 7-1 16-4 24-4-5 4-12 5-18 8-12 6-24 12-36 19-1 1-3 2-4 3-3 2-6 4-7 6-1 1-3 2-3 3h1c2 1 3 2 5 3l-1 1c-2-2-4-3-6-3l-8 10v-2l1-1 1-2 1-1c1-2-1 0 1-1 1-1 1-2 2-2l1-1c1-2 2-3 3-4h0c2-2 4-3 5-5h1l2-2s1-1 2-1v-1c2 0 3-1 3-3 1-1 0-1 1-1 0-1 1-2 1-3l-1-1 2-1v-1c2-2 4-5 6-5 2-1 0 0 1-1s2-1 3-1c0 0 1-1 2-1h1 1v-1h3 3c1-1 3-1 4-2 1 0 1 0 2-1h1-1l-12 3h-1-2-2c-1 1-1 1-2 1h-2c-1 0-1 1-2 1s-3 0-4 1h-1-2l-2 1-2 1h0-1l-1 1h-1-1c0 1-1 1-1 1l-1 1c-2 1-5 2-7 3l-2 2h-1 0l-1 1h0-1l-1 1h-1 0l19-11z" class="U"></path><path d="M557 681c2 0 5 1 7 2 2 2 4 6 4 10 0 3-1 4-2 7s-1 6-3 8l-1 1-1 1h-3c-1-1-2-2-2-3-1-1-2-1-2-2h-1l-2-2h-2l-1 1c0 1 0 1 1 2-1 1-1 1-1 2v3c0-3-1-6-1-8 1-5 0-10 2-15 2-4 4-5 8-7z" class="Q"></path><path d="M556 686h1c-1 2-2 2-3 3l1 1c2 1 5 2 7 1h0 3 1v1c0 2-2 3-3 5-1 1-2 2-3 2h-1l-2 1c-2 0-3 0-4-1s-1-2-1-3v-1c0-2-1-3 0-5s2-3 4-4z" class="N"></path><path d="M477 687l2-1c1-2 3-3 5-3s3 0 5 2c1 1 1 1 2 3l1-1c0 1 1 2 1 3s-1 4 0 5c0-2 0-2 1-3 2 0 3 0 5 1 1 2 2 3 2 5v5c-2 1-3 2-4 3 0 3-1 5 0 7h0-1v-2h-1-1c0 1-1 1-1 2h-2-1l-2-2c-1-1-3-5-4-6l-1 1-1-1-2-1c-2-1-2-3-3-5v-7-1-4z" class="I"></path><path d="M477 699c3 2 4 3 7 3h2c2 1 2 2 2 4s2 3 3 5c2-2 4-2 6-5 0 3-1 5 0 7h0-1v-2h-1-1c0 1-1 1-1 2h-2-1l-2-2c-1-1-3-5-4-6l-1 1-1-1-2-1c-2-1-2-3-3-5z" class="Q"></path><path d="M477 691c1 1 1 2 2 3 1 2 2 3 5 4 2-1 3-1 5-3l3-2c0 1 0 3 1 4 1 0 1 0 2-1 1 1 2 1 3 2s1 2 1 4c0 1-1 1-2 2l-3 3h-2c-2-3-2-4-2-6-1-4-4-2-6-2-1 0-3-1-4-1-2-1-3-5-3-6v-1z" class="P"></path><path d="M477 687l2-1c1-2 3-3 5-3s3 0 5 2c1 1 1 1 2 3l1 5-3 2c-2 2-3 2-5 3-3-1-4-2-5-4-1-1-1-2-2-3v-4z" class="W"></path><path d="M479 694c0-3 0-4 1-7h1l1 1-1 2h1 0c1 0 1 0 2-1h1 2l2 3v3c-2 2-3 2-5 3-3-1-4-2-5-4z" class="N"></path><defs><linearGradient id="U" x1="335.751" y1="243.76" x2="325.164" y2="275.921" xlink:href="#B"><stop offset="0" stop-color="#a99e99"></stop><stop offset="1" stop-color="#c8c4c4"></stop></linearGradient></defs><path fill="url(#U)" d="M330 227c3-1 5-1 7 1 1 1 3 3 4 5 0 2-1 5-1 7-1 4-1 9-3 13v2c0 1-1 3-1 3 0 2 1 5 1 7 1 2 2 4 2 5s-2 2-2 3l-1 2v1c-1 1-1 3-1 5l-2 1-8-32c-2-1-3-1-3-3s-1-5-1-7c0-5 2-8 5-13h4z"></path><path d="M336 275c0-1 1-3 1-5-1-1-1-2-2-3-1-4-2-7-2-11 0-1 1-1 1-2l2-1h1v2c0 1-1 3-1 3 0 2 1 5 1 7 1 2 2 4 2 5s-2 2-2 3l-1 2z" class="K"></path><path d="M330 227c3-1 5-1 7 1 1 1 3 3 4 5 0 2-1 5-1 7h-1c0 1-1 1-1 2-1 2-2 3-4 3-2 2-4 2-6 1-2 0-3-2-5-3l2 7c-2-1-3-1-3-3s-1-5-1-7c0-5 2-8 5-13h4z" class="V"></path><path d="M330 227c3-1 5-1 7 1 1 1 3 3 4 5 0 2-1 5-1 7h-1c0 1-1 1-1 2-1 2-2 3-4 3l2-2c1-1 2-3 2-4v-2c0-2 0-4-1-6l-1 1-1 1h-3c-1-1-2 0-3-1l1-1c1-1 2-1 3-2-1-1-2 0-3 0l1-1-1-1z" class="U"></path><path d="M338 239c-2 1-4 3-7 3s-4-1-6-3v-4c0-2 1-3 3-5v1 2c2 2 6 2 9 2 0-2 0-1-1-3l1-1c1 2 1 4 1 6v2z" class="N"></path><path d="M287 176l1-1h1v-1c2-1 6 0 9 0h25 38 9 37c5 0 12-1 17 0l-19 11-3 1c0 1-1 1-1 2-3 2-6 5-8 6l1 13v-1c-2-2-4-3-6-4 1 2 4 5 6 7-2 1-4 2-5 3h-1c-1 0-2 1-3 0h-1c-1 0-1 0-2-1l-1-1-3-2c-7-5-11-12-16-18h-37c-5 0-14-1-19 1-1 0-1 1-2 2v1c-1 0-2 0-3 1-1 0-4 1-5 0v-3l-1-2c0 1-1 1-1 1l-1 1c0-1-1-2-2-3h-1c1-1 1-1 1-2h0c2-2 3-3 4-5v-2c-1-2-3-3-4-4l-3 1-1-1z" class="Y"></path><defs><linearGradient id="V" x1="389.622" y1="189.794" x2="383.492" y2="192.891" xlink:href="#B"><stop offset="0" stop-color="#978a86"></stop><stop offset="1" stop-color="#b3aeac"></stop></linearGradient></defs><path fill="url(#V)" d="M388 202c-1-1-3-2-4-3l-6-6c-1-1-3-2-3-3s0-1-1-2-1-2-1-3l1-1c-1-1-1-2-1-3h0c0-1-1-2-1-3v-1-1l21 18 1 13v-1c-2-2-4-3-6-4z"></path><path d="M409 507v-2c1 1 1 0 2 1l1 1c1 0 2 0 3-1l4-2c1-1 1-1 1-3l1 1c1-3 1-4 2-6v-1l1 1c-2 3-2 4-1 8l47 128 2 7 7 18c0 1 1 2 1 4l2 6c1 1 1 2 1 4l2 3v2c1 2 1 4 3 5h0c1 1 4 3 4 4s-1 1 0 2l-1 1c-1-2-1-2-2-3-2-2-3-2-5-2s-4 1-5 3l-2 1c-1 1-1 2-1 3-1 1-2 2-2 3l-65-186z" class="a"></path><path d="M337 255l2 4 4 7c1 1 2 2 2 3 2 0 3 1 3 3h1v2l1 1c0 1-1 2-1 3v1 1 5c8 30 18 58 29 88l35 97c0 1 1 2 1 3 1 2 2 3 3 4l1 1h1c1 1 2 1 3 2 2 1 2 2 3 4h0c1 1 1 1 1 2v1 3h0l-1 1v3l-1 1v1l-1-1v1c-1 2-1 3-2 6l-1-1c0 2 0 2-1 3l-4 2c-1 1-2 1-3 1l-1-1c-1-1-1 0-2-1v2l-6-17-70-208 2-1c0-2 0-4 1-5v-1l1-2c0-1 2-2 2-3s-1-3-2-5c0-2-1-5-1-7 0 0 1-2 1-3z" class="Y"></path><path d="M414 473c1 2 2 3 3 4 0 2-1 2-3 2 0 1-1 0-2-1h0l-1-1 2-1v-1-1s0-1 1-1z" class="K"></path><path d="M337 255l2 4 4 7c1 1 2 2 2 3 1 1 1 3 2 4 1 2 1 4 0 6 0 1-1 2-2 2-1 1-2 3-3 4s-1 1-2 0c-2 0-3 0-4-1s-1-2-1-3c0-2 0-4 1-5v-1l1-2c0-1 2-2 2-3s-1-3-2-5c0-2-1-5-1-7 0 0 1-2 1-3z" class="V"></path><path d="M339 259l4 7v2 1c-2-1-3-2-4-4s-1-4 0-6z" class="R"></path><path d="M337 273c2 0 3-1 5-1l4 3c0 2 0 3-2 5-1 1-2 1-3 1-1 1-3 0-4-1s-1-3-1-4v-1l1-2z" class="L"></path><path d="M415 480c1 0 2 0 3 1h0c3 0 4 3 5 4 2 4 1 6 0 10v1c-1 2-1 3-2 6l-1-1c0 2 0 2-1 3l-4 2c-1 1-2 1-3 1l-1-1c-1-1-1 0-2-1v2l-6-17c1-1 2-1 3-1 0-2 1-3 2-5 2-2 3-3 7-4z" class="K"></path><path d="M415 480c-3 2-5 3-7 6h1c1 0 2-1 3-2v1 3c2 1 4 1 7 1h0l2-1-1-1h1c1 1 1 2 1 3-1 3-2 5-4 6s-4 2-6 1c-1 0-3-2-4-3-1 0-1-1-2-2v-3c0-2 1-3 2-5 2-2 3-3 7-4z" class="L"></path><path d="M409 488c1 0 2 2 3 2h0c2 1 3 1 4 1s2 0 3 1h-1l-2 2h-3c-1-1-1-1-2-1l-1 1h-1l-1-2v-1c0-1 1-2 1-3z" class="H"></path><path d="M378 252c-1-1-2-3-3-4h-1l-3-3c1-1 3-3 4-3 1-1 0 0 2-1h2v-1h3 7v1h1c1 1 2 1 2 3h1v2c1 0 1 1 1 2l1 1v3l1 1v3c1 1 1 2 1 4h1 0c0 3 1 5 2 7v1l1 1h0c1 1 1 2 1 3h0l1 1v1l1 1 1 2 2 4v2l1 1c1 1 1 3 2 5v1h1v1s0 1 1 1c1 1 2 3 2 5l2 2 5 11 2 4 4 6c1 2 2 5 2 7l1 1v2l1 1v2l1 2v2 1c0 2 0 4 1 5 0 1-1 3 0 5 0 1 0 2 1 4v2 2c1 1 1 0 1 1v1c1 1 1 2 1 4 0 0 1 1 1 2l1 3v2l2 4c0 1 0 2 1 3l2 5c1 1 2 2 2 4l1 1v2c1 1 2 2 2 4 0 1 1 1 1 3l1 2 1 1v1 1l1 1v1c1 1 1 2 2 3v2l1 1v2c1 1 2 2 2 4 0 1 1 1 1 3l1 2h0c1 1 1 2 2 4 0 0 0 1 1 2v2c1 0 1 1 1 2s0 0 1 2v1c0 1 0 1 1 2v2 1l3 6 2 6v2l1 2v2l3 9s1 1 1 2l5 15 1 5c0 1 0 1 1 2v2 1l1 1v2l1 1v2c0 1 0 1 1 2v2l1 1v1c0 1 1 1 1 2s0 1 1 3v2c1 1 1 2 1 3v1h0c1 1 1 1 1 2l1 2v1c1 1 1 1 1 2v1 1h1v2 1l1 1v1c0 1 0 2 1 4v1h0c1 1 1 1 1 2s1 2 1 3c1 2 2 5 2 7l1 1-1 1 1 1v2c0 1 1 2 2 3h-1l1 1h0c0 1 1 2 1 3 1 0 1 1 1 2h1v1 1c1 0 1 1 1 2l1 1v1l1 1v1 1c0 1 0 1 1 2v2c0 1 0 2 1 3h-1l1 1c0 1 0 1-1 2l1 2c0 1 1 1 1 2 0 2 2 4 2 7l3 6 1 5c1 1 1 2 2 4 0 1 1 2 1 4l2 5c0 1 1 2 1 3l1 2h0l2 5 1 1v2l1 1c0 2 2 6 3 8 0 1 0 1 1 2 0 1 0 2 1 3 0 1 1 1 1 3l1 1v1c1 1 0 1 1 1 0 1 0 2 1 3l-1 1c-1-2-2-4-2-5-1-1-1-2-1-2v-1l-1-1v-1c-1-1-1-1-1-2-1-1-1-1-1-2l-1-1v-1-1c-1-1-1-1-1-2 0-2 0 0-1-1-1-4-2-8-4-11 0-1 0-1-1-2v-1-1c-1-3 0 0-1-2-1-1-1-2-1-2-1-1-1-3-1-4h0c-1-3-2-6-3-8v-1c-1-1-1-2-1-2 0-1 0-1-1-1l-1-4-1-3c-1-2 0 1-1-1l-2-6v-2l-1-1-1-3h0l-1-2-1-3h-2-1v1h-1 0-4c-2-1-3-2-5-3h-2c-1-1-2-3-3-4l1-4v-2h0c0-2 0-4 1-4 0-2 0-4-1-5v-2-2l-8-23-31-81c-2-4-2-9-3-14-1 0-1-1-2-2l-2-2h-1-2c0-1 0-3-1-3l-3-11c-4-13-9-27-15-40l1-2c0-1 1-2 1-3-1-1-1-3-1-4l-3-3h-1c-1-1-3 0-5-1 1-2 3-2 3-4h-2l-3-12-8-23-13-33c-3-8-6-15-8-23 1 0 1-1 1-2h0v-1c0-1 0-2-1-3l-3-3z" class="Y"></path></svg>