<svg xmlns="http://www.w3.org/2000/svg" xmlns:xlink="http://www.w3.org/1999/xlink" xmlns:v="https://vecta.io/nano" viewBox="174 129 679 760"><!--oldViewBox="0 0 1024 1024"--><style>.B{fill:#131515}.C{fill:#d5cec4}.D{fill:#c9bfaf}.E{fill:#2d2e2f}.F{fill:#c1baac}.G{fill:#e0dcd7}.H{fill:#39393a}.I{fill:#e9e7e5}.J{fill:#19191a}.K{fill:#2d312f}.L{fill:#eeebe3}</style><path d="M654 626h1c2 0 3 1 4 2 0 1 1 2 0 4 0 1-1 2-3 2h-1c-1 0-3-1-4-2v-4c1-1 1-1 3-2zm-66 153s1-1 2-1c1 1 2 1 3 2 1 2 1 3 1 4-1 2-2 2-3 3h-1c-1 0-3 0-4-1s-1-3-1-4c1-2 1-2 3-3zm-164 0h2c1 0 2 0 3 1 1 2 1 3 0 5-1 1-1 1-3 2h-1c-1 0-2 0-3-1s-1-3-1-4c1-2 1-2 3-3zm-65-153h2c1 0 2 0 3 1 1 2 1 3 1 4-1 2-2 2-3 3h-2c-1 0-2 0-3-1s-1-3-1-4c1-2 2-2 3-3zm352-134h3c1 0 2 1 3 2s1 3 0 5c-1 1-1 1-3 2h-1c-2 0-3-1-4-2s-1-3-1-4c1-2 2-2 3-3zm-410 0h4c0 1 1 1 2 2 0 1 1 3 0 4 0 2-1 2-3 3h-1c-2 0-3 0-4-1s-1-3-1-4c0-2 2-3 3-4zm449-95l2-1c1 0 3 1 3 2 2 1 2 3 2 5l-3 3h-1c-2 0-4 0-5-1-1-2-1-3-1-5 1-2 1-2 3-3zM621 705h3c1 1 2 2 2 3 1 1 1 3 0 4s-2 2-3 2c-1 1-1 1-2 1-2-1-3-2-4-3v-5c1-1 2-2 4-2zm17-41h3c1 0 2 1 2 2 1 1 1 3 1 4-1 2-2 2-4 3 0 0-1 1-2 0-1 0-2-1-3-2s-1-3-1-4c1-2 2-3 4-3zm57-127h3c2 0 2 1 3 2 1 2 1 3 0 5-1 1-2 2-3 2h-2c-2 0-3-1-4-2 0-1-1-3 0-4 1-2 2-3 3-3z" class="I"></path><path d="M376 664h2c2 0 3 1 4 2v5c-1 1-2 2-4 2-1 0-1 1-2 0-1 0-3-1-3-2-1-2-1-3 0-5 0-1 2-2 3-2z" class="L"></path><path d="M264 397l2-1c2 0 2 1 4 2 0 2 1 3 1 5l-3 3h-2c-2 0-3 0-4-2-1-1-1-2-1-4 1-2 1-2 3-3zm467 48h3l3 3c1 1 1 3 0 4-1 2-2 2-3 3h-2c-1 0-3-1-4-2-1-2-1-4 0-5 0-2 2-2 3-3zm-412 92h3c1 0 2 0 3 1s1 3 1 4c0 2-1 3-2 4h-3c-1 0-3 0-4-2-1-1-1-3-1-4 1-2 2-2 3-3zm242 283h3c1 0 2 1 3 2s1 2 1 4c0 1-1 2-2 3-1 0-2 1-3 1s-3-1-4-2-1-3-1-4c1-2 2-3 3-4zM284 445h2c1 0 3 1 3 2 1 2 1 3 1 5-1 2-2 2-4 3h-2c-2 0-3-2-4-3v-4c1-2 2-2 4-3zm320 294h3c1 0 2 0 3 1 1 2 1 3 1 5s-1 2-3 3c-1 0-1 1-2 1-2 0-3-1-4-2s-1-3-1-4c0-2 2-3 3-4zm69-158h3c1 0 3 1 4 3v4l-3 3h-2c-2 0-3-1-4-2-1-2-1-3-1-4 1-2 2-3 3-4zm-333 0h3c1 0 2 1 3 3 0 1 1 2 0 3 0 2-1 3-3 4h-2c-2 0-3-1-4-2-1-2-1-3 0-5 1-1 1-2 3-3z" class="I"></path><path d="M407 739h2c1 0 3 0 4 1 1 2 2 3 1 5 0 1-1 2-2 3s-2 1-2 1c-2 0-3-1-4-2s-2-3-1-4c0-2 1-3 2-4z" class="L"></path><path d="M393 705s1-1 2 0c2 0 3 1 4 2v4c0 1-1 2-3 3-1 0-1 1-2 0-2 0-3 0-4-1-1-2-1-3-1-5 1-2 2-2 4-3zm53 115h2c2 0 3 0 4 1 2 2 2 3 2 5-1 2-1 2-3 3 0 1-1 1-2 1s-3-1-4-2-1-2-1-4 1-3 2-4z" class="I"></path><path d="M579 503l18-44 27-72c9-25 18-52 21-80 3-22 2-46-8-67-10-23-27-41-51-50l-10-3h277c-25 7-43 21-56 44-8 12-13 26-19 40l-34 75-158 350-47 104-25 57c-1 3-3 6-5 7-2 0-4-1-5-3-2-3-4-8-6-11l-9-22-36-80-166-372-44-100-14-31c-5-11-9-21-16-30-8-10-19-19-32-24-5-2-10-3-15-4h291c-23 6-42 21-53 42-14 25-17 54-9 81 3 11 8 22 12 33l23 55 70 164 20 47 6 13c1 2 1 5 3 6 0-2 2-5 2-7l48-118z" class="L"></path><path d="M666 388h3c-2 2-3 5-5 7h0v-1l1-1h-2l3-5z" class="B"></path><path d="M619 445c1-3 3-7 5-11v1c1 1 0 1 0 2h0l-1 1c0 1 0 1-1 2h1l1 1v-1c0-1 1-1 1-2l2-1c-1 1-2 2-2 3l-1 2-2 3c-1 1-2 1-3 0z" class="I"></path><path d="M566 609l8-7v1c-1 1-1 2-1 4h0 1l-6 6c0-2-1-3-2-4z" class="E"></path><path d="M441 622c1-1 2-1 3-1l9 10h0c0 1 0 1-1 1v1h-1c-2-4-7-8-10-11z" class="K"></path><path d="M616 536v1c0 1-2 2-2 2-2 2-4 3-5 5l-1 2-2 1v1c1 0 1 0 2-1l8-8c1 0 2-1 3-1l-18 17c0-1-1-2-1-2l16-17z" class="F"></path><path d="M655 342v4h0c-1 2-1 6-3 8v2h-1l1 2h1l-1-1v-1c1 0 1-1 1-2h1c0-1 0-1 1-1l1-1v1c0 1 0 2-1 3l-1 1v1c-1 2-1 4-2 6l-1 2-2 3c0 1 0 2-1 3-2 0-2 4-4 5v-2-1c1-1 1-2 2-3l4-13v-1c0-1 1-2 1-3l4-12z" class="G"></path><path d="M478 713c-5-5-9-11-14-16-5-6-12-13-17-19 1 0 5 4 6 5l14 14c4 4 10 9 13 14v1l2 3h-1c-1-1-1-2-3-2zm-37-91c-3-3-33-34-33-35 3 2 5 5 8 7l15 14 13 13c-1 0-2 0-3 1zm106 31c3-4 7-7 11-11l11-11 6-6h2l-1 1v2l-13 11c0 1 0 1-1 2 0 1-4 5-6 5v1c-1 0-1 0-1 1-1 1-2 3-3 4h-1c-2 1-4 3-6 5l-1-1c1-1 2-1 3-2v-1z" class="H"></path><path d="M593 584l48-41h0l-24 24c-7 4-13 11-18 16l-1 1h-5z" class="E"></path><path d="M557 665c1 0 1 0 2-1 4-4 8-9 13-13 6-7 15-12 22-18 2-1 4-3 6-4-1 1-2 2-4 3l-7 7-24 21-9 8c-1 1-2 4-4 4h0c1-1 1-2 1-3s1-1 1-2h0c1-2 2-2 3-2z" class="H"></path><path d="M593 584h5l-22 22-2 1h-1 0c0-2 0-3 1-4v-1l6-6 13-12z" class="B"></path><path d="M689 396l20-25c4-6 9-12 13-16-3 6-8 13-13 19-5 7-10 15-15 22h0l-1-1c1 0 0 0 1-1v-1l-1-1c-1 1-2 2-2 4h-1-1z" class="J"></path><path d="M575 625c5-5 11-9 16-14l30-23h0l-45 40v-2l1-1h-2z" class="E"></path><path d="M422 459l37 69c-5-3-8-11-11-16-2-5-5-9-7-14l-20-37c1 1 1 2 3 3 0-1 0 0-1-1 0-1-1-2-1-3v-1z" class="B"></path><path d="M700 362c3-7 9-13 13-19l27-37h1l-18 28c-6 8-11 17-17 25-2 1-3 1-4 3 0 0-1 0-2 1v-1z" class="J"></path><path d="M548 699l23-21c-1 2-2 3-3 4l-8 7-14 14-9 9-11 11h-2v2l-2 1v-1c-1 1-1 1-3 1 6-7 12-14 18-19 4-3 7-6 11-8z" class="B"></path><path d="M640 361h0c1 1 1 2 1 3l1 1h0c1 1 0 1 1 2l-9 27c-2 4-3 7-4 10h-1-1v-1c-1 0-1 0-1 1l-1 2h-1c0-1 1-3 1-4s1-3 2-4c0-2 1-4 2-6 0-2 1-3 1-4l2-3c0-2 0-3 1-4l2-7c0-1 1-2 1-2v-2l2-4 1-5z" class="I"></path><path d="M625 406h1l1-2c0-1 0-1 1-1v1h1 1l-15 35c-2 5-4 10-7 14-1 1-2 1-3 2 0-1 0-1 1-2v-1l1-3 1-3 3-6h0l1-2c1-2 1-4 2-6l1-1 1-3 1-2 6-15c0-2 1-3 2-5z" class="C"></path><path d="M453 666l-12-11h1l16 14c2 2 5 3 7 5 7 5 12 12 19 17-1 1-1 1-1 3 1 0 1 1 2 2l-6-5c-2 0-3-2-5-4l-1-1-1 1h0c3 2 5 5 6 8-8-7-15-19-24-25-2 0-3-2-3-3v-1l1 1h1v-1z" class="K"></path><path d="M453 666l19 17c2 3 5 5 7 8-2 0-3-2-5-4l-1-1-1 1h0c3 2 5 5 6 8-8-7-15-19-24-25-2 0-3-2-3-3v-1l1 1h1v-1z" class="D"></path><path d="M640 361v-1l1-1v-2-1c0-1 1-2 1-2 0-1 0-3 1-4v-2c1-1 1-1 1-2v-2c1-1 1-1 1-2v-2c1-1 1-1 1-2v-3c1-1 1-1 1-2v-3c1-1 1-2 1-3v-3c1-1 1-2 1-3v-2c1-2 1-3 1-4 1-1 0-2 0-3 1-2 0-5 2-7 1 1 0 2 0 4h1c0 1 0 1-1 2v3 2c0 2-1 2-1 4v1c0 1 0 2-1 3v2c-1 1 0 2 0 4-1 1-1 2-1 4v1h-1c0 2 0 2 1 3v-1h1v1c0-2 1-3 1-4v-1c1-1 0-1 0-2h1v-2c1-1 0-2 0-2l1-1c0-1 0-4 1-4v-1c0-1 0-2 1-3h0v-1c0-1 0-2 1-3 0-2 0-2 1-3l-14 56c-1-1 0-1-1-2h0l-1-1c0-1 0-2-1-3h0z" class="G"></path><path d="M646 362h2c0-3 1-4 1-6l4-11c0-2 1-3 1-4l1-2h0c1 1 1 2 0 3l-4 12c0 1-1 2-1 3v1l-4 13c-1 1-1 2-2 3v1 2c2-1 2-5 4-5 0 1 0 2-1 3l-3 8-1 2c0 1 0 0-1 1l-2 5-1 2v1l-1 2c0 1 0 0-1 2v1l-1 1v1l-3 6c0 1 0 1-1 2v1 1c-1 1-1 2-1 3v1l-1 1 1 1-14 24v-2l12-27c2-4 4-9 5-14 5-12 10-24 12-36z" class="D"></path><path d="M666 388l78-124 1 1-76 123h-3z" class="J"></path><path d="M657 311l12-52c0 7-2 14-3 20l-15 61c-2 7-4 14-5 22-2 12-7 24-12 36-1 5-3 10-5 14l-12 27c-3 5-6 11-10 16-2 3-10 22-12 22 0-1 1-3 2-4l5-11c1-2 3-5 3-7 1-1 2-1 3-2 3-4 5-9 7-14l15-35c1-3 2-6 4-10l9-27 14-56z" class="B"></path><path d="M619 538l45-44v1l-62 66-4 4c0-2 0-2 2-4h-1v-1c-4 4-8 9-12 12v-3l14-14 18-17z" class="H"></path><path d="M411 562l-30-35h0l41 43 28 29-1 1 1 1-1 1-1-1-1 1-22-24v1l-3-3v1c1 1 1 1 1 2l-1 1c-1-1-3-2-5-3h0c-1-1-4-3-4-4h1v-1c-1-2-1-3-2-5s-1-3-1-5z" class="B"></path><path d="M415 566l10 12v1l-3-3v1c-2-1-4-4-6-5-1-2-1-3-1-6z" class="C"></path><path d="M411 562l4 4c0 3 0 4 1 6 2 1 4 4 6 5 1 1 1 1 1 2l-1 1c-1-1-3-2-5-3h0c-1-1-4-3-4-4h1v-1c-1-2-1-3-2-5s-1-3-1-5z" class="G"></path><path d="M429 489h0l-1-2c-1-2-2-5-3-7l-5-9-8-17-36-75-43-97-11-24c-1-2-3-7-3-9l73 160h0c2 6 6 12 8 18l31 59v1 2h0l-1-1-1 1z" class="H"></path><path d="M392 409h1l2 5c1 0 1 1 1 2 1 0 1 1 1 2 1 1 1 1 1 2v1c1 1 2 2 2 4 1 1 2 3 2 4 1 2 2 3 2 4l2 4h0l3 6c1 1 0 0 1 2 0 1 1 2 2 3h1l-3-6c0-1-1-2-1-4l-1-1-1-1v-2c-1-1 0-1-1-1v-1l-1-2-1-2-1-1v-1l-1-2v-1c-1-1-1-2-2-3v-1-1l-1-1-1-2v-2-1c7 14 11 29 19 42l4 7h0l20 37c2 5 5 9 7 14 3 5 6 13 11 16 1 0 1 1 2 2h-1c0 2 0 3-1 5v1l-1-1h-1l-26-49-31-59c-2-6-6-12-8-18z" class="I"></path><path d="M458 535v-2c-1-1-2-3-2-4l-1-1c0-1 0-1-1-2l-2-3-2-5c0-1-1-2-1-3-1-1-1-2-1-3 3 5 6 13 11 16 1 0 1 1 2 2h-1c0 2 0 3-1 5v1l-1-1z" class="G"></path><path d="M594 601v-1l31-26v1l-74 72h0l1-2c1-2 0-2-1-4l2-2v-1c2 0 2-2 3-2 2-2 3-4 5-4 0-1 1-1 1-2h1c0-1 1-1 1-2h-2c2-3 4-4 7-6 2-2 5-4 7-6l-1-3 15-15v1c0 2-1 2-2 3l-1 1h2 0c1-1 2-2 3-2h2z" class="J"></path><path d="M575 613l15-15v1c0 2-1 2-2 3l-1 1h2 0c1-1 2-2 3-2h2l-18 15-1-3z" class="C"></path><defs><linearGradient id="A" x1="636.968" y1="428.216" x2="642.634" y2="432.485" xlink:href="#B"><stop offset="0" stop-color="#232222"></stop><stop offset="1" stop-color="#4e4c4a"></stop></linearGradient><linearGradient id="B" gradientUnits="userSpaceOnUse"></linearGradient></defs><path fill="url(#A)" d="M626 449c2-2 3-4 4-6l9-14 24-36h2l-1 1v1h0l-30 48c-3 4-7 9-9 14-4 4-6 9-9 13l-16 27c-3 6-7 14-11 19h-1-1l2-3c1-1 1-2 1-2l2-4c1-1 1-2 2-3h0v-1c0-2 0-3 2-5h0l-1-2c4-5 7-10 9-15 1 0 0 0 1 1 1-3 4-6 6-9l15-24z"></path><path d="M561 703h0c0 2-3 4-4 5-4 5-8 10-13 14-6 6-13 11-18 19s-7 22-14 27c-1 1-2 2-4 1-2 0-4-2-5-3-5-6-10-14-14-21l-23-36c-1-1-2-3-3-4v-1l40 55c2 2 3 3 5 4 3 0 5-3 7-5 3-6 5-13 9-19 6-9 14-14 22-21l15-15zM398 412c-2-6-5-11-7-17l-42-104-9-24c-1-4-4-10-4-14l61 153c-1-6-4-13-6-20l-9-28-17-55-10-33c-2-6-4-12-5-18h1l6 22 16 51 25 80c4 12 10 23 15 35 1 4 4 8 5 12 1 1 4 5 4 7v1c0 1 1 2 1 3 1 1 1 0 1 1-2-1-2-2-3-3h0l-4-7c-8-13-12-28-19-42z" class="B"></path><path d="M417 454c0-3-3-5-2-7l3 5h0c1 1 4 5 4 7v1c0 1 1 2 1 3 1 1 1 0 1 1-2-1-2-2-3-3h0l-4-7z" class="J"></path><path d="M478 736c7 12 13 24 21 35 2 3 4 7 6 9 2 1 4 2 5 1 8-2 14-30 18-38l6-6c5-6 12-9 18-14 2-2 7-9 9-9-4 4-7 9-12 14-3 2-6 4-9 7-10 9-12 18-16 31-2 6-5 19-12 22-2 1-3 1-5 0-5-2-8-9-11-12-7-13-14-27-20-41l2 1z" class="B"></path><path d="M438 515h0L302 253v-1l80 153 13 24 14 27c7 13 16 25 22 39 2 3 3 7 4 10l3 6h0c0 1 1 2 1 4h-1zm193-98l78-158h0l-85 175c-2 4-4 8-5 11-3 5-6 11-8 16h-1v1c0 1 0 1-1 2-4 3-6 10-9 14l-11 20-6 10c-1 2-2 4-4 5 2-4 4-8 6-11l11-20-1-1-2 2-1-1 1-1c1-1 1-2 2-4 2 0 10-19 12-22 4-5 7-11 10-16v2l14-24z" class="H"></path><path d="M595 477c2 0 10-19 12-22 4-5 7-11 10-16v2c-6 14-12 28-21 41l-1-1-2 2-1-1 1-1c1-1 1-2 2-4z" class="C"></path><defs><linearGradient id="C" x1="635.457" y1="438.656" x2="657.37" y2="500.262" xlink:href="#B"><stop offset="0" stop-color="#030100"></stop><stop offset="1" stop-color="#343536"></stop></linearGradient></defs><path fill="url(#C)" d="M627 489l1-1 71-82v1l-81 101c-2 0-4 2-4 3l-1 1v1c-1 0-1 1-2 2-1 0-1 1-2 2v1h-1-3l-1 1v-1h0v-2c1-2 4-5 5-6 6-7 13-14 18-21z"></path><path d="M542 712c2-1 4-3 6-5l15-15h0l-18 22a170.44 170.44 0 0 0-19 19c-4 4-7 8-10 13-1 3-3 6-6 8-7-7-12-15-18-24l-14-17c2 0 2 1 3 2h1l-2-3v-1h1v-1l1 1c3 3 5 7 8 10 2 3 16 19 19 20 5-4 9-9 13-13 1-1 3-4 4-5l11-11v1l-3 3-5 6-1 1-1 1-2 2 1 1c1-1 1-2 2-3 2-2 5-5 7-6l4-5c1 0 2-1 3-1z" class="B"></path><path d="M481 710l1 1c3 3 5 7 8 10 2 3 16 19 19 20 5-4 9-9 13-13 1-1 3-4 4-5l11-11v1l-3 3-5 6-1 1-1 1-2 2 1 1c1-1 1-2 2-3 2-2 5-5 7-6l4-5c1 0 2-1 3-1l-7 7-11 11c-5 6-9 13-15 18-6-5-10-13-14-19l-14-18v-1z" class="G"></path><defs><linearGradient id="D" x1="380.292" y1="442.277" x2="383.09" y2="440.477" xlink:href="#B"><stop offset="0" stop-color="#0a0c0c"></stop><stop offset="1" stop-color="#4e4c4b"></stop></linearGradient></defs><path fill="url(#D)" d="M406 480c-1-3-3-5-5-8l-8-11-21-33-81-123v-1l109 161 17 27c4 7 10 14 14 22v2h0c-1 1-1 1-1 2l-9-15-9-14c-2-3-4-7-6-9z"></path><path d="M462 669c-2-2-5-5-8-7l-16-17c-2-2-8-7-8-9l13 12h1 2 0l2 1v-1l9 9c2 2 4 5 6 7 2 4 8 7 12 11 7 5 13 12 20 17 4 4 9 9 14 12l2-2c1 0 1-1 2-2 6-3 13-8 17-13 0 2-1 3-2 4-5 5-12 8-17 13l1 1-2 1 1 1h0c1-1 2-1 3-1l2-1 3-1 1 1v1l-10 10c-4-3-7-6-10-9l-16-16c-7-5-12-12-19-17-2-2-5-3-7-5 2-1 3 0 4 0z" class="E"></path><path d="M444 648h2 0l2 1v-1l9 9c2 2 4 5 6 7 2 4 8 7 12 11 7 5 13 12 20 17 4 4 9 9 14 12l2-2c1 0 1-1 2-2 6-3 13-8 17-13 0 2-1 3-2 4-5 5-12 8-17 13l-3 3c-4-5-10-10-15-14l-18-16-16-15-9-9c-2-2-4-3-6-5z" class="D"></path><path d="M458 669c2-1 3 0 4 0 3 2 4 3 6 5l15 14 13 11c2 3 9 10 13 11 2-1 3-2 5-4l2-1 3-1 1 1v1l-10 10c-4-3-7-6-10-9l-16-16c-7-5-12-12-19-17-2-2-5-3-7-5z" class="C"></path><path d="M602 567l42-39 1 1-89 88-2 2c0-2 1-2 2-3v-1h0l1-2c0-1-1-2-1-2l-2 2h0c2-5 7-8 10-12l4-4c2-3 4-6 7-9-1 0-1 1-2 1h-1c0-2 7-6 7-8v-2l8-7c4-3 8-8 12-12v1h1c-2 2-2 2-2 4l4-4v1c-1 3-5 6-7 8l-3 3c-1 0 0 0-1 1l-1 1c-2 1-4 3-6 5l1 1c3-1 6-6 8-8 3-2 5-5 9-6z" class="E"></path><path d="M587 572c4-3 8-8 12-12v1h1c-2 2-2 2-2 4l4-4v1c-1 3-5 6-7 8l-3 3c-1 0 0 0-1 1l-1 1c-2 1-4 3-6 5l1 1c3-1 6-6 8-8 3-2 5-5 9-6l-35 33a57.31 57.31 0 0 0-11 11l-2 2h0c2-5 7-8 10-12l4-4c2-3 4-6 7-9-1 0-1 1-2 1h-1c0-2 7-6 7-8v-2l8-7z" class="F"></path><g class="E"><path d="M587 572c4-3 8-8 12-12v1h1c-2 2-2 2-2 4l-18 18c-1 1-3 5-5 5-1 0-1 1-2 1h-1c0-2 7-6 7-8v-2l8-7z"></path><path d="M612 533l62-61c0 2-43 48-48 54l-8 7c0 1-2 2-2 3l-16 17s1 1 1 2l-14 14v3l-8 7c-1 2-3 3-4 5h-1l1-2v-1h0l-8 9-1 1c1-2 2-3 4-5l-1-3c0-1 2-2 2-3 1-2 3-4 5-5v-1h0v-2c-1 1-1 1-2 1h0l3-4c1-2 1-2 3-3 1-1 4-5 6-6l26-27z"></path></g><path d="M570 586l30-33s1 1 1 2l-14 14v3l-8 7c-1 2-3 3-4 5h-1l1-2v-1h0l-8 9-1 1c1-2 2-3 4-5z" class="D"></path><path d="M587 569v3l-8 7c-1 2-3 3-4 5h-1l1-2v-1l3-3 9-9z" class="K"></path><path d="M627 437l4-7 3-5 1-3 2-2 1-3 2-2 1-3 2-2 1-3 2-2 1-2 3-6 3-6 3-6 4-6 3-7 6-10 7-12 1-2c2-5 4-9 6-13l5-10c1-1 1-2 2-3l3-5c0-1 1-2 2-3l6-13c0-1 0-1 1-2 0-1 1-1 1-2 1-3 3-7 4-9 3-4 5-9 7-13 1-1 1-2 2-3v1c-1 3-2 5-3 7l-4 8c-1 1-1 1-1 2s-2 4-3 5l-1 1c-4 9-8 19-13 28-3 4-5 10-8 15l-8 15-2 4-3 6-6 10-4 7c-1 3-2 5-4 8l-1 3-2 3-1 1-6 12-5 8-2 4-1 3h-1c0 1-1 2-1 2l-1 3-2 3-1 1-3 5-1 3-2 3-1 1s0 1-1 2v2c-1 2-3 4-4 5v2c-1 1-1 0-1 1v1c-1 0-1 1-2 2h1l-1 1c-1 0-1 1-2 2l-1 1v1 1c1-1 2-3 3-4l6-8v-1h0c1-1 1-2 2-2l1-1-15 24c-2 3-5 6-6 9-1-1 0-1-1-1-2 5-5 10-9 15l-12 20c-3 5-7 10-8 15-1 2-2 5-3 7h-1l-1 1-1-1c1-2 2-4 3-5 0-1 1-2 1-3h0l1-2c0-2 1-4 2-6 3-3 4-7 7-11l4-5 2-4c0-1 1-2 1-2-1-1-1-2-1-2l11-20c3-4 5-11 9-14 1-1 1-1 1-2v-1h1c2-5 5-11 8-16 1 1 2 1 3 0l2-3 1-2c0-1 1-2 2-3zM454 670c9 6 16 18 24 25 4 5 9 9 13 13 6 7 12 14 19 19h0l11-11c2 0 3 0 4 2 8-8 15-17 24-23 0 1-1 2-1 4-4 2-7 5-11 8-6 5-12 12-18 19 2 0 2 0 3-1v1l2-1v-2h2c-1 1-3 4-4 5-4 4-8 9-13 13-3-1-17-17-19-20-3-3-5-7-8-10l-1-1-28-35 1-1 2 2h1c-1-1-1 0-1-1v-1c1 1 1 1 3 2l-5-6z" class="C"></path><path d="M481 710l-28-35 1-1 2 2 9 13c4 5 9 10 14 15 7 8 14 17 22 25 2 3 5 6 8 7 3-2 5-4 7-6 1-2 2-3 3-4 2 0 2 0 3-1v1l2-1v-2h2c-1 1-3 4-4 5-4 4-8 9-13 13-3-1-17-17-19-20-3-3-5-7-8-10l-1-1z" class="E"></path><path d="M454 670c9 6 16 18 24 25 4 5 9 9 13 13 6 7 12 14 19 19h0l11-11c2 0 3 0 4 2-4 5-10 10-15 14-8-6-16-15-22-22l-19-21c-3-4-6-9-10-13h0l-5-6z" class="H"></path><path d="M476 735l-4-8c3 14 22 61 33 68 2 1 5 1 7 0 6-1 9-7 11-12 3-6 5-13 7-19 3-7 5-15 10-21s12-9 17-15c-1 2-3 5-4 7-5 4-10 7-13 13-7 13-14 61-28 65-2 1-4 0-6-1-5-3-7-9-10-13-4-9-7-18-11-28l-16-47-4-13h0c2 3 2 6 4 9 3 5 6 11 9 16l-2-1z" class="J"></path><path d="M618 508c-11 13-23 26-32 41l105-113c-2 3-5 6-7 9l-12 14-47 54-11 13c-1 1-3 2-4 3v1c-1 4-6 8-9 11l-1 2h0 1l7-8c1-1 2-2 4-2l-26 27c-2 1-5 5-6 6v-1l1-3v-3-1h0l1-1h-1l-1-1 1-1v-1c-3 0-5 3-7 5l-4 6-3 6c-1 0-1 1-1 2h0c-1 1-1 2-2 2v1l-1 3-1 1c-1 0-4 7-6 8l6-12v-1l2-2c2-4 4-8 7-12l3-6 3-6c2-2 3-4 4-6h2l-7 10h1l27-37v2h0v1l1-1h3 1v-1c1-1 1-2 2-2 1-1 1-2 2-2v-1l1-1c0-1 2-3 4-3z" class="E"></path><path d="M580 565l30-36v1c-1 4-6 8-9 11l-1 2h0 1l7-8c1-1 2-2 4-2l-26 27c-2 1-5 5-6 6v-1z" class="F"></path><path d="M435 622l-19-18h1c9 8 19 17 28 26 3 2 5 5 7 7 2 4 6 7 9 10 1 1 2 2 4 3s2 3 4 4c3 3 6 5 9 9h0l12 12 1 1c1 0 2 1 2 2 3 2 7 8 10 8 2 1 3 2 5 2h1c1 1 1 1 2 1-2-2-3-2-3-5l-1-1c0-1 1-2 1-3l1-2v-2l2-2c2 2 7 5 8 7 0 0 0 1-1 2l1 1c0 1 0 1-1 2 0 1 1 2 0 3 1 0 3-1 3-1h1l-2 2h-1l-3 2c1 1 1 1 2 1 0 0 0 1-1 1-1 2-2 3-3 4s-1 1-1 2c-1 1-1 2-2 2l-2 2c-5-3-10-8-14-12-7-5-13-12-20-17-4-4-10-7-12-11-2-2-4-5-6-7l-9-9-11-11v-1l7 6c1-1 1-1 2 0h0l2 3c1 0 2 1 3 2h0l-1-2-3-3c0-1 0-1-1-1v-1l-4-4c-2-1-3-2-4-3l1-1c2 1 2 1 3 2l2 1 1 1h0c0-2-3-2-3-4-1-3-4-4-6-6-1-1-1-2-1-4z" class="K"></path><path d="M505 696v-1c-1-1-1-1 0-2 0 0 0 1 1 1v1l1-1v-1l-5-4c-1 0 0 0-1-1h1 1c2 0 3 2 5 3 1 0 2 1 3 1 0 1 0 1 1 2 0 0 2 1 3 1s1-1 2-1h0c-1 2-2 3-3 4s-1 1-1 2c-1 1-1 2-2 2l-3-3-1-1-1-2h-1z" class="J"></path><path d="M511 674c2 2 7 5 8 7 0 0 0 1-1 2s-2 3-4 4c-3 0-4-1-6-3l-1-1c0-1 1-2 1-3l1-2v-2l2-2z" class="I"></path><path d="M508 680h3v1c0 1 0 1-1 2h-3c0-1 1-2 1-3zm7 1l1-1c1 1 1 1 1 2-1 1-2 2-2 3h-1l-1 1-1-1v-1c1-2 2-2 3-3z" class="L"></path><path d="M435 622c2 3 5 5 8 7 3 4 6 8 9 11l9 9 10 11c4 4 9 7 12 11 1 1 1 2 2 3l-29-26c-4-4-9-10-14-12-2-1-3-2-4-3l1-1c2 1 2 1 3 2l2 1 1 1h0c0-2-3-2-3-4-1-3-4-4-6-6-1-1-1-2-1-4z" class="C"></path><path d="M442 636c5 2 10 8 14 12l29 26c0 1 0 1 1 2l1 1c0 1 1 2 2 2 2 1 3 4 5 5s5 5 7 7c0 1 1 1 1 2l1 1v1c1 0 1 1 2 2v-1h1l1 2 1 1 3 3-2 2c-5-3-10-8-14-12-7-5-13-12-20-17-4-4-10-7-12-11-2-2-4-5-6-7l-9-9-11-11v-1l7 6c1-1 1-1 2 0h0l2 3c1 0 2 1 3 2h0l-1-2-3-3c0-1 0-1-1-1v-1l-4-4z" class="B"></path><path d="M446 640l22 23 13 12a30.44 30.44 0 0 1 8 8c3 2 11 8 12 10-2-1-5-3-7-4 0-2-4-4-5-5-7-6-14-13-21-19-5-3-9-8-13-12l-11-11c1-1 1-1 2 0h0l2 3c1 0 2 1 3 2h0l-1-2-3-3c0-1 0-1-1-1v-1z" class="D"></path><path d="M448 648l-11-11v-1l7 6 11 11c4 4 8 9 13 12 7 6 14 13 21 19 1 1 5 3 5 5h0l1 2h0v1c-7-5-13-12-20-17-4-4-10-7-12-11-2-2-4-5-6-7l-9-9z" class="E"></path><path d="M403 462L279 255h1l143 237h1 0v1c2 4 5 7 7 11 3 6 6 13 10 19h1c-2-3-3-6-4-8h1c2 2 3 4 4 7 2 3 6 10 8 12v-1c-2-2-3-5-5-8l-3-6-14-30 1-1 1 1h0v-2-1l26 49 5 8c1 3 3 5 4 7h0c-6-3-18-29-20-29 3 5 7 11 9 17 1 3 3 4 4 6 1 1 2 3 3 5-1 0-2-1-3-3v-1l-3-3c1 4 4 7 6 10 2 2 4 5 5 8 1 1 3 3 3 5-2-1-3-3-3-5-2-3-4-7-7-9h0l15 24c-7-6-12-15-16-23v3c7 11 12 23 20 34h0c-6-6-10-13-14-20-1-2-2-3-3-6-1 0-1-1-1-1l-1 1-5-8-12-20-1 2-12-19c0-1 0-1 1-2h0v-2c-4-8-10-15-14-22l-17-27c1 0 2 1 2 2l2 2 1 2 1 2 2 2v1h0l1 2c1 1 2 2 2 3 1 1 1 2 2 3s2 3 3 5v1c1 0 1 1 2 2 0 1 0 1 1 2h0l1-1-1-1c0-1-1-2-1-3l-1-2c-1-2 0 0-1-1l-1-2c0-1-1-2-2-3 0-1-1-2-2-3v-2l-1-2c-1 0-1-1-1-1l-4-7-1-1c-1-1-1-1-1-3z" class="K"></path><path d="M403 462c7 9 11 19 17 28 1 4 4 6 6 9l9 18 10 19 9 15 1 1c0 2 0 2 1 3 0 1 1 2 1 3 1 1 2 3 4 4l-1 1-5-8-12-20-1 2-12-19c0-1 0-1 1-2h0v-2c-4-8-10-15-14-22l-17-27c1 0 2 1 2 2l2 2 1 2 1 2 2 2v1h0l1 2c1 1 2 2 2 3 1 1 1 2 2 3s2 3 3 5v1c1 0 1 1 2 2 0 1 0 1 1 2h0l1-1-1-1c0-1-1-2-1-3l-1-2c-1-2 0 0-1-1l-1-2c0-1-1-2-2-3 0-1-1-2-2-3v-2l-1-2c-1 0-1-1-1-1l-4-7-1-1c-1-1-1-1-1-3z" class="F"></path><path d="M430 518c0-1 0-1 1-2h0v-2c4 7 10 14 12 21l-1 2-12-19zm136 146l10-8 1 1-5 4c0 1-1 2-1 3-2 0-2 2-4 2l-2 3v1c1 0 1-1 1-1 2-2 4-3 6-4l1-1h1 0c-3 3-6 5-8 8 0 1 0 0 1 1l-3 3h0l-9 10c-1 2-3 4-5 6-1 1-2 2-4 3 3 0 6-4 8-5h0c-1 2-3 4-5 5-9 6-16 15-24 23-1-2-2-2-4-2l-11 11h0c-7-5-13-12-19-19-4-4-9-8-13-13-1-3-3-6-6-8h0l1-1 1 1c2 2 3 4 5 4l6 5c-1-1-1-2-2-2 0-2 0-2 1-3l16 16c3 3 6 6 10 9l10-10v-1l-1-1-3 1-2 1c-1 0-2 0-3 1h0l-1-1 2-1-1-1c5-5 12-8 17-13 1-1 2-2 2-4 1-2 15-13 18-16l1 1-3 2 1 1 6-6c0 1 0 2-1 3h0c2 0 3-3 4-4l9-8v1c-1 2-3 3-5 4v1 1h1c1-1 2-1 4-2v-1h1z" class="H"></path><path d="M565 660v1c-1 2-3 3-5 4v1 1h1c1-1 2-1 4-2v-1h1l-28 23h1c2-1 4-4 6-5-6 9-17 16-25 24v-1l-1-1-3 1 11-9v-2c3-1 6-5 8-7 3-2 6-4 9-7l2-2c2-1 4-3 6-6 2 0 3-3 4-4l9-8z" class="F"></path><path fill="#4e4d4c" d="M553 669c0 1 0 2-1 3h0c-2 3-4 5-6 6l-2 2c-3 3-6 5-9 7-2 2-5 6-8 7v2l-11 9-2 1c-1 0-2 0-3 1h0l-1-1 2-1-1-1c5-5 12-8 17-13 1-1 2-2 2-4 1-2 15-13 18-16l1 1-3 2 1 1 6-6z"></path><path d="M572 661c0 1-1 2-1 3-2 0-2 2-4 2l-2 3v1c1 0 1-1 1-1 2-2 4-3 6-4l1-1h1 0c-3 3-6 5-8 8 0 1 0 0 1 1l-3 3h0l-9 10c-1 2-3 4-5 6-1 1-2 2-4 3 3 0 6-4 8-5h0c-1 2-3 4-5 5-9 6-16 15-24 23-1-2-2-2-4-2l-11 11h0c-7-5-13-12-19-19-4-4-9-8-13-13-1-3-3-6-6-8h0l1-1 1 1c2 2 3 4 5 4l6 5c0 1 4 4 5 6 7 6 13 13 20 19l53-49-1-1-19 15c4-4 8-7 12-10l17-15z" class="C"></path><path fill="#4e4d4c" d="M521 716l31-29c4-3 7-8 12-11l-9 10c-1 2-3 4-5 6-1 1-2 2-4 3 3 0 6-4 8-5h0c-1 2-3 4-5 5-9 6-16 15-24 23-1-2-2-2-4-2z"></path><defs><linearGradient id="E" x1="687.26" y1="463.763" x2="598.731" y2="455.331" xlink:href="#B"><stop offset="0" stop-color="#0b0e11"></stop><stop offset="1" stop-color="#3d3a36"></stop></linearGradient></defs><path fill="url(#E)" d="M689 396h1 1c0-2 1-3 2-4l1 1v1c-1 1 0 1-1 1l1 1c-4 7-10 13-15 20l-40 52-10 12c-2 2-4 5-5 7s-1 3-3 5h0c-1 1-2 3-3 4-2 1-2 3-4 4v1l-1 1-1 1c1 0 2 0 3-1v-1l3-3c1-1 3-2 4-4l2-3c1-1 2-2 3-2-5 7-12 14-18 21-1 1-4 4-5 6l-27 37h-1l7-10h-2c-1 2-2 4-4 6l-3 6-3 6c-3 4-5 8-7 12l-2 2-1 1c-2 5-6 10-8 15-1 3-3 6-4 9-3 5-6 12-9 16l-1-1h-1c0 1-1 2-2 3l-1 3-1 1v1h-1l4-9h-1 0l1-2 40-74h1c2-2 4-4 4-6 1-2 2-4 3-5l4-5v1c3-4 5-9 8-13l26-36v1c0 1-1 2-2 3l-4 5-1 1v1c-2 2 1-1-1 1h-1l-1 2c0 1-1 2-1 2l-1 1h0v1l-4 4-1 2v1l-1 1c0 1-1 1-1 2 0 0-1 1 0 2l12-16 2-3 4-4c1-2 2-4 4-5 3-1 56-71 63-80z"></path><path d="M623 474v1c0 1-1 2-2 3l-4 5-1 1v1c-2 2 1-1-1 1h-1l-1 2c0 1-1 2-1 2l-1 1h0v1l-4 4-1 2v1l-1 1c0 1-1 1-1 2 0 0-1 1 0 2l12-16 2-3 4-4c1-2 2-4 4-5l-41 54c-1 1-1 3-2 4l1-2c0-3 4-6 5-9 3-4 5-9 8-13l26-36z" class="F"></path><path d="M583 543c5-6 9-13 13-20l18-24c3-4 6-8 10-12-1 2-1 3-3 5h0c-1 1-2 3-3 4-2 1-2 3-4 4v1l-1 1-1 1c1 0 2 0 3-1v-1l3-3c1-1 3-2 4-4l2-3c1-1 2-2 3-2-5 7-12 14-18 21-1 1-4 4-5 6l-27 37h-1l7-10z" class="C"></path><path d="M537 612h0c2-2 3-4 4-6 5-8 9-16 13-24l13-21c1-2 2-5 4-6 0 1-1 1-1 2v1c-1 2-3 4-4 6l-6 11c-3 5-6 10-7 16l-3 6-8 13c0 1-2 4-2 6l-1-1h-1c0 1-1 2-2 3l-1 3-1 1v1h-1l4-9h-1 0l1-2z" class="G"></path><defs><linearGradient id="F" x1="690.414" y1="433.44" x2="617.281" y2="422.012" xlink:href="#B"><stop offset="0" stop-color="#070b05"></stop><stop offset="1" stop-color="#413c41"></stop></linearGradient></defs><path fill="url(#F)" d="M700 362v1c1-1 2-1 2-1 1-2 2-2 4-3-3 4-6 8-9 13l-18 25-40 54-16 23-26 36c-3 4-5 9-8 13v-1l-4 5c-1 1-2 3-3 5 0 2-2 4-4 6h-1l-40 74-1 2h0c-1 1-1 2-1 3h0c-1 1-1 2-1 3l-2 2s0-1-1-1l48-118v4c-1 1-1 2-2 3l-1 2c0 1-1 2-1 3h1v2 1h1l2-5h0c2-1 3-3 4-5l6-10s0 1 1 2c0 0-1 1-1 2l-2 4-4 5c-3 4-4 8-7 11-1 2-2 4-2 6l-1 2h0c0 1-1 2-1 3-1 1-2 3-3 5l1 1 1-1h1c1-2 2-5 3-7 1-5 5-10 8-15l12-20 1 2h0c-2 2-2 3-2 5v1h0c-1 1-1 2-2 3l-2 4s0 1-1 2l-2 3h1 1c4-5 8-13 11-19l16-27c3-4 5-9 9-13h0c-1 2-1 3-2 4l-1 1v1l-1 1s0 1-1 1v1h0c-1 1-1 1-1 2l-2 2c-2 3 1-1-1 1v1l-1 1v1c-1 2-2 2-3 3 0 1 0 2-1 2v1h1 0c0-1 1-1 2-2v-1l3-3c0-1 1-2 2-3 0-1 1-2 2-3h0l3-3c1-2 1-3 3-4 1-1 50-68 55-75 6-8 11-17 18-24z"></path><path d="M589 516c4-5 8-13 11-19l16-27c3-4 5-9 9-13h0c-1 2-1 3-2 4l-1 1v1l-1 1s0 1-1 1v1h0c-1 1-1 1-1 2l-2 2c-2 3 1-1-1 1v1l-1 1v1c-1 2-2 2-3 3 0 1 0 2-1 2v1h1 0c0-1 1-1 2-2v-1l3-3c0-1 1-2 2-3 0-1 1-2 2-3h0l3-3c1-2 1-3 3-4-5 8-11 15-16 23-4 5-7 10-10 16-3 4-7 9-9 13-1 3-3 5-5 7-1 1-2 2-3 4l-2 2h0c1-2 1-3 3-4l4-6z" class="C"></path><path d="M589 498s0 1 1 2c0 0-1 1-1 2l-2 4-4 5c-3 4-4 8-7 11-1 2-2 4-2 6l-1 2h0c0 1-1 2-1 3-1 1-2 3-3 5l1 1 1-1h1c-3 5-4 10-7 14-2 5-6 9-8 14h0c3-4 6-8 8-12 3-4 4-8 6-12 1-2 3-4 3-6 1-2 2-4 3-5v-2c1-1 1-3 2-4l1 1c-2 3-5 8-5 11 0 2-2 3-2 4-4 9-8 17-13 25-2 3-4 5-6 9h1l14-22 3-6c2-3 2-8 5-9l-40 74-1 2h0c-1 1-1 2-1 3h0c-1 1-1 2-1 3l-2 2s0-1-1-1l48-118v4c-1 1-1 2-2 3l-1 2c0 1-1 2-1 3h1v2 1h1l2-5h0c2-1 3-3 4-5l6-10z" class="I"></path><path d="M562 580l1-1 1-3v-1c1 0 1-1 2-2h0c0-1 0-2 1-2l3-6 4-6c2-2 4-5 7-5v1l-1 1 1 1h1l-1 1h0v1 3l-1 3v1c-2 1-2 1-3 3l-3 4h0c1 0 1 0 2-1v2h0v1c-2 1-4 3-5 5 0 1-2 2-2 3l1 3c-2 2-3 3-4 5l1-1 8-9h0v1l-1 2h1c1-2 3-3 4-5v2c0 2-7 6-7 8h1c1 0 1-1 2-1-3 3-5 6-7 9l-4 4c-3 4-8 7-10 12h0l2-2s1 1 1 2l-1 2h0v1c-1 1-2 1-2 3l2-2c3-1 7-6 10-8 1 1 2 2 2 4l6-6 2-1 22-22 1-1c5-5 11-12 18-16 0 0 0 1 1 1l1-1h1l-30 31-15 15 1 3c-2 2-5 4-7 6-3 2-5 3-7 6h2c0 1-1 1-1 2h-1c0 1-1 1-1 2-2 0-3 2-5 4-1 0-1 2-3 2v1l-2 2c1 2 2 2 1 4l-1 2h0c-2 3-6 7-9 9-1 1-3 2-3 3l8-6v1c-1 1-2 1-3 2l1 1c2-2 4-4 6-5h1c-3 4-8 7-12 10 4-2 8-5 12-9 2-2 3-4 5-6 3-2 5-5 8-7l6-3 15-10c0-1 1-1 1-1l1-1c1 0 2-1 3-1h0l-1 1h1l1 1 6-5c0 1-2 3-3 4l-12 11-12 12v2c0 1-4 4-5 5l-9 10c-1 0-2 0-3 2h0c0 1-1 1-1 2l-6 6-1-1 3-2-1-1c-3 3-17 14-18 16-4 5-11 10-17 13 0-1 0-1 1-2s2-2 3-4c1 0 1-1 1-1-1 0-1 0-2-1l3-2h1l2-2h-1s-2 1-3 1c1-1 0-2 0-3 1-1 1-1 1-2l-1-1c1-1 1-2 1-2-1-2-6-5-8-7-6-11-13-22-17-34l1-1-1-2c2 2 4 5 5 7l8 10c2 4 4 9 7 13v-3s1 1 2 1l2-1c1 0 2 0 3-1 0-4 4-8 6-12l27-56 8-15z" class="B"></path><path d="M542 656c-2 0-3 1-5 2l1-2-3 1c1-2 1-2 3-2 2-2 3-3 6-5 0 1 0 0 1 1l6-6h0 1l-1 2h0c-2 3-6 7-9 9z" class="H"></path><path d="M599 583c5-5 11-12 18-16 0 0 0 1 1 1l-18 17-1-2z" class="D"></path><path d="M599 583l1 2-21 21c-1 1-2 0-3 0l22-22 1-1z" class="F"></path><path d="M576 606c1 0 2 1 3 0l-39 36h-1l9-9 20-20 6-6 2-1zm-14 22h-1c-6 7-14 12-21 18l-1-1c2-1 3-3 5-4s2-2 4-3l4-4 23-21 1 3c-2 2-5 4-7 6-3 2-5 3-7 6z" class="D"></path><path d="M494 637c2 2 4 5 5 7l8 10c2 4 4 9 7 13 0 1 3 6 4 7-6-6-11-13-15-21-3-4-5-9-8-14l-1-2z" class="G"></path><path d="M556 617c3-1 7-6 10-8 1 1 2 2 2 4l-20 20c0-1 0-1 1-2h0v-1c0-2 1-2 2-3l1-1 2-2h-3l2-2c-1 0-1 0-2-1l3-2 2-2z" class="H"></path><path d="M586 627c0-1 1-1 1-1l1-1c1 0 2-1 3-1h0l-1 1h1l1 1c-3 3-7 6-10 9-4 4-7 7-12 10-1 1-1 2-2 3-2 1-4 2-5 3-3 2-6 5-9 7-3 1-6 3-8 5l-13 10h0l16-13c2-2 3-4 5-5h2c2-1 4-3 5-4v-1c1-1 3-3 4-3 2-2 4-3 5-5v-1c3-7 12-8 16-14z" class="G"></path><path d="M522 688c2-1 3-4 5-4 2-2 3-4 6-5 1-1 2-3 3-3 2-2 3-4 5-5l1-1 2-1 2-2c2-1 6-5 8-7 0-2 3-4 5-5s4-3 6-4c1-1 0-1 1-1 1-1 2 0 3-1 0 0 1-1 2-1v2c0 1-4 4-5 5l-9 10c-1 0-2 0-3 2h0c0 1-1 1-1 2l-6 6-1-1 3-2-1-1c-3 3-17 14-18 16-4 5-11 10-17 13 0-1 0-1 1-2s2-2 3-4c1 0 1-1 1-1-1 0-1 0-2-1l3-2h1l2-2z" class="E"></path><defs><linearGradient id="G" x1="527.437" y1="549.143" x2="313.556" y2="523.915" xlink:href="#B"><stop offset="0" stop-color="#191a19"></stop><stop offset="1" stop-color="#383739"></stop></linearGradient></defs><path fill="url(#G)" d="M407 496l-98-141v-1l92 127c4 1 5 6 7 9 1 1 2 2 3 4 1 0 1 1 2 2v1c1 0 1 0 2-1l-4-7-1-1v-1c-1 0-1-1-1-1l-1-1c-1-1 0 1 0-1-1 0-1-1-2-2h0v-1h-1l1-1c2 2 4 6 6 9l9 14 9 15 12 19 1-2 12 20 5 8 57 94c-2 1-3 1-4 3 0 1 1 2 2 3s1 1 2 1h1l-2 1c-1 0-2-1-2-1v3c-3-4-5-9-7-13l-8-10c-1-2-3-5-5-7l1 2-1 1c4 12 11 23 17 34l-2 2v2l-1 2c0 1-1 2-1 3l1 1c0 3 1 3 3 5-1 0-1 0-2-1h-1c-2 0-3-1-5-2-3 0-7-6-10-8 0-1-1-2-2-2l-1-1-12-12h0l9 8v-1l-21-20 1-1v-1l-16-15h1v-1c1 0 1 0 1-1h0l-9-10-13-13h1 1c2 2 3 4 5 6 1 1 2 1 3 2s1 2 2 2v-1c0-1 0-1-1-2v-1c-1-1-1-1-2-1v-1l-1-2c-1-2 1 1-1-1l-2-2c-1-1-1-2-2-2l-1 1 1 1v1l-2-2h0c1-2 2-2 3-2-6-8-13-15-18-23-1-1-2-1-2-2v-1l1 1 1-2h0c2 1 4 2 5 3l1-1c0-1 0-1-1-2v-1l3 3v-1l22 24 1-1 1 1 1-1-1-1 1-1-28-29 1-1 2 2 7 7h1l-2-2c-1-1-3-3-3-4-1-2 0 0-1-1l-2-3v-1l-58-69 1-1 39 44h1c1 1 2 1 2 2l2 2 4 5 9 9 1-1-3-3c-1-1 1 1-1-1l-1-1c-1-1-1-2-2-2l-1-2c-1-1 1 1-1-1l-2-2-1-1-1-2-1-1h0v-1c-1-3-4-5-5-7l-11-14-30-37c-2-3-6-7-7-11 1 1 3 3 4 5l8 9 23 26c3 5 7 9 11 13h1l2 3h0c1 1 1 1 1 2 1 1 2 2 4 3 0 1 0 1 1 1 0 2 0 1 1 2l1 1 3 4 2 2v-2c-1-1-2-3-3-4l-1-1c-1-1-2-3-3-4l-1-1-1-1-1-1c-1-2-2-3-3-4s-2-2-2-3v-1c0-1-2-2-2-3l-7-8-54-73h0l55 66 1 1h1v1l2 2v1c1 0 1 0 1 1 2 2 4 5 6 7h1 1c-2-4-5-7-7-10l-2-2c-1-1-1-2-1-3l-63-86-7-10c-1-1-2-3-2-4 1 0 2 2 3 3l7 9 64 84h1l3 3 2 3h0c1 0 0 0 1 1 0 1 1 2 2 3h1c1 0-1 1 1 0l-1-2-2-3c-2-1-2-3-3-4s-1-1-1-2h0z"></path><path d="M436 570l18 22h-1l-20-22h3z" class="D"></path><path d="M509 676l-1-1c-2-3-4-8-5-12-3-6-6-12-8-18-1-2-3-5-2-7l1 2c4 12 11 23 17 34l-2 2z" class="G"></path><path d="M412 541c3 2 5 6 8 8l16 21h-3l-26-29h1c1 1 2 1 2 2l2 2 4 5 9 9 1-1-3-3c-1-1 1 1-1-1l-1-1c-1-1-1-2-2-2l-1-2c-1-1 1 1-1-1l-2-2-1-1-1-2-1-1h0v-1z" class="F"></path><path d="M467 648v-1l2 2 4 4c2 1 4 4 6 6 1 0 2 1 3 2 1 0 1 1 2 1l6 6c-1 1 0 1-1 1 0 1 1 2 2 3l-1 1c-2-1-2-1-3-2h0v-1l-21-20 1-1v-1z" class="K"></path><path d="M425 567c3 3 6 7 9 10l18 22c2 3 5 6 6 9l-8-9-28-29 1-1 2 2 7 7h1l-2-2c-1-1-3-3-3-4-1-2 0 0-1-1l-2-3v-1z" class="D"></path><defs><linearGradient id="H" x1="438.086" y1="558.006" x2="419.077" y2="544.76" xlink:href="#B"><stop offset="0" stop-color="#a59788"></stop><stop offset="1" stop-color="#c9c0b0"></stop></linearGradient></defs><path fill="url(#H)" d="M406 521l22 28c7 9 16 19 21 29l-9-10-28-34-6-7s-1-1-1-2h1l2 3h0c1 1 1 1 1 2 1 1 2 2 4 3 0 1 0 1 1 1 0 2 0 1 1 2l1 1 3 4 2 2v-2c-1-1-2-3-3-4l-1-1c-1-1-2-3-3-4l-1-1-1-1-1-1c-1-2-2-3-3-4s-2-2-2-3v-1z"></path><path d="M401 501c7 8 13 18 20 27 8 11 16 22 23 34h0l-46-59 1 1h1v1l2 2v1c1 0 1 0 1 1 2 2 4 5 6 7h1 1c-2-4-5-7-7-10l-2-2c-1-1-1-2-1-3zm6-5c7 8 13 18 19 27l10 15c4 6 7 13 12 19h-1c-3-4-6-9-9-13l-22-30-9-12c-1-1-3-3-4-5h1l3 3 2 3h0c1 0 0 0 1 1 0 1 1 2 2 3h1c1 0-1 1 1 0l-1-2-2-3c-2-1-2-3-3-4s-1-1-1-2h0z" class="D"></path><path d="M406 480c2 2 4 6 6 9l9 14 9 15 12 19 12 19c-2-1-3-3-5-5l-10-17-12-15-12-17c-4-7-10-14-14-21 4 1 5 6 7 9 1 1 2 2 3 4 1 0 1 1 2 2v1c1 0 1 0 2-1l-4-7-1-1v-1c-1 0-1-1-1-1l-1-1c-1-1 0 1 0-1-1 0-1-1-2-2h0v-1h-1l1-1z" class="F"></path><path d="M435 604c3 4 7 8 11 12 2 2 5 4 7 6l13 13c2 2 5 4 7 6 2 3 6 5 9 9-2-1-9-6-10-8 0 0 0-1-1-1l-1-2h-1v1l1 1h0c-1-1-2-1-2-2-2-3-6-5-8-8-4-4-8-8-13-11 1 2 5 5 6 6 4 5 8 11 13 15 4 4 9 8 12 13h0l-12-10c-1-2-3-3-4-5-3-2-6-5-9-8l-9-10-13-13h1 1c2 2 3 4 5 6 1 1 2 1 3 2s1 2 2 2v-1c0-1 0-1-1-2v-1c-1-1-1-1-2-1v-1l-1-2c-1-2 1 1-1-1l-2-2c-1-1-1-2-2-2l-1 1 1 1v1l-2-2h0c1-2 2-2 3-2z" class="C"></path><defs><linearGradient id="I" x1="432.183" y1="594.804" x2="416.298" y2="579.215" xlink:href="#B"><stop offset="0" stop-color="#cfc3b4"></stop><stop offset="1" stop-color="#e3e0df"></stop></linearGradient></defs><path fill="url(#I)" d="M422 577v-1l3 3v-1l22 24c4 4 8 9 12 14l10 13c1 1 2 1 2 2l3 5h-1v1l1 2h0l-57-58c-1-1-2-1-2-2v-1l1 1 1-2h0c2 1 4 2 5 3l1-1c0-1 0-1-1-2z"></path><path d="M417 577c2 1 4 2 5 3l27 28v1l-4-4-1 1 3 2-1 1c-2-1-4-4-5-5l-17-21c-2-2-5-4-7-6z" class="B"></path><path d="M446 609l1-1-3-2 1-1 4 4v-1l13 13c2 3 4 6 7 8 1 1 2 1 2 2l3 5h-1v1l-27-28z" class="K"></path><path d="M422 577v-1l3 3v-1l22 24c4 4 8 9 12 14l10 13c-3-2-5-5-7-8l-13-13-27-28 1-1c0-1 0-1-1-2z" class="D"></path><path d="M442 537l1-2 12 20 5 8 57 94c-2 1-3 1-4 3 0 1 1 2 2 3s1 1 2 1h1l-2 1c-1 0-2-1-2-1v3c-3-4-5-9-7-13l-8-10c-1-2-3-5-5-7l-1-1 2-2c-3-3-5-7-7-11l-1-1c0-1 0-1-1-2 0-1 0-1-1-2 0-1 0-1-1-1 0-1 0-2-1-2l1-1h1 0v-1c1 0 0 0 1 1h0v-1c-1-2-2-5-3-7h0c-1-1-2-1-2-2l-3-5-1-4c-1-1-3-3-3-5 0-1-1-1-1-2-1 0-1 0-1-1l-1-1v-1l-1-2c-1-1-1-1-1-2l-2-3-3-3-3-5c-1-1-1-2-2-3l-1-2v-2c-1 0-1 0-1-1-1-1-1-1-1-2-1-1-1-1-1-2v-1l-1-1-12-19z" class="J"></path><path d="M483 606h1c2 2 3 4 4 6l1 2 2 4c1 1 1 2 2 3l1 2 1 1v1c1 1 1 2 1 3l1 1c1 0 1 1 2 2h0c1 1 1 2 2 4l2 2c0 1 1 2 2 3l2 3h-1l-1 1-1-2-1 1v1 1c-1-1-2-2-2-3-1-1-2-1-2-3-1 0-2-1-2-2-1-1-2-1-2-3-3-3-5-7-7-11l-1-1c0-1 0-1-1-2 0-1 0-1-1-2 0-1 0-1-1-1 0-1 0-2-1-2l1-1h1 0v-1c1 0 0 0 1 1h0v-1c-1-2-2-5-3-7z" class="B"></path></svg>