<svg xmlns="http://www.w3.org/2000/svg" xmlns:xlink="http://www.w3.org/1999/xlink" xmlns:v="https://vecta.io/nano" viewBox="150 63 730 856"><!--oldViewBox="0 0 1024 1024"--><style>.B{fill:#e7bb83}.C{fill:#e4b882}.D{fill:#ebca9c}.E{fill:#daa76e}.F{fill:#f2e2c0}.G{fill:#edbd84}.H{fill:#deaf78}.I{fill:#f0dec1}.J{fill:#201c1c}.K{fill:#f3e3c6}.L{fill:#2a2018}.M{fill:#f4d9ac}.N{fill:#161412}.O{fill:#332e29}.P{fill:#37312d}.Q{fill:#181616}.R{fill:#eadfc6}.S{fill:#463a2f}.T{fill:#c99661}.U{fill:#faf3d9}.V{fill:#281e17}.W{fill:#2a2727}.X{fill:#b68451}.Y{fill:#3d2f23}.Z{fill:#bb9062}.a{fill:#e3d4b9}.b{fill:#af7b47}.c{fill:#976b43}.d{fill:#684426}.e{fill:#7c512d}.f{fill:#c5935c}.g{fill:#57493d}.h{fill:#5a3921}.i{fill:#906239}</style><path d="M397 702v-2h1l2-1c0 1 0 2 1 3-1 1-4 0-4 0z" class="N"></path><path d="M411 239h3l1-1h1l2 2c-2 1-5 0-7-1z" class="L"></path><path d="M501 543l1 1c0 2 1 3 2 4l-2 3-1-1v-7z" class="C"></path><path d="M593 214h1c2-2 3-2 5-3l-1 4c-1 1-1 1-3 1l-2-2z" class="W"></path><path d="M624 780c0 3 0 6-1 9l-1-1c0-3 0-5-1-8h3z" class="c"></path><path d="M665 720c1 0 1 0 2 1s0 3 0 5h-1-1c-1-2 0-4 0-6z" class="Z"></path><path d="M337 751l1 2v1c0 2 0 3 1 4l1 1h-4 0v-2c-1-2-1-4 1-6z" class="E"></path><path d="M590 197c3 1 6 2 8 4 0 1-1 2-2 2l-2-1h1c-1-1 0-1-1-1h-1c-2-1-2-2-3-4z" class="H"></path><path d="M673 736c3 1 5 1 7 1l-2 1-1 1 1 1-3 2-2-1c1 0 1-1 2-1l-2-4z" class="I"></path><path d="M570 357l3-9 2 2-3 8c0-1-1-1-2-1z" class="F"></path><path d="M616 789v-1l1-1 2 1 2 1 1-1 1 1c-1 2-1 3-2 5l-1-1c0-1 0-1-1-2l-1-1-2-1z" class="G"></path><path d="M519 582c2 4 2 8 2 13h-1c0 3 1 6 0 8l-1-7v-3-7-4z" class="N"></path><path d="M507 236c0 1 0 2 1 3l1-1-1 14c-2-5-1-11-1-16z" class="Z"></path><path d="M350 769c2-1 3-1 4 0h1 1c2 0 3 0 4-1v1 3c-4 0-6-1-10-3z" class="B"></path><path d="M592 739c1-3 2-5 2-7 2 2 2 4 3 7l-1 1c-1 0-2 0-4-1z" class="e"></path><path d="M446 356c2 0 2-1 3 0 1 2 1 2 0 3h-4c-2 0-3 0-4-1 1-1 4-2 5-2zm239 381c3-2 6-3 8-6l3 5h-2c-2 0-1-1-4 0-1 0-1 0-2 1h-3zM557 226l5-1 1 1h0 0c2 1 1 0 2 1l-6 3-1-1h0l-1-2v-1z" class="D"></path><path d="M410 300h0c0-1 0-3 1-4h0l1 1 1-1c0 2-1 3 1 4l1 2-1 2c-2-1-3-2-4-4z" class="W"></path><path d="M537 841l1 1v-2l1 1-6 14c0-5 2-10 4-14z" class="B"></path><path d="M360 699l2 3c-2 2-3 4-4 7h-2v-2l4-8z" class="K"></path><path d="M437 733h1c1 1 2 3 2 4 0 2 0 2-1 3h-2l-1-1c0-3 0-3 1-6z" class="d"></path><path d="M379 776h4c-3 2-6 2-9 3s-5 3-6 4c-1 0-1 0-1-1 1-1 1-2 2-2l1-1h2v-1c3-1 5 0 7-2z" class="O"></path><path d="M400 699c2-2 2-2 5-2 1 0 1 0 2 1l-4 5c-1-1-1-1-2-1-1-1-1-2-1-3z" class="K"></path><path d="M475 486c-1-2-2-3-3-5h-1v-1h-1c1-1 2-1 2-2 1-1 1-5 2-7 1 3-1 8 1 11l1 1s0 1 1 2h0c-1 0-1 1-2 1z" class="G"></path><path d="M413 797c2 2 3 3 5 4 0 0 1-1 2-1h1l-1 1h0c-1 0-3 1-4 1h3 1 0l1-1 1 1v1-1l-2 1c-2 0-3 0-6-1 0-1-2-3-3-3v-1h1 1v-1z" class="L"></path><path d="M670 757c4 1 8 2 10 5l-3-1c-1 0-1 0-2 1-1 0-4-1-5-2v-2-1z" class="E"></path><path d="M679 757c-1-2-2-2-4-3-1-1-1 0-1-1 1-2 2-2 3-2 1 1 4 2 4 3l2 2h-2l-2 1z" class="B"></path><path d="M493 543l3 3h0c1-1 0-2 0-4 0-3 0-6 1-9v-1 22 1c-2-4-4-8-4-12z" class="c"></path><path d="M621 780c-1-5-4-10-7-15 5 4 9 9 10 15h-3z" class="X"></path><path d="M439 423c1 0 1 1 2 1 2 1 4 0 6 1l-3 7c-2-4-3-6-5-9z" class="G"></path><path d="M550 488v-8h1 0c1 3 2 15 1 17l-2 4v-13z" class="H"></path><path d="M594 202c-2-1-4-2-7-4s-6-3-10-5c5 1 9 2 13 4 1 2 1 3 3 4h1c1 0 0 0 1 1h-1z" class="E"></path><path d="M637 247c3 6 6 12 7 17h-3c0-6-3-11-5-17h1z" class="a"></path><path d="M441 189c2 0 5-1 6-1 2 0 6 2 8 2l1 1c-1 1-13 0-15 0v-2z" class="K"></path><path d="M474 462c0 1 1 2 1 3-1 4-2 7-5 10h-3c-1-2 2-3 3-4 2-3 3-6 4-9z" class="E"></path><path d="M403 280c4-1 9-1 13 0h-1v1c1 0 2 1 2 2-5-1-10-3-14-1v-2zm150-58c3 0 5-6 7-8h1c-4 7-7 13-13 18 0-4 2-5 4-8l1-2z" class="C"></path><path d="M610 792v-2c1-5 6-5 9-7h1c1 1 0 2 0 3l-1 2-2-1-1 1v1c-3 0-4 2-6 3z" class="B"></path><path d="M527 167c2 1 2 2 4 3 1 1 4 5 5 7h-2v1c0 1-1 2-1 2-2-4-4-8-6-13z" class="E"></path><path d="M356 707v2h2 0l1 1c-2 1-4 3-6 5l-1 2v1c-2 1-3 3-4 5-1 0-1 1-2 2 2-7 7-13 10-18z" class="F"></path><path d="M467 813l3-2c1 4 2 8 4 12-2-1-7-6-9-8l1-1 1-1z" class="T"></path><path d="M475 466c1-3 0-6 2-9v25 3h0c-1-1-1-2-1-2l-1-17z" class="C"></path><path d="M549 461c0 1 1 1 2 2 0 5 1 12 0 17h0-1v8c-1-2 0-5 0-8l-1-12v-7z" class="B"></path><path d="M537 603v1c1 2 1 5 1 7h2c0 5 0 11-1 16h-1l-1-1v-23z" class="T"></path><path d="M500 890s1 0 1 1c2 2 3 4 4 7 0 1 1 2 1 3 1 2 1 3 3 5l2 10c-3-5-5-11-7-17l-4-9z" class="d"></path><path d="M561 820h1 5c-2 2-4 4-6 5l-4 4c-1-1-1 0-1-1h-1l-2 2h-1l1-2 2-2c1 0 1-1 2-1 1-2 3-3 4-5z" class="J"></path><path d="M560 209c2-2 4-3 7-5-2 4-3 7-6 10h-1c-2 2-4 8-7 8 2-3 5-7 7-10 0-2 1-2 0-3z" class="E"></path><path d="M425 392l-1-2c-1-3-2-6-2-10 0-1 0-1 1-2 2 0 4 2 6 3s2 4 2 6h0l-2-3c-1-1-2-1-3-1l-2-2c-1 3 1 7 1 11z" class="X"></path><path d="M414 787h-4c-1-3-1-7 0-10 1-4 5-10 9-12 0 1-4 5-5 7-2 2-2 4-3 7 0 2 0 4 1 6h1l1 2z" class="E"></path><path d="M637 752h0c0 2 0 2-1 3v4c-1 1-1 5-1 7l1 1h0c0 1 0 1 1 2h0c2 2 5 3 7 5-2 0-4-1-6-2s-4-4-5-7h0c0-3 0-6 1-9l3-4z" class="N"></path><path d="M495 495l1 3h0l1-4v19c-1 2-1 4-1 5v1h-1c0-1 1-2 1-3s-1-2-1-3c-1-2 0-4 0-6v-12z" class="C"></path><path d="M428 357c1 0 2-1 3-1l6-3c3-2 6-2 8-3l1 1h-1c-2 1-4 3-6 4 0 1-2 2-2 2-1 1-4 0-5 0-2 0-3 1-5 0h-1 2z" class="K"></path><path d="M436 415l3-3s1 1 1 2c2 1 7 2 9 3-4 1-8 2-12 2h0v-1c0-1 0-2-1-3z" class="T"></path><path d="M503 558h0c1 2 1 4 1 6l1-1v-3c1 3 1 10 0 12l-1 1c-2-5-3-10-3-15h1v1l1-1z" class="X"></path><path d="M389 672l2 2c-1 2-9 10-9 12 0 1-1 1-2 1h-2l11-15z" class="D"></path><path d="M445 834s0-1 1-1c-1 4-6 10-10 12-3 4-8 6-12 8l-1-1-2-1 8-3c3-1 6-3 8-5 3-2 7-6 8-9z" class="U"></path><path d="M550 501l2-4-1 28h0v1c0 2 0 3-1 4v-29z" class="B"></path><path d="M560 209c1 1 0 1 0 3-2 3-5 7-7 10l-1 2c-1 0-2-1-3-2l1-1c4-5 6-8 10-12zM439 423h-2l1-1h1c2 0 4 0 6-1s3-3 5-4 4-2 5-3l-8 11c-2-1-4 0-6-1-1 0-1-1-2-1z" class="D"></path><path d="M641 264h3c1 6 2 11 2 16l-2 1c0 1-1 2-1 3 0-7 0-13-2-20z" class="c"></path><path d="M682 761c3 1 5 4 9 3 2 0 3-2 4-4h1 0c0 3-1 5-3 7-2 1-3 1-5 1-2-1-5-3-6-5v-2z" class="G"></path><path d="M697 748c1 0 1 0 2-1l-1-1c1 0 5 1 7 1h0c3 2 17 1 21 1-10 3-19 2-29 0h0zM477 482c1 9 1 18 1 26 0 4 0 8 1 12-1-1-1-4-1-5-2-9-2-20-3-29 1 0 1-1 2-1v-3z" class="E"></path><path d="M428 394l1 1 2 4c3 3 6 8 8 13l-3 3c-1-1-5-12-6-14l-1-2c0-2 0-3-1-5z" class="c"></path><path d="M550 578c1-5 0-12 0-17h1v7 1l1 27v14c-1-2-1-6-1-9 0-8-1-16-1-23z" class="B"></path><path d="M685 732c-1 1-2 2-4 2h-1c-5 1-14 1-19-2-2-2-4-5-4-8v-8c1 3 1 6 2 8 1 4 5 7 9 9 3 1 6 1 10 0h4c1-1 2-1 3-1z" class="I"></path><path d="M513 133v-2c-1 0-1-1-1-2h-1c0-2 1-3 2-3 2-1 4 0 6 0 1 1 1 1 2 3l-1 1v3c-2-1-5-1-7 0z" class="L"></path><path d="M406 844h0c1 1 1 1 1 2 2 2 6 5 9 5 1 1 3 1 5 0l2 1 1 1c-4 1-8 2-11 3-4-4-6-7-7-12zm3-45c0 2-1 4-2 6-4 4-9 10-15 10-2 1-4 1-6 1-3-1-5-2-8-3l-4-4c2 1 4 2 5 3 6 3 12 2 18 0 5-3 9-7 12-13z" class="I"></path><path d="M457 788v-1s0-1 1-1l2 1 10 24-3 2c1-4 0-5-1-7-3-7-6-12-9-18h0z" class="d"></path><path d="M447 221l-2-1 1-1c9 0 16 4 24 7-1 1-1 1-1 2-7-3-14-6-22-7z" class="D"></path><path d="M541 867l5-3c0 1 0 1 1 2v2 1c-4 2-5 5-7 8-1 2-3 4-4 5 0-1 1-3 1-4l4-11z" class="F"></path><defs><linearGradient id="A" x1="667.945" y1="686.771" x2="664.055" y2="681.729" xlink:href="#B"><stop offset="0" stop-color="#986939"></stop><stop offset="1" stop-color="#b57e4c"></stop></linearGradient><linearGradient id="B" gradientUnits="userSpaceOnUse"></linearGradient></defs><path fill="url(#A)" d="M663 673c3 6 4 11 6 17 2 4 4 7 5 12-3-3-4-7-7-10v-1l1-1c-4-4-6-10-8-15 2 2 2 4 4 6v-1-1-1-1c-1-2-1-2-1-4z"></path><path d="M675 762c1-1 1-1 2-1l3 1c2 2 2 3 3 5-2 3-3 4-6 5-1 0-3 1-4 0l-1-1c0-2 0-3-1-4h2l1 1c1 1 2 0 3 0 1-1 1-2 1-3 0-2-1-2-3-3z" class="G"></path><path d="M562 225c7-3 15-6 23-6l1 1c-1 1-7 2-10 3s-7 3-11 4c-1-1 0 0-2-1h0 0l-1-1z" class="C"></path><path d="M540 239c0-2 1-3 2-4v-2c2-4 3-7 4-11l2 1c1 0 1 0 1-1 1 1 2 2 3 2-2 3-4 4-4 8-2 1-4 3-5 4-1 2-1 2-3 3z" class="K"></path><path d="M546 845c0 2-1 3-1 4v6h0l1-1c2-1 4-3 6-2-4 2-7 5-8 9h-1v1c-1 0-2 1-3 2s-2 1-3 2c2-7 5-14 9-21z" class="d"></path><path d="M447 221c8 1 15 4 22 7l8 5c-1 1-1 1-2 1h0c-8-4-15-7-24-9-2-1-3-1-5-2h4c1 1 0 1 1 1h1 2c1 1 0 1 2 1h0c5 2 9 3 13 5l-2-2c-2 0-2 0-3-1l-3-1-2-1c-1 0-1 0-2-1h0-2c-2-1-1-1-2-1s-2 0-3-1h0-1l-2-1z" class="Y"></path><path d="M519 567c1 1 1 3 1 4h1v-2h0v1c0 1 0 1 1 2 1 4 2 12 1 16-1 3 0 7-1 8-1-1-1 0-1-1 0-5 0-9-2-13v-4-11z" class="L"></path><path d="M354 733c5 0 11 0 15-4 4-2 5-5 5-9v-1l1-1c1 3 0 8-1 11-2 2-4 3-6 4-5 1-11 2-15 2v-1h-1c-2 0-4-1-5-3 1 0 1 0 2 1 1 0 2 1 3 1h1 1z" class="I"></path><path d="M583 224c8-2 15-3 23-1 2 1 5 2 7 4h-4l1-1c-1-1-3 0-5-1h-3c-2 0-3 1-5 1h-1l-1 1h0-2c0-1 0-2-1-3-1 0-2 1-3 2l-1-2c-1 1-4 0-5 0z" class="M"></path><path d="M376 659c3-8 6-17 8-26 0-3 1-6 1-9h1c0 7-1 15-3 22l-6 15-1-2z" class="Z"></path><path d="M533 230c1-14-7-27-9-41l5 14c2 8 5 14 7 21l-1 2v1c0 2 0 2-2 3z" class="D"></path><path d="M501 517c2 1 2 1 3 3 1 1 1 3 1 4l-1 1c0 1 0 1 1 2v8c-1 0-1 1-2 1l-1 1h-1v-20z" class="H"></path><path d="M487 458l2 29-1-1v-5-9c-1-1-1-4-1-6-1 1 0 3 0 4l-1 29h0c-1-2 0-6 0-8v-32h1v-1z" class="W"></path><path d="M416 280c6 1 14 3 18 7v1l3 2v1h-1-1c-6-4-12-6-18-8 0-1-1-2-2-2v-1h1z" class="R"></path><path d="M335 750c-5 1-10 1-15 0-3 0-7-1-10-2h10c7 0 14 0 21-3h1v1 1h-2s-1 1-1 2l-4 1z" class="G"></path><path d="M475 226c-2-2-3-6-4-8l-8-15c3 2 6 3 8 6-1 1-1 2 0 3l10 18c-2 0-5-5-6-5v1z" class="X"></path><path d="M352 718h1c0 4-2 8 0 12v1l1 2h-1-1c-1 0-2-1-3-1-1-1-1-1-2-1l-1-1h0c0-2-1-4 0-5s1-2 2-2c1-2 2-4 4-5z" class="O"></path><path d="M395 266c0 2 1 3 2 4h0c1 5 0 9 1 13l5-3v2c-1 1-7 6-8 7 0-8-2-15 0-23z" class="e"></path><path d="M550 530c1-1 1-2 1-4v-1h0v44-1-7h-1c0 5 1 12 0 17-1-5 0-9 0-14v-34z" class="E"></path><path d="M478 833c7 5 11 14 13 23 0 0-1 0-1-1-2 0-2-1-3-2s-1-2-2-4l-3-6c-1-2-1-5-3-6v-1c-1-1-2-2-1-3z" class="h"></path><path d="M654 322l1 1c3 2 6 2 10 3-9 1-18-2-26-5v1c0 2-1 3-1 5h-1c-2-5-4-9-7-14 3 2 5 4 8 6 3 1 6 2 10 3 2 1 3 2 6 1v-1z" class="B"></path><path d="M667 692c3 3 4 7 7 10l7 12h-2c-2-3-4-7-7-10s-6-5-8-8v-4h3z" class="K"></path><path d="M622 796h1c2 3 2 6 4 8 3 4 7 7 12 8 5 2 10 2 15 0 1-1 3-2 4-3v1c-3 2-5 3-8 5h-1c-3 0-7 1-10 0-5-1-10-5-13-9v-1c-2-3-3-6-4-9z" class="F"></path><path d="M557 829l4-4 1 1-1 2 1 1h0-2c-5 5-9 10-12 17-1 2-2 5-2 8l-1 1h0v-6c0-1 1-2 1-4 2-6 6-11 11-16z" class="e"></path><path d="M425 392c0-4-2-8-1-11l2 2c1 0 2 0 3 1l2 3h0c1 3 0 6-2 8l-1-1c1 2 1 3 1 5l1 2c-1-1-2-2-2-3h-1c-1-2-1-2-1-4h-1v-2z" class="V"></path><path d="M426 383c1 0 2 0 3 1l2 3h0c1 3 0 6-2 8l-1-1c0-4 0-7-2-11z" class="b"></path><path d="M346 730l1 1c1 2 3 3 5 3h1v1c4 0 10-1 15-2l-1 2-15 3h-3c-4-2-7-3-10-7 3 0 4 0 7 1v-2z" class="L"></path><path d="M551 412l1-1h1v3l-3 34c0 5 1 10 1 15-1-1-2-1-2-2v-15l2-33v-1z" class="D"></path><path d="M553 386l2 1c-1 7 0 14-1 21 0 2 0 4-1 6v-3h-1l-1 1v1l-1-1c0-1 0-3-1-4 1-4 1-9 2-13l1 1 1-10z" class="E"></path><path d="M551 406c1-1 1-2 2-3l1 5c0 2 0 4-1 6v-3h-1l-1 1v-6z" class="C"></path><path d="M551 395l1 1-1 10v6 1l-1-1c0-1 0-3-1-4 1-4 1-9 2-13z" class="N"></path><path d="M593 214l-1-10h1c2 2 4 2 7 3 2 0 4 1 6 3 2 1 3 3 5 5-4-3-7-3-12-4-2 1-3 1-5 3h-1z" class="H"></path><path d="M587 826h0l3 5c4 7 11 13 20 15 5 1 10-1 13-6 1-1 2-3 4-3v1h0c-2 4-6 8-9 10-5 1-10 0-14-2-7-4-15-12-17-20z" class="U"></path><path d="M410 300c1 2 2 3 4 4l4 1h-1v1c-4 1-7 2-10 4h-2c-3 2-7 4-11 4v-1c3-2 6-4 10-6 2-1 5-2 7-4l-1-3z" class="M"></path><path d="M680 718c1 1 2 2 4 2 1 1 2 1 2 3v1l1 1c0 1 0 3-1 4v1c0 1 0 1-1 2-1 0-2 0-3 1h-4c0-1 1-2 2-3v-1c1-3 0-8 0-11z" class="W"></path><path d="M514 157c1-1 1-2 1-3-1-1-1-1-2-3l1-3 1-1c1 1 2 1 4 2-1 2-2 4-2 6l-1 1h1c2 3 2 5 3 8 2 4 2 9 2 13-1-1-2-2-2-4v-1c-1-1-1-2-1-3v-1c-1-1-1-2-2-3v-1-2l-1-2c-1-1-1-2-2-3z" class="X"></path><path d="M485 849c1 2 1 3 2 4s1 2 3 2c0 1 1 1 1 1l6 13c-2-1-4-1-6-1l-4-9-1-2v-1-1c0-2-1-3-1-6z" class="d"></path><path d="M553 858c1 0 2 0 3 1l6 3-9 3c-2 1-4 3-6 4v-1-2c-1-1-1-1-1-2l1-1v-1h-1v-1h1c1-1 2-2 4-2 0 0 0 1 1 1 0-2 0-1 1-2z" class="K"></path><path d="M471 402c-1-4-1-10-4-13-1-1-5-5-7-5-1-1-4 0-6 0-1 1-3 1-4 1h-1c-1-1-1-1-2-1l-3-3 1-1c2 6 9 3 13 2 0 0 2-1 3-1 2 0 5 3 7 4v-1h1l4 18h-2z" class="E"></path><path d="M427 206c8-8 16-11 27-13-8 6-18 9-26 15 0-1-1-1-1-2z" class="H"></path><path d="M427 725c5 7 9 17 9 26l1 3-1 3c0-2 0-4-1-5v-2l-2-2c0-1-1-3-1-4l-3-9c-2-4-4-6-6-9h1 1 1s0-1 1-1z" class="i"></path><path d="M543 862v-1h1c1-4 4-7 8-9h1 2l1 2c0 2-1 3 0 5-1-1-2-1-3-1-1 1-1 0-1 2-1 0-1-1-1-1-2 0-3 1-4 2h-1v1h1v1l-1 1-5 3c1-2 1-3 2-5z" class="B"></path><path d="M553 852h2l1 2c0 2-1 3 0 5-1-1-2-1-3-1l1-1c-1 0-2 0-2-1s1-1 2-2l-1-2z" class="M"></path><path d="M363 693h-1c4-12 8-24 14-34l1 2c-2 5-4 10-6 14l-4 11c-1 1-3 4-3 5s0 2-1 2z" class="X"></path><path d="M426 357c0-1 1-3 1-4 2-2 4-4 7-5h0c4-1 7-1 10 1l1 1c-2 1-5 1-8 3l-6 3c-1 0-2 1-3 1h-2z" class="I"></path><path d="M444 349l1 1c-2 1-5 1-8 3l-6 3c-1 0-2 1-3 1 0-1 0-1 1-2 3-4 10-5 15-6z" class="N"></path><path d="M529 898l-5 10c-1 3-1 6-3 8 2-13 5-25 10-37 1 2 1 4 0 6v1c0 1-1 2-1 4-1 2-1 4-2 6v1l1 1z" class="d"></path><path d="M489 537l1 1 1 4v2 1h1c1-2 0-4 1-6v4c0 4 2 8 4 12v-1h0c1 2 0 6 1 8 1 1 1-1 1 1h0v2h-1v-1l-1 1v-1h-1v-2c-1-1-1-2-1-3l-1-1-1-1c1-3-2-5-3-8 0-2 0-3-1-5v-7z" class="L"></path><path d="M406 844c-1 0-1 0-1-1-1-1 0-3 0-4l1-1h-1c0-2 0-2 1-3l1 1-1 1c1 3 3 6 6 9 3 2 7 3 11 2l5-1 1 1-8 3c-2 1-4 1-5 0-3 0-7-3-9-5 0-1 0-1-1-2h0z" class="J"></path><path d="M610 792c2-1 3-3 6-3l2 1 1 1c1 1 1 1 1 2l1 1c-1 1-1 2-2 3l-1 2-1 1h-2c-2 0-3-1-5-3v-5h0z" class="E"></path><path d="M616 796c1 0 2 1 3 1l-1 2-1 1c-1-1-2-1-2-2s0-1 1-2z" class="H"></path><path d="M618 790l1 1c1 1 1 1 1 2l1 1c-1 1-1 2-2 3-1 0-2-1-3-1 0-1 1-2 2-3v-2-1z" class="T"></path><path d="M635 263c0 1 1 1 1 2 1 0 1 3 1 4 1 6 0 13 0 19l-1-1c-4-4-9-5-14-5h-2c3-1 4 0 6-2 2 1 4 3 7 3h0l1-7c0-5 0-7-3-11h2l1-1h1v-1z" class="b"></path><path d="M611 205c3 3 6 7 9 11 6 10 13 20 17 31h-1c-6-15-17-29-28-41 2 0 3 1 4 2h0 0l-1-2v-1z" class="K"></path><path d="M513 586h1c2 1 2 2 4 2h1v-2 7 3 4c1 2 0 5 0 8-2-3-4-6-5-9s-1-8-1-11v-2z" class="i"></path><path d="M513 586h1c2 1 2 2 4 2h1v-2 7 3 4c-1-2-3-3-3-4l1-2c-1-1-3-1-3-3h2v-1l-3-2v-2z" class="X"></path><defs><linearGradient id="C" x1="642.475" y1="281.54" x2="643.078" y2="304.459" xlink:href="#B"><stop offset="0" stop-color="#9d774e"></stop><stop offset="1" stop-color="#cf9b67"></stop></linearGradient></defs><path fill="url(#C)" d="M643 284c0-1 1-2 1-3l2-1v12c-1 3-2 11-4 14-2 0-3-1-5-1l-1-2h0c1-1 2 0 3 0 1-2 2-4 2-5 1-5 2-9 2-14z"></path><path d="M696 736c3 2 5 4 7 6h1l-1-1c-3-2-8-6-8-10-1-1 0-3 0-4h1c3 9 7 14 15 18l3 1v1h-2l-1-1h-1l-3-1h-2c-2-1-5-1-7-3h-1c-2-2-5-4-7-6 3-1 2 0 4 0h2z" class="B"></path><path d="M593 811l3-1c-3 5-8 10-13 14-6 5-13 9-20 12 0-1 1-2 1-3 2-1 3-1 5-2s4-3 7-5c6-4 13-9 17-15z" class="E"></path><path d="M527 167l-9-9c4 1 8 4 11 7 5 6 10 11 14 19 1 3 3 6 3 10l-1 2c-3-7-5-13-9-19-1-2-4-6-5-7-2-1-2-2-4-3z" class="b"></path><path d="M505 535c0 1 1 1 0 2l1 23h-1v3l-1 1c0-2 0-4-1-6h0c0-1-1-1-1-1-2-2-1-5-1-7l1 1 2-3c-1-1-2-2-2-4l-1-1v-6h1l1-1c1 0 1-1 2-1z" class="f"></path><path d="M501 550l1 1 1 2v3c-1 0-1 0-1 1-2-2-1-5-1-7z" class="Z"></path><path d="M505 535c0 1 1 1 0 2-1 4 0 12 0 17l-1-1v-5c-1-1-2-2-2-4l-1-1v-6h1l1-1c1 0 1-1 2-1z" class="T"></path><path d="M501 537h1c1 2 2 1 2 4 0 1-1 2-2 3l-1-1v-6z" class="E"></path><defs><linearGradient id="D" x1="494.944" y1="544.018" x2="494.171" y2="520.043" xlink:href="#B"><stop offset="0" stop-color="#a67346"></stop><stop offset="1" stop-color="#c59564"></stop></linearGradient></defs><path fill="url(#D)" d="M495 513c0 1 1 2 1 3s-1 2-1 3h1v-1c0-1 0-3 1-5v19 1c-1 3-1 6-1 9 0 2 1 3 0 4h0l-3-3v-4l1-16 1-10z"></path><path d="M598 201c6 4 12 8 16 13 3 4 6 8 8 13 6 9 13 21 15 33v1h-3l1-1h1c-2-4-3-8-4-12-5-14-14-30-26-39-1-1-2-3-4-3l-6-3c1 0 2-1 2-2z" class="C"></path><path d="M423 714l1-4c2 2 6 4 6 6 1 1 0 2 0 2l-3 2c-1 1 0 3 0 5-1 0-1 1-1 1h-1-1-1l-3-3 1-1-2-2-1-1c2 0 3-2 4-4l1-1z" class="b"></path><path d="M423 714c1 1 1 1 1 3 1 2 2 4 2 7h-3l-2-2-2-2-1-1c2 0 3-2 4-4l1-1z" class="R"></path><path d="M513 133c2-1 5-1 7 0v1c-2 0-3 0-4 1h0 0c1 0 2 0 3 1 1 0 1 1 2 2 0 2 0 4-1 6-1 1-3 0-4 1-1-1-2-1-3-2v-1 1l-1 1h-1v-3c0-4 0-6 2-8z" class="F"></path><path d="M395 743c4 4 6 8 7 14v1c1 4 0 9-3 13l-2 2-1-2 1-3c2-5 1-9-1-14l1-1c1-2 1-3-1-5-1-2-1-3-1-5z" class="D"></path><path d="M549 408c1 1 1 3 1 4l1 1-2 33h-1l-1-8 1-10h-1v1l-1-2 1-14v2 1h1v-2l1-1v-5z" class="W"></path><path d="M547 413v2 1h1v-2l1-1-1 15h-1v1l-1-2 1-14z" class="D"></path><path d="M540 602h1c0 6 1 11 1 17v7c1 2 1 2 0 4l-1 4c0 3-1 6-3 8-1-1-1-3-1-4l1-1-1-11 1 1h1c1-5 1-11 1-16v-9z" class="d"></path><path d="M538 637c1-3 1-5 2-8 0-1 1-2 1-3 0-3-1-10 0-12 0 1 0 3 1 4v1 7c1 2 1 2 0 4l-1 4c0 3-1 6-3 8-1-1-1-3-1-4l1-1z" class="V"></path><path d="M546 854c0-3 1-6 2-8 3-7 7-12 12-17h2l-4 4-1 2c0 1-1 2-1 3s-2 2-2 3v3c-2 2-2 4-2 6h1c2-1 2-1 4 0h1l-2 4-1-2h-2-1c-2-1-4 1-6 2z" class="E"></path><path d="M557 850h1l-2 4-1-2h-2-1l5-2z" class="F"></path><path d="M693 751l2 2 1 1v2c0 1 1 2 1 4h-1 0-1c-1 2-2 4-4 4-4 1-6-2-9-3l-1-1c0-1-1-2-2-3l2-1h2c2 1 3 2 5 3h1c2 0 2-1 3-2 1-2 0-4 0-5v-1h1z" class="V"></path><path d="M688 759h1l3 1v1l-2 1c-2 0-3-1-5-1l3-2z" class="G"></path><path d="M679 757l2-1h2c2 1 3 2 5 3l-3 2-4-1c0-1-1-2-2-3zm14-6l2 2c0 2 0 5-1 6s-1 2-2 2v-1l-3-1c2 0 2-1 3-2 1-2 0-4 0-5v-1h1z" class="E"></path><path d="M474 830l3 3h1c-1 1 0 2 1 3v1c2 1 2 4 3 6l3 6c0 3 1 4 1 6v1 1c-2-2-3-4-6-5l1-1h1c-1-2-2-2-3-4h0c0-1 0-2-1-3-2-2-2-5-3-7-1 0-1-1-2-2 0-2 0-3 1-5z" class="X"></path><path d="M585 829h1c2 4 4 7 6 10 6 7 14 12 23 12 3 1 6 0 9-3 1-1 1-3 3-4v2c-2 4-3 6-6 9-6 1-13-3-18-5-7-4-15-13-18-21z" class="U"></path><path d="M328 743c0-1 1-2 1-2 4-4 6-8 8-13l2 3c3 4 6 5 10 7v1h-2-2c-3 1-5 0-8 1-2 0-3 0-5 1-1 1-2 1-3 1l-1 1z" class="C"></path><path d="M332 741c0-1 1-2 2-3h0l1-1c1-1 2-2 3-2 1 1 2 2 2 3l-2 1-1 1c-2 0-3 0-5 1z" class="D"></path><path d="M389 266v3c0 10-2 24 2 33l4 1v1c-1 0-2 1-3 1-4-4-5-9-6-14-1-6-2-21 2-26l1 1z" class="Y"></path><path d="M604 727c1-2 1-4 1-6-1-2-2-2-4-3 0-2 4-6 5-8l6 6c-2 1-3 2-3 5l1 1c1 0 4-4 6-5l1 1-1 1h1c-5 3-8 6-11 11v-3h-2z" class="X"></path><path d="M602 225h3c2 1 4 0 5 1l-1 1c-3 1-5 2-6 5-1 2-1 3 0 4-1 1-4 1-5 1-3-1-3-1-4-3v-5l1-2h0l1-1h1c2 0 3-1 5-1z" class="K"></path><path d="M602 225h3c0 1-1 2-2 4l-3 3c-1-1-1-2-2-3 2 0 2 0 4-1v-3z" class="R"></path><path d="M595 227h0l1-1h1c2 0 3-1 5-1v3c-2 1-2 1-4 1-1 0-3 1-4 0l1-2z" class="F"></path><path d="M602 309c7 1 13 2 19 6 0 2 1 4 0 6l-5-2c-3-1-6-2-8-4l-6-3c-2-1-3 0-4 0h0-1c2-2 3-2 5-3z" class="a"></path><path d="M411 799c1 0 3 2 3 3 3 1 4 1 6 1l2-1v1c-1 2-3 4-5 5-4 3-8 5-13 7h-3v-1l6-4c3-3 4-7 4-11z" class="D"></path><path d="M414 802c3 1 4 1 6 1l2-1v1c-1 2-3 4-5 5l-1-3c-1 0-2 0-2-1v-2z" class="G"></path><path d="M487 191c0-1 0-3 1-4 1-5 3-9 6-13a79.93 79.93 0 0 1 13-13c2-1 4-2 6-2l-1 1c-3 1-4 4-6 6 0 1-1 2-2 2-2 1-2 2-3 3-4 4-7 9-10 14-2 3-2 8-4 12-1-2 1-4 0-6z" class="b"></path><path d="M537 573v1c1 1 1 1 2 3h-1v-1c0 1-1 2 0 4v7c1 2 1 2 1 4 1-1 1-1 1-2s0 0 1-1v-8h-1v-4h1 0c0 3 0 7 1 10v5 5 5h-1v1h-1v9h-2c0-2 0-5-1-7v-1-6-24z" class="C"></path><path d="M541 601c0-3-1-6 0-9l1-1v5 5h-1z" class="H"></path><path d="M537 597c1-2 0-5 1-7v-1c1 4 1 8 2 12v1 9h-2c0-2 0-5-1-7v-1-6z" class="G"></path><path d="M546 427l1 2v-1h1l-1 10 1 8h1v15 7l-1-1c0-2-1-4-2-7v4 1c-1-2 0-5-1-7v7l-1-1 2-37z" class="C"></path><path d="M546 460l1-22 1 8h1v15 7l-1-1c0-2-1-4-2-7z" class="P"></path><path d="M349 738h3 1c0 1 0 1 1 1v1h-1s-1 1-2 1l-3 1c0 1-1 1-2 1l-1 1v-1c-2 1-5 2-7 2-5 1-10 2-15 1l4-3h1l1-1c1 0 2 0 3-1 2-1 3-1 5-1 3-1 5 0 8-1h2 2v-1z" class="K"></path><defs><linearGradient id="E" x1="516.222" y1="221.088" x2="524.476" y2="215.273" xlink:href="#B"><stop offset="0" stop-color="#eebf8d"></stop><stop offset="1" stop-color="#e2cfb1"></stop></linearGradient></defs><path fill="url(#E)" d="M515 206h4c7 8 5 30 5 39-1 0-1-4-1-6l-2-18-2 2-1-4c-1-3-1-4-2-6 0-2 1-3 1-4 0-2-1-2-2-3h0z"></path><path d="M517 209c2 4 3 8 4 12l-2 2-1-4c-1-3-1-4-2-6 0-2 1-3 1-4z" class="J"></path><path d="M405 310h2c3-2 6-3 10-4l2 2c-5 2-13 6-17 10l-1 1c0-1 0-1 1-2-1 0-3 2-4 3 0 1-1 1-1 2l-1-2h0c-1-1-2-3-2-5h1l-1-1v-1 1c4 0 8-2 11-4z" class="K"></path><path d="M394 313v1c4 0 8-2 11-4-2 3-7 7-7 10 0 1-1 1-1 2l-1-2h0c-1-1-2-3-2-5h1l-1-1v-1z" class="P"></path><path d="M667 769c0-1 0-2 1-2 0-1 0-1-1-2v-3l1-1v3c1 1 2 2 3 2v1c1 1 1 2 1 4h-1c-2 3 0 5-1 7 0 2 0 4-1 7v1c-1 2 0 3-1 4-1-1-1-1-1-3-1-1-2-2-3-4h0l-2-2-2-2-2-1c4-1 6-2 9-3v-6z" class="N"></path><path d="M596 287c9-5 19-9 30-7-2 2-3 1-6 2-11 2-20 6-29 13l-1-1c1-2 2-2 2-4 2-1 3-2 4-3z" class="R"></path><path d="M409 799l1-1h1v1c0 4-1 8-4 11l-6 4v1h3 1 3 1 1c1-1 2-1 3-2h1l1-1c1 0 1-1 2-1v1c-1 1-1 1-2 1l-1 1c-2 2-4 2-6 3h-3l-1 1c-4 0-10 1-14-1h-1c-1 0-2-1-3-1 2 0 4 0 6-1 6 0 11-6 15-10 1-2 2-4 2-6z" class="P"></path><path d="M508 547c0 4 0 24 1 26 1-2 1-3 1-4h0v20h0c-2-1-1-5-2-7-1 2 0 6-1 8v-2-2c-1-1 0-2-1-3v-7c-1 0 0 0-1 1v1l-1 1h0v-3h-1l1-1v-2l1-1c1-2 1-9 0-12h1v-5c1-2 1-6 2-8z" class="L"></path><path d="M569 500v4c1-1 0-2 1-3v1l-4 41-2 23c0 5 1 11-1 16-1-7 0-14 0-20 1-21 2-42 6-62z" class="H"></path><path d="M543 236c5-3 9-8 14-10v1l1 2h0l1 1c-8 5-14 11-20 18-1 1-2 1-2 3l-1-1c1-2 1-3 2-5v-1l2-5c2-1 2-1 3-3z" class="F"></path><path d="M537 866c1-1 2-1 3-2s2-2 3-2c-1 2-1 3-2 5l-4 11c0 1-1 3-1 4l-7 16-1-1v-1c1-2 1-4 2-6 0-2 1-3 1-4v-1c1-2 1-4 0-6l6-13zm41-95v6c0 1-1 2-1 4l-1 1 1 1v1l-5 12c-3 6-6 11-7 17-2 2-3 3-3 6h-1v1c-1 2-3 3-4 5-1 0-1 1-2 1 9-18 17-36 23-55z" class="e"></path><path d="M342 746c3 0 5 0 7-1l2-1 3-2 2 1h0c-1 2-1 3-2 3-1 1-4 1-5 3v2l-1 1h0l-2 1h-1c0 3 0 4-2 6l-1 1-2-1-1-1c-1-1-1-2-1-4v-1l-1-2v-1h-2l4-1c0-1 1-2 1-2h2v-1z" class="S"></path><path d="M339 749l3-1c0 3-1 3-3 4 0 1 1 1 1 1l-1 2v-1h-1v-1l-1-2v-1h-2l4-1z" class="g"></path><path d="M342 746c3 0 5 0 7-1l2-1 3-2 2 1h0c-5 3-8 5-14 5l-3 1c0-1 1-2 1-2h2v-1z" class="H"></path><path d="M340 753c1-1 2-1 2-2 1 0 1 0 1 1l1 1h1c0 3 0 4-2 6l-1 1-2-1-1-1c-1-1-1-2-1-4h1v1l1-2z" class="P"></path><path d="M559 414h1v5 8 29h0l1 1c-1 5 0 9 1 13l-1-1s0-1-1-1c0-2-1-3-1-5h-1c0-1 0-2 1-2h-1c0 4 1 11 0 15-1-8-1-17-1-25 0-9 0-18 1-27l1-10z" class="H"></path><path d="M559 414h1v5 8l-1 1v-5l-1 5v-4l1-10z" class="C"></path><path d="M678 740c2 1 3 2 4 3 5 2 10 4 15 5h0c-1 1-2 0-2 1-2-1-3-1-4-1-1-1-3-1-4-2l-1 1c1 2 3 4 5 6h0 0c0-1-1-2-1-2l1-1h2v1h-1v1c0 1 1 3 0 5-1 1-1 2-3 2h-1c-2-1-3-2-5-3l-2-2c0-1-3-2-4-3h1 0 2 1c1 0 1 0 2 1 0 0 0 1 1 1l1 1h1c-1-4-5-4-6-8h0c-1-2-3-3-5-4l3-2z" class="P"></path><path d="M678 740c2 1 3 2 4 3v1l3 3 5 8h0c-2 0-2-1-3-2-2-3-4-5-7-7-1-2-3-3-5-4l3-2z" class="M"></path><path d="M407 836c1 3 4 7 7 8 3 2 7 3 11 1 10-2 16-11 21-18h0c0 2-1 3-2 5v1h0v1h1c-1 3-5 7-8 9-2 2-5 4-8 5l-1-1-5 1c-4 1-8 0-11-2-3-3-5-6-6-9l1-1z" class="a"></path><path d="M439 838c0 2-1 3-3 4l1 1c-2 2-5 4-8 5l-1-1c4-3 8-6 11-9z" class="Y"></path><path d="M439 838c1-2 3-4 5-6v1h0v1h1c-1 3-5 7-8 9l-1-1c2-1 3-2 3-4z" class="O"></path><path d="M477 373c0 1 0 3 1 4h0l1-1c2 11 1 23 2 34l1 17-1 1-6-54 2-1z" class="D"></path><defs><linearGradient id="F" x1="516.349" y1="227.368" x2="504.306" y2="217.345" xlink:href="#B"><stop offset="0" stop-color="#dfb68d"></stop><stop offset="1" stop-color="#f7dbad"></stop></linearGradient></defs><path fill="url(#F)" d="M507 236c-1-9 0-23 6-30h2 0c1 1 2 1 2 3 0 1-1 2-1 4l-2 4c0-1 0-1-1-2-2 7-4 15-4 23l-1 1c-1-1-1-2-1-3z"></path><path d="M515 206c1 1 2 1 2 3 0 1-1 2-1 4l-2 4c0-1 0-1-1-2l2-9z" class="V"></path><path d="M547 194c1-1 2-3 4-4h1c1 2 1 4 1 6 0 8-1 17-3 25l-1 1c0 1 0 1-1 1l-2-1c1-3 2-7 2-10 0-6-1-12-1-18z" class="I"></path><path d="M592 413c2 1 3 1 4 3l-1 1c2 1 3 2 5 2 1 0 1 1 2 1h-1c-1 1-3 1-4 2-5 2-8 7-10 12-1-4-2-7-3-10l1-2h1l1-4-3-1h1c2-1 5-2 7-4z" class="M"></path><path d="M587 418c5 2 8 2 13 1 1 0 1 1 2 1h-2l-1 1c-4 0-9 1-13 1l1-4z" class="L"></path><path d="M592 413c2 1 3 1 4 3l-1 1c2 1 3 2 5 2-5 1-8 1-13-1l-3-1h1c2-1 5-2 7-4z" class="M"></path><path d="M538 542l1-1v-1-5c0 3 0 6 1 8v4c1 6 0 12 1 18v11h0-1v4h1v8c-1 1-1 0-1 1s0 1-1 2c0-2 0-2-1-4v-7c-1-2 0-3 0-4v1h1c-1-2-1-2-2-3v-1-6-11 2 1l1-17z" class="Z"></path><path d="M428 208v1c1-1 3-1 4-1 2 0 3-1 4-2 1 0 1 0 1-1l1-2h1v12c-4-3-6-4-11-4h-1c-6 1-11 7-14 12-4 6-8 13-12 20l-7 18-1 1h0c6-20 17-43 34-56 0 1 1 1 1 2z" class="C"></path><path d="M647 627v-2c0 1 0 1 1 3 1 7 4 16 7 23l7 18c0 1 1 3 1 4 0 2 0 2 1 4v1 1 1 1c-2-2-2-4-4-6h0c-3-6-5-12-7-19-2-9-5-19-6-29z" class="T"></path><path d="M648 776h-2c-5 0-9-1-12-4-5-6-5-11-4-18 1 2 1 4 1 6-1 4 0 6 2 10 1 0 1 1 2 2v-1c-1-1-2-3-2-5h-1c0-3 1-5 0-7h1v-2c1 0 0 0 1-1-1 3-1 6-1 9h0c1 3 3 6 5 7s4 2 6 2c2 1 4 0 6 1 5 0 11-4 14-8v1h2v4c-1 2-2 3-4 4-2 0-4 1-5 2l-9-2z" class="a"></path><path d="M664 768h2v4c-1 2-2 3-4 4-2 0-4 1-5 2l-9-2h1c6 0 12-3 15-8z" class="S"></path><path d="M413 785c2 0 3-1 5 0s4 2 5 5c1 2 1 5-1 8h0l-1 2h-1c-1 0-2 1-2 1-2-1-3-2-5-4-1-2-2-5-3-8l4-2h0l-1-2z" class="Z"></path><path d="M417 789c1 0 2 0 3 1 1 0 1 1 1 2s1 3-1 4l-1 1-2-1c-1-1-2-3-2-5l2-2z" class="L"></path><path d="M414 787h3v1 1l-2 2c0 2 1 4 2 5l2 1h1l2-1c-1 2-2 3-2 4-1 0-2 1-2 1-2-1-3-2-5-4-1-2-2-5-3-8l4-2z" class="G"></path><path d="M664 712c3 0 7 0 10 1 1 0 4 2 5 1h2l3 6c-2 0-3-1-4-2-11-5-25-5-37-2 1 0 1-1 2-1v-1h0c-1 0-2 0-3 1h-1c-8 1-17 1-24 4h-1l1-1c5-3 12-3 18-4 10-1 19-2 29-2z" class="a"></path><path d="M491 868c2 0 4 0 6 1 5 12 10 24 12 37-2-2-2-3-3-5 0-1-1-2-1-3-1-3-2-5-4-7 0-1-1-1-1-1-1-1-2-2-2-3 1-2-1-4-1-5-1-2-1-4-2-6-1-3-3-5-4-8z" class="h"></path><path d="M368 767v1l5 5 6 3c-2 2-4 1-7 2v1h-2l-1 1c-1 0-1 1-2 2 0 1 0 1 1 1l-1 2s0 1-1 2h0v4l-1 1 1 1h-1 0c-1-1-1-2-1-3l-1-1v-1c-1-1-1-3-1-4v-3c1-2 1-4 1-6l1-1v-1c0-1-1-1-1-2v-1-1h0 1l1 1c1 0 1 0 1-1 1-1 1-1 1-2h1z" class="J"></path><path d="M365 771l1 1c0 1 0 1 1 2h0 4l-1 2c-2 0-2 1-4 1-1-2-1-4-1-6z" class="R"></path><path d="M368 767v1l5 5-2 1h0-4 0c-1-1-1-1-1-2l-1-1v-1c1 0 1 0 1-1 1-1 1-1 1-2h1z" class="O"></path><path d="M434 192v-1c2-2 5-4 7-5 14-12 32-21 50-26 4-1 7-2 11-2h0l-9 3c-11 3-20 7-30 13h0l1 1c3 2 6 1 10 2-3 1-5 1-8 2-2 0-10 4-12 3 3-1 8-3 10-5-1-1-1-2-2-3-7 3-16 9-21 15h0l-5 4c-1-1-1-1-2-1z" class="I"></path><path d="M685 737h3c1-1 1-1 2-1 2 2 5 4 7 6h1c2 2 5 2 7 3h2l3 1h1l1 1h-7c-2 0-6-1-7-1l1 1c-1 1-1 1-2 1-5-1-10-3-15-5-1-1-2-2-4-3l-1-1 1-1 2-1h5z" class="F"></path><path d="M395 659v-1-4c1-4 1-8 1-12 1-1 0-1 1-1v-1c1 1 1 2 1 3l1 1c1 6 0 13 0 20 0 3-2 7-4 10h0c-1 0-1 0-1 1-3 3-8 8-12 11 0-2 8-10 9-12l-2-2 6-13z" class="h"></path><path d="M395 659v3l-1 4v1c2-3 2-6 4-8-1 7-3 10-7 15l-2-2 6-13z" class="T"></path><path d="M585 187l-6-3c-3-2-7-4-10-5s-7-1-9-2c1-2 3-3 5-4h1v-1c-13-6-26-13-41-15-1 0-1 0-2-1h1c3 1 6 1 8 2 15 3 30 9 43 17l-2 1c5 3 11 7 15 11-1 1-1 1-3 0z" class="R"></path><path d="M585 187v-1c-8-5-15-8-24-10l3-1c4-1 6 0 9 1 5 3 11 7 15 11-1 1-1 1-3 0z" class="N"></path><path d="M562 829h0c1 1 1 2 1 3h1v1c0 1-1 2-1 3-1 1-2 2-3 4 0 1 0 2 2 2l11 6h0c-2-3-11-6-11-9h0 1c2 5 9 5 11 9 0 0 0 1-1 1-1 1-3 0-4 0-4 0-7 0-11 1h-1c-2-1-2-1-4 0h-1c0-2 0-4 2-6v-3c0-1 2-2 2-3s1-2 1-3l1-2 4-4z" class="H"></path><path d="M562 829h0c1 1 1 2 1 3h1c-3 2-3 2-6 2v-1l4-4z" class="C"></path><path d="M514 157c1 1 1 2 2 3l1 2v2 1c1 1 1 2 2 3v1c0 1 0 2 1 3v1c0 2 1 3 2 4v4c0-1 0-1-1-1-4-1-9-1-13 0 1-7 2-14 4-20l1-1 1-2z" class="T"></path><path d="M573 348c2-5 4-10 3-15v-3c1 1 3 2 4 3 1 0 2 0 4-1 2-2 5-5 6-8 1-2 1-4 1-6 1-1 2-2 3-2v4c1 1 2 1 3 2 2 0 4-1 5-1 5-1 8-1 12 0v1c-7-2-16 2-21 6-9 5-14 14-18 22l-2-2z" class="U"></path><path d="M482 427v1c1 1 2 3 1 4h1s0-1 1-2l1 11-2 3 1 11 1 4v32c0 2-1 6 0 8v30h-1l-1-37-1-42v-7c-1-1-1-3-2-5v-10l1-1z" class="C"></path><path d="M482 428c1 1 2 3 1 4h1s0-1 1-2l1 11-2 3c-1-5-2-10-2-16zm-31 356c2-1 0-1 2-3v1h1l3 6h0c3 6 6 11 9 18 1 2 2 3 1 7l-1 1c-6-7-11-15-16-23l-1-2c1-2 2-2 3-4l-1-1z" class="J"></path><path d="M537 450v6h1v-5l1 21v24c0 4 0 8-1 11v1 34l-1 17v-1-2-106z" class="T"></path><path d="M425 306l3 3c2 0 3 0 4 1l1 2h-3c-2 1-5 3-7 4-4 2-7 2-11 4-2 1-4 4-6 4v-1-4l-2 1-2-2c4-4 12-8 17-10 2 0 5-1 6-2z" class="F"></path><path d="M425 306l3 3c-5 1-18 4-21 10h0 1c1-1 2-1 4-1-2 2-5 3-6 5v-4l-2 1-2-2c4-4 12-8 17-10 2 0 5-1 6-2z" class="S"></path><path d="M480 194c0-1 0-2 1-3 2 1 3 1 5 3l1-3c1 2-1 4 0 6s0 5 0 7v5c-1 3 0 5 0 7 1 6 1 12 3 18-2-2-5-7-6-9v-2c-2-2-1-5-2-7-1-7-2-15-2-22z" class="D"></path><path d="M486 200v6h-1-1l-2-1v-2s1-1 2-1h0c1 0 1 0 1-1l1-1z" class="F"></path><path d="M480 194c0-1 0-2 1-3 2 1 3 1 5 3h-1c0 1-1 2-1 3-1-1-1-2-1-2-1 0-3-1-3-1z" class="C"></path><path d="M413 296c1-2 2-4 4-5s3-1 6 0h0c2 0 6 2 6 4 1 1 0 4 0 5-1 2-2 3-3 5h0l-1 1c-1 1-4 2-6 2l-2-2v-1h1l-4-1 1-2-1-2c-2-1-1-2-1-4z" class="Q"></path><path d="M416 301c2 1 3 1 5 1 1 1 2 1 4 2-3 1-5 1-7 1l-4-1 1-2 1-1z" class="O"></path><path d="M413 296c1-2 2-4 4-5s3-1 6 0h0c2 0 6 2 6 4 1 1 0 4 0 5-1 2-2 3-3 5h0l-1 1c-1 1-4 2-6 2l-2-2v-1h1c2 0 4 0 7-1l1-2c1-1 3-3 3-5s-1-3-2-4c-2-1-4-2-6-2h-1c-3 1-4 2-6 4 0 1 0 3 1 4 0 1 1 1 1 2l-1 1-1-2c-2-1-1-2-1-4z" class="I"></path><defs><linearGradient id="G" x1="539.914" y1="602.978" x2="546.586" y2="602.022" xlink:href="#B"><stop offset="0" stop-color="#211818"></stop><stop offset="1" stop-color="#23231f"></stop></linearGradient></defs><path fill="url(#G)" d="M544 573l2 36c0 1 0 6 1 8 0 1 1 4 0 6 0 2 0 6-1 8v1h0l-1-1h0c-2 2-2 3-2 4s0 1-1 1c0 0 0-1-1-2l1-4c1-2 1-2 0-4v-7c0-6-1-11-1-17v-1h1v-5-5-5-10c1-1 1-2 2-3z"></path><path d="M542 596c1 7 1 14 1 20 0 4 0 7-1 10v-7c0-6-1-11-1-17v-1h1v-5z" class="B"></path><path d="M388 265c1-4 2-9 4-13 5-15 13-27 22-40 3-3 8-8 9-12 0-1 0-2-1-4-2-1-4-2-5-3-2-2-2-3-2-5 1-2 2-2 3-2 3 1 2 3 3 6 4 0 5 1 7 4 2-2 4-3 6-4 1 0 1 0 2 1-14 12-27 26-36 42-5 10-8 20-11 31l-1-1z" class="K"></path><path d="M575 175c4 3 9 6 14 9 3 3 7 6 10 9 2 1 4 3 5 3v-1c2-1 4-3 6-3v-1c0-2 1-3 1-4 2-1 2-1 4-1l2 2c-1 2-1 4-3 5-2 2-5 4-7 6l4 6v1l1 2h0 0c-1-1-2-2-4-2v-1c-4-4-8-8-13-12l-3-3c-1 0-2 0-3 1-3 0-10 1-13-1h1c4-1 8-1 12-1l-1-2c-4-4-10-8-15-11l2-1z" class="I"></path><defs><linearGradient id="H" x1="459.373" y1="311.661" x2="446.971" y2="316.509" xlink:href="#B"><stop offset="0" stop-color="#daa973"></stop><stop offset="1" stop-color="#edd6a9"></stop></linearGradient></defs><path fill="url(#H)" d="M434 287c19 11 31 30 36 52 2 10 4 19 5 29 0 2 1 2 1 3s1 1 1 2l-2 1c-4-23-8-46-22-65-5-7-11-13-18-18h1 1v-1l-3-2v-1z"></path><defs><linearGradient id="I" x1="399.37" y1="233.604" x2="422.07" y2="236.389" xlink:href="#B"><stop offset="0" stop-color="#1d1f1f"></stop><stop offset="1" stop-color="#3c2d25"></stop></linearGradient></defs><path fill="url(#I)" d="M394 261l7-18c4-7 8-14 12-20 3-5 8-11 14-12-1 2-1 2-3 4-1 0-2 1-2 2s-2 3-3 4c-3 3-5 5-6 8l-1 2v1l1-1 1 1c-1 1-2 3-3 4l-1 3c-1 1-1 2-2 4h0l2-2 2 1v1c-2 2-5 3-7 5s-5 6-6 9l-2 2c0 1 0 1 1 1l-2 3v-3c-1 0-1 1-2 1z"></path><path d="M504 261h0l-5-14c-3-8-6-19-3-28 1-5 4-10 5-14 2-6 3-11 5-17 0 10-4 19-6 28-3 15 1 27 7 40 2 5 4 8 4 14l-1 1v1-1c-1-1-2-3-3-4l-3-6z" class="I"></path><path d="M474 848c1 1 3 1 4 2h-1c1 1 2 1 3 2 3 1 4 3 6 5l1 2 4 9c1 3 3 5 4 8 1 2 1 4 2 6 0 1 2 3 1 5-2-5-6-8-8-13-5-7-13-10-21-12 3-2 5-2 7-6-1-1-1-3-2-4 0-2-2-2-4-3 1-1 2-1 4-1z" class="K"></path><path d="M474 848c1 1 3 1 4 2h-1c1 1 2 1 3 2 3 1 4 3 6 5l1 2c0 1 0 2-1 3-1-1-2-2-4-3l-1 1-1-1c0-1 1-2 2-2v-1-1c-2-1-3 0-5 0h0l-1 1c-1-1-1-3-2-4 0-2-2-2-4-3 1-1 2-1 4-1z" class="R"></path><path d="M481 860l1-1c2 1 3 2 4 3 1-1 1-2 1-3l4 9c1 3 3 5 4 8 1 2 1 4 2 6 0 1 2 3 1 5-2-5-6-8-8-13l1-2c0-1 0-2-1-3h0l-2-2-2-2v-1c0-2-4-3-5-4z" class="M"></path><path d="M593 804c1 1 1 2 2 4l-2 3c-4 6-11 11-17 15-3 2-5 4-7 5s-3 1-5 2v-1h-1c0-1 0-2-1-3l-1-1 1-2-1-1c2-1 4-3 6-5l6-6 2 2h2 0c1 1 2 1 3 1 5-1 11-9 13-13z" class="U"></path><path d="M578 819h2v2h-1c-1-1-1-1-1-2z" class="I"></path><path d="M566 824l-1 1v2c-1 1-1 2-1 4h5c-2 1-3 1-5 2v-1h-1c0-1 0-2-1-3l-1-1 1-2c1-1 2-2 4-2z" class="F"></path><path d="M573 814l2 2c-1 2-2 3-3 5-1 1-3 2-4 3h-2 0c-2 0-3 1-4 2l-1-1c2-1 4-3 6-5l6-6z" class="M"></path><path d="M658 687c1 0 2 0 3-1l1 2h3l2 3v1h-3v4l-2-1c-2 0-2 2-4 2l-2-1c0-1 0-2 1-2-4-3-16-2-20-2-3 0-11 1-14 4v1c-4 2-8 3-11 5l-2 1v-2-1l2-3c3-1 6-3 8-4 9-4 20-6 30-6h4c1 1 2 1 4 1v-1z" class="I"></path><path d="M662 688h3l2 3v1h-3c0-1-1-2-2-4z" class="M"></path><path d="M606 209c12 9 21 25 26 39 1 4 2 8 4 12h-1l-1 1c-1-1-2-3-4-4-2-2-4-3-5-4 1-1 1-2 1-4l-1-1c1-1 1-1 1-2l-4-8-3-4c-2-3-4-4-6-7-2-2-5-3-7-4 1-1 1-1 3-1l1 1 1-1c1 1 2 1 3 1 0-2 0-2-1-4l-2-4c-2-2-3-4-5-5v-1z" class="J"></path><path d="M626 249c2 1 3 3 5 4 1 3 2 5 4 7l-1 1c-1-1-2-3-4-4-2-2-4-3-5-4 1-1 1-2 1-4z" class="M"></path><path d="M367 735c4 0 9-1 12 0 6 1 11 4 16 8 0 2 0 3 1 5 2 2 2 3 1 5l-1 1c-1-2-3-4-5-6-4-3-8-6-13-7-8-3-15-2-22 2l-2-1-3 2-2 1c-2 1-4 1-7 1v-1l3-2v1l1-1c1 0 2 0 2-1l3-1c1 0 2-1 2-1h1v-1c-1 0-1 0-1-1h-1l15-3z" class="U"></path><path d="M379 735c6 1 11 4 16 8 0 2 0 3 1 5 2 2 2 3 1 5l-1 1c-1-2-3-4-5-6l2-2c-1-1-1-2-2-3-2-1-4-2-7-4-2-1-3-1-5-4z" class="F"></path><path d="M465 825h3c1 0 1 1 1 2h0c2 1 3 2 5 3-1 2-1 3-1 5 1 1 1 2 2 2 1 2 1 5 3 7 1 1 1 2 1 3h0c1 2 2 2 3 4h-1l-1 1c-1-1-2-1-3-2h1c-1-1-3-1-4-2-2 0-3 0-4 1h-7 0c-2 0-3 0-5-1v-1c1-3 9-4 11-6 1-1 1-1 2-1h0c-2-3-5-4-8-6l-12-8 2-1c3 3 6 5 10 6 0-1 0-3 1-4l1-1v-1h0z" class="E"></path><path d="M458 848c1 0 1 0 2-1 0 0 2-1 3-1h5c-3 1-4 1-5 3h0c-2 0-3 0-5-1z" class="H"></path><path d="M468 846c2 0 4 1 6 2-2 0-3 0-4 1h-7c1-2 2-2 5-3z" class="D"></path><path d="M475 837c1 2 1 5 3 7 1 1 1 2 1 3-1-1-1 0-2-1-1 0-2-1-3-2 0-2 0-2 1-3v-4z" class="f"></path><path d="M465 825h3c1 0 1 1 1 2h0v1c-1 1-1 2-1 3v1c0 1-1 1-2 1-2 0-3-1-3-2s0-3 1-4l1-1v-1h0z" class="F"></path><defs><linearGradient id="J" x1="561.93" y1="329.846" x2="584.222" y2="333.176" xlink:href="#B"><stop offset="0" stop-color="#d4af85"></stop><stop offset="1" stop-color="#ffe3b2"></stop></linearGradient></defs><path fill="url(#J)" d="M592 290c0 2-1 2-2 4l1 1c-11 11-20 23-25 38-4 9-5 20-7 30l-4 24-2-1v-1c0-6 2-14 3-20 3-22 8-44 22-62 4-4 9-8 13-12l1-1z"></path><path d="M630 754c2-6 6-11 12-15 9-5 21-6 31-3l2 4c-1 0-1 1-2 1-8-3-17-2-25 2-4 2-9 5-11 9l-3 4c-1 1 0 1-1 1v2h-1c1 2 0 4 0 7h1c0 2 1 4 2 5v1c-1-1-1-2-2-2-2-4-3-6-2-10 0-2 0-4-1-6z" class="U"></path><path d="M471 402h2l3 35c1 6 1 14 1 20-2 3-1 6-2 9v-1c0-1-1-2-1-3l-1-4c-1-3-3-4-5-5-3-1-6-1-8 0-3 2-5 4-6 7v1c0-3-2-6-3-9 0-1-1-2 0-3v2l2 6h1c1-1 1-2 2-3 2-2 5-3 8-3 4 0 7 2 9 5h1l-1-16c0-2 0-5-1-7-1-6-5-12-10-17 1 5 2 8 2 13h-1c0-5-1-10-3-14l-4 5c-4 5-9 14-7 21v5c0-1 0-2-1-3 0-2-1-4 0-6 0-6 3-11 6-17 1-1 3-3 4-5h3c5 1 9 8 12 12 0-8-1-17-2-25z" class="H"></path><path d="M348 752h1l1-1 2 3c1 0 2-1 4 0 1 0 1 0 2-1 1 1 1 1 2 1v1l1 1c0 2 0 4-1 6v1l-3 1c0 1-1 2-2 3 0 1 0 1-1 2-1-1-2-1-4 0l-3-4c0 2-1 4-2 5h-2l1-1v-1h-3c0 1 1 1 1 2-1-1-2-1-3-2-3-3-4-4-5-8h0 1l1-1h0 4l2 1 1-1c2-2 2-3 2-6h1l2-1z" class="F"></path><path d="M348 764c3-2 6-4 10-4 1 1 1 2 2 3l-3 1c0 1-1 2-2 3 0 1 0 1-1 2-1-1-2-1-4 0l-3-4 1-1z" class="P"></path><path d="M347 765l1-1c2 1 3 2 5 2 1 0 3-1 4-2 0 1-1 2-2 3 0 1 0 1-1 2-1-1-2-1-4 0l-3-4z" class="C"></path><path d="M348 752h1l1-1 2 3c1 0 2-1 4 0 1 0 1 0 2-1 1 1 1 1 2 1v1 2h-6c-1 0-1 1-2 1l-1 1c-4 2-6 7-11 5-2-1-4-2-5-4h-1 0 1l1-1h0 4l2 1 1-1c2-2 2-3 2-6h1l2-1z" class="S"></path><path d="M348 752h1l1-1 2 3c-1 1-2 2-4 3-1 3-3 5-6 6-1 0-2-1-3-1l-3-3h4l2 1 1-1c2-2 2-3 2-6h1l2-1z" class="G"></path><path d="M348 752h1l1-1 2 3c-1 1-2 2-4 3-1 0-1 1-2 1h-1c1-2 1-4 1-5l2-1z" class="E"></path><path d="M366 699l2 1h1l3-2c1 1 1 1 2 1l-2 1c0 1 0 1 1 1 1 1 1 1 2 1h22s3 1 4 0c1 0 1 0 2 1h0l10 7c3 2 6 4 9 5-1 2-2 4-4 4-1-2-3-3-5-5-11-8-26-10-39-8h-1c-5 1-9 2-14 4l-1-1h0c1-3 2-5 4-7 1-1 3-2 4-3z" class="U"></path><path d="M366 699l2 1h1l3-2c1 1 1 1 2 1l-2 1c0 1 0 1 1 1 1 1 1 1 2 1-3 0-6 1-9 2-2 1-5 3-8 5h0c1-3 2-5 4-7 1-1 3-2 4-3z" class="P"></path><defs><linearGradient id="K" x1="439.951" y1="358.877" x2="455.813" y2="326.476" xlink:href="#B"><stop offset="0" stop-color="#f0d3a8"></stop><stop offset="1" stop-color="#f9f7eb"></stop></linearGradient></defs><path fill="url(#K)" d="M468 384c-1-4-2-13-6-15s-7 0-10-4l1-1h1c2 1 4 0 6-1-2-13-10-27-21-35-6-4-14-6-21-6-6 4-10 6-14 12 0 1 0 1-1 2 1-2 1-5 2-6 3-4 8-7 12-8 2-1 4-2 7-1 4 0 11 3 13-2 1-1 1-2 1-3 1 1 2 2 2 4 1 4 1 6 5 10 1 1 3 2 4 2 2-1 3-1 5-2v1c-1 2 0 4 0 7 1 5 4 11 6 16l6 16c1 4 3 10 3 14h-1z"></path><path d="M664 767h0v-2l-1-1c-2-3-4-6-8-7-2-2-7-1-10 0h-1l3-3c2-3 5-7 10-7 3 0 6 0 9 2 1 2 3 4 3 6v2h1v1 2c1 1 4 2 5 2 2 1 3 1 3 3 0 1 0 2-1 3-1 0-2 1-3 0l-1-1h-2v-1c-1 0-2-1-3-2v-3l-1 1v3c1 1 1 1 1 2-1 0-1 1-1 2v6c-3 1-5 2-9 3h-1c1-1 3-2 5-2 2-1 3-2 4-4v-4h-2v-1z" class="W"></path><path d="M664 767h0v-2l-1-1c-2-3-4-6-8-7-2-2-7-1-10 0h-1l3-3c2-3 5-7 10-7 3 0 6 0 9 2 1 2 3 4 3 6l-1 1c-3-2-5-5-7-6l1-1 3 3 1 1v-1c-1-2-2-3-4-4-4 0-7 0-10 2l-1 1h2c2-1 6 0 8 1s4 3 4 4v1h-1c-4-2-10-3-15-4l-1 1c2 1 5 1 7 1 3 1 8 4 10 7 1 2 1 4 1 5 1 1 1 1 1 2v6c-3 1-5 2-9 3h-1c1-1 3-2 5-2 2-1 3-2 4-4v-4h-2v-1z" class="D"></path><path d="M558 476c1-4 0-11 0-15h1c-1 0-1 1-1 2h1c0 2 1 3 1 5 1 0 1 1 1 1l1 1 6 5v1c-4 0-4-3-7-4l-1 9 8-3c-2 1-8 5-8 7-3 16 1 113-4 117l2-126z" class="E"></path><path d="M649 815c-2 1-3 2-5 2-2 1-3 0-5 1h-6c-1-1-3 0-4 0l-1-1h-4l-1-1h-2v-1c-2 0-3-1-3-1l-1-1c-3-1-7-5-8-8-1-2-2-6-2-8 1-2 0-2 0-3s2-1 3-2v5c2 2 3 3 5 3h2l1-1 2 1c0-1 1-2 1-2 1-1 1-2 1-2 1 3 2 6 4 9v1c3 4 8 8 13 9 3 1 7 0 10 0z" class="L"></path><path d="M621 798l3 9c-1 0 0 0-1 1h0-1c-1-1-1-2-1-3s0-1-1-2c-1 1-1 1-2 1s-2-1-3-1c2-1 3-1 5-3 0-1 1-2 1-2z" class="D"></path><path d="M624 807s3 3 3 4c3 2 6 3 9 5-6-1-18-4-22-9-2-2-4-4-3-7 1 1 3 2 4 3 1 0 2 1 3 1s1 0 2-1c1 1 1 1 1 2s0 2 1 3h1 0c1-1 0-1 1-1z" class="I"></path><path d="M486 423c1 4 0 12 1 14l1 1c0 2 0 4 1 6h1v-15c1 9 0 19 0 29l1 19 1 36c2 2-1 7 1 10h1l-1 16c-1 2 0 4-1 6h-1v-1-2l-1-4-1-1c1-4 1-9 1-13l-1-37-2-29v1h-1l-1-4-1-11 2-3-1-11h0 1v-7z" class="E"></path><path d="M487 451v7 1h-1l-1-4c1-1 1-2 2-4z" class="J"></path><path d="M484 444l2-3 1 10c-1 2-1 3-2 4l-1-11zm8 69c2 2-1 7 1 10h1l-1 16c-1 2 0 4-1 6h-1v-1-2l-1-4 2-25z" class="W"></path><path d="M572 415l4-1 1 1 6 3 1-1 3 1-1 4h-1l-1 2c1 3 2 6 3 10 0 2-1 3-2 5l-15 63v-1c-1 1 0 2-1 3v-4c1-14 6-28 9-41l-3-6c-2-1-4-1-6-1-4 1-6 3-8 5l-1-1c2-2 4-3 6-4s6-1 8 0h1l3 3 1 1c2-6 4-13 4-20 0-6-7-14-11-19h-1l-4 7h-2c-1 2-1 4-1 6v3l-1-2c-1-2-1-5 0-8 2-4 5-7 9-8z" class="E"></path><path d="M565 424l1-2c1-3 2-5 5-6l1 1h-1l-4 7h-2z" class="O"></path><path d="M572 415l4-1 1 1 6 3 1-1 3 1-1 4h-1l-1 2c1 3 2 6 3 10 0 2-1 3-2 5-1-2-1-5-2-7-2-7-7-12-11-17z" class="W"></path><path d="M577 415l6 3 1-1 3 1-1 4h-1l-1 2c-2-2-3-4-5-5-1-2-2-2-2-4z" class="B"></path><path d="M583 418l1-1 3 1-1 4h-1c-1-1-2-2-2-4z" class="J"></path><path d="M609 227h4c2 3 4 4 6 7l3 4 4 8c0 1 0 1-1 2l1 1c0 2 0 3-1 4-6-3-11-5-17-6l-2-1c-3 0-6-1-9-1v-1c2-1 5-2 7-3h5c-2-2-4-3-6-5-1-1-1-2 0-4 1-3 3-4 6-5z" class="N"></path><path d="M609 241h9 0c1 1 3 2 4 3v1l3 3 1 1c0 2 0 3-1 4-6-3-11-5-17-6l-2-1c-3 0-6-1-9-1v-1c2-1 5-2 7-3h5z" class="F"></path><path d="M604 241l1 1c2 1 8 0 9 1l-1 2 1 1h0-3c-1 0-3-1-5 0h0c-3 0-6-1-9-1v-1c2-1 5-2 7-3zM382 686c4-3 9-8 12-11 0-1 0-1 1-1-3 6-6 9-12 13 11 1 21 3 31 7 3 1 6 3 9 5l1 2c-2 0-2-1-3 0h-1 0c-3-2-6-2-9-4-3-1-5-3-8-3-7-2-20-3-26-1-1 1-2 1-3 2 1 2 2 2 2 3l-2 1c-1 0-1 0-2-1l-3 2h-1l-2-1c-1 1-3 2-4 3l-2-3 3-6c1 0 1-1 1-2l7-10h1c1 0 1-1 1-2 2 0 2-1 4-1l1 1c-1 3-2 3-4 5l1 2-1 2h1c1 0 2 0 3-1h2c1 0 2 0 2-1z" class="U"></path><path d="M366 699c0-1 1-2 2-3s2-1 3-1l1 2v1l-3 2h-1l-2-1z" class="N"></path><path d="M643 622l2-2v8h0l1-1h1c1 10 4 20 6 29 2 7 4 13 7 19h0c2 5 4 11 8 15l-1 1-2-3h-3l-1-2c-1 1-2 1-3 1l-3-2c0-2-1-3-1-4 1-2 1-2 3-3h0c-1-2-2-3-3-5 0-2-1-4-2-6-1-3-2-6-4-9-1-3-4-6-5-9-2-3-3-6-4-9 0-3 0-6 1-8l1-2v-2-2-2c1-1 1-2 2-2z" class="V"></path><path d="M645 640l2 4c0 1 0 1 1 2v2c1 2 2 3 3 5s1 5 2 7h0l-1 1c-4-5-8-11-10-17 1 0 2 1 3 1v-4h-1l1-1z" class="S"></path><defs><linearGradient id="L" x1="638.14" y1="630.186" x2="647.759" y2="635.014" xlink:href="#B"><stop offset="0" stop-color="#0f0e0b"></stop><stop offset="1" stop-color="#302927"></stop></linearGradient></defs><path fill="url(#L)" d="M640 632l1-2v-2-2-2c1-1 1-2 2-2 0 2 0 11 1 12h0c1 1 1 2 1 3v1 2l-1 1h1v4c-1 0-2-1-3-1-1-5-2-8-2-12z"></path><path d="M657 678v-2l-1-1 1-1 8 14h-3l-1-2c-1 1-2 1-3 1l-3-2c0-2-1-3-1-4 1-2 1-2 3-3h0z" class="B"></path><path d="M655 685c0-2-1-3-1-4 1-2 1-2 3-3v1c1 3 2 5 4 7-1 1-2 1-3 1l-3-2z" class="K"></path><path d="M640 632c0 4 1 7 2 12 2 6 6 12 10 17l4 9c0 1 1 2 1 4l-1 1 1 1v2c-1-2-2-3-3-5 0-2-1-4-2-6-1-3-2-6-4-9-1-3-4-6-5-9-2-3-3-6-4-9 0-3 0-6 1-8z" class="C"></path><path d="M597 739l1-1c-1 4-2 8-2 12l-1 6-1 12-1 8h-2c-1 1-1 2-1 3h-1-1l-8-1v1-1c-2 2-2 4-3 6v-1l-1-1 1-1c0-2 1-3 1-4v-6l4-9c1-5 4-11 7-16 0-1 1-3 2-4l1-3c2 1 3 1 4 1l1-1z" class="Q"></path><path d="M591 749c2 1 2 2 2 5h0c0 3 1 6 1 9v-4h0c1-1 1-2 1-3l-1 12-1 8h-2c-1 1-1 2-1 3h-1l1-7c1-4 3-14 0-18h-1l-2 2h0c1-3 2-5 4-7z" class="C"></path><path d="M593 754h0c0 3 1 6 1 9v-4h0c1-1 1-2 1-3l-1 12-1 8h-2c1-8 2-15 2-22z" class="P"></path><path d="M597 739l1-1c-1 4-2 8-2 12l-1 6c0 1 0 2-1 3h0v4c0-3-1-6-1-9h0c0-3 0-4-2-5l-2-3c0-1 1-3 2-4l1-3c2 1 3 1 4 1l1-1z" class="J"></path><path d="M589 746l2 3c-2 2-3 4-4 7h0v1l-7 20v1 1-1c-2 2-2 4-3 6v-1l-1-1 1-1c0-2 1-3 1-4v-6l4-9c1-5 4-11 7-16z" class="c"></path><path d="M582 762c0 2 0 5-1 7 0 1-1 2-1 4l-1 2-1 2v-6l4-9z" class="i"></path><path d="M388 634c-1-3 0-7 0-10h0c1 0 1 1 1 1l3 3c0 3-1 9 0 11l1-1v4l-1 1c-1 4-2 7-4 11 0 1 0 2 1 3h1c1 0 1 0 2-1v3l-1 2-1 1-1 2c-1 3-1 6-3 9-2 5-7 9-11 13l-1-2c2-2 3-2 4-5l-1-1c-2 0-2 1-4 1 0 1 0 2-1 2h-1l6-15 3-12c3-7 7-13 8-20z" class="G"></path><path d="M383 666l-6 6c2-3 3-8 5-11s4-5 6-7c0 1 0 2 1 3-2 1-6 4-7 7v1l1 1z" class="L"></path><path d="M389 657h1c1 0 1 0 2-1v3l-1 2-1 1-1 2c-1 0-2 4-3 5-1 0-1 0-2-1-2 2-4 6-7 8 2-4 5-6 7-9l-1-1-1-1v-1c1-3 5-6 7-7z" class="J"></path><path d="M377 676c3-2 5-6 7-8 1 1 1 1 2 1 1-1 2-5 3-5-1 3-1 6-3 9-2 5-7 9-11 13l-1-2c2-2 3-2 4-5l-1-1c-2 0-2 1-4 1l1-1c0-2 1-2 2-2v2c1-1 1-1 1-2z" class="M"></path><path d="M388 634c-1-3 0-7 0-10h0c1 0 1 1 1 1l3 3c0 3-1 9 0 11l1-1v4l-1 1h0c-1 1-1 3-2 4-1 2-3 4-4 7-1 1-2 4-4 4 0-2 1-2 2-3 4-7 5-14 4-21h0z" class="Y"></path><path d="M359 710c5-2 9-3 14-4h1c13-2 28 0 39 8 2 2 4 3 5 5l1 1 2 2-1 1c-4-2-7-4-11-6-6-2-12-2-18-2h0l-1 2c-10-3-19-3-29-2-2 1-6 2-8 3h0-1v-1l1-2c2-2 4-4 6-5z" class="Q"></path><path d="M353 715c4-1 9-2 13-3 8-1 16 0 24 1 7 1 15 0 22 4 1 1 5 3 7 3l2 2-1 1c-4-2-7-4-11-6-6-2-12-2-18-2h0l-1 2c-10-3-19-3-29-2-2 1-6 2-8 3h0-1v-1l1-2z" class="K"></path><path d="M549 468l1 12c0 3-1 6 0 8v13 29 34c0 5-1 9 0 14 0 7 1 15 1 23 0 3 0 7 1 9 0 2 0 5-1 6 0 1 0 3 1 4l-1 1h0l-1 1-1-1v-2c0-1 0-2 1-3v-1-5l-1-1h0c0 3 0 5-2 8l-1-125c1-3 0-7 1-10 2-4 1-10 1-15l1 1z" class="J"></path><path d="M438 751h0c2 0 3 0 4-1l1-2h0c2 1 3 5 3 6l14 33-2-1c-1 0-1 1-1 1v1l-3-6h-1v-1c-2 2 0 2-2 3l1 1c-1 2-2 2-3 4l1 2-2 2c-3-4-4-8-5-12l-2 1v-2c-1-1-2-1-3-1l-3-15 2-4v-1l-1-2 1-3-1-3h2z" class="Q"></path><path d="M439 755l1-1c1 3 0 7 1 10 0 5 1 11 3 16 3-1 5-2 9-2-3 1-5 3-8 3 1 2 2 5 3 6l3-3 1 1c-1 2-2 2-3 4l1 2-2 2c-3-4-4-8-5-12l-3-14c0-3 0-6-1-8v-4z" class="I"></path><path d="M436 751h2l1 4h0v4c1 2 1 5 1 8l3 14-2 1v-2c-1-1-2-1-3-1l-3-15 2-4v-1l-1-2 1-3-1-3z" class="P"></path><path d="M436 751h2l1 4h0v4c-1-2-2-3-2-5l-1-3z" class="O"></path><path d="M435 764l2-4 4 20c-1-1-2-1-3-1l-3-15z" class="D"></path><path d="M438 751h0c2 0 3 0 4-1l1-2h0c2 1 3 5 3 6l14 33-2-1c-1 0-1 1-1 1v1l-3-6c-3-9-7-20-13-28v10c-1-3 0-7-1-10l-1 1h0l-1-4z" class="e"></path><path d="M604 306v-1c1 0 1 0 3-1-1 0-2-1-3-2-1-2-2-5-1-8 0-2 2-3 4-4 2 0 5 0 7 1 3 2 5 4 6 8 0 1 1 1 1 3v2c2 0 3 1 4 1 3 1 7 1 10 3 2 1 4 3 5 5 5 4 9 6 14 9v1l-9-3-19-9c2 3 4 5 6 8l-1 1-3-2-2 1v1c1 1 1 2 1 3l-1 2-5-4c1-2 0-4 0-6-6-4-12-5-19-6v-1-1c1 0 1 0 2-1z" class="F"></path><path d="M620 299c0 1 1 1 1 3v2c-3-1-8 0-11 0l1-1c1 0 2-1 3-1h1c2 0 3-2 5-3z" class="L"></path><path d="M625 305c3 1 7 1 10 3 2 1 4 3 5 5h0c-2 0-3-1-5-2s-6-2-8-4c-1 0-1-1-2-2z" class="M"></path><defs><linearGradient id="M" x1="613.484" y1="313.514" x2="616.113" y2="309.851" xlink:href="#B"><stop offset="0" stop-color="#2c2524"></stop><stop offset="1" stop-color="#433e30"></stop></linearGradient></defs><path fill="url(#M)" d="M604 306c3 0 6 1 9 2 6 2 11 6 15 10l-2 1v1c1 1 1 2 1 3l-1 2-5-4c1-2 0-4 0-6-6-4-12-5-19-6v-1-1c1 0 1 0 2-1z"></path><path d="M621 315c2 3 4 5 6 8l-1 2-5-4c1-2 0-4 0-6z" class="D"></path><path d="M610 304c-1 0-2-1-3-2-2-1-3-3-3-6-1-1 0-2 1-3 1-2 2-2 5-2 2 0 5 1 6 3 2 1 1 3 2 5-1 1-3 2-4 3-1 0-2 1-3 1l-1 1z" class="Q"></path><defs><linearGradient id="N" x1="629.079" y1="652.648" x2="663.744" y2="668.733" xlink:href="#B"><stop offset="0" stop-color="#0c0a0b"></stop><stop offset="1" stop-color="#35312a"></stop></linearGradient></defs><path fill="url(#N)" d="M637 637h0c1-1 0-1 1-2 0 3 0 3 1 5 1 3 2 6 4 9 1 3 4 6 5 9 2 3 3 6 4 9 1 2 2 4 2 6 1 2 2 3 3 5h0c-2 1-2 1-3 3 0 1 1 2 1 4l3 2v1c-2 0-3 0-4-1h-4c-2-1-5-2-6-4-4-2-7-7-9-11-1 0-1-1-2-2l-1-1c0-1-1-2-1-2-1-2-1-4-1-5l-1-2v-3c0-6 2-14 6-18 0-1 0-2 1-3l1 1z"></path><path d="M645 673c-1-3-3-7-3-11l2 4c1 2 2 3 4 3 2 1 2 3 3 4v1h-1c-2-1-3-1-5-1z" class="B"></path><path d="M641 677v-3c0-1-1-2-1-3v-1c4 7 8 12 14 17h-4c-2-1-5-2-6-4-4-2-7-7-9-11 2 1 5 6 7 8v-1l-1-2zm7-8c0-1-1-2-1-4l7 8c1 2 2 3 3 5h0c-2 1-2 1-3 3 0 1 1 2 1 4-4-3-7-7-10-12 2 0 3 0 5 1h1v-1c-1-1-1-3-3-4z" class="D"></path><path d="M635 672c-1 0-1-1-2-2l-1-1c0-1-1-2-1-2-1-2-1-4-1-5l-1-2v-3c0-6 2-14 6-18 0-1 0-2 1-3l1 1-1 2c0 7-1 15 1 22l3 9v1c0 1 1 2 1 3v3l1 2v1c-2-2-5-7-7-8z" class="V"></path><path d="M641 677c-3-4-7-8-7-13-1-6 0-13 1-20 0-2 0-4 1-5 0 7-1 15 1 22l3 9v1c0 1 1 2 1 3v3z" class="c"></path><path d="M533 180s1-1 1-2v-1h2c4 6 6 12 9 19l1-2h1c0 6 1 12 1 18 0 3-1 7-2 10-1 4-2 7-4 11v2c-1 1-2 2-2 4l-2 5v1c-1 2-1 3-2 5l1 1c0-2 1-2 2-3-1 1-2 3-2 4s-1 2-1 3c-3 3-4 7-8 8l-2 3v2h-1-1c-1-1-2-2-2-4v-1c1-2 2-5 3-7 4-9 7-17 8-26 2-1 2-1 2-3v-1l1-2c0-1 1-3 2-4 1-4 1-7 1-11-1-10-3-19-6-29z" class="K"></path><path d="M539 209s1 0 2 1c1 4-1 8 1 11l-1 1-1-1v1c0 1 0 3-1 4 0-2 0-4-1-6 1-4 1-7 1-11z" class="I"></path><path d="M538 220c1 2 1 4 1 6 0 3-1 5-2 8h-2v-4c1-1 1-2 0-4l1-2c0-1 1-3 2-4z" class="F"></path><path d="M546 194h1c0 6 1 12 1 18 0 3-1 7-2 10-1 4-2 7-4 11v2c-1 1-2 2-2 4l-2 5v1c-1 2-1 3-2 5l1 1c0-2 1-2 2-3-1 1-2 3-2 4s-1 2-1 3c-3 3-4 7-8 8l-2 3c0-3 3-7 4-10 4-7 8-15 11-23l3-9c2-9 3-19 1-28l1-2z" class="V"></path><path d="M538 244v1c-1 2-1 3-2 5l1 1c0-2 1-2 2-3-1 1-2 3-2 4s-1 2-1 3c-3 3-4 7-8 8 1-3 3-5 4-8l6-11z" class="M"></path><path d="M594 768c1 1 1 2 1 3h0v-1l1-1-3 14c-1 2-1 2-1 5l1 2c1-1 1-1 3-1 1 1 1 2 1 3 0 5-2 8-4 12s-8 12-13 13c-1 0-2 0-3-1h0-2l-2-2-6 6h-5-1v-1h1c0-3 1-4 3-6 1-6 4-11 7-17l5-12c1-2 1-4 3-6v1-1l8 1h1 1c0-1 0-2 1-3h2l1-8z" class="O"></path><path d="M580 778l8 1c1 3 0 5-1 7-3 8-8 15-13 22-3 4-7 8-12 12h-1v-1h1c0-3 1-4 3-6 4-2 6-5 9-9 5-7 9-13 12-21-1 0-3 0-4-1 0 0-1-1-2-1v-2-1z" class="G"></path><path d="M580 779c3 1 5 1 6 2v2c-1 0-3 0-4-1 0 0-1-1-2-1v-2z" class="O"></path><path d="M594 768c1 1 1 2 1 3h0v-1l1-1-3 14c-1 2-1 2-1 5l1 2c-3 4-6 9-9 14-2 4-6 7-7 12h-2l-2-2c10-11 16-23 20-38l1-8z" class="K"></path><path d="M593 790c1-1 1-1 3-1 1 1 1 2 1 3 0 5-2 8-4 12s-8 12-13 13c-1 0-2 0-3-1h0c1-5 5-8 7-12 3-5 6-10 9-14zm-16-6c1-2 1-4 3-6v1 2c1 0 2 1 2 1 1 1 3 1 4 1-3 8-7 14-12 21-3 4-5 7-9 9 1-6 4-11 7-17l5-12z" class="J"></path><path d="M544 464l1 1v-7c1 2 0 5 1 7v-1-4c1 3 2 5 2 7 0 5 1 11-1 15-1 3 0 7-1 10l1 125h0c-1-2-1-7-1-8l-2-36c-1 1-1 2-2 3v10c-1-3-1-7-1-10v-11c-1-6 0-12-1-18v-4c-1-2-1-5-1-8v5 1l-1 1v-34-1c1-3 1-7 1-11v-24h2c0-1 1-2 2-2h1v-6z" class="E"></path><path d="M546 460c1 3 2 5 2 7 0 5 1 11-1 15-1 3 0 7-1 10v-28-4z" class="g"></path><path d="M541 565v-11-9-4h0l3 32c-1 1-1 2-2 3v10c-1-3-1-7-1-10v-11z" class="O"></path><path fill="#6f5e4d" d="M538 508l1 6 1 1c0 3 0 8 1 11 0 5 1 10 0 15h0v4 9 11c-1-6 0-12-1-18v-4c-1-2-1-5-1-8v5 1l-1 1v-34z"></path><path d="M539 472h2c0-1 1-2 2-2h1l-3 56c-1-3-1-8-1-11l-1-1-1-6v-1c1-3 1-7 1-11v-24z" class="W"></path><path d="M538 507c2 2 2 5 2 8l-1-1-1-6v-1z" class="g"></path><path d="M623 697v-1c3-3 11-4 14-4 4 0 16-1 20 2-1 0-1 1-1 2l2 1c2 0 2-2 4-2l2 1c2 3 5 5 8 8s5 7 7 10c-1 1-4-1-5-1-3-1-7-1-10-1-10 0-19 1-29 2-6 1-13 1-18 4l-1-1c-2 1-5 5-6 5l-1-1c0-3 1-4 3-5 5-5 10-8 16-12-2-3-3-5-5-7z" class="Q"></path><path d="M662 695l2 1c2 3 5 5 8 8s5 7 7 10c-1 1-4-1-5-1-3-1-7-1-10-1 1-2 2-3 4-4 2 1 3 2 5 2-1-2-2-3-3-5h-1l1 2v1c-1-1-1-1-2-3h0c-1-1-2-2-3-2h0c-2-1-3-1-4-2h0c0-1 1-1 1 0h3 1 0c-1-1-1-1-1-2-2-1-3-2-3-4z" class="J"></path><path d="M623 697c3 0 4 0 7 1 1 1 1 1 1 3l-1 2c13-2 26-2 38 2 1 2 1 2 2 3v-1l-1-2h1c1 2 2 3 3 5-2 0-3-1-5-2s-4-1-6-2h-1c-13-1-30-1-40 6l-5 5c-2 1-5 5-6 5l-1-1c0-3 1-4 3-5 5-5 10-8 16-12-2-3-3-5-5-7z" class="U"></path><path d="M616 717l5-5c10-7 27-7 40-6h1c2 1 4 1 6 2-2 1-3 2-4 4-10 0-19 1-29 2-6 1-13 1-18 4l-1-1z" class="Q"></path><path d="M438 779c1 0 2 0 3 1v2l2-1c1 4 2 8 5 12l2-2c5 8 10 16 16 23l-1 1c2 2 7 7 9 8l3 3v1h0v1l-3-3v1l-1 1 2 2h0c-1 0-2-1-2-1-1-1-2-2-4-1 0-1 0-2-1-2h-3 0v1l-1 1c-1 1-1 3-1 4-4-1-7-3-10-6l-2 1c-8-5-15-12-19-21-1-2-2-5-3-7h1l3 6v-1h-1c0-1-1-3-1-3v-2-1c0-1-1-3-1-4v-3c1 0 1 1 2 2h0c0 2 1 3 1 4l1 1c0 1 1 1 2 2-1-4-1-6 0-10h-1c0-2-1-4-2-6 2 0 4 1 6 0l-1-4z" class="W"></path><path d="M462 817c3 3 9 7 11 11-1-1-2-2-4-1 0-1 0-2-1-2h-3c1-1 1-2 0-3-2 0-3 0-5-2l1-1c1-1 1-1 1-2z" class="M"></path><path d="M450 791c5 8 10 16 16 23l-1 1c-7-7-12-14-17-22l2-2z" class="D"></path><path d="M438 779c1 0 2 0 3 1v2c4 13 11 24 21 35 0 1 0 1-1 2l-1 1h-1-1-1v2h-1-1v-3h3c1 0 1-1 2-1-1-2-1-3-3-4l-1 1c-3-5-7-9-10-14-2-2-3-5-4-7s-2-4-3-5h-1-2-1c0-2-1-4-2-6 2 0 4 1 6 0l-1-4z" class="I"></path><path d="M436 789h2 1c1 1 2 3 3 5s2 5 4 7c3 5 7 9 10 14-1 1-3 2-5 2-8-3-12-11-15-18-1-4-1-6 0-10z" class="J"></path><path d="M430 793v-3c1 0 1 1 2 2h0c0 2 1 3 1 4l1 1c0 1 1 1 2 2 3 7 7 15 15 18 2 0 4-1 5-2l1-1c2 1 2 2 3 4-1 0-1 1-2 1h-3v3h1 1v-2h1 1 1c2 2 3 2 5 2 1 1 1 2 0 3h0v1l-1 1c-1 1-1 3-1 4-4-1-7-3-10-6l-2 1c-8-5-15-12-19-21-1-2-2-5-3-7h1l3 6v-1h-1c0-1-1-3-1-3v-2-1c0-1-1-3-1-4z" class="U"></path><path d="M429 798h1l3 6v-1h-1c0-1-1-3-1-3v-2-1c3 8 7 16 14 22 2 2 5 4 8 6l-2 1c-8-5-15-12-19-21-1-2-2-5-3-7z" class="B"></path><path d="M524 481h1 0c0 3-1 9 0 12v1h1c1 0 1-1 2-2l-1-2h1l3-3v8 18c0 6 1 12 0 18v26c1 8 0 17 0 26v33c0 5 1 10 0 15-1-2-1-5-1-8l-1 1v3h-1v-2-1c0-2 0-3-1-5v-1c0 2 0 4-1 5v-1h-1v-5c-1-4-1-8-1-12l-1 1-1-1c0-2 0-4 1-6 1-3 0-8 0-11 1-4 0-12-1-16l1-76c0-1 1-2 1-3v-12z" class="T"></path><path d="M524 547c0 1 1 2 1 3 1 3 1 6 0 8h0c0-1-1-2-1-4v-7z" class="L"></path><path d="M528 523c1 2 3 4 2 7l1 1v26c-1-1-1-2-2-3 0-1 1-1 1-2-1-1-1-1-2-1v-1-2-2s1-1 1-2l-2-1 1-2-1-1c1-1 1-1 1-2s0-1-1-2h0l1-2h0c0-1 0-1-1-2l1-1 1-1h0l-2-2v-2l1-1h0v-2z" class="C"></path><path d="M524 481h1 0c0 3-1 9 0 12v1 56c0-1-1-2-1-3v-54-12zm0 73c0 2 1 3 1 4h0l1 46c0 4-1 9 0 13l1 1h0 0c0 2 0 4-1 5v-1h-1v-5c-1-4-1-8-1-12l-1 1-1-1c0-2 0-4 1-6v4h1v-49z" class="V"></path><path d="M527 490h1l3-3v8 18c0 6 1 12 0 18l-1-1c1-3-1-5-2-7l-1-3c1-1 1-1 1-2 1-1 0-1-1-2v-3l1-1c0-1 0-1-1-3v1l-1-1c1-1 1-1 1-2h0l2-2-2-2c0-1 0-1 1-2h0l-1-3h-1c1-2 1-2 2-2v-1l-2-1c1 0 1-1 2-2l-1-2z" class="G"></path><path d="M524 493v54 7 49h-1v-4c1-3 0-8 0-11 1-4 0-12-1-16l1-76c0-1 1-2 1-3z" class="c"></path><path d="M530 623h0v-3-3-1-1c0-3 1-6 0-8v-3h0c-1-1 0-5 0-6l-1-1v-2-1-2l-1-2c0-1 1-1 1-2l-1-1v-2l1-1v-2h0v-1h-2l1-2 1-1-1-1-1-1v-1c2-2 1-4 2-6 0-2-1-2-2-3l-1-1v-22h1l2 1c0 1-1 2-1 2v2 2 1c1 0 1 0 2 1 0 1-1 1-1 2 1 1 1 2 2 3 1 8 0 17 0 26v33c0 5 1 10 0 15-1-2-1-5-1-8z" class="B"></path><path d="M391 715h0c6 0 12 0 18 2 4 2 7 4 11 6l3 3c2 3 4 5 6 9l3 9c0 1 1 3 1 4l2 2v2c1 1 1 3 1 5l1 2v1l-2 4 3 15 1 4c-2 1-4 0-6 0 1 2 2 4 2 6h1c-1 4-1 6 0 10-1-1-2-1-2-2l-1-1c0-1-1-2-1-4h0c-1-1-1-2-2-2v3c0 1 1 3 1 4v1 2s1 2 1 3h1v1l-3-6h-1l-3-9c-5-18-4-38-14-55-4-9-13-14-22-17l1-2z" class="C"></path><path d="M429 778c1 3 2 4 4 5 1 2 2 4 2 6h1c-1 4-1 6 0 10-1-1-2-1-2-2l-1-1c0-1-1-2-1-4h0c-1-1-1-2-2-2v3c-1-2-2-5-2-7-1-3-1-5 1-8z" class="B"></path><path d="M433 759l1-1 3 1v1l-2 4 3 15 1 4c-2 1-4 0-6 0-2-1-3-2-4-5l-1-3c-1-4-1-12 2-15 1-1 2-1 3-1z" class="Q"></path><path d="M433 759l1-1 3 1v1l-2 4-2-5z" class="B"></path><path d="M391 715h0c6 0 12 0 18 2 4 2 7 4 11 6l3 3c2 3 4 5 6 9l3 9c0 1 1 3 1 4 1 1 1 3 1 5-3 0-6 0-8-2-3-3-5-12-5-16 0-1 0-1-1-2-1 0-1 0-3-1s-3-3-5-4c-5-5-12-11-19-12l-2-1zm-35 28c7-4 14-5 22-2 5 1 9 4 13 7 2 2 4 4 5 6 2 5 3 9 1 14l-1 3 1 2c-5 4-8 4-14 3h-4l-6-3-5-5v-1h-1c0 1 0 1-1 2 0 1 0 1-1 1l-1-1h-1 0v1 1c0 1 1 1 1 2v1l-1 1c0 2 0 4-1 6 0-1-1-1-1-2v-2-5h-1v-3-1c-1 1-2 1-4 1h-1-1c1-1 1-1 1-2 1-1 2-2 2-3l3-1v-1c1-2 1-4 1-6l-1-1v-1c-1 0-1 0-2-1-1 1-1 1-2 1-2-1-3 0-4 0l-2-3-1 1h-1 0l1-1v-2c1-2 4-2 5-3 1 0 1-1 2-3h0z" class="Q"></path><path d="M349 751h6c1 0 2 2 3 2-1 1-1 1-2 1-2-1-3 0-4 0l-2-3-1 1h-1 0l1-1z" class="C"></path><path d="M393 773c1-4 2-8 2-12-1-2-1-4-2-5 1 0 1 1 2 1h0c3 3 0 8 2 11h0l-1 3-3 2z" class="P"></path><path d="M369 768h1l4 4c4 3 9 3 14 2 2 0 4-1 5-1l3-2 1 2c-5 4-8 4-14 3h-4l-6-3-5-5h1z" class="K"></path><path d="M363 753c2-3 6-5 9-6 3 0 5 0 8 2 2 2 5 5 7 8-6 0-11-1-16 3-1 2-2 3-2 5v3h-1v-1h-1c0 1 0 1-1 2 0 1 0 1-1 1l-1-1h-1 0v1 1c0 1 1 1 1 2v1l-1 1c0 2 0 4-1 6 0-1-1-1-1-2v-2-5h-1v-3-1c-1 1-2 1-4 1h-1-1c1-1 1-1 1-2 1-1 2-2 2-3l3-1v-1c1-2 1-4 1-6l-1-1v-1c1 0 2 1 3-1z" class="D"></path><path d="M368 755v1s0 1-1 2c1 0 1-1 2-1 5-3 10-3 16-3l-10 2c-2 0-5 3-7 6l-1 1v1 1l1 2h-1c0 1 0 1-1 2 0 1 0 1-1 1l-1-1h-1l-1-1c0-1-1-1-1-2v-2c2-2 2-4 2-7 2-2 2-2 5-2z" class="V"></path><path d="M361 766l4-3v-1l1 1s0 1 1 1v1l1 2h-1c0 1 0 1-1 2 0 1 0 1-1 1l-1-1h-1l-1-1c0-1-1-1-1-2z" class="S"></path><path d="M363 753l1 1 1-1c2-2 4-3 7-3h1c2-1 3-1 5 0 1 0 2 1 2 2-1 0-2 0-3-1-1 0-2 0-3 1h-2l-2-1s-2 3-2 4c-3 0-3 0-5 2 0 3 0 5-2 7v2c0 1 1 1 1 2l1 1h0v1 1c0 1 1 1 1 2v1l-1 1c0 2 0 4-1 6 0-1-1-1-1-2v-2-5h-1v-3-1c-1 1-2 1-4 1h-1-1c1-1 1-1 1-2 1-1 2-2 2-3l3-1v-1c1-2 1-4 1-6l-1-1v-1c1 0 2 1 3-1z" class="Y"></path><path d="M360 763v-1c0 2 1 4 0 5-2 1-3 1-5 2h-1c1-1 1-1 1-2 1-1 2-2 2-3l3-1z" class="D"></path><path d="M583 224c1 0 4 1 5 0l1 2c1-1 2-2 3-2 1 1 1 2 1 3h2l-1 2v5c1 2 1 2 4 3 1 0 4 0 5-1 2 2 4 3 6 5h-5c-2 1-5 2-7 3v1h-3c-7 0-14 0-21 1-12 2-24 7-32 16-4 3-6 7-9 12h0c-2 1-3 3-4 5l-1 1c-2 0-2 0-3-1 1-3 0-7 1-10l1-1v-2l2-3c4-1 5-5 8-8 0-1 1-2 1-3 4-5 9-10 15-15 9-7 20-11 31-13z" class="U"></path><path d="M594 234c1 2 1 2 4 3 1 0 4 0 5-1 2 2 4 3 6 5h-5c-2 1-5 2-7 3v1h-3c1-1 3-2 4-3v-1c-2 1-3 0-5 0 1-1 3-2 5-2h2l-1-1h-4l-1-2c-1-1-1-1 0-2z" class="B"></path><path d="M593 227h2l-1 2v5c-1 1-1 1 0 2l1 2h-3c-15 1-28 3-40 9h-1c4-3 9-5 13-7s8-3 12-4c1-1 5-1 6-2s1-2 1-3c1-2 2-2 4-2h0c1-1 1-1 3-1 1 0 2 0 3-1z" class="J"></path><path d="M593 227h2l-1 2v5c-1 1-1 1 0 2l1 2h-3c-2-3-3-6-5-9h0c1-1 1-1 3-1 1 0 2 0 3-1z" class="I"></path><path d="M642 715c1-1 2-1 3-1h0v1c-1 0-1 1-2 1-10 3-19 9-24 19-6 11-7 23-9 35-2 14-6 28-14 40l-3 1 2-3c-1-2-1-3-2-4 2-4 4-7 4-12 0-1 0-2-1-3-2 0-2 0-3 1l-1-2c0-3 0-3 1-5l3-14-1 1v1h0c0-1 0-2-1-3l1-12 1-6c0-4 1-8 2-12 2-4 3-7 6-11h2v3c3-5 6-8 11-11 7-3 16-3 24-4h1z" class="G"></path><path d="M603 763l3-1 1 7c1 1 0 1 0 2-1 0-1-1-2-1l-2-7z" class="H"></path><path d="M603 779l1 1c0 2-1 4-1 6 0 5-3 12-5 17-1 1-2 3-3 4v1c-1-2-1-3-2-4 2-4 4-7 4-12 0-1 0-2-1-3-2 0-2 0-3 1l-1-2c0-3 0-3 1-5h0 4c3 0 4-2 6-4z" class="B"></path><path d="M592 788c0-3 0-3 1-5h0l1 1h1c0 2-2 3-3 4z" class="M"></path><path d="M596 769c2-4 1-8 3-11h2c1 1 2 3 2 5l2 7c0 3 0 6-2 9-2 2-3 4-6 4h-4 0l3-14zm46-54c-1 1-1 0-2 0-9 2-15 7-21 13-2 2-3 4-5 5l-3-3h-1c-1 2 0 6 0 8 0 5-2 13-8 14h-4l-1-2h-1c0-4 1-8 2-12 2-4 3-7 6-11h2v3c3-5 6-8 11-11 7-3 16-3 24-4h1z" class="Q"></path><path d="M598 738c2-4 3-7 6-11h2v3c-2 2-3 5-5 8-1 4-2 8-4 12h-1c0-4 1-8 2-12z" class="e"></path><path d="M516 213c1 2 1 3 2 6l1 4c0 4 1 7 1 11v23 1 3c0 1 0 1 1 2v3-3h1v1c0 2 1 3 2 4h1 1l-1 1c-1 3 0 7-1 10l-3 3v3 6 3l1 6c-1 1-1 1-1 3h1c1 3-1 6 2 8 0 2-1 3-1 4v1 1l-2-1c0 3-1 7 0 10l1-2c0-1 1-2 1-3l2-2c1-1 3-1 5-2 1 1 2 2 2 4 2 2 3 3 3 6 2 1 1 2 2 3l-1 2-2 5c-1 0-2-1-2-2l-2 2h0l-1-1h-3 0l-3-1c-2-1-3-7-3-9h0l-1 1-1 1v-2c-1-1-1-1-3-1h0l-2 1v1l-1-1-2-7c-1-7-7-13-9-20 0-1 0-1-1-2l1-1h1l1-4v-4l1 1c0 2 1 4 1 6h1v-6l-3-9c1 0 2 1 2 2l1 1v1l1 1 1-1h1v3h1c1-4 2-12 0-16l1-1h1v-12-15c0-7 0-14 1-20l1-6 2-4z" class="M"></path><path d="M513 294c1 5-1 10 1 15v1h1v-2c1 0 1-1 2-1h1l1-1v10c-1 1-1 1-1 2l-1-1h-2-2v-8-15z" class="B"></path><path d="M515 310v-2c1 0 1-1 2-1h1l1-1v10c-1 1-1 1-1 2l-1-1h-2c0-1-1-3 0-4s3-2 4-3c-1-1-1-1-2-1s-1 0-2 1h0z" class="D"></path><path d="M516 213c1 2 1 3 2 6l1 4c0 4 1 7 1 11l-1-2c-2-1-3-1-4-1v-1c1-1 1 0 3 0h0v-4l-1-1v-1l-1 1v2h-1v-1h-1c-2 5-1 11-2 17 0-7 0-14 1-20l1-6 2-4z" class="C"></path><path d="M516 213c1 2 1 3 2 6-1 0-1 0-2 1v2c-1 0-2 0-3 1l1-6 2-4z" class="Z"></path><path d="M512 258l1 26c0 3-1 7 0 10v15l-1 4h0c-2-4 0-11-1-16-1-2-3-3-3-5 1 0 1 2 3 2 0-2 0-5-1-7 1-4 2-12 0-16l1-1h1v-12z" class="N"></path><path d="M503 280c1 0 2 1 2 2l1 1v1l1 1 1-1h1v3h1c1 2 1 5 1 7-2 0-2-2-3-2 0 2 2 3 3 5 1 5-1 12 1 16-1 1-1 1-1 2-1-2-1-4-2-5-2-3-2-5-2-8 0-2 0-5-1-7h0v-6l-3-9z" class="E"></path><path d="M520 257v1 3c0 1 0 1 1 2v3-3h1v1c0 2 1 3 2 4h1 1l-1 1c-1 3 0 7-1 10l-3 3v3c-1 2 1 5-1 8 0 1 1 2 0 3v2 1 24h-1v-7-10l1-49z" class="V"></path><path d="M522 269c-1-2 0-4 0-5 0 2 1 3 2 4h1 1l-1 1c-1 3 0 7-1 10l-3 3 1-13z" class="C"></path><path d="M522 269c-1-2 0-4 0-5 0 2 1 3 2 4h1 1l-1 1h-1l-1 3h-1v-2-1z" class="D"></path><path d="M519 323h1v-24-1-2c1-1 0-2 0-3 2-3 0-6 1-8v6 3l1 6c-1 1-1 1-1 3h1c1 3-1 6 2 8 0 2-1 3-1 4v1 1l-2-1c0 3-1 7 0 10 0 2 1 5 4 7 1 1 2 1 4 1 1-1 2-2 4-2l1-2c0-1 1-2 1-2v-1c2 1 1 2 2 3l-1 2-2 5c-1 0-2-1-2-2l-2 2h0l-1-1h-3 0l-3-1c-2-1-3-7-3-9h0l-1 1-1 1v-2l1-3z" class="O"></path><path d="M522 303c1 3-1 6 2 8 0 2-1 3-1 4v1 1l-2-1c1-4 0-9 1-13z" class="C"></path><path d="M535 327c2 1 1 2 2 3l-1 2-2 5c-1 0-2-1-2-2v-1h0c2-2 2-2 2-4 0-1 1-2 1-2v-1z" class="B"></path><path d="M504 289c0 2 1 4 1 6h1 0c1 2 1 5 1 7 0 3 0 5 2 8 1 1 1 3 2 5 0-1 0-1 1-2h0l1-4v8h2 2l1 1c0-1 0-1 1-2v7l-1 3c-1-1-1-1-3-1h0l-2 1v1l-1-1-2-7c-1-7-7-13-9-20 0-1 0-1-1-2l1-1h1l1-4v-4l1 1z" class="S"></path><path d="M504 289c0 2 1 4 1 6l1 3v5h0c-3-3-3-7-3-11v-4l1 1z" class="f"></path><path d="M515 317h2l1 1c0-1 0-1 1-2v7l-1 3c-1-1-1-1-3-1h0l-2 1v-9h2z" class="H"></path><path d="M525 319c1-1 3-1 5-2 1 1 2 2 2 4 2 2 3 3 3 6v1s-1 1-1 2l-1 2c-2 0-3 1-4 2-2 0-3 0-4-1-3-2-4-5-4-7l1-2c0-1 1-2 1-3l2-2z" class="B"></path><path d="M525 319c1-1 3-1 5-2 1 1 2 2 2 4h-2v1l-3 1c-2 1-3 1-5 1 0-1 1-2 1-3l2-2z" class="a"></path><path d="M530 322v-1h2c2 2 3 3 3 6v1s-1 1-1 2l-1 2c-2 0-3 1-4 2v-4l-1-1v-1c-1-1-1-2-2-2 0-2 1-2 1-3l3-1z" class="K"></path><path d="M530 322v-1h2c2 2 3 3 3 6v1c-2-2-2-1-2-3l-3-3z" class="R"></path><path d="M528 328h0l3-3 1 1c-1 3-1 3 1 6-2 0-3 1-4 2v-4l-1-1v-1z" class="C"></path><path d="M487 197c2-4 2-9 4-12 3-5 6-10 10-14 1-1 1-2 3-3-6 12-11 25-11 38-1 15 2 31 6 45 1 4 3 7 5 10l3 6c1 1 2 3 3 4v1-1c2 4 1 12 0 16h-1v-3h-1l-1 1-1-1v-1l-1-1c0-1-1-2-2-2-1-1-2-3-2-4-1-3-3-5-5-8-10-14-25-21-42-23h-13c-5-1-9-5-14-6-1 0-1 0-2-1l3-3 1-1c0-1-1-3-2-4-1-3-4-3-6-4h-1c3-2 7-3 10-3h2c5-2 9 0 14 0 2 1 3 1 5 2 9 2 16 5 24 9h0c1 0 1 0 2-1l-8-5c0-1 0-1 1-2l5 1v-1-1c1 0 4 5 6 5l-10-18c-1-1-1-2 0-3 5 4 7 7 11 13 3 6 4 11 11 16l-6-29v-5c0-2 1-5 0-7z" class="F"></path><path d="M496 268c3 1 5 4 8 6l-3 2c-1-3-3-5-5-8z" class="D"></path><path d="M504 274l2 4c1 1 1 1 1 2h0v1c1 1 1 2 1 3l-1 1-1-1v-1l-1-1c0-1-1-2-2-2-1-1-2-3-2-4l3-2z" class="B"></path><path d="M507 267c1 1 2 3 3 4v1-1c2 4 1 12 0 16h-1v-3h-1c0-1 0-2-1-3v-1h0l2-1v-2-1l-1-4c0-1 0-1-1-2v-3z" class="H"></path><path d="M477 233c8 5 14 12 20 20 0 1 2 3 2 4v1c-2-2-3-5-5-7-6-6-12-12-19-17h0c1 0 1 0 2-1z" class="P"></path><defs><linearGradient id="O" x1="454.234" y1="232.23" x2="455.462" y2="243.088" xlink:href="#B"><stop offset="0" stop-color="#1a1616"></stop><stop offset="1" stop-color="#342d24"></stop></linearGradient></defs><path fill="url(#O)" d="M445 229c2 0 2 0 3 2v3c3 1 6 1 9 2 10 3 18 7 27 13h-1c-9-5-19-9-29-10-5-1-11-1-16-1-2-1-5-2-7-2 3-1 5 1 8 1 1-1 1-1 1-2l3-6h2z"></path><path d="M445 229c2 0 2 0 3 2v3c-2-1-3-2-5-1l-3 2 3-6h2z" class="L"></path><path d="M428 235l1-1c0-1-1-3-2-4-1-3-4-3-6-4h-1c3-2 7-3 10-3h2c5-2 9 0 14 0 2 1 3 1 5 2 0 1 0 2-1 3-1 0-2-1-2-1h2v-1c-1-1-1-1-2-1-2 0-4-1-6-1 2 1 2 2 3 2v1c-1-1-2-2-3-2h-1l-1 2c1 1 2 1 3 1l2 1h0-2l-3 6c0 1 0 1-1 2-3 0-5-2-8-1h0l-3-1z" class="M"></path><path d="M430 225h1c1 1 3 0 3 1 2 1 1 2 1 4-1 0-4-2-5-3-1 0 0-1 0-2z" class="K"></path><path d="M628 318l3 2 1-1c2 2 2 3 3 6h0c1 3 1 4 1 7-1 4-3 9-5 13l-15 35c-5 9-9 18-15 27-2 3-3 6-5 9-1-2-2-2-4-3-2 2-5 3-7 4h-1l-1 1-6-3-1-1-4 1c-4 1-7 4-9 8-1 3-1 6 0 8l1 2v-3c0-2 0-4 1-6h2l4-7h1c4 5 11 13 11 19 0 7-2 14-4 20l-1-1-3-3h-1c-2-1-6-1-8 0s-4 2-6 4h0v-29-8-5h-1c-1-2 0-6 0-8 0-3 1-7 1-10 1-7 3-15 5-22l4-14 1-3c1 0 2 0 2 1 1-2 2-5 3-8 4-8 9-17 18-22 5-4 14-8 21-6v-1c1-1 2-1 2-2l5 2 5 4 1-2c0-1 0-2-1-3v-1l2-1z" class="Q"></path><path d="M559 406l2 1-1 12v-5h-1c-1-2 0-6 0-8z" class="E"></path><path d="M581 360l4-4 5 2c-1 0-2 1-4 1-1 1-3 1-4 2l-1-1z" class="F"></path><path d="M618 324h1c1 0 2 1 2 1 3 1 4 2 6 3l-2 3c-3-3-5-5-8-7h1z" class="B"></path><path d="M627 328l1 2c0 2 1 3 1 4v4 1-1l-2-2-2-5 2-3z" class="G"></path><path d="M559 406c0-3 1-7 1-10 1 2 1 3 2 4l-1 7-2-1z" class="Z"></path><path d="M570 357c1 0 2 0 2 1 0 2-1 4 1 5 1 1 6 2 7 3-1 1-1 1-3 1l-2-1-2-1c-2-1-3-2-4-5l1-3zm18-8l1 1h-2c1 2 3 2 5 3s4 2 6 4h-5c-3-2-6-3-8-5 0-2 2-2 3-3z" class="B"></path><path d="M589 350c5 0 7 2 11 5l-2 2c-2-2-4-3-6-4s-4-1-5-3h2z" class="J"></path><path d="M616 319l5 2 5 4 1 2 1 1v2l-1-2c-2-1-3-2-6-3 0 0-1-1-2-1h-1l1-1c-1 0-2-1-2-1h-2-1v-1c1-1 2-1 2-2z" class="O"></path><path d="M565 374l4-14c1 3 2 4 4 5l2 1 2 1c-3 1-7 1-9 5l-1 2h-2z" class="D"></path><path d="M588 349c3-2 7-2 11-1 2 1 5 4 6 6 0 2 1 2 0 4l-2-1-1-1v-1c-1-2-4-4-5-4 1 1 3 2 3 4h0c-4-3-6-5-11-5l-1-1z" class="R"></path><path d="M565 374h2l-3 12h1c2-2 3-3 5-3l1-1c3-1 8 2 11 2-3 1-7-1-10 0-3 0-6 4-8 7-1 2-1 6-2 9-1-1-1-2-2-4 1-7 3-15 5-22z" class="C"></path><path d="M600 355h0c0-2-2-3-3-4 1 0 4 2 5 4v1l1 1 2 1-2 1v1h1c1 0 2 0 3 1h0c2 1 4 3 4 5h0c-1-1-2-1-2-2h-1c0-1 0-1-1-1-1-1-2-1-3-2h-1c-2-1-6 0-8 0h-1c-1 0-1 0-2 1-1 0-3 1-3 2v2c0 2 0 5 1 7h-1v1c-1-1-1-2-1-2-2 2 0 4-1 6l-1 1c0 1 1 1 0 2-2-1-1-3-2-5h0c0-2-1-4-2-6h0v-3l1-1c1-1 1-1 1-2-1-1-2-2-3-2v-2l1 1c1-1 3-1 4-2 2 0 3-1 4-1 1-1 2-1 3-1h5l2-2z" class="W"></path><path d="M628 318l3 2 1-1c2 2 2 3 3 6h0c1 3 1 4 1 7-1 4-3 9-5 13l-15 35c-5 9-9 18-15 27-2 3-3 6-5 9-1-2-2-2-4-3 0 0 2-2 2-3l5-10c1-1 2-3 2-4 1-1 0-3 0-4v-9c1-2 4-4 6-5 1 0 2-1 4-1 1 2 0 5 0 6l-1 5 1-1c2-3 2-7 3-10l11-25c1-3 2-7 3-10 0-2 0-4-1-6l2 2v1-1-4c0-1-1-2-1-4v-2l-1-1-1-2 1-2c0-1 0-2-1-3v-1l2-1z" class="H"></path><path d="M607 378c1 0 2-1 4-1 1 2 0 5 0 6l-1 5-3 3-1-1c0-4 0-8 1-12z" class="C"></path><path d="M628 318l3 2c1 2 4 6 4 8l-5 10c0-1-1-2-1-4 0-1-1-2-1-4v-2l-1-1-1-2 1-2c0-1 0-2-1-3v-1l2-1zm-96 17c0 1 1 2 2 2l-4 9c0 2-1 4-2 6h0l1 3c1-1 1-2 2-3h1v1l1-1c1-1 1-3 1-5v12c0 2 0 5 1 7v2 3c1 1 0 2 1 3v1 1 2l1 1c0 2 0 4-1 6v1c0 1 0 1 1 2h0l-3 10-2 8c-1 4-2 7-2 11-1 6 0 11 0 17l1 27v23c0 3 1 7 0 11v-8l-3 3h-1l1 2c-1 1-1 2-2 2h-1v-1c-1-3 0-9 0-12h0-1v12c0 1-1 2-1 3l-1 76c-1-1-1-1-1-2v-1h0v2h-1c0-1 0-3-1-4v11 4 4 2h-1c-2 0-2-1-4-2h-1v-3-5-6-5h0c-1 3 0 10-1 11-2-3 0-9-2-11v2h0c0 1 0 2-1 4-1-2-1-22-1-26-1 2-1 6-2 8v5l-1-23c1-1 0-1 0-2v-8c-1-1-1-1-1-2l1-1c0-1 0-3-1-4-1-2-1-2-3-3v-2-19-19-6-10l1-3h0c-1-6 0-11 0-17v-14c0-5 1-10 0-15-2-1-2-2-3-4v-2c-1-3-2-5-2-8h-1c-1-5 0-10 0-15l-1-2v-1c1-2 0-5 1-7v-5l1-9c2 3 0 7 1 9h1c1 2 2 3 3 4h3l2 1c2-1 2-1 3-1h1c1-1 2-1 3-2-1-3-1-8-1-11l1-4h2 0 0c-1-1-2-1-2-1v-2h1l3 1v4l1 1v-3-5l1-4 1 2c2-4 2-9 5-12h3l1 1h0l2-2z" class="J"></path><path d="M511 401l-6-21c1 0 2-1 3-1v5c0 1 1 2 1 3l2 1c0 1-1 1-1 3l1 1c1 0 0 0 1 1-1 0-1 1-2 1 0 1 1 1 1 2l1 1c1 0 1 0 2 1-2 1-2 1-3 3z" class="H"></path><path d="M513 424c1 1 1 9 1 11 0 0-1 1 0 1 1-1 2-1 3-3 1 1 1 0 1 1 1 2 0 4 1 7v39 19c-1-2-1-4-1-6 0-1 0-1-1-1h-1c0 1 0 1-1 2 0 1-1 1-2 1v-12-2-9l1-1h-1c-1-5 0-10 0-14v-33z" class="C"></path><path d="M513 483c1 1 1 3 1 4h1v-2l2-2 1 2c0 1 0 2-2 3l1 1h1l-1 1-1-1-1 1c1 2 2 0 3 1v-10h0l1-1v19c-1-2-1-4-1-6 0-1 0-1-1-1h-1c0 1 0 1-1 2 0 1-1 1-2 1v-12z" class="G"></path><path d="M513 495c1 0 2 0 2-1 1-1 1-1 1-2h1c1 0 1 0 1 1 0 2 0 4 1 6v4c1 16 0 32 0 48v16 11 4 4 2h-1c-2 0-2-1-4-2h-1v-3-5-6-5-18-37-12c0-2 1-3 0-5z" class="H"></path><path d="M519 503c1 16 0 32 0 48v16 11 4 4 2h-1c-2 0-2-1-4-2h-1v-3-5-6c1 0 2 1 3 1h3v-70z" class="b"></path><path d="M513 578l2 3h0c2 0 3 0 4 1v4l-1-1c-1 0-1-1-2-1l-2-1h-1v-5z" class="X"></path><path d="M513 572c1 0 2 1 3 1h3v9c-1-1-2-1-4-1h0l-2-3v-6z" class="E"></path><defs><linearGradient id="P" x1="535.072" y1="485.553" x2="507.863" y2="480.936" xlink:href="#B"><stop offset="0" stop-color="#161314"></stop><stop offset="1" stop-color="#2d261b"></stop></linearGradient></defs><path fill="url(#P)" d="M522 395l2-1-1 2c1 1 1 0 2 1h0 0c1-1 1-2 2-2-1 4-2 8-2 12-1 5-2 10-2 15l-1 30 1 44-1 76c-1-1-1-1-1-2v-1h0v2h-1c0-1 0-3-1-4v-16c0-16 1-32 0-48v-4-19-39c1-11 0-23 1-34 0-4 1-8 2-12z"></path><path d="M513 359l1-4h2 0 0c-1-1-2-1-2-1v-2h1l3 1v4l1 1c-1 5-1 10 0 15 2 0 2 0 4 2l-1 2 2 2c1 0 3 1 4 2l-2 3c1 4 1 5-1 9l-1 1-2 1c-1 4-2 8-2 12-1 11 0 23-1 34-1-3 0-5-1-7 0-1 0 0-1-1-1 2-2 2-3 3-1 0 0-1 0-1 0-2 0-10-1-11v-9-4c-1-1 0-1 0-3h-1l-1-3v-4c1-2 1-2 3-3-1-1-1-1-2-1l-1-1c0-1-1-1-1-2 1 0 1-1 2-1-1-1 0-1-1-1l-1-1c0-2 1-2 1-3l-2-1c0-1-1-2-1-3v-5l1-1c0-2 1-4 2-6 1-1 2-1 3-2-1-3-1-8-1-11z" class="D"></path><path d="M522 395l4-11c1 4 1 5-1 9l-1 1-2 1z" class="L"></path><path d="M514 398v-1l2-2 1 1c-1 4-3 6-6 9v-4c1-2 1-2 3-3zm2-25l3 3c0 1 1 2 2 3h0-2l-1-2c-1 0-1 0-2 1h0c0 1-1 2-1 3-1 1 0 3 0 4l-3 2h-3c0-1-1-2-1-3 4-1 4-3 7-5h0l-1-2c1-1 1-1 1-2v-1l1-1z" class="M"></path><path d="M511 372c1-1 2-1 3-2l-1 3h2 1l-1 1v1c0 1 0 1-1 2l1 2h0c-3 2-3 4-7 5v-5l1-1c0-2 1-4 2-6z" class="B"></path><path d="M511 372c1-1 2-1 3-2l-1 3c-1 2-2 3-4 5 0-2 1-4 2-6z" class="P"></path><path d="M513 359l1-4h2 0 0c-1-1-2-1-2-1v-2h1l3 1v4l1 1c-1 5-1 10 0 15 2 0 2 0 4 2l-1 2 2 2-2 1 1 1c0 1 0 1-1 2h0l-2-2c-1-1 0 0-1-2h2 0c-1-1-2-2-2-3l-3-3h-1-2l1-3c-1-3-1-8-1-11z" class="G"></path><path d="M519 373c2 0 2 0 4 2l-1 2c-1-1-2-2-3-4z" class="S"></path><path d="M497 359c2 3 0 7 1 9 1 4 0 8 1 12l3 9c4 7 6 16 7 23 2 14 1 27 1 41l-1 90 1 26c0 1 0 2-1 4-1-2-1-22-1-26-1 2-1 6-2 8v5l-1-23c1-1 0-1 0-2v-8c-1-1-1-1-1-2l1-1c0-1 0-3-1-4-1-2-1-2-3-3v-2-19-19-6-10l1-3h0c-1-6 0-11 0-17v-14c0-5 1-10 0-15-2-1-2-2-3-4v-2c-1-3-2-5-2-8h-1c-1-5 0-10 0-15l-1-2v-1c1-2 0-5 1-7v-5l1-9z" class="Z"></path><path d="M506 475c1 2 1 3 1 5v2 1h1v33 23 8c-1 2-1 6-2 8v5l-1-23c1-1 0-1 0-2v-8c-1-1-1-1-1-2l1-1c0-1 0-3-1-4h1c1-4 0-9 0-13 0-11 0-21 1-32z" class="S"></path><path d="M503 395c1 1 1 1 1 2l1 1c3 7 3 17 3 25v29 31h-1v-1-2c0-2 0-3-1-5v-1c-1-2 0-5-1-8h-1l-1 1c-1-2-1-2-1-4l-1-2 1-3h0l1-1h0 1 0 1c1-2 0-4 0-5s1-2 0-2l-2-2c1-2 2-2 3-2 1-4 1-8 1-12 0-7 0-15-1-22 0-6-2-11-3-17z" class="L"></path><path d="M502 458l1-1h0 1 0 1c1-2 0-4 0-5s1-2 0-2l-2-2c1-2 2-2 3-2v28c-1-2 0-5-1-8h-1l-1 1c-1-2-1-2-1-4l-1-2 1-3h0z" class="E"></path><path d="M502 458h1c1 2 0 3-1 5l-1-2 1-3z" class="H"></path><path d="M501 477v-6-10l1 2c0 2 0 2 1 4l1-1h1c1 3 0 6 1 8v1c-1 11-1 21-1 32 0 4 1 9 0 13h-1c-1-2-1-2-3-3v-2-19-19z" class="B"></path><path d="M501 515h1l2-2c1 2 0 4 1 7h-1c-1-2-1-2-3-3v-2z" class="C"></path><path d="M501 477c1 3 0 9 1 11h1 1v2 7l-1 1v-1c-1 0 0 0-1-1h-1v-19z" class="T"></path><defs><linearGradient id="Q" x1="495.448" y1="421.864" x2="507.023" y2="419.541" xlink:href="#B"><stop offset="0" stop-color="#d0a06b"></stop><stop offset="1" stop-color="#ebc497"></stop></linearGradient></defs><path fill="url(#Q)" d="M497 359c2 3 0 7 1 9 1 4 0 8 1 12l3 9c-1 0-1 0-1-1l-1-3-1-1-1 1 3 6c1 1 1 3 2 4 1 6 3 11 3 17 1 7 1 15 1 22 0 4 0 8-1 12-1 0-2 0-3 2l2 2c1 0 0 1 0 2s1 3 0 5h-1 0-1 0l-1 1c-1-6 0-11 0-17v-14c0-5 1-10 0-15-2-1-2-2-3-4v-2c-1-3-2-5-2-8h-1c-1-5 0-10 0-15l-1-2v-1c1-2 0-5 1-7v-5l1-9z"></path><path d="M496 383v4c0 2 2 5 3 7 1 4 1 8 2 12 0 2 1 4 1 6-2-1-2-2-3-4v-2c-1-3-2-5-2-8h-1c-1-5 0-10 0-15z" class="P"></path><path d="M532 335c0 1 1 2 2 2l-4 9c0 2-1 4-2 6h0l1 3c1-1 1-2 2-3h1v1l1-1c1-1 1-3 1-5v12c0 2 0 5 1 7v2 3c1 1 0 2 1 3v1 1 2l1 1c0 2 0 4-1 6v1c0 1 0 1 1 2h0l-3 10-2 8c-1 4-2 7-2 11-1 6 0 11 0 17l1 27v23c0 3 1 7 0 11v-8l-3 3h-1l1 2c-1 1-1 2-2 2h-1v-1c-1-3 0-9 0-12h0-1v12c0 1-1 2-1 3l-1-44 1-30c0-5 1-10 2-15 0-4 1-8 2-12-1 0-1 1-2 2h0 0c-1-1-1 0-2-1l1-2 1-1c2-4 2-5 1-9l2-3c-1-1-3-2-4-2l-2-2 1-2c-2-2-2-2-4-2-1-5-1-10 0-15v-3-5l1-4 1 2c2-4 2-9 5-12h3l1 1h0l2-2z" class="Y"></path><path d="M530 364c2 1 2 2 2 3 0 2 0 2-2 4l-4 1-1-1v-1c0-2-1-3-1-5 1 1 2 1 3 1 2 0 2-1 3-2z" class="G"></path><path d="M529 355c1-1 1-2 2-3h1v1c-3 3 0 8-2 11-1 1-1 2-3 2-1 0-2 0-3-1 0-2 1-5 2-7h2l1-3z" class="V"></path><path d="M530 394c0-4 2-8 3-13 1-4 1-8 2-13v3c1 1 0 2 1 3v1 1 2l1 1c0 2 0 4-1 6v1c0 1 0 1 1 2h0l-3 10c-1-2-1-4-1-6l-1 1v1h-2z" class="D"></path><path d="M533 392v-1c0-2 1-6 2-8l1 1v2c0 1 0 1 1 2h0l-3 10c-1-2-1-4-1-6z" class="F"></path><path d="M530 371h2c0 3 0 5-1 8 0 1 0 3-1 4v1c0 1-1 1-1 2v1c-1 3-1 6-2 8-1 0-1 1-2 2h0 0c-1-1-1 0-2-1l1-2 1-1c2-4 2-5 1-9l2-3c-1-1-3-2-4-2l-2-2 1-2h1c0-1 3-1 4-1 0-1-1-1-2-2l4-1z" class="N"></path><path d="M523 375h1c2 2 3 3 4 5v1c-1-1-3-2-4-2l-2-2 1-2z" class="Y"></path><path d="M526 450c1 0 1 0 1-1 1 1 1 2 1 4h-1v1c1 1 1 2 2 3v1l-2 1v2c1 0 1 0 2 1 0 1 0 1 1 2l1-1v-2 23c0 3 1 7 0 11v-8l-3 3h-1v-2l1-1-1-1v-3c0-1 0-2 1-3l-2-2c1-2 1-2 1-4l-1 1v-1c0-1 1-2 1-3 1-1 1-1 1-2l-2-1c1-1 1-1 0-2v-1l1-1c0-1 0-1-1-2 0-1 1-2 0-3v-9z" class="H"></path><path d="M529 387c1 2 1 3 0 6-1 4-2 9-3 13 0 1-1 3-1 5h0v2c-1 4-1 10-1 14v33 21 12c0 1-1 2-1 3l-1-44 1-30c0-5 1-10 2-15 0-4 1-8 2-12 1-2 1-5 2-8z" class="X"></path><path d="M532 335c0 1 1 2 2 2l-4 9c0 2-1 4-2 6h0l1 3-1 3h-2c-1 2-2 5-2 7s1 3 1 5v1l1 1c1 1 2 1 2 2-1 0-4 0-4 1h-1c-2-2-2-2-4-2-1-5-1-10 0-15v-3-5l1-4 1 2c2-4 2-9 5-12h3l1 1h0l2-2z" class="W"></path><path d="M520 356v-5l3 1h0c-1 2-1 4-1 6l-1 8c-1-3-1-7-1-10z" class="Y"></path><path d="M520 346l1 2c1 0 2 0 3 1l-1 3-3-1v5l-1-1v-5l1-4z" class="V"></path><path d="M523 352h2c0-2 0-3 1-4h1c-1 2-1 4-1 6l1-2h1 0l1 3-1 3h-2c-1 2-2 5-2 7s1 3 1 5v1c-3-1-3-2-4-5l1-8c0-2 0-4 1-6z" class="E"></path><path d="M528 352l1 3-1 3h-2l2-6z" class="Y"></path><path d="M523 352h2c0-2 0-3 1-4h1c-1 2-1 4-1 6 0 1 0 1-1 3 0 0 0 2-1 2v1c0 1 0 2-1 2-1-2 1-3-1-4 0-2 0-4 1-6z" class="Z"></path><path d="M532 335c0 1 1 2 2 2l-4 9c0 2-1 4-2 6h-1l-1 2c0-2 0-4 1-6h-1c-1 1-1 2-1 4h-2 0l1-3c-1-1-2-1-3-1 2-4 2-9 5-12h3l1 1h0l2-2z" class="f"></path><path d="M525 345c2-1 2-1 2-2 1 0 1 0 1 1l1-1v2l-2 3h-1c-1 1-1 2-1 4h-2 0l1-3 1-4z" class="T"></path><path d="M526 336h3l1 1c-2 2-4 5-5 8l-1 4c-1-1-2-1-3-1 2-4 2-9 5-12z" class="Y"></path><defs><linearGradient id="R" x1="533.319" y1="428.176" x2="524.805" y2="427.353" xlink:href="#B"><stop offset="0" stop-color="#e8ba82"></stop><stop offset="1" stop-color="#f3dbbd"></stop></linearGradient></defs><path fill="url(#R)" d="M530 394h2v-1l1-1c0 2 0 4 1 6l-2 8c-1 4-2 7-2 11-1 6 0 11 0 17l1 27v2l-1 1c-1-1-1-1-1-2-1-1-1-1-2-1v-2l2-1v-1c-1-1-1-2-2-3v-1h1c0-2 0-3-1-4 0 1 0 1-1 1v-12c-1-8-1-17 0-25 0-6 2-13 4-19z"></path><path d="M594 245h3c3 0 6 1 9 1l2 1v2c8 1 18 4 22 10 2 2 4 3 5 4v1h-1l-1 1h-2c3 4 3 6 3 11l-1 7h0c-3 0-5-2-7-3-11-2-21 2-30 7-1 1-2 2-4 3l-1 1c-4 4-9 8-13 12-14 18-19 40-22 62-1 6-3 14-3 20v1l-1 10-1-1c-1 4-1 9-2 13v5l-1 1v2h-1v-1-2l-1 14-2 37v6h-1c-1 0-2 1-2 2h-2l-1-21v5h-1v-6c-1-10 0-20 0-30 0-5 0-10-1-15-1 0-3 1-4 1l2-8 3-10h0c-1-1-1-1-1-2v-1c1-2 1-4 1-6l-1-1v-2-1-1c-1-1 0-2-1-3v-3-2c-1-2-1-5-1-7v-12c0 2 0 4-1 5l-1 1v-1h-1c-1 1-1 2-2 3l-1-3h0c1-2 2-4 2-6l4-9 2-5 1-2c-1-1 0-2-2-3 0-3-1-4-3-6 0-2-1-3-2-4-2 1-4 1-5 2l-2 2c0 1-1 2-1 3l-1 2c-1-3 0-7 0-10l2 1v-1-1c0-1 1-2 1-4-3-2-1-5-2-8h-1c0-2 0-2 1-3l-1-6v-3-6-3l3-3c1 1 1 1 3 1l1-1c1-2 2-4 4-5h0c3-5 5-9 9-12 8-9 20-14 32-16 7-1 14-1 21-1z" class="J"></path><path d="M580 265c3-2 6-3 9-3-3 2-5 4-7 6l-2-3z" class="B"></path><path d="M590 263l2-1v1l-1 8h-1l-1-1c0-2 0-5 1-7z" class="F"></path><path d="M580 265l2 3-3 4-3-3 4-4z" class="K"></path><path d="M556 311v1c0 2-1 4-1 6 1 0 1 1 2 1l4 2-2 3s-1 0-1-1c-2-1-4-2-5-2 0-3 2-7 3-10z" class="H"></path><path d="M529 317c3 0 4 0 5 1 2 3 3 5 3 8v2 1 1c-1-1 0-2-2-3 0-3-1-4-3-6 0-2-1-3-2-4h-1z" class="E"></path><path d="M561 288c1-2 3-4 4-6 1 2 2 2 4 3l-4 6c-1-2-2-2-4-3z" class="R"></path><path d="M536 332c0 4-1 7-2 11v4c0 2 0 4-1 5l-1 1v-1h-1c-1 1-1 2-2 3l-1-3h0c1-2 2-4 2-6l4-9 2-5z" class="S"></path><path d="M530 346l2 1h0l1-1c0 1 0 2-1 4h0v2h-1c-1 1-1 2-2 3l-1-3h0c1-2 2-4 2-6z" class="O"></path><path d="M556 311c2-4 4-9 7-13s7-7 11-10l1 1-5 4c-2 2-5 5-5 7 0 1 0 1 1 2l-1 1-1 2v3l-2-1c-2 0-4 2-5 4v1h-1v-1z" class="R"></path><path d="M562 307c0-1 0-1-1-1v-2c1 0 2 1 3 1v3l-2-1z" class="U"></path><path d="M535 366l1-10c0 4 0 8 1 11s2 6 2 10c1 6 1 12 0 18 0-3 0-4-2-6v-1h0c-1-1-1-1-1-2v-1c1-2 1-4 1-6l-1-1v-2-1-1c-1-1 0-2-1-3v-3-2z" class="H"></path><path d="M574 288c7-5 14-10 22-14 3-2 7-3 10-4v-2-1c1 0 1 1 1 2 1 1 8 0 10 0-1 1-3 1-5 2-3 1-8 2-11 3-7 3-16 7-22 12h0l-4 3-1-1zm2-19l3 3c-3 4-7 8-10 13-2-1-3-1-4-3 3-5 6-9 11-13z" class="U"></path><path d="M557 312v-1c1-2 3-4 5-4l2 1 1 2-3 8-1 3-4-2c-1 0-1-1-2-1 0-2 1-4 1-6h1z" class="V"></path><path d="M557 312c1 0 1 0 2 1h0c-1 1-1 3-1 4h1 0l1-2c0 1 0 1 1 2-1 1-1 1-2 1l-2 1c-1 0-1-1-2-1 0-2 1-4 1-6h1z" class="N"></path><path d="M561 288c2 1 3 1 4 3-8 9-15 23-17 34v-1c0-2 0-4 1-6 1-3 1-5 1-8 1 0 1-2 1-3l3-7c2-4 5-8 7-12z" class="a"></path><path d="M563 271c3-2 7-4 10-5a30.44 30.44 0 0 1-8 8c-6 6-11 13-16 19 0-2 3-5 4-7l-1-2 2-4c0-1-1-2-3-3 2-3 5-4 8-5l4-1z" class="F"></path><path d="M559 272l4-1c-4 5-6 10-10 15l-1-2 2-4c0-1-1-2-3-3 2-3 5-4 8-5z" class="L"></path><path d="M559 272v1l-5 7c0-1-1-2-3-3 2-3 5-4 8-5z" class="F"></path><path d="M617 269l1 1h0c0 1 1 1 1 2 1 0 2 0 3-1l2 1c-1 1-2 1-3 2v-1c-9 2-17 5-25 9h0c-4 2-9 5-12 10-4 4-7 8-11 13l-2-3 7-6 7-7c5-5 9-8 16-11 0-2 0-2 1-3l-1-1c3-1 8-2 11-3 2-1 4-1 5-2z" class="C"></path><path d="M617 269l1 1h0c0 1 1 1 1 2 1 0 2 0 3-1l2 1c-1 1-2 1-3 2v-1c-5-2-15 3-20 5 0-2 0-2 1-3l-1-1c3-1 8-2 11-3 2-1 4-1 5-2z" class="S"></path><path d="M537 388v1c2 2 2 3 2 6l-1 56v5h-1v-6c-1-10 0-20 0-30 0-5 0-10-1-15-1 0-3 1-4 1l2-8 3-10z" class="G"></path><path d="M537 388v1c0 5 1 10-1 15v1c-1 0-3 1-4 1l2-8 3-10z" class="O"></path><path d="M548 325c1 1 0 2 0 3v3c-1 1-1 2-1 3v1c0 2-1 5-1 8-1 2 0 5-1 7v10 2 30h0c0 2 1 4 0 5l-1-1v-3c-1-3-1-8-1-11v-22c0-1 1-1 1-2 0-3-1-7 0-10 1-6 1-12 1-18l-1 4-3 9c0-3 0-7 1-10 0-3 2-6 3-8 1-3 1-6 2-8l3-6v-1c0 3 0 5-1 8-1 2-1 4-1 6v1z" class="S"></path><path d="M554 338c1 2 1 3 1 5l-1 1h2l1 1-6 50c-1 4-1 9-2 13v5l-1 1v2h-1v-1-2c-1-6 0-13 1-19l3-30 3-26z" class="B"></path><path d="M579 286h0c6-5 15-9 22-12l1 1c-1 1-1 1-1 3-7 3-11 6-16 11l-7 7-7 6-2 2-3-2c-1-1-1-1-1-2 0-2 3-5 5-7l5-4 4-3z" class="W"></path><path d="M575 289l4-3c-1 3-3 5-5 7l-2 1-2-1 5-4z" class="P"></path><path d="M574 293c1 1 1 1 3 1l1-1v1c0 1 0 1-1 2h1l-7 6-2 2-3-2c-1-1-1-1-1-2 0-2 3-5 5-7l2 1 2-1z" class="O"></path><path d="M550 278l1-1c2 1 3 2 3 3l-2 4 1 2c-1 2-4 5-4 7-1 3-3 5-5 7-1 2-2 3-4 5v1c-1 1-1 1-1 2s-1 2-1 3c-2 0-2 2-4 2v2 1 2c-1-1-2-1-5-1h1c-2 1-4 1-5 2l-2 2c0 1-1 2-1 3l-1 2c-1-3 0-7 0-10l2 1v-1-1c1-3 3-7 5-10 2-2 3-5 5-8l2-2h1l2-2-1-2 1-1c1 0 1 1 3 1l1-2c2-1 2-2 4-4 0-1 1-1 2-2l-1-1v-1-1c1-1 2-1 2-1l1-1z" class="S"></path><path d="M550 278l1-1c2 1 3 2 3 3l-2 4-2 5c0-3 1-5 1-8h-4v-1c1-1 2-1 2-1l1-1z" class="M"></path><path d="M548 283c1 2 1 3 1 4-1 3-4 6-7 8l-2-3c-1 1 0 2-1 3l-1 1-2-1 2-2-1-2 1-1c1 0 1 1 3 1l1-2c2-1 2-2 4-4 0-1 1-1 2-2z" class="R"></path><path d="M529 317v-1l1-1 1-2c1-2 2-3 2-4 3-5 7-11 12-13h0l-1 2c-1 2-3 4-4 6v1 1c-1 1-1 1-1 2s-1 2-1 3c-2 0-2 2-4 2v2 1 2c-1-1-2-1-5-1z" class="N"></path><path d="M536 295l2 1 1-1c1-1 0-2 1-3l2 3-3 4c-4 5-7 10-11 15-1 2-3 3-3 5h0l-2 2c0 1-1 2-1 3l-1 2c-1-3 0-7 0-10l2 1v-1-1c1-3 3-7 5-10 2-2 3-5 5-8l2-2h1z" class="D"></path><path d="M536 295l2 1 1-1c1-1 0-2 1-3l2 3-3 4-2-1c-2 2-3 5-6 7v-1l1-1c1-2 1-3 1-5v-1l2-2h1z" class="M"></path><path d="M584 292c3-5 8-8 12-10 0 1-1 3-1 4l1 1c-1 1-2 2-4 3l-1 1c-4 4-9 8-13 12-14 18-19 40-22 62-1 6-3 14-3 20v1l-1 10-1-1 6-50-1-1h-2l1-1c0-2 0-3-1-5 0-5 4-10 4-15 0 1 1 1 1 1l2-3 1-3 3-8-1-2v-3l1-2 1-1 3 2 2-2 2 3c4-5 7-9 11-13z" class="O"></path><path d="M584 292c3-5 8-8 12-10 0 1-1 3-1 4l1 1c-1 1-2 2-4 3l-1 1c-3 0-6 3-9 6v-1c0-1 1-1 1-2 1-1 1-1 1-2z" class="S"></path><path d="M566 302l3 2 2-2 2 3c-3 4-7 9-9 15l-2-2 3-8-1-2v-3l1-2 1-1z" class="R"></path><path d="M566 302l3 2c-1 2-2 3-4 4v2l-1-2v-3l1-2 1-1z" class="K"></path><path d="M562 318l2 2c-3 8-5 16-7 25l-1-1h-2l1-1c0-2 0-3-1-5 0-5 4-10 4-15 0 1 1 1 1 1l2-3 1-3z" class="f"></path><path d="M537 274h1l1-1 1 1s0 1-1 2l2-1 3 1c2 1 4 2 6 2l-1 1s-1 0-2 1v1 1l1 1c-1 1-2 1-2 2-2 2-2 3-4 4l-1 2c-2 0-2-1-3-1l-1 1 1 2-2 2h-1l-2 2c-2 3-3 6-5 8-2 3-4 7-5 10 0-1 1-2 1-4-3-2-1-5-2-8h-1c0-2 0-2 1-3l-1-6v-3-6-3l3-3c1 1 1 1 3 1l1-1c1-2 2-4 4-5h0l-1 3c0 2 1 3 2 3 1-2 2-4 4-6z" class="S"></path><path d="M522 300v-3c1-1 0 0 2-1v1c1 0 3 0 4-1-1 5-2 11-4 15-3-2-1-5-2-8h-1c0-2 0-2 1-3z" class="D"></path><path d="M528 285c1 0 1 1 2 1v2h1c3 1 7 1 10 1h1l-1 2c-2 0-2-1-3-1l-1 1 1 2-2 2h-1c-1-1-3 0-4-1v-4l-1 1v1h-1v-1c-1 0-1 0-2-1l1-5h0z" class="B"></path><path d="M528 285c1 0 1 1 2 1v2h1c3 1 7 1 10 1-3 1-8-1-10 1l-1 1v1h-1v-1c-1 0-1 0-2-1l1-5h0z" class="g"></path><path d="M532 274l-1 3c0 2 1 3 2 3l-3 6c-1 0-1-1-2-1h0l-1 5c0 2-1 4 0 6h1c-1 1-3 1-4 1v-1c-2 1-1 0-2 1v3l-1-6v-3-6-3l3-3c1 1 1 1 3 1l1-1c1-2 2-4 4-5h0z" class="D"></path><path d="M528 285l3-8c0 2 1 3 2 3l-3 6c-1 0-1-1-2-1z" class="S"></path><path d="M525 291v-1c1-2 2-3 3-5l-1 5c0 2-1 4 0 6h1c-1 1-3 1-4 1v-1c-2 1-1 0-2 1v3l-1-6v-3h4z" class="B"></path><path d="M521 291h4v2c-1 1-2 1-4 1v-3z" class="I"></path><path d="M537 274h1l1-1 1 1s0 1-1 2l2-1 3 1c2 1 4 2 6 2l-1 1s-1 0-2 1v1 1l1 1c-1 1-2 1-2 2-2 2-2 3-4 4h-1c-3 0-7 0-10-1h-1v-2l3-6c1-2 2-4 4-6z" class="J"></path><path d="M537 274h1l1-1 1 1s0 1-1 2v1c-1 2-1 3-3 4l-2-1c-2 3-2 5-3 8h-1v-2l3-6c1-2 2-4 4-6z" class="b"></path><path d="M541 275l3 1c2 1 4 2 6 2l-1 1s-1 0-2 1v1 1l1 1c-1 1-2 1-2 2-3-3-7-3-10-4 2-1 2-2 3-4v-1l2-1z" class="F"></path><path d="M541 275l3 1c-1 2-1 3-2 4l-2-1s-1-1-1-2v-1l2-1z" class="I"></path><path d="M594 245h3c3 0 6 1 9 1l2 1v2c8 1 18 4 22 10 2 2 4 3 5 4v1h-1l-1 1h-2c-3-2-6-3-9-5h0c-5-1-10-3-15-4-17-3-38-2-52 7-5 3-10 7-13 11l-1 1-2 1c1-1 1-2 1-2l-1-1-1 1h-1c-2 2-3 4-4 6-1 0-2-1-2-3l1-3c3-5 5-9 9-12 8-9 20-14 32-16 7-1 14-1 21-1z" class="J"></path><path d="M627 258c-1-1-3-2-4-3-6-3-13-5-19-6-4 0-8 0-12-1 5 0 11-1 16 1 8 1 18 4 22 10 2 2 4 3 5 4v1h-1l-1 1h-2c-3-2-6-3-9-5l3 1h1c1 0 1 1 2 1 0-1 0-2-1-2v-1-1z" class="T"></path><path d="M537 274c4-9 14-15 24-19 21-8 45-7 66 3v1 1c1 0 1 1 1 2-1 0-1-1-2-1h-1l-3-1h0c-5-1-10-3-15-4-17-3-38-2-52 7-5 3-10 7-13 11l-1 1-2 1c1-1 1-2 1-2l-1-1-1 1h-1z" class="H"></path><path d="M427 239c5 1 9 5 14 6h13c17 2 32 9 42 23 2 3 4 5 5 8 0 1 1 3 2 4l3 9v6h-1c0-2-1-4-1-6l-1-1v4l-1 4h-1l-1 1c1 1 1 1 1 2 2 7 8 13 9 20l2 7 1 1v-1l2-1h0c2 0 2 0 3 1v2l1-1 1-1h0c0 2 1 8 3 9l3 1h0c-3 3-3 8-5 12l-1-2-1 4v5 3l-1-1v-4l-3-1h-1v2s1 0 2 1h0 0-2l-1 4c0 3 0 8 1 11-1 1-2 1-3 2h-1c-1 0-1 0-3 1l-2-1h-3c-1-1-2-2-3-4h-1c-1-2 1-6-1-9l-1 9v5c-1 2 0 5-1 7v1l1 2c0 5-1 10 0 15h1c0 3 1 5 2 8v2c0-2-1-3-2-4-1 3 0 6 0 9v20 44 17l-1 4h0l-1-3v12c0 2-1 4 0 6l-1 10h-1c-2-3 1-8-1-10l-1-36-1-19c0-10 1-20 0-29v15h-1c-1-2-1-4-1-6l-1-1c-1-2 0-10-1-14v7h-1 0c-1 1-1 2-1 2h-1c1-1 0-3-1-4v-1l-1-17c-1-11 0-23-2-34l-1 1h0c-1-1-1-3-1-4s-1-1-1-2-1-1-1-3c-1-10-3-19-5-29-5-22-17-41-36-52-4-4-12-6-18-7-4-1-9-1-13 0l-5 3c-1-4 0-8-1-13h0c-1-1-2-2-2-4l1-3 2-3c-1 0-1 0-1-1l2-2c1-3 4-7 6-9s5-3 7-5v-1l-2-1c1 0 1-1 1-2 2 1 5 2 7 1h3l6-1h0z" class="J"></path><path d="M441 263c1 0 2 0 3 1h1c1 0 2 1 3 2h-1c-2 1-2 0-4 0l-1 1-1-4z" class="S"></path><path d="M441 263l1 4c0 2 1 4 0 5h-1c-1-2-2-6-2-9h2z" class="C"></path><path d="M496 368v5c-1 2 0 5-1 7v1h-1v6l-1-4c0-5 2-10 3-15z" class="F"></path><path d="M472 272v-1c4 0 7 2 9 5l2 1c-2 1-3 1-4 2v1c-3-2-5-5-7-8z" class="G"></path><path d="M495 495c0-3 1-8 0-11-1-1-1-2-1-2 0-1 0-2 1-2l1-1c0-2 0-6-1-8h-1l1-2c0 1 1 2 2 3 0 1-1 5 0 5v17l-1 4h0l-1-3z" class="H"></path><path d="M414 269c4 0 7 1 10 0 1-1 1-2 2-3h0v4c6 3 12 5 18 9h-1c-2-1-5-2-7-3-5-2-10-4-15-5-2-1-5-1-7-2z" class="R"></path><path d="M469 259c1 0 1 0 2 1l3 1c0-1 1-1 1-1 3 1 7 4 10 6h0c2 3 6 6 7 9h-1-1v2c-1-1-2-2-2-3h1l-4-4c-6-4-10-8-16-11z" class="B"></path><path d="M445 264l1-1c4 2 9 5 12 9 0 1-1 2-1 2 0 2 1 3 0 4 1 2 3 3 4 5 0 1 1 1 2 3h-1c-5-5-10-13-14-20-1-1-2-2-3-2z" class="F"></path><path d="M413 273c-2 1-3 1-5 0v-1c1-1 2-2 3-2l1-1h2c2 1 5 1 7 2 5 1 10 3 15 5-3 1-5-1-7-1h0c2 1 4 2 5 4-7-3-14-6-21-6h0z" class="P"></path><path d="M478 302c2 4 3 8 4 12 7 21 6 41 7 62 0 9 1 19 0 28l-1-1c1-9-1-18-1-27 0-14 1-27-1-41-1-11-7-22-11-32 2 2 3 5 4 8h1c0-2-1-4-2-5v-1-2-1z" class="G"></path><path d="M486 296h0l-28-30c5 2 8 4 12 7l2-1c2 3 4 6 7 8l3 3c0 4 7 9 9 13-1 0-2-1-4-2l-1 2z" class="H"></path><path d="M472 272c2 3 4 6 7 8l3 3c0 4 7 9 9 13-1 0-2-1-4-2l-1 2-3-6c-4-6-8-12-13-17l2-1z" class="O"></path><path d="M458 272c7 7 12 15 17 24 1 1 3 4 3 6v1 2 1c1 1 2 3 2 5h-1c-1-3-2-6-4-8-4-6-7-11-12-16l-1-1h1c-1-2-2-2-2-3-1-2-3-3-4-5 1-1 0-2 0-4 0 0 1-1 1-2z" class="K"></path><defs><linearGradient id="S" x1="493.221" y1="425.111" x2="496.996" y2="424.875" xlink:href="#B"><stop offset="0" stop-color="#cf9e66"></stop><stop offset="1" stop-color="#eac99f"></stop></linearGradient></defs><path fill="url(#S)" d="M493 383l1 4v-6h1l1 2c0 5-1 10 0 15h1c0 3 1 5 2 8v2c0-2-1-3-2-4-1 3 0 6 0 9v20 44c-1 0 0-4 0-5-1-1-2-2-2-3 1-6 0-14 0-21l-1-25v-25c-1-5-1-10-1-15z"></path><path d="M463 287c5 5 8 10 12 16 4 10 10 21 11 32-3-2-5-4-6-7v-2c-1-1-1-2-1-3h0c-1-2-1-4-3-5l-1 1c-1 2-2 4-2 6h0l-6-14c0-2 1-3 3-4v-1h1v-1c0-1-1-2-2-3v-1l-2-1c0-1-2-4-3-5l1-1h2l-5-5h0v-1l1-1z" class="L"></path><path d="M471 300c2 4 4 9 5 13l-1-3c-2-2-2-3-4-4v-1c0-1-1-2-2-3v-1l2-1z" class="a"></path><path d="M464 295l1-1h2c1 2 3 4 4 6l-2 1-2-1c0-1-2-4-3-5z" class="F"></path><path d="M471 306c2 1 2 2 4 4l1 3c0 1 1 2 1 3 1 1 1 1 1 2l1 2c1 0 1 1 1 1v3l-1-1c-1-2-1-4-3-5l-1 1c-1 2-2 4-2 6h0l-6-14c0-2 1-3 3-4v-1h1z" class="J"></path><path d="M470 307h0v2c-1 1-2 1-2 2h0c2 2 4 6 7 7h0v1c-1 2-2 4-2 6h0l-6-14c0-2 1-3 3-4z" class="L"></path><defs><linearGradient id="T" x1="464.953" y1="299.396" x2="433.964" y2="278" xlink:href="#B"><stop offset="0" stop-color="#161618"></stop><stop offset="1" stop-color="#3e3a35"></stop></linearGradient></defs><path fill="url(#T)" d="M434 279c-1-2-3-3-5-4h0c2 0 4 2 7 1 2 1 5 2 7 3h1l18 10 5 5h-2l-1 1c1 1 3 4 3 5l-2 2-2 2-4-3c-5-6-11-12-17-17-3-1-6-3-8-5h0z"></path><path d="M459 290l5 5c1 1 3 4 3 5l-2 2-1-5c-1-2-2-2-3-3-2-1-2-2-2-4z" class="O"></path><path d="M444 279l18 10 5 5h-2l-1 1-5-5c-5-4-10-7-16-11h1z" class="a"></path><path d="M483 277l1 1 4-4c0 1 1 2 2 3v-2h1v2c1 1 3 2 4 3h0c1 0 2 1 2 0l1 1c0 2 2 5 3 7h2v4l-1 4h-1l-1 1c1 1 1 1 1 2 2 7 8 13 9 20v1l-2-2h-1c-6-7-9-15-16-22-2-4-9-9-9-13l-3-3v-1c1-1 2-1 4-2z" class="F"></path><path d="M491 277c1 1 3 2 4 3l-4 1h0c-1-1-1-1-1-2v-1l1-1z" class="R"></path><path d="M494 296l-1-1-3-3c1-1 2-1 4-2 0 1 1 2 1 3s0 1 1 2c-1 0-2 1-2 1z" class="M"></path><path d="M496 295h0c2 1 3 2 4 2 1 1 1 1 1 2-1 0-1 0-2 1v1l-5-5s1-1 2-1z" class="I"></path><path d="M490 289c-2-1-3-2-5-4 1-1 3-2 5-3v1 6z" class="P"></path><path d="M499 289h0l2-1h2v4l-1 4h-1l-1 1c-1 0-2-1-4-2h0c-1-1-1-1-1-2s-1-2-1-3l-1-1h6z" class="D"></path><path d="M499 289h0l2-1h2v4l-1 4h-1l-1 1c-1 0-2-1-4-2 2 0 3-1 4-2s1-2 0-4h-1z" class="O"></path><path d="M495 280c1 0 2 1 2 0l1 1c0 2 2 5 3 7l-2 1h0-6-3v-6-1l1-1 4-1h0z" class="N"></path><path d="M495 280h0c-1 1-1 1-1 2-1 1-3 1-4 1v-1l1-1 4-1z" class="O"></path><path d="M475 319l1-1c2 1 2 3 3 5h0c0 1 0 2 1 3v2c1 3 3 5 6 7 2 14 1 27 1 41 0 9 2 18 1 27l1 1v11c0 3 1 6 0 8l1 6v15h-1c-1-2-1-4-1-6l-1-1c-1-2 0-10-1-14v7h-1 0c-1 1-1 2-1 2h-1c1-1 0-3-1-4v-1l-1-17c-1-11 0-23-2-34-1-3-1-7-1-10-1-4 0-9-1-14l-2-16c0-3-1-6-1-10l-1-1c0-2 1-4 2-6z" class="J"></path><path d="M488 403l1 1v11c0 3 1 6 0 8h0c0-1 0-4-1-5v2 1c0 1 0 2-1 4 0-8-1-15 1-22z" class="B"></path><path d="M487 425c1-2 1-3 1-4v-1-2c1 1 1 4 1 5h0l1 6v15h-1c-1-2-1-4-1-6l-1-1v-12z" class="D"></path><path d="M475 319l1-1c2 1 2 3 3 5h0l-2-1c-1 0-2 1-2 2-1 2 1 4 1 7 1 2 2 5 2 8l3 26 2 22c1 3 2 7 1 9 1 6 1 12 1 17 1 4 1 7 1 10v7h-1 0c-1 1-1 2-1 2h-1c1-1 0-3-1-4v-1l-1-17c-1-11 0-23-2-34-1-3-1-7-1-10-1-4 0-9-1-14l-2-16c0-3-1-6-1-10l-1-1c0-2 1-4 2-6z" class="N"></path><path d="M482 397h1c0 2 0 2 1 3v5c1-3 0-6 0-9 1 6 1 12 1 17 1 4 1 7 1 10v7h-1l-3-33z" class="B"></path><path d="M475 319l1-1c2 1 2 3 3 5h0l-2-1c-1 0-2 1-2 2-1 2 1 4 1 7 1 2 2 5 2 8l3 26 2 22c1 3 2 7 1 9 0 3 1 6 0 9v-5c-1-1-1-1-1-3h-1l-3-27c-1-2 0-4-1-6v-3c0-2 1-4 0-6-1-10-1-19-4-29l-1-1c0-2 1-4 2-6z" class="D"></path><path d="M501 316c2 0 4 1 6 2h0 1l2 2v-1l2 7 1 1v-1l2-1h0c2 0 2 0 3 1v2l1-1 1-1h0c0 2 1 8 3 9l3 1h0c-3 3-3 8-5 12l-1-2-1 4v5 3l-1-1v-4l-3-1h-1v2s1 0 2 1h0 0-2l-1 4c0 3 0 8 1 11-1 1-2 1-3 2h-1c-1 0-1 0-3 1l-2-1h-3c-1-1-2-2-3-4h-1c-1-2 1-6-1-9h0v-1c-1-3 0-5-1-8v-3-10c-1-5-3-9-2-14 1-1 1-3 2-5 2-1 3-2 5-2z" class="T"></path><path d="M508 364v-1c1 2 1 2 0 4v1h2v-1-1 1c0 2-2 3-4 4l-1 1h-3c-1-1-2-2-3-4v-3l5 1c2 0 3-1 4-2z" class="E"></path><path d="M499 365h1c0-3 1-7 0-10l-1-3v-1c0-2 1-2 1-3 1 1 1 1 2 3 2 3 3 6 5 9 0 1 0 3 1 4-1 1-2 2-4 2l-5-1z" class="W"></path><path d="M496 347h1c0-4 0-8-1-12v-5l3 9 3 12c-1-2-1-2-2-3 0 1-1 1-1 3v1l1 3c1 3 0 7 0 10h-1v3h-1c-1-2 1-6-1-9h0v-1c-1-3 0-5-1-8v-3z" class="P"></path><path d="M505 338l5 9 1 1s1 0 1 1l1 1v9c0 3 0 8 1 11-1 1-2 1-3 2h-1c-1 0-1 0-3 1l-2-1 1-1c2-1 4-2 4-4l1-1c2-5-3-15-5-20v-4c0-2-1-2-1-4z" class="L"></path><path d="M501 316c2 0 4 1 6 2h0 1l2 2v-1l2 7 1 1c-1 3-3 5-5 7l-1 1v1h-1c-1 1-1 1-1 2 0 2 1 2 1 4v4l-7-14c-1-1-1-1 0-2h0l-2-3v-4h-3c1-1 1-3 2-5 2-1 3-2 5-2z" class="G"></path><path d="M501 323h4c1 1 1 1 1 3h-2v1h-2l-1-1h-1l1 1 1 2c-1 0-2 1-3 1l-2-3 2-2h0 1 1v-2z" class="B"></path><path d="M508 318l2 2v-1l2 7c-1 1-1 3-2 4l-1-1c-1 0-2 0-2-1v-1c0-1 0-2 1-3 0 0 1 0 1-1 0-2-1-3-1-5z" class="C"></path><path d="M501 316c2 0 4 1 6 2h0 1c0 2 1 3 1 5 0 1-1 1-1 1l-3-2h0c-2-1-2-1-3-1h-1c1-2 0-3 0-5z" class="B"></path><path d="M494 323c1-1 1-3 2-5 2-1 3-2 5-2 0 2 1 3 0 5h1c-1 1-1 1-1 2h0v2h-1-1 0l-2 2v-4h-3z" class="D"></path><path d="M512 326l1 1c-1 3-3 5-5 7l-1 1v1h-1c-1 1-1 1-1 2 0 2 1 2 1 4v4l-7-14c-1-1-1-1 0-2 1 2 2 3 4 4 3 0 4-1 6-3l1-1c1-1 1-3 2-4z" class="O"></path><path d="M515 325h0c2 0 2 0 3 1v2l1-1 1-1h0c0 2 1 8 3 9l3 1h0c-3 3-3 8-5 12l-1-2-1 4v5 3l-1-1v-4l-3-1h-1v2s1 0 2 1h0 0-2l-1 4v-9l-1-1c0-1-1-1-1-1l-1-1-5-9c0-1 0-1 1-2h1v-1l1-1c2-2 4-4 5-7v-1l2-1z" class="E"></path><path d="M510 347c3-4 3-10 5-15v1c0 5-1 12-2 17h0l-1-1c0-1-1-1-1-1l-1-1z" class="Y"></path><path d="M518 328l1-1c0 5 0 9 1 14 0 1 1 3 0 5l-1 4c-1-5-1-10-1-15 0-3-1-5 0-7z" class="P"></path><path d="M519 327l1-1h0c0 2 1 8 3 9l3 1h0c-3 3-3 8-5 12l-1-2c1-2 0-4 0-5-1-5-1-9-1-14zm-4-2c1 3 1 5 1 8h-1v-1c-2 5-2 11-5 15l-5-9c0-1 0-1 1-2h1v-1l1-1c2-2 4-4 5-7v-1l2-1z" class="T"></path><defs><linearGradient id="U" x1="393.124" y1="283.331" x2="484.002" y2="315.2" xlink:href="#B"><stop offset="0" stop-color="#191515"></stop><stop offset="1" stop-color="#3b3632"></stop></linearGradient></defs><path fill="url(#U)" d="M407 261l19-6c1 1 1 2 1 3-1 3 0 5-1 7v1h0c-1 1-1 2-2 3-3 1-6 0-10 0h-2l-1 1c-1 0-2 1-3 2v1c2 1 3 1 5 0h0c7 0 14 3 21 6h0c2 2 5 4 8 5 6 5 12 11 17 17l4 3 2-2 2-2 2 1v1c1 1 2 2 2 3v1h-1v1c-2 1-3 2-3 4l6 14h0l1 1c0 4 1 7 1 10l2 16c1 5 0 10 1 14 0 3 0 7 1 10l-1 1h0c-1-1-1-3-1-4s-1-1-1-2-1-1-1-3c-1-10-3-19-5-29-5-22-17-41-36-52-4-4-12-6-18-7-4-1-9-1-13 0l-5 3c-1-4 0-8-1-13h0v-1c2-4 7-6 10-8z"></path><path d="M459 305l4 1v3l-1 2c-1-1-3-5-3-6z" class="I"></path><path d="M459 301l4 3h-2v1l2 1-4-1-1-1 1-3z" class="F"></path><path d="M465 302l2-2 2 1v1c1 1 2 2 2 3v1h-1v1c-2 1-3 2-3 4h-2l-2-2v-3l-2-1v-1h2l2-2z" class="R"></path><path d="M470 306l-2-1v-3h1c1 1 2 2 2 3v1h-1zm-57-33h0c7 0 14 3 21 6h0c2 2 5 4 8 5 6 5 12 11 17 17l-1 3c-6-10-18-20-29-25-5-2-10-4-16-6z" class="I"></path><defs><linearGradient id="V" x1="474.365" y1="334.086" x2="468.6" y2="335.852" xlink:href="#B"><stop offset="0" stop-color="#e9c394"></stop><stop offset="1" stop-color="#f7e9c7"></stop></linearGradient></defs><path fill="url(#V)" d="M462 311l1-2 2 2h2l6 14h0l1 1c0 4 1 7 1 10l2 16c1 5 0 10 1 14 0 3 0 7 1 10l-1 1h0c-1-1-1-3-1-4s-1-1-1-2c-1-17-2-34-9-50-1-4-3-7-5-10z"></path><path d="M427 239c5 1 9 5 14 6h13c17 2 32 9 42 23 2 3 4 5 5 8 0 1 1 3 2 4l3 9v6h-1c0-2-1-4-1-6l-1-1h-2c-1-2-3-5-3-7l-1-1c0 1-1 0-2 0h0c-1-1-3-2-4-3v-2h1c-1-3-5-6-7-9h0c-3-2-7-5-10-6 0 0-1 0-1 1l-3-1c-1-1-1-1-2-1s-3-1-4-1c-2-1-4-1-6-2-11-2-22-2-33-1l-19 6c-3 2-8 4-10 8v1c-1-1-2-2-2-4l1-3 2-3c-1 0-1 0-1-1l2-2c1-3 4-7 6-9s5-3 7-5v-1l-2-1c1 0 1-1 1-2 2 1 5 2 7 1h3l6-1h0z" class="N"></path><path d="M484 263c8 6 15 14 17 24h1l1-1c0 1 0 2 1 3l-1-1h-2c-1-2-3-5-3-7l-1-1c0 1-1 0-2 0h0c-1-1-3-2-4-3v-2h1c-1-3-5-6-7-9h0c0-1 0-1-1-2v-1z" class="b"></path><path d="M400 257v1l1-1c11-8 26-12 39-10-3 1-6 1-8 1-5 0-10 1-14 3-3 1-6 1-8 3v1c-1 0-2 1-2 1-2 1-2 1-3 2l-2 1-1 2h0 1 4c-3 2-8 4-10 8v1c-1-1-2-2-2-4l1-3 2-3c-1 0-1 0-1-1l2-2h1z" class="T"></path><path d="M411 239c2 1 5 2 7 1h3l6-1c2 1 4 2 5 3l6 3c-13 0-28 3-38 12h-1c1-3 4-7 6-9s5-3 7-5v-1l-2-1c1 0 1-1 1-2z" class="R"></path><path d="M421 240l6-1c2 1 4 2 5 3-2 1-6 0-9 0v-2h-2z" class="I"></path><defs><linearGradient id="W" x1="441.532" y1="260.927" x2="441.392" y2="250.381" xlink:href="#B"><stop offset="0" stop-color="#be9260"></stop><stop offset="1" stop-color="#f2c592"></stop></linearGradient></defs><path fill="url(#W)" d="M410 255c20-8 45-7 65 2 2 1 8 4 9 6v1c1 1 1 1 1 2-3-2-7-5-10-6 0 0-1 0-1 1l-3-1c-1-1-1-1-2-1s-3-1-4-1c-2-1-4-1-6-2-11-2-22-2-33-1l-19 6h-4-1 0l1-2 2-1c1-1 1-1 3-2 0 0 1-1 2-1z"></path><path d="M408 256v2h1c-2 1-3 2-5 2l-1-1 2-1c1-1 1-1 3-2z" class="C"></path><path d="M533 855l-17 43-43-104-140-318-80-181-19-41-13-29c-4-10-8-19-15-27-13-15-37-19-56-20v-54h250l1 47c-5 1-10 2-14 4-14 6-26 15-32 29-3 8-4 17-2 25 1 5 4 10 6 16l13 29 35 83 27 65 21 48 80 196 110-271 36-86 13-33c3-6 6-13 7-20 3-17-3-36-13-50-15-21-36-31-60-35v-47h250v54c-12 1-24 3-35 7-10 4-18 9-24 18s-11 21-15 31l-21 45-52 119-28 66-28 65-98 224c-2 7-5 15-9 21l-29 67-1-1v2l-1-1c-2 4-4 9-4 14z" class="U"></path><path d="M373 132h8l-1 3-6-1-1-2z" class="I"></path><path d="M682 181c4 3 8 7 12 11l-1 1c-1-1-2-1-3-2h0l-5-4c-1-3-3-3-3-6z" class="E"></path><path d="M615 492c1 0 1 0 2-1 0 0 0-1 1-2 0-2 1-3 2-4h1c-1 2-5 13-6 13-2 1-2 3-3 5l-2 1c2-4 3-8 5-12z" class="C"></path><path d="M566 773l9-17c0-1 1-2 2-3-2 7-5 15-9 21l-1-2-1 1z" class="B"></path><path d="M170 167c8 1 15 3 23 5h-1c-2 0-3-1-5-1-1 0-1 0-2-1-2 0-5-1-7-1h-3l3 1h2s1 0 1 1c2 0 4 0 6 1h2v1h0l-22-4c1-1 2-1 3-2z" class="N"></path><path d="M167 169h-6c1-4 0-7 1-11v-19c0-3-1-7 0-10 1 8 0 17 0 25 0 4 2 10 0 14l1-1h1v-1c2 1 4 1 6 1-1 1-2 1-3 2z" class="J"></path><path d="M766 215c1 1 1 1 2 1 1 2 1 5 0 8v5c-1 2-2 5-4 7 0-3 1-7 1-10 1-3 1-7 1-11z" class="V"></path><path d="M766 215c-1-11-5-19-11-29 8 8 12 19 13 30-1 0-1 0-2-1z" class="Q"></path><path d="M636 434l2 2-7 16h-3l8-18z" class="V"></path><path d="M690 191h0c1 1 2 1 3 2l1-1c5 6 10 13 13 21h1v4c-3-4-5-9-8-13-3-5-7-9-10-13z" class="B"></path><path d="M162 129h1c2 7 1 15 1 22v15 1h-1l-1 1c2-4 0-10 0-14 0-8 1-17 0-25z" class="N"></path><path d="M610 504l2-1c1-2 1-4 3-5l-14 34c0-2 1-3 0-5l9-23z" class="E"></path><path d="M867 129v2h1 0v2c1 2 1 6 1 9v16 10h-1s-1 0-1-1c-1-3 0-32 0-38z" class="M"></path><path d="M636 434l14-34v1c0 2-2 6-3 8 2-1 2-5 4-7v1c-1 3-2 7-4 10l-9 23-2-2z" class="J"></path><path d="M263 228c-1-6-1-10-1-15 1-8 4-15 8-22 1-2 2-4 4-5 0 2-2 5-3 6-2 5-4 9-5 13v1c-2 7-1 14-1 20h-1v3l-1 1v-2z" class="P"></path><path d="M529 676c2 1 4 2 6 2h1c1 0 1 1 2 2l-1 2 1 2c-1 4-2 8-4 11v1l-3-10h0v-4c-1-2-2-4-2-6z" class="G"></path><path d="M529 676c2 1 4 2 6 2h1c1 0 1 1 2 2l-1 2h0c0-1 0-2-1-2v-2c-2 2 0 4-3 4h-2c-1-2-2-4-2-6z" class="F"></path><path d="M300 311c1 0 2 1 2 1 1 1 1 2 2 3l4 8 15 28c3 6 6 13 9 19h-1c-2-4-4-8-6-13l-6-10c-2-3-4-10-7-12h-1-1l-10-24zm94 208c0 1 1 1 2 2 2 2 3 6 4 9l12 24c3 7 7 15 9 22v3c-2-3-3-5-4-8l-6-14-17-38z" class="C"></path><path d="M626 596v3l1-1h0l30-57h0c0 2-2 6-3 8l-23 44c-5 10-9 21-14 30l-2 1c2-9 7-19 11-28z" class="G"></path><path d="M566 773l1-1 1 2-29 67-1-1v2l-1-1 29-68z" class="E"></path><path d="M706 359l1 1c-1 3-3 7-4 10-1 2-2 4-1 6l-39 86v-3c1-5 4-11 6-15l10-22 21-48 6-15z" class="B"></path><path d="M706 359c1-3 3-6 4-9l8-18c7-16 13-32 21-46 1-3 3-5 5-7l-4 9 1 1-39 87c-1-2 0-4 1-6 1-3 3-7 4-10l-1-1z" class="G"></path><path d="M703 464l-28 65h-1-1c-2 1-3 5-4 6l-12 22c-2 5-4 11-7 15h-1l16-34 19-39 9-18c2-5 5-14 10-17z" class="C"></path><path d="M458 508v-3l-1-1h1l1 2h1c3 5 5 11 7 17l15 36 47 117c0 2 1 4 2 6v4l-73-178z" class="Q"></path><path d="M217 165h5c5 2 12 1 18 1h33c5 0 10-1 15 0v6c-1 2-4 3-6 3-3 0-8 0-11-1h-5c-1 0-1-1-2-1-1-1-5 0-7 0h-21-6c-1 0-3-2-4-3-3-2-6-3-9-5z" class="G"></path><path d="M373 132H174l213-1v36c-16 3-30 13-39 27-6 9-10 23-7 34 1 5 5 10 6 14v1l-2-3c-1 2 2 6 3 8l8 19 4 10 3 5 4 11c2 5 13 28 13 32l-40-94c-3-10-1-24 4-33 9-17 24-27 42-33v-33h-5-8z" class="Q"></path><path d="M628 452h3l-5 13c1 1 2 2 2 4l-1 1c-1 4-3 8-5 12 0 1-1 3-1 3h-1c-1 1-2 2-2 4-1 1-1 2-1 2-1 1-1 1-2 1-2 4-3 8-5 12l-9 23c1 2 0 3 0 5-1 3-3 8-4 10-1 0-2 1-3 1l-56 141-1-2 1-2 82-207 8-21z" class="L"></path><path d="M622 474l4-9c1 1 2 2 2 4l-1 1-1 1c-1 1-1 3-2 4h-1l-1-1z" class="I"></path><path d="M601 527c1 2 0 3 0 5-1 3-3 8-4 10-1 0-2 1-3 1l7-16z" class="C"></path><path d="M622 474l1 1h1c1-1 1-3 2-4l1-1c-1 4-3 8-5 12 0 1-1 3-1 3h-1c-1 1-2 2-2 4-1 1-1 2-1 2-1 1-1 1-2 1 2-6 5-12 7-18zm156-268c-1-2-2-6-3-9s-2-6-4-9c-5-12-7-13-20-14h-7v-8h49l12-1c2 0 5-1 8 0-5 2-10 5-14 9h0c-6-2-15-1-21-1-4 0-8-1-11 0l-1 2c0 2 3 3 4 5 4 4 9 13 10 19 0 2-1 5-2 7z" class="G"></path><path d="M380 325c0-4-11-27-13-32l-4-11-3-5-4-10-8-19c-1-2-4-6-3-8l2 3v-1c3 6 6 13 8 19l14 33 78 181 10 22c0 2 3 7 3 9h-1l-1-2h-1l1 1v3c-2-4-4-8-5-11l-9-21-23-55-41-96z" class="N"></path><path d="M325 420c2 1 34 76 38 85l113 257 39 94c1-1 1-3 2-4v1l-2 6h-1v-1L325 420z" class="L"></path><path d="M189 173h0v-1h-2c-2-1-4-1-6-1 0-1-1-1-1-1h-2l-3-1h3c2 0 5 1 7 1 1 1 1 1 2 1 2 0 3 1 5 1h1c17 5 31 12 40 28 5 9 8 18 12 27l22 47 18 40c3 7 7 14 9 21-1 1-1 1-3 1-2-3-4-8-5-11l-8-17-32-68c-5-13-11-26-17-38-3-5-7-9-11-13-6-5-13-10-20-13-3-1-6-1-9-3z" class="Q"></path><path d="M294 341l3-1c1 2 2 4 2 5l4 10 24 53 48 105 83 186 39 90c6 14 14 29 18 43l73-169h1l-2 3-71 170c-2-1-4-8-5-10l-11-27-38-88-35-80-52-116-81-173v-1z" class="N"></path><path d="M650 400c0-2 2-6 3-8l10-24 39-88 7-16c1-3 4-7 4-11 3-16-5-35-14-48-14-21-37-35-60-39-1-4-1-8-1-12v-23l215 1h-18-35v1c-13 1-27 1-40 1l-77 1h-39v20c0 2-1 5 0 6 14 5 27 10 38 20h0c0 3 2 3 3 6l5 4c3 4 7 8 10 13 3 4 5 9 8 13 4 10 7 20 7 30 0 3 0 6-1 9l-12 26-30 73-15 33c-1 5-3 10-6 15v-1c-2 2-2 6-4 7 1-2 3-6 3-8v-1z" class="Q"></path><path d="M685 187c-5-4-10-8-15-11-10-6-20-10-31-12l1-32h160v1c-13 1-27 1-40 1l-77 1h-39v20c0 2-1 5 0 6 14 5 27 10 38 20h0c0 3 2 3 3 6z" class="G"></path><path d="M615 624l-21 48-42 97-25 59c0 1 0 1-1 2 0-2 2-5 3-7l5-13 22-51 39-95 41-96 32-71 70-157 42-95 13-30c4-8 7-17 13-24 14-18 37-22 59-24 0-13-2-26 1-38h1c0 6-1 35 0 38 0 1 1 1 1 1l-1 1h-1c-4-1-7 0-10 1-14 2-30 7-41 16-6 6-10 13-14 21l-13 28-29 64-85 188-38 85-7 17c-1 2-2 5-3 7-4 9-9 19-11 28z" class="Q"></path><path d="M381 132h5v33c-18 6-33 16-42 33-5 9-7 23-4 33l40 94 41 96c-1-1-2-1-2-2l-91-195c1-9 3-17 8-24 9-18 26-32 45-38l-4-5c-5-8 1-14 2-21l1-1 1-3z" class="G"></path><path d="M524 776l55-125h6v1l-68 160c-3-3-5-10-6-14l-13-29-39-90c-4-9-9-18-12-27l1-1c1 0 2-1 4 0 1 0 3 6 4 7l52 117 16 1z" class="Q"></path><path d="M508 775l16 1-8 17-8-18z" class="C"></path><path d="M813 165c14-5 28-8 43-8v-25h1c1 2 0 5 0 7v13c0 2 1 5 0 7l-19 2c-18 3-33 9-45 24-6 8-10 19-15 29l-11 25-24 55-53 118-70 161-23 51-6 14c-1 3-2 6-4 8l-6 1 82-185 39-86 39-87 23-53c2-2 3-5 4-7l10-23c1-2 2-5 2-7-1-6-6-15-10-19-1-2-4-3-4-5l1-2c3-1 7 0 11 0 6 0 15-1 21 1h0c4-4 9-7 14-9z" class="N"></path><path d="M421 579c0 1 1 2 1 3l5 12 24 53h-5c-2-1-2-1-3-3-6-13-11-26-17-40l-30-66-100-226-32-74c-9-19-16-40-30-56-16-19-40-21-62-23v-25c1 5 0 12 0 17v6c14 1 27 2 40 6l5 2c3 2 6 3 9 5 1 1 3 3 4 3h6 21c2 0 6-1 7 0 1 0 1 1 2 1l-2 2c-1 4-4 7-6 11-1 3-3 9-6 12h-1l12 29v2l1-1v-3h1c1 4 2 9 4 14 2 8 6 16 10 23l21 48 10 24h1l83 184 17 38 6 14c1 3 2 5 4 8z" class="Q"></path><path d="M256 185c2-4 5-6 8-9-1 4-4 7-6 11v-2-1l-2 1h0z" class="G"></path><path d="M256 185h0l2-1v1 2c-1 3-3 9-6 12h-1c0-5 2-10 5-14z" class="D"></path></svg>