<?xml version="1.0" encoding="UTF-8"?>
<svg width="128pt" height="128pt" version="1.1" viewBox="0 0 128 128" xmlns="http://www.w3.org/2000/svg">
 <path d="m12.023 36.266v-20.801c0-1.9141 1.5508-3.4648 3.4648-3.4648h20.801c1.9141 0 3.4648 1.5508 3.4648 3.4648 0 1.9141-1.5508 3.4648-3.4648 3.4648h-17.336v17.336c0 1.9141-1.5508 3.4648-3.4648 3.4648-1.9141 0-3.4648-1.5508-3.4648-3.4648zm100.54-24.266h-20.801c-1.9141 0-3.4648 1.5508-3.4648 3.4648 0 1.9141 1.5508 3.4648 3.4648 3.4648h17.336v17.336c0 1.9141 1.5508 3.4648 3.4648 3.4648 1.9141 0 3.4648-1.5508 3.4648-3.4648v-20.801c0-1.9141-1.5508-3.4648-3.4648-3.4648zm-76.266 97.066h-17.336v-17.336c0-1.9141-1.5508-3.4648-3.4648-3.4648-1.9141 0-3.4648 1.5508-3.4648 3.4648v20.801c0 1.9141 1.5508 3.4648 3.4648 3.4648h20.801c1.9141 0 3.4648-1.5508 3.4648-3.4648s-1.5508-3.4648-3.4648-3.4648zm76.266-20.801c-1.9141 0-3.4648 1.5508-3.4648 3.4648v17.336h-17.336c-1.9141 0-3.4648 1.5508-3.4648 3.4648s1.5508 3.4648 3.4648 3.4648h20.801c1.9141 0 3.4648-1.5508 3.4648-3.4648v-20.801c0-1.9141-1.5508-3.4648-3.4648-3.4648zm-48.535-31.199c-3.8242 0-6.9336 3.1094-6.9336 6.9336 0 3.8203 3.1094 6.9336 6.9336 6.9336 3.8242 0 6.9336-3.1094 6.9336-6.9336 0-3.8203-3.1094-6.9336-6.9336-6.9336zm50.93 9.4414c-0.92969 0.88672-23.055 21.762-50.93 21.762s-50.004-20.875-50.93-21.762c-1.4258-1.3633-1.4258-3.6484 0-5.0117 0.92969-0.88672 23.055-21.762 50.93-21.762s50.004 20.875 50.93 21.762c1.4258 1.3633 1.4258 3.6484 0 5.0117zm-37.066-2.5039c0-7.6484-6.2188-13.863-13.863-13.863-7.6445 0-13.863 6.2188-13.863 13.863 0 7.6484 6.2188 13.863 13.863 13.863 7.6445 0 13.863-6.2188 13.863-13.863z"/>
</svg>
