<?xml version="1.0" encoding="UTF-8"?>
<svg width="1200pt" height="1200pt" version="1.1" viewBox="0 0 1200 1200" xmlns="http://www.w3.org/2000/svg">
 <path d="m1026.7 150.59h-874.1c-18.633 0-33.867-15.117-33.867-33.867s15.117-33.867 33.867-33.867h874.1c18.633 0 33.867 15.117 33.867 33.867s-15.117 33.867-33.867 33.867zm0 959.77h-874.1c-18.633 0-33.867-15.117-33.867-33.867s15.117-33.867 33.867-33.867h874.1c18.633 0 33.867 15.117 33.867 33.867s-15.117 33.867-33.867 33.867zm0-656.02h-379.22c-14.062 0-25.43-11.367-25.43-25.43s11.367-25.43 25.43-25.43h379.22c14.062 0 25.43 11.367 25.43 25.43s-11.367 25.43-25.43 25.43zm0 347.7h-262.27c-14.062 0-25.43-11.367-25.43-25.43s11.367-25.43 25.43-25.43h262.27c14.062 0 25.43 11.367 25.43 25.43s-11.367 25.43-25.43 25.43zm-827.7 61.641c-13.242 0-26.484-3.5156-38.555-10.43-24.141-13.945-38.555-38.906-38.555-66.797v-333.52c0-27.891 14.414-52.852 38.555-66.797 24.141-13.945 52.969-13.945 77.109 0l288.87 166.76c24.141 13.945 38.555 38.906 38.555 66.797s-14.414 52.852-38.555 66.797l-288.87 166.76c-12.07 7.0312-25.312 10.43-38.555 10.43zm7.5-397.73v307.5l266.37-153.75z"/>
</svg>
