<?xml version="1.0" encoding="UTF-8"?>
<svg width="128pt" height="128pt" version="1.1" viewBox="0 0 128 128" xmlns="http://www.w3.org/2000/svg">
 <path d="m114.21 35.828c-0.81641-0.37891-1.6562-0.67188-2.4688-0.94531-1.4258-0.48437-2.7695-0.94141-3.6406-1.8086-0.87109-0.86328-1.3242-2.2148-1.8086-3.6367-0.27344-0.81641-0.56641-1.6562-0.94531-2.4688-0.27344-0.58594-0.86328-0.96094-1.5117-0.96094-0.64844 0-1.2344 0.375-1.5117 0.96094-0.37891 0.81641-0.67188 1.6562-0.94531 2.4688-0.03125 0.089844-0.058593 0.17578-0.089843 0.26172-1.4453-1.7891-3.0117-3.4805-4.6836-5.0547 1.0859-0.53516 2.3047-0.94922 3.5586-1.375 1.2188-0.41406 2.4805-0.83984 3.6758-1.4062 0.58594-0.27344 0.96094-0.86328 0.96094-1.5117 0-0.64844-0.375-1.2344-0.96094-1.5117-1.1992-0.55859-2.4609-0.98828-3.6758-1.4062-2.2695-0.76953-4.4141-1.5-5.8789-2.9648-1.4648-1.4648-2.1953-3.6094-2.9648-5.8789-0.41406-1.2188-0.83984-2.4805-1.4062-3.6758-0.27344-0.58594-0.86328-0.96094-1.5117-0.96094s-1.2344 0.375-1.5117 0.96094c-0.55859 1.1992-0.98828 2.4609-1.4062 3.6758-0.76953 2.2695-1.5 4.4141-2.9648 5.8789-0.20313 0.20312-0.42188 0.39062-0.64844 0.57031-6.1211-2.5859-12.621-3.8984-19.332-3.8984-27.422 0-49.727 22.309-49.727 49.727 0 9.4883 2.6836 18.719 7.7617 26.684 3.7891 5.9492 8.7812 11 14.621 14.852h-5.8594c-5.9648 0-10.816 4.8516-10.816 10.816v9.1445c0 0.92188 0.74609 1.6719 1.6719 1.6719h84.707c0.92188 0 1.6719-0.74609 1.6719-1.6719v-9.1445c0-5.9648-4.8516-10.816-10.816-10.816h-5.8594c5.8398-3.8516 10.828-8.8945 14.621-14.852 5.0742-7.9648 7.7617-17.195 7.7617-26.684 0-6.7617-1.3281-13.305-3.9531-19.461 0.86328-0.73828 2.1055-1.1719 3.4219-1.6133 0.81641-0.27344 1.6562-0.56641 2.4688-0.94531 0.58594-0.27344 0.96094-0.86328 0.96094-1.5117 0-0.64453-0.375-1.2344-0.96094-1.5117zm-25.801-25.445c0.79688 2.3047 1.6953 4.625 3.5234 6.4492 1.8242 1.8242 4.1445 2.7305 6.4492 3.5234-2.3047 0.79688-4.625 1.6953-6.4492 3.5234-1.8242 1.8242-2.7305 4.1445-3.5234 6.4492-0.79687-2.3047-1.6953-4.625-3.5234-6.4492-1.8242-1.8242-4.1445-2.7305-6.4492-3.5234 2.3047-0.79688 4.625-1.6953 6.4492-3.5234 1.8242-1.8242 2.7305-4.1445 3.5234-6.4492zm14.82 102.84v7.4805h-81.363v-3.0195h51.594c0.92188 0 1.6719-0.74609 1.6719-1.6719 0-0.92187-0.74609-1.6719-1.6719-1.6719l-51.594 0.003906v-1.125c0-4.125 3.3555-7.4805 7.4805-7.4805h66.41c4.125 0 7.4805 3.3555 7.4805 7.4805zm-19.996-10.816h-41.375c-15.867-7.9102-25.703-23.789-25.703-41.535 0-25.578 20.809-46.391 46.391-46.391 5.2539 0 10.371 0.86328 15.254 2.5664-0.37891 0.13672-0.76563 0.26562-1.1484 0.39453-1.2188 0.41406-2.4805 0.83984-3.6758 1.4062-0.58594 0.27344-0.96094 0.86328-0.96094 1.5117 0 0.64844 0.375 1.2344 0.96094 1.5117 1.1992 0.55859 2.4609 0.98828 3.6758 1.4062 2.2695 0.76953 4.4141 1.5 5.8789 2.9648 1.4648 1.4648 2.1953 3.6094 2.9648 5.8789 0.41406 1.2188 0.83984 2.4805 1.4062 3.6758 0.27344 0.58594 0.86328 0.96094 1.5117 0.96094 0.64844 0 1.2344-0.375 1.5117-0.96094 0.55859-1.1992 0.98828-2.4609 1.4062-3.6758 0.69922-2.0547 1.3633-4.0039 2.5703-5.4453 2.1055 1.9297 4.0234 4.0508 5.7383 6.3281-0.019531 0.023438-0.039062 0.050781-0.066406 0.070312-0.87109 0.87109-2.2148 1.3242-3.6406 1.8086-0.81641 0.27344-1.6562 0.56641-2.4688 0.94531-0.58594 0.27344-0.96094 0.86328-0.96094 1.5117 0 0.64453 0.375 1.2344 0.96094 1.5117 0.81641 0.37891 1.6562 0.67188 2.4688 0.94531 1.4258 0.48438 2.7695 0.94141 3.6367 1.8086 0.86328 0.86328 1.3242 2.2148 1.8086 3.6406 0.27344 0.81641 0.56641 1.6562 0.94531 2.4688 0.27344 0.58594 0.86328 0.96094 1.5117 0.96094 0.64844 0 1.2344-0.375 1.5117-0.96094 0.37109-0.78906 0.64844-1.6055 0.92188-2.3945 1.7734 4.9766 2.6719 10.191 2.6719 15.555 0 17.746-9.8398 33.621-25.703 41.535zm22.512-63.16c-0.87891 0.87891-1.4609 1.9336-1.9062 3.0039-0.44531-1.0703-1.0234-2.1211-1.9062-3.0039-0.87891-0.87891-1.9336-1.4609-3.0039-1.9062 1.0703-0.44531 2.1211-1.0234 3.0039-1.9062 0.87891-0.87891 1.4609-1.9336 1.9062-3.0039 0.44531 1.0703 1.0234 2.1211 1.9062 3.0039 0.87891 0.87891 1.9336 1.4609 3.0039 1.9062-1.0703 0.44531-2.1211 1.0234-3.0039 1.9062zm-50.102 18.988c7.3047-2.4297 14.035-6.6992 19.551-12.391l2.1719 1.8047c0.67969 0.56641 1.6094 0.70312 2.4258 0.36328 0.81641-0.33984 1.3711-1.0938 1.4492-1.9805l1.2734-14.5c0.070313-0.78906-0.23828-1.5312-0.85547-2.0352-0.60937-0.50391-1.3984-0.66406-2.1602-0.44531l-13.879 4.0156c-0.84375 0.24609-1.4805 0.92969-1.6602 1.7891-0.17969 0.85938 0.12891 1.7383 0.80469 2.3047l1.8633 1.5547c-5.8008 6.4414-19.91 16.801-38.734 16.801-0.83594 0-1.5469 0.62109-1.6562 1.4492-0.10938 0.82812 0.41406 1.6094 1.2188 1.8281 4.5391 1.2148 9.0312 1.8242 13.43 1.8242 5.0352 0 9.9648-0.79688 14.75-2.3867zm0.24609-6.9141c6.8008-3.8867 11.898-8.625 14.406-11.766 0.56641-0.71094 0.46094-1.7383-0.23438-2.3203l-1.7539-1.4648 10.766-3.1133-0.98828 11.25-1.9531-1.625c-0.68359-0.57031-1.6992-0.5-2.3008 0.16016-4.5312 4.9805-15.695 14.871-32.809 14.871h-0.085938c5.1562-1.25 10.16-3.25 14.957-5.9883zm39.23 32.25h-1.7148v-32.809c0-0.92187-0.74609-1.6719-1.6719-1.6719h-8.4883c-0.92188 0-1.6719 0.74609-1.6719 1.6719v32.809h-4.7266v-26.145c0-0.92188-0.74609-1.6719-1.6719-1.6719h-8.4883c-0.92188 0-1.6719 0.74609-1.6719 1.6719v26.145h-4.7266v-19.484c0-0.92188-0.74609-1.6719-1.6719-1.6719h-8.4883c-0.92187 0-1.6719 0.74609-1.6719 1.6719v19.484h-4.7266v-12.82c0-0.92188-0.74609-1.6719-1.6719-1.6719h-8.4883c-0.92188 0-1.6719 0.74609-1.6719 1.6719v12.82h-1.7148c-0.92188 0-1.6719 0.74609-1.6719 1.6719 0 0.92188 0.74609 1.6719 1.6719 1.6719h64.906c0.92188 0 1.6719-0.74609 1.6719-1.6719 0-0.92188-0.74609-1.6719-1.6719-1.6719zm-10.203-31.141h5.1562v31.141h-5.1562zm-16.551 6.6602h5.1562v24.48h-5.1562zm-16.551 6.6602h5.1562v17.816h-5.1562zm-16.551 6.6602h5.1562v11.156h-5.1562zm44.316 43.594c0-0.92188 0.74609-1.6719 1.6719-1.6719h3.7266c0.92188 0 1.6719 0.74609 1.6719 1.6719 0 0.92188-0.74609 1.6719-1.6719 1.6719h-3.7266c-0.92187 0-1.6719-0.74609-1.6719-1.6719zm-27.859-95.105c-0.20312-0.89844 0.35938-1.7891 1.2539-1.9961 0.92969-0.21094 1.8789-0.39453 2.8203-0.53906 0.91016-0.14453 1.7656 0.47656 1.9062 1.3906 0.14453 0.91016-0.48047 1.7656-1.3906 1.9062-0.87109 0.13672-1.7461 0.30469-2.6016 0.5-0.125 0.03125-0.25 0.039062-0.37109 0.039062-0.76172 0-1.4492-0.52344-1.625-1.3008zm-26.512 26.441c-0.24609 0.67969-0.88672 1.1016-1.5703 1.1016-0.19141 0-0.37891-0.03125-0.57031-0.10156-0.86328-0.31641-1.3164-1.2695-1-2.1367 4.2109-11.613 13.23-20.875 24.734-25.395 0.85938-0.33594 1.8242 0.085937 2.1602 0.94141 0.33594 0.85938-0.085938 1.8242-0.94141 2.1602-10.613 4.1758-18.93 12.711-22.82 23.43z"/>
</svg>
