<svg width="18" height="13" viewBox="0 0 18 13" fill="none" xmlns="http://www.w3.org/2000/svg">
  <path d="M15.6667 0.95H2.33333C1.5744 0.95 0.95 1.54552 0.95 2.27802V6.75108C0.95 7.48358 1.5744 8.0791 2.33333 8.0791H8.28333V11.9706C8.28333 12.3755 8.70601 12.6416 9.0711 12.4665L10.3238 11.866L11.1454 13.5847C11.2734 13.8526 11.5909 13.9705 11.8627 13.8511L13.3711 13.1889C13.6557 13.0639 13.7803 12.7282 13.6461 12.4479L12.8 10.6796L13.9151 10.1452C14.2757 9.97232 14.3372 9.48463 14.0307 9.22771L12.6608 8.0791H15.6667C16.4256 8.0791 17.05 7.48358 17.05 6.75108V2.27802C17.05 1.54552 16.4256 0.95 15.6667 0.95ZM10.2068 11.1167L9.05 11.6526V6.03012L13.3154 9.60765L12.2877 10.1059C12.0154 10.2379 11.9009 10.5651 12.0315 10.8381L12.872 12.5954L11.7515 13.088L10.9342 11.3785C10.8043 11.1069 10.48 10.9902 10.2068 11.1167ZM16.2833 6.75108C16.2833 7.07362 16.009 7.34009 15.6667 7.34009H11.7802L9.18676 5.16504C8.82885 4.86487 8.28333 5.11933 8.28333 5.58646V7.34009H2.33333C1.99096 7.34009 1.71667 7.07362 1.71667 6.75108V2.27802C1.71667 1.95548 1.99096 1.68901 2.33333 1.68901H15.6667C16.009 1.68901 16.2833 1.95548 16.2833 2.27802V6.75108Z" fill="black" stroke="black" stroke-width="0.1"/>
</svg>