<?xml version="1.0" encoding="UTF-8"?>
<svg id="Layer_1" xmlns="http://www.w3.org/2000/svg" version="1.1" viewBox="0 0 1024 1024">
  <!-- Generator: Adobe Illustrator 29.7.1, SVG Export Plug-In . SVG Version: 2.1.1 Build 8)  -->
  <path d="M511.13,708.86c1.05.61,2.55,0,3.43-.81,29.74-30.27,59.64-60.38,89.5-90.53,7.92-8,23.78-28.94,34.54-30.43,5.99-.83,13.82-.41,19.12,2.7,5,2.94,28.45,26.8,32.8,32.2,7.8,9.67,8.96,20.37,1.92,30.95l-116.36,120.43,112.9,113.16c8.55,8.96,11.07,20,3.86,30.81-3.29,4.93-31.97,33.73-36.9,37.1-8.59,5.89-21.21,4.82-28.96-1.91l-106.98-108.02-8.46-7.48-115.05,114.95c-8.39,6.97-20.36,8.87-29.82,2.86-4.3-2.73-32.53-31.07-35.49-35.51-7.27-10.89-5.14-22.24,2.81-31.86,16.34-19.77,42.33-43.02,61-62,17.61-17.92,36.34-35.23,52.95-53.84l-113.9-115.17c-8.78-10.9-10.3-22.78-1.05-33.99,4.48-5.43,27.85-29.45,32.7-32.3,8.98-5.27,23.29-4.85,30.85,2.8,36.95,38.03,75.65,74.41,112.53,112.49,1,1.03,1.9,3.29,2.07,3.39Z"/>
  <path d="M496.42,256.42c64.6-67.57,128.54-135.85,192.11-204.39,29.58-21.5,67.19,14.11,43.45,44.45-81.34,83.54-156.66,173.47-238.95,256.05-13.76,13.8-28.53,17.81-45.04,4.98l-125.5-128.5c-21.93-23.29,2.38-62.3,32.79-50.79,12.68,4.8,43.39,40.84,54.7,52.3,18.87,19.13,38.11,37.88,56.53,57.46,10.08-10.41,19.91-21.1,29.92-31.56Z"/>
  <path d="M204.76,455.26l611.78-.3c26.09,4.28,26.06,38.65-2.01,41.08H206.46c-24.76-2.98-26.14-35.96-1.7-40.77Z"/>
</svg>