<?xml version="1.0" encoding="UTF-8"?>
<svg id="Layer_1" xmlns="http://www.w3.org/2000/svg" version="1.1" viewBox="0 0 1024 1024">
  <!-- Generator: Adobe Illustrator 29.7.1, SVG Export Plug-In . SVG Version: 2.1.1 Build 8)  -->
  <path d="M467.79,108.29c69.03-4.28,161.31,5.91,221.88,40.53,191.55,109.49,222.42,401.49,110.74,578.09-83.5,132.04-215.86,182.36-369.44,152.61-267.26-51.78-342.96-391.79-216.78-604.82,53.92-91.04,145.09-159.68,253.59-166.41ZM469.79,132.29c-165.56,8.32-271.63,161.38-290.67,314.33-19.07,153.22,45.42,332.58,196.89,392.86,165.02,65.68,312.94-49.16,368.73-200.24,31.94-86.49,33.29-193.3,6.97-281.46-37.27-124.84-143.95-232.42-281.92-225.49ZM657,153.01c-15.42-6.12-30.37-9.71-47-11,2.49,3,9.1,7.62,12.74,8.75,5.62,1.74,25.3,3.91,31.77,4.24,2.07.1,2.87.59,2.48-1.98ZM714,189.99c1.51-1.33-5.07-5.58-6.1-6.39-5.87-4.61-12.56-8.16-18.84-12.16l-39.05-3.44,18.76,16.73,45.23,5.26ZM755,227.99c-5.3-5.41-9.61-12.14-15.47-17.02-8.05-6.69-15.04-6.34-25.17-7.83-9.7-1.43-19.61-2.15-29.36-3.13l20.4,23.09,49.6,4.89ZM768.72,245.29c-2.36-1.97-20.47-1.79-25.22-2.29-8.48-.9-17.17-2.17-25.5-3.99-.37,1.56.3,2.31.97,3.52,4.23,7.64,11.96,15.04,15.56,23.44l2.98,2.02,49.48,4.01-18.28-26.7ZM810,316.99c-4.02-9.44-7.68-19.3-13.98-27.51l-51.01-5.48c3.77,4.13,11.03,28.07,14,29.49l51,3.49ZM816.89,334.12l-51.88-5.12,9.94,34.33c1.27,2.35,46.62,3.72,53.04,4.66l-11.11-33.88ZM832.96,385.05l-52.95-4.04,5.99,34,53,3.99-6.04-33.95ZM843,470l-2.94-33.57-51.07-3.44,3,34,51.01,3ZM843.01,524.01c.21-7.82-.29-15.72-.05-23.55.09-2.87,2.65-11.24.11-13.02l-51.07-1.44-1,36.01,52.01,2ZM785,576h49.5c1.1-.62,1.19-1.45,1.45-2.55,2.44-10.22,2.71-22.91,4.05-33.46-16.7.3-33.32,1.11-50.07,1.44l-4.93,34.57ZM832,593h-51l-7,31h50l8-31ZM757,669h49.5l10.5-26.99c-16.72-.16-33.4-.19-50.04,1.45l-9.96,25.54ZM798,686.01l-49.29,1.98-12.71,23.01,48.31-1.18c2.2-.65,14.71-22.88,13.68-23.81ZM773,727.01l-50.83,3.16c.02,3.36-13.89,18.24-12.16,19.83l47.33-1.16,15.66-21.83ZM744,765.01c-16.08-.09-32.28.22-48.26,2.23l-16.74,18.75,46.3-2.19c7.01-5.49,13.58-11.47,18.7-18.79ZM707,800.01l-44.3,2.19-19.7,15.79,43.27-2.22c7.71-3.93,15.21-9.15,20.73-15.76ZM662.99,831.01c-4.82.17-9.71-.26-14.54-.05-9.49.4-25.28,1.03-32.79,6.21-1.02.7-2.38,1.55-2.66,2.83l36.27-2.22,13.73-6.76ZM574,858h17.5c4.07,0,12.1-3.25,16.49-4.01,0-1.73-4.38-1.1-5.54-1.04-6.21.34-12.44,1.71-18.87,1.13l-9.59,3.91Z"/>
  <path d="M458.8,177.3c189.07-13.29,290.5,189.82,272.08,355.08-16.71,149.88-133.77,304.45-300.06,275.31-157.89-27.67-235.21-205.49-216.67-352.04,15.99-126.38,106.2-268.62,244.65-278.35ZM463.79,200.29c-150.38,10.29-236.98,179.84-230.84,316.25,5.99,133.06,95.79,276.06,242.55,271.47,143.57-4.49,230.38-154.22,235.53-284.47,5.62-142.04-85.65-314.3-247.25-303.25Z"/>
  <path d="M462,501c-21.02-6-46.81-13.91-60.83-31.67-32.1-40.67-22.61-105.39,20.91-133.75,12.45-8.12,25.09-11.43,39.48-14.52,2.49-10.82-4.18-26.28,6.51-33.49,5.74-3.88,10.47-4.14,16.27-.41,11.93,7.67,6.34,23.85,7.77,35.74,34.1,4.23,64.22,26.38,71.43,61.07,2.7,12.99,2.98,20.93-9.85,27.22-10.62,5.21-19.49,5.26-24.16-7.21-6.61-17.62-8.14-29.34-27.31-38.69-1.47-.72-10.21-4.92-10.21-1.79v105c7.22,3.5,15.57,4.87,23.25,7.75,48.42,18.21,69.86,55.31,58.44,106.93-9.27,41.89-39,67.01-81.67,70.83-1.15,1.11.82,26.64-.44,32.06-1.98,8.56-12.69,14.09-20.58,10.43-15.75-7.31-6.98-29.25-9.04-42.45-39.49-5.03-72.79-24.52-82.28-65.22-3.05-13.1-6.51-20.33,6.2-28.45,25.79-16.48,25.6,13.04,32.65,27.61,7.77,16.07,26.35,26.26,43.48,29.02v-116ZM462,458v-97.5c-1.27-2.04-4.07-.64-6.2-.19-27.2,5.77-38.66,36.48-34.36,61.75,3,17.62,24.19,31.95,40.56,35.94ZM492,513v102.5c.72.92,1.04,1.3,2.28,1.33,1.96.04,12.74-3.83,15.1-4.95,23.02-10.96,32.28-43.64,25.08-66.83-5.75-18.52-24.53-28.52-42.45-32.05Z"/>
  <path d="M623,285.99c-4.08-1.08-6.84-5.78-9.99-8.5-67.29-58.28-152.46-70.47-229.33-20.3-134.53,87.82-162.69,317.18-58.2,437.83,70.97,81.94,181.01,90.15,263.53,19.5,73.71-63.11,97.25-151.22,102.02-244.98.31-6.14-.32-12.4-.03-18.54,3.67,3,1.66,10.78,1.95,15.54,4.86,80.89-12.79,157.03-63.98,220.93-99.83,124.63-263.96,107.48-340.15-30.8-49.36-89.59-51.65-191.47-13.3-285.64,39.29-96.46,133.36-173.46,242.65-150.72,41.49,8.63,77.45,34.23,104.81,65.68Z"/>
</svg>