<svg xmlns="http://www.w3.org/2000/svg" width="1600" height="1600" viewBox="0 0 1200 1200"><path fill-rule="evenodd" d="M738.46 796.15C784.612 865.38 861.54 911.53 950 911.53c134.62 0 250-111.54 250-250 0-111.54-73.078-203.85-173.08-238.46-115.38-76.922-311.54-161.54-369.23-126.92-34.617 19.23-50 65.383-34.617 103.85h-46.152c15.383-38.461-3.848-84.617-38.461-103.85-57.691-34.617-250 50-369.23 126.92C73.078 457.687 0 549.99 0 661.53c0 138.46 111.54 250 250 250 88.461 0 165.38-46.152 211.54-115.38zM600 603.84c34.617 0 65.383 30.77 65.383 69.23 0 34.617-30.77 65.383-65.383 65.383-38.461 0-69.23-30.77-69.23-65.383 0-38.461 30.77-69.23 69.23-69.23M250 457.69c111.54 0 203.85 92.309 203.85 203.85S361.541 865.39 250 865.39 46.15 773.081 46.15 661.54 138.459 457.69 250 457.69m700 0c-115.38 0-203.85 92.309-203.85 203.85S834.611 865.39 950 865.39c111.54 0 200-92.309 200-203.85s-88.461-203.85-200-203.85"/></svg>