<?xml version="1.0" encoding="UTF-8"?>
<svg width="1200pt" height="1200pt" version="1.1" viewBox="0 0 1200 1200" xmlns="http://www.w3.org/2000/svg">
 <path d="m738.46 796.15c46.152 69.23 123.08 115.38 211.54 115.38 134.62 0 250-111.54 250-250 0-111.54-73.078-203.85-173.08-238.46-115.38-76.922-311.54-161.54-369.23-126.92-34.617 19.23-50 65.383-34.617 103.85h-46.152c15.383-38.461-3.8477-84.617-38.461-103.85-57.691-34.617-250 50-369.23 126.92-96.152 34.617-169.23 126.92-169.23 238.46 0 138.46 111.54 250 250 250 88.461 0 165.38-46.152 211.54-115.38zm-138.46-192.31c34.617 0 65.383 30.77 65.383 69.23 0 34.617-30.77 65.383-65.383 65.383-38.461 0-69.23-30.77-69.23-65.383 0-38.461 30.77-69.23 69.23-69.23zm-350-146.15c111.54 0 203.85 92.309 203.85 203.85 0 111.54-92.309 203.85-203.85 203.85s-203.85-92.309-203.85-203.85c0-111.54 92.309-203.85 203.85-203.85zm700 0c-115.38 0-203.85 92.309-203.85 203.85 0 111.54 88.461 203.85 203.85 203.85 111.54 0 200-92.309 200-203.85 0-111.54-88.461-203.85-200-203.85z" fill-rule="evenodd"/>
</svg>
