<?xml version="1.0" encoding="UTF-8"?>
<svg id="Layer_1" xmlns="http://www.w3.org/2000/svg" version="1.1" viewBox="0 0 825 851">
  <!-- Generator: Adobe Illustrator 29.7.1, SVG Export Plug-In . SVG Version: 2.1.1 Build 8)  -->
  <path d="M273.16,197.84c24.29-1.74,44.77,6.09,59.3,25.76,21.37-6.04,44.44-2.01,61.02,13.07,18.65-9.22,38.29-10.59,57.04-.7,14.74-9.48,30.62-12.65,47.79-8.12,14.93-16.57,35.66-24.85,58.03-24,5.02-7.25,8.03-15.4,13.69-22.31,27.8-33.94,83.47-36.44,111.95-2.01,23.68,28.63,26.28,66.39,6.24,97.81,17.27,23.69,18.04,52.66,4.14,78.19,17.75,25.95,18.7,57.67.99,83.97,14.8,19.34,18.32,41.04,9.67,64.03-1.73,4.6-9.79,16.73-10.03,19.07-.35,3.42,4.33,13.83,4.88,19.03,3,28.49-13.54,57.6-37.35,72.4-3.4,35.08-35.36,66.48-71.84,58.9-16.76,23.15-47.11,34.75-74.67,24.56-2.83-1.05-8.47-5.01-10.66-5.23-4.68-.47-16.76,7.49-23.34,2.74,1.97,13.81,1.06,25.43-4.15,38.36-3.48,8.64-9.95,16.38-13.34,24.66-4.9,11.95-4.34,24.75-15.6,33.4-16.56,12.72-43.8,7.46-50.63-13.2-2.29-6.93-1.51-11.15-2.3-17.7-1.75-14.58-17.21-26.97-18.97-47.03-1.22-13.87,5.36-24.45,5.03-33.96-.19-5.62-5.22-15.8-5.92-23.15-4.24-44.5,20.51-82.34,63.88-93.87,22.95-6.11,28.79.73,48.45,2.54,40.75,3.75,64.28-48.31,31.48-71.48-7.3-5.16-9.6-2.06-17.42-2.58-8.96-.61-19.59-4.32-29.02-4.97-40.78-2.81-67.37,16.19-104.95,18.03-8.75.43-20.15.05-17.33-12.33,2.2-9.69,13.62-6.95,20.28-7.73,29.04-3.4,56.39-17.71,84.97-19.03s54.19,14.14,82.45-6.55c20.65-15.12,19.47-50.16.1-65.92-22.63-18.41-55.61-1.12-79.8,5.23-27.76,7.28-54.06,9.04-82.59,5.16-10.58-1.44-39.82-4.19-36.42-19.16,3.1-13.64,22.07-3.84,30.61-2.03,18.53,3.93,39.86,4.49,58.67,2.3,46.33-5.39,100.51-46.38,133.94,8.1,20.62,33.61,10.46,73.86-26.42,88.93,31.46,32.67,18.45,85.21-23.99,100-.23,1.88,1.98.69,3.03.53,9.12-1.39,17.21-3.84,26.92-2.59,3.95-20.72,15.65-41.84,36.03-50-9.73-24.05-4.16-46.41,10.97-66.44-12.88-22.98-18.1-47.96-4.31-72.02-14.83-19.2-18.71-43.56-10.66-66.49l-11.95-.54c-21.78,26.91-56.63,35.14-88.36,20.75-22.74,20.23-57.19,25.39-84.35,10.96-5.95-3.16-10.82-7.71-16.65-10.98-10.05,4.25-22.13,8.39-33.13,8.84-12.78.53-17.57-5.43-27.07,6.94-3.99,5.2-6.87,13.03-7.46,19.54-6.13,67.89,95.62,56.92,137.17,48.17,20.37-4.29,46.34-14.11,67.07-9.45,7.24,1.63,12.37,7.32,8.15,14.68-5.02,8.75-20.65,3.56-29.78,4.21-23.29,1.65-48.23,12.39-73.14,14.86-19.28,1.92-40.49.08-58.89,2.11-35.52,3.94-54.05,58.02-18.29,75.08,31.48,15.01,68.88-12.72,101.3-17.07,12.72-1.71,49.95-.99,58.94,8.83,7.79,8.52,1.76,18.47-9.97,16.96-8.43-1.08-17.15-5.22-27.09-5.9-48.41-3.33-93.53,39.85-137.81,11.81-33.54-21.23-29.51-71.39-1.69-95.33,1.96-1.68,4.71-2.56,6-4.48-41.38-14.32-57.39-69.95-25.01-101.51-6.25-1.9-13.73-14.06-18.02-16.02-2.79-1.28-6.81,1.35-9.97.52,3.23,17.97-2.43,35.03-10.84,50.69,16.28,21.28,16.42,48.01,5.05,71.66,14.54,18.9,18.89,40.04,10.94,62.95,31.3,25.31,28.93,69.01-1.98,93.4,2.5,15.82,12.2,30.72,11.84,46.81-3.84,22.39-35.33,29.43-44.87,6.86-2.38-5.63-7.4-32.77-11.08-34.9-64.04,11.56-117.46-54.85-88.28-114.8-17.48-26.46-14.69-56.24,2.16-82.16-13.05-20.13-17.45-40.94-10.23-64.28,2.27-7.35,6.69-13.52,9.3-20.66-16.36-25.82-15.14-55.38,2.67-80.05-3.71-5.99-7.24-12.85-8.96-19.73-14.71-58.82,40.99-108.88,97.81-86.81,19.53,7.59,29.35,23.06,36.64,41.86ZM613.99,309.01l-21.03,12.45c-7.55,16.87-6.91,35.53,2.62,51.46,2.52,4.21,8.03,8.94,8.46,13.58.58,6.25-4.59,12.11-6.79,18.26-4.93,13.81-4.04,26.24,3.55,38.94,2.75,4.59,10.04,10.17,10.26,14.82.34,7.1-7.3,11.89-11.04,17.01-8.21,11.25-12.5,25.91-8.73,39.68,2.09,7.61,10.53,14.49,5.17,22.76-2.43,3.75-12.59,8.22-16.78,11.22-16.36,11.74-15.44,23.78-22.83,40.17-6.77,15-9.78,8.23-21.44,6.72-2.68-.35-7.24-.38-9.92-.08-5.31.59-10.39,4.79-15.52,4.56-7.34-.33-14.12-8.56-20.67-12.36-48.89-28.34-106.78,15.8-94.65,70.65,1.34,6.03,5.57,12.97,5.42,18.66-.17,6.37-5.2,14.57-5.96,22.12-2.99,29.91,17.89,36.02,19.87,55.89.54,5.42-1.06,11.97.94,17.06,3.01,7.68,14.28,8.21,20.44,4.29,4.74-3.02,6.87-21.09,9.44-27.56,2.62-6.57,7.65-12.07,10.71-18.29,7.74-15.68,6.67-28.21-.03-44.01-2.69-6.34-11.07-14.52-3.01-21.04,9.55-7.72,15.63,4.59,22.84,8.21,14.87,7.46,17.46-2.87,29.21-2.26,7.3.38,14.09,8.79,24.08,9.97,25.19,2.97,33.14-8.02,46.98-24.81,8.15-9.89,11.01-3.27,20-2.17,19.08,2.34,40.77-17.53,44.18-35.65,1.72-9.12-.8-14.96,8.3-21.7,20.06-14.86,32.57-22.89,29.92-52.05-.91-9.98-8.37-19.13-6.92-27.96.82-4.99,7.5-8.58,10.38-12.62,8.88-12.48,9.62-32.08,2.73-45.61-3.3-6.49-13.99-14.74-14.24-20.85-.29-6.9,8.82-12.76,11.95-19.1,6.59-13.34,5.78-34.09-2.06-46.7-3.83-6.16-10.45-9.18-10.29-17.19.12-5.97,5.93-10.51,8.48-15.97,5.23-11.18,5.69-27.68,1.02-39.04-4.08-9.92-14.48-15.21-11.56-26.5,2.43-9.39,10.79-15.86,13.23-29.76,11.59-66.11-70.84-96.6-102.12-41.12-3.03,5.36-5.94,16.66-10.66,19.33-5.24,2.96-15.54-.07-22.41.59-8.88.86-21.42,6.99-28,13-3,2.74-6.47,9.31-10.45,10.54-11.41,3.54-22.39-7.83-38.38.62-7.64,4.04-10.32,12.14-20.71,9.35-2.54-.68-5.06-3.32-7.59-4.41-10.61-4.55-21.32-5.45-32.35-1.6-6.66,2.32-9.67,7.39-17.54,6.5-5.9-.66-12.84-9.63-19.13-12.88-9.82-5.08-17.43-6.07-28.18-3.47-11.13,2.7-15.15,9.19-24.69-1.67-6.6-7.5-7.36-13.04-17.81-18.19-13.27-6.53-18.65-3.16-31.19-3.75s-13.51-12.99-17.93-21.12c-12.21-22.44-32.84-30.28-57.54-23.45-28.27,7.82-40.6,33.46-36.75,61.73,1.28,9.37,12.07,23.03,11.81,29.24-.22,5.23-8.62,13.36-11.25,18.85-7.23,15.12-6.89,32.89,2.34,47,2.51,3.84,7.53,7.31,7.89,12.18.51,6.91-4.71,9.42-7.89,14.16-11.53,17.2-10.49,39.17,0,56.65,1.83,3.05,5.24,5.54,6.72,9.28,3.89,9.86-3.49,13.43-8.12,20.67-8.34,13.04-10.37,29.46-4.53,43.99,2.17,5.41,10.17,13.82,10.71,17.31,1.1,7.08-5.17,16.33-7.21,23.67-11.73,42.22,21.29,82.33,64.74,78.74,6.34-.52,12.46-3.9,19.09-1.06,7.03,3.01,12.99,22.49,15.14,29.86,1.05,3.59,3.41,19.59,5.89,20.14,1.85.41,6.13-3.36,6.42-5.48.92-6.88-10.69-30.27-12.36-39.61-3.16-17.58,5.3-14.61,13.85-24.83,10.33-12.34,14.46-30.27,5.51-44.53-7.03-11.2-21.18-13.36-17.8-29.75.56-2.72,3.36-5.89,4.27-8.73,3.62-11.36,1.05-29.58-8.58-37.4-3.73-3.02-7.45-3.25-9.66-8.34-3.96-9.11,5.43-14.29,8.93-22.58,5.24-12.39,3.71-27.61-3.36-39-2.64-4.25-9.82-9.71-9.86-14.16-.04-5.16,7.32-13.12,9.74-18.31,4.43-9.48,8.15-28.6,2.53-37.94-1.46-2.43-12.51-6.66-16.16-8.84-5.21-3.11-9.02-7.28-13.57-10.43-.85-.59-.99-1.39-2.51-.98l-4.05,57.45c-1.66,64.45,3.36,128.35,19.33,190.76,1.47,5.75,6.62,17.14,5.51,22.07-1.84,8.16-13.66,9.35-17.99,1.42-4.03-7.38-8.25-27.67-10.31-36.69-13.6-59.45-16.9-120.59-15.53-181.55,3.39-27.1,1.99-57.11,6.09-83.91,1.08-7.05,10.87-10.93,16.47-5.58,2.29,2.19,3.96,8.55,6.06,11.94,8.77,14.23,27.28,26.37,44.04,27.96,7.13.68,15.93-1.28,22.39,1.61,5.28,2.37,9.11,9.53,13.52,13.48,14.07,12.59,32.73,13.38,50.25,8.31,7.01-2.03,14.3-7.42,21.66-6.22,4.17.68,9.09,6.81,12.64,9.36,19.05,13.68,42.41,14.11,62.24,1.4,4.71-3.02,11.24-10.99,16.24-11.78,7.33-1.15,13.15,4.03,19.91,5.98,17.56,5.07,37.37,1.55,50.57-11.49,3.46-3.42,9.63-14.48,12.98-16.02,4.26-1.96,10.43,2.11,15.43,2.52,12.59,1.04,27.71-5.73,36.59-14.5,5.31-5.24,9.08-17.09,17.33-16.51,5.67.4,8.82,5.38,9.54,10.56,1.4,10.04,1.08,21.62,2.09,31.91,9.24,93.76,34.37,213.52-34.49,290.52-34.78,38.89-97.51,55.38-145.52,31.5-9.82-4.89-9.08-18.92.53-19.57,5.14-.35,18.75,6.04,25.47,7.57,43.88,9.99,82.83-4.84,110.41-39.62,56.41-71.13,33.03-171.49,25.61-254.4-.69-7.76-1.02-15.7-1.01-23.49Z"/>
  <path d="M577.73,833.74c-2.59,2.65-16.31,5.99-20.54,6.94-54.39,12.23-126.76,10.36-182.65,8.27-27.93-1.04-73.54-1.72-99.06-11.94-24.3-9.74,18.13-16.71,25.18-17.85,50.62-8.17,107.63-7.63,158.79-6.12,31.61.93,63.56,1.27,94.72,7.28,4.18.81,31.41,5.37,23.55,13.43Z"/>
  <path d="M415.73,9.2c7.4-1.62,10.7,3.72,11.31,10.26,3.81,40.76-3.67,86.79.87,127.94-.3,12.32-16.35,15.79-17.94-2.86-3.11-36.33.37-80.7.08-118.08-.02-2.4-1.15-4.58-1.09-6.92.1-3.89,2.64-9.43,6.78-10.34Z"/>
  <path d="M566.74,35.21c6.65-.65,11.18,6.99,8.79,12.82l-46.33,100.66c-4.78,9.37-18.32,3-15.74-6.71l45.02-100.01c1.53-3.09,4.7-6.41,8.27-6.76Z"/>
  <path d="M268.71,36.22c5.58-1.27,7.67.75,10.48,5.09,8.23,12.67,15.06,32.86,21.95,47.05s20.8,36.37,25.08,49.92c3.55,11.24-7.88,19.16-15.05,9.06-7.63-10.74-17.74-35.03-24.02-47.98-7.22-14.88-17.83-34.68-23.31-49.68-1.88-5.16-1.65-11.97,4.88-13.46Z"/>
  <path d="M729.29,313.28c.73-.88,3.66-2.08,4.92-2.58,22.9-9.06,50.21-13.68,73.55-22.44,11.96-3.16,17.76,10.86,6.26,16.25-23.37,4.38-51,18.65-73.75,22.24-3.85.61-8.23.72-10.74-2.78-1.94-2.71-2.36-8.1-.23-10.69Z"/>
  <path d="M23.7,287.21c2.17-.64,5.29-.31,7.56.03,22.29,3.36,49.1,16.5,71.74,21.25,10.25,4.32,6.06,17.5-4.39,16.46l-75.64-22.43c-6.21-2.26-5.11-13.59.72-15.31Z"/>
  <path d="M751.79,399.29c12.3-.89,53.6-2.18,63.63.78,8.6,2.54,7.4,15.73-2.9,16.95-21.81,2.57-48.61-1.92-70.96-.08-8.41-1.24-9.39-14.86-.85-16.73,2.61-.57,7.95-.69,11.08-.92Z"/>
  <path d="M95.74,487.24c11.44-1.85,14.65,10.51,4.32,16.31-9.97,5.6-52.4,21.1-64.04,23.95-15.55,3.8-18.75-10.26-9.28-15.27l69.01-24.99Z"/>
  <path d="M18.71,400.21l75.7-.12c11.3,1.59,10.7,15.39-2.91,16.91-22.32,2.5-49.14-1.82-71.95-.06-9.04-1.43-9.06-14.89-.85-16.73Z"/>
  <path d="M734.63,486.33c1.75-.12,4.55.72,6.35,1.2,21.61,5.71,44.49,18.12,66.07,24.92,11.75,6.81,4.69,18.27-7.32,15.31-18.71-7.26-37.32-14.98-56.19-21.8-5.45-1.97-13.55-1.92-16.3-7.69-2.93-6.13.95-11.51,7.39-11.94Z"/>
  <path d="M196.65,666.35c2.87,2.86,3.23,7.53,1.23,11.02-14.33,14.01-26.45,31.44-40.36,45.64-3.34,3.41-7.44,8.8-12.78,7.83-3.34-.61-7.71-5.95-7.63-9.38.1-4.3,25.7-30.2,30.41-35.45,4.24-4.73,16-21.25,21.06-21.97,2.98-.43,5.91.15,8.07,2.31Z"/>
  <path d="M114.75,595.17c7.9-.82,13.66,7.98,8.26,14.34l-53.64,41.36c-9.19,5.06-17.75-6.48-10.92-13.92l56.3-41.78Z"/>
  <path d="M716.73,596.2c1.23-.27,2.44-.38,3.69-.18l57.63,40.44c6.03,6.6-.71,18.13-9.42,14.45l-55.12-39.91c-4.51-4.11-3.13-13.41,3.22-14.8Z"/>
  <path d="M647.73,669.17c2.92-.6,5.23.22,7.29,2.31,11.5,14.2,27.68,27.05,38.95,41.05,2.02,2.51,4.96,5.79,5.1,8.99.3,6.9-7.82,12.64-13.57,7.48l-42.95-46.04c-3.85-4.6-.32-12.64,5.19-13.78Z"/>
  <path d="M775.75,175.24c10.19-2.73,16.62,9.36,7.75,15.75l-49.24,29.75c-9.48,2.64-18.33-7.31-9.75-14.74l51.24-30.77Z"/>
  <path d="M57.74,172.21c2.34-.22,4.57,1,6.59,1.97,15.97,7.75,32.12,22.46,48.19,30.8,7.4,6.31-.71,17.59-9.25,14.25l-51.19-31.81c-4.83-5.15-1.33-14.55,5.67-15.22Z"/>
  <path d="M699.69,85.31c1.91,2.06,3.23,6.64,1.15,9.03-11.36,11.93-21.15,25.65-32.32,37.67-1.43,1.54-6.86,7.37-8.22,7.78-7.17,2.17-15.2-5.05-11.16-12.17,11.75-11.43,21.25-25.82,32.35-37.64,4.84-5.16,11.38-12.03,18.2-4.68Z"/>
  <path d="M140.74,80.21c2.64-.25,6.35,1.52,8.31,3.24,7.96,6.97,18.07,21.88,25.43,30.57,4.29,5.07,16.92,13.91,8.49,21.46-7.35,6.58-15.78-4.39-20.49-9.46-6.36-6.84-11.98-14.83-17.97-22.03-3.49-4.19-12.13-10.45-11.51-16.4.37-3.55,4.28-7.05,7.73-7.39Z"/>
  <path d="M222.66,212.35c3.81,3.29,8.07,9.36,12.33,13.17,37.91,33.9,81.17,52.53,131.66,59.34,89.67,12.11,186.72-6.43,249.61-75.1,11.04-3.34,17.99,6.23,10.72,15.71-24.78,32.31-78.83,59.92-117.55,70.45-95.21,25.9-210.22,12.98-285.44-54.41-3.73-3.34-17.28-16.2-17.92-20.07-1.82-11,8.24-16.31,16.59-9.1Z"/>
</svg>