<?xml version="1.0" encoding="UTF-8"?>
<svg width="1200pt" height="1200pt" version="1.1" viewBox="0 0 1200 1200" xmlns="http://www.w3.org/2000/svg">
 <g>
  <path d="m285 135c0-16.559-13.441-30-30-30h-120c-0.21094 0-0.40625 0.058594-0.62891 0.058594-1.0352 0.03125-2.0547 0.17969-3.0898 0.31641-0.94531 0.12109-1.8906 0.17969-2.8047 0.39062-0.88672 0.19531-1.7109 0.52344-2.582 0.79297-0.98828 0.31641-2.0078 0.58594-2.9531 1.0078-0.78125 0.34375-1.5 0.80859-2.25 1.2148-0.96094 0.52344-1.9219 1.0195-2.8203 1.6328-0.67578 0.46484-1.2773 1.0508-1.9219 1.5898-0.88281 0.73438-1.7695 1.4414-2.5508 2.2656-0.14844 0.13672-0.3125 0.24219-0.44922 0.39062-0.46484 0.51172-0.79297 1.0938-1.2305 1.6211-0.67188 0.85547-1.3633 1.6953-1.9648 2.625-0.52344 0.80859-0.92969 1.6484-1.3633 2.5039-0.44922 0.88672-0.91406 1.7539-1.2891 2.6992-0.34766 0.92969-0.60156 1.875-0.87109 2.8516-0.25391 0.89844-0.52734 1.8008-0.69141 2.7422-0.19531 1.082-0.25391 2.1602-0.32812 3.2578-0.046876 0.6875-0.21094 1.3359-0.21094 2.0391v120c0 16.559 13.441 30 30 30s30-13.441 30-30v-51.48l339.66 313.53c5.7734 5.3242 13.066 7.9492 20.324 7.9492 8.0859 0 16.141-3.2383 22.066-9.6602 11.234-12.18 10.469-31.156-1.6953-42.391l-333.63-307.95h43.273c16.559 0 30-13.441 30-30z"/>
  <path d="m630 570c0 16.57-13.43 30-30 30s-30-13.43-30-30 13.43-30 30-30 30 13.43 30 30"/>
  <path d="m652.95 515.34c5.9258 6.4219 13.98 9.6602 22.066 9.6602 7.2617 0 14.566-2.625 20.324-7.9492l339.66-313.53v51.48c0 16.559 13.441 30 30 30s30-13.441 30-30v-120c0-0.69141-0.14844-1.3516-0.21094-2.0234-0.074218-1.0938-0.13672-2.1914-0.32812-3.2695-0.16406-0.94531-0.43359-1.8281-0.69141-2.7461-0.26953-0.96094-0.52344-1.9219-0.88281-2.8672-0.35938-0.92969-0.82422-1.8008-1.2891-2.6992-0.43359-0.83984-0.83984-1.6953-1.3633-2.5039-0.58594-0.92969-1.2734-1.7695-1.9648-2.625-0.43359-0.53906-0.75-1.125-1.2305-1.6367-0.13672-0.14844-0.30078-0.23828-0.43359-0.39062-0.78125-0.80859-1.6484-1.5-2.5039-2.2188-0.66016-0.55469-1.2891-1.1562-1.9805-1.6367-0.85547-0.58594-1.7852-1.0508-2.6836-1.5586-0.79688-0.43359-1.5586-0.92969-2.3867-1.2891-0.91406-0.40625-1.8906-0.66016-2.8516-0.97656-0.89844-0.28516-1.7695-0.62891-2.6836-0.83984-0.89844-0.19531-1.8281-0.25391-2.7617-0.375-1.0508-0.13672-2.0859-0.30078-3.1367-0.31641-0.19531 0.03125-0.40625-0.027344-0.61719-0.027344h-120c-16.559 0-30 13.441-30 30s13.441 30 30 30h43.273l-333.61 307.95c-12.18 11.25-12.945 30.227-1.7109 42.391z"/>
  <path d="m570 1065c0 16.559 13.441 30 30 30s30-13.441 30-30v-405c0-16.559-13.441-30-30-30s-30 13.441-30 30z"/>
 </g>
</svg>
