<svg xmlns="http://www.w3.org/2000/svg" width="1600" height="1600" viewBox="0 0 1200 1200"><path d="M285 135c0-16.559-13.441-30-30-30H135c-.21 0-.406.059-.629.059-1.035.03-2.055.18-3.09.316-.945.121-1.89.18-2.804.39-.887.196-1.711.524-2.582.794-.989.316-2.008.586-2.954 1.007-.78.344-1.5.809-2.25 1.215-.96.524-1.921 1.02-2.82 1.633-.676.465-1.277 1.05-1.922 1.59-.883.734-1.77 1.441-2.55 2.265-.149.137-.313.243-.45.391-.465.512-.793 1.094-1.23 1.621-.672.856-1.364 1.695-1.965 2.625-.523.809-.93 1.649-1.363 2.504-.45.887-.914 1.754-1.29 2.7-.347.929-.601 1.874-.87 2.85-.254.9-.528 1.802-.692 2.743-.195 1.082-.254 2.16-.328 3.258-.047.687-.211 1.336-.211 2.039v120c0 16.559 13.441 30 30 30s30-13.441 30-30v-51.48l339.66 313.53a29.9 29.9 0 0 0 20.324 7.95c8.086 0 16.141-3.24 22.066-9.661 11.234-12.18 10.469-31.156-1.695-42.391l-333.63-307.95h43.273c16.559 0 30-13.441 30-30zM630 570c0 16.57-13.43 30-30 30s-30-13.43-30-30 13.43-30 30-30 30 13.43 30 30M652.95 515.34c5.926 6.422 13.98 9.66 22.066 9.66 7.262 0 14.566-2.625 20.324-7.949L1035 203.521v51.48c0 16.559 13.441 30 30 30s30-13.441 30-30v-120c0-.691-.148-1.352-.21-2.023-.075-1.094-.138-2.192-.33-3.27-.163-.945-.433-1.828-.69-2.746-.27-.96-.524-1.922-.883-2.867-.36-.93-.824-1.801-1.29-2.7-.433-.84-.84-1.695-1.363-2.503-.586-.93-1.273-1.77-1.964-2.625-.434-.54-.75-1.125-1.231-1.637-.137-.148-.3-.238-.434-.39-.78-.81-1.648-1.5-2.503-2.22-.66-.554-1.29-1.156-1.981-1.636-.855-.586-1.785-1.05-2.684-1.559-.796-.433-1.558-.93-2.386-1.289-.914-.406-1.89-.66-2.852-.976-.898-.286-1.77-.63-2.683-.84-.899-.196-1.829-.254-2.762-.375-1.051-.137-2.086-.301-3.137-.317-.195.032-.406-.027-.617-.027H945c-16.56 0-30 13.441-30 30s13.44 30 30 30h43.273l-333.61 307.95c-12.18 11.25-12.945 30.227-1.711 42.391zM570 1065c0 16.559 13.441 30 30 30s30-13.441 30-30V660c0-16.559-13.441-30-30-30s-30 13.441-30 30z"/></svg>