<svg xmlns="http://www.w3.org/2000/svg" width="1600" height="1600" viewBox="0 0 1200 1200"><path d="M133.5 1078.6h936c6.625 0 12-5.363 12-12V130.59c0-6.637-5.375-12-12-12h-936c-6.625 0-12 5.363-12 12v936.01c0 6.637 5.375 12 12 12m297.73-561.91V680.5H145.5V516.69zm304.84 0V680.5H455.23V516.69zm321.43 0V680.5H760.07V516.69zm-912 187.81h133.31v163.81H145.5zm157.31 0h280.84v163.81H302.81zm433.26 187.81v162.28l-280.84-.004v-162.27zm-128.41-24V704.5h284.43v163.81zM916.07 704.5h141.43v163.81H916.07zm141.43-211.81H916.07V328.87h141.43zm-165.43 0H607.66V328.87h284.43l-.004 163.82zM455.23 304.87V142.59h280.84v162.28zm128.43 24v163.81H302.81V328.87zM278.81 492.69H145.5V328.87h133.31zM145.5 892.31h285.73v162.28l-285.73-.004zm614.57 162.29V892.31h297.43v162.28l-297.43-.004zm297.43-749.73H760.07V142.59h297.43zM431.23 142.59v162.28H145.5V142.59z"/></svg>