<?xml version="1.0" encoding="UTF-8"?>
<svg width="1200pt" height="1200pt" version="1.1" viewBox="0 0 1200 1200" xmlns="http://www.w3.org/2000/svg">
 <path d="m133.5 1078.6h936c6.625 0 12-5.3633 12-12v-936.01c0-6.6367-5.375-12-12-12h-936c-6.625 0-12 5.3633-12 12v936.01c0 6.6367 5.375 12 12 12zm297.73-561.91v163.81h-285.73v-163.81zm304.84 0v163.81h-280.84v-163.81zm321.43 0v163.81h-297.43v-163.81zm-912 187.81h133.31v163.81h-133.31zm157.31 0h280.84v163.81h-280.84zm433.26 187.81v162.28l-280.84-0.003906v-162.27zm-128.41-24v-163.81h284.43v163.81zm308.41-163.81h141.43v163.81h-141.43zm141.43-211.81h-141.43v-163.82h141.43zm-165.43 0h-284.41v-163.82h284.43l-0.003906 163.82zm-436.84-187.82v-162.28h280.84v162.28zm128.43 24v163.81h-280.85v-163.81zm-304.85 163.82h-133.31v-163.82h133.31zm-133.31 399.62h285.73v162.28l-285.73-0.003906zm614.57 162.29v-162.29h297.43v162.28l-297.43-0.003906zm297.43-749.73h-297.43v-162.28h297.43zm-626.27-162.28v162.28h-285.73v-162.28z"/>
</svg>
