<?xml version="1.0" encoding="UTF-8"?>
<svg width="1200pt" height="1200pt" version="1.1" viewBox="0 0 1200 1200" xmlns="http://www.w3.org/2000/svg">
 <g>
  <path d="m238.75 272.7 383.55 383.65c4.6914 4.6914 10.824 7.0312 16.969 7.0312 6.1445 0 12.277-2.3398 16.969-7.0195 9.3711-9.3711 9.3711-24.562 0-33.949l-383.21-383.31v-92.223c0-13.246-10.754-24-24-24s-24 10.754-24 24v44.207l-14.543-14.543v-92.543c0-13.246-10.754-24-24-24-13.246 0-24 10.754-24 24v77.809h-78.492c-13.246 0-24 10.754-24 24s10.754 24 24 24h91.883l14.879 14.879h-44.219c-13.246 0-24 10.754-24 24s10.754 24 24 24h92.211z"/>
  <path d="m743.61 743.61c57.492-57.504 57.492-151.04 0-208.55-40.152-40.129-98.461-53.629-152.21-35.219-12.539 4.2969-19.223 17.953-14.914 30.492 4.2852 12.527 17.941 19.188 30.48 14.93 36.266-12.445 75.613-3.3359 102.71 23.746 38.773 38.785 38.773 101.89 0 140.66s-101.87 38.785-140.68 0c-26.699-26.699-35.953-65.594-24.156-101.5 4.1406-12.59-2.7227-26.16-15.312-30.289-12.637-4.1523-26.16 2.7227-30.289 15.312-17.473 53.207-3.7578 110.83 35.82 150.42 28.754 28.738 66.504 43.105 104.27 43.105 37.762-0.007812 75.523-14.383 104.28-43.121z"/>
  <path d="m605.06 961.59c11.566 1.2227 23.113 1.8242 34.598 1.8242 85.621 0 167.52-33.637 228.82-94.945 61.211-61.211 94.922-142.59 94.922-229.15s-33.719-167.94-94.922-229.15c-108.45-108.45-279.86-125.86-407.58-41.449-11.062 7.3086-14.102 22.199-6.793 33.254 7.3086 11.062 22.223 14.113 33.254 6.793 108.78-71.879 254.8-57.035 347.18 35.34 52.141 52.141 80.855 121.48 80.855 195.21-0.003907 73.738-28.719 143.09-80.859 195.23-59.23 59.23-140.9 88.176-224.44 79.32-13.164-1.4414-24.984 8.1602-26.387 21.336-1.4023 13.188 8.1602 24.996 21.348 26.391z"/>
  <path d="m403.04 452.77c-11.027-7.3789-25.934-4.4023-33.289 6.6016-85.633 127.99-68.629 300.04 40.43 409.11 36.59 36.602 79.945 63.203 128.87 79.078 2.4609 0.79297 4.957 1.1758 7.4023 1.1758 10.129 0 19.535-6.457 22.824-16.598 4.0938-12.613-2.8086-26.148-15.422-30.238-41.641-13.512-78.562-36.18-109.75-67.367-92.902-92.914-107.4-239.46-34.477-348.47 7.3867-11.02 4.4336-25.922-6.582-33.289z"/>
  <path d="m965.94 259.82c-180.11-155.34-446.88-161.88-634.29-15.527-10.453 8.1602-12.301 23.242-4.1523 33.684 8.1602 10.453 23.258 12.301 33.684 4.1406 169.43-132.28 410.57-126.37 573.42 14.051 4.5234 3.9102 10.105 5.8203 15.66 5.8203 6.7422 0 13.441-2.8203 18.191-8.3281 8.6523-10.02 7.5234-25.176-2.5195-33.84z"/>
  <path d="m978.32 303.38c-9.8633 8.8555-10.691 24.023-1.8242 33.887 160.48 178.8 152.98 452.09-17.09 622.15-176.52 176.5-463.68 176.48-640.18 0-158.62-158.62-176.64-413.12-41.902-592 7.9688-10.586 5.8555-25.633-4.7383-33.613-10.598-7.9805-25.633-5.8555-33.613 4.7383-149.03 197.88-129.12 479.37 46.32 654.81 97.609 97.609 225.8 146.4 354.02 146.4s256.41-48.793 354.02-146.4c188.1-188.09 196.38-490.37 18.863-688.15-8.8438-9.8516-24.012-10.703-33.887-1.8242z"/>
 </g>
</svg>
