<svg xmlns="http://www.w3.org/2000/svg" width="1600" height="1600" viewBox="0 0 1200 1200"><path d="M238.75 272.7 622.3 656.35a23.9 23.9 0 0 0 16.969 7.031c6.145 0 12.277-2.34 16.969-7.02 9.371-9.37 9.371-24.561 0-33.948l-383.21-383.31V146.88c0-13.246-10.754-24-24-24s-24 10.754-24 24v44.207l-14.543-14.543V84c0-13.246-10.754-24-24-24s-24 10.754-24 24v77.809H83.993c-13.246 0-24 10.754-24 24s10.754 24 24 24h91.883l14.879 14.879h-44.219c-13.246 0-24 10.754-24 24s10.754 24 24 24h92.211z"/><path d="M743.61 743.61c57.492-57.504 57.492-151.04 0-208.55-40.152-40.129-98.461-53.629-152.21-35.219-12.539 4.297-19.223 17.953-14.914 30.492 4.285 12.527 17.941 19.188 30.48 14.93 36.266-12.445 75.613-3.336 102.71 23.746 38.773 38.785 38.773 101.89 0 140.66s-101.87 38.785-140.68 0c-26.699-26.699-35.953-65.594-24.156-101.5 4.14-12.59-2.723-26.16-15.312-30.289-12.637-4.152-26.16 2.723-30.289 15.312-17.473 53.207-3.758 110.83 35.82 150.42 28.754 28.738 66.504 43.105 104.27 43.105 37.762-.008 75.523-14.383 104.28-43.121z"/><path d="M605.06 961.59a329 329 0 0 0 34.598 1.824c85.621 0 167.52-33.637 228.82-94.945 61.211-61.21 94.922-142.59 94.922-229.15s-33.719-167.94-94.922-229.15c-108.45-108.45-279.86-125.86-407.58-41.449-11.062 7.309-14.102 22.2-6.793 33.254 7.309 11.062 22.223 14.113 33.254 6.793 108.78-71.879 254.8-57.035 347.18 35.34 52.141 52.141 80.855 121.48 80.855 195.21-.004 73.738-28.719 143.09-80.859 195.23-59.23 59.23-140.9 88.176-224.44 79.32-13.164-1.441-24.984 8.16-26.387 21.336-1.402 13.188 8.16 24.996 21.348 26.391zM403.04 452.77c-11.027-7.379-25.934-4.402-33.289 6.602-85.633 127.99-68.629 300.04 40.43 409.11 36.59 36.602 79.945 63.203 128.87 79.078a24.1 24.1 0 0 0 7.402 1.175c10.13 0 19.535-6.457 22.824-16.598 4.094-12.613-2.808-26.148-15.422-30.238-41.64-13.512-78.562-36.18-109.75-67.367-92.902-92.914-107.4-239.46-34.477-348.47 7.387-11.02 4.434-25.922-6.582-33.289z"/><path d="M965.94 259.82C785.83 104.48 519.06 97.94 331.65 244.293c-10.453 8.16-12.301 23.242-4.152 33.684 8.16 10.453 23.258 12.301 33.684 4.14 169.43-132.28 410.57-126.37 573.42 14.052 4.523 3.91 10.105 5.82 15.66 5.82 6.742 0 13.44-2.82 18.19-8.328 8.653-10.02 7.524-25.176-2.519-33.84z"/><path d="M978.32 303.38c-9.863 8.856-10.691 24.023-1.824 33.887 160.48 178.8 152.98 452.09-17.09 622.15-176.52 176.5-463.68 176.48-640.18 0-158.62-158.62-176.64-413.12-41.902-592 7.969-10.586 5.855-25.633-4.738-33.613-10.598-7.98-25.633-5.856-33.613 4.738-149.03 197.88-129.12 479.37 46.32 654.81 97.609 97.61 225.8 146.4 354.02 146.4s256.41-48.793 354.02-146.4c188.1-188.09 196.38-490.37 18.863-688.15-8.844-9.851-24.012-10.703-33.887-1.824z"/></svg>