<svg xmlns="http://www.w3.org/2000/svg" width="1600" height="1600" viewBox="0 0 1200 1200"><path d="M600.74 250.47c-32.836 0-59.309 12.934-76.992 34.008-17.68 21.074-26.688 49.953-26.688 81.473v26.215h-32.59a5.677 5.677 0 0 0-6.02 6.02 5.68 5.68 0 0 0 6.02 5.316h32.59v63.527h-32.59v-.004a7 7 0 0 0-.707 0c-3.129.2-5.508 2.894-5.313 6.023s2.891 5.508 6.02 5.313h32.59v63.527h-32.59a5.681 5.681 0 0 0-6.02 6.023 5.677 5.677 0 0 0 6.02 5.313h32.59v58.566h-78.883V477.41c.02-.164-.016-.309 0-.473 3.059-31.312-26.082-55.969-57.625-55.969-28.16 0-51.574 19.898-56.441 46.051h-23.38l.005.004a5.671 5.671 0 0 0-5.906 5.902 5.676 5.676 0 0 0 5.906 5.434h22.438v63.527h-22.438a5.683 5.683 0 0 0-4.414 1.824 5.7 5.7 0 0 0-1.493 4.078 5.68 5.68 0 0 0 5.907 5.434h22.438v63.527h-22.438v-.004a5.68 5.68 0 0 0-5.754 5.668 5.67 5.67 0 0 0 5.754 5.668h22.438v39.91c0 8.5 1.976 16.652 5.433 23.852H280.74l-.004.004a5.5 5.5 0 0 0-1.183 0 5.698 5.698 0 1 0 1.183 11.336h35.188c10.523 12.668 26.613 20.78 44.633 20.78h136.5v42.747h-32.59a5.4 5.4 0 0 0-1.18 0 5.698 5.698 0 1 0 1.18 11.336h32.59v63.527h-32.59a5.4 5.4 0 0 0-1.18 0 5.698 5.698 0 1 0 1.18 11.336h32.59v85.254h-120.45v-.004q-.586-.06-1.18 0a5.698 5.698 0 1 0 1.18 11.336h453.43a5.665 5.665 0 0 0 5.75-5.668 5.66 5.66 0 0 0-1.688-4.036 5.66 5.66 0 0 0-4.062-1.632h-125.64v-85.254h32.59v.003a5.68 5.68 0 0 0 4.062-1.632 5.68 5.68 0 0 0 1.688-4.036 5.664 5.664 0 0 0-5.75-5.668h-32.59v-63.527h32.59a5.68 5.68 0 0 0 4.062-1.632 5.68 5.68 0 0 0 1.688-4.036 5.664 5.664 0 0 0-5.75-5.668h-32.59v-63.527h32.59a5.672 5.672 0 0 0 4.063-9.707 5.68 5.68 0 0 0-4.063-1.629h-32.59V653.35h136.5v-.234c21.129 1.95 39.398-9.668 49.355-26.688h.004a5.66 5.66 0 0 0 4.25 1.656h25.27a5.672 5.672 0 0 0 4.063-9.707 5.68 5.68 0 0 0-4.063-1.629h-25.031c2.191-6.105 3.543-12.703 3.543-19.363v-44.16h21.492l-.004-.004a5.68 5.68 0 0 0 4.062-1.629 5.68 5.68 0 0 0 0-8.078 5.68 5.68 0 0 0-4.062-1.629h-21.492v-63.527h21.492a5.68 5.68 0 0 0 4.062-1.629 5.672 5.672 0 0 0-4.062-9.707h-21.492v-63.527h21.492a5.664 5.664 0 0 0 5.75-5.668c0-1.515-.61-2.968-1.688-4.035a5.68 5.68 0 0 0-4.062-1.633h-21.492v-1.18c0-31.015-25.699-55.968-57.387-55.968s-57.625 24.957-57.625 55.969v150.2h-78.883v-62.82h32.594a5.664 5.664 0 0 0 5.75-5.668 5.67 5.67 0 0 0-5.75-5.668h-32.59v-63.527h32.59a5.664 5.664 0 0 0 5.75-5.668c0-1.516-.61-2.97-1.688-4.036a5.68 5.68 0 0 0-4.062-1.632h-32.59v-26.215c0-31.523-9.242-60.402-26.922-81.473-17.68-21.074-43.914-34.008-76.75-34.008z"/></svg>