<?xml version="1.0" encoding="UTF-8"?>
<svg width="1200pt" height="1200pt" version="1.1" viewBox="0 0 1200 1200" xmlns="http://www.w3.org/2000/svg">
 <path d="m600.74 250.47c-32.836 0-59.309 12.934-76.992 34.008-17.68 21.074-26.688 49.953-26.688 81.473v26.215h-32.59c-0.23438-0.015624-0.47266-0.015624-0.70703 0-3.1289 0.19531-5.5078 2.8906-5.3125 6.0195 0.19531 3.1328 2.8906 5.5117 6.0195 5.3164h32.59v63.527h-32.59v-0.003906c-0.23438-0.011719-0.47266-0.011719-0.70703 0-3.1289 0.19922-5.5078 2.8945-5.3125 6.0234s2.8906 5.5078 6.0195 5.3125h32.59v63.527h-32.59c-0.23438-0.015625-0.47266-0.015625-0.70703 0-3.1289 0.19531-5.5078 2.8945-5.3125 6.0234s2.8906 5.5078 6.0195 5.3125h32.59v58.566h-78.883v-134.38c0.019531-0.16406-0.015626-0.30859 0-0.47266 3.0586-31.312-26.082-55.969-57.625-55.969-28.16 0-51.574 19.898-56.441 46.051h-23.379l0.003906 0.003906c-0.16016-0.007813-0.31641-0.007813-0.47266 0-1.5039 0.0625-2.9219 0.71875-3.9414 1.8281-1.0156 1.1055-1.5547 2.5703-1.4922 4.0742 0.13281 3.1328 2.7734 5.5625 5.9062 5.4336h22.438v63.527h-22.438c-0.16016-0.007813-0.31641-0.007813-0.47266 0-1.5039 0.0625-2.9219 0.71875-3.9414 1.8242-1.0156 1.1094-1.5547 2.5742-1.4922 4.0781 0.13281 3.1289 2.7734 5.5625 5.9062 5.4336h22.438v63.527h-22.438v-0.003906c-1.5195-0.019531-2.9805 0.56641-4.0625 1.6328-1.082 1.0664-1.6914 2.5195-1.6914 4.0352 0 1.5195 0.60938 2.9727 1.6914 4.0391 1.082 1.0664 2.543 1.6523 4.0625 1.6289h22.438v39.91c0 8.5 1.9766 16.652 5.4336 23.852h-27.867l-0.003907 0.003906c-0.39453-0.042968-0.78906-0.042968-1.1836 0-1.5039 0.15234-2.8867 0.89844-3.8438 2.0742-0.95313 1.1719-1.4023 2.6797-1.2461 4.1836 0.15625 1.5078 0.90625 2.8867 2.082 3.8398 1.1797 0.95312 2.6836 1.3984 4.1914 1.2383h35.188c10.523 12.668 26.613 20.781 44.633 20.781h136.5v42.746h-32.59c-0.39062-0.042969-0.78516-0.042969-1.1797 0-1.5039 0.15234-2.8867 0.89844-3.8438 2.0742-0.95312 1.1719-1.4023 2.6797-1.2461 4.1836 0.15625 1.5078 0.90625 2.8867 2.082 3.8398 1.1758 0.95312 2.6836 1.3984 4.1875 1.2383h32.59v63.527h-32.59c-0.39062-0.042969-0.78516-0.042969-1.1797 0-1.5039 0.15234-2.8867 0.89844-3.8438 2.0742-0.95312 1.1719-1.4023 2.6797-1.2461 4.1836 0.15625 1.5078 0.90625 2.8867 2.082 3.8398 1.1758 0.95312 2.6836 1.3984 4.1875 1.2383h32.59v85.254h-120.45v-0.003907c-0.39062-0.039062-0.78516-0.039062-1.1797 0-1.5039 0.15234-2.8867 0.89844-3.8438 2.0742-0.95313 1.1758-1.4023 2.6797-1.2461 4.1875 0.15625 1.5039 0.90625 2.8867 2.082 3.8359 1.1758 0.95312 2.6836 1.3984 4.1875 1.2383h453.43c1.5195 0.023438 2.9805-0.56641 4.0625-1.6289 1.082-1.0664 1.6875-2.5195 1.6875-4.0391 0-1.5156-0.60547-2.9727-1.6875-4.0352-1.082-1.0664-2.543-1.6562-4.0625-1.6328h-125.64v-85.254h32.59v0.003906c1.5156 0.019532 2.9805-0.56641 4.0625-1.6328 1.0781-1.0664 1.6875-2.5195 1.6875-4.0352 0-1.5195-0.60938-2.9727-1.6875-4.0391-1.082-1.0664-2.5469-1.6523-4.0625-1.6289h-32.59v-63.527h32.59c1.5156 0.019531 2.9805-0.56641 4.0625-1.6328 1.0781-1.0664 1.6875-2.5195 1.6875-4.0352 0-1.5195-0.60938-2.9727-1.6875-4.0391-1.082-1.0664-2.5469-1.6523-4.0625-1.6289h-32.59v-63.527h32.59c1.5156 0.019531 2.9805-0.56641 4.0625-1.6328 1.0781-1.0625 1.6875-2.5195 1.6875-4.0352 0-1.5195-0.60938-2.9727-1.6875-4.0391-1.082-1.0625-2.5469-1.6523-4.0625-1.6289h-32.59v-38.496h136.5v-0.23438c21.129 1.9492 39.398-9.668 49.355-26.688h0.003906c1.1211 1.125 2.6641 1.7227 4.25 1.6562h25.27c1.5156 0.019531 2.9805-0.56641 4.0625-1.6328 1.0781-1.0625 1.6875-2.5195 1.6875-4.0352 0-1.5195-0.60938-2.9727-1.6875-4.0391-1.082-1.0625-2.5469-1.6523-4.0625-1.6289h-25.031c2.1914-6.1055 3.543-12.703 3.543-19.363v-44.16h21.492l-0.003906-0.003907c1.5156 0.023438 2.9805-0.56641 4.0625-1.6289 1.0781-1.0664 1.6875-2.5195 1.6875-4.0391 0-1.5195-0.60938-2.9727-1.6875-4.0391-1.082-1.0625-2.5469-1.6523-4.0625-1.6289h-21.492v-63.527h21.492c1.5156 0.023438 2.9805-0.56641 4.0625-1.6289 1.0781-1.0664 1.6875-2.5195 1.6875-4.0391 0-1.5156-0.60938-2.9727-1.6875-4.0352-1.082-1.0664-2.5469-1.6523-4.0625-1.6328h-21.492v-63.527h21.492c1.5156 0.023438 2.9805-0.5625 4.0625-1.6289 1.0781-1.0664 1.6875-2.5195 1.6875-4.0391 0-1.5156-0.60938-2.9688-1.6875-4.0352-1.082-1.0664-2.5469-1.6523-4.0625-1.6328h-21.492v-1.1797c0-31.016-25.699-55.969-57.387-55.969s-57.625 24.957-57.625 55.969v150.2h-78.883v-62.82h32.594c1.5156 0.023438 2.9805-0.5625 4.0625-1.6289 1.0781-1.0664 1.6875-2.5195 1.6875-4.0391 0-1.5156-0.60938-2.9727-1.6875-4.0352-1.082-1.0664-2.5469-1.6523-4.0625-1.6328h-32.59v-63.527h32.59c1.5156 0.023438 2.9805-0.5625 4.0625-1.6289 1.0781-1.0664 1.6875-2.5195 1.6875-4.0391 0-1.5156-0.60938-2.9688-1.6875-4.0352-1.082-1.0664-2.5469-1.6523-4.0625-1.6328h-32.59v-26.215c0-31.523-9.2422-60.402-26.922-81.473-17.68-21.074-43.914-34.008-76.75-34.008z"/>
</svg>
