<svg xmlns="http://www.w3.org/2000/svg" width="1600" height="1600" viewBox="0 0 1200 1200"><path d="M922.78 658.12v314.86c0 19.152-15.516 34.68-34.668 34.68h-741.59c-19.152 0-34.668-15.516-34.668-34.68V231.41c0-19.152 15.516-34.668 34.668-34.668h622.45V84.882h-622.45c-80.953 0-146.52 65.582-146.52 146.53v741.57c0 80.953 65.566 146.52 146.52 146.52h741.57c80.953 0 146.52-65.566 146.52-146.52l.004-314.86z"/><path d="M552.68 806.9 282.02 536.23l79.094-79.09 191.57 191.57 568.24-568.21 79.078 79.094z"/></svg>