<svg xmlns="http://www.w3.org/2000/svg" width="1600" height="1600" viewBox="0 0 1200 1200"><path d="M1124.4 182.91c-2.25-8.863-10.676-14.777-19.629-14.109-310.04 24.023-567.77 235.61-696.03 568.77-71.41-109.07-179.27-126.46-240.75-126.46-45.703 0-78.012 8.96-79.367 9.348-7.223 2.043-12.535 8.183-13.504 15.629s2.602 14.738 9.055 18.559c148.64 87.816 240.02 235.23 290.5 343.43 9.55 20.457 28.766 33.164 50.164 33.164 24.629 0 45.609-16.051 53.469-40.898 183.15-579.56 630.99-783.71 635.5-785.71 8.344-3.696 12.832-12.88 10.598-21.73z"/></svg>