<svg xmlns="http://www.w3.org/2000/svg" width="1600" height="1600" viewBox="0 0 1200 1200"><path fill-rule="evenodd" d="M918.48 152.78a25.18 25.18 0 0 0-19.148-8.816h-598.66a25.17 25.17 0 0 0-19.148 8.816l-148.37 173.43v.004a120.992 120.992 0 0 0-2.797 153.86c125.82 158.39 449.91 566.43 449.91 566.43a25.194 25.194 0 0 0 39.454 0s324.09-408.04 449.91-566.43a120.99 120.99 0 0 0-2.797-153.86c-59.156-69.16-148.37-173.44-148.37-173.44zM552.64 930.69 169.82 448.73a70.5 70.5 0 0 1-12.77-25.094h247.71zm490.32-507.05a70.5 70.5 0 0 1-12.77 25.094l-382.82 481.96 147.89-507.05zm-585.73 0 142.78 489.5 142.77-489.5zM293.12 216.75l87.574 156.5h-218.71a70.4 70.4 0 0 1 9.473-14.285zm611.03-3.227 124.41 145.45a70.6 70.6 0 0 1 9.473 14.285h-219.57zm-426.16 159.73h246.62l-124.43-158.87zm-139.68-178.9 89.992 160.84 123.73-160.84zm310.19 0 123.91 158.19 84.828-158.19z"/></svg>