<?xml version="1.0" encoding="UTF-8"?>
<svg width="1200pt" height="1200pt" version="1.1" viewBox="0 0 1200 1200" xmlns="http://www.w3.org/2000/svg">
 <path d="m918.48 152.78c-4.7891-5.5977-11.785-8.8203-19.148-8.8164h-598.66c-7.3672-0.003906-14.363 3.2188-19.148 8.8164 0 0-89.211 104.28-148.37 173.43v0.003906c-18.246 21.336-28.504 48.355-29.012 76.426-0.51172 28.07 8.7578 55.445 26.215 77.434 125.82 158.39 449.91 566.43 449.91 566.43 4.7773 6.0156 12.043 9.5234 19.727 9.5234s14.949-3.5078 19.727-9.5234c0 0 324.09-408.04 449.91-566.43 17.457-21.988 26.727-49.363 26.215-77.434-0.50781-28.07-10.766-55.09-29.012-76.426-59.156-69.16-148.37-173.44-148.37-173.44zm-365.84 777.91-382.82-481.96c-5.8984-7.418-10.242-15.953-12.77-25.094h247.71zm490.32-507.05c-2.5273 9.1406-6.8711 17.676-12.77 25.094l-382.82 481.96 147.89-507.05zm-585.73 0 142.78 489.5 142.77-489.5zm-164.11-206.89 87.574 156.5h-218.71c2.5625-5.1289 5.7461-9.9258 9.4727-14.285zm611.03-3.2266 124.41 145.45c3.7266 4.3594 6.9062 9.1562 9.4727 14.285h-219.57zm-426.16 159.73h246.62l-124.43-158.87zm-139.68-178.9 89.992 160.84 123.73-160.84zm310.19 0 123.91 158.19 84.828-158.19z" fill-rule="evenodd"/>
</svg>
