<?xml version="1.0" encoding="UTF-8"?>
<svg width="1200pt" height="1200pt" version="1.1" viewBox="0 0 1200 1200" xmlns="http://www.w3.org/2000/svg">
 <g>
  <path d="m998.91 689.56-17.613-17.613c-6.3984-6.3984-13.973-11.199-22.234-14.199l2.7109-2.707c23.75-23.754 23.75-62.398 0-86.152l-16.391-16.391c-6.543-6.543-14.215-11.281-22.395-14.219 20.965-23.898 20.047-60.422-2.75-83.219l-16.391-16.391c-6.4023-6.3984-13.973-11.199-22.234-14.199l85.031-85.031c23.75-23.754 23.75-62.398 0-86.152l-16.391-16.391c-23.754-23.75-62.398-23.75-86.152 0l-252.87 252.87-16.707-119.28c-5.2305-37.355-38.766-64.59-76.441-62.008l-7.2891 0.5c-35.547 2.4414-64.363 31.078-67.035 66.613l-22.887 304.53-57.059 57.059c-17.09-9.8047-39.254-7.4531-53.855 7.1445l-96.023 96.023c-17.469 17.469-17.469 45.797 0 63.266l267.02 267.02c17.469 17.469 45.797 17.469 63.266 0l96.023-96.023c14.129-14.129 16.82-35.355 8.0938-52.199l47.613-47.477c47.797-4.3906 97.43-24.918 151.48-62.609 46.008-32.086 94.559-75.914 152.79-137.94 22.676-24.145 22.098-61.402-1.3125-84.82zm-449.95 389.79c-15.5 15.5-40.633 15.5-56.137 0-15.5-15.504-15.504-40.637 0-56.137 15.5-15.5 40.637-15.5 56.137 0 15.504 15.504 15.504 40.637 0 56.137zm425.63-329.03c-80.027 85.234-185.03 183.86-287.51 190.03-4.2812 0.25781-8.3203 2.0703-11.355 5.0977l-50.754 50.613-235.16-235.16 60.535-60.539c2.9727-2.9727 4.7852-6.918 5.0977-11.109l23.371-311.03c1.3711-18.227 16.156-32.922 34.391-34.172l7.2852-0.5c19.281-1.3359 36.527 12.648 39.211 31.809l21.598 154.22c0.92578 6.6016 5.5039 12.113 11.828 14.23 6.3203 2.1133 13.297 0.47266 18.012-4.2383l277.81-277.81c10.043-10.047 26.387-10.051 36.43 0l16.391 16.391c10.047 10.043 10.047 26.387 0 36.43l-124.09 124.09c-3.4297 3.4336-5.1484 7.9336-5.1484 12.43s1.7148 8.9961 5.1484 12.43c6.8672 6.8633 17.996 6.8633 24.859 0 10.047-10.047 26.391-10.047 36.43 0l16.391 16.391c10.047 10.043 10.047 26.387 0.003906 36.43l-36.148 36.145c-6.8672 6.8633-6.8672 17.996-0.003906 24.859 6.8633 6.8633 17.996 6.8672 24.859 0.003907 10.047-10.047 26.395-10.043 36.434 0l16.391 16.391c4.8672 4.8672 7.5469 11.336 7.5469 18.215 0 6.8828-2.6797 13.352-7.5469 18.215l-41.77 41.77v0.003907c-6.8633 6.8633-6.8633 17.996 0.003907 24.859 6.8633 6.8633 17.992 6.8633 24.859 0v-0.003906c4.8633-4.8672 11.336-7.543 18.215-7.543 6.8828 0 13.352 2.6797 18.215 7.5469l17.613 17.609c9.9102 9.9102 10.152 25.676 0.55078 35.898z"/>
  <path d="m558.98 236.16c3.4336 3.4297 7.9336 5.1484 12.43 5.1484s8.9961-1.7148 12.43-5.1484c6.8633-6.8672 6.8633-17.996 0-24.859l-99.422-99.422c-6.8672-6.8633-17.996-6.8633-24.859 0-6.8633 6.8672-6.8633 17.996 0 24.859z"/>
  <path d="m752.88 245.91c4.4961 0 8.9961-1.7148 12.43-5.1484l99.422-99.422c6.8633-6.8672 6.8633-17.996 0-24.859-6.8672-6.8633-17.996-6.8633-24.859 0l-99.422 99.422c-6.8633 6.8672-6.8633 17.996 0 24.859 3.4336 3.4297 7.9336 5.1484 12.43 5.1484z"/>
  <path d="m663.84 193.9c9.7109 0 17.578-7.8672 17.578-17.578v-140.6c0-9.7109-7.8672-17.578-17.578-17.578-9.7109 0-17.578 7.8672-17.578 17.578v140.61c0 9.707 7.8672 17.574 17.578 17.574z"/>
 </g>
</svg>
