<svg xmlns="http://www.w3.org/2000/svg" width="1600" height="1600" viewBox="0 0 1200 1200"><path d="m998.91 689.56-17.613-17.613c-6.398-6.398-13.973-11.199-22.234-14.199l2.71-2.707c23.75-23.754 23.75-62.398 0-86.152l-16.39-16.391a60.55 60.55 0 0 0-22.395-14.219c20.965-23.898 20.047-60.422-2.75-83.219l-16.391-16.391c-6.402-6.398-13.973-11.199-22.234-14.199l85.03-85.031c23.75-23.754 23.75-62.398 0-86.152l-16.39-16.391c-23.754-23.75-62.398-23.75-86.152 0l-252.87 252.87-16.707-119.28c-5.23-37.355-38.766-64.59-76.441-62.008l-7.29.5c-35.546 2.441-64.362 31.078-67.034 66.613l-22.887 304.53-57.06 57.059c-17.09-9.805-39.253-7.453-53.854 7.144l-96.023 96.023c-17.47 17.47-17.47 45.797 0 63.266l267.02 267.02c17.469 17.47 45.797 17.47 63.266 0l96.023-96.023c14.129-14.128 16.82-35.354 8.094-52.198l47.613-47.477c47.797-4.391 97.43-24.918 151.48-62.61 46.008-32.086 94.559-75.914 152.79-137.94 22.676-24.144 22.098-61.401-1.313-84.82zm-449.95 389.79c-15.5 15.5-40.633 15.5-56.137 0-15.5-15.504-15.504-40.637 0-56.137 15.5-15.5 40.637-15.5 56.137 0 15.504 15.504 15.504 40.637 0 56.137m425.63-329.03c-80.027 85.234-185.03 183.86-287.51 190.03a17.57 17.57 0 0 0-11.355 5.098l-50.754 50.613-235.16-235.16 60.535-60.54a17.57 17.57 0 0 0 5.098-11.108l23.37-311.03c1.372-18.227 16.157-32.922 34.392-34.172l7.285-.5c19.28-1.336 36.527 12.648 39.21 31.809L581.3 529.58a17.578 17.578 0 0 0 29.84 9.991l277.81-277.81c10.043-10.047 26.387-10.05 36.43 0l16.39 16.391c10.048 10.043 10.048 26.387 0 36.43l-124.09 124.09c-3.429 3.434-5.148 7.934-5.148 12.43s1.715 8.997 5.149 12.43c6.867 6.864 17.996 6.864 24.859 0 10.047-10.047 26.39-10.047 36.43 0l16.39 16.391c10.048 10.043 10.048 26.387.005 36.43l-36.148 36.145c-6.867 6.864-6.867 17.996-.004 24.86 6.863 6.863 17.996 6.867 24.859.003 10.047-10.047 26.395-10.043 36.434 0l16.39 16.391c4.868 4.868 7.548 11.336 7.548 18.215 0 6.883-2.68 13.352-7.547 18.215l-41.77 41.77v.004c-6.863 6.864-6.863 17.996.004 24.86 6.863 6.863 17.992 6.863 24.859 0v-.005c4.863-4.867 11.336-7.543 18.215-7.543 6.883 0 13.352 2.68 18.215 7.547l17.613 17.61c9.91 9.91 10.152 25.675.55 35.897zM558.98 236.16c3.434 3.43 7.934 5.148 12.43 5.148s8.996-1.714 12.43-5.148c6.863-6.867 6.863-17.996 0-24.859l-99.422-99.422c-6.867-6.863-17.996-6.863-24.859 0-6.863 6.867-6.863 17.996 0 24.859zM752.88 245.91c4.496 0 8.996-1.715 12.43-5.148l99.422-99.422c6.863-6.868 6.863-17.996 0-24.86-6.867-6.863-17.996-6.863-24.859 0l-99.422 99.423c-6.863 6.867-6.863 17.996 0 24.859a17.54 17.54 0 0 0 12.43 5.148zM663.84 193.9c9.71 0 17.578-7.867 17.578-17.578v-140.6c0-9.71-7.867-17.578-17.578-17.578s-17.578 7.867-17.578 17.578v140.61c0 9.707 7.867 17.574 17.578 17.574z"/></svg>