<svg xmlns="http://www.w3.org/2000/svg" width="1600" height="1600" viewBox="0 0 1200 1200"><path d="M600 1090.9c270.66 0 490.86-220.2 490.86-490.86S870.66 109.18 600 109.18s-490.86 220.2-490.86 490.86S329.34 1090.9 600 1090.9m0-944.21c249.98 0 453.36 203.38 453.36 453.36S849.98 1053.41 600 1053.41 146.64 850.03 146.64 600.05 350.02 146.69 600 146.69"/><path d="M600 1171.9c315.32 0 571.88-256.54 571.88-571.88S915.33 28.14 600 28.14 28.12 284.68 28.12 600.02 284.67 1171.9 600 1171.9m0-1106.2c294.66 0 534.38 239.72 534.38 534.38S894.66 1134.46 600 1134.46 65.62 894.74 65.62 600.08 305.34 65.7 600 65.7"/><path d="M600 236.55c17.398 0 31.555-14.156 31.555-31.555 0-17.398-14.156-31.555-31.555-31.555s-31.555 14.156-31.555 31.555c0 17.398 14.156 31.555 31.555 31.555m0-37.5a5.95 5.95 0 0 1 5.945 5.945c0 3.278-2.664 5.942-5.945 5.942s-5.945-2.68-5.945-5.946c0-3.261 2.664-5.941 5.945-5.941M600 972.82c-17.398 0-31.555 14.156-31.555 31.555 0 17.398 14.156 31.555 31.555 31.555s31.555-14.156 31.555-31.555c0-17.398-14.156-31.555-31.555-31.555m0 37.5a5.95 5.95 0 0 1-5.945-5.945c0-3.278 2.664-5.942 5.945-5.942s5.945 2.68 5.945 5.946c0 3.261-2.664 5.941-5.945 5.941M968.16 604.69c0 17.398 14.156 31.555 31.555 31.555 17.402 0 31.539-14.156 31.539-31.555s-14.156-31.555-31.555-31.555c-17.402 0-31.539 14.156-31.539 31.555m31.539-5.945c3.281 0 5.945 2.68 5.945 5.945 0 3.262-2.68 5.945-5.945 5.945s-5.945-2.664-5.945-5.945 2.68-5.945 5.945-5.945M231.84 604.69c0-17.398-14.156-31.555-31.555-31.555-17.402 0-31.539 14.156-31.539 31.555s14.156 31.555 31.555 31.555c17.402 0 31.539-14.156 31.539-31.555m-31.539 5.945c-3.281 0-5.945-2.68-5.945-5.945 0-3.262 2.68-5.945 5.945-5.945s5.945 2.664 5.945 5.945-2.68 5.945-5.945 5.945M404.79 287.48c5.21 0 10.52-1.293 15.355-4.012 15.168-8.476 20.625-27.73 12.133-42.918 0 0 0-.02-.02-.039-8.492-15.148-27.77-20.605-42.938-12.113-15.168 8.477-20.625 27.73-12.113 42.957 5.797 10.312 16.54 16.125 27.582 16.125zm2.852-26.363c-2.832 1.594-6.489.582-8.082-2.27l10.367-5.812c1.593 2.867.582 6.488-2.286 8.082zm-5.813-10.371a5.913 5.913 0 0 1 4.54-.543c1.48.414 2.773 1.445 3.542 2.813l-10.367 5.793c-1.578-2.848-.566-6.47 2.285-8.063zM822.79 938.02c-8.512-15.168-27.805-20.586-42.938-12.113-15.168 8.477-20.625 27.73-12.113 42.957 5.793 10.312 16.539 16.105 27.602 16.105 5.195 0 10.5-1.293 15.336-4.012 15.168-8.476 20.625-27.73 12.133-42.918-.004 0-.004 0-.02-.02zm-30.434 10.238c.918-.508 1.914-.77 2.867-.77a5.97 5.97 0 0 1 5.196 3.04l-10.367 5.793c-1.575-2.848-.563-6.47 2.304-8.063zm5.813 10.371c-1.352.77-2.981.957-4.54.543a5.9 5.9 0 0 1-3.543-2.793l10.367-5.813c1.579 2.848.567 6.47-2.285 8.063zM940.18 439.8a31.8 31.8 0 0 0 8.645 1.2c5.304 0 10.554-1.368 15.335-4.032 7.368-4.125 12.676-10.855 14.98-18.977 2.27-8.117 1.258-16.633-2.851-23.98-8.512-15.168-27.805-20.586-42.938-12.113-7.367 4.106-12.676 10.855-14.961 18.957-2.29 8.102-1.258 16.633 2.832 23.961 4.11 7.371 10.84 12.676 18.957 14.984zm5.645-35.551s.019 0 0 0c1.406-.79 3.039-1.012 4.539-.543a5.93 5.93 0 0 1 3.562 2.793 5.88 5.88 0 0 1 .524 4.54 5.87 5.87 0 0 1-2.793 3.562c-2.813 1.613-6.508.601-8.102-2.27-.77-1.367-.977-3.039-.543-4.539a6.1 6.1 0 0 1 2.812-3.543M278.77 784.55c-4.105-7.367-10.836-12.676-18.957-14.961-8.117-2.27-16.633-1.293-23.98 2.832-7.352 4.125-12.676 10.855-14.98 18.977-2.27 8.117-1.258 16.633 2.852 23.98 5.793 10.312 16.539 16.125 27.582 16.125 5.21 0 10.52-1.293 15.375-4.031 7.351-4.106 12.656-10.836 14.945-18.957 2.285-8.121 1.273-16.652-2.836-23.965zm-24.598 20.57c-1.387.77-3.055.977-4.54.543a5.93 5.93 0 0 1-3.562-2.793 5.88 5.88 0 0 1-.523-4.54c.414-1.5 1.445-2.792 2.793-3.562 2.812-1.613 6.508-.601 8.102 2.27.77 1.367.976 3.039.543 4.539a6.1 6.1 0 0 1-2.813 3.543M239.29 429.73a31.56 31.56 0 0 0 15.883 4.293c10.836 0 21.414-5.57 27.242-15.562 4.293-7.273 5.477-15.75 3.356-23.906-2.118-8.176-7.293-15.02-14.57-19.293-7.239-4.273-15.75-5.437-23.926-3.32-8.157 2.136-15 7.312-19.258 14.586-8.81 15.023-3.766 34.39 11.273 43.203zm10.781-30.223a5.96 5.96 0 0 1 5.137-2.945c1.03 0 2.062.261 3 .824 2.832 1.648 3.789 5.305 2.136 8.117-.804 1.352-2.117 2.363-3.636 2.758-1.5.394-3.168.168-4.5-.637-1.352-.789-2.364-2.117-2.739-3.617a5.94 5.94 0 0 1 .602-4.5M928.82 834.09a31.25 31.25 0 0 0 15.918 4.352c2.68 0 5.363-.356 8.023-1.032 8.157-2.136 15-7.312 19.258-14.586 8.774-15 3.73-34.367-11.27-43.164 0 0-.02-.02-.039-.02-15.02-8.737-34.367-3.694-43.125 11.25-4.293 7.274-5.476 15.75-3.355 23.907 2.137 8.176 7.293 15.02 14.59 19.293zm21.711-28.707a6.04 6.04 0 0 1-.602 4.5c-1.668 2.832-5.289 3.79-8.117 2.156l5.98-10.258a5.77 5.77 0 0 1 2.739 3.602zm-10.895-1.5c.805-1.352 2.117-2.363 3.637-2.758a5.6 5.6 0 0 1 1.48-.187c1.07 0 2.102.281 3.02.824l-6 10.238c-2.828-1.668-3.785-5.305-2.137-8.117zM786.26 287.12c4.895 2.867 10.352 4.332 15.883 4.332 2.68 0 5.363-.336 8.023-1.031 8.176-2.117 15-7.313 19.258-14.57 4.258-7.274 5.438-15.77 3.32-23.906-2.116-8.137-7.312-14.98-14.57-19.258-14.944-8.813-34.351-3.77-43.198 11.27-8.797 15.004-3.735 34.37 11.285 43.164zm10.801-30.223c.805-1.352 2.117-2.344 3.617-2.738s3.149-.188 4.52.636c2.812 1.649 3.77 5.29 2.082 8.157-1.649 2.812-5.324 3.77-8.117 2.082a5.98 5.98 0 0 1-2.739-3.618 6.03 6.03 0 0 1 .637-4.52M381.84 976.69a31.23 31.23 0 0 0 15.898 4.332c10.836 0 21.395-5.57 27.262-15.562.02 0 .02-.02.04-.04 8.772-15 3.71-34.366-11.306-43.18-7.258-4.257-15.75-5.437-23.887-3.3-8.176 2.117-15 7.313-19.238 14.551-4.273 7.274-5.457 15.79-3.336 23.945 2.117 8.152 7.309 14.98 14.566 19.254zm15.977-33.168c1.031 0 2.062.262 3 .824a5.98 5.98 0 0 1 2.738 3.617 6.05 6.05 0 0 1-.601 4.5l-10.258-6.039a5.95 5.95 0 0 1 5.12-2.902zm-5.156 2.96 10.273 6.02a5.98 5.98 0 0 1-3.617 2.739c-1.52.394-3.168.148-4.52-.637-2.832-1.672-3.789-5.309-2.137-8.121zM600 647.21c6.133 0 11.945-1.258 17.305-3.394l128.48 128.48a18.7 18.7 0 0 0 13.258 5.492 18.7 18.7 0 0 0 13.258-5.492c7.332-7.332 7.332-19.18 0-26.512l-128.48-128.48c2.117-5.364 3.395-11.176 3.395-17.305 0-13.875-6.114-26.23-15.656-34.875l-.004-237.58c0-17.398-14.156-31.555-31.555-31.555s-31.555 14.156-31.555 31.555v237.58c-9.543 8.644-15.656 21-15.656 34.875 0 26.043 21.168 47.21 47.21 47.21z"/></svg>