<?xml version="1.0" encoding="UTF-8"?>
<svg width="1200pt" height="1200pt" version="1.1" viewBox="0 0 1200 1200" xmlns="http://www.w3.org/2000/svg">
 <g>
  <path d="m600 1090.9c270.66 0 490.86-220.2 490.86-490.86s-220.2-490.86-490.86-490.86-490.86 220.2-490.86 490.86 220.2 490.86 490.86 490.86zm0-944.21c249.98 0 453.36 203.38 453.36 453.36 0 249.98-203.38 453.36-453.36 453.36s-453.36-203.38-453.36-453.36 203.38-453.36 453.36-453.36z"/>
  <path d="m600 1171.9c315.32 0 571.88-256.54 571.88-571.88s-256.55-571.88-571.88-571.88-571.88 256.54-571.88 571.88 256.55 571.88 571.88 571.88zm0-1106.2c294.66 0 534.38 239.72 534.38 534.38s-239.72 534.38-534.38 534.38-534.38-239.72-534.38-534.38 239.72-534.38 534.38-534.38z"/>
  <path d="m600 236.55c17.398 0 31.555-14.156 31.555-31.555 0-17.398-14.156-31.555-31.555-31.555s-31.555 14.156-31.555 31.555c0 17.398 14.156 31.555 31.555 31.555zm0-37.5c3.2812 0 5.9453 2.6641 5.9453 5.9453 0 3.2773-2.6641 5.9414-5.9453 5.9414s-5.9453-2.6797-5.9453-5.9453c0-3.2617 2.6641-5.9414 5.9453-5.9414z"/>
  <path d="m600 972.82c-17.398 0-31.555 14.156-31.555 31.555 0 17.398 14.156 31.555 31.555 31.555s31.555-14.156 31.555-31.555c0-17.398-14.156-31.555-31.555-31.555zm0 37.5c-3.2812 0-5.9453-2.6641-5.9453-5.9453 0-3.2773 2.6641-5.9414 5.9453-5.9414s5.9453 2.6797 5.9453 5.9453c0 3.2617-2.6641 5.9414-5.9453 5.9414z"/>
  <path d="m968.16 604.69c0 17.398 14.156 31.555 31.555 31.555 17.402 0 31.539-14.156 31.539-31.555s-14.156-31.555-31.555-31.555c-17.402 0-31.539 14.156-31.539 31.555zm31.539-5.9453c3.2812 0 5.9453 2.6797 5.9453 5.9453 0 3.2617-2.6797 5.9453-5.9453 5.9453-3.2656 0-5.9453-2.6641-5.9453-5.9453s2.6797-5.9453 5.9453-5.9453z"/>
  <path d="m231.84 604.69c0-17.398-14.156-31.555-31.555-31.555-17.402 0-31.539 14.156-31.539 31.555s14.156 31.555 31.555 31.555c17.402 0 31.539-14.156 31.539-31.555zm-31.539 5.9453c-3.2812 0-5.9453-2.6797-5.9453-5.9453 0-3.2617 2.6797-5.9453 5.9453-5.9453 3.2656 0 5.9453 2.6641 5.9453 5.9453s-2.6797 5.9453-5.9453 5.9453z"/>
  <path d="m404.79 287.48c5.2109 0 10.52-1.293 15.355-4.0117 15.168-8.4766 20.625-27.73 12.133-42.918 0 0 0-0.019531-0.019531-0.039063-8.4922-15.148-27.77-20.605-42.938-12.113-15.168 8.4766-20.625 27.73-12.113 42.957 5.7969 10.312 16.539 16.125 27.582 16.125zm2.8516-26.363c-2.832 1.5938-6.4883 0.58203-8.082-2.2695l10.367-5.8125c1.5938 2.8672 0.58203 6.4883-2.2852 8.082zm-5.8125-10.371c0.89844-0.50781 1.9141-0.76953 2.9258-0.76953 0.52344 0 1.0859 0.074219 1.6133 0.22656 1.4805 0.41406 2.7734 1.4453 3.543 2.8125l-10.367 5.793c-1.5781-2.8477-0.56641-6.4688 2.2852-8.0625z"/>
  <path d="m822.79 938.02c-8.5117-15.168-27.805-20.586-42.938-12.113-15.168 8.4766-20.625 27.73-12.113 42.957 5.793 10.312 16.539 16.105 27.602 16.105 5.1953 0 10.5-1.293 15.336-4.0117 15.168-8.4766 20.625-27.73 12.133-42.918-0.003906 0-0.003906 0-0.019532-0.019531zm-30.434 10.238c0.91797-0.50781 1.9141-0.76953 2.8672-0.76953 2.082 0 4.1055 1.1055 5.1953 3.0391l-10.367 5.793c-1.5742-2.8477-0.5625-6.4688 2.3047-8.0625zm5.8125 10.371c-1.3516 0.76953-2.9805 0.95703-4.5391 0.54297-1.5-0.41406-2.793-1.4453-3.543-2.793l10.367-5.8125c1.5781 2.8477 0.56641 6.4688-2.2852 8.0625z"/>
  <path d="m940.18 439.8c2.8516 0.80469 5.7578 1.1992 8.6445 1.1992 5.3047 0 10.555-1.3672 15.336-4.0312 7.3672-4.125 12.676-10.855 14.98-18.977 2.2695-8.1172 1.2578-16.633-2.8516-23.98-8.5117-15.168-27.805-20.586-42.938-12.113-7.3672 4.1055-12.676 10.855-14.961 18.957-2.2891 8.1016-1.2578 16.633 2.832 23.961 4.1094 7.3711 10.84 12.676 18.957 14.984zm5.6445-35.551s0.019531 0 0 0c1.4062-0.78906 3.0391-1.0117 4.5391-0.54297 1.5195 0.41406 2.8125 1.4609 3.5625 2.793 0.76953 1.3672 0.97656 3.0195 0.52344 4.5391-0.41406 1.5195-1.4453 2.8125-2.793 3.5625-2.8125 1.6133-6.5078 0.60156-8.1016-2.2695-0.76953-1.3672-0.97656-3.0391-0.54297-4.5391 0.43359-1.4805 1.4648-2.7734 2.8125-3.543z"/>
  <path d="m278.77 784.55c-4.1055-7.3672-10.836-12.676-18.957-14.961-8.1172-2.2695-16.633-1.293-23.98 2.832-7.3516 4.125-12.676 10.855-14.98 18.977-2.2695 8.1172-1.2578 16.633 2.8516 23.98 5.793 10.312 16.539 16.125 27.582 16.125 5.2109 0 10.52-1.293 15.375-4.0312 7.3516-4.1055 12.656-10.836 14.945-18.957 2.2852-8.1211 1.2734-16.652-2.8359-23.965zm-24.598 20.57c-1.3867 0.76953-3.0547 0.97656-4.5391 0.54297-1.5195-0.41406-2.8125-1.4609-3.5625-2.793-0.76953-1.3672-0.97656-3.0195-0.52344-4.5391 0.41406-1.5 1.4453-2.793 2.793-3.5625 2.8125-1.6133 6.5078-0.60156 8.1016 2.2695 0.76953 1.3672 0.97656 3.0391 0.54297 4.5391-0.44922 1.5-1.4805 2.793-2.8125 3.543z"/>
  <path d="m239.29 429.73c5.0078 2.9062 10.48 4.293 15.883 4.293 10.836 0 21.414-5.5703 27.242-15.562 4.293-7.2734 5.4766-15.75 3.3555-23.906-2.1172-8.1758-7.293-15.02-14.57-19.293-7.2383-4.2734-15.75-5.4375-23.926-3.3203-8.1562 2.1367-15 7.3125-19.258 14.586-8.8086 15.023-3.7656 34.391 11.273 43.203zm10.781-30.223c1.125-1.8945 3.0938-2.9453 5.1367-2.9453 1.0312 0 2.0625 0.26172 3 0.82422 2.832 1.6484 3.7891 5.3047 2.1367 8.1172-0.80469 1.3516-2.1172 2.3633-3.6367 2.7578-1.5 0.39453-3.168 0.16797-4.5-0.63672-1.3516-0.78906-2.3633-2.1172-2.7383-3.6172-0.41406-1.5391-0.16797-3.1875 0.60156-4.5z"/>
  <path d="m928.82 834.09c4.8945 2.8867 10.367 4.3516 15.918 4.3516 2.6797 0 5.3633-0.35547 8.0234-1.0312 8.1562-2.1367 15-7.3125 19.258-14.586 8.7734-15 3.7305-34.367-11.27-43.164 0 0-0.019531-0.019531-0.039062-0.019531-15.02-8.7383-34.367-3.6953-43.125 11.25-4.293 7.2734-5.4766 15.75-3.3555 23.906 2.1367 8.1758 7.293 15.02 14.59 19.293zm21.711-28.707c0.39453 1.5391 0.16797 3.168-0.60156 4.5-1.668 2.832-5.2891 3.7891-8.1172 2.1562l5.9805-10.258c1.3516 0.76953 2.3633 2.082 2.7383 3.6016zm-10.895-1.5c0.80469-1.3516 2.1172-2.3633 3.6367-2.7578 0.46875-0.13281 0.99219-0.1875 1.4805-0.1875 1.0703 0 2.1016 0.28125 3.0195 0.82422l-6 10.238c-2.8281-1.668-3.7852-5.3047-2.1367-8.1172z"/>
  <path d="m786.26 287.12c4.8945 2.8672 10.352 4.332 15.883 4.332 2.6797 0 5.3633-0.33594 8.0234-1.0312 8.1758-2.1172 15-7.3125 19.258-14.57 4.2578-7.2734 5.4375-15.77 3.3203-23.906-2.1172-8.1367-7.3125-14.98-14.57-19.258-14.945-8.8125-34.352-3.7695-43.199 11.27-8.7969 15.004-3.7344 34.371 11.285 43.164zm10.801-30.223c0.80469-1.3516 2.1172-2.3438 3.6172-2.7383s3.1484-0.1875 4.5195 0.63672c2.8125 1.6484 3.7695 5.2891 2.082 8.1562-1.6484 2.8125-5.3242 3.7695-8.1172 2.082-1.3516-0.78906-2.3438-2.1172-2.7383-3.6172-0.39453-1.5195-0.15234-3.1719 0.63672-4.5195z"/>
  <path d="m381.84 976.69c5.0078 2.9453 10.48 4.332 15.898 4.332 10.836 0 21.395-5.5703 27.262-15.562 0.019532 0 0.019532-0.019531 0.039063-0.039062 8.7734-15 3.7109-34.367-11.305-43.18-7.2578-4.2578-15.75-5.4375-23.887-3.3008-8.1758 2.1172-15 7.3125-19.238 14.551-4.2734 7.2734-5.457 15.789-3.3359 23.945 2.1172 8.1523 7.3086 14.98 14.566 19.254zm15.977-33.168c1.0312 0 2.0625 0.26172 3 0.82422 1.3516 0.78906 2.3438 2.1172 2.7383 3.6172 0.39453 1.5195 0.16797 3.168-0.60156 4.5l-10.258-6.0391c1.1055-1.8516 3.0742-2.9023 5.1211-2.9023zm-5.1562 2.9609 10.273 6.0195c-0.78906 1.3516-2.1172 2.3438-3.6172 2.7383-1.5195 0.39453-3.168 0.14844-4.5195-0.63672-2.832-1.6719-3.7891-5.3086-2.1367-8.1211z"/>
  <path d="m600 647.21c6.1328 0 11.945-1.2578 17.305-3.3945l128.48 128.48c3.6562 3.6562 8.457 5.4922 13.258 5.4922 4.8008 0 9.6016-1.8359 13.258-5.4922 7.332-7.332 7.332-19.18 0-26.512l-128.48-128.48c2.1172-5.3633 3.3945-11.176 3.3945-17.305 0-13.875-6.1133-26.23-15.656-34.875l-0.003906-237.58c0-17.398-14.156-31.555-31.555-31.555s-31.555 14.156-31.555 31.555v237.58c-9.543 8.6445-15.656 21-15.656 34.875 0 26.043 21.168 47.211 47.211 47.211z"/>
 </g>
</svg>
