<svg xmlns="http://www.w3.org/2000/svg" width="1600" height="1600" viewBox="0 0 1200 1200"><path d="M141.47 775.14c9.422 4.957 21.047 1.332 25.992-8.102l32.531-61.957c-6.852 60.84-8.258 158.55 40.117 219 28.117 35.125 68.566 52.934 120.28 52.934.59 0 1.188 0 1.777-.011 76.414-.602 119.06-32.148 145.2-78.215 102.54 62.387 215.43 64.824 217.5 64.836h.18c10.559 0 19.164-8.508 19.246-19.078.098-10.633-8.45-19.32-19.078-19.414-7.727-.07-110.89-2.293-202.23-60.133 14.062-37.523 21.551-80.688 28.934-123.34 10.812-62.508 21.996-127.15 51.625-182.07 9.133-16.934 22.094-31.285 37.633-43.633 20.398 29.004 38.988 61.586 55.586 97.969l-52.078-49.223c-7.727-7.297-19.906-6.973-27.215.77-7.297 7.726-6.96 19.921.77 27.214L742 709.637a19.2 19.2 0 0 0 13.223 5.258 19.2 19.2 0 0 0 8.328-1.894 19.23 19.23 0 0 0 10.848-18.938l-13.668-166.36c-.864-10.598-10.32-18.492-20.746-17.617-10.61.875-18.492 10.164-17.617 20.762l4.691 57.168c-16.152-34.094-33.984-65.16-53.496-93.086 89.652-47.184 228.9-50.184 313.73-46.68l-62.891 15.938c-10.297 2.617-16.535 13.078-13.922 23.387 2.207 8.722 10.043 14.52 18.648 14.52 1.559 0 3.156-.192 4.754-.59l165.06-41.82a19.22 19.22 0 0 0 14.375-16.402 19.26 19.26 0 0 0-10.164-19.31l-147.78-77.593c-9.422-4.946-21.07-1.344-25.992 8.101-4.945 9.406-1.32 21.047 8.09 25.992l55.738 29.27c-89.566-4.117-242.03-1.176-342.88 54.457-45.348-55.703-98.484-96.707-159.2-122.32-3.504-1.476-6.985-2.808-10.477-4.152 99.875-82.895 241.88-76.129 243.34-76.055 10.414.648 19.703-7.523 20.293-18.133.601-10.609-7.489-19.691-18.098-20.305-7.043-.395-172.07-8.64-284.38 97.391-1.188 1.129-2.293 2.316-3.47 3.457-143.16-37.262-268.51 16.789-274.39 19.391-9.718 4.297-14.124 15.672-9.815 25.391 4.308 9.73 15.672 14.125 25.39 9.816 1.247-.55 106.99-46.199 229.75-21.742-44.136 58.344-66.491 133.56-66.491 224.4 0 149.45 60.266 240.37 132.89 295.82-21.156 39.47-54 60.875-113.79 61.344-40.812.036-70.68-12.254-91.656-38.438-36.434-45.469-38.016-121.75-33.29-176.26l14.259 56.27c2.207 8.723 10.043 14.52 18.648 14.52 1.558 0 3.156-.191 4.738-.59 10.309-2.617 16.547-13.077 13.934-23.386l-41.82-165.05a19.25 19.25 0 0 0-16.402-14.387 19.25 19.25 0 0 0-19.31 10.176l-77.593 147.78c-4.953 9.398-1.332 21.039 8.09 25.984zm239.8-193.8c0-88.871 23.184-160.57 68.867-213.67 8.64 2.844 17.316 6.035 26.004 9.695 53.617 22.621 100.97 58.777 141.8 108.01-19.871 15.492-36.434 33.938-48.289 55.934-32.594 60.457-44.855 131.28-55.668 193.78-7.164 41.41-13.934 76.992-23.438 106.37-60.672-50.316-109.28-130.86-109.28-260.11z"/></svg>