<svg xmlns="http://www.w3.org/2000/svg" width="1600" height="1600" viewBox="0 0 1200 1200"><g fill-rule="evenodd"><path d="M696.48 289.68 432.5 448.26l44.832 165.33 308.7 6.813 263.97-158.58-44.82-165.38zM244.92 527.1h130.1v217.48c-48.688 1.254-88.32 40.715-88.32 89.875 0 4.828.387 9.559 1.121 14.176l-91.965.008c-25.25 0-45.855-20.36-45.855-45.344v-114.79l94.918-161.4zm-52.945 141.89 68.141-115.87h63.789v115.87zm833 31.305h-649.94v44.277q1.183-.03 2.371-.031c49.758 0 90.707 39.957 90.707 89.906 0 4.836-.387 9.574-1.125 14.195h270.08a90 90 0 0 1-1.125-14.195c0-49.941 40.984-89.906 90.73-89.906 49.723 0 90.73 39.984 90.73 89.906 0 4.836-.387 9.574-1.125 14.195h83.777c13.77 0 24.984-11.117 24.984-24.676v-123.68h-.062z"/><path d="M475.03 650.82H785.3v56.996H475.03zM454.05 834.45c0-41.844-34.289-75.844-76.645-75.844-42.379 0-76.645 34-76.645 75.844 0 41.906 34.266 75.867 76.645 75.867 42.355-.008 76.645-33.969 76.645-75.867m-39.336 0c0-20.359-16.73-36.941-37.316-36.941-20.582 0-37.316 16.594-37.316 36.941 0 20.457 16.707 36.926 37.316 36.926 20.605 0 37.316-16.477 37.316-36.926M903.34 834.45c0-41.844-34.375-75.844-76.668-75.844-42.332 0-76.668 34-76.668 75.844 0 41.906 34.328 75.867 76.668 75.867 42.301-.008 76.668-33.969 76.668-75.867m-39.305 0c0-20.359-16.734-36.941-37.34-36.941-20.66 0-37.34 16.594-37.34 36.941 0 20.457 16.691 36.926 37.34 36.926 20.582-.008 37.34-16.477 37.34-36.926M890.24 550.86v165.61h95.148V484.42z"/><path d="M599.95 663.38h-70.488v-61.184l70.488 2.613z"/></g></svg>