<svg xmlns="http://www.w3.org/2000/svg" width="1600" height="1600" viewBox="0 0 1200 1200"><path d="M1007.2 494.18c0 19.219-1.406 38.438-3.984 57.539.586-4.687 1.289-9.375 1.875-14.062-5.743 41.25-16.992 81.445-33.047 119.88a1356 1356 0 0 1 5.273-12.539c-14.18 33.516-31.875 65.508-52.852 95.156-20.742 29.297-39.375 59.531-53.906 92.344-16.172 36.445-29.414 73.828-37.383 112.97-7.383 36.445-11.484 73.828-11.602 111.09v50.156l52.734-52.734H496.73c-17.344 0-34.805-.352-52.266 0h-.703l52.734 52.734v-91.875c0-13.945-1.758-28.477-6.914-41.602-4.102-10.43-8.203-20.273-14.883-29.297-9.961-13.242-18.633-21.914-31.992-31.758-24.023-17.578-53.086-20.859-81.914-20.859h-33.984c-7.617 0-15.47.469-23.086-.352 4.687.586 9.375 1.29 14.062 1.875-4.688-.703-9.14-1.875-13.594-3.515a1356 1356 0 0 1 12.539 5.273c-4.219-1.875-8.203-4.101-11.836-6.914 3.515 2.695 7.148 5.508 10.664 8.203a53.3 53.3 0 0 1-9.61-9.61c2.696 3.516 5.508 7.15 8.203 10.665-2.812-3.75-5.039-7.617-6.914-11.836a1356 1356 0 0 0 5.274 12.539c-1.758-4.453-2.93-8.906-3.516-13.594.586 4.687 1.29 9.375 1.875 14.062-1.758-16.523-.351-33.867-.351-50.508v-94.335c0-28.477-24.141-52.734-52.734-52.734h-40.312c-13.711 0-28.125 1.289-41.836-.469 4.687.586 9.375 1.29 14.062 1.875-3.399-.586-6.68-1.406-9.961-2.695a1356 1356 0 0 1 12.539 5.273 45.2 45.2 0 0 1-9.727-5.742c3.516 2.695 7.149 5.508 10.664 8.203a48.2 48.2 0 0 1-6.914-6.914c2.695 3.516 5.508 7.148 8.203 10.664a48.3 48.3 0 0 1-5.625-9.492 1356 1356 0 0 0 5.274 12.539c-1.407-3.516-2.461-7.031-3.047-10.664.586 4.687 1.289 9.375 1.875 14.062-.47-3.75-.47-7.5 0-11.367-.586 4.687-1.29 9.375-1.875 14.062.586-3.516 1.406-6.68 2.695-9.961a1356 1356 0 0 1-5.273 12.539c4.218-9.727 9.96-18.867 15-28.125a13511 13511 0 0 0 30.82-56.72c16.758-30.702 33.516-61.405 50.273-92.226 10.078-18.516 18.28-38.906 21.797-59.766 2.46-14.531 3.632-28.594 3.984-43.242.234-9.492 1.055-19.102 2.344-28.477-.586 4.687-1.29 9.375-1.875 14.062 4.101-29.297 12.539-57.656 23.906-84.961a1356 1356 0 0 1-5.274 12.539c13.594-32.11 31.055-62.344 52.266-90-2.695 3.515-5.507 7.148-8.203 10.664 16.875-21.797 35.86-41.836 57.656-58.711-3.515 2.695-7.148 5.508-10.664 8.203 27.891-21.328 60.117-37.734 92.461-51.445a1356 1356 0 0 0-12.539 5.273c37.5-15.703 76.641-26.836 116.95-32.344-4.687.586-9.375 1.29-14.062 1.875 36.094-4.804 72.656-4.922 108.75-.234-4.687-.586-9.375-1.29-14.062-1.875 35.391 4.805 69.961 14.18 102.89 28.008a1356 1356 0 0 1-12.539-5.273c31.641 13.477 61.406 30.938 88.711 51.797-3.515-2.696-7.148-5.508-10.664-8.203 27.422 21.21 52.031 45.82 73.125 73.242-2.695-3.516-5.508-7.149-8.203-10.664 20.977 27.305 38.32 57.07 51.797 88.828a1356 1356 0 0 0-5.273-12.54c13.594 32.462 22.852 66.563 27.656 101.37-.586-4.687-1.29-9.374-1.875-14.061 2.226 18.516 3.398 36.562 3.515 54.727 0 13.594 5.86 27.656 15.47 37.266 9.14 9.14 24.14 16.055 37.265 15.469 13.594-.586 27.773-5.04 37.266-15.47 9.493-10.311 15.47-22.968 15.47-37.265-.118-85.781-24.61-172.03-71.25-244.1-45.118-69.727-109.1-128.32-184.34-163.95-38.79-18.398-79.454-32.344-121.88-39.023-23.556-3.633-47.228-6.329-71.134-6.68-25.078-.352-49.922 2.11-74.766 5.625-48.047 6.562-93.633 21.562-137.93 41.25-44.648 19.805-87.07 45.352-121.88 79.922-34.336 34.219-63.164 75.586-83.906 119.41-22.148 46.992-37.5 96.21-40.312 148.36-.586 11.016-.351 22.03-1.757 33.047.585-4.688 1.289-9.375 1.875-14.062-1.875 12.89-5.391 25.43-10.43 37.5a1356 1356 0 0 1 5.273-12.54c-7.5 17.462-17.695 33.985-26.72 50.626l-44.647 81.914c-9.61 17.695-19.453 35.39-28.945 53.203-4.453 8.203-8.438 17.109-10.312 26.25-4.57 22.969-1.64 44.297 8.672 65.39 7.5 15.47 21.68 29.767 36.68 37.97 14.766 8.086 30.234 11.953 46.992 12.188 25.195.351 50.39 0 75.586 0L204.8 753.742v110.74c0 19.805-1.524 41.25 5.273 60.117 10.664 29.18 30.703 51.797 59.414 63.984 15.352 6.445 31.29 8.555 47.812 8.555h37.97c9.609 0 19.452-.586 28.944.703-4.687-.586-9.375-1.29-14.062-1.875 5.742.937 11.25 2.343 16.758 4.57a1356 1356 0 0 1-12.539-5.273c5.742 2.46 11.016 5.507 15.938 9.375-3.515-2.696-7.148-5.508-10.664-8.204 4.453 3.516 8.32 7.5 11.953 11.953-2.695-3.515-5.508-7.148-8.203-10.664 3.75 4.922 6.914 10.195 9.375 15.938a1356 1356 0 0 0-5.273-12.539c2.226 5.391 3.75 10.898 4.57 16.758-.586-4.687-1.29-9.375-1.875-14.062 2.227 17.344.703 35.625.703 53.086v50.391c0 28.477 24.141 52.734 52.734 52.734h377.578c17.461 0 34.805.235 52.266 0h.703c28.477 0 52.734-24.14 52.734-52.734 0-38.32-.703-76.64 4.22-114.73-.587 4.688-1.29 9.375-1.876 14.062 5.742-42.89 17.227-84.727 33.984-124.69a1356 1356 0 0 1-5.273 12.54c10.43-24.493 22.734-48.165 37.03-70.782 14.415-22.734 30.939-43.945 44.415-67.148 28.828-49.57 50.742-104.53 62.227-160.78 6.797-33.164 10.78-67.266 10.898-101.13 0-13.477-5.86-27.773-15.47-37.266-9.14-9.14-24.14-16.055-37.265-15.469-28.594.82-52.617 22.734-52.617 52.266z"/><path d="M716.02 645.47c.117-3.984.469-7.969.938-11.953-.586 4.688-1.29 9.375-1.875 14.062 1.406-10.078 4.101-19.805 7.968-29.18a1356 1356 0 0 1-5.273 12.539c3.75-8.672 8.555-16.875 14.297-24.492-2.695 3.516-5.508 7.148-8.203 10.664a117.2 117.2 0 0 1 20.156-20.156c-3.516 2.695-7.149 5.508-10.664 8.203 8.672-6.562 18.398-11.133 27.539-16.875 11.719-7.383 22.969-16.172 32.812-25.78 20.742-20.392 35.156-45 45.234-72.07 18.28-49.57 11.25-108.75-15.47-153.98-25.311-42.892-69.14-76.29-118.01-86.954-50.272-10.898-105.59-2.46-147.66 28.242-23.671 17.344-44.413 38.438-58.124 64.688-14.18 27.305-21.914 57.07-22.148 87.891-.117 13.477 5.976 27.773 15.469 37.266 9.14 9.14 24.14 16.055 37.266 15.47 28.71-1.29 52.5-23.204 52.734-52.735 0-5.976.469-11.953 1.172-17.93-.586 4.688-1.29 9.375-1.875 14.062a139.4 139.4 0 0 1 9.14-33.516 1356 1356 0 0 1-5.273 12.54c4.453-10.43 10.195-20.274 16.992-29.298-2.695 3.516-5.508 7.149-8.203 10.664a139.8 139.8 0 0 1 24.96-24.96c-3.515 2.694-7.148 5.507-10.663 8.202 9.023-6.914 18.867-12.539 29.297-16.992a1356 1356 0 0 0-12.54 5.274 138 138 0 0 1 33.517-9.141c-4.688.586-9.375 1.29-14.062 1.875a141.3 141.3 0 0 1 35.859 0c-4.688-.586-9.375-1.29-14.062-1.875a139.4 139.4 0 0 1 33.516 9.14 1356 1356 0 0 1-12.54-5.273c10.43 4.453 20.274 10.195 29.298 16.992-3.516-2.695-7.149-5.508-10.664-8.203a139.8 139.8 0 0 1 24.96 24.961c-2.694-3.515-5.507-7.148-8.202-10.664 6.914 9.024 12.539 18.867 16.992 29.297a1356 1356 0 0 0-5.274-12.539 138 138 0 0 1 9.14 33.516c-.585-4.687-1.288-9.375-1.874-14.062 1.523 11.836 1.523 23.672 0 35.625.586-4.687 1.289-9.375 1.875-14.062A137.2 137.2 0 0 1 735 468.641a1356 1356 0 0 1 5.273-12.539c-4.453 10.312-10.195 19.922-16.992 28.828 2.695-3.515 5.508-7.148 8.203-10.664-7.265 9.258-15.469 17.461-24.727 24.61 3.516-2.696 7.149-5.509 10.664-8.204-9.96 7.5-21.328 12.539-31.64 19.57-15.82 10.781-28.829 22.734-40.43 37.734-21.798 28.242-33.399 61.875-34.689 97.617-.937 27.656 24.961 54.023 52.734 52.734 29.297-1.406 51.68-23.32 52.617-52.852zM663.28 829.45c13.477 0 27.773-5.86 37.266-15.469 9.14-9.14 16.055-24.141 15.469-37.266-.586-13.594-5.04-27.773-15.469-37.266-10.312-9.492-22.969-15.469-37.266-15.469-13.477 0-27.773 5.86-37.266 15.469-9.14 9.14-16.055 24.141-15.469 37.266.586 13.594 5.04 27.773 15.469 37.266 10.312 9.492 22.969 15.469 37.266 15.469"/></svg>