<?xml version="1.0" encoding="UTF-8"?>
<svg width="1200pt" height="1200pt" version="1.1" viewBox="0 0 1200 1200" xmlns="http://www.w3.org/2000/svg">
 <g>
  <path d="m1007.2 494.18c0 19.219-1.4062 38.438-3.9844 57.539 0.58594-4.6875 1.2891-9.375 1.875-14.062-5.7422 41.25-16.992 81.445-33.047 119.88 1.7578-4.2188 3.5156-8.4375 5.2734-12.539-14.18 33.516-31.875 65.508-52.852 95.156-20.742 29.297-39.375 59.531-53.906 92.344-16.172 36.445-29.414 73.828-37.383 112.97-7.3828 36.445-11.484 73.828-11.602 111.09v50.156c17.578-17.578 35.156-35.156 52.734-52.734h-43.008-102.66-124.1-107.81c-17.344 0-34.805-0.35156-52.266 0h-0.70313c17.578 17.578 35.156 35.156 52.734 52.734v-91.875c0-13.945-1.7578-28.477-6.9141-41.602-4.1016-10.43-8.2031-20.273-14.883-29.297-9.9609-13.242-18.633-21.914-31.992-31.758-24.023-17.578-53.086-20.859-81.914-20.859h-33.984c-7.6172 0-15.469 0.46875-23.086-0.35156 4.6875 0.58594 9.375 1.2891 14.062 1.875-4.6875-0.70312-9.1406-1.875-13.594-3.5156 4.2188 1.7578 8.4375 3.5156 12.539 5.2734-4.2188-1.875-8.2031-4.1016-11.836-6.9141 3.5156 2.6953 7.1484 5.5078 10.664 8.2031-3.6328-2.8125-6.7969-5.9766-9.6094-9.6094 2.6953 3.5156 5.5078 7.1484 8.2031 10.664-2.8125-3.75-5.0391-7.6172-6.9141-11.836 1.7578 4.2188 3.5156 8.4375 5.2734 12.539-1.7578-4.4531-2.9297-8.9062-3.5156-13.594 0.58594 4.6875 1.2891 9.375 1.875 14.062-1.7578-16.523-0.35156-33.867-0.35156-50.508v-76.523-17.812c0-28.477-24.141-52.734-52.734-52.734h-40.312c-13.711 0-28.125 1.2891-41.836-0.46875 4.6875 0.58594 9.375 1.2891 14.062 1.875-3.3984-0.58594-6.6797-1.4062-9.9609-2.6953 4.2188 1.7578 8.4375 3.5156 12.539 5.2734-3.5156-1.5234-6.6797-3.3984-9.7266-5.7422 3.5156 2.6953 7.1484 5.5078 10.664 8.2031-2.5781-2.1094-4.8047-4.3359-6.9141-6.9141 2.6953 3.5156 5.5078 7.1484 8.2031 10.664-2.2266-2.9297-4.1016-6.0938-5.625-9.4922 1.7578 4.2188 3.5156 8.4375 5.2734 12.539-1.4062-3.5156-2.4609-7.0312-3.0469-10.664 0.58594 4.6875 1.2891 9.375 1.875 14.062-0.46875-3.75-0.46875-7.5 0-11.367-0.58594 4.6875-1.2891 9.375-1.875 14.062 0.58594-3.5156 1.4062-6.6797 2.6953-9.9609-1.7578 4.2188-3.5156 8.4375-5.2734 12.539 4.2188-9.7266 9.9609-18.867 15-28.125 10.312-18.867 20.625-37.852 30.82-56.719 16.758-30.703 33.516-61.406 50.273-92.227 10.078-18.516 18.281-38.906 21.797-59.766 2.4609-14.531 3.6328-28.594 3.9844-43.242 0.23437-9.4922 1.0547-19.102 2.3438-28.477-0.58594 4.6875-1.2891 9.375-1.875 14.062 4.1016-29.297 12.539-57.656 23.906-84.961-1.7578 4.2188-3.5156 8.4375-5.2734 12.539 13.594-32.109 31.055-62.344 52.266-90-2.6953 3.5156-5.5078 7.1484-8.2031 10.664 16.875-21.797 35.859-41.836 57.656-58.711-3.5156 2.6953-7.1484 5.5078-10.664 8.2031 27.891-21.328 60.117-37.734 92.461-51.445-4.2188 1.7578-8.4375 3.5156-12.539 5.2734 37.5-15.703 76.641-26.836 116.95-32.344-4.6875 0.58594-9.375 1.2891-14.062 1.875 36.094-4.8047 72.656-4.9219 108.75-0.23438-4.6875-0.58594-9.375-1.2891-14.062-1.875 35.391 4.8047 69.961 14.18 102.89 28.008-4.2188-1.7578-8.4375-3.5156-12.539-5.2734 31.641 13.477 61.406 30.938 88.711 51.797-3.5156-2.6953-7.1484-5.5078-10.664-8.2031 27.422 21.211 52.031 45.82 73.125 73.242-2.6953-3.5156-5.5078-7.1484-8.2031-10.664 20.977 27.305 38.32 57.07 51.797 88.828-1.7578-4.2188-3.5156-8.4375-5.2734-12.539 13.594 32.461 22.852 66.562 27.656 101.37-0.58594-4.6875-1.2891-9.375-1.875-14.062 2.2266 18.516 3.3984 36.562 3.5156 54.727 0 13.594 5.8594 27.656 15.469 37.266 9.1406 9.1406 24.141 16.055 37.266 15.469 13.594-0.58594 27.773-5.0391 37.266-15.469 9.4922-10.312 15.469-22.969 15.469-37.266-0.11719-85.781-24.609-172.03-71.25-244.1-45.117-69.727-109.1-128.32-184.34-163.95-38.789-18.398-79.453-32.344-121.88-39.023-23.555-3.6328-47.227-6.3281-71.133-6.6797-25.078-0.35156-49.922 2.1094-74.766 5.625-48.047 6.5625-93.633 21.562-137.93 41.25-44.648 19.805-87.07 45.352-121.88 79.922-34.336 34.219-63.164 75.586-83.906 119.41-22.148 46.992-37.5 96.211-40.312 148.36-0.58594 11.016-0.35156 22.031-1.7578 33.047 0.58594-4.6875 1.2891-9.375 1.875-14.062-1.875 12.891-5.3906 25.43-10.43 37.5 1.7578-4.2188 3.5156-8.4375 5.2734-12.539-7.5 17.461-17.695 33.984-26.719 50.625-14.883 27.305-29.766 54.609-44.648 81.914-9.6094 17.695-19.453 35.391-28.945 53.203-4.4531 8.2031-8.4375 17.109-10.312 26.25-4.5703 22.969-1.6406 44.297 8.6719 65.391 7.5 15.469 21.68 29.766 36.68 37.969 14.766 8.0859 30.234 11.953 46.992 12.188 25.195 0.35156 50.391 0 75.586 0l-52.734-52.734v110.74c0 19.805-1.5234 41.25 5.2734 60.117 10.664 29.18 30.703 51.797 59.414 63.984 15.352 6.4453 31.289 8.5547 47.812 8.5547h37.969c9.6094 0 19.453-0.58594 28.945 0.70312-4.6875-0.58594-9.375-1.2891-14.062-1.875 5.7422 0.9375 11.25 2.3438 16.758 4.5703-4.2188-1.7578-8.4375-3.5156-12.539-5.2734 5.7422 2.4609 11.016 5.5078 15.938 9.375-3.5156-2.6953-7.1484-5.5078-10.664-8.2031 4.4531 3.5156 8.3203 7.5 11.953 11.953-2.6953-3.5156-5.5078-7.1484-8.2031-10.664 3.75 4.9219 6.9141 10.195 9.375 15.938-1.7578-4.2188-3.5156-8.4375-5.2734-12.539 2.2266 5.3906 3.75 10.898 4.5703 16.758-0.58594-4.6875-1.2891-9.375-1.875-14.062 2.2266 17.344 0.70312 35.625 0.70312 53.086v50.391c0 28.477 24.141 52.734 52.734 52.734h43.008 102.66 124.1 107.81c17.461 0 34.805 0.23438 52.266 0h0.70312c28.477 0 52.734-24.141 52.734-52.734 0-38.32-0.70312-76.641 4.2188-114.73-0.58594 4.6875-1.2891 9.375-1.875 14.062 5.7422-42.891 17.227-84.727 33.984-124.69-1.7578 4.2188-3.5156 8.4375-5.2734 12.539 10.43-24.492 22.734-48.164 37.031-70.781 14.414-22.734 30.938-43.945 44.414-67.148 28.828-49.57 50.742-104.53 62.227-160.78 6.7969-33.164 10.781-67.266 10.898-101.13 0-13.477-5.8594-27.773-15.469-37.266-9.1406-9.1406-24.141-16.055-37.266-15.469-28.594 0.82031-52.617 22.734-52.617 52.266z"/>
  <path d="m716.02 645.47c0.11719-3.9844 0.46875-7.9688 0.9375-11.953-0.58594 4.6875-1.2891 9.375-1.875 14.062 1.4062-10.078 4.1016-19.805 7.9688-29.18-1.7578 4.2188-3.5156 8.4375-5.2734 12.539 3.75-8.6719 8.5547-16.875 14.297-24.492-2.6953 3.5156-5.5078 7.1484-8.2031 10.664 5.8594-7.5 12.656-14.297 20.156-20.156-3.5156 2.6953-7.1484 5.5078-10.664 8.2031 8.6719-6.5625 18.398-11.133 27.539-16.875 11.719-7.3828 22.969-16.172 32.812-25.781 20.742-20.391 35.156-45 45.234-72.07 18.281-49.57 11.25-108.75-15.469-153.98-25.312-42.891-69.141-76.289-118.01-86.953-50.273-10.898-105.59-2.4609-147.66 28.242-23.672 17.344-44.414 38.438-58.125 64.688-14.18 27.305-21.914 57.07-22.148 87.891-0.11719 13.477 5.9766 27.773 15.469 37.266 9.1406 9.1406 24.141 16.055 37.266 15.469 28.711-1.2891 52.5-23.203 52.734-52.734 0-5.9766 0.46875-11.953 1.1719-17.93-0.58594 4.6875-1.2891 9.375-1.875 14.062 1.6406-11.484 4.6875-22.734 9.1406-33.516-1.7578 4.2188-3.5156 8.4375-5.2734 12.539 4.4531-10.43 10.195-20.273 16.992-29.297-2.6953 3.5156-5.5078 7.1484-8.2031 10.664 7.2656-9.375 15.586-17.695 24.961-24.961-3.5156 2.6953-7.1484 5.5078-10.664 8.2031 9.0234-6.9141 18.867-12.539 29.297-16.992-4.2188 1.7578-8.4375 3.5156-12.539 5.2734 10.781-4.4531 21.914-7.5 33.516-9.1406-4.6875 0.58594-9.375 1.2891-14.062 1.875 11.953-1.5234 23.906-1.5234 35.859 0-4.6875-0.58594-9.375-1.2891-14.062-1.875 11.484 1.6406 22.734 4.6875 33.516 9.1406-4.2188-1.7578-8.4375-3.5156-12.539-5.2734 10.43 4.4531 20.273 10.195 29.297 16.992-3.5156-2.6953-7.1484-5.5078-10.664-8.2031 9.375 7.2656 17.695 15.586 24.961 24.961-2.6953-3.5156-5.5078-7.1484-8.2031-10.664 6.9141 9.0234 12.539 18.867 16.992 29.297-1.7578-4.2188-3.5156-8.4375-5.2734-12.539 4.4531 10.781 7.5 21.914 9.1406 33.516-0.58594-4.6875-1.2891-9.375-1.875-14.062 1.5234 11.836 1.5234 23.672 0 35.625 0.58594-4.6875 1.2891-9.375 1.875-14.062-1.6406 11.953-4.8047 23.555-9.4922 34.688 1.7578-4.2188 3.5156-8.4375 5.2734-12.539-4.4531 10.312-10.195 19.922-16.992 28.828 2.6953-3.5156 5.5078-7.1484 8.2031-10.664-7.2656 9.2578-15.469 17.461-24.727 24.609 3.5156-2.6953 7.1484-5.5078 10.664-8.2031-9.9609 7.5-21.328 12.539-31.641 19.57-15.82 10.781-28.828 22.734-40.43 37.734-21.797 28.242-33.398 61.875-34.688 97.617-0.9375 27.656 24.961 54.023 52.734 52.734 29.297-1.4062 51.68-23.32 52.617-52.852z"/>
  <path d="m663.28 829.45c13.477 0 27.773-5.8594 37.266-15.469 9.1406-9.1406 16.055-24.141 15.469-37.266-0.58594-13.594-5.0391-27.773-15.469-37.266-10.312-9.4922-22.969-15.469-37.266-15.469-13.477 0-27.773 5.8594-37.266 15.469-9.1406 9.1406-16.055 24.141-15.469 37.266 0.58594 13.594 5.0391 27.773 15.469 37.266 10.312 9.4922 22.969 15.469 37.266 15.469z"/>
 </g>
</svg>
