<svg xmlns="http://www.w3.org/2000/svg" width="1600" height="1600" viewBox="0 0 1200 1200"><path d="M1110 990H900V180c0-16.801-13.199-30-30-30H330c-16.801 0-30 13.199-30 30v810H90c-38.398 0-38.398 60 0 60h246l390-74.398c14.398-2.398 24-15.602 24-30v-645.6c0-14.398-9.602-26.398-22.801-28.801l-262.8-61.199h375.6v810c0 16.801 13.199 30 30 30h240c38.398 0 38.398-60 0-60zM690 324v596.4l-330 63.602v-736.8z"/><path d="M660 660c0 16.57-13.43 30-30 30s-30-13.43-30-30 13.43-30 30-30 30 13.43 30 30"/></svg>