<?xml version="1.0" encoding="UTF-8"?>
<svg width="1200pt" height="1200pt" version="1.1" viewBox="0 0 1200 1200" xmlns="http://www.w3.org/2000/svg">
 <g>
  <path d="m1110 990h-210v-810c0-16.801-13.199-30-30-30h-540c-16.801 0-30 13.199-30 30v810h-210c-38.398 0-38.398 60 0 60h240 6l390-74.398c14.398-2.3984 24-15.602 24-30v-645.6c0-14.398-9.6016-26.398-22.801-28.801l-262.8-61.199h375.6v810c0 16.801 13.199 30 30 30h240c38.398 0 38.398-60 0-60zm-420-666v596.4l-330 63.602v-736.8z"/>
  <path d="m660 660c0 16.57-13.43 30-30 30s-30-13.43-30-30 13.43-30 30-30 30 13.43 30 30"/>
 </g>
</svg>
