<?xml version="1.0" encoding="UTF-8"?>
<svg width="1200pt" height="1200pt" version="1.1" viewBox="0 0 1200 1200" xmlns="http://www.w3.org/2000/svg">
 <g>
  <path d="m198.84 377.76c0 13.586-5.8555 24.598-13.078 24.598-7.2266 0-13.082-11.012-13.082-24.598 0-13.59 5.8555-24.602 13.082-24.602 7.2227 0 13.078 11.012 13.078 24.602"/>
  <path d="m367.08 377.76c0 13.586-5.8555 24.598-13.078 24.598s-13.078-11.012-13.078-24.598c0-13.59 5.8555-24.602 13.078-24.602s13.078 11.012 13.078 24.602"/>
  <path d="m1144.6 653.04c-0.60156-15.359 0-33.121 0-52.078 0.96094-63.602 2.1602-142.68-28.801-210.48-39.117-85.68-150.36-131.28-290.4-119.16-113.16 9.8398-169.32-42.359-175.8-48.84-12.598-22.145-27.219-43.074-43.68-62.52-5.7656-4.2734-12.883-6.3203-20.039-5.7617-39 0-136.32 38.039-158.04 46.68-32.191-9.9453-65.672-15.078-99.359-15.238-28.945-0.27734-57.695 4.7227-84.84 14.758-20.039-13.922-66.48-42.961-90.719-30.719-15.121 7.5586-48 54.602-67.922 120-15.062 47.609-20.168 97.809-15.008 147.48 5.1602 49.672 20.48 97.746 45.008 141.24 0.78906 42.57-1.2578 85.145-6.1211 127.44-4.0781 39.719-6.9609 68.398 3 93.961 20.641 52.801 70.922 192 73.441 211.44 1.9219 15 4.1992 33.719 30 33.719 4.6523-0.074219 9.3008-0.39453 13.918-0.96094 10.371-1.0859 19.645-6.9414 25.082-15.84 12.961-20.16 9-53.039 1.6797-75l-2.1602-6.3594c-13.801-39.242-49.801-142.8-3.1211-296.52l6-20.52c25.055-5.1367 49.281-13.699 72-25.441l32.52-19.441c6.1094 16.434 16.715 30.82 30.602 41.52v405.6c0 3.1836 1.2617 6.2344 3.5156 8.4844 2.25 2.25 5.3008 3.5156 8.4844 3.5156h116.64c3.1797 0 6.2344-1.2656 8.4844-3.5156s3.5156-5.3008 3.5156-8.4844v-262.2c6.7422 2.1172 13.59 3.8828 20.52 5.2773v256.92c0 3.1836 1.2617 6.2344 3.5156 8.4844 2.25 2.25 5.3008 3.5156 8.4844 3.5156h136.2c3.1836 0 6.2344-1.2656 8.4844-3.5156s3.5156-5.3008 3.5156-8.4844v-246.84h43.559v246.84c0 3.1836 1.2656 6.2344 3.5156 8.4844s5.3047 3.5156 8.4844 3.5156h116.16c3.1836 0 6.2344-1.2656 8.4883-3.5156 2.25-2.25 3.5117-5.3008 3.5117-8.4844v-246.84h28.922v246.84c0 3.1836 1.2617 6.2344 3.5156 8.4844 2.25 2.25 5.3008 3.5156 8.4844 3.5156h127.92c3.1836 0 6.2344-1.2656 8.4883-3.5156 2.25-2.25 3.5117-5.3008 3.5117-8.4844v-158.88c0.38281 2.8125 1.0273 5.5859 1.9219 8.2773 9.7188 28.68 45.121 41.039 49.078 42.359v0.003907c3.7305 1.2617 7.8398 0.61328 11-1.7344s4.9688-6.0938 4.8398-10.027c0-1.3203 2.7617-192.6 0-258.96zm-980.88-462c6.7188-3.3594 30.48 6.3594 54.719 21.48-72 44.398-112.8 158.4-106.44 301.32-59.156-165.84 32.043-311.16 51.723-322.8zm214.8 372c-1.1562-3.4375-3.8086-6.168-7.2109-7.4258-3.4023-1.2617-7.1914-0.91016-10.309 0.94531l-45 27c-22.594 11.023-46.508 19.09-71.16 24-4.3633 0.89062-7.875 4.125-9.1211 8.4023l-7.6797 27.48c-48 160.56-10.68 270 3.4805 311.16l2.0391 6.1211c7.0781 21.359 7.4414 44.16 0.83984 54.48v-0.003906c-1.5586 2.7812-4.3867 4.6211-7.5586 4.9219-4.8633 0.53516-9.75 0.77344-14.641 0.71875-1.3281-3.8828-2.1719-7.9102-2.5195-12-3.2383-25.801-60-180-74.879-217.2-7.9219-20.16-5.3984-45.121-1.4414-82.801 5.0938-44.367 7.1406-89.031 6.1211-133.68v-0.71875c0-13.199-0.96094-26.879-2.0391-41.641-11.16-151.8 32.879-275.4 109.56-307.56v-0.003907c26.086-10.434 53.988-15.574 82.078-15.117 32.598 0.16406 64.98 5.3438 96 15.359 2.7812 1.0742 5.8594 1.0742 8.6406 0 31.801-12.961 121.2-46.559 153.12-46.559h4.5586c13.559 12 78.719 121.92 117.48 189.6v-0.003907c6.4531 10.824 8.4766 23.723 5.6406 36-4.8008 22.922-24.719 45.961-57.84 66.84-40.199 25.199-78.48 47.039-109.32 64.559-55.32 30.363-79.32 44.641-87.48 57.121-8.7031 11.289-21.785 18.355-36 19.441-24-0.48047-37.918-26.641-45.359-48.48zm129.72 439.32c-4.043-2.0898-8.5273-3.1992-13.078-3.2383-6.2852 0.019531-12.395 2.0586-17.43 5.8203-5.0352 3.7578-8.7305 9.0391-10.531 15.059-2.0625-6.9336-6.625-12.852-12.805-16.609-6.1797-3.7578-13.535-5.082-20.637-3.7227-7.1016 1.3633-13.445 5.3164-17.797 11.094v-332.76c21.441 36.625 53.848 65.586 92.637 82.801zm364.68 5.6406c-4.7266-5.082-11.109-8.3164-18.004-9.1133s-13.848 0.89062-19.609 4.7617c-5.7617 3.8672-9.957 9.668-11.824 16.352-2.5234-8.5312-8.8164-15.434-17.078-18.734s-17.578-2.6328-25.285 1.8125v-217.92h92.16zm222.6-187.56-6.7188 13.441v-0.003906c-5.7109 7.9883-9.4883 17.188-11.043 26.883v-85.562c2.3984-2.6406 4.5586-5.3984 6.7188-8.1602h0.003906c4.0547-5.5547 7.7422-11.367 11.039-17.398zm25.32 73.078c-8.1562-4.3711-14.617-11.34-18.359-19.801-2.293-9.5 0.16797-19.52 6.5977-26.879l0.83984-1.4414 8.3984-16.68h0.003906c0.85547-1.6719 1.3086-3.5195 1.3203-5.3984v-136.44c0.79297-6.625-3.9336-12.645-10.562-13.438-6.625-0.79688-12.645 3.9297-13.438 10.559-6.3984 24.449-16.777 47.68-30.723 68.762-2.4062 3.2695-5.0508 6.3594-7.918 9.2383-2.2461 2.2656-3.5 5.332-3.4805 8.5195v241.44c-4.1875-6.1094-10.535-10.402-17.762-12.02-7.2305-1.6172-14.801-0.43359-21.191 3.3125-6.3906 3.7422-11.125 9.7695-13.246 16.867-2.0625-6.9844-6.6602-12.945-12.895-16.711-6.2305-3.7656-13.648-5.0625-20.789-3.6367-7.1406 1.4297-13.488 5.4766-17.797 11.348v-237.96c0-3.1836-1.2656-6.2344-3.5156-8.4844s-5.3008-3.5156-8.4844-3.5156h-236.64c-6.6289 0-12 5.3711-12 12v243.84c-3.1758-7.4141-9.2734-13.191-16.852-15.965-7.5742-2.7734-15.961-2.2969-23.172 1.3164-7.2148 3.6094-12.621 10.039-14.938 17.77-2.3516-8.1602-8.1406-14.891-15.859-18.434-7.7188-3.5391-16.598-3.5391-24.316 0-7.7188 3.543-13.512 10.273-15.863 18.434h-1.0781l-0.003906-255.24c0.023437-6.2695-4.7891-11.496-11.039-12-13.711-1.5586-27.148-4.9492-39.961-10.078l-1.9219-0.83984h0.003906c-23.527-9.4727-44.785-23.809-62.383-42.066-17.598-18.262-31.141-40.035-39.738-63.895h1.3203c22.531-0.82031 43.426-11.977 56.641-30.238 4.9219-7.9219 42.121-29.039 78-49.441 30.961-17.641 69.602-39.602 110.28-65.16s62.762-52.801 68.762-83.039h-0.003907c3.7656-18.25 0.46484-37.25-9.2383-53.16-7.4414-12.961-27.121-47.281-48.84-84 46.496 21.656 98.074 30.043 149.04 24.238 129.6-11.281 231.72 29.039 266.4 105.12 28.68 63 27.602 139.08 26.641 200.16v53.398c1.8008 54.121 0.35938 189.72-0.23828 239.64z"/>
 </g>
</svg>
