<svg xmlns="http://www.w3.org/2000/svg" width="1600" height="1600" viewBox="0 0 1200 1200"><path d="M198.84 377.76c0 13.586-5.855 24.598-13.078 24.598-7.227 0-13.082-11.012-13.082-24.598 0-13.59 5.856-24.602 13.082-24.602 7.223 0 13.078 11.012 13.078 24.602M367.08 377.76c0 13.586-5.855 24.598-13.078 24.598s-13.078-11.012-13.078-24.598c0-13.59 5.856-24.602 13.078-24.602s13.078 11.012 13.078 24.602"/><path d="M1144.6 653.04c-.602-15.359 0-33.121 0-52.078.96-63.602 2.16-142.68-28.801-210.48-39.117-85.68-150.36-131.28-290.4-119.16-113.16 9.84-169.32-42.359-175.8-48.84a412.3 412.3 0 0 0-43.68-62.52 29.77 29.77 0 0 0-20.039-5.762c-39 0-136.32 38.04-158.04 46.68a342.1 342.1 0 0 0-99.359-15.238 238.1 238.1 0 0 0-84.84 14.758c-20.039-13.922-66.48-42.96-90.719-30.719-15.121 7.559-48 54.602-67.922 120a364.18 364.18 0 0 0 30 288.72 960 960 0 0 1-6.121 127.44c-4.078 39.72-6.961 68.398 3 93.961 20.64 52.801 70.922 192 73.44 211.44 1.923 15 4.2 33.72 30 33.72 4.653-.075 9.302-.395 13.919-.962a33.48 33.48 0 0 0 25.082-15.84c12.96-20.16 9-53.039 1.68-75l-2.16-6.359c-13.802-39.242-49.802-142.8-3.122-296.52l6-20.52a278.8 278.8 0 0 0 72-25.441l32.52-19.441a93.6 93.6 0 0 0 30.602 41.52v405.6c0 3.184 1.262 6.234 3.516 8.484 2.25 2.25 5.3 3.516 8.484 3.516h116.64a12.005 12.005 0 0 0 12-12v-262.2a201 201 0 0 0 20.52 5.277v256.92c0 3.184 1.262 6.235 3.516 8.485 2.25 2.25 5.3 3.515 8.484 3.515h136.2a11.998 11.998 0 0 0 12-12v-246.84h43.56v246.84a12.005 12.005 0 0 0 12 12h116.16a11.994 11.994 0 0 0 12-12v-246.84h28.921v246.84c0 3.184 1.262 6.235 3.516 8.485 2.25 2.25 5.3 3.515 8.484 3.515h127.92a11.994 11.994 0 0 0 12-12v-158.88a46 46 0 0 0 1.922 8.278c9.719 28.68 45.121 41.039 49.078 42.359v.003a12.002 12.002 0 0 0 15.84-11.761c0-1.32 2.762-192.6 0-258.96zm-980.88-462c6.719-3.36 30.48 6.36 54.719 21.48-72 44.398-112.8 158.4-106.44 301.32-59.156-165.84 32.043-311.16 51.723-322.8zm214.8 372a12 12 0 0 0-7.21-7.426 12 12 0 0 0-10.31.946l-45 27a292.7 292.7 0 0 1-71.16 24 12 12 0 0 0-9.121 8.402l-7.68 27.48c-48 160.56-10.68 270 3.48 311.16l2.04 6.12c7.078 21.36 7.441 44.16.84 54.48v-.003a9.72 9.72 0 0 1-7.559 4.922c-4.863.535-9.75.773-14.64.719a50.2 50.2 0 0 1-2.52-12c-3.239-25.801-60-180-74.88-217.2-7.921-20.16-5.398-45.121-1.44-82.801a976.6 976.6 0 0 0 6.12-133.68v-.72c0-13.198-.96-26.878-2.039-41.64-11.16-151.8 32.88-275.4 109.56-307.56v-.004a211.7 211.7 0 0 1 82.078-15.117 317.7 317.7 0 0 1 96 15.359 12 12 0 0 0 8.64 0c31.802-12.961 121.2-46.559 153.12-46.559h4.56c13.558 12 78.718 121.92 117.48 189.6v-.004a48.84 48.84 0 0 1 5.64 36c-4.8 22.922-24.719 45.961-57.84 66.84-40.199 25.2-78.48 47.04-109.32 64.56-55.32 30.362-79.32 44.64-87.48 57.12a50.3 50.3 0 0 1-36 19.441c-24-.48-37.918-26.64-45.359-48.48zm129.72 439.32a29.04 29.04 0 0 0-13.078-3.238 29.27 29.27 0 0 0-17.43 5.82 29.26 29.26 0 0 0-10.531 15.059 29.167 29.167 0 0 0-33.442-20.332 29.17 29.17 0 0 0-17.797 11.094v-332.76a202.55 202.55 0 0 0 92.637 82.801zm364.68 5.64a29.155 29.155 0 0 0-37.613-4.352 29.14 29.14 0 0 0-11.824 16.353 29.043 29.043 0 0 0-42.363-16.922V785.16h92.16zm222.6-187.56-6.719 13.442v-.004a63.5 63.5 0 0 0-11.043 26.883v-85.562c2.399-2.64 4.559-5.399 6.719-8.16h.004a158 158 0 0 0 11.039-17.399zm25.32 73.079a41.5 41.5 0 0 1-18.359-19.801 30.11 30.11 0 0 1 6.598-26.88l.84-1.44 8.398-16.68h.004a12 12 0 0 0 1.32-5.4v-136.44c.793-6.624-3.933-12.644-10.562-13.437-6.625-.797-12.645 3.93-13.438 10.559a230.3 230.3 0 0 1-30.723 68.762A82 82 0 0 1 1057 762a12 12 0 0 0-3.48 8.52v241.44a29.3 29.3 0 0 0-17.762-12.02 29.26 29.26 0 0 0-21.191 3.312 29.25 29.25 0 0 0-13.246 16.867 29.17 29.17 0 0 0-33.684-20.348 29.18 29.18 0 0 0-17.797 11.348V773.16c0-3.183-1.266-6.234-3.516-8.484s-5.3-3.516-8.484-3.516H701.2c-6.63 0-12 5.371-12 12V1017a29.28 29.28 0 0 0-54.962 3.122 29.17 29.17 0 0 0-15.86-18.434 29.17 29.17 0 0 0-24.315 0 29.17 29.17 0 0 0-15.863 18.434h-1.078l-.004-255.24c.023-6.27-4.79-11.496-11.04-12a154.5 154.5 0 0 1-39.96-10.078l-1.922-.84h.004a180.05 180.05 0 0 1-62.383-42.066 180 180 0 0 1-39.738-63.895h1.32a73.2 73.2 0 0 0 56.64-30.238c4.923-7.922 42.122-29.039 78-49.441 30.962-17.641 69.603-39.602 110.28-65.16s62.763-52.801 68.763-83.039h-.004a73.55 73.55 0 0 0-9.238-53.16c-7.442-12.961-27.121-47.281-48.84-84a278.4 278.4 0 0 0 149.04 24.238c129.6-11.281 231.72 29.039 266.4 105.12 28.68 63 27.602 139.08 26.64 200.16v53.398c1.802 54.121.36 189.72-.238 239.64z"/></svg>