<svg xmlns="http://www.w3.org/2000/svg" width="1600" height="1600" viewBox="0 0 1200 1200"><path d="M213.6 456C136.799 456 72 520.801 72 597.6c0 79.199 64.801 141.6 141.6 141.6 79.199 0 141.6-64.801 141.6-141.6-.004-76.801-62.402-141.6-141.6-141.6M986.4 456c-79.199 0-141.6 64.801-141.6 141.6 0 79.199 64.801 141.6 141.6 141.6 76.801 0 141.6-62.398 141.6-141.6 0-76.801-64.801-141.6-141.6-141.6M607.2 456c-79.199 0-141.6 64.801-141.6 141.6 0 79.199 64.801 141.6 141.6 141.6 79.199 0 141.6-64.801 141.6-141.6 0-76.801-62.402-141.6-141.6-141.6"/></svg>