<?xml version="1.0" encoding="UTF-8"?>
<svg width="1200pt" height="1200pt" version="1.1" viewBox="0 0 1200 1200" xmlns="http://www.w3.org/2000/svg">
 <path d="m599.29 28.336c315.94 0 572.38 255.02 572.38 570.96s-256.43 572.38-572.38 572.38c-315.94 0-570.96-256.43-570.96-572.38 0-315.94 255.02-570.96 570.96-570.96zm0 459.03 161.51-161.51c73.672-73.672 187.01 38.254 113.34 111.93l-161.51 161.51 161.51 161.51c73.672 73.672-39.668 187.01-113.34 113.34l-161.51-161.51-161.51 161.51c-73.672 73.672-185.6-39.668-111.93-113.34l161.51-161.51-161.51-161.51c-73.672-73.672 38.254-185.6 111.93-111.93z" fill-rule="evenodd"/>
</svg>
