<?xml version="1.0" encoding="UTF-8"?>
<svg width="1200pt" height="1200pt" version="1.1" viewBox="0 0 1200 1200" xmlns="http://www.w3.org/2000/svg">
 <g>
  <path d="m600.01 139.33c-84.582 0-153.39 68.801-153.39 153.37 0 13.848 1.9531 27.805 5.8086 41.504v0.03125c0.26172 1.3633 25.598 137.55 54.727 271.97 61.109 282.1 77.969 282.1 92.852 282.1 14.871 0 31.73 0 92.852-282.1 29.129-134.43 54.465-270.61 54.727-271.97v-0.03125c3.8398-13.672 5.793-27.629 5.793-41.504 0-84.57-68.801-153.37-153.37-153.37z"/>
  <path d="m600.01 912.43c-40.871 0-74.129 33.246-74.129 74.121 0 40.867 33.258 74.113 74.129 74.113 40.871 0 74.113-33.25 74.113-74.113 0-40.875-33.242-74.121-74.113-74.121z"/>
 </g>
</svg>
