<?xml version="1.0" encoding="UTF-8"?>
<svg width="1200pt" height="1200pt" version="1.1" viewBox="200 200 800 800" xmlns="http://www.w3.org/2000/svg">
 <path d="m887.93 511.96c-7.3516-27.262-18.434-52.074-33.254-74.438-29.84-46.301-65.863-69.352-108.07-69.148-42.211-0.20703-78.234 22.844-108.07 69.148-18.867 29.105-31.715 61.977-38.543 98.621-6.7422-36.641-19.59-69.516-38.539-98.621-29.578-46.301-65.602-69.352-108.07-69.148-42.469-0.20312-78.617 22.848-108.45 69.148-29.215 44.906-43.824 99.191-43.832 162.86 0.007812 63.16 14.617 117.19 43.832 162.1 29.828 46.301 65.977 69.352 108.45 69.148 42.465 0.20312 78.488-22.848 108.07-69.148 18.949-29.109 31.797-61.855 38.539-98.242 6.8281 36.387 19.676 69.133 38.543 98.242 29.832 46.305 65.855 69.355 108.07 69.148 42.203 0.19922 78.227-22.848 108.07-69.148 14.816-22.371 25.902-47.055 33.254-74.059 7.5625-26.914 11.34-56.262 11.336-88.043 0.003906-32.035-3.7734-61.508-11.336-88.418m-42.699-68.391c14.152 21.465 24.73 45.27 31.742 71.414 7.2969 25.992 10.949 54.457 10.957 85.395-0.007813 30.691-3.6602 59.027-10.957 85.02-7.0078 25.895-17.59 49.574-31.742 71.035-27.344 42.371-60.215 63.656-98.621 63.859-38.398-0.20703-71.27-21.496-98.621-63.859-27.48-42.484-41.586-92.992-42.32-151.52v-9.0703c0.73438-59.027 14.84-109.79 42.32-152.27 27.352-42.367 60.223-63.652 98.621-63.859 38.406 0.20312 71.277 21.488 98.621 63.859m-293.21 0c27.484 42.488 41.59 93.246 42.316 152.27v9.0703c-0.72656 58.527-14.832 109.03-42.316 151.52-27.102 42.371-59.977 63.656-98.621 63.859-38.648-0.20312-71.648-21.488-99-63.859-27.969-43.258-41.949-95.273-41.941-156.05-0.007813-61.277 13.973-113.55 41.941-156.81 27.352-42.371 60.352-63.656 99-63.859 38.645 0.20312 71.52 21.488 98.621 63.859m-33.633 100.13c-10.832-16.625-23.93-24.812-39.297-24.559-15.113-0.25391-28.211 7.9336-39.297 24.559-10.328 15.621-15.492 34.512-15.492 56.68 0 21.664 5.1641 40.18 15.492 55.547v-0.37891c11.086 17.129 24.184 25.566 39.297 25.316 15.367 0.25 28.465-8.1875 39.297-25.316v0.37891c10.328-15.367 15.492-33.883 15.492-55.547 0-22.168-5.1641-41.059-15.492-56.68m264.5-24.559c-15.113-0.25391-28.211 7.9336-39.297 24.559-10.074 15.621-15.113 34.512-15.113 56.68 0 21.664 5.0391 40.055 15.113 55.168 11.086 17.129 24.184 25.566 39.297 25.316 15.621 0.25 28.594-8.0625 38.922-24.938 10.328-15.367 15.492-33.883 15.492-55.547 0-22.168-5.1641-41.059-15.492-56.68-10.328-16.625-23.301-24.812-38.922-24.559z"/>
</svg>
