<svg xmlns="http://www.w3.org/2000/svg" width="1600" height="1600" viewBox="200 200 800 800"><path d="M887.93 511.96q-11.026-40.892-33.254-74.438-44.76-69.453-108.07-69.148-63.316-.31-108.07 69.148-28.3 43.656-38.543 98.621-10.114-54.962-38.539-98.621-44.367-69.453-108.07-69.148-63.702-.303-108.45 69.148-43.821 67.358-43.832 162.86c.008 63.16 14.617 117.19 43.832 162.1q44.741 69.453 108.45 69.148 63.697.303 108.07-69.148 28.425-43.663 38.539-98.242 10.242 54.58 38.543 98.242 44.748 69.458 108.07 69.148 63.305.301 108.07-69.148 22.225-33.555 33.254-74.059 11.343-40.371 11.336-88.043.007-48.053-11.336-88.418m-42.699-68.391c14.152 21.465 24.73 45.27 31.742 71.414q10.945 38.988 10.957 85.395c-.008 30.691-3.66 59.027-10.957 85.02q-10.513 38.843-31.742 71.035-41.014 63.556-98.621 63.859c-38.398-.207-71.27-21.496-98.621-63.859q-41.22-63.727-42.32-151.52v-9.07c.734-59.027 14.84-109.79 42.32-152.27 27.352-42.367 60.223-63.652 98.621-63.86q57.607.305 98.621 63.86m-293.21 0q41.226 63.733 42.316 152.27v9.07c-.727 58.527-14.832 109.03-42.316 151.52q-40.654 63.556-98.621 63.859-57.972-.303-99-63.859-41.953-64.886-41.941-156.05c-.008-61.277 13.973-113.55 41.941-156.81q41.028-63.555 99-63.859 57.968.303 98.621 63.859m-33.633 100.13q-16.247-24.938-39.297-24.559-22.669-.38-39.297 24.559-15.492 23.43-15.492 56.68 0 32.496 15.492 55.547v-.379q16.628 25.693 39.297 25.316 23.05.376 39.297-25.316v.379q15.492-23.05 15.492-55.547 0-33.25-15.492-56.68m264.5-24.559q-22.669-.38-39.297 24.559-15.112 23.43-15.113 56.68.002 32.497 15.113 55.168 16.628 25.692 39.297 25.316 23.43.375 38.922-24.938 15.492-23.05 15.492-55.547 0-33.25-15.492-56.68-15.491-24.938-38.922-24.559z"/></svg>