<svg xmlns="http://www.w3.org/2000/svg" width="1600" height="1600" viewBox="0 0 1200 1200"><path d="M113.94 743.9c29.746 0 53.953-24.203 53.953-53.953 0-29.746-24.203-53.941-53.953-53.941-29.746 0-53.93 24.191-53.93 53.941S84.201 743.9 113.94 743.9m0-73.078c10.559 0 19.129 8.578 19.129 19.129 0 10.559-8.566 19.141-19.129 19.141-10.547 0-19.152-8.578-19.152-19.141 0-10.551 8.602-19.129 19.152-19.129m972.11-34.812c-29.746 0-53.941 24.191-53.941 53.941 0 29.746 24.191 53.953 53.941 53.953 29.734 0 53.941-24.203 53.941-53.953s-24.215-53.941-53.941-53.941m0 73.082c-10.547 0-19.176-8.578-19.176-19.141 0-10.547 8.629-19.129 19.176-19.129 10.535 0 19.117 8.578 19.117 19.129 0 10.559-8.578 19.141-19.117 19.141m36.527 71.387h-96.238l-63.59-429.16 164.87-50.016c9.203-2.797 14.41-12.516 11.617-21.707-2.797-9.18-12.539-14.387-21.719-11.605l-179.23 54.359c-8.258 2.52-13.441 10.691-12.156 19.211l4.32 29.258h-38.71l-67.263-67.262a17.43 17.43 0 0 0-12.289-5.09l-275.53.004a17.42 17.42 0 0 0-12.312 5.09l-67.246 67.262h-110.43c-9.601 0-17.41 7.8-17.41 17.41 0 9.613 7.813 17.398 17.41 17.398h75.613l-86.207 86.207c-31.68 31.68-31.68 83.23 0 114.93 15.852 15.84 36.648 23.762 57.492 23.762 20.773 0 41.605-7.922 57.445-23.746l93.098-93.11h157.25l195.64 195.64c.024.036.059.06.086.099l16.105 16.078c15.84 15.875 15.84 41.688 0 57.55-15.863 15.864-41.71 15.876-57.562.012l-47.82-47.82-135.15-135.13c-6.793-6.78-17.785-6.78-24.59 0-6.793 6.793-6.793 17.82 0 24.625l135.11 135.1c15.863 15.863 15.863 41.688 0 57.551-15.875 15.863-41.688 15.863-57.562.012l-47.809-47.82-87.289-87.277c-6.793-6.805-17.809-6.805-24.613 0-6.793 6.793-6.793 17.809 0 24.602l87.301 87.277c15.828 15.875 15.828 41.699 0 57.574-15.887 15.852-41.723 15.852-57.574 0l-47.82-47.82-39.445-39.469c-6.793-6.793-17.832-6.793-24.625 0-6.793 6.781-6.793 17.809 0 24.602l39.457 39.469c15.863 15.887 15.863 41.688 0 57.562s-41.71 15.852-57.55 0l-201.35-201.35a17.4 17.4 0 0 0-12.29-5.09h-28.234l50.09-338.07c1.246-8.52-3.937-16.69-12.19-19.21l-179.21-54.36c-9.216-2.785-18.927 2.426-21.696 11.605-2.797 9.192 2.375 18.91 11.594 21.707l164.86 50.016-63.57 429.16H77.414c-9.601 0-17.387 7.79-17.387 17.398 0 9.613 7.79 17.398 17.387 17.398h111.25c8.64 0 15.95-6.324 17.22-14.844l12.757-85.992h26.184l196.22 196.23c14.746 14.711 34.066 22.094 53.387 22.094 19.344 0 38.676-7.379 53.387-22.094 10.598-10.598 17.305-23.617 20.281-37.273l2.93 2.942c14.734 14.71 34.043 22.078 53.375 22.078 19.344 0 38.688-7.38 53.398-22.078 10.598-10.621 17.316-23.605 20.293-37.273l2.914 2.93c14.699 14.698 34.055 22.065 53.375 22.065s38.664-7.367 53.387-22.066c10.598-10.609 17.305-23.617 20.27-37.273l2.941 2.914c14.723 14.723 34.055 22.078 53.387 22.078 19.31 0 38.676-7.355 53.375-22.078 25.262-25.246 28.79-64.078 10.691-93.203h32.93l12.758 85.992c1.247 8.52 8.579 14.844 17.195 14.844h111.25c9.637 0 17.41-7.789 17.41-17.398.004-9.605-7.761-17.395-17.398-17.395zm-206.06-100.84-165.95-165.98h25.957c4.621 0 9.023-1.824 12.301-5.113l42.48-42.492c6.781-6.793 6.781-17.81 0-24.59-6.793-6.817-17.797-6.817-24.602 0l-37.379 37.379h-56.508a17.35 17.35 0 0 0-10.246 0l-165.65.004c-4.633 0-9.07 1.836-12.324 5.09l-98.207 98.206c-18.121 18.11-47.594 18.086-65.699 0-18.121-18.12-18.121-47.578-.012-65.71l115.92-115.91v-.012l67.246-67.246h261.16l67.246 67.262a17.44 17.44 0 0 0 12.324 5.101h51.047l40.598 274.01-59.699-.008z"/></svg>