<?xml version="1.0" encoding="UTF-8"?>
<svg width="1200pt" height="1200pt" version="1.1" viewBox="0 0 1200 1200" xmlns="http://www.w3.org/2000/svg">
 <path d="m113.94 743.9c29.746 0 53.953-24.203 53.953-53.953 0-29.746-24.203-53.941-53.953-53.941-29.746 0-53.93 24.191-53.93 53.941s24.191 53.953 53.93 53.953zm0-73.078c10.559 0 19.129 8.5781 19.129 19.129 0 10.559-8.5664 19.141-19.129 19.141-10.547 0-19.152-8.5781-19.152-19.141 0-10.551 8.6016-19.129 19.152-19.129zm972.11-34.812c-29.746 0-53.941 24.191-53.941 53.941 0 29.746 24.191 53.953 53.941 53.953 29.734 0 53.941-24.203 53.941-53.953s-24.215-53.941-53.941-53.941zm0 73.082c-10.547 0-19.176-8.5781-19.176-19.141 0-10.547 8.6289-19.129 19.176-19.129 10.535 0 19.117 8.5781 19.117 19.129 0 10.559-8.5781 19.141-19.117 19.141zm36.527 71.387h-96.238l-63.59-429.16 164.87-50.016c9.2031-2.7969 14.41-12.516 11.617-21.707-2.7969-9.1797-12.539-14.387-21.719-11.605l-179.23 54.359c-8.2578 2.5195-13.441 10.691-12.156 19.211l4.3203 29.258h-38.711l-67.262-67.262c-3.2539-3.2539-7.7031-5.0898-12.289-5.0898l-275.53 0.003906c-4.6211 0-9.0586 1.8359-12.312 5.0898l-67.246 67.262h-110.43c-9.6016 0-17.41 7.8008-17.41 17.41 0 9.6133 7.8125 17.398 17.41 17.398h75.613l-86.207 86.207c-31.68 31.68-31.68 83.23 0 114.93 15.852 15.84 36.648 23.762 57.492 23.762 20.773 0 41.605-7.9219 57.445-23.746l93.098-93.109h157.25l195.64 195.64c0.023437 0.035156 0.058593 0.058594 0.085937 0.097656l16.105 16.078c15.84 15.875 15.84 41.688 0 57.551-15.863 15.863-41.711 15.875-57.562 0.011719l-47.82-47.82-135.15-135.13c-6.793-6.7812-17.785-6.7812-24.59 0-6.793 6.793-6.793 17.82 0 24.625l135.11 135.1c15.863 15.863 15.863 41.688 0 57.551-15.875 15.863-41.688 15.863-57.562 0.011718l-47.809-47.82-87.289-87.277c-6.793-6.8047-17.809-6.8047-24.613 0-6.793 6.793-6.793 17.809 0 24.602l87.301 87.277c15.828 15.875 15.828 41.699 0 57.574-15.887 15.852-41.723 15.852-57.574 0l-47.82-47.82-39.445-39.469c-6.793-6.793-17.832-6.793-24.625 0-6.793 6.7812-6.793 17.809 0 24.602l39.457 39.469c15.863 15.887 15.863 41.688 0 57.562s-41.711 15.852-57.551 0l-201.35-201.35c-3.2539-3.2539-7.6914-5.0898-12.289-5.0898h-28.234l50.09-338.07c1.2461-8.5195-3.9375-16.691-12.191-19.211l-179.21-54.359c-9.2148-2.7852-18.926 2.4258-21.695 11.605-2.7969 9.1914 2.375 18.91 11.594 21.707l164.86 50.016-63.57 429.16h-96.242c-9.6016 0-17.387 7.7891-17.387 17.398 0 9.6133 7.7891 17.398 17.387 17.398h111.25c8.6406 0 15.949-6.3242 17.219-14.844l12.758-85.992h26.184l196.22 196.23c14.746 14.711 34.066 22.094 53.387 22.094 19.344 0 38.676-7.3789 53.387-22.094 10.598-10.598 17.305-23.617 20.281-37.273l2.9297 2.9414c14.734 14.711 34.043 22.078 53.375 22.078 19.344 0 38.688-7.3789 53.398-22.078 10.598-10.621 17.316-23.605 20.293-37.273l2.9141 2.9297c14.699 14.699 34.055 22.066 53.375 22.066s38.664-7.3672 53.387-22.066c10.598-10.609 17.305-23.617 20.27-37.273l2.9414 2.9141c14.723 14.723 34.055 22.078 53.387 22.078 19.309 0 38.676-7.3555 53.375-22.078 25.262-25.246 28.789-64.078 10.691-93.203h32.93l12.758 85.992c1.2461 8.5195 8.5781 14.844 17.195 14.844h111.25c9.6367 0 17.41-7.7891 17.41-17.398 0.003906-9.6055-7.7617-17.395-17.398-17.395zm-206.06-100.84-165.95-165.98h25.957c4.6211 0 9.0234-1.8242 12.301-5.1133l42.48-42.492c6.7812-6.793 6.7812-17.809 0-24.59-6.793-6.8164-17.797-6.8164-24.602 0l-37.379 37.379h-56.508c-3.3477-1.0312-6.875-1.0312-10.246 0l-165.65 0.003906c-4.6328 0-9.0703 1.8359-12.324 5.0898l-98.207 98.207c-18.121 18.109-47.594 18.086-65.699 0-18.121-18.121-18.121-47.578-0.011719-65.711l115.92-115.91v-0.011719l67.246-67.246h261.16l67.246 67.262c3.2656 3.2656 7.7031 5.1016 12.324 5.1016h51.047l40.598 274.01-59.699-0.007813z"/>
</svg>
