<?xml version="1.0" encoding="UTF-8"?>
<svg id="Layer_1" xmlns="http://www.w3.org/2000/svg" version="1.1" viewBox="0 0 1536 1024">
  <!-- Generator: Adobe Illustrator 29.7.1, SVG Export Plug-In . SVG Version: 2.1.1 Build 8)  -->
  <path d="M883.82,172.27c7.86-.1,23.46.36,30.48,2.94,6.33,2.33,9.86,7.83,12.03,13.97,7.32,54.18,13.79,108.49,24.99,162.01,10.23,48.9,24.56,96.82,38.17,144.82.74,1.09,1.81,1.05,2.97,1.04,8.76-.06,20.85-3.25,30.06-4.05,30.87-2.7,121.92-9.62,110.24,44.24-7.63,35.16-81.49,80-112.07,96.93-135.83,75.18-344.06,145.25-500.16,138.82-36.54-1.51-128.43-9.06-106.38-67.36,14.36-37.96,79.58-71.24,114.26-88.74l1.64-2.38c-13.84-68.83-33.82-136.45-59.28-201.76-11.8-30.27-26.16-59.65-36.75-90.27-1.6-22.15,37.24-39.78,54.32-47.66,62.62-28.86,138.31-51.67,205.25-68.75,56.66-14.45,132.28-33.09,190.24-33.81ZM897,199.01c-52.06.75-104.4,10.94-155.01,22.48-70.28,16.02-143.18,37.51-210.24,63.76-19.64,7.69-49.22,18.6-65.49,31.46-.8.63-1.84-.03-1.27,2.28,26.06,4.58,54.23.76,80.33-3.16,78.77-11.82,171.39-37.39,246.18-64.82,36.3-13.31,74.21-29.18,105.48-52.01ZM550.04,577.96c69.93,6.51,140.83-2.47,208.18-21.24,68.52-19.1,134.09-48.63,193.39-87.69l.95-2.09c-22.52-78.49-40.46-158.44-48.57-239.94-80.97,47.95-175.61,74.94-266.98,96.51-53.17,12.56-108.06,24.47-163.01,23.49,31.26,74.74,59.43,151.36,76.04,230.95ZM960.99,495c-32.14,19.49-64.73,38.21-99.31,53.18-95.33,41.25-201.37,63.19-305.68,56.83l13.88,56.42c71.77,8.26,145.48-4.28,214.11-24.93,66.72-20.07,132.66-50.41,189.55-90.51l-12.56-50.99ZM997.08,522.08c2.66,23.1,12.89,29.58-8.19,46.32-51.89,41.2-142.89,78.2-206.68,96.32-64.52,18.32-155.3,34.79-221.63,23.2-19.98-3.49-17.69-30.9-25.08-44.89-29.17,15.33-64.45,32.37-86.02,57.97-14.94,17.73-13.41,28.32,8.98,36.05,54.28,18.74,145.24,7.76,201.72-2.35,102.54-18.37,207.6-54.68,301.17-99.83,34.31-16.55,125.5-64.37,141.46-97.54,2.69-5.58,3.9-9.1-1.33-13.31-12.89-10.38-65.77-6.85-82.99-5.01-7.14.76-14.35,1.86-21.42,3.07Z"/>
</svg>