<svg xmlns="http://www.w3.org/2000/svg" width="1600" height="1600" viewBox="0 0 1200 1200"><path d="M1000.7 248.84c-55.594-55.594-129.51-86.211-208.12-86.211-71.578 0-139.26 25.379-192.63 71.746-53.484-46.398-121.1-71.719-192.59-71.719-78.617 0-152.53 30.617-208.13 86.203-55.602 55.602-86.223 129.52-86.223 208.13 0 78.617 30.629 152.54 86.297 208.21l384.49 365.71c4.52 4.305 10.34 6.45 16.152 6.45s11.625-2.15 16.152-6.45l383.48-364.69 1.145-1.133c55.602-55.594 86.223-129.51 86.223-208.12-.02-78.62-30.641-152.52-86.234-208.13zm-33.082 383.04-367.69 349.71-366.6-348.66-.965-.957c-46.742-46.742-72.488-108.89-72.488-174.99 0-66.094 25.742-128.24 72.488-174.98 46.742-46.742 108.89-72.477 174.99-72.477 66.102 0 128.24 25.742 174.73 72.215l1.012 1.05a23.44 23.44 0 0 0 16.52 7.126c6.133-.133 12.242-2.336 16.707-6.684l1.265-1.246c46.734-46.734 108.88-72.477 174.98-72.477 66.102 0 128.24 25.742 174.98 72.477 46.742 46.734 72.488 108.88 72.488 174.98s-25.754 128.24-72.43 174.91z"/></svg>