<?xml version="1.0" encoding="UTF-8"?>
<svg width="1200pt" height="1200pt" version="1.1" viewBox="0 0 1200 1200" xmlns="http://www.w3.org/2000/svg">
 <path d="m1000.7 248.84c-55.594-55.594-129.51-86.211-208.12-86.211-71.578 0-139.26 25.379-192.63 71.746-53.484-46.398-121.1-71.719-192.59-71.719-78.617 0-152.53 30.617-208.13 86.203-55.602 55.602-86.223 129.52-86.223 208.13 0 78.617 30.629 152.54 86.297 208.21l384.49 365.71c4.5195 4.3047 10.34 6.4492 16.152 6.4492s11.625-2.1484 16.152-6.4492l383.48-364.69 1.1445-1.1328c55.602-55.594 86.223-129.51 86.223-208.12-0.019531-78.621-30.641-152.52-86.234-208.13zm-33.082 383.04-367.69 349.71-366.6-348.66-0.96484-0.95703c-46.742-46.742-72.488-108.89-72.488-174.99 0-66.094 25.742-128.24 72.488-174.98 46.742-46.742 108.89-72.477 174.99-72.477 66.102 0 128.24 25.742 174.73 72.215l1.0117 1.0508c4.3398 4.4805 10.285 7.0391 16.52 7.125 6.1328-0.13281 12.242-2.3359 16.707-6.6836l1.2656-1.2461c46.734-46.734 108.88-72.477 174.98-72.477 66.102 0 128.24 25.742 174.98 72.477 46.742 46.734 72.488 108.88 72.488 174.98s-25.754 128.24-72.43 174.91z"/>
</svg>
