<svg xmlns="http://www.w3.org/2000/svg" width="1600" height="1600" viewBox="0 0 1200 1200"><path fill-rule="evenodd" d="M624.99 80.402c-225.04 0-423.28 145.31-492.79 357.32l-39.293-129.5a18.755 18.755 0 0 0-23.367-12.453 18.75 18.75 0 0 0-11.074 9.097 18.74 18.74 0 0 0-1.415 14.266l50.945 168.06a18.76 18.76 0 0 0 8.93 10.988 18.73 18.73 0 0 0 14.066 1.61l164.43-45.008h.004a18.76 18.76 0 0 0 11.312-8.766 18.74 18.74 0 0 0 1.832-14.199 18.76 18.76 0 0 0-8.82-11.375 18.74 18.74 0 0 0-14.29-1.77l-118.11 32.302c64.04-197.74 248.14-333.08 457.63-333.08 265.99 0 481.25 215.6 481.25 482.1s-215.27 482.1-481.25 482.1c-218.26 0-409-147.01-465.07-358.35a18.75 18.75 0 0 0-8.683-11.36 18.77 18.77 0 0 0-14.168-1.933 18.74 18.74 0 0 0-11.516 8.7 18.74 18.74 0 0 0-1.926 14.3c60.371 227.57 266.25 386.15 501.36 386.15 286.29 0 518.76-232.87 518.76-519.6s-232.46-519.6-518.76-519.6zm-27.137 261.89a18.75 18.75 0 0 0-13.238 5.543 18.76 18.76 0 0 0-5.437 13.281v307.41-.004a18.75 18.75 0 0 0 9.41 16.188l195.31 111.15c4.297 2.434 9.382 3.07 14.148 1.773s8.828-4.421 11.305-8.695a18.75 18.75 0 0 0-6.922-25.597l-185.75-105.77v-296.46c.02-5-1.957-9.8-5.492-13.332a18.75 18.75 0 0 0-13.332-5.492z"/></svg>