<?xml version="1.0" encoding="UTF-8"?>
<svg width="1200pt" height="1200pt" version="1.1" viewBox="0 0 1200 1200" xmlns="http://www.w3.org/2000/svg">
 <path d="m624.99 80.402c-225.04 0-423.28 145.31-492.79 357.32l-39.293-129.5c-1.4531-4.7461-4.7305-8.7227-9.1094-11.055-4.3789-2.3359-9.5078-2.8359-14.258-1.3984-4.75 1.4453-8.7344 4.7188-11.074 9.0977-2.3438 4.3828-2.8516 9.5117-1.4141 14.266l50.945 168.06c1.4258 4.6875 4.6328 8.6328 8.9297 10.988 4.2969 2.3555 9.3477 2.9336 14.066 1.6094l164.43-45.008h0.003907c4.7812-1.3125 8.8477-4.4648 11.312-8.7656 2.4648-4.3047 3.125-9.4102 1.832-14.199-1.3086-4.8125-4.4844-8.9062-8.8203-11.375-4.3359-2.4688-9.4805-3.1055-14.289-1.7695l-118.11 32.301c64.039-197.74 248.14-333.08 457.63-333.08 265.99 0 481.25 215.6 481.25 482.1s-215.27 482.1-481.25 482.1c-218.26 0-409-147.01-465.07-358.35-1.2812-4.7852-4.4023-8.8672-8.6836-11.359-4.2852-2.4883-9.375-3.1836-14.168-1.9336-4.8477 1.2461-8.9922 4.3789-11.516 8.6992-2.5234 4.3164-3.2188 9.4648-1.9258 14.301 60.371 227.57 266.25 386.15 501.36 386.15 286.29 0 518.76-232.87 518.76-519.6 0-286.73-232.46-519.6-518.76-519.6zm-27.137 261.89c-4.9727 0.019532-9.7344 2.0117-13.238 5.543-3.5 3.5312-5.457 8.3086-5.4375 13.281v307.41-0.003907c0.023437 6.6875 3.6133 12.855 9.4102 16.188l195.31 111.15c4.2969 2.4336 9.3828 3.0703 14.148 1.7734s8.8281-4.4219 11.305-8.6953c2.4766-4.3125 3.1367-9.4297 1.8398-14.23s-4.4492-8.8906-8.7617-11.367l-185.75-105.77v-296.46c0.019531-5-1.957-9.8008-5.4922-13.332-3.5352-3.5352-8.332-5.5117-13.332-5.4922z" fill-rule="evenodd"/>
</svg>
