<svg xmlns="http://www.w3.org/2000/svg" width="1600" height="1600" viewBox="0 0 1200 1200"><path d="M622.67 327.95c-134.45 0-246.59 98.297-268.28 226.71h-49.121l75.57 90.688 75.57-90.688h-40.383c20.68-95.258 105.02-166.26 206.64-166.26 117.22 0 211.6 94.379 211.6 211.6s-94.379 211.6-211.6 211.6c-77.113 0-144.39-40.699-181.37-102.02l-49.594 34.008c48.109 77.086 133.69 128.47 230.96 128.47 149.89 0 272.06-122.16 272.06-272.06 0-149.89-122.16-272.06-272.06-272.06zm-30.23 151.14v135.32l11.336 9.21 75.57 60.458 23.617 18.895 37.785-47.23-23.617-18.895-64.234-51.484v-106.27"/></svg>