<?xml version="1.0" encoding="UTF-8"?>
<svg width="1200pt" height="1200pt" version="1.1" viewBox="0 0 1200 1200" xmlns="http://www.w3.org/2000/svg">
 <path d="m704.41 29.512-186.16-3.9141c-0.34375-0.007812-0.64453 0.054688-0.88672 0.17969-0.23828 0.12109-0.48438 0.36328-0.72656 0.71094-0.26953 0.39062-0.42969 0.74609-0.46875 1.0547-0.046874 0.36328 0.007813 0.78125 0.16797 1.2344l132.25 375.64 72.023 5.8633 122.85-15.078-137.24-364.28c-0.1875-0.49609-0.44922-0.86719-0.75781-1.0859-0.28125-0.20313-0.64063-0.32031-1.0508-0.32813zm10.902 969.9c1.2305-2.4609 4.2188-3.457 6.6797-2.2266 2.4609 1.2305 3.457 4.2188 2.2266 6.6797l-44.293 88.34c-1.2305 2.4609-4.2188 3.457-6.6797 2.2266-2.4609-1.2305-3.457-4.2188-2.2266-6.6797zm-201.97-928.43c0.14453-0.36719 0.33203-0.70703 0.54688-1.0195l-12.629-35.867c-0.5-1.418-0.82422-2.8594-0.97656-4.3008l-8.0195-0.085938-136.74 342.64 211.32-4.7812c0.37109-0.007812 0.6875-0.097656 0.93359-0.25391 0.28516-0.18359 0.54297-0.48438 0.75391-0.89453l2.8711-5.6094c0.12109-0.27344 0.25781-0.53906 0.40625-0.79688l26.195-51.141-79.156-224.83-93.922 235.15c-0.35547 0.89453-0.48828 1.8008-0.40234 2.668 0.085937 0.83203 0.39062 1.668 0.91797 2.4609 0.51953 0.78516 1.1406 1.3672 1.8281 1.7344 0.68359 0.36328 1.4805 0.55078 2.3555 0.53516l118.28-1.9258c2.75-0.042969 5.0156 2.1523 5.0586 4.9023 0.042968 2.75-2.1523 5.0156-4.9023 5.0586l-118.28 1.9258c-2.5898 0.042969-5.0273-0.54688-7.1992-1.707-2.168-1.1562-4.0273-2.8516-5.4609-5.0156-1.4258-2.1562-2.2695-4.5273-2.5195-6.9922-0.24609-2.4297 0.10547-4.9102 1.0664-7.3164l97.672-244.54zm-258.88 716.07c-0.88281-2.6094 0.51562-5.4453 3.125-6.3281 2.6094-0.88281 5.4453 0.51562 6.3281 3.125l8.7773 25.625 24.109-44.699-94.152-9.3086 99 350.25c0.14844 0.53125 0.4375 0.95703 0.80469 1.2305 0.33203 0.25 0.74609 0.38672 1.1797 0.37109l8.4102-0.28125 29.73-65.051-39.742-116.04c-0.058594-0.14453-0.10547-0.29297-0.15234-0.44141l-47.422-138.46zm53.105-21.211-30.473 56.492 11.551 33.73 46.562-87.488-27.645-2.7344zm38.363 3.793-52.867 99.328 14.465 42.234 68.992-138.54zm41.23 4.0742-75.082 150.77 16.004 46.734 83.895-174.98c0.0625-0.12891 0.12891-0.25391 0.19922-0.375l-4.7109-12.91c-0.9375-2.5898 0.39844-5.4492 2.9883-6.3867s5.4492 0.39844 6.3867 2.9883l19.918 54.602 23.414-51.23-0.62109-2.0469-72.395-7.1562zm43.699 73.352-13.918-38.152-84.254 175.74 15.117 44.145zm-33.48-447.05 13.23 42.078 21.988-39.211zm46.133 3.7539c-0.070313 0.17188-0.15234 0.33984-0.24609 0.50391l-28.543 50.902 10.188 32.402 45.969-81.578-27.371-2.2266zm38.27 3.1172c-0.085938 0.22266-0.1875 0.44141-0.30859 0.65625l-51.691 91.73c-0.23438 0.41797-0.51953 0.78906-0.84375 1.1094l12.613 40.117 66.422-131.48zm36.719 2.9883c-0.085938 0.44531-0.23438 0.88281-0.44531 1.3086l-71.352 141.24c-0.25781 0.51172-0.59375 0.96094-0.98438 1.3359l14.75 46.914 80.125-163.6c0.082031-0.16797 0.17188-0.32422 0.26562-0.47656l-3.918-13.242c-0.77734-2.6445 0.73828-5.4141 3.3789-6.1914 2.6445-0.77734 5.4141 0.73828 6.1914 3.3789l20.98 70.883c0.42969 0.71875 0.67187 1.5352 0.70312 2.375l9.4727 32.012 12.27-26.848c-0.30469-0.52344-0.55078-1.0898-0.73438-1.6914l-25.367-83.707-45.34-3.6914zm53.43 128.5c-0.77734-0.61719-1.3828-1.4727-1.6836-2.5l-8.3438-28.188-80.387 159.93 12.777 40.633 77.633-169.87zm-83.832 183.44-101.46-322.67-28.57-2.3242 39.336 123.93-0.027344 0.007813 72.812 240.26 17.91-39.191zm-23.289-107.35 12.426 39.516 80.543-160.24-12.746-43.066-80.223 163.79zm362.87 238.19c-0.88281-2.6094 0.51562-5.4453 3.125-6.3281 2.6094-0.88281 5.4453 0.51562 6.3281 3.125l10.074 29.414 16.398-39.805c1.0469-2.5469 3.957-3.7617 6.5039-2.7148 2.5469 1.0469 3.7617 3.957 2.7148 6.5039l-20.723 50.305 14.949 43.652 44.906-109.02c1.0469-2.5469 3.957-3.7617 6.5039-2.7148 2.5469 1.0469 3.7617 3.957 2.7148 6.5039l-49.234 119.52 14.949 43.652 71.465-173.5c1.0469-2.5469 3.957-3.7617 6.5039-2.7148s3.7617 3.957 2.7148 6.5039l-75.789 184 14.949 43.652 78.711-191.09-9.2891-25.469c-0.9375-2.5898 0.39844-5.4492 2.9883-6.3867 2.5898-0.9375 5.4492 0.39844 6.3867 2.9883l9.3047 25.5c0.67578 0.84766 1.0625 1.8984 1.0898 2.9883l19.574 53.652c0.50391 0.71875 0.81641 1.5625 0.89062 2.4453l19.805 54.281c0.3125 0.52734 0.52734 1.1133 0.62891 1.7227l45.848 125.67c0.65234 1.793 0.90234 3.6172 0.77734 5.418-0.12891 1.8164-0.64062 3.5898-1.5039 5.2578-0.88281 1.707-2.0625 3.1211-3.5 4.2109-1.4883 1.1289-3.1992 1.8672-5.082 2.1719l-137.81 22.25c-2.9062 0.46875-5.6875-0.22266-8.0117-1.8008-2.1953-1.4883-3.9297-3.7539-4.8828-6.5312l-60.316-176.11c-0.44141-0.68359-0.71484-1.4688-0.78125-2.2852zm83.953 214.32 14.949 43.652 79.398-192.75-15.469-42.398zm19.559 57.105 0.92188 2.6914c0.23828 0.69531 0.59766 1.2109 1.0156 1.4922 0.25391 0.17188 0.55469 0.24609 0.86328 0.19922l31.02-5.0078 61.5-149.3-15.469-42.398-78.418 190.38c-0.32422 0.78516-0.82422 1.4414-1.4336 1.9492zm45.371-2.4922 35.414-5.7188c0.0625-0.34766 0.16016-0.69531 0.30078-1.0391l34.766-84.402-15.469-42.398-55.016 133.55zm46.828-7.5625 48.414-7.8164c0.24609-0.039063 0.46094-0.125 0.62891-0.25781 0.22266-0.17187 0.44141-0.45703 0.64844-0.85156 0.23828-0.45703 0.375-0.92578 0.41016-1.3906 0.03125-0.43359-0.03125-0.87891-0.19141-1.3164l-21.191-58.086zm-366.51-714.17c-2.75 0.22656-5.1641-1.8203-5.3906-4.5703-0.22656-2.75 1.8203-5.1641 4.5703-5.3906l169.39-14.473c2.75-0.22656 5.1641 1.8203 5.3906 4.5703s-1.8203 5.1641-4.5703 5.3906zm-2.4805 21.078 127.87 363.2 197.2-27.902-130.21-345.62-127.5 15.652v-0.003906c-0.51953 0.0625-1.0508 0.074219-1.5938 0.03125l-65.766-5.3555zm-307.02-73.23c0.28516-0.03125 0.56641-0.046874 0.84766-0.046874l131.19-328.71c1.125-3.0742 4.0859-5.2539 7.5469-5.2266l19.641 0.20703c1.0586-0.91406 2.2109-1.6914 3.4492-2.332 2.5781-1.3281 5.457-1.9961 8.5117-1.9297l186.16 3.9141c3.7305 0.078125 7.1797 1.2617 10.051 3.3281 2.8438 2.0508 5.0703 4.9219 6.3828 8.3984l127.46 338.34 73.316 1.7578c4.918 0.11719 8.9922 2.4766 11.84 6.0039 2.6758 3.3164 4.2188 7.7773 4.1875 12.215-0.035156 4.4531-1.6133 8.6445-4.2812 11.844-2.7539 3.3086-6.6133 5.5938-11.117 6.1484l-57 6.9961 129.49 343.71 71.988 5.8398c4.7773 0.38672 8.6875 2.8398 11.391 6.3672 2.5508 3.3359 3.9727 7.7305 3.8633 12.125-0.10938 4.3984-1.707 8.4375-4.3398 11.539-2.7109 3.1914-6.4805 5.4141-10.852 6.0859l-53.168 8.1602 125.7 333.63c0.99219 2.6367 1.3828 5.3125 1.1797 7.9531-0.20703 2.6719-1.0078 5.2734-2.4023 7.7227-1.3945 2.457-3.2305 4.4727-5.4414 6-2.2422 1.5508-4.7812 2.5547-7.5586 2.9609l-201.74 29.684c-4.2656 0.62891-8.4297-0.3125-11.918-2.4688-3.4336-2.1211-6.1523-5.3945-7.5859-9.4648l-26.395-74.965-15.742 39.781c-1.293 3.2656-3.375 5.9727-6.0234 7.9492-2.6719 1.9961-5.8828 3.2109-9.4023 3.4688l-233.86 17.129c-3.1367 0.23047-6.1836-0.32812-8.9688-1.6328-2.75-1.2852-5.1406-3.2617-7.0078-5.8789-0.15234-0.21484-0.30469-0.43359-0.44922-0.65625l-6.8516 0.21875c-4.1172 0.13281-7.9648-1.1133-11.098-3.4102-3.0781-2.2578-5.4414-5.5234-6.6367-9.4727l-16.039-52.922-225.36 34.965c-3.3633 0.52344-6.5781-0.011719-9.4648-1.3594-2.8438-1.3281-5.2969-3.4297-7.168-6.0586-0.59766-0.83984-1.1289-1.7188-1.582-2.625l-7.9766 0.26562c-4.1875 0.14062-8.0938-1.1445-11.242-3.4961-3.1133-2.3281-5.4766-5.6875-6.6172-9.7305l-9.3945-33.242-198.41 17.488c-3.168 0.27734-6.2461-0.28125-9.0664-1.5977-2.7695-1.293-5.1719-3.293-7.0391-5.9141-1.8594-2.6133-2.9805-5.5156-3.3398-8.5273-0.35547-2.9844 0.054688-6.0586 1.2461-9.043l125.86-315.36-51.434-5.0859c-4.4688-0.44141-8.4102-2.5195-11.305-5.6406-2.8398-3.0664-4.6367-7.1211-4.8672-11.59-0.23438-4.4961 1.1406-8.9766 3.6953-12.398 2.668-3.5742 6.6016-6.0898 11.422-6.5742l71.84-7.1992 124.06-310.86-43.438-3.5352c-4.5742-0.37109-8.6172-2.4531-11.574-5.6211-2.8789-3.082-4.6953-7.2188-4.9023-11.789-0.20703-4.543 1.2461-8.9727 3.8789-12.371 2.7305-3.5273 6.6914-5.9961 11.43-6.5234l62.453-6.9414zm-5.8438 16.719-54.859 6.0977c-0.18359 0.019531-0.37891 0.17188-0.55469 0.39844-0.38672 0.5-0.59766 1.1914-0.56641 1.9336 0.027344 0.62891 0.26953 1.1914 0.65234 1.6016 0.29297 0.3125 0.69141 0.51953 1.1367 0.55859l48.387 3.9375 0.42969-1.0781c0.058594-0.16016 0.12109-0.32031 0.19141-0.47656l5.1758-12.973zm88.277 22.188 201.34 16.391-10.164-28.871h-0.046876l-37.496-1.8711-0.71875 1.4062c-1.5312 2.9883-3.7188 5.3867-6.3789 7.082-2.6992 1.7188-5.8242 2.6758-9.1836 2.7539zm429.95 6.5938 60.867-7.4727c0.31641-0.039062 0.59766-0.21094 0.80469-0.46094 0.36719-0.44141 0.58594-1.0508 0.59375-1.7188 0.007812-0.82031-0.24609-1.6094-0.6875-2.1523-0.007812-0.007813 0.007812-0.015625 0.03125-0.023437l0.058594-0.046876-66.742-1.6016 5.0781 13.473zm-233.12 25.469-45.723-3.7227 18.91 62.395zm294.73-37.297c0.09375-0.027344 0.34766-0.039063 0.19531-0.042969l-0.13672-0.003907zm-329.95-24.691 23.84 1.1875-9.957-28.285-13.879 27.098zm-361.75 377.57c-2.7383 0.28125-5.1875-1.7148-5.4688-4.4531-0.28125-2.7383 1.7148-5.1875 4.4531-5.4688l188.41-19.93c2.7383-0.28125 5.1875 1.7148 5.4688 4.4531s-1.7148 5.1875-4.4531 5.4688zm501.59 13.109c-2.7305-0.36719-4.6445-2.875-4.2773-5.6055 0.36719-2.7305 2.875-4.6445 5.6055-4.2773l17.141 2.3281-12.555-35.664-13.012 28.977c-1.1172 2.4883-2.7617 4.5352-4.8008 6.043-2.0742 1.5352-4.5156 2.5-7.1953 2.8008l-199.76 22.41c-2.7383 0.30078-5.207-1.6758-5.5078-4.4141s1.6758-5.207 4.4141-5.5078l199.76-22.41c0.90625-0.10156 1.7031-0.40625 2.3516-0.88672 0.67969-0.50391 1.2383-1.2148 1.6367-2.0977l16.555-36.863c0.22656-0.50391 0.52344-0.95312 0.87891-1.3398l-92.562-262.91-155.11 339.39 231.17 22.855c2.1484-0.68359 4.4023-0.40625 6.2617 0.61719l47.062 4.6523-15.871-45.082-22.188-3.0156zm54.387 46.375 1.2188 3.457 84.188 8.3242v-0.003906c3.4648 0.35938 6.6211 0.55859 9.6719 0.53516 2.9414-0.023437 6.0156-0.26953 9.4883-0.80469l101.84-15.629-8.9688-23.809-197.43 27.934zm7.0625 20.062 92.887 263.83c0.10547 0.25391 0.19531 0.51172 0.27344 0.77344l33.355 94.738c0.19922 0.5625 0.51953 0.98047 0.89844 1.2148 0.32813 0.20312 0.75781 0.28906 1.2305 0.21875l201.74-29.684c0.34766-0.050781 0.61719-0.14453 0.80859-0.27344 0.21875-0.15234 0.42969-0.40234 0.62891-0.75 0.19922-0.35156 0.3125-0.70312 0.33984-1.0352 0.027344-0.36328-0.03125-0.75-0.17969-1.1406l-126.88-336.79-105.22 16.148c-3.9844 0.61328-7.8047 0.89844-11.738 0.92969-3.8242 0.03125-7.5234-0.19141-11.422-0.59766v-0.003906l-76.715-7.5859zm-574.08-98.414c-0.085938 0.25-0.18359 0.49219-0.28906 0.72656l-9.5508 23.93 245.76 24.297-72.371-238.8-0.027344 0.007812-38.879-122.49zm-19.816 6.6602-63.613 6.375c-0.015625 0-0.054687 0.10156-0.17188 0.26172-0.39844 0.53125-0.60938 1.2656-0.57031 2.0234 0.035156 0.64844 0.26172 1.2031 0.61719 1.5898 0.29297 0.31641 0.70703 0.53125 1.1797 0.57812l56.027 5.5391 6.5312-16.363zm809.36 65.09 56.555-8.6797c0.41797-0.0625 0.77734-0.27734 1.0391-0.58594 0.35547-0.42188 0.57422-0.98047 0.58984-1.6016 0.019531-0.78125-0.20703-1.5312-0.61328-2.0625-0.058594-0.078124 0.14844-0.10937 0.046875-0.11719l-64.504-5.2305zm-245.14 23.727-32.047-3.168 14.957 37.258 17.094-34.09zm-49.953-4.9375-235.26-23.258-0.63672 1.3945 109.8 362.3c0.16016 0.53125 0.45312 0.94922 0.82422 1.2227 0.32031 0.23438 0.72266 0.35938 1.1602 0.34766l5.2617-0.16797c0.20703-0.55469 0.44922-1.1094 0.72266-1.6562l141.44-282.1-23.312-58.078zm39.371 61.594c-0.12109 0.27734-0.25391 0.54688-0.40625 0.80859l-142.84 284.9c-0.046875 0.089844-0.050781 0.24609-0.03125 0.4375 0.050781 0.44141 0.26172 0.92188 0.59375 1.3828 0.24219 0.33984 0.5 0.57031 0.75781 0.69141 0.25781 0.12109 0.63281 0.16797 1.0938 0.13281l233.86-17.129c0.375-0.027344 0.70312-0.14844 0.96484-0.34375 0.28516-0.21484 0.53125-0.55859 0.71094-1.0117l22.52-56.906-92.406-262.47-24.82 49.504zm-480 193.59-79.52-281.33-117.84 295.28c-0.17188 0.43359-0.23047 0.87109-0.18359 1.293 0.046875 0.39453 0.20312 0.78516 0.46484 1.1523 0.25391 0.35547 0.52344 0.60156 0.78906 0.72656 0.21484 0.10156 0.53125 0.13672 0.9375 0.097656zm278.57 21.547-83.852-276.69-140.91 308.32c-0.10547 0.23047-0.13672 0.49609-0.10156 0.78125 0.050781 0.42188 0.23828 0.86719 0.53906 1.2891 0.30469 0.42969 0.62109 0.73438 0.91797 0.87109 0.089844 0.042969 0.1875 0.0625 0.27734 0.046875l223.13-34.621z"/>
</svg>
