<svg xmlns="http://www.w3.org/2000/svg" width="1600" height="1600" viewBox="0 0 1200 1200"><path d="m704.41 29.512-186.16-3.914a1.84 1.84 0 0 0-.887.18c-.238.12-.484.363-.726.71-.27.391-.43.747-.469 1.055-.047.364.008.781.168 1.235l132.25 375.64 72.023 5.863 122.85-15.078-137.24-364.28c-.188-.496-.45-.867-.758-1.086a1.84 1.84 0 0 0-1.05-.328zm10.902 969.9a4.977 4.977 0 0 1 6.68-2.227 4.977 4.977 0 0 1 2.226 6.68l-44.293 88.34a4.977 4.977 0 0 1-6.68 2.227 4.977 4.977 0 0 1-2.226-6.68zm-201.97-928.43c.145-.367.332-.707.547-1.02l-12.63-35.866c-.5-1.418-.823-2.86-.976-4.301l-8.02-.086-136.74 342.64 211.32-4.781c.372-.008.688-.098.934-.254.286-.184.543-.485.754-.895l2.871-5.61q.183-.41.407-.796l26.195-51.141-79.156-224.83-93.922 235.15c-.356.894-.489 1.8-.403 2.668.086.832.39 1.668.918 2.46.52.786 1.14 1.368 1.828 1.735.684.363 1.48.55 2.356.535l118.28-1.925a4.982 4.982 0 0 1 .156 9.96l-118.28 1.926c-2.59.043-5.027-.547-7.199-1.707-2.168-1.156-4.027-2.851-5.46-5.015-1.427-2.157-2.27-4.528-2.52-6.993-.246-2.43.105-4.91 1.066-7.316L513.34 70.98zm-258.88 716.07a4.99 4.99 0 0 1 3.125-6.328 4.99 4.99 0 0 1 6.328 3.125l8.777 25.625 24.11-44.7-94.153-9.308 99 350.25c.149.532.438.957.805 1.23.332.25.746.388 1.18.372l8.41-.281 29.73-65.051-39.742-116.04a6 6 0 0 1-.152-.442l-47.422-138.46zm53.105-21.211-30.473 56.492 11.551 33.73 46.562-87.488-27.645-2.734zm38.363 3.793-52.867 99.328 14.465 42.234 68.992-138.54zm41.23 4.074-75.082 150.77 16.004 46.734 83.895-174.98a6 6 0 0 1 .2-.375l-4.712-12.91a4.986 4.986 0 1 1 9.375-3.398l19.918 54.602 23.414-51.23-.62-2.047-72.396-7.156zm43.699 73.352-13.918-38.152-84.254 175.74 15.117 44.145zm-33.48-447.05 13.23 42.078 21.988-39.21zm46.133 3.754q-.105.258-.246.504l-28.543 50.902 10.188 32.402 45.969-81.578-27.371-2.227zm38.27 3.117a5 5 0 0 1-.309.657l-51.69 91.73c-.235.418-.52.789-.844 1.109l12.613 40.117 66.422-131.48zm36.719 2.989a5.1 5.1 0 0 1-.445 1.308l-71.352 141.24c-.258.512-.594.961-.985 1.336l14.75 46.914 80.125-163.6q.124-.25.266-.476l-3.918-13.242a4.988 4.988 0 0 1 9.57-2.813l20.98 70.883a5 5 0 0 1 .703 2.375l9.473 32.012 12.27-26.848a8 8 0 0 1-.734-1.691l-25.367-83.707-45.34-3.692zm53.43 128.5a4.97 4.97 0 0 1-1.684-2.5l-8.343-28.188-80.387 159.93 12.777 40.633 77.633-169.87zm-83.832 183.44-101.46-322.67-28.57-2.325 39.336 123.93-.027.008 72.812 240.26 17.91-39.19zM464.81 614.46l12.426 39.516 80.543-160.24-12.746-43.066zm362.87 238.19a4.99 4.99 0 0 1 3.125-6.329 4.99 4.99 0 0 1 6.328 3.125l10.074 29.414 16.398-39.805a4.98 4.98 0 0 1 6.504-2.714 4.98 4.98 0 0 1 2.715 6.504L852.1 893.15l14.949 43.652 44.906-109.02a4.98 4.98 0 0 1 6.504-2.715 4.98 4.98 0 0 1 2.714 6.504L871.94 951.09l14.95 43.652 71.464-173.5c1.047-2.547 3.957-3.762 6.504-2.715s3.762 3.957 2.715 6.504l-75.789 184 14.95 43.652 78.71-191.09-9.289-25.47a4.985 4.985 0 1 1 9.375-3.398l9.305 25.5a5 5 0 0 1 1.09 2.989l19.574 53.652c.504.718.816 1.562.89 2.445l19.805 54.281c.313.527.528 1.113.63 1.723l45.847 125.67c.652 1.793.902 3.617.777 5.418-.128 1.816-.64 3.59-1.503 5.258-.883 1.707-2.063 3.12-3.5 4.21a11.3 11.3 0 0 1-5.082 2.172l-137.81 22.25c-2.907.47-5.688-.222-8.012-1.8-2.195-1.489-3.93-3.754-4.883-6.532l-60.316-176.11a4.96 4.96 0 0 1-.781-2.285zm83.953 214.32 14.949 43.652 79.398-192.75-15.469-42.398zm19.559 57.105.922 2.691c.238.695.598 1.21 1.015 1.492.254.172.555.246.864.2l31.02-5.008 61.5-149.3-15.47-42.398-78.417 190.38a5 5 0 0 1-1.434 1.949zm45.371-2.493 35.414-5.718q.091-.523.3-1.04l34.767-84.402-15.47-42.398-55.015 133.55zm46.828-7.562 48.414-7.816c.246-.04.46-.125.629-.258q.336-.259.648-.852a3.6 3.6 0 0 0 .41-1.39 3.2 3.2 0 0 0-.19-1.317l-21.192-58.086zm-366.51-714.17a4.998 4.998 0 0 1-.82-9.961l169.39-14.473a4.998 4.998 0 0 1 .82 9.96zm-2.48 21.078 127.87 363.2 197.2-27.902-130.21-345.62-127.5 15.652v-.004q-.78.094-1.594.031L654.4 420.93zm-307.02-73.23q.427-.047.847-.047l131.19-328.71a7.97 7.97 0 0 1 7.547-5.227l19.641.207a17.7 17.7 0 0 1 3.45-2.332c2.577-1.328 5.456-1.996 8.511-1.93l186.16 3.915c3.73.078 7.18 1.262 10.051 3.328 2.844 2.05 5.07 4.922 6.383 8.398l127.46 338.34 73.316 1.758c4.918.117 8.992 2.477 11.84 6.004 2.676 3.316 4.219 7.777 4.187 12.215-.035 4.453-1.613 8.645-4.28 11.844-2.755 3.309-6.614 5.594-11.118 6.148l-57 6.997 129.49 343.71 71.988 5.84c4.777.386 8.688 2.84 11.391 6.367 2.55 3.335 3.973 7.73 3.863 12.125-.109 4.398-1.707 8.437-4.34 11.539-2.71 3.191-6.48 5.414-10.851 6.085l-53.168 8.16 125.7 333.63c.992 2.637 1.382 5.313 1.18 7.954-.208 2.672-1.009 5.273-2.403 7.722-1.395 2.457-3.23 4.473-5.441 6a17.66 17.66 0 0 1-7.559 2.961l-201.74 29.684a17.65 17.65 0 0 1-11.918-2.468c-3.434-2.122-6.152-5.395-7.586-9.465l-26.395-74.965-15.742 39.78c-1.293 3.266-3.375 5.973-6.023 7.95-2.672 1.996-5.883 3.21-9.403 3.469l-233.86 17.129c-3.136.23-6.183-.328-8.968-1.633-2.75-1.285-5.141-3.262-7.008-5.879a19 19 0 0 1-.45-.656l-6.851.219c-4.117.132-7.965-1.114-11.098-3.41-3.078-2.258-5.441-5.524-6.637-9.473l-16.039-52.922-225.36 34.965c-3.363.523-6.578-.012-9.465-1.36-2.843-1.328-5.296-3.43-7.168-6.058a20 20 0 0 1-1.582-2.625l-7.976.265c-4.188.14-8.094-1.144-11.242-3.496-3.113-2.328-5.477-5.687-6.617-9.73l-9.395-33.242-198.41 17.488a17.64 17.64 0 0 1-9.066-1.598c-2.77-1.293-5.172-3.293-7.04-5.914-1.859-2.613-2.98-5.516-3.34-8.527-.355-2.985.056-6.059 1.247-9.043l125.86-315.36-51.434-5.086c-4.469-.442-8.41-2.52-11.305-5.64a18.4 18.4 0 0 1-4.867-11.59c-.235-4.497 1.14-8.978 3.695-12.399 2.668-3.574 6.602-6.09 11.422-6.574l71.84-7.2 124.06-310.86-43.438-3.535c-4.574-.37-8.617-2.453-11.574-5.62-2.879-3.083-4.695-7.22-4.902-11.79-.207-4.543 1.246-8.972 3.879-12.37 2.73-3.528 6.691-5.997 11.43-6.524l62.453-6.941zm-5.844 16.719-54.86 6.098c-.183.02-.378.171-.554.398-.387.5-.598 1.191-.566 1.934.027.629.27 1.191.652 1.601.293.313.691.52 1.137.559l48.387 3.937.43-1.078q.086-.241.19-.476l5.177-12.973zm88.277 22.188 201.34 16.39-10.164-28.87h-.047l-37.496-1.871-.719 1.406c-1.531 2.988-3.719 5.387-6.379 7.082-2.699 1.719-5.824 2.676-9.183 2.754zm429.95 6.594 60.867-7.473c.316-.04.597-.21.804-.46.368-.442.586-1.052.594-1.72.008-.82-.246-1.61-.687-2.152-.008-.008.007-.016.03-.023l.06-.047-66.743-1.602 5.079 13.473zm-233.12 25.469-45.723-3.723 18.91 62.395zm294.73-37.297c.093-.028.347-.04.195-.043l-.137-.004zm-329.95-24.691 23.84 1.187-9.957-28.285-13.88 27.098zm-361.75 377.57a4.99 4.99 0 0 1-5.47-4.453 4.99 4.99 0 0 1 4.454-5.47l188.41-19.93c2.738-.28 5.187 1.716 5.469 4.454s-1.715 5.187-4.453 5.469zm501.59 13.109a4.984 4.984 0 0 1-4.278-5.606 4.984 4.984 0 0 1 5.606-4.277l17.14 2.328-12.554-35.664-13.012 28.977c-1.117 2.488-2.762 4.535-4.8 6.043-2.075 1.535-4.517 2.5-7.196 2.8l-199.76 22.41c-2.739.302-5.207-1.675-5.508-4.413s1.676-5.207 4.414-5.508l199.76-22.41c.906-.102 1.703-.406 2.352-.887.68-.504 1.238-1.215 1.636-2.098l16.555-36.863c.227-.503.524-.953.88-1.34l-92.563-262.91-155.11 339.39 231.17 22.856a7.96 7.96 0 0 1 6.262.617l47.062 4.652-15.871-45.082-22.188-3.015zm54.387 46.375 1.218 3.457 84.188 8.324v-.004c3.465.36 6.622.559 9.672.535 2.942-.023 6.016-.27 9.489-.805l101.84-15.629-8.97-23.809-197.43 27.934zm7.062 20.062 92.887 263.83q.158.38.274.773l33.355 94.738c.199.563.52.98.898 1.215.328.203.758.289 1.23.219l201.74-29.684q.522-.078.81-.274.328-.228.628-.75c.2-.351.313-.703.34-1.035a2.65 2.65 0 0 0-.18-1.14l-126.88-336.79-105.22 16.147a80 80 0 0 1-11.738.93c-3.824.031-7.523-.191-11.422-.598v-.003l-76.715-7.586zm-574.08-98.414q-.13.375-.289.726l-9.55 23.93 245.76 24.297-72.372-238.8-.027.008-38.879-122.49zm-19.816 6.66-63.613 6.375c-.015 0-.054.101-.172.262-.398.53-.61 1.265-.57 2.023.035.648.262 1.203.617 1.59a1.85 1.85 0 0 0 1.18.578l56.027 5.539 6.531-16.363zm809.36 65.09 56.555-8.68a1.68 1.68 0 0 0 1.04-.586c.355-.422.574-.98.59-1.601.019-.782-.208-1.532-.614-2.063-.059-.078.148-.11.047-.117l-64.504-5.23zm-245.14 23.727-32.047-3.168 14.957 37.258 17.094-34.09zm-49.953-4.938-235.26-23.258-.637 1.395 109.8 362.3c.16.531.454.95.825 1.223.32.234.722.359 1.16.347l5.262-.168c.207-.554.449-1.11.722-1.656l141.44-282.1-23.312-58.078zm39.371 61.594a8 8 0 0 1-.406.809l-142.84 284.9c-.047.09-.05.246-.031.437.05.442.261.922.593 1.383.243.34.5.57.758.692.258.12.633.168 1.094.133l233.86-17.13c.375-.027.703-.148.965-.343.285-.215.531-.559.71-1.012l22.52-56.906-92.405-262.47-24.82 49.504zm-480 193.59-79.52-281.33-117.84 295.28c-.172.434-.23.871-.183 1.293.046.395.203.786.464 1.153.254.355.524.601.79.726.214.102.53.137.937.098zm278.57 21.547-83.852-276.69-140.91 308.32c-.105.23-.137.496-.101.782.05.422.238.867.539 1.289.304.43.62.734.918.87.09.044.187.063.277.048l223.13-34.621z"/></svg>