<?xml version="1.0" encoding="UTF-8"?>
<svg width="1200pt" height="1200pt" version="1.1" viewBox="0 0 1200 1200" xmlns="http://www.w3.org/2000/svg">
 <g>
  <path d="m1031.2 478.12c-19.125 0-46.875 47.438-46.875 121.88s27.75 121.88 46.875 121.88 46.875-47.438 46.875-121.88-27.75-121.88-46.875-121.88zm0 159.38c-10.312 0-18.75-16.781-18.75-37.5s8.4375-37.5 18.75-37.5 18.75 16.781 18.75 37.5-8.4375 37.5-18.75 37.5z"/>
  <path d="m1031.2 309.38c-94.594 0-168.75 127.69-168.75 290.62s74.156 290.62 168.75 290.62 168.75-127.69 168.75-290.62-74.156-290.62-168.75-290.62zm0 450c-48.094 0-84.375-68.531-84.375-159.38s36.281-159.38 84.375-159.38 84.375 68.531 84.375 159.38-36.281 159.38-84.375 159.38z"/>
  <path d="m3.9727 647.47c3.0586 3.9219 7.5508 6.4688 12.488 7.0742 4.9336 0.60938 9.9102-0.76953 13.828-3.832l40.934-31.961h31.117l-3.082 2.4062c-5.2812 4.125-7.9609 10.75-7.0273 17.383 0.92969 6.6328 5.3281 12.266 11.539 14.777 6.2109 2.5117 13.289 1.5156 18.566-2.6055l40.93-31.961h305.96l-3.4727 1.457h-0.003906c-4.5938 1.9141-8.2422 5.5781-10.133 10.184-1.8945 4.6094-1.875 9.7773 0.050781 14.371 1.9219 4.5938 5.5977 8.2305 10.207 10.113 4.6094 1.8828 9.7812 1.8516 14.371-0.082031l89.504-37.5h-0.003906c4.5703-1.9141 8.1953-5.5625 10.086-10.141 1.8906-4.582 1.8906-9.7227 0-14.305-1.8906-4.582-5.5156-8.2266-10.086-10.141l-89.5-37.5c-6.1758-2.5742-13.254-1.6602-18.574 2.3945-5.3242 4.0547-8.082 10.637-7.2383 17.273 0.83984 6.6367 5.1523 12.32 11.316 14.918l3.4727 1.457h-305.95l-40.93-31.961h-0.003906c-5.2773-4.1211-12.355-5.1172-18.566-2.6055-6.2109 2.5117-10.609 8.1445-11.539 14.777-0.92969 6.6328 1.7461 13.258 7.0273 17.383l3.082 2.4062h-31.117l-40.934-31.961c-3.918-3.0625-8.8906-4.4375-13.828-3.832-4.9336 0.60547-9.4258 3.1484-12.488 7.0664-3.0586 3.9219-4.4375 8.8945-3.832 13.832 0.60547 4.9336 3.1484 9.4258 7.0703 12.488l27.094 21.156-27.094 21.156c-3.9219 3.0586-6.4648 7.5508-7.0703 12.488-0.60938 4.9336 0.76953 9.9062 3.832 13.824z"/>
  <path d="m767.82 302.31c-6.6875 0.33203-12.691 4.2109-15.746 10.172-3.0586 5.957-2.6992 13.094 0.93359 18.719 3.6328 5.6289 9.9922 8.8867 16.68 8.5547l35.16-1.75-6.6875 33.309c-0.97656 4.875 0.019531 9.9375 2.7773 14.078 2.7539 4.1406 7.043 7.0156 11.918 7.9961 1.2188 0.24219 2.4609 0.36328 3.707 0.36328 4.3281-0.003906 8.5234-1.5078 11.871-4.2539 3.3477-2.7422 5.6406-6.5625 6.4961-10.805l10.145-50.512 24.562-20.812-0.82031 4.0781c-0.97656 4.875 0.019531 9.9414 2.7773 14.078 2.7539 4.1406 7.043 7.0156 11.918 7.9961 1.2188 0.24219 2.4609 0.36328 3.707 0.36719 4.3281-0.007813 8.5234-1.5117 11.871-4.2539 3.3477-2.7461 5.6406-6.5625 6.4961-10.809l10.145-50.512 206.86-175.27-1.8281 3.6055c-2.25 4.4375-2.6445 9.5859-1.0977 14.312 1.5469 4.7266 4.9102 8.6445 9.3438 10.895 4.4375 2.2461 9.5859 2.6406 14.312 1.0938 4.7266-1.5469 8.6445-4.9062 10.895-9.3438l43.766-86.371c2.2422-4.4258 2.6406-9.5586 1.1055-14.273-1.5352-4.7188-4.875-8.6367-9.293-10.895-4.4141-2.2578-9.5469-2.6758-14.27-1.1602l-93.637 30.055c-6.3789 2.0469-11.18 7.3438-12.594 13.891-1.418 6.5469 0.76953 13.352 5.7305 17.852 4.9609 4.5 11.949 6.0117 18.324 3.9648l3.7852-1.2148-205.79 174.36-52.871 2.6328c-4.9688 0.25-9.6328 2.457-12.969 6.1445-3.3359 3.6875-5.0742 8.5469-4.8242 13.512 0.19141 4.9883 2.3867 9.6875 6.0859 13.035 3.6992 3.3477 8.5938 5.0625 13.574 4.7539l3.9336-0.19531-23.586 19.984z"/>
  <path d="m649.4 500.54c4.5391 0.003906 8.9258-1.6484 12.336-4.6445l7.0547-6.1719v0.003907c3.75-3.2734 6.0469-7.9023 6.3828-12.871 0.33594-4.9648-1.3164-9.8633-4.5938-13.609-3.2812-3.7461-7.9141-6.0312-12.883-6.3594-4.9648-0.32422-9.8594 1.3359-13.598 4.6211l-7.0547 6.1719c-3.8516 3.3711-6.1562 8.168-6.3828 13.281-0.22656 5.1133 1.6484 10.094 5.1836 13.793 3.5391 3.6953 8.4375 5.7852 13.555 5.7852z"/>
  <path d="m600.01 543.75c4.543 0.003906 8.9258-1.6445 12.34-4.6406l7.0547-6.1719h-0.003906c5.043-4.4102 7.3477-11.176 6.0469-17.746-1.3008-6.5703-6.0039-11.949-12.348-14.109-6.3398-2.1602-13.348-0.77344-18.391 3.6406l-7.0547 6.1719 0.003906-0.003907c-3.8516 3.3711-6.1602 8.168-6.3828 13.281-0.22656 5.1133 1.6445 10.098 5.1836 13.793 3.5391 3.6953 8.4336 5.7852 13.551 5.7852z"/>
  <path d="m748.17 414.12c4.5508 0 8.9453-1.6562 12.359-4.6602l1.8359-1.6094v-0.003906c3.7461-3.2773 6.0312-7.9102 6.3594-12.875 0.32813-4.9688-1.3359-9.8594-4.6172-13.598-3.2852-3.7422-7.9219-6.0234-12.887-6.3438-4.9648-0.31641-9.8555 1.3516-13.59 4.6367l-1.8359 1.6133c-3.8438 3.375-6.1406 8.1719-6.3633 13.281-0.21875 5.1094 1.6562 10.086 5.1953 13.777 3.5391 3.6953 8.4297 5.7812 13.543 5.7812z"/>
  <path d="m698.79 457.33c4.543 0.007813 8.9336-1.6484 12.348-4.6484l7.0547-6.1797h-0.003906c3.75-3.2773 6.043-7.9062 6.3711-12.871 0.33203-4.9648-1.3242-9.8594-4.6055-13.602-3.2773-3.7461-7.9141-6.0312-12.879-6.3516-4.9648-0.32422-9.8555 1.3398-13.594 4.625l-7.0547 6.1797c-3.8516 3.3711-6.1562 8.168-6.3789 13.281-0.22656 5.1094 1.6484 10.094 5.1914 13.789 3.5391 3.6953 8.4336 5.7812 13.551 5.7773z"/>
  <path d="m834.93 821.31c-1.3203-6.5664-6.043-11.934-12.387-14.074-6.3477-2.1445-13.355-0.73828-18.387 3.6875-5.0273 4.4258-7.3125 11.199-5.9961 17.766l6.6875 33.305-35.16-1.75v0.003906c-4.9805-0.30078-9.8711 1.4141-13.57 4.7617-3.6992 3.3477-5.8945 8.043-6.0898 13.027-0.25 4.9648 1.4883 9.8281 4.8242 13.512 3.3359 3.6875 8.0039 5.8984 12.969 6.1445l52.871 2.6328 23.586 19.984-3.9336-0.19531c-4.9844-0.32422-9.8867 1.3828-13.59 4.7344-3.707 3.3516-5.8945 8.0625-6.0703 13.055-0.25 4.9648 1.4883 9.8242 4.8242 13.512 3.3359 3.6875 8 5.8945 12.969 6.1406l52.871 2.6328 205.79 174.36-3.7852-1.2148c-6.375-2.0469-13.363-0.53516-18.324 3.9648-4.9609 4.5-7.1484 11.305-5.7305 17.852 1.4141 6.5469 6.2148 11.844 12.594 13.891l93.637 30.059v-0.003907c4.7227 1.5156 9.8555 1.0977 14.27-1.1602 4.418-2.2617 7.7578-6.1758 9.293-10.895 1.5312-4.7148 1.1367-9.8516-1.1055-14.273l-43.766-86.371c-3.0312-5.9766-9.0156-9.8828-15.707-10.246-6.6875-0.36719-13.066 2.8672-16.727 8.4766-3.6602 5.6094-4.0508 12.75-1.0195 18.723l1.8281 3.6055-206.86-175.27-10.145-50.512v0.003907c-1.3203-6.5703-6.043-11.934-12.391-14.078-6.3438-2.1406-13.352-0.73437-18.383 3.6914-5.0273 4.4258-7.3125 11.195-5.9961 17.766l0.82031 4.0781-24.562-20.812z"/>
  <path d="m637.04 732.32 7.0547 6.1719c3.7383 3.2773 8.6328 4.9375 13.594 4.6094 4.9648-0.32812 9.5977-2.6172 12.871-6.3594 3.2773-3.7461 4.9336-8.6406 4.5977-13.602-0.33203-4.9648-2.625-9.5938-6.3711-12.867l-7.0547-6.1719v0.003906c-5.0391-4.4141-12.051-5.8008-18.391-3.6406s-11.047 7.5391-12.348 14.109c-1.2969 6.5703 1.0039 13.336 6.0469 17.746z"/>
  <path d="m735.8 818.73 1.8359 1.6133c5.0312 4.418 12.043 5.8164 18.387 3.6641 6.3438-2.1484 11.059-7.5195 12.367-14.09 1.3086-6.5664-0.98438-13.336-6.0195-17.754l-1.8359-1.6094v-0.003907c-5.0312-4.418-12.039-5.8164-18.387-3.668-6.3438 2.1523-11.059 7.5234-12.367 14.09-1.3086 6.5703 0.98438 13.34 6.0195 17.758z"/>
  <path d="m587.65 689.11 7.0547 6.1719c3.7422 3.2852 8.6328 4.9492 13.602 4.6211 4.9688-0.32422 9.6016-2.6133 12.879-6.3594 3.2812-3.7461 4.9336-8.6445 4.5977-13.609-0.33594-4.9688-2.6328-9.5977-6.3867-12.867l-7.0547-6.1719h0.003906c-3.7422-3.2852-8.6367-4.9492-13.602-4.6211-4.9688 0.32422-9.6016 2.6133-12.879 6.3594-3.2812 3.7461-4.9336 8.6445-4.5977 13.609 0.33594 4.9688 2.6328 9.5977 6.3828 12.867z"/>
  <path d="m686.42 775.53 7.0547 6.1797c3.7344 3.2891 8.6289 4.957 13.598 4.6367 4.9688-0.32422 9.6055-2.6094 12.887-6.3555 3.2812-3.7422 4.9375-8.6406 4.6055-13.605-0.33203-4.9688-2.6289-9.6016-6.3828-12.875l-7.0547-6.1797h0.003906c-3.7383-3.2891-8.6328-4.957-13.602-4.6328-4.9688 0.32031-9.6016 2.6055-12.883 6.3516s-4.9414 8.6406-4.6055 13.609c0.33203 4.9648 2.625 9.5977 6.3789 12.871z"/>
  <path d="m403.15 917.06c-0.26172 4.9648 1.457 9.832 4.7852 13.531 3.3281 3.6953 7.9883 5.918 12.953 6.1797l51.586 2.7109 25.055 21.766-5.6953-0.29688c-6.6914-0.35156-13.059 2.8945-16.707 8.5117-3.6445 5.6172-4.0195 12.754-0.97656 18.723 3.0391 5.9688 9.0352 9.8594 15.723 10.211l53.652 2.8125 152.48 132.46-3.2812-1.1094-0.003906-0.003906c-6.3398-2.1367-13.344-0.73047-18.367 3.6875-5.0273 4.4219-7.3164 11.184-6.0078 17.746 1.3086 6.5664 6.0195 11.934 12.355 14.086l91.414 30.938c4.6875 1.5859 9.8125 1.2539 14.258-0.92578 4.4414-2.1758 7.8438-6.0195 9.4688-10.695 1.6211-4.6758 1.3281-9.8008-0.8125-14.262l-42.73-88.898-0.003906 0.003906c-2.9023-6.0391-8.8047-10.07-15.484-10.578-6.6797-0.50781-13.121 2.5898-16.898 8.1211s-4.3203 12.66-1.418 18.695l2.5234 5.25-155.56-135.14-9.5195-49.977v0.003906c-0.92188-4.8945-3.75-9.2266-7.8633-12.031-4.1172-2.8086-9.1797-3.8633-14.074-2.9297-4.8945 0.92969-9.2148 3.7695-12.012 7.8945-2.7969 4.1211-3.8398 9.1875-2.8945 14.078l0.61328 3.2188-22.848-19.848-9.9062-52 0.003906 0.003906c-1.2695-6.5664-5.9375-11.961-12.254-14.156-6.3164-2.1953-13.324-0.86328-18.395 3.5-5.0664 4.3633-7.4258 11.094-6.1953 17.668l6.6875 35.102-33.941-1.7852c-4.9688-0.27734-9.8438 1.4414-13.539 4.7695-3.6992 3.3281-5.9219 7.9961-6.168 12.965z"/>
  <path d="m489.88 201.61c-6.6875 0.35156-12.684 4.2422-15.723 10.211-3.043 5.9688-2.668 13.105 0.98047 18.723 3.6445 5.6172 10.012 8.8633 16.703 8.5117l5.6953-0.29688-25.055 21.766-51.586 2.7109c-4.9688 0.25391-9.6328 2.4766-12.965 6.1719-3.332 3.6953-5.0586 8.5664-4.7969 13.535 0.26172 4.9688 2.4883 9.6328 6.1875 12.961 3.7031 3.3242 8.5742 5.043 13.543 4.7773l33.941-1.7852-6.6875 35.102c-0.92969 4.8828 0.12109 9.9375 2.918 14.051s7.1133 6.9453 11.996 7.875c1.1641 0.21875 2.3477 0.32812 3.5312 0.32812 4.3594-0.003906 8.582-1.5312 11.938-4.3125 3.3594-2.7812 5.6445-6.6484 6.457-10.93l9.9062-52 22.848-19.848-0.61328 3.2188c-0.92969 4.8867 0.12109 9.9414 2.918 14.055 2.7969 4.1094 7.1133 6.9414 11.996 7.875 1.1641 0.21484 2.3477 0.32812 3.5312 0.32812 4.3594-0.003906 8.582-1.5312 11.941-4.3125 3.3555-2.7812 5.6406-6.6484 6.4531-10.93l9.5195-49.977 155.56-135.14-2.5234 5.25h0.003907c-2.9023 6.0352-2.3594 13.164 1.418 18.695s10.219 8.6289 16.898 8.1211c6.6797-0.50781 12.582-4.5391 15.484-10.578l42.734-88.895c2.1406-4.4609 2.4336-9.5859 0.8125-14.262-1.625-4.6758-5.0273-8.5195-9.4688-10.695-4.4453-2.1797-9.5703-2.5117-14.258-0.92578l-91.414 30.934c-6.3359 2.1562-11.043 7.5234-12.355 14.086-1.3086 6.5664 0.98047 13.328 6.0078 17.75 5.0234 4.418 12.027 5.8242 18.367 3.6875l3.2812-1.1094-152.48 132.46z"/>
  <path d="m281.25 506.25h9.375c4.9922 0.027344 9.7852-1.9375 13.324-5.457 3.5391-3.5156 5.5273-8.3008 5.5273-13.293 0-4.9883-1.9883-9.7734-5.5273-13.293-3.5391-3.5195-8.332-5.4844-13.324-5.457h-9.375c-4.9922-0.027344-9.7852 1.9375-13.324 5.457-3.5391 3.5195-5.5273 8.3047-5.5273 13.293 0 4.9922 1.9883 9.7773 5.5273 13.293 3.5391 3.5195 8.332 5.4844 13.324 5.457z"/>
  <path d="m346.88 468.75c-4.9922-0.027344-9.7852 1.9375-13.324 5.457-3.5391 3.5195-5.5273 8.3047-5.5273 13.293 0 4.9922 1.9883 9.7773 5.5273 13.293 3.5391 3.5195 8.332 5.4844 13.324 5.457h9.375c4.9922 0.027344 9.7852-1.9375 13.324-5.457 3.5391-3.5156 5.5273-8.3008 5.5273-13.293 0-4.9883-1.9883-9.7734-5.5273-13.293-3.5391-3.5195-8.332-5.4844-13.324-5.457z"/>
  <path d="m215.62 468.75c-4.9922-0.027344-9.7852 1.9375-13.324 5.457-3.5391 3.5195-5.5273 8.3047-5.5273 13.293 0 4.9922 1.9883 9.7773 5.5273 13.293 3.5391 3.5195 8.332 5.4844 13.324 5.457h9.375c4.9922 0.027344 9.7852-1.9375 13.324-5.457 3.5391-3.5156 5.5273-8.3008 5.5273-13.293 0-4.9883-1.9883-9.7734-5.5273-13.293-3.5391-3.5195-8.332-5.4844-13.324-5.457z"/>
  <path d="m225 731.25c6.6992 0 12.887-3.5742 16.238-9.375 3.3477-5.8008 3.3477-12.949 0-18.75-3.3516-5.8008-9.5391-9.375-16.238-9.375h-9.375c-6.6992 0-12.887 3.5742-16.238 9.375-3.3477 5.8008-3.3477 12.949 0 18.75 3.3516 5.8008 9.5391 9.375 16.238 9.375z"/>
  <path d="m356.25 731.25c6.6992 0 12.887-3.5742 16.238-9.375 3.3477-5.8008 3.3477-12.949 0-18.75-3.3516-5.8008-9.5391-9.375-16.238-9.375h-9.375c-6.6992 0-12.887 3.5742-16.238 9.375-3.3477 5.8008-3.3477 12.949 0 18.75 3.3516 5.8008 9.5391 9.375 16.238 9.375z"/>
  <path d="m290.62 693.75h-9.375c-6.6992 0-12.887 3.5742-16.238 9.375-3.3477 5.8008-3.3477 12.949 0 18.75 3.3516 5.8008 9.5391 9.375 16.238 9.375h9.375c6.6992 0 12.887-3.5742 16.238-9.375 3.3477-5.8008 3.3477-12.949 0-18.75-3.3516-5.8008-9.5391-9.375-16.238-9.375z"/>
 </g>
</svg>
