<svg xmlns="http://www.w3.org/2000/svg" width="1600" height="1600" viewBox="0 0 1200 1200"><path d="M498 272.4c-9.602-37.199-45.602-82.801-132-82.801-68.398 0-100.8 27.602-126 50.398-20.398 18-36 31.199-68.398 31.199h-44.398v48h44.398c32.398 0 46.801 13.199 68.398 31.199 25.199 22.801 57.602 50.398 126 50.398 87.602 0 122.4-45.602 132-82.801L651.6 408V183.6zm-132 81.602c-50.398 0-70.801-18-94.801-38.398-7.2-6-15.602-13.199-24-19.199 8.398-6 16.801-13.199 24-19.199 24-20.398 44.398-38.398 94.801-38.398 84 0 87.602 52.801 87.602 57.602 0 2.394 0 57.594-87.602 57.594zm237.6-28.801L553.202 296.4l50.398-28.801zM711.6 272.4h72v48h-72zM861.6 272.4h78v48h-78zM1017.6 272.4h72v48h-72zM600 1099.2c-175.2 0-318-142.8-318-318s142.8-318 318-318 318 142.8 318 318-142.8 318-318 318m0-576c-142.8 0-258 115.2-258 258s115.2 258 258 258 258-115.2 258-258-115.2-258-258-258"/><path d="M600 975.6c-106.8 0-194.4-87.602-194.4-194.4 0-106.8 87.598-194.4 194.4-194.4s194.4 87.602 194.4 194.4c0 106.8-87.598 194.4-194.4 194.4m0-328.8c-74.398 0-134.4 60-134.4 134.4 0 74.398 60 134.4 134.4 134.4s134.4-60 134.4-134.4c0-74.398-60-134.4-134.4-134.4"/><path d="M652.8 781.2c0 29.16-23.641 52.801-52.801 52.801s-52.801-23.641-52.801-52.801 23.641-52.801 52.801-52.801S652.8 752.04 652.8 781.2M138.22 358.39l60.238 60.254-16.973 16.969-60.238-60.254zM182.49 156.86l16.969 16.969-60.246 60.246-16.969-16.969zM82.801 391.2h24v81.602h-24zM82.801 124.8h24v81.602h-24z"/></svg>