<svg xmlns="http://www.w3.org/2000/svg" width="1600" height="1600" viewBox="0 0 1200 1200"><path d="m1196.6 577.84-61.102-76.285c-7.96-10.039-20.082-15.797-32.938-15.797H481.13c-21.918 0-40.531-16.039-43.715-37.715v-.246c-11.145-72.121-73.594-127.35-148.9-127.35-71.266 0-131.02 49.469-146.7 115.96-4.531 18.98-19.594 34.164-38.695 38.328C43.858 487.715.02 534.489.02 600.005s43.836 112.29 103.22 125.39c19.102 4.164 34.164 19.348 38.695 38.328 15.672 66.488 75.43 115.96 146.7 115.96s130.16-48.734 146.2-114.49c4.04-16.531 21.062-26.57 37.594-22.777l64.039 14.816c9.918 2.203 19.348-5.266 19.348-15.43v-17.02c0-5.879 4.777-10.531 10.531-10.531h29.754c5.879 0 11.387-2.45 15.43-6.734l38.938-41.754c8.57-9.184 23.145-8.938 31.348.613l33.918 39.184c6.367 7.222 17.633 7.222 23.879 0l33.305-38.45c8.328-9.796 23.512-9.796 31.836 0l33.305 38.45c6.367 7.222 17.633 7.222 23.879 0l33.305-38.45c8.45-9.671 23.512-9.671 31.961 0l33.305 38.45c6.246 7.222 17.633 7.222 23.879 0l30.855-35.754c9.184-10.652 25.961-9.43 33.672 2.328l13.594 21.062c5.266 8.082 16.531 9.672 23.754 3.183l108.49-97.223c6.246-5.632 6.98-15.062 1.836-21.672zM137.9 665.27c-35.266 0-63.918-29.266-63.918-65.266s28.652-65.145 63.918-65.145 63.918 29.145 63.918 65.145-28.652 65.266-63.918 65.266"/></svg>