<?xml version="1.0" encoding="UTF-8"?>
<svg width="1200pt" height="1200pt" version="1.1" viewBox="0 0 1200 1200" xmlns="http://www.w3.org/2000/svg">
 <g>
  <path d="m571.36 1030.7c-189.87-1.2695-353.58-134.39-394.95-319.42-41.699-186.49 61.453-375.83 232.48-454.13 170.46-78.039 380.86-17.461 489.48 133.01 111.57 154.57 98.379 370.8-30.469 510.8-76.145 82.73-184.51 128.98-296.55 129.73-40.934 0.27344-40.961 63.777 0 63.5 198.52-1.3438 374.82-127.9 441.76-314.3 66.109-184.09 0.36328-398.83-151.98-519.18-155.3-122.68-376.32-133.26-542.92-26.391-167.17 107.23-246.1 312.91-200.48 504.97 49.223 207.23 242.81 353.48 453.61 354.89 40.969 0.27344 40.941-63.227 0.003906-63.5z"/>
  <path d="m817.65 760.75c-51.738 93.859-139.43 144.79-246.31 145.66-106.45 0.87109-195.21-52.965-246.3-145.66v10.68c11.336-16.793 38-21.047 56.109-26.531 20.113-6.0859 40.648-10.688 61.273-14.645 42.695-8.1797 86.297-10.84 129.7-10.684 43.836 0.14844 87.941 3.9766 131.16 11.262 20.762 3.4961 41.207 8.543 61.371 14.555 17.219 5.1406 42.152 10.406 52.992 26.039 7.7148 11.137 26.07 0.56641 18.27-10.68-22.297-32.18-76.07-39.898-111.52-47.395-49.812-10.531-101.46-14.273-152.27-14.949-50.59-0.67188-101.18 4.3477-150.72 14.496-25.891 5.3008-51.289 12.785-76.23 21.449-15.891 5.5273-28.844 12.219-38.414 26.395-2.1172 3.1367-1.75 7.5117 0 10.68 55.258 100.27 150.48 155.21 264.58 156.15 113.64 0.92969 210-57.109 264.58-156.15 6.5977-11.949-11.688-22.625-18.27-10.672z"/>
  <path d="m826.79 766.1c-99.641-47.766-205.7-54.574-313.49-47.766-68.398 4.3164-135.43 16.082-197.41 47.758-15.68-30.215-24.445-62.219-27.844-96.227-1.8359-18.348 2.4219-23.691 21.672-23.551 125.05 0.92578 250.11 0.46875 375.16 0.46875 50.188 0 100.39 0.70312 150.55-0.38281 16.898-0.37109 20.594 4.9883 19.309 20.992-2.8086 34.93-11.84 67.73-27.949 98.707z" fill-rule="evenodd"/>
  <path d="m832.13 756.96c-81.102-38.031-168.42-51.578-257.45-51.43-90.32 0.14844-182.41 10.75-264.12 51.422 4.8242 1.2656 9.6523 2.5312 14.477 3.793-12.625-25.219-20.512-51.457-24.984-79.25-1.0391-6.4375-2.5391-15.203-1.5586-22.027 0.58594-4.0586 18.207-2.5273 19.57-2.5195 16.672 0.11719 33.348 0.20703 50.023 0.28125 66.691 0.30078 133.39 0.26562 200.09 0.21094 64-0.054687 128 0 192 0.13672 16.727 0.039063 33.453-0.03125 50.184-0.19141 11.352-0.10938 34.594-6.6758 33.805 10.004-1.5273 32.316-12.102 64.664-26.5 93.359-6.1055 12.164 12.148 22.887 18.27 10.68 15.406-30.691 24.602-62.52 28.699-96.59 2.8398-23.605-3.8555-38.559-29.195-39.027-88.973-1.6367-178.26 0.38281-267.27 0.45703-86.148 0.070313-172.3 0.066407-258.45-0.55078-22.914-0.16406-33.852 11.391-32.254 34.133 2.4805 35.402 13.48 69.992 29.285 101.57 2.707 5.4023 9.5898 6.2344 14.477 3.793 76.445-38.047 161.5-46.93 245.8-48.453 87.395-1.5781 174.8 11.125 254.42 48.461 12.281 5.7734 23.039-12.469 10.688-18.258z"/>
  <path d="m761.69 486.58c25.988 12.633 49.352 24.098 72.82 35.367 12.75 6.125 24.449 13.648 16.141 29.84-8.0508 15.703-21.148 11.656-33.965 5.4648-33.934-16.387-67.969-32.566-101.98-48.773-9.8125-4.6797-19.852-9.2812-19.43-22.477 0.37109-11.848 9.6992-16.535 18.582-20.812 35.422-17.055 71.082-33.637 106.49-50.738 13.16-6.3633 24.621-5.5234 31.039 8.3477 6.2031 13.402-2.2656 21.445-13.758 27-24.293 11.734-48.539 23.512-75.934 36.781z"/>
  <path d="m756.35 495.72c15.715 7.6445 31.418 15.309 47.129 22.949 8.5547 4.1562 17.121 8.293 25.688 12.422 3.1328 1.457 6.1562 3.1133 9.0703 4.9688-2.0273 14.363-7.4336 18.383-16.215 12.062-37.164-16.895-75.918-33.711-111.47-53.746-15.941-8.9844 4.707-18.082 8.6406-20.031 9.3867-4.6641 18.914-9.0625 28.379-13.562 18.938-9.0078 37.906-17.949 56.836-26.973 4.7344-2.2578 9.4609-4.5195 14.188-6.7891 10.391-8.8125 16.52-5.1094 18.391 11.117-7.2812 5.1055-16.645 8.3086-24.629 12.176-18.672 9.0352-37.336 18.094-56.004 27.141-12.281 5.9531-1.5391 24.203 10.68 18.277 16.434-7.9648 32.863-15.93 49.297-23.895 14.004-6.7812 29.719-12.199 40.965-23.273 16.66-16.391 0.97656-43.836-18.418-48.055-10.777-2.3398-21.648 3.7461-30.965 8.2344-18.895 9.1016-37.859 18.043-56.812 27.023-17.996 8.5273-69.336 21.949-66.414 50.254 3.1055 30.125 37.449 37.691 61.121 48.973 19.441 9.2617 38.863 18.559 58.266 27.902 10.367 4.9922 22.195 11.957 34.199 10.051 19.621-3.1133 35.031-30.914 19.691-47.324-10.016-10.715-24.383-15.809-37.34-22.082-17.883-8.6562-35.723-17.395-53.586-26.086-12.219-5.957-22.957 12.293-10.684 18.266z"/>
  <path d="m380.36 486.63c-27.336-13.203-50.793-24.828-74.523-35.879-12.719-5.9219-21.348-14.348-14.906-28.664 6.4883-14.438 18.609-13.484 31.234-7.4336 35.438 17 70.957 33.824 106.44 50.727 9.1914 4.3906 17.93 9.8281 17.922 21.242-0.003906 11.391-8.6289 16.879-17.898 21.258-35.535 16.777-71.18 33.32-106.5 50.559-13.113 6.4023-24.828 6.5664-31.238-7.3516-6.5234-14.176 2.3203-22.668 15.051-28.59 23.672-10.996 47.047-22.629 74.418-35.867z"/>
  <path d="m385.7 477.49c-16.188-7.8359-32.348-15.727-48.543-23.551-8.6328-4.1641-17.297-8.2617-25.98-12.328-9.6602-2.8594-8.7266-9.1914 2.8086-19.008 6.0469 2.7383 12.059 5.5586 18.027 8.4609 17.73 8.4805 35.477 16.922 53.223 25.359 11.266 5.3594 48.812 15.805 50.703 30.191 1.4648 11.172-33.723 22.043-41.098 25.508-18.965 8.9141-37.922 17.855-56.828 26.902-4.7227 2.2656-9.4453 4.543-14.156 6.8281-8.6992 7.1094-14.621 3.2656-17.758-11.523 7.2969-4.9727 16.621-8.0664 24.578-11.863 18.402-8.7812 36.684-17.812 55.031-26.707 12.281-5.9531 1.5469-24.203-10.68-18.277-16.176 7.8398-32.32 15.75-48.508 23.57-14.195 6.8633-29.875 12.137-41.383 23.219-13.508 13.02-5.5781 44.488 13.801 47.758 10.719 1.8086 18.637-0.26953 28.539-4.4648 19.219-8.1367 37.84-18.215 56.719-27.133 18.105-8.5469 36.461-16.68 54.32-25.734 8.7969-4.4609 16.602-12.875 17.91-22.863 3.9922-30.523-31.055-39.695-52.895-50.082-20.281-9.6445-40.559-19.297-60.824-28.977-11.629-5.5586-25.336-14.555-38.898-12.5-21.656 3.2734-31.734 28.523-20.336 46.547 7.4219 11.738 24.727 16.645 36.473 22.246 18.414 8.7852 36.715 17.801 55.086 26.688 12.219 5.9297 22.953-12.32 10.668-18.266z"/>
 </g>
</svg>
