<svg xmlns="http://www.w3.org/2000/svg" xmlns:xlink="http://www.w3.org/1999/xlink" version="1.1" x="0px" y="0px" viewBox="0 0 128 160" xml:space="preserve"><path d="M51.7,48.3c0.9,0.7,2.1,0.6,2.8-0.3c0.7-0.9,0.6-2.1-0.3-2.8c-7.4-6.1-18.4-6-25.7,0.2c-0.8,0.7-0.9,2-0.2,2.8  c0.4,0.5,1,0.7,1.5,0.7c0.5,0,0.9-0.2,1.3-0.5C37,43.4,45.8,43.4,51.7,48.3z"/><path d="M75.5,45.4c-0.8,0.7-0.9,2-0.2,2.8c0.4,0.5,1,0.7,1.5,0.7c0.5,0,0.9-0.2,1.3-0.5c5.9-5,14.7-5,20.6-0.2  c0.8,0.7,2.1,0.6,2.8-0.3c0.7-0.9,0.6-2.1-0.3-2.8C93.9,39.1,82.8,39.2,75.5,45.4z"/><path d="M64,0C28.7,0,0,28.7,0,64s28.7,64,64,64c35.3,0,64-28.7,64-64S99.3,0,64,0z M64,124C30.9,124,4,97.1,4,64S30.9,4,64,4  s60,26.9,60,60S97.1,124,64,124z"/><path d="M64,106c18,0,32.6-13.4,33-30H31C31.4,92.6,46,106,64,106z M84.4,94.3c-5.5,5-12.7,7.7-20.4,7.7s-14.9-2.7-20.4-7.7  c-4.3-3.9-7.1-8.9-8.2-14.3h57.1C91.5,85.4,88.7,90.4,84.4,94.3z"/></svg>