<svg xmlns="http://www.w3.org/2000/svg" xml:space="preserve" viewBox="0 0 128 160"><path d="M51.7 48.3c.9.7 2.1.6 2.8-.3s.6-2.1-.3-2.8c-7.4-6.1-18.4-6-25.7.2-.8.7-.9 2-.2 2.8.4.5 1 .7 1.5.7s.9-.2 1.3-.5c5.9-5 14.7-5 20.6-.1M75.5 45.4c-.8.7-.9 2-.2 2.8.4.5 1 .7 1.5.7s.9-.2 1.3-.5c5.9-5 14.7-5 20.6-.2.8.7 2.1.6 2.8-.3s.6-2.1-.3-2.8c-7.3-6-18.4-5.9-25.7.3"/><path d="M64 0C28.7 0 0 28.7 0 64s28.7 64 64 64 64-28.7 64-64S99.3 0 64 0m0 124C30.9 124 4 97.1 4 64S30.9 4 64 4s60 26.9 60 60-26.9 60-60 60"/><path d="M64 106c18 0 32.6-13.4 33-30H31c.4 16.6 15 30 33 30m20.4-11.7c-5.5 5-12.7 7.7-20.4 7.7s-14.9-2.7-20.4-7.7c-4.3-3.9-7.1-8.9-8.2-14.3h57.1c-1 5.4-3.8 10.4-8.1 14.3"/></svg>