<svg xmlns="http://www.w3.org/2000/svg" width="1600" height="1600" viewBox="0 0 1200 1200"><path d="M571.36 1030.7c-189.87-1.27-353.58-134.39-394.95-319.42-41.699-186.49 61.453-375.83 232.48-454.13 170.46-78.039 380.86-17.461 489.48 133.01 111.57 154.57 98.379 370.8-30.469 510.8-76.145 82.73-184.51 128.98-296.55 129.73-40.934.273-40.961 63.777 0 63.5 198.52-1.344 374.82-127.9 441.76-314.3 66.109-184.09.363-398.83-151.98-519.18-155.3-122.68-376.32-133.26-542.92-26.391-167.17 107.23-246.1 312.91-200.48 504.97 49.223 207.23 242.81 353.48 453.61 354.89 40.969.273 40.941-63.227.004-63.5z"/><path d="M817.65 760.75c-51.738 93.859-139.43 144.79-246.31 145.66-106.45.871-195.21-52.965-246.3-145.66v10.68c11.336-16.793 38-21.047 56.109-26.531 20.113-6.086 40.648-10.688 61.273-14.645 42.695-8.18 86.297-10.84 129.7-10.684 43.836.148 87.941 3.977 131.16 11.262 20.762 3.496 41.207 8.543 61.371 14.555 17.219 5.14 42.152 10.406 52.992 26.039 7.715 11.137 26.07.566 18.27-10.68-22.297-32.18-76.07-39.898-111.52-47.395-49.812-10.531-101.46-14.273-152.27-14.949-50.59-.672-101.18 4.348-150.72 14.496-25.891 5.3-51.289 12.785-76.23 21.449-15.891 5.527-28.844 12.219-38.414 26.395-2.117 3.137-1.75 7.512 0 10.68 55.258 100.27 150.48 155.21 264.58 156.15 113.64.93 210-57.109 264.58-156.15 6.598-11.949-11.688-22.625-18.27-10.672z"/><path fill-rule="evenodd" d="M826.79 766.1c-99.641-47.766-205.7-54.574-313.49-47.766-68.398 4.316-135.43 16.082-197.41 47.758-15.68-30.215-24.445-62.219-27.844-96.227-1.836-18.348 2.422-23.691 21.672-23.551 125.05.926 250.11.469 375.16.469 50.188 0 100.39.703 150.55-.383 16.898-.371 20.594 4.988 19.309 20.992-2.809 34.93-11.84 67.73-27.949 98.707z"/><path d="M832.13 756.96c-81.102-38.031-168.42-51.578-257.45-51.43-90.32.148-182.41 10.75-264.12 51.422q7.238 1.9 14.477 3.793c-12.625-25.219-20.512-51.457-24.984-79.25-1.04-6.437-2.54-15.203-1.559-22.027.586-4.059 18.207-2.527 19.57-2.52 16.672.118 33.348.208 50.023.282 66.691.3 133.39.265 200.09.21 64-.054 128 0 192 .137 16.727.04 33.453-.03 50.184-.191 11.352-.11 34.594-6.676 33.805 10.004-1.527 32.316-12.102 64.664-26.5 93.359-6.105 12.164 12.148 22.887 18.27 10.68 15.406-30.691 24.602-62.52 28.7-96.59 2.84-23.605-3.856-38.559-29.196-39.027-88.973-1.637-178.26.383-267.27.457-86.148.07-172.3.066-258.45-.55-22.914-.165-33.852 11.39-32.254 34.132 2.48 35.402 13.48 69.992 29.285 101.57 2.707 5.403 9.59 6.235 14.477 3.793 76.445-38.047 161.5-46.93 245.8-48.453 87.395-1.578 174.8 11.125 254.42 48.461 12.281 5.774 23.04-12.469 10.688-18.258zM761.69 486.58c25.988 12.633 49.352 24.098 72.82 35.367 12.75 6.125 24.449 13.648 16.141 29.84-8.05 15.703-21.148 11.656-33.965 5.465-33.934-16.387-67.969-32.566-101.98-48.773-9.813-4.68-19.852-9.281-19.43-22.477.371-11.848 9.7-16.535 18.582-20.812 35.422-17.055 71.082-33.637 106.49-50.738 13.16-6.364 24.621-5.524 31.039 8.347 6.203 13.402-2.266 21.445-13.758 27-24.293 11.734-48.539 23.512-75.934 36.781z"/><path d="M756.35 495.72c15.715 7.645 31.418 15.309 47.129 22.949a9094 9094 0 0 0 25.688 12.422 78.5 78.5 0 0 1 9.07 4.969q-3.041 21.544-16.215 12.062c-37.164-16.895-75.918-33.711-111.47-53.746-15.94-8.985 4.707-18.082 8.64-20.031 9.388-4.664 18.915-9.063 28.38-13.562 18.938-9.008 37.906-17.95 56.836-26.973 4.734-2.258 9.46-4.52 14.188-6.79 10.39-8.812 16.52-5.109 18.39 11.118-7.28 5.105-16.644 8.308-24.628 12.176-18.672 9.035-37.336 18.094-56.004 27.14-12.281 5.954-1.54 24.204 10.68 18.278l49.297-23.895c14.004-6.781 29.719-12.2 40.965-23.273 16.66-16.391.976-43.836-18.418-48.055-10.777-2.34-21.648 3.746-30.965 8.234-18.895 9.102-37.86 18.043-56.812 27.023-17.996 8.527-69.336 21.95-66.414 50.254 3.105 30.125 37.449 37.691 61.12 48.973a15502 15502 0 0 1 58.267 27.902c10.367 4.992 22.195 11.957 34.199 10.051 19.62-3.113 35.03-30.914 19.69-47.324-10.015-10.715-24.382-15.809-37.34-22.082-17.882-8.656-35.722-17.395-53.585-26.086-12.22-5.957-22.957 12.293-10.684 18.266zM380.36 486.63c-27.336-13.203-50.793-24.828-74.523-35.879-12.719-5.922-21.348-14.348-14.906-28.664 6.488-14.438 18.609-13.484 31.234-7.434 35.438 17 70.957 33.824 106.44 50.727 9.191 4.391 17.93 9.828 17.922 21.242-.004 11.391-8.629 16.88-17.898 21.258-35.535 16.777-71.18 33.32-106.5 50.56-13.113 6.402-24.828 6.566-31.238-7.352-6.523-14.176 2.32-22.668 15.051-28.59 23.672-10.996 47.047-22.63 74.418-35.867z"/><path d="M385.7 477.49c-16.188-7.836-32.348-15.727-48.543-23.551a2509 2509 0 0 0-25.98-12.328c-9.66-2.86-8.727-9.191 2.809-19.008a726 726 0 0 1 18.027 8.46c17.73 8.481 35.477 16.923 53.223 25.36 11.266 5.36 48.812 15.805 50.703 30.19 1.464 11.173-33.723 22.044-41.098 25.509-18.965 8.914-37.922 17.855-56.828 26.902a3615 3615 0 0 0-14.156 6.828c-8.7 7.11-14.621 3.266-17.758-11.523 7.296-4.973 16.62-8.066 24.578-11.863 18.402-8.781 36.684-17.812 55.03-26.707 12.282-5.953 1.547-24.203-10.68-18.277-16.175 7.84-32.32 15.75-48.507 23.57-14.195 6.863-29.875 12.137-41.383 23.219-13.508 13.02-5.579 44.488 13.8 47.758 10.72 1.809 18.638-.27 28.54-4.465 19.219-8.136 37.84-18.215 56.719-27.133 18.105-8.547 36.46-16.68 54.32-25.734 8.796-4.46 16.602-12.875 17.91-22.863 3.992-30.523-31.055-39.695-52.895-50.082a38866 38866 0 0 1-60.824-28.977c-11.63-5.558-25.336-14.555-38.898-12.5-21.656 3.274-31.734 28.523-20.336 46.547 7.421 11.738 24.727 16.645 36.473 22.246 18.414 8.785 36.715 17.801 55.086 26.688 12.219 5.93 22.953-12.32 10.668-18.266z"/></svg>