<?xml version="1.0" encoding="UTF-8"?>
<svg width="1200pt" height="1200pt" version="1.1" viewBox="0 0 1200 1200" xmlns="http://www.w3.org/2000/svg">
 <g>
  <path d="m1110.2 594.72h-121.68c-9.3867 0-18.062 5.0117-22.758 13.141-4.6953 8.1328-4.6953 18.148 0 26.281 4.6953 8.1289 13.371 13.141 22.758 13.141h121.68c9.3906 0 18.066-5.0117 22.762-13.141 4.6953-8.1328 4.6953-18.148 0-26.281-4.6953-8.1289-13.371-13.141-22.762-13.141z"/>
  <path d="m946.44 458.16c4.75 0.09375 9.4375-1.1094 13.559-3.4805l105.36-60.84c8.1875-4.7812 13.207-13.566 13.16-23.047s-5.1445-18.219-13.379-22.922c-8.2344-4.6992-18.352-4.6523-26.539 0.12891l-105.36 61.199c-6.7578 3.875-11.453 10.551-12.809 18.227-1.3555 7.6758 0.76172 15.555 5.7852 21.512 5.0234 5.9609 12.434 9.3828 20.227 9.3438z"/>
  <path d="m901.2 156c-5.7109-3.7695-12.664-5.168-19.387-3.8906s-12.684 5.1289-16.613 10.73l-68.641 100.56c-4.4414 5.7422-6.3125 13.066-5.1641 20.234 1.1445 7.1719 5.207 13.547 11.219 17.613 6.0117 4.0703 13.441 5.4727 20.523 3.8711 7.082-1.6016 13.184-6.0586 16.863-12.316l68.16-100.8c3.7578-5.7227 5.1367-12.691 3.8359-19.414-1.3008-6.7227-5.1758-12.676-10.797-16.586z"/>
  <path d="m381.84 304.2c6.4219 0.015625 12.625-2.3203 17.441-6.5703 4.8164-4.2461 7.9102-10.109 8.6992-16.484 0.78906-6.3711-0.78516-12.812-4.4219-18.105l-68.641-100.56h0.003906c-3.7891-6.0586-9.8789-10.316-16.871-11.793-6.9883-1.4727-14.281-0.035156-20.191 3.9805s-9.9297 10.266-11.133 17.309c-1.2031 7.043 0.51172 14.273 4.7539 20.023l68.52 100.8c4.9375 7.1875 13.121 11.457 21.84 11.398z"/>
  <path d="m265.68 409.2-105.48-61.199c-8.0938-4.3008-17.848-4.0742-25.73 0.60156-7.8867 4.6719-12.766 13.117-12.879 22.285-0.11328 9.1641 4.5625 17.727 12.332 22.594l105.36 60.84c6.043 3.7852 13.367 4.9492 20.289 3.2305 6.918-1.7227 12.844-6.1797 16.414-12.355 3.5664-6.1758 4.4727-13.535 2.5078-20.391-1.9688-6.8555-6.6328-12.617-12.934-15.965z"/>
  <path d="m1064.9 843.12-104.88-60.84c-8.168-4.7812-18.266-4.8398-26.488-0.16016-8.2227 4.6836-13.324 13.398-13.379 22.863-0.054687 9.4609 4.9414 18.234 13.105 23.016l105.36 60.84h0.003906c8.0938 4.3008 17.844 4.0742 25.73-0.60156 7.8867-4.6719 12.766-13.117 12.879-22.285 0.10937-9.1641-4.5625-17.727-12.332-22.594z"/>
  <path d="m239.4 782.28-105.36 60.84c-6.2969 3.3438-10.965 9.1094-12.93 15.965-1.9648 6.8555-1.0586 14.215 2.5078 20.391 3.5703 6.1719 9.4922 10.633 16.414 12.355 6.9219 1.7188 14.246 0.55469 20.289-3.2305l105.36-60.602c7.7695-4.8672 12.441-13.426 12.332-22.594-0.11328-9.168-4.9922-17.613-12.879-22.285-7.8867-4.6758-17.637-4.9023-25.734-0.60156z"/>
  <path d="m237.72 621c0-6.9688-2.7656-13.656-7.6953-18.582-4.9297-4.9297-11.613-7.6992-18.582-7.6992h-121.68c-9.3906 0-18.066 5.0117-22.762 13.141-4.6953 8.1328-4.6953 18.148 0 26.281 4.6953 8.1289 13.371 13.141 22.762 13.141h121.68c6.9688 0 13.652-2.7695 18.582-7.6992 4.9297-4.9258 7.6953-11.613 7.6953-18.582z"/>
  <path d="m599.04 234.24c6.9727 0 13.656-2.7656 18.582-7.6953 4.9297-4.9297 7.6992-11.613 7.6992-18.582v-121.68c0-9.3906-5.0078-18.066-13.141-22.762-8.1289-4.6914-18.148-4.6914-26.281 0-8.1289 4.6953-13.137 13.371-13.137 22.762v121.68c0 6.9688 2.7656 13.652 7.6953 18.582 4.9297 4.9297 11.613 7.6953 18.582 7.6953z"/>
  <path d="m703.56 939h-209.04c-9.3867 0-18.062 5.0078-22.758 13.141-4.6953 8.1289-4.6953 18.148 0 26.281 4.6953 8.1289 13.371 13.137 22.758 13.137h209.04c9.3906 0 18.066-5.0078 22.762-13.137 4.6914-8.1328 4.6914-18.152 0-26.281-4.6953-8.1328-13.371-13.141-22.762-13.141z"/>
  <path d="m544.8 1095.7v14.402c0 7.9023 3.1289 15.484 8.707 21.086 5.5781 5.5977 13.148 8.7617 21.051 8.793h42.48c7.8828-0.03125 15.434-3.1758 21.008-8.75s8.7227-13.125 8.7539-21.012v-13.918c16.473-0.91797 31.973-8.082 43.344-20.031 11.375-11.953 17.758-27.793 17.855-44.289h-218.52c0.089843 15.477 5.7188 30.41 15.867 42.098 10.145 11.688 24.141 19.359 39.453 21.621z"/>
  <path d="m599.04 342.96c-145.92 0-264 121.44-264 271.08-0.039062 34.836 6.5156 69.363 19.32 101.76 1.6016 4 3.2812 8 5.0391 12 11.449 25.469 26.746 49.023 45.363 69.84l67.078 103.08h254.64l67.078-103.08c18.617-20.816 33.914-44.371 45.363-69.84 1.7617-3.9219 3.4414-7.9219 5.0391-12 12.805-32.398 19.359-66.926 19.32-101.76 0-149.76-118.32-271.08-264.24-271.08zm-12 99.84c-27.77 1.6445-54.754 9.8711-78.719 24-50.281 29.879-76.441 84-77.762 159.24-0.125 6.8867-2.9492 13.449-7.8633 18.273-4.9141 4.8242-11.527 7.5273-18.414 7.5273-6.9727-0.125-13.605-3.0156-18.445-8.0352-4.8398-5.0195-7.4844-11.754-7.3555-18.727 2.0391-120 58.68-177.72 105.84-204.84 31.523-18.012 66.922-28.18 103.2-29.637 9.3906 0 18.066 5.0078 22.758 13.137 4.6953 8.1328 4.6953 18.152 0 26.281-4.6914 8.1328-13.367 13.141-22.758 13.141z"/>
 </g>
</svg>
