<svg xmlns="http://www.w3.org/2000/svg" width="1600" height="1600" viewBox="0 0 1200 1200"><path d="M1110.2 594.72H988.52a26.29 26.29 0 0 0-22.758 13.141 26.28 26.28 0 0 0 0 26.281 26.29 26.29 0 0 0 22.758 13.141h121.68a26.29 26.29 0 0 0 22.762-13.141 26.28 26.28 0 0 0 0-26.281 26.29 26.29 0 0 0-22.762-13.141M946.44 458.16c4.75.094 9.438-1.11 13.559-3.48l105.36-60.84a26.54 26.54 0 0 0-.219-45.97 26.54 26.54 0 0 0-26.539.13l-105.36 61.198a26.285 26.285 0 0 0-7.024 39.74 26.28 26.28 0 0 0 20.227 9.343zM901.2 156c-5.71-3.77-12.664-5.168-19.387-3.89s-12.684 5.128-16.613 10.73L796.559 263.4a26.28 26.28 0 0 0-5.164 20.233 26.26 26.26 0 0 0 11.219 17.613 26.27 26.27 0 0 0 20.523 3.872A26.29 26.29 0 0 0 840 292.802l68.16-100.8a26.28 26.28 0 0 0-6.961-36zM381.84 304.2a26.26 26.26 0 0 0 17.441-6.57 26.274 26.274 0 0 0 4.277-34.59l-68.64-100.56h.003a26.31 26.31 0 0 0-16.87-11.792c-6.99-1.473-14.282-.035-20.192 3.98A26.276 26.276 0 0 0 291.48 192L360 292.8a26.28 26.28 0 0 0 21.84 11.398zM265.68 409.2 160.2 348.001a26.27 26.27 0 0 0-25.73.602 26.27 26.27 0 0 0-12.879 22.285 26.28 26.28 0 0 0 12.332 22.594l105.36 60.84a26.29 26.29 0 0 0 20.289 3.23 26.3 26.3 0 0 0 16.414-12.355 26.3 26.3 0 0 0 2.508-20.39 26.3 26.3 0 0 0-12.934-15.966zM1064.9 843.12l-104.88-60.84a26.5 26.5 0 0 0-26.488-.16 26.49 26.49 0 0 0-.274 45.879l105.36 60.84h.004a26.27 26.27 0 0 0 25.73-.602 26.27 26.27 0 0 0 12.879-22.285 26.29 26.29 0 0 0-12.332-22.594zM239.4 782.28l-105.36 60.84a26.27 26.27 0 0 0-12.93 15.965 26.3 26.3 0 0 0 2.508 20.391 26.3 26.3 0 0 0 16.414 12.355 26.29 26.29 0 0 0 20.289-3.23l105.36-60.602a26.275 26.275 0 0 0-.547-44.879 26.28 26.28 0 0 0-25.734-.602zM237.72 621a26.279 26.279 0 0 0-26.277-26.281H89.763A26.29 26.29 0 0 0 67 607.859a26.28 26.28 0 0 0 0 26.282 26.29 26.29 0 0 0 22.762 13.14h121.68a26.28 26.28 0 0 0 26.277-26.28zM599.04 234.24a26.279 26.279 0 0 0 26.281-26.277V86.283A26.28 26.28 0 0 0 585.9 63.52a26.29 26.29 0 0 0-13.137 22.762v121.68a26.276 26.276 0 0 0 26.278 26.277zM703.56 939H494.52a26.28 26.28 0 0 0 0 52.559h209.04c9.39 0 18.066-5.008 22.762-13.137A26.28 26.28 0 0 0 703.56 939M544.8 1095.7v14.402a29.88 29.88 0 0 0 8.707 21.086 29.9 29.9 0 0 0 21.051 8.793h42.48a29.882 29.882 0 0 0 29.762-29.762v-13.918a64.795 64.795 0 0 0 61.199-64.32h-218.52a64.8 64.8 0 0 0 15.867 42.098 64.78 64.78 0 0 0 39.453 21.621zM599.04 342.96c-145.92 0-264 121.44-264 271.08a276 276 0 0 0 19.32 101.76q2.402 6 5.04 12a272.1 272.1 0 0 0 45.362 69.84l67.078 103.08h254.64l67.078-103.08a272.1 272.1 0 0 0 45.363-69.84 267 267 0 0 0 5.04-12 276 276 0 0 0 19.32-101.76c0-149.76-118.32-271.08-264.24-271.08zm-12 99.84a175.4 175.4 0 0 0-78.719 24c-50.281 29.879-76.441 84-77.762 159.24a26.275 26.275 0 0 1-26.277 25.8 26.275 26.275 0 0 1-25.8-26.762c2.038-120 58.68-177.72 105.84-204.84a226.34 226.34 0 0 1 103.2-29.637 26.278 26.278 0 0 1 22.758 39.418 26.27 26.27 0 0 1-22.759 13.141z"/></svg>