<svg xmlns="http://www.w3.org/2000/svg" width="1600" height="1600" viewBox="0 0 1200 1200"><path d="M1186.7 703.73 951.84 938.59 716.98 703.73l-13.273 13.234 234.86 234.9-234.86 234.86 13.273 13.273 234.86-234.9 234.86 234.9 13.273-13.273-234.9-234.86 234.9-234.9zM340.69 0C152.51 0 0 152.51 0 340.69c0 31.539 4.313 62.102 12.336 91.086 3.227 11.625 7.012 22.988 11.398 34.051l10.312 23.477 306.64 566.59 307.01-567.41 9.3-21.148a347 347 0 0 0 12-35.551c8.024-28.988 12.337-59.512 12.337-91.086.004-188.18-152.51-340.69-340.64-340.69zm310.24 426.75c-3.148 11.363-6.977 22.688-11.102 33l-8.625 19.801-290.51 536.93-289.46-534.75-10.051-22.801a324 324 0 0 1-10.762-32.176 322.9 322.9 0 0 1-11.664-86.062c0-177.52 144.41-321.94 321.94-321.94s321.94 144.41 321.94 321.94c-.04 29.176-3.937 58.125-11.699 86.062z"/><path d="M340.69 186.86c-83.25 0-150.71 67.5-150.71 150.71 0 83.25 67.5 150.71 150.71 150.71 83.25 0 150.71-67.5 150.71-150.71 0-83.25-67.5-150.71-150.71-150.71m0 282.71c-72.789 0-131.96-59.211-131.96-131.96 0-72.789 59.211-131.96 131.96-131.96s131.96 59.211 131.96 131.96-59.211 131.96-131.96 131.96"/></svg>