<svg xmlns="http://www.w3.org/2000/svg" width="1600" height="1600" viewBox="0 0 1200 1200"><path d="m571.13 329.73-78.219 34.387q-2.267.907-4.535.906c-4.309 0-8.387-2.492-10.203-6.648l-29.551-67.336c-1.207-2.719-1.285-5.742-.227-8.54 1.059-2.718 3.176-4.988 5.895-6.12l78.297-34.391c5.668-2.493 12.242.074 14.738 5.668l29.55 67.336c1.208 2.718 1.286 5.82.227 8.539-1.136 2.797-3.254 4.988-5.972 6.199zM342.59 885.36h28.871c12.395-4.684 86.531-36.125 86.531-115.4 0-43.832 31.664-69.152 63.105-74.668 29.246-5.14 64.617 5.82 81.316 41.266h205.34a11.16 11.16 0 0 1 11.184 11.184v44.438a11.16 11.16 0 0 1-11.184 11.184h-197.48v81.996h11.941v-31.59c0-6.195 4.988-11.184 11.109-11.184l133.39.004c6.2 0 11.184 4.988 11.184 11.184v31.59h79.508c6.121 0 11.109 4.988 11.109 11.184v51.238c0 6.195-4.988 11.184-11.109 11.184h-514.81c-6.121 0-11.109-4.988-11.109-11.184l-.004-51.234c0-6.2 4.988-11.188 11.113-11.188zm181.3-100.82h20.555c6.121 0 11.109-4.988 11.109-11.184 0-6.121-4.988-11.109-11.109-11.109H523.89c-6.2 0-11.184 4.988-11.184 11.109a11.16 11.16 0 0 0 11.184 11.184"/><path d="m690.08 547.92-116.99 51.391a11.5 11.5 0 0 1-8.54.152c-2.718-1.058-4.913-3.175-6.12-5.894l-14.738-33.555c-18.441 13.98-53.81 48.293-42.32 100.36 1.285 5.82-2.266 11.715-8.012 13.227-2.418.605-58.418 16.25-58.418 74.969 0 4.683-2.945 8.918-7.406 10.504-1.207.379-2.492.605-3.703.605-3.324 0-6.574-1.437-8.692-4.156-2.492-3.023-59.777-75.12-43.379-163.32 10.81-58.27 51.09-108.9 119.86-150.7l-14.207-32.195c-1.132-2.719-1.21-5.82-.152-8.539a11.27 11.27 0 0 1 5.895-6.195l116.99-51.391c5.668-2.492 12.242.074 14.738 5.742l80.94 184.25c1.211 2.719 1.286 5.742.227 8.539-1.137 2.723-3.25 4.988-5.973 6.2z"/><path d="m709.2 643.82-78.293 34.387c-1.512.605-3.023.984-4.535.984-4.23 0-8.387-2.57-10.203-6.726l-19.496-44.363c-1.207-2.723-1.285-5.82-.153-8.54 1.06-2.796 3.176-4.988 5.895-6.199l78.297-34.387c5.594-2.492 12.168.075 14.66 5.743l19.5 44.363c1.207 2.718 1.285 5.82.227 8.539-1.063 2.797-3.254 4.992-5.899 6.199z"/></svg>