<svg xmlns="http://www.w3.org/2000/svg" width="1600" height="1600" viewBox="0 0 1200 1200"><path d="M988.14 720.7v-85.727c0-48.508-17.117-99.543-48.188-143.68-31.07-44.137-73.332-77.477-119.01-93.844l-157.46-56.008v-140.46h-74.926V25.611h-149.85v175.37H363.78l.004 399.02v99.898h98.812v-99.898h102.04v99.898h98.832l-.004-99.898v-99.898l106.91 38.383c34.914 12.508 67.914 59.398 67.914 96.469v84.336c-31.219 17.664-55.461 46.219-67.574 80.492h-406.92v99.898h299.68v99.898h-149.85l-224.73.004c-41.664 0-89.195 31.312-105.62 69.602l-45.133 105.21h850.02v-195.6c44.102-26.082 73.707-74.102 73.707-129.05-.02-54.945-29.609-102.96-73.727-129.04z"/></svg>