<?xml version="1.0" encoding="UTF-8"?>
<svg id="Layer_1" xmlns="http://www.w3.org/2000/svg" version="1.1" viewBox="0 0 471 477">
  <!-- Generator: Adobe Illustrator 29.7.1, SVG Export Plug-In . SVG Version: 2.1.1 Build 8)  -->
  <path d="M268,0l-1.5,2.01,4.51,2.99c1.62-4.18,4.47.73,3.54,2.98-1.76,4.26-6.8-1.11-10.62-.56-9.59,1.37-5.42,14.74-3.92,21.07-5.93-.23-2.69,10.6-2.13,15.12.28,2.24-2.88,7.94,2.82,8.22,1.41.07,6.15-4.83,2.34,2.46-.69,1.32-3.11.93-3.04,3.19.14,4.38,3.38-2.71,4.97-1.47.21.17,1.64,4.12,2.04,4.98,1.73-3.11,2.91-.52,4.67-1.69,4.99-3.33,7.38-9.84,11.78-14.33,1.42-1.45,11.05-9.78,10.51-6.5-.22,1.32-10.77,21.65-12.16,23.85-4.38,6.96-14.44,17.83-22.81,10.68l-1.73,54.23c2.13,4.56,20.58,9.96,26.39,12.6,2.79,1.27,6.5,5.52,8.04,5.96,9.2,2.64,13.27-1.99,22.98,6.51,19.81,17.34,13.23,34.08,20.8,52.71,1.25,3.08,4.11,4.24,5.34,6.66,1.15,2.26,5.64,14.14,6.66,14.3,2.06.33,8.39-10.77,11.01-12.97,1.22-1.02,13.17-8.08,13.97-8.01,3.77.34-.59,2.44-.6,3.46-.03,3.89,2.37,12.68,1.99,16.11-.07.58-1.82.47-2.19,1.65-2.23,7.16.04,3.57,2.58,3.96.96.15,1.97,1.79,2.27,1.78.39,0,4.53-5.83,5-5.98,4.45-1.46,1.15,7.16,4.47.03l1,2.99,2-3.99,1,2.99c-.47-3.48,3.32-2.91,6.01-6.5,3.21-4.3,12.82-18.22,15.08-22.22,1.49-2.63-.71-5.12.04-7.62.27-.91,7.41-14.62,8.57-16.64,2.17-3.8,4.57-2.8,4.33-6,1.81-.41.1,2.91,2.47,1.98,1.81-.7,10.29-9.67,14.16-11.85,5.23-2.95,14.56-3.21,17.62-9.42.69-1.39-.55-3.35-.26-3.72.19-.24,1.89,1.09,1.96,1,.2-.24,2.26-5.77,2.03-5.99-2-1.84-13.47,15.99-17.99,11.98-1.1-.98,11.38-13.05,12.33-14.98.24-.48,1.79-5.8-.82-5.01-2.43,1.64-13.76,17.95-16.51,14.99s10.59-13.5,12.51-15.97c2.2-2.83,10.04-14.46,3.48-11.52,11.41-8.15,2.81,6.21,1,11.49,3.31.65,2.51-3.34,3.02-4,.07-.09,1.91,1.11,1.96,1.01.18-.31.05-8.24,2.95-2.92,1.6,2.93-11.05,14.37,2.06,13.41-3.31,2.94-4.07,8.84-6.14,11.86-5.75,8.35-24.71,18.24-30.72,27.28-15.45,23.22-18.07,56.46-42.8,75.2-2.74,2.08-30.49,18.22-32.3,18.7-8.18,2.12-23.35-1.45-32.03-1.53,2.49,6.83-4.83,47.76-2.94,49.95.42.48,9.29,1.06,11.86,4.63.25.35,2.87,7.67,2.88,8.1.02,1.9-2.16,2.88-2.35,4.77-.69,6.86,8.73,12.18,12.5,17.33,9.55,13.02,20.5,30.3,26.53,45.24,2.87,7.12,5.78,22.78,9.09,27.91.45.69,13.96,11.53,9.93,11.07-.34-.04-3.72-3.31-4.5,1l5.99,1.01h-15.5c-.17,0-1.75,1.56-1.5,1.99,1.21,2.02,12.61.5,12.99,1.02.18.25-2.65,5.29,2,2.98.44-.22-3.3-4.08,1.99-3l-2.99-1.98h3.99s0,18.49,0,18.49c0,.9,11.66,9.78,7,15.5h-109l63-14.01c.45-3.88-1.57-.99-2.5-.99h-43c-1.94,0-9.78,1.36-11.49,2.99l38.49-.99c1.32,1.01-1.34,1.85-2.05,1.95-13.53,1.88-31.15.21-44.94.63-6.51.2-12.92,1.92-19.5,1.43.45,2.83,3.64.99,4.49.99h42.5l-139.5,7.01c-1.14-.2-.05-2.58-.56-2.92-2.06-1.39-18.91,2.32-22.93.92,2.32,1.38,8.45,2.76,10.99,2.99H43c-6.23-10.77,8.46-15.65,9.83-19.75,1.78-5.34-2.57-14.85.76-21.16,2.28-4.32,9.33-5.77,11.22-8.77s2.48-12.39,4.15-16.85c10.37-27.78,27.96-53.33,49.3-73.75.94-2.91-2.21-6.89-2.31-10.26-.38-12,12.95-10.04,15.33-14.68.52-1.02,3.55-18.95,3.72-21.28.26-3.54.22-26.26-1.01-27.5-.98-.99-23.36,3.9-27.64,3.65-6.55-.39-25.29-14.82-30.38-20.12-16.09-16.77-19.96-36.5-30.44-55.56-9.53-17.34-23.03-21.9-32.54-35.46-3.26-4.64-6.51-14.06-8.99-19.5,2.35,3.76,6.46,7.84,8.8,11.15.28.4-1.12,2.08-.67,2.65,6.07,7.77,21.25,11.47,27.13,20.43,8.99.07,10.66,7.03,17.74-3,2.17-3.07.86-7.2,3.97-7.24.77,12.78,14.73,19.5,20,30.51-3.6,1.89-16.73-12.29-17.98-11.5-5,3.13,8.23,14.04,6.49,17.99-1.72-1.58-19.57-22.97-21.5-20.99-1.23,1.25,6.35,13.11,6.13,15.9,4.17-.49,2.78,1.64,2.88,5.09,6.55-5.05.93,2.26,1.02,2.95.01.1,1.73-.2,1.92.77.71,3.73,6.55,18.36,8.05,19.26.38.23,7.09,1.94,8.01,3.03.22.26-1.41,2.61-1.02,2.98.15.14,2.74-.14,3.94.56,7.85,4.62,5.28,1.48,10.52,2.48,3.41.65,8.88,5.84,12.04-.05,4.12-7.67-16.5-6.15-9.49-17.27.79-1.26,2.73-.26,3.06-1.27,1.98-5.97-8.23-12.42-7.07-13.43,2.67-2.32,22.95,19.32,24.47,18.99.6-.13,5.43-8.82,6.53-10.51s3.7-2.14,4.34-3.73c1.31-3.24.09-6.89.9-10.02,3.08-11.9,12.5-36.9,24.53-41.47,5.55-2.11,13.73-1.51,18.45-3.54,2.58-1.11,3.68-4,5.9-5.1,4.42-2.19,22.58-8.43,23.47-11.55,1.62-5.67-6.21-34.28-6.64-43.52-.12-2.65,1.48-11.16,1.04-11.55-.78-.69-16.74-.06-19.46-6.04-1.33-2.38-22.99-25.72-21.52-26.96,4.18-3.55,10.48,7.13,11.29,7.69,1.06.74,11.61,7.14,12.78,7.73,11.85,5.96,4.6-8.55-3.07-7.44,5.51-6.72,19.77,10.05,21.99,8,.75-.69-8.4-8.8-7.93-18.34s25.75-33.51-1.44-29.74c-5.6-9.6,7.48-8.33,13.42-6.47,8.76,2.75,9.63,17.1,6.25,24.26-.85,1.79-4.53,3.58-5.23,5.15-2.09,4.71-.42,15.15,5.51,16.1,2.31.37,1.16-1.8,1.43-1.94,1.15-.59,1.29,3.12,3.5,2.71,1.2-.22,2.78-3.17,5.19-3.53,3.4-.52,5.47,2.49,7,2.65s2.78-2.3,3.28-1.84c1.19,1.12-2.15,4.91-2.63,4.98-2.93.47-5.19-7.35-10.35-2.96-3.7,3.14,4.67-.38,2.99,2.97l-4,2,7.99-.49c-.13.26-17.05,8.59-10.5,8.5.89-.01,11.47-7.27,16.5-4.98l-5.99,3.5c5.78.93,1.32.98.96,3.98-.69,5.73,6.99-6.88,7.03-9,.05-3.19-3.76.33-3-3.47,6.83.73,3.01-1.6,3.22-4.76.22-3.4,9.39-.04,12.1.99,2.1.8.67,4.5,6.42,2,8.64-3.77,1.54-18.87,1.83-26.75.41-10.95,5.17-18.25,14.44-23.48h7ZM252.87,89.87c.44-.28,1.99-7.12,1.62-7.91-.28-.6-2.46-1.03-2.91-2.04-10.59-23.78-14.06-4.11-26.01.17-1.44.52-9.3,1.78-10.15,1.57s-11.24-13.13-13.42-10.65c-1.34,1.53.51,16.67,1.47,19.02,1.11,2.72,3.83-4.74,6.51-2.03.17.18-.16,3.25.58,4.92,5.65,12.67,8.97,1.51,10.42,3.09,1.02,1.12-1.9,4.21-1.97,5.53l.82,31.81c-.61,2.98-8.71-2.74-7.84,2.16.22,1.22,3.57-.12,4.85.64s1.88,8.47,2.22,8.77,8.56,2.35,8.92,2.07c.42-.33-1.27-6.83,2.5-10,2.22-1.87,8.68,1.49,5.38-3.86-2.01-3.26-7.98,4-8.87,2.87-.63-.8.84-17.29.7-20.45-.19-4.23-2.47-8.85-2.71-11.07-.07-.66,2.31,0,2.04-1.94-.23-1.65-2.86-3.61-2.03-5.53.66-1.51,2.65,3.12,5.3,2.01,1.3-.54,2.95-5.94,5.74-7.47,4.83-2.64,16.1-1.22,16.82-1.68ZM247,146c.19-5.81-2.61-5.28-3.1-7.48-3.53-16,.63-8.67,7.49-16.5,2.18-2.49,5.47-12.23,3.82-15.63-3.62-7.5-5.75,3.17-6.23,3.61-2.2,2-1.83-4.66-4.5-3.95-.93.25-2.54,4.31-4.5,5.44-4.34,2.5-6.2-3-4.72,8.75.88,7,6.59,11.39,1.63,19.15-2.03,3.17-5.61,1.63-5.9,6.11-.13,1.94,8.88.1,10.7,2.25,1.99-.64,3.04-1.53,5.31-1.74-.34,10.75-5.12,7.5-8.7,11.31-1.04,1.11-1.78,5.3-3.32,7.17-3.2,3.88-7.02,7.41-9.98,11.5,4.32,1.4,24.8-1.97,27.01-.51,2.61,1.72-6.96,9.39-6.99,10.01-.1,2.06,12.52,9.44,7.52,13.34l-60.85,2.05c-4.22-1.92.91-4.89.25-7.23-.38-1.34-14.67-9.81-4.88-15.08,9.24-4.98,24.77,10.82,12.93-2.56l6.99-.99c-3.28-2.85-5-.63-9.18-2.06-2.39-.81-3.86-4.47-10.42-3.93-.94.08-7.53,3.88-8,4.04-.71.25-6.43-2.85-2.63,1.94.19.24,2.03-.27,2.26,0,.19.23-.31,5.7-.45,5.96-2.07,3.93-5.99.93-7.13,1.13-.52.09-.32,1.78-.97,1.95-.6.16-2.87-1.49-3.44-1.06-3.65,2.73.92,8.7,3.42,11.09,2.19,2.09,5.99-.83,5.58,7.92,2.41-.51,1.19-5.59,3.5-5.99,2.75-.47,6.66,15.04,6.51,16.33-.06.56-6.35,4.66-6.13,9.19.07,1.56,6.88,5.7,5.1,8.47-.46.71-6.53,1.46-8.08.54-1.27-.75,1.1-5.96-1.91-6.53,1.56,9.86-4.09,5.65-8.05,7.63-1.84.92-2.48,3.62-3.29,4.03-10.79,5.51-25.16.88-36.66,4.33-1.46-3.35,5.09-17.94,1.49-18.99-2.31-.67-7.34,9.22-7.51,10.5-.12.94,1.88.27,1.93.53.62,3.03-1.7,1.4-2.29,3.21-.55,1.67.39,3.4-.16,4.71-2.55,6.04-21.26,3.02-26.48,3.05,4.01,1.59,4.91,9.44,6.98,10.5,3.69,1.89,8.16-.58,11.47-.48,2.05.06,4.27,3.43,8.06.98,5.81-3.76,2.57-8.87,14.1-3.06,2.78-1.95,13.86.54,14.38.04,1.04-1.01-3.09-4.11-1.98-4.99,2.15-1.71,47.85,1.11,55-1,1.63,1.34-9.91,13-9,14.99,1.33,2.89,3.65-2.28,4.5,0,1.59,4.29-2.58,2.75-1.5,3.99,1.99,2.28,7.03,5.53,8.98,8.53-2.91,4.19-10.67-2.29-7.98,6.48.16-5.33,7.53-2.44,6.88,1.38-.58,3.41-10.41,2.95-8.9,7.63-9.14-3.55,7.45,6.63,8,6,1.09-1.25-3.79-4.93-2.98-6.99,9.1,2.07,52.4-3.22,57.03-.54,2.85,1.65-9.08,12.63-9.06,15.03,0,.31,2.77,5.37,3.05,5.5.72.33,1.66-1.55,1.98-1.53,4.06.22.77,5.27,1,5.52.44.46,2.74-1.33,2.99-.99.36.52-.47,3.24.04,4.27.41.81,4.97,4.48,4.95,5.23-.1,2.94-25.9.55-30.24,2.74-1.76.89-9.04,13.25-12.33,14.67-.26.11-5.27-1.67-5.42-1.91-.3-.49,2.1-4.28-.5-4.99-.86-.24-.18,1.97-1.1,2.08-1.17.15-3.98-1.55-4.39-1.09-.25.28-.99,5.87-1.33,7.47-.12.53-1.77.61-1.73,1.09.72,7.21,7,1.19,12.44,1.76,2.84.3,7.52,4.88,8.08,4.66,1.09-.43,1.49-2.35,4.1-2.91,7.36-1.58,7.46,1.67,9.96,1.94.58.06.36-1.93,1.15-2,3.27-.3,14.04-2.2,15.65-2.01.28.03,3.82,4.07,4.67,3,.44-.55-.43-4.23.02-5.01.06-.1,1.93,1.11,1.98,1.01,1.45-2.64-1.07-24.83,3-18.01.03-2.12-.96-11.04,2.52-9.97,2.02.62.26,4.9,3.49,3.97-.97-3.17,2.69-18.06,6.3-17.85,6.57.38,2.37,12.01,3.71,13.85,3.14,4.29.97-11.81,1.12-12.45.29-1.25,2.72-1.14,2.9-2.14.2-1.14-1.74-4.24-.82-7.68,1.49-5.52,1.06,2.36,3.78,1.26l-.99-4.98,1.98,1.99,1.49-4.98,2.49,12.51.51,17.47c2.43-5.24,2.48-11.25,4.2-16.72.47-1.48,2.77-1.57,3.16-2.92.89-3.08-1.22-5.95-.77-7.74.31-1.25,2.72-1.5,2.8-1.72.4-1.2-2.85-3.47,1.14-4.4.49-3.19-2.6,0-3-.48-.17-.2.27-5.74-2.06-2.43-1.51,2.14-.41,9.18-1.44,9.42-1.83.42-7.06-12.32-9.97-13.82-7.47-.88-42.31,4.71-46.55,2.4-.64-.35-7.51-11.57-7.74-12.31-4.11-13.06,6.1-17.19,17.23-14.01.39.11,5.62,5.64,6.51,4.75,1.91-1.92-8.62-7.99-4.35-8.86,6.8,2.1,53.34-3.02,55.36-1.13s-8.76,12.14-8.95,13.57c-.69,4.94,11.28,6.64,14.61,2.15,3.77-5.09-.83-5.59,9.82-7.74-.04,2.14,7.09,7.34,7.51,7.01.13-.1.08-2.15,1.68-2.82,1.69-.71,9.23-2.23,9.32-3.67.12-2-12.36-5.4-5.98-8.49-7.41,1.25-3.17-5.38-5.26-8.76-.97-1.57-5.68-1.53-7.49-5-3.85-7.36,4.74-18.83.53-28.04-.28-.6-8.97-7.73-10.56-7.97-5.37-.82-3.96,3.56-4.22,3.77-.29.24-2.04-1.18-2.39-.98-1.65.94-2.4,2.94-2.62,2.95-2.96.17-8.45-9.02-5.97-12.98l2.98,1.99.02-3.99,1.98,1.99c.62-6.97-5.83-10.03-6.96-16.55-3.47-2.71-3.65,13.65-12.33,12.57-.96-.12-11.4-14.35-11.78-15.38-1.18-3.15-1.33-10.52-2.89-12.16s-4.63-.89-5.9-1.67c-.51-.32.06-2.6-.14-2.82-.14-.15-2.25,1.21-4.05.63-4.91-1.57-6.5-5.22-12.95-4.63ZM190.96,360.08c-3.27-.08-3.66,4.75-6.47,5.01-2.13.2-4.62-2.95-5.48-2.08-1.09,1.1,2.91,3.61,1.99,4.99-1.05,1.58-3.31-3.96-4.99-2-.23.27-.25,6.76,0,7.01,1.23,1.26,7.7-3.12,7.99,1.45.25,3.97-5.7,5.18-7.35,7.51s-4.19,14.55-4.63,18.03c5.78-12.11,14.57-23.57,27.03-29.45,2.46-1.16,7.89.16,9.46-2.54,4.02-6.94-2.53-3.83-2.95-3.95-.86-.23.04-2.85-2.04-2.07-1.05.39.42,2.81-2.49,1.99-.08-.02.06-1.51-.22-1.59-4.09-1.3-7.16-.21-9.38-.47-.59-.07-.36-1.83-.46-1.83ZM215,363.01c-3.34-2.54-7.2,2.6-4.99,4.99.39.43,8.96-1.18,11.52-1.04,13.99.79,27.29,7.25,35.98,18.03,11.09,13.77,6.43,24.41,11.5,40.01,2.67.22,1.64.11,1.92-1.5,1.02-6.03,0-17.69,1.25-22.76.6-2.42,3.79-4.92,3.8-5.24s-4.82-2.64-3.96-4.93c.77-2.06,7.97-2.08,8.86-1.44.45.32,1.86,9.5,1.67,10.94-.68,5.12-4.35,2.2-4.59,5.41-.31,4.08,3.95,10.78,3.04,15.52l1-2.99c1.48,3.38,3.4.42,3.98.99.29.28.54,6.6,1.08,7.94.05.13,2.11-1.35,2.77.7,1.87,5.82,1.27,16.02,6.15,21.37.79-6.09-2.2-28.21,3-11.01-2.61-6.42,10.13-15.3,9.98-18.3-.18-3.69-2.73-12.36-5.96-14.7-.44,1.83,1.26,3.76,1.05,5.38-.05.39-3.08,4.86-3.14,5.24-.19,1.22,1.58,3.5,1.07,4.38-.1.18-1.92-1.11-1.98-1.02-.64,1.02.55,8.1-3,9.01-.35-6.18-3.31-13.57-4-19.54-.05-.44,2.14-.1,2.1-1.91-.01-.51-1.26-9.35-1.38-9.85-1.85-8.26-8.27-16.22-9.75-24.7-3.8-1.07-.49,5.61-2,7.01-.84.77-2.51-2.99-3.97,1.52-.97,3,2.71-1.12,1.97,1.96-.58,1.49-3.86,1.36-4,1.53-.49.6,1.96,3.27.51,3.98l-4.52-6.99c-2.28,4.43-4.88-1.86-5-5-2.63,4.36-3.1.28-6.14-1.74-.6-.4-2.42,1.12-2.83.75-.16-.15.33-2.53-1.09-3.46-3.06-2.01-11.13-7.18-14.03-7.96-2.67-.71-25.74-1.25-26.91-.59-.09.05,1.06,1.83.94,1.93-4.47,3.49-1.69-1.74-1.94-1.93ZM137.27,379.19c.11-.29,2.13-.68,2.53-1.85s4-9.76.22-9.33c-1.11.13-12.99,15.06-15.01,16.58,3.38,3.25-2.47,10.99-2.02,11.4.33.3,2.72-.29,3.02.02.33.34-2.21,5.8,2.5,7.99,1.04-7.66,5.79-13.59,8.6-20.5.8-1.96-.06-3.67.17-4.31ZM320.4,373.61c-1.43-1.49-2.19-3.85-4.39-4.61,5.11,8.08,2.22,7.98-2.52,1-.44,5.48-2.28,1.46-5.75,1.99-6.15.94,2.62,15.05,4.76,18,1.26-3.26-1.77-6.55,2.53-8.46,7.05-3.12,4.88,3.76,5.98,4.46.41.26,5.4-3.89,4.82-6.27-.46-1.88-4.02-4.65-5.43-6.12ZM220.98,392c-3.05-2.97.05,5.61-2.98,4.98,11.78,2.9.57,15.09,5.99,23.01-6.8-.83-3.65-11.41-4-12-.26-.44-3.28,3.19-2-6.99l-2.98,1.99c1.11-2.58-1.72-4.29-3-3-.86.86.78,12.21-4,13,4.05-6.8-3.66-23.24-2.93-8.57.09,1.83,2.53,5.8,1.91,6.57-.83,1.02-1.75-4.36-3.98-2.99l-.99,4.99-.51-5.99c-2.22,4.21-3.58,19.5-1.56,23.29.77,1.43,16.04,9.83,17.55,9.8,5-.12,2.67-3.31,3.46-4.56,4.69-7.45,1.68,3.15,2.05,3.46,1.23,1.05,4.08-3.07,5.85-3.46,2.5-.55,8.78,1.76,9.14,1.46s-.96-2.31-.47-3.05c1.34-2.02,4.26-2.22,5.42-3.5,4.07-4.54,3.25-11.41,5.07-16.93-3.26,1.55-2.99,7.69-4.6,10.4-4.92,8.23-21.17,6.5-8.78,2.4.86-.28,2.36.86,3.37.68.2-.04-.1-3.8,0-3.97.19-.3,2.64.61,3.06-.57.24-.67.09-6.47-.57-6.45-1.86.05-3.32,6.22-4.54,7.46s-4.57,2-6.49,3.51c-1.79,1.4-2.11,5.81-3.96,5.01-4.71-2.03,1.85-8.6,5.24-8.23-1.4-3.59,10.95-12.89,9.23-14.75-.5-.54-2.18,2.23-3.06,2.53-7.89,2.68-7.62.11-.94-4.03-5.6.25.37-5.29-3.98-8.49,1.03,1.32-.97,14.71-4,11.99-.76-.68-2.89-14.96-7.02-18.99ZM199.59,459.44c-6.6-2.9-11.73-8.88-19.58-6.43l1.99,1.48-9.99,9.49c21.86,3.45,46.3,5.02,68.53,4.05,7.89-.34,14.56-2.59,21.46-2.05-6.16-1.31-5.62-6.62-5.99-6.99-.84-.82-18.85-.09-23.5-1.01-2.16-.43-5.6-4.29-12.07-4.02s-16.29,7.58-19.73,7.06c-.71-.11-.82-1.46-1.11-1.59ZM164.5,465c-12.57-1.24-28.95,0-42,0-1.96,0-8.3,3.48-7.5-1h16c.19-2.51.2-1.68-1.48-2-7.23-1.36-17.84,2.08-25.51-.01l4.99-2.98c-3.35-.14-9.42,2.11-12.44,1.06-1.21-.42.09-2.75-1.1-3.14-2.07-.68-8.44.55-11.45-.91,12.84,6.5,31.2,11.72,45.76,14.72,16.87,3.48,19.06.86,33.87.43,12.06-.35,24.26-.04,36.36-.17l-66.99-.99c-.21-2.5-.2-1.68,1.48-2,9.57-1.78,25.32.19,35.51-1.01.04-.97-4.97-1.94-5.49-1.99Z"/>
  <path d="M200,477c-.52-3.24,1.49-1.8,3.37-1.81,26.52-.06,53.07-1.48,79.63-1.18l-1.47,2-17.52,1h-64Z"/>
  <path d="M411.03,165.01c.07.09,1.88-1.09,1.94-.99,3.91,6.33-1.66,4.13-2.47,4.9-1.18,1.11-6.58,14.27-8.5,17.36-.92,1.48-4.44-.61-3.01,5.71l-1.98-1.99c.23,18.14-3.32,6.18-6.49,6.02-1.86-.09-6.32,3.44-9.52,1.97,3.13-3.72,7.52-4.68,10.86-8.62,1.77-2.08,14.43-20.57,15.38-22.62,1-2.18.81-4.45.77-6.74,2.81.34,2.57,4.43,3.01,5.01Z"/>
  <path d="M432.57,146.47c9.29,5.81-6.85,11.08-7.56,10.52-.2-.16.95-2.13-1.56-4.92-2.07-2.31-8.58-7.01-9.58-9.48-2.74-6.74.4-13.75-1.86-20.59,9.89,4.87-3.45,19.55,10.79,22.75,4.96,1.11,4.07-1.85,9.77,1.71Z"/>
  <path d="M48.82,151.79c-1.17,2.74-2.31,4.53-3.84,8.71-1.76,4.83-1.7-1.05-2.62-1.55-1.32-.72-4.18-.42-6.25-1.58-6.07-3.4-7.75-8.84-.04-10.79,20.03-.66,11.06-7.04,10.94-20.57l5.73,16.73c-4.28,3.3-3.27,7.53-3.92,9.05Z"/>
  <path d="M28,143.03c.15.28-.4,4.56-3.34,3.81-7.23-1.84-16.24-23.42-16.65-30.84,6.27,5.6,6.39,14.38,11.58,20.9,2.79,3.51,8.17,5.67,8.41,6.12Z"/>
  <path d="M254,209.01c.18,2.31-7.02,7.81-6.98,8.5.05.72,2.39,1.03,2.72,1.77,1.09,2.4,4.11,8.79,2.83,10.75-4.48,6.86-45.13,3.58-53.85,4.84-3.17-6.49-17.44-14.7-5.62-20.26,5.83-2.75,11.44.8,11.9.39.55-.5-5.05-4.71-1.37-5.9l50.37-.08Z"/>
  <path d="M278.8,186.24c.47.41,7.43,9.23,7.64,9.81.73,2.05.75,3.82.55,5.94l-2.98-1.99-.99,3.99-1-3.99-2.01,5c.74-8.18-5.72-2.46-2.9,2.89,1,1.9,40.87-1.56,42.89.11s-6.2,7.65-5.99,9.48c.26,2.15,3.86.35,3.99.51.34.4,1.23,8.25,3,10.01-7.68-1.62-57.76,5.44-59.57,3.07-1.61-2.1,1.07-6.53.57-7.06-.39-.41-2.72,1.24-2.98,1.01-.11-.1.16-2.09-.57-2.91-2.09-2.32-5.35-2.33-1.89-7.06,5.2-7.1,13.88-1.52,14.44-2.06.51-.49-1.92-1.92-1.88-2.65.09-1.63,1.96-2.39,1.89-3.81-.08-1.82-2.94-.39-3-.53-.5-1.12.48-5.37-.02-5.99-.58-.73-4.13,4.22-3-4l-2.96.49c9.07-4.79,6.92-1.7,6.99,6.49l1.98-6.99c-.82,5.51.4,5.42,4,7.99,1.49-2.54-4.03-7.82-2.98-8.99.89-.99,3.97,7.53,2-6.99,3.51,5.62,1.14-4.94,4.79-1.77Z"/>
  <path d="M218.01,281.99c-.13.22-4.53,1.29-4.98,1-1-.64-1.14-9.96-2.29-11.79-.24-.39-2.19,0-2.78-.87-1.05-1.54-2.69-6.15-2.98-6.34s-3.84,2.4-4.96-2.51c-1-4.39,6.04,2.48,6.98,1.51.45-.45-1.34-2.67-.99-2.98.53-.48,2.39,1.34,4.01.51.55-.28,2.78-12.97,5.49-2.02.4,1.61,3.09,22.47,2.51,23.49Z"/>
  <path d="M189.68,235.5c1.47.74,6.33,4.24,6.32,6.49l-27.99-2.01c4.03-3.32,11.24-5.49,16.33-5,1.02.1.37,2.44,1.16,2.03,1.64-.86-1.9-4.59,4.18-1.51Z"/>
</svg>