<?xml version="1.0" encoding="UTF-8"?>
<svg id="Layer_1" xmlns="http://www.w3.org/2000/svg" version="1.1" viewBox="0 0 765 816">
  <!-- Generator: Adobe Illustrator 29.7.1, SVG Export Plug-In . SVG Version: 2.1.1 Build 8)  -->
  <path d="M425.98,237.99c-1.46.39-1.66-.39-2.5-.97-4.11-2.84-9.76-9.47-14-13-101.86-84.75-255.51-68.72-328.89,44.06-86.78,133.38-6.29,312.57,150.21,336.63,144.97,22.28,269.16-100.56,251.35-245l37.85-26.71c15.74,74.25-1.14,153.1-47.51,213.04l-.38,2.26c12.11,14.85,25.48,28.64,39.92,41.27l1.29.3c10.83-8.82,21.71-1.92,30.7,5.61l142.4,142.6c32.43,41.29-30.04,98.93-70.43,66.43l-145.99-146.01c-6.07-8.19-5.47-17.98-.43-26.5l-40.07-40.98c-30.72,25.76-69.19,44.1-108.49,52.5C124.71,685.47-44.92,503.02,13.73,310.23c52.77-173.46,263.02-237.16,408.58-131.05,5.89,4.29,23.24,17.14,26.76,22.29.6.88,1.3,1.32.47,2.47l-23.56,34.05Z"/>
  <path d="M678,81.01l-160.01,124.48c-41.75,41.27-77.34,92.26-117.96,134.04-2.38,2.45-5.12,5.87-8.59,6.42-8.96,1.42-13.87-4.84-12.37-13.38,34.21-50.95,71.79-100.08,108.91-149.09,65.39-53.82,131.34-107.78,198.57-159.43,7.75-5.95,18.9-16.14,27.91-19.09,32.25-10.58,60.19,23.16,46.09,53.09-56.35,63.59-108.72,131.29-165.02,194.98-16.18,18.3-29.36,28.85-49.2,42.8-39.65,27.86-80.85,53.66-120.59,81.4-5.31,2.44-13.13.08-14.51-5.93-1.81-7.88,1.69-10.04,6.77-14.81,42.13-39.54,92.92-73.72,133.53-115.47l126.49-160Z"/>
  <path d="M344,382.01l8.1,26.89c12.31,2.34,48.8-7.39,47.83,13.53-.86,18.57-34.97,9.28-46.79,11.71l-7.17,26.32c16.33,7.62,32.11,22.4,38.51,39.56,3.28,8.8,4.64,21.88-7.98,23.03s-14.4-13.38-19.66-21.38c-5.69-8.66-14.84-14.05-23.35-19.61-34.43,51.69-104.36,51.44-138.97.18-9.51,4.31-18.74,11.58-24.34,20.44-5.22,8.27-5.78,20.5-18.68,19.37-4.98-.44-8.96-4.15-10.06-8.97-4.26-18.58,25.41-46.37,41.61-52.64l-7.09-26.38c-11.98-2.3-45.51,6.73-47.91-10.63-3.02-21.9,36.73-12.29,48.86-14.52l8.16-26.31c-16.34-4.96-46.16-26.89-47-45.23-.48-10.38,10.44-16.58,19.29-11.21,4.45,2.7,5.41,9.24,8.24,13.76,5.62,8.97,24.39,21.39,34.93,22.12,3.47.24,6.51-1.05,9.93-1.08,36.65-.37,73.44-.3,110.09,0,2.98.03,5.52,1.24,8.92,1.06,8.62-.47,21.82-8.04,28.04-14,5.19,6.13,11.72,10.3,18.48,14.48.03,2.63-26.58,20.48-31.98,19.51Z"/>
  <path d="M208,347c-.86-12.53,1.72-25.33,8.58-35.92,2.61-4.02,5.96-6.42,8.23-10.38-4.21-12.19-9.68-24.85-20.9-32.11-9.12-5.9-25.24-7.14-20.46-22.64,1.27-4.1,8.67-7.8,12.77-7.7,20.12.52,45.19,31.18,49.84,49.72,11.51-2.41,23.93-3.37,35.38.06,7.13-18.27,22.44-40.39,41.31-47.78,8.33-3.27,19.83-3.18,22.03,7.49,2.63,12.7-10.91,14.01-18.69,18.85-11.67,7.25-18.52,21.31-22.75,33.94,12.43,12.35,17.92,29.07,17.66,46.48h-113Z"/>
</svg>