<?xml version="1.0" encoding="UTF-8" standalone="no" ?>
<!DOCTYPE svg PUBLIC "-//W3C//DTD SVG 1.1//EN" "http://www.w3.org/Graphics/SVG/1.1/DTD/svg11.dtd">
<svg xmlns="http://www.w3.org/2000/svg" xmlns:xlink="http://www.w3.org/1999/xlink" version="1.1" width="1080" height="1080" viewBox="0 0 1080 1080" xml:space="preserve">
  <desc>Created with Fabric.js 5.2.4</desc>
  
  <g transform="matrix(0.5775 0.645 -0.645 0.5775 368.34 276.3975)">
    <path style="stroke: none; stroke-width: 1; stroke-dasharray: none; stroke-linecap: butt; stroke-dashoffset: 0; stroke-linejoin: miter; stroke-miterlimit: 4; fill: rgb(0,0,0); fill-rule: nonzero; opacity: 1;" vector-effect="non-scaling-stroke"  transform=" translate(-330, -315)" d="M 285 135 C 285 118.441 271.559 105 255 105 L 135 105 C 134.78906 105 134.59375 105.058594 134.37109 105.058594 C 133.33589 105.089844 132.31639 105.238284 131.28129 105.375004 C 130.33598 105.496094 129.39069 105.554694 128.47659000000002 105.765624 C 127.58987000000002 105.96093400000001 126.76569000000002 106.289064 125.89459000000002 106.558594 C 124.90631000000002 106.875004 123.88679000000002 107.144534 122.94149000000002 107.566394 C 122.16024000000002 107.910144 121.44149000000002 108.374984 120.69149000000002 108.781194 C 119.73055000000002 109.304634 118.76959000000002 109.800694 117.87119000000001 110.413994 C 117.19541000000001 110.878834 116.59389000000002 111.464794 115.94929000000002 112.003794 C 115.06648000000001 112.738174 114.17979000000003 113.445194 113.39849000000002 114.269394 C 113.25005000000003 114.406114 113.08599000000002 114.511584 112.94927000000003 114.660014 C 112.48443000000003 115.171734 112.15630000000003 115.753814 111.71877000000002 116.281114 C 111.04689000000002 117.136584 110.35547000000003 117.976414 109.75397000000002 118.906114 C 109.23053000000003 119.714704 108.82428000000003 120.554514 108.39067000000003 121.410014 C 107.94145000000003 122.296734 107.47661000000002 123.163914 107.10157000000002 124.10921400000001 C 106.75391000000002 125.038904 106.50001000000002 125.98421400000001 106.23048000000003 126.96081400000001 C 105.97657000000002 127.859254 105.70314000000003 128.761614 105.53907000000002 129.70301400000002 C 105.34376000000002 130.78501400000002 105.28516000000002 131.86321400000003 105.21095000000003 132.96081400000003 C 105.16407400000003 133.64831400000003 105.00001000000003 134.29671400000004 105.00001000000003 134.99991400000002 L 105.00001000000003 254.99991400000002 C 105.00001000000003 271.558914 118.44101000000003 284.999914 135.00001000000003 284.999914 C 151.55901000000003 284.999914 165.00001000000003 271.558914 165.00001000000003 254.999914 L 165.00001000000003 203.519914 L 504.66001000000006 517.049914 C 510.43341000000004 522.374114 517.7260100000001 524.999114 524.98401 524.999114 C 533.06991 524.999114 541.12501 521.760814 547.05001 515.3389139999999 C 558.2840100000001 503.1589139999999 557.5190100000001 484.1829139999999 545.3547100000001 472.9479139999999 L 211.72471000000007 164.99791399999992 L 254.99771000000007 164.99791399999992 C 271.55671000000007 164.99791399999992 284.9977100000001 151.55691399999992 284.9977100000001 134.99791399999992 z" stroke-linecap="round" />
  </g>
  <g transform="matrix(0.8475 0 0 0.8475 366.6225 581.7525)">
    <path style="stroke: none; stroke-width: 1; stroke-dasharray: none; stroke-linecap: butt; stroke-dashoffset: 0; stroke-linejoin: miter; stroke-miterlimit: 4; fill: rgb(0,0,0); fill-rule: nonzero; opacity: 1;" vector-effect="non-scaling-stroke" transform=" translate(-600, -570)" d="M 630 570 C 630 586.57 616.57 600 600 600 C 583.43 600 570 586.57 570 570 C 570 553.43 583.43 540 600 540 C 616.57 540 630 553.43 630 570" stroke-linecap="round" />
  </g>
  <g transform="matrix(0.8475 0 0 0.8475 365.3025 834.2325)">
    <path style="stroke: none; stroke-width: 1; stroke-dasharray: none; stroke-linecap: butt; stroke-dashoffset: 0; stroke-linejoin: miter; stroke-miterlimit: 4; fill: rgb(0,0,0); fill-rule: nonzero; opacity: 1;" vector-effect="non-scaling-stroke"  transform=" translate(-600, -862.5)" d="M 570 1065 C 570 1081.559 583.441 1095 600 1095 C 616.559 1095 630 1081.559 630 1065 L 630 660 C 630 643.441 616.559 630 600 630 C 583.441 630 570 643.441 570 660 z" stroke-linecap="round" />
  </g>
</svg>