<svg xmlns="http://www.w3.org/2000/svg" xml:space="preserve" width="810" height="1080" viewBox="0 0 810 1080"><path d="M285 135c0-16.559-13.441-30-30-30H135c-.21 0-.406.059-.629.059-1.035.03-2.055.18-3.09.316-.945.121-1.89.18-2.804.39-.887.196-1.711.524-2.582.794-.989.316-2.008.586-2.954 1.007-.78.344-1.5.809-2.25 1.215-.96.524-1.921 1.02-2.82 1.633-.676.465-1.277 1.05-1.922 1.59-.883.734-1.77 1.441-2.55 2.265-.149.137-.313.243-.45.391-.465.512-.793 1.094-1.23 1.621-.672.856-1.364 1.695-1.965 2.625-.523.809-.93 1.649-1.363 2.504-.45.887-.914 1.754-1.29 2.7-.347.929-.601 1.874-.87 2.85-.254.9-.528 1.802-.692 2.743-.195 1.082-.254 2.16-.328 3.258-.047.687-.211 1.336-.211 2.039v120c0 16.559 13.441 30 30 30s30-13.441 30-30v-51.48l339.66 313.53a29.9 29.9 0 0 0 20.324 7.95c8.086 0 16.141-3.24 22.066-9.661 11.234-12.18 10.469-31.156-1.695-42.391l-333.63-307.95h43.273c16.559 0 30-13.441 30-30z" style="stroke:none;stroke-width:1;stroke-dasharray:none;stroke-linecap:butt;stroke-dashoffset:0;stroke-linejoin:miter;stroke-miterlimit:4;fill:#000;fill-rule:nonzero;opacity:1" transform="rotate(48.16 322.897 367.014)scale(.8658)" vector-effect="non-scaling-stroke"/><path d="M630 570c0 16.57-13.43 30-30 30s-30-13.43-30-30 13.43-30 30-30 30 13.43 30 30" style="stroke:none;stroke-width:1;stroke-dasharray:none;stroke-linecap:butt;stroke-dashoffset:0;stroke-linejoin:miter;stroke-miterlimit:4;fill:#000;fill-rule:nonzero;opacity:1" transform="translate(-141.877 98.678)scale(.8475)" vector-effect="non-scaling-stroke"/><path d="M570 1065c0 16.559 13.441 30 30 30s30-13.441 30-30V660c0-16.559-13.441-30-30-30s-30 13.441-30 30z" style="stroke:none;stroke-width:1;stroke-dasharray:none;stroke-linecap:butt;stroke-dashoffset:0;stroke-linejoin:miter;stroke-miterlimit:4;fill:#000;fill-rule:nonzero;opacity:1" transform="translate(-143.197 103.264)scale(.8475)" vector-effect="non-scaling-stroke"/></svg>