<svg xmlns="http://www.w3.org/2000/svg" width="1600" height="1600" viewBox="0 0 1200 1200"><path d="M778.12 848.44h103.12v37.5c0 15.938 12.188 28.125 28.125 28.125s28.125-12.188 28.125-28.125v-37.5c15.938 0 28.125-12.188 28.125-28.125s-12.188-28.125-28.125-28.125V539.07c0-13.125-8.437-24.375-21.562-27.188-12.188-2.812-25.312 2.813-31.875 14.062l-131.25 243.75c-1.875 3.75-2.812 8.438-2.812 13.125v37.5c0 15.938 12.188 28.125 28.125 28.125zm28.125-58.125 75-139.69v141.56h-75zM600 914.06c57.188 0 103.12-45.938 103.12-103.12V614.06c0-57.188-45.938-103.12-103.12-103.12s-103.12 45.938-103.12 103.12v196.88c0 57.188 45.938 103.12 103.12 103.12m-46.875-300c0-26.25 20.625-46.875 46.875-46.875s46.875 20.625 46.875 46.875v196.88c0 26.25-20.625 46.875-46.875 46.875s-46.875-20.625-46.875-46.875zM262.5 848.44h103.12v37.5c0 15.938 12.188 28.125 28.125 28.125s28.125-12.188 28.125-28.125v-37.5c15.938 0 28.125-12.188 28.125-28.125s-12.188-28.125-28.125-28.125V539.07c0-13.125-8.437-24.375-21.562-27.188s-25.312 2.813-31.875 14.062l-131.25 243.75c-1.875 3.75-2.812 8.438-2.812 13.125v37.5c0 15.938 12.187 28.125 28.124 28.125zm28.125-58.125 75-139.69v141.56h-75z"/><path d="M131.25 1190.6h937.5c67.5 0 121.88-54.375 121.88-121.88v-937.5c0-67.5-54.375-121.88-121.88-121.88h-937.5C63.75 9.34 9.37 63.715 9.37 131.22v937.5c0 67.5 54.375 121.88 121.88 121.88M65.625 131.2c0-36.562 29.062-65.625 65.625-65.625h937.5c36.562 0 65.625 29.062 65.625 65.625v140.62H65.575zm0 196.88h1068.8v740.62c0 36.562-29.062 65.625-65.625 65.625H131.3c-36.562 0-65.625-29.062-65.625-65.625z"/><path d="M206.25 140.62h-37.5c-15.938 0-28.125 12.188-28.125 28.125s12.188 28.125 28.125 28.125h37.5c15.938 0 28.125-12.188 28.125-28.125s-12.188-28.125-28.125-28.125M356.25 140.62h-37.5c-15.938 0-28.125 12.188-28.125 28.125s12.188 28.125 28.125 28.125h37.5c15.938 0 28.125-12.188 28.125-28.125s-12.188-28.125-28.125-28.125"/></svg>