<?xml version="1.0" encoding="UTF-8"?>
<svg width="1200pt" height="1200pt" version="1.1" viewBox="0 0 1200 1200" xmlns="http://www.w3.org/2000/svg">
 <g>
  <path d="m778.12 848.44h103.12v37.5c0 15.938 12.188 28.125 28.125 28.125s28.125-12.188 28.125-28.125v-37.5c15.938 0 28.125-12.188 28.125-28.125s-12.188-28.125-28.125-28.125v-253.12c0-13.125-8.4375-24.375-21.562-27.188-12.188-2.8125-25.312 2.8125-31.875 14.062l-131.25 243.75c-1.875 3.75-2.8125 8.4375-2.8125 13.125v37.5c0 15.938 12.188 28.125 28.125 28.125zm28.125-58.125 75-139.69v141.56h-75z"/>
  <path d="m600 914.06c57.188 0 103.12-45.938 103.12-103.12v-196.88c0-57.188-45.938-103.12-103.12-103.12s-103.12 45.938-103.12 103.12v196.88c0 57.188 45.938 103.12 103.12 103.12zm-46.875-300c0-26.25 20.625-46.875 46.875-46.875s46.875 20.625 46.875 46.875v196.88c0 26.25-20.625 46.875-46.875 46.875s-46.875-20.625-46.875-46.875z"/>
  <path d="m262.5 848.44h103.12v37.5c0 15.938 12.188 28.125 28.125 28.125s28.125-12.188 28.125-28.125v-37.5c15.938 0 28.125-12.188 28.125-28.125s-12.188-28.125-28.125-28.125v-253.12c0-13.125-8.4375-24.375-21.562-27.188s-25.312 2.8125-31.875 14.062l-131.25 243.75c-1.875 3.75-2.8125 8.4375-2.8125 13.125v37.5c0 15.938 12.188 28.125 28.125 28.125zm28.125-58.125 75-139.69v141.56h-75z"/>
  <path d="m131.25 1190.6h937.5c67.5 0 121.88-54.375 121.88-121.88v-937.5c0-67.5-54.375-121.88-121.88-121.88h-937.5c-67.5 0-121.88 54.375-121.88 121.88v937.5c0 67.5 54.375 121.88 121.88 121.88zm-65.625-1059.4c0-36.562 29.062-65.625 65.625-65.625h937.5c36.562 0 65.625 29.062 65.625 65.625v140.62h-1068.8zm0 196.88h1068.8v740.62c0 36.562-29.062 65.625-65.625 65.625h-937.5c-36.562 0-65.625-29.062-65.625-65.625z"/>
  <path d="m206.25 140.62h-37.5c-15.938 0-28.125 12.188-28.125 28.125s12.188 28.125 28.125 28.125h37.5c15.938 0 28.125-12.188 28.125-28.125s-12.188-28.125-28.125-28.125z"/>
  <path d="m356.25 140.62h-37.5c-15.938 0-28.125 12.188-28.125 28.125s12.188 28.125 28.125 28.125h37.5c15.938 0 28.125-12.188 28.125-28.125s-12.188-28.125-28.125-28.125z"/>
 </g>
</svg>
