<svg xmlns="http://www.w3.org/2000/svg" viewBox="0 0 64 80" x="0px" y="0px"><g><path d="M6,49H18a5,5,0,0,0,0-10,4.608,4.608,0,0,0-.783.067A5.988,5.988,0,0,0,6.083,41,4,4,0,1,0,6,49Zm0-6a1.958,1.958,0,0,1,.677.129,1,1,0,0,0,1.342-.978c0-.034-.014-.117-.019-.151a4,4,0,0,1,4-4,3.961,3.961,0,0,1,3.73,2.6A1,1,0,0,0,17,41.187,2.969,2.969,0,0,1,18,41a3,3,0,0,1,0,6H6a2,2,0,0,1,0-4Z"/><path d="M56.35,39.048A7.005,7.005,0,1,0,50,49h7a5,5,0,1,0-.65-9.952ZM57,47H50a4.989,4.989,0,0,1-1.666-.284h0a5,5,0,1,1,6.444-6.194,1,1,0,0,0,1.274.651A2.992,2.992,0,1,1,57,47Z"/><path d="M21,20A11,11,0,1,0,32,9,11.013,11.013,0,0,0,21,20Zm11-9a9,9,0,1,1-9,9A9.01,9.01,0,0,1,32,11Z"/><path d="M33,6V3a1,1,0,0,0-2,0V6a1,1,0,0,0,2,0Z"/><path d="M31,34v3a1,1,0,0,0,2,0V34a1,1,0,0,0-2,0Z"/><path d="M20.686,7.272a1,1,0,0,0-1.414,1.415l2.122,2.121a1,1,0,0,0,1.414-1.414Z"/><path d="M42.606,29.192a1,1,0,0,0-1.414,1.414l2.122,2.122a1,1,0,0,0,1.414-1.415Z"/><path d="M18,19H15a1,1,0,0,0,0,2h3a1,1,0,0,0,0-2Z"/><path d="M46,21h3a1,1,0,0,0,0-2H46a1,1,0,0,0,0,2Z"/><path d="M21.394,29.192l-2.122,2.121a1,1,0,1,0,1.414,1.415l2.122-2.122a1,1,0,0,0-1.414-1.414Z"/><path d="M43.314,7.272,41.192,9.394a1,1,0,1,0,1.414,1.414l2.122-2.121a1,1,0,1,0-1.414-1.415Z"/><path d="M3,53H60a1,1,0,0,0,0-2H3a1,1,0,0,0,0,2Z"/><path d="M36,56a1,1,0,0,0-1-1H20a1,1,0,0,0,0,2H35A1,1,0,0,0,36,56Z"/><path d="M45,56a1,1,0,0,0-1-1H39a1,1,0,0,0,0,2h5A1,1,0,0,0,45,56Z"/><path d="M27,61H39a1,1,0,0,0,0-2H27a1,1,0,0,0,0,2Z"/></g></svg>