<svg xmlns="http://www.w3.org/2000/svg" xmlns:xlink="http://www.w3.org/1999/xlink" version="1.1" x="0px" y="0px" viewBox="0 0 100 125" enable-background="new 0 0 100 100" xml:space="preserve"><g><path d="M77.471,42.369c-0.956,0-1.913,0.089-2.86,0.265c-0.364-3.491-1.467-6.741-3.112-9.634h17.627v-2.5H69.878   c-4.512-6.082-11.734-10-19.878-10c-9.878,0-18.578,5.841-22.514,14.5H13.375v2.5h13.119c-0.217,0.661-0.408,1.334-0.57,2.02   c-0.719-0.092-1.43-0.139-2.126-0.139c-9.538,0-17.298,7.76-17.298,17.297c0,9.539,7.76,17.299,17.298,17.299h53.673   c8.715,0,15.805-7.09,15.805-15.804C93.275,49.459,86.186,42.369,77.471,42.369z M77.471,71.478H23.798   C15.638,71.478,9,64.839,9,56.679c0-8.159,6.638-14.797,14.798-14.797c0.925,0,1.887,0.098,2.859,0.291l1.242,0.246l0.23-1.245   C30.08,30.643,39.278,23,50,23c11.931,0,21.692,9.33,22.224,21.241l0.071,1.583l1.522-0.437c1.199-0.344,2.429-0.519,3.653-0.519   c7.336,0,13.305,5.969,13.305,13.305C90.775,65.51,84.807,71.478,77.471,71.478z"/><rect x="32.25" y="78.25" width="40.25" height="2.5"/><rect x="49.888" y="84.875" width="28.987" height="2.5"/><rect x="13.375" y="14.5" width="45.809" height="2.5"/><rect x="42.937" y="8.5" width="21.444" height="2.5"/><rect x="20.835" y="57.25" width="36.794" height="2.5"/><rect x="41.425" y="45.989" width="26.075" height="2.5"/><rect x="69.562" y="20.5" width="9.782" height="2.5"/><rect x="10" y="84.875" width="18.295" height="2.5"/></g></svg>