<svg xmlns="http://www.w3.org/2000/svg" viewBox="0 0 24 30"><path d="m22.116 15.06-1.147-1.148c-.494-.495-1.359-.496-1.855 0l-3.128 3.129-1.1-1.102c-.496-.495-1.36-.494-1.855 0l-1.147 1.148c-.247.248-.384.577-.384.927s.137.68.384.927l3.174 3.175c.248.248.578.384.928.384s.68-.137.927-.384l5.203-5.203c.51-.51.51-1.342 0-1.854Zm-.707 1.146-5.203 5.203a.32.32 0 0 1-.44 0l-3.175-3.176a.311.311 0 0 1 0-.44l1.147-1.146a.311.311 0 0 1 .44 0l1.455 1.454c.187.188.52.188.707 0l3.481-3.481a.32.32 0 0 1 .44 0l1.148 1.146a.31.31 0 0 1 0 .44M2.5 14V6.77l7.485 3.326a2.5 2.5 0 0 0 2.03 0L19.5 6.77v5.335c.33-.06.669-.059 1-.008V4c0-1.378-1.121-2.5-2.5-2.5H4A2.503 2.503 0 0 0 1.5 4v10c0 1.378 1.122 2.5 2.5 2.5h6.447a3 3 0 0 1 .377-.474l.526-.526H4c-.827 0-1.5-.673-1.5-1.5m0-10c0-.827.673-1.5 1.5-1.5h14c.827 0 1.5.673 1.5 1.5v1.675l-7.89 3.507a1.5 1.5 0 0 1-1.22 0L2.5 5.675z"/></svg>