<svg xmlns="http://www.w3.org/2000/svg" data-name="Layer 1" viewBox="0 0 100 125" x="0px" y="0px"><defs><style>.cls-1{fill:none;}</style></defs><title>mini chat</title><path class="cls-1" d="M80.27,8.27H19.73A13.75,13.75,0,0,0,6,22V57.86A13.75,13.75,0,0,0,19.73,71.59H51.26l1.6,1.19L72.61,87.54l-2.37-8.29-2.19-7.65H80.27A13.75,13.75,0,0,0,94,57.86V22A13.75,13.75,0,0,0,80.27,8.27ZM29.72,46a5.75,5.75,0,1,1,5.71-5.67A5.73,5.73,0,0,1,29.72,46Zm20.22,0a5.75,5.75,0,1,1,5.8-5.72A5.81,5.81,0,0,1,49.94,46Zm20.34,0A5.75,5.75,0,1,1,76,40.21,5.74,5.74,0,0,1,70.28,46Z"/><path d="M80.27,2.27H19.73A19.73,19.73,0,0,0,0,22V57.86A19.73,19.73,0,0,0,19.73,77.59H49.26l24.17,18c1.89,1.41,3.48,2.09,4.66,2.09,2.2,0,3-2.32,1.8-6.55L76,77.59h4.26A19.73,19.73,0,0,0,100,57.86V22A19.73,19.73,0,0,0,80.27,2.27ZM94,57.86A13.75,13.75,0,0,1,80.27,71.59H68.05l2.19,7.65,2.37,8.29L52.85,72.78l-1.6-1.19H19.73A13.75,13.75,0,0,1,6,57.86V22A13.75,13.75,0,0,1,19.73,8.27H80.27A13.75,13.75,0,0,1,94,22V57.86Z"/><path d="M50,34.51a5.75,5.75,0,1,0,5.73,5.78A5.8,5.8,0,0,0,50,34.51Z"/><path d="M29.77,34.51a5.75,5.75,0,1,0,5.67,5.82A5.73,5.73,0,0,0,29.77,34.51Z"/><path d="M70.33,34.5A5.75,5.75,0,1,0,76,40.21,5.73,5.73,0,0,0,70.33,34.5Z"/></svg>