<svg xmlns="http://www.w3.org/2000/svg" data-name="Layer 1" viewBox="0 0 20 25" x="0px" y="0px"><path d="m74.83,49.49c.24.05.47.14.71.21.64.19,1.26.41,1.85.69h0s0,0,0,0v-23.43c0-.53-.43-.96-.96-.96h-3.5s0,0,0,0h0v23.22c.32.02.63.05.94.09.05,0,.11.02.16.03.27.04.53.08.8.15Z"/><path d="m89.97,76.77c-.01-.08-.03-.17-.05-.25-.1-.4-.3-.78-.6-1.08l-7.02-7.02s0,0,0,0h0c-.17.25-.35.48-.53.71-.78.99-1.71,1.87-2.79,2.59l7.03,7.03s.08.06.12.1c.7.61,1.66.74,2.48.38.26-.11.51-.27.72-.48.16-.17.29-.36.4-.56.18-.34.29-.71.29-1.1,0,0,0,0,0,0,0,0,0,0,0,0,0-.11-.02-.22-.03-.32Z"/><path d="m10.96,69.4h28.07s0,0-.01,0h.01c-2.77-1.19-5.59-2.12-8.47-2.78-4.8-1.1-9.76-1.47-14.96-1.11-.15,0-.3-.01-.43-.06-.03-.01-.05-.04-.08-.05-.1-.05-.2-.1-.29-.18-.07-.07-.11-.15-.16-.23-.1-.17-.17-.35-.17-.54V26h0s-3.5,0-3.5,0c-.53,0-.96.43-.96.96v41.48c0,.53.43.96.96.96Z"/><path d="m61.7,68.19s-.06-.08-.09-.12c-.11-.17-.2-.35-.3-.53-.16-.28-.3-.57-.44-.85-.12-.26-.24-.51-.34-.77,0,0,0,0,0,0h0c-4.18.62-8.22,1.78-12.17,3.48h0s0,0-.01,0h14.23s0,0,0,0h0c-.32-.38-.62-.78-.89-1.2Z"/><path d="m16.59,21.53v41.78c.96-.05,1.91-.07,2.85-.07,8.19,0,15.82,1.8,23.19,5.47V25.63c-7.73-3.42-15.95-5.09-25.08-5.06-.53,0-.96.44-.96.97Zm4.42,6.01c6.26.29,12.01,1.35,17.6,3.26.55.19.85.8.66,1.35-.15.45-.57.73-1.01.73-.12,0-.22-.02-.34-.05-5.39-1.86-10.95-2.88-17-3.17-.59-.02-1.05-.52-1.02-1.11.03-.59.54-1.02,1.12-1.01Zm0,9.02c6.26.29,12.01,1.37,17.6,3.27.55.19.85.8.66,1.35-.15.45-.57.73-1.01.73-.12,0-.22-.02-.34-.06-5.39-1.85-10.95-2.88-17-3.16-.59-.02-1.05-.52-1.02-1.11.03-.6.54-1.03,1.12-1.02Zm0,9.03c6.26.29,12.01,1.35,17.6,3.27.55.19.85.8.66,1.35-.15.44-.57.71-1.01.71-.12,0-.22-.01-.34-.05-5.39-1.85-10.95-2.88-17-3.16-.59-.03-1.05-.53-1.02-1.12.03-.59.54-1.03,1.12-1.01Zm0,9.05c6.25.28,12.01,1.34,17.6,3.27.55.19.85.8.66,1.35-.16.44-.57.71-1.01.71-.12,0-.23-.02-.34-.05-5.4-1.87-10.95-2.9-17-3.17-.59-.02-1.05-.52-1.02-1.11.03-.59.53-1.02,1.12-1.01Z"/><path d="m65.52,51.06c1.62-1.01,3.42-1.62,5.28-1.81v-27.72c0-.53-.43-.96-.96-.97-9.1-.03-17.35,1.64-25.08,5.07v43.08c4.92-2.45,9.96-4.05,15.2-4.85-.32-1.66-.31-3.39.09-5.1.11-.49.27-.97.44-1.44-3.81.52-7.45,1.39-11.01,2.61-.11.03-.22.05-.34.05-.45,0-.86-.28-1.01-.71-.19-.55.11-1.16.66-1.35,4.13-1.43,8.35-2.38,12.81-2.9.97-1.58,2.3-2.93,3.93-3.96Zm-16.74-20.26c5.59-1.91,11.34-2.98,17.6-3.26.58-.01,1.09.43,1.11,1.01.03.59-.43,1.09-1.01,1.11-6.05.29-11.62,1.31-17,3.17-.12.03-.23.05-.34.05-.45,0-.86-.28-1.01-.73-.19-.55.11-1.16.66-1.35Zm0,9.03c5.59-1.91,11.34-2.99,17.6-3.27.58-.01,1.09.43,1.11,1.02.03.59-.43,1.09-1.01,1.11-6.05.28-11.62,1.31-17,3.16-.12.04-.23.06-.34.06-.45,0-.86-.28-1.01-.73-.19-.55.11-1.16.66-1.35Zm.69,11.05c-.12.04-.23.05-.34.05-.45,0-.86-.28-1.01-.71-.19-.55.11-1.16.66-1.35,5.59-1.92,11.34-2.99,17.6-3.27.58-.02,1.09.43,1.11,1.01.03.59-.43,1.09-1.01,1.12-6.05.28-11.62,1.31-17,3.16Z"/><path d="m82.02,63.8c.61-2.66.15-5.39-1.3-7.7-1.45-2.3-3.71-3.91-6.37-4.52-.76-.18-1.54-.27-2.29-.27-1.9,0-3.77.53-5.41,1.57-2.3,1.45-3.91,3.71-4.52,6.37-.61,2.66-.15,5.39,1.3,7.7,1.45,2.31,3.71,3.91,6.37,4.52,2.66.62,5.39.15,7.7-1.3,2.3-1.44,3.91-3.7,4.52-6.37Zm-14.89.82c-3.33-1.82-1.95-7.86,1.85-8.04-1.47,2.63-2.03,5.03-1.85,8.04Z"/></svg>