<svg xmlns="http://www.w3.org/2000/svg" xmlns:xlink="http://www.w3.org/1999/xlink" xml:space="preserve" version="1.1" style="shape-rendering:geometricPrecision;text-rendering:geometricPrecision;image-rendering:optimizeQuality;" viewBox="0 0 847 1058.75" x="0px" y="0px" fill-rule="evenodd" clip-rule="evenodd"><defs><style type="text/css">
   
    .fil0 {fill:black}
   
  </style></defs><g><path class="fil0" d="M114 22l619 0c50,0 92,41 92,92l0 619c0,50 -42,92 -92,92l-619 0c-51,0 -92,-42 -92,-92l0 -619c0,-51 41,-92 92,-92zm301 273c-23,-36 -47,-71 -71,-106 -5,-9 -14,-14 -25,-14l-84 0c-25,0 -39,28 -25,48l131 187c3,3 3,7 0,11l-143 203c-14,20 0,47 25,47l84 0c10,0 19,-4 25,-13l86 -123c2,-3 5,-4 8,-4 3,0 5,1 7,4l82 123c6,9 15,13 25,13l84 0c24,0 39,-27 25,-47l-143 -203c-2,-4 -2,-8 1,-11l132 -187c14,-20 0,-48 -25,-48l-84 0c-10,0 -19,5 -25,13 -25,36 -50,71 -75,107 -2,2 -4,4 -7,4 -4,0 -6,-2 -8,-4z"/></g><text x="0" y="862" fill="#000000" font-size="5px" font-weight="bold" font-family="'Helvetica Neue', Helvetica, Arial-Unicode, Arial, Sans-serif">Created by Lina</text><text x="0" y="867" fill="#000000" font-size="5px" font-weight="bold" font-family="'Helvetica Neue', Helvetica, Arial-Unicode, Arial, Sans-serif">from the Noun Project</text></svg>