<svg xmlns="http://www.w3.org/2000/svg" xml:space="preserve" fill-rule="evenodd" clip-rule="evenodd" style="shape-rendering:geometricPrecision;text-rendering:geometricPrecision;image-rendering:optimizeQuality" viewBox="0 0 847 1058.75"><path d="M114 22h619c50 0 92 41 92 92v619c0 50-42 92-92 92H114c-51 0-92-42-92-92V114c0-51 41-92 92-92m301 273c-23-36-47-71-71-106-5-9-14-14-25-14h-84c-25 0-39 28-25 48l131 187c3 3 3 7 0 11L198 624c-14 20 0 47 25 47h84c10 0 19-4 25-13l86-123c2-3 5-4 8-4s5 1 7 4l82 123c6 9 15 13 25 13h84c24 0 39-27 25-47L506 421c-2-4-2-8 1-11l132-187c14-20 0-48-25-48h-84c-10 0-19 5-25 13-25 36-50 71-75 107-2 2-4 4-7 4-4 0-6-2-8-4" style="fill:#000"/><text y="862" font-family="'Helvetica Neue', Helvetica, Arial-Unicode, Arial, Sans-serif" font-size="5" font-weight="bold">Created by Lina</text><text y="867" font-family="'Helvetica Neue', Helvetica, Arial-Unicode, Arial, Sans-serif" font-size="5" font-weight="bold">from the Noun Project</text></svg>