<svg xmlns="http://www.w3.org/2000/svg" xmlns:xlink="http://www.w3.org/1999/xlink" version="1.1" x="0px" y="0px" viewBox="0 0 100 125" style="enable-background:new 0 0 100 100;" xml:space="preserve"><g><path d="M65.4550552,27.3242607c0.9539795,0,1.8845825,0.0355835,2.7939453,0.1018066   c-0.7260132-3.2279053-1.8453369-5.9100342-3.3582153-7.4229126c-5.7290611-5.729126-45.6785889-5.7255249-51.404171,0   c-5.7254643,5.7255249-5.7649541,28.2495728,0,34.0147095c1.2759399,1.2758179,4.2211905,2.2734375,8.0917349,2.9915771   l-1.0380859,8.2330971l10.3821411-7.1317177c3.0863056,0.2047729,6.3400288,0.2919922,9.5683002,0.2635498   c-0.2626953-1.7785645-0.4030762-3.6688232-0.4030762-5.6826782   C40.0876274,35.9692802,49.8365288,27.3242607,65.4550552,27.3242607z"/><path d="M90.8223038,52.6916924c0-15.4503784-8.5958252-24.2481689-22.5733032-25.265625   c2.0232544,8.9956665,0.9639893,22.2695312-3.3582153,26.5917969c-2.8212852,2.8212891-13.4630699,4.2601318-24.4000816,4.3565063   c1.9190674,12.9902382,10.736084,19.6846352,24.9643517,19.6846352c1.8716431,0,3.6391602-0.1323853,5.3203735-0.3688354   l9.6113892,6.6021729l-1.1586304-9.1898804C86.7268448,71.2385712,90.8223038,63.6486626,90.8223038,52.6916924z"/></g></svg>