<svg xmlns="http://www.w3.org/2000/svg" xmlns:xlink="http://www.w3.org/1999/xlink" version="1.1" x="0px" y="0px" viewBox="0 0 125 156.25" style="enable-background:new 0 0 125 125;" xml:space="preserve"><path d="M47.5,50.6c3.8,0,6.9,3.1,6.9,6.9s-3.1,6.9-6.9,6.9s-6.9-3.1-6.9-6.9S43.7,50.6,47.5,50.6z M77.5,50.6  c3.8,0,6.9,3.1,6.9,6.9s-3.1,6.9-6.9,6.9s-6.9-3.1-6.9-6.9S73.7,50.6,77.5,50.6z M62.5,89.4c-7.7,0-15.2-2.9-20.9-8.1  c-1.2-1.2-1.2-3.1,0-4.2c1.1-1.1,2.9-1.2,4.1-0.2c9.5,8.7,24.1,8.7,33.7,0c1.3-1.1,3.2-0.9,4.2,0.4c1,1.2,0.9,3-0.2,4.1  C77.7,86.5,70.2,89.4,62.5,89.4z M62.5,105.5c-23.7,0-43-19.3-43-43s19.3-43,43-43s43,19.3,43,43S86.2,105.5,62.5,105.5z M62.5,25.5  c-20.4,0-37,16.6-37,37s16.6,37,37,37s37-16.6,37-37S82.9,25.5,62.5,25.5z"/></svg>