<svg xmlns="http://www.w3.org/2000/svg" viewBox="0 0 128 160" x="0px" y="0px"><title>favor, care, help, empathy, support, love, family</title><g data-name="Education care"><polygon points="75.591 63.209 75.591 63.214 75.592 63.214 75.591 63.209"/><path d="M109.971,71c-4.37-5.642-8.217-5.191-9.8-4.033-1.951,1.433-4.43,3.474-7.055,5.634-4.858,4-10.365,8.534-13.027,9.566a15.268,15.268,0,0,1-1.657.256A44.951,44.951,0,0,0,69.6,84.292a37.855,37.855,0,0,0-9.788-1.311,38.219,38.219,0,0,1-8.269-.958C47.521,80.9,42.286,75.168,38.08,70.566a79.405,79.405,0,0,0-5.571-5.742,5.3,5.3,0,0,0-4.391-1.078c-2.285.35-6.875,2.182-11.943,10.509a5.831,5.831,0,0,0,1.1,6.936c5.639,6.152,22.031,19.772,23.612,21.083a92.906,92.906,0,0,0,6.611,8.24c.3.3.608.632.938.979,3.056,3.219,7.675,8.084,15.047,9.123a15.522,15.522,0,0,0,2.163.149c2.885,0,5.721-.763,7.16-1.969.34.025.685.055.994.055,4.231,0,5.671-2.254,6.15-4.026a4.217,4.217,0,0,0,2.558-2.347,3.458,3.458,0,0,0,.2-1.919,4.084,4.084,0,0,0,1.849-1.645,3.317,3.317,0,0,0,.429-2.51c2.792-1.581,4.567-4.542,6.14-7.2a17.109,17.109,0,0,1,2.942-4.113c.849-.706,2.008-1.652,3.342-2.741,4.381-3.576,10.379-8.472,13.924-11.81C113.072,78.908,113.161,75.1,109.971,71ZM82.842,107.886a1.735,1.735,0,0,1-1.342.928,40.853,40.853,0,0,1-15.979-6.059,1,1,0,0,0-1.143,1.641A42.362,42.362,0,0,0,80.7,110.712a1.471,1.471,0,0,1-.05,1,2.336,2.336,0,0,1-1.739,1.325,3.178,3.178,0,0,1-.774.055,36.851,36.851,0,0,1-15.872-5.074,1,1,0,0,0-1.08,1.685,38.432,38.432,0,0,0,16.549,5.362c-.526,1-1.823,2.072-5.245,1.707a3.69,3.69,0,0,1-.393-.044,30.077,30.077,0,0,1-12.151-3.926,1,1,0,0,0-1.121,1.656,29.807,29.807,0,0,0,10.42,3.845,13.969,13.969,0,0,1-5.489.327c-6.681-.941-11.012-5.5-13.877-8.519-.337-.355-.655-.69-.956-1A94.805,94.805,0,0,1,42.432,101a1.069,1.069,0,0,0-.175-.187c-.178-.147-17.8-14.749-23.511-20.975-1.086-1.184-1.773-3.048-.862-4.545,4.819-7.92,8.974-9.333,10.538-9.573a3.364,3.364,0,0,1,2.77.608c1.514,1.319,3.408,3.391,5.412,5.585,4.606,5.04,9.827,10.753,14.4,12.034a40.3,40.3,0,0,0,8.714,1.03,54.192,54.192,0,0,1,6.721.6,19.556,19.556,0,0,0-8.142,6.852l-.364.551c-1.321,1.987-2.817,4.239-2.405,6.149A2.919,2.919,0,0,0,56.887,101a4.4,4.4,0,0,0,3.714.422c2.483-.745,4.722-3.147,6.071-5.445a60.775,60.775,0,0,0,15.274,9.847,2.222,2.222,0,0,1,.941.7A1.2,1.2,0,0,1,82.842,107.886Zm27.122-28.8c-3.493,3.289-9.46,8.16-13.818,11.717-1.339,1.094-2.5,2.044-3.358,2.755a18.223,18.223,0,0,0-3.382,4.628c-1.46,2.466-3.111,5.216-5.5,6.526a4.792,4.792,0,0,0-1.131-.708,62,62,0,0,1-11.716-6.993,14.711,14.711,0,0,0,2.36.195,13.968,13.968,0,0,0,3.621-.476,1,1,0,1,0-.517-1.931,13.1,13.1,0,0,1-9.564-1.318c-.014-.008-.03-.008-.044-.017s-.038-.024-.059-.034-.013-.012-.022-.016a.919.919,0,0,0-.126-.029.943.943,0,0,0-.161-.045l-.063-.007a.986.986,0,0,0-.163.013,1,1,0,0,0-.154.019c-.02,0-.039.01-.059.017a2.647,2.647,0,0,0-.289.155c-.011.008-.025.01-.036.019s-.008.012-.013.016a.989.989,0,0,0-.1.121.88.88,0,0,0-.09.093c-.009.014-.009.031-.018.046l-.049.079c-1.185,2.608-3.542,5.014-5.484,5.6a2.4,2.4,0,0,1-2.075-.2.911.911,0,0,1-.471-.6c-.234-1.085,1.125-3.129,2.116-4.622l.37-.561A18.854,18.854,0,0,1,69.92,86.29a42.263,42.263,0,0,1,8.761-1.88,10.79,10.79,0,0,0,2.12-.372c2.97-1.151,8.365-5.594,13.583-9.89,2.6-2.142,5.06-4.166,6.964-5.565.933-.678,3.6-.794,7.043,3.647C110.974,75.55,110.865,78.238,109.964,79.087Z"/><path d="M67.063,17.123h-.2A20.209,20.209,0,0,0,46.812,36.341a19.941,19.941,0,0,0,5.34,14.49,18,18,0,0,1,4.963,12.225v.12c0,.012-.007.021-.007.033a9.745,9.745,0,1,0,19.483.023v-.009l0-.009v-.158a17.4,17.4,0,0,1,4.8-12.049A20.059,20.059,0,0,0,67.063,17.123Zm12.877,32.5a19.367,19.367,0,0,0-5.32,12.829,26.711,26.711,0,0,1-6.767,1.159V55.732a1,1,0,0,0-2,0v7.884a26.565,26.565,0,0,1-6.767-1.16,20.045,20.045,0,0,0-5.469-12.987,17.954,17.954,0,0,1-4.806-13.047,18.06,18.06,0,0,1,36.1.758A17.955,17.955,0,0,1,79.94,49.628Z"/><path d="M66.85,50.727A1.076,1.076,0,1,0,67.927,51.8,1.076,1.076,0,0,0,66.85,50.727Z"/><path d="M66.462,32.523a.494.494,0,0,0,.786,0c2.1-2.707,7-2.014,8.779.545,2.976,4.294.918,10.841-8.245,14.383a2.556,2.556,0,0,1-1.854,0c-9.163-3.542-11.221-10.089-8.244-14.383C59.462,30.509,64.364,29.816,66.462,32.523Z"/><circle cx="60.292" cy="10.488" r="2.256"/><circle cx="83.764" cy="12.744" r="2.256"/><circle cx="88.276" cy="52.225" r="2.256"/><circle cx="42.154" cy="51.543" r="2.256"/><circle cx="94.89" cy="33.67" r="3.667"/><circle cx="39.899" cy="27.61" r="3.667"/></g><text x="0" y="143" fill="#000000" font-size="5px" font-weight="bold" font-family="'Helvetica Neue', Helvetica, Arial-Unicode, Arial, Sans-serif">Created by Victoruler</text><text x="0" y="148" fill="#000000" font-size="5px" font-weight="bold" font-family="'Helvetica Neue', Helvetica, Arial-Unicode, Arial, Sans-serif">from the Noun Project</text></svg>