<svg xmlns="http://www.w3.org/2000/svg" xmlns:xlink="http://www.w3.org/1999/xlink" version="1.1" x="0px" y="0px" viewBox="0 0 100 125" enable-background="new 0 0 100 100" xml:space="preserve"><path d="M49.999,84.95c-19.273,0-34.953-15.678-34.953-34.948c0-19.272,15.68-34.952,34.953-34.952  c19.274,0,34.955,15.68,34.955,34.952C84.954,69.272,69.273,84.95,49.999,84.95z M49.999,18.05  c-17.619,0-31.953,14.333-31.953,31.952c0,17.616,14.334,31.948,31.953,31.948c17.62,0,31.955-14.332,31.955-31.948  C81.954,32.383,67.619,18.05,49.999,18.05z M50,74.572c-12.26,0-22.235-8.538-22.235-19.032v-1.5h44.469v1.5  C72.234,66.034,62.26,74.572,50,74.572z M30.849,57.04C31.759,65.18,40,71.572,50,71.572c9.999,0,18.241-6.393,19.151-14.532H30.849  z M35.942,36.75c-3.771,0-6.838,3.067-6.838,6.838h3c0-2.116,1.722-3.838,3.838-3.838s3.838,1.722,3.838,3.838h3  C42.78,39.817,39.712,36.75,35.942,36.75z M64.059,36.75c-3.771,0-6.838,3.067-6.838,6.838h3c0-2.116,1.722-3.838,3.838-3.838  s3.838,1.722,3.838,3.838h3C70.896,39.817,67.829,36.75,64.059,36.75z"/></svg>