<svg xmlns="http://www.w3.org/2000/svg" width="1600" height="1600" viewBox="0 0 1200 1200"><path d="m13.875 471.61 165.71 584.06c4.688 16.594 25.359 34.266 42.516 36.375 0 0 495.1 59.859 496.18 59.906l-170.76-595.4zm105 202.08c-27.375-34.312-30.281-77.344-6.562-96.281 23.719-18.891 65.061-6.469 92.343 27.844 27.281 34.266 30.234 77.344 6.516 96.188-23.719 18.938-65.016 6.469-92.297-27.75zm173.9 313.4c-23.766 18.938-65.062 6.469-92.344-27.797-27.375-34.266-30.281-77.344-6.563-96.281 23.72-18.891 65.062-6.422 92.344 27.844 27.375 34.266 30.281 77.344 6.563 96.234m93.562-120.42c-23.766 18.938-65.062 6.469-92.344-27.797-27.328-34.312-30.281-77.344-6.562-96.281 23.719-18.891 65.062-6.469 92.344 27.844 27.328 34.266 30.28 77.344 6.562 96.234m20.953-132.32c-27.328-34.312-30.281-77.391-6.563-96.281s65.062-6.469 92.344 27.844c27.328 34.266 30.281 77.344 6.516 96.188-23.719 18.984-65.016 6.516-92.297-27.75zm155.58 323.63c-23.766 18.938-65.062 6.469-92.344-27.797-27.328-34.312-30.281-77.344-6.516-96.281 23.72-18.891 65.016-6.422 92.344 27.844 27.281 34.266 30.234 77.344 6.516 96.234M1184.2 652.64l-152.06-488.11L616.5 536.39l168.42 587.39 385.13-409.69c12.844-13.688 19.734-43.5 14.156-61.453zM851.44 983.95c-26.344 0-47.766-36.75-47.766-82.125 0-45.328 21.375-82.078 47.766-82.078s47.766 36.75 47.766 82.078c0 45.375-21.375 82.125-47.766 82.125m77.578-242.34c-26.391 0-47.766-36.75-47.766-82.125 0-45.328 21.375-82.125 47.766-82.125s47.766 36.75 47.766 82.125-21.375 82.125-47.766 82.125m52.781-248.9c-26.391 0-47.766-36.75-47.766-82.125s21.375-82.078 47.766-82.078c26.344 0 47.766 36.75 47.766 82.078s-21.422 82.125-47.766 82.125M977.86 116.67s-505.97-68.625-508.4-68.625c-21.375 0-49.688 10.031-63.188 22.406l-364.4 332.9 522.66 83.156zM414.28 304.31c-17.109-30.234 8.484-77.062 57.188-104.53 48.703-27.562 102-25.312 119.11 4.922 17.062 30.234-8.531 77.062-57.234 104.58-48.656 27.469-102 25.219-119.06-4.969z"/></svg>