<svg xmlns="http://www.w3.org/2000/svg" viewBox="0 0 64 80" x="0px" y="0px"><path d="M18,59.999a.99942.99942,0,0,1-1-1A7.00766,7.00766,0,0,1,24,52a1,1,0,0,1,0,2,5.005,5.005,0,0,0-5,4.999A.99942.99942,0,0,1,18,59.999Z"/><path d="M28,54.001h0L24,54a1,1,0,0,1,0-2h0l4,.001a1,1,0,0,1,0,2Z"/><path d="M18,64a.99943.99943,0,0,1-1-1V59.28613a1,1,0,0,1,2,0V63A.99943.99943,0,0,1,18,64Z"/><path d="M48,59.999a.99942.99942,0,0,1-1-1A5.005,5.005,0,0,0,42,54a1,1,0,0,1,0-2,7.00765,7.00765,0,0,1,7,6.999A.99942.99942,0,0,1,48,59.999Z"/><path d="M38,54.001a1,1,0,0,1,0-2L42,52a1,1,0,0,1,0,2Z"/><path d="M48,64a.99943.99943,0,0,1-1-1V59.28613a1,1,0,0,1,2,0V63A.99943.99943,0,0,1,48,64Z"/><path d="M28,54.001a.99943.99943,0,0,1-1-1V49.7998a1,1,0,0,1,2,0V53.001A.99943.99943,0,0,1,28,54.001Z"/><path d="M38,54a.99943.99943,0,0,1-1-1V49.7998a1,1,0,0,1,2,0V53A.99943.99943,0,0,1,38,54Z"/><path d="M33,52A12.01312,12.01312,0,0,1,21,40a1,1,0,0,1,2,0,10,10,0,0,0,20,0,1,1,0,0,1,2,0A12.01312,12.01312,0,0,1,33,52Z"/><path d="M22,41.001a.99943.99943,0,0,1-1-1V35a1,1,0,0,1,2,0v5.001A.99943.99943,0,0,1,22,41.001Z"/><path d="M44,41.002a.99942.99942,0,0,1-1-1V35a1,1,0,0,1,2,0v5.002A.99942.99942,0,0,1,44,41.002Z"/><path d="M28,56a.99943.99943,0,0,1-1-1V53.001a1,1,0,0,1,2,0V55A.99943.99943,0,0,1,28,56Z"/><path d="M27.999,56a1,1,0,0,1-.19531-1.98047l5-1a.99993.99993,0,0,1,.39258,1.96094l-5,1A.97907.97907,0,0,1,27.999,56Z"/><path d="M38,56a.99943.99943,0,0,1-1-1V53.001a1,1,0,0,1,2,0V55A.99943.99943,0,0,1,38,56Z"/><path d="M38.001,56a.97225.97225,0,0,1-.19727-.01953l-5-1a.99993.99993,0,1,1,.39258-1.96094l5,1A1,1,0,0,1,38.001,56Z"/><path d="M33.01953,59a1,1,0,0,1-.00976-2h.00976a1,1,0,0,1,0,2Z"/><path d="M33.01953,63a1,1,0,0,1-.00976-2h.00976a1,1,0,0,1,0,2Z"/><path d="M12,64a.99943.99943,0,0,1-1-1V1a1,1,0,0,1,2,0V63A.99943.99943,0,0,1,12,64Z"/><path d="M9,64a.99943.99943,0,0,1-1-1V1a1,1,0,0,1,2,0V63A.99943.99943,0,0,1,9,64Z"/><path d="M35,4H12a1,1,0,0,1,0-2H35a1,1,0,0,1,0,2Z"/><path d="M35,12H12a1,1,0,0,1,0-2H35a1,1,0,0,1,0,2Z"/><path d="M35,12a.99943.99943,0,0,1-1-1V3a1,1,0,0,1,2,0v8A.99943.99943,0,0,1,35,12Z"/><path d="M55,9H35a1,1,0,0,1,0-2H55a1,1,0,0,1,0,2Z"/><path d="M55,17H30a1,1,0,0,1,0-2H55a1,1,0,0,1,0,2Z"/><path d="M55.001,17a.99556.99556,0,0,1-.80078-.40039l-3-4a.999.999,0,0,1,0-1.19922l3-4a.99961.99961,0,0,1,1.5996,1.19922L53.25,12l2.5498,3.40039A1.0001,1.0001,0,0,1,55.001,17Z"/><path d="M12,2H9A1,1,0,0,1,9,0h3a1,1,0,0,1,0,2Z"/><path d="M30,17a1,1,0,0,1-.707-1.707l5-5A.99989.99989,0,1,1,35.707,11.707l-5,5A.99676.99676,0,0,1,30,17Z"/><path d="M46,36H20a1,1,0,0,1,0-2H46a1,1,0,0,1,0,2Z"/><path d="M45.99805,35.999a.9932.9932,0,0,1-.51075-.14062A26.501,26.501,0,0,0,33,33a26.501,26.501,0,0,0-12.4873,2.8584.99994.99994,0,0,1-1.02735-1.71582A27.96217,27.96217,0,0,1,33,31a27.96217,27.96217,0,0,1,13.51465,3.14258.99966.99966,0,0,1-.5166,1.85644Z"/><path d="M22,35a.99943.99943,0,0,1-1-1V25a1,1,0,0,1,2,0v9A.99943.99943,0,0,1,22,35Z"/><path d="M44,35a.99943.99943,0,0,1-1-1V25a1,1,0,0,1,2,0v9A.99943.99943,0,0,1,44,35Z"/><path d="M22,26a.99943.99943,0,0,1-1-1,3.00328,3.00328,0,0,1,3-3,1,1,0,0,1,0,2,1.00067,1.00067,0,0,0-1,1A.99943.99943,0,0,1,22,26Z"/><path d="M44,26a.99943.99943,0,0,1-1-1,1.00067,1.00067,0,0,0-1-1,1,1,0,0,1,0-2,3.00328,3.00328,0,0,1,3,3A.99943.99943,0,0,1,44,26Z"/><path d="M42,24H24a1,1,0,0,1,0-2H42a1,1,0,0,1,0,2Z"/></svg>