<svg xmlns="http://www.w3.org/2000/svg" viewBox="0 0 96 120"><path d="M23.53 27.576c4.044 0 6.572-4.022 4.55-7.24-.94-1.495-2.673-2.414-4.55-2.414H7.768c-2.903-.001-5.256 2.161-5.254 4.827V99.98c-.002 2.666 2.35 4.828 5.254 4.827H23.53c4.044 0 6.572-4.022 4.55-7.24-.94-1.494-2.673-2.414-4.55-2.414H13.022V27.576zM88.927 18.238H73.164c-4.044 0-6.571 4.023-4.55 7.24.94 1.494 2.673 2.414 4.55 2.414h10.508V95.47H73.164c-4.044 0-6.571 4.024-4.55 7.24.94 1.495 2.673 2.414 4.55 2.414h15.763c2.902.002 5.255-2.16 5.254-4.827V23.065c.001-2.666-2.352-4.827-5.254-4.827"/><path d="M51.716 73.041c2.144 1.773 1.515 5.007 0 6.605-1.758 1.854-4.858 1.974-6.554.063-1.562-1.759-2.599-3.697.107-6.61 1.686-1.815 4.538-1.637 6.447-.058M37.494 53.377c-1.58-.692-1.796-3.203-1.157-4.924s1.518-3.035 2.656-4.227q1.707-1.79 4.119-2.791 2.412-1.003 5.393-1.003 3.848 0 6.423 1.057 2.574 1.058 4.146 2.628 1.572 1.572 2.249 3.388.678 1.816.678 3.387 0 2.602-.678 4.282-.677 1.68-1.68 2.873a11.2 11.2 0 0 1-2.222 2.032 50 50 0 0 0-2.304 1.681 10.8 10.8 0 0 0-1.924 1.924q-.84 1.084-1.057 2.71s-.894 1.715-1.711 2.097c-1.058.495-1.923.686-3.503-.038-.976-.447-1.678-1.734-1.933-2.832-.296-1.276.237-2.461.725-3.509q.73-1.572 1.707-2.683a13.6 13.6 0 0 1 2.06-1.924 32 32 0 0 0 2.005-1.626 7.3 7.3 0 0 0 1.49-1.789q.57-.975.515-2.439 0-2.493-1.219-3.685t-3.388-1.193c-.975 0-2.471.221-3.589 1.395s-.685 1.982-2.514 4.274-3.959 1.516-5.287.935" style="white-space:pre;fill:#3c3c3c"/></svg>