<svg xmlns="http://www.w3.org/2000/svg" xml:space="preserve" viewBox="0 0 125 156.25"><path d="M47.5 50.6c3.8 0 6.9 3.1 6.9 6.9s-3.1 6.9-6.9 6.9-6.9-3.1-6.9-6.9 3.1-6.9 6.9-6.9m30 0c3.8 0 6.9 3.1 6.9 6.9s-3.1 6.9-6.9 6.9-6.9-3.1-6.9-6.9 3.1-6.9 6.9-6.9m-15 38.8c-7.7 0-15.2-2.9-20.9-8.1-1.2-1.2-1.2-3.1 0-4.2 1.1-1.1 2.9-1.2 4.1-.2 9.5 8.7 24.1 8.7 33.7 0 1.3-1.1 3.2-.9 4.2.4 1 1.2.9 3-.2 4.1-5.7 5.1-13.2 8-20.9 8m0 16.1c-23.7 0-43-19.3-43-43s19.3-43 43-43 43 19.3 43 43-19.3 43-43 43m0-80c-20.4 0-37 16.6-37 37s16.6 37 37 37 37-16.6 37-37-16.6-37-37-37"/></svg>