<?xml version="1.0" encoding="utf-8"?><!DOCTYPE svg PUBLIC "-//W3C//DTD SVG 1.1//EN" "http://www.w3.org/Graphics/SVG/1.1/DTD/svg11.dtd"><svg version="1.1" xmlns="http://www.w3.org/2000/svg" xmlns:xlink="http://www.w3.org/1999/xlink" x="0px" y="0px" viewBox="0.059 9.066 100 107.37625" enable-background="new 0.059 9.066 100 85.901" xml:space="preserve"><path d="M70.069,50.706c0,9.573-8.936,17.327-19.94,17.327c-2.617,0-5.1-0.435-7.391-1.232c-3.195,1.75-6.039,2.942-9.849,3.69
	c-1.138,0.232-1.591,0.209-1.688,0.07c-0.114-0.166,0.259-0.49,0.59-0.758c3.689-2.881,4.305-4.388,5.195-6.075
	c-4.17-3.159-6.798-7.825-6.798-13.021c0-9.572,8.922-17.336,19.941-17.336C61.134,33.37,70.069,41.133,70.069,50.706z"/><path d="M50.129,15.599c6.386,0,12.667,1.676,18.166,4.846l0.944,0.544l3.262-5.66l-0.942-0.544
	c-6.488-3.742-13.896-5.72-21.429-5.72c-23.672,0-42.932,19.263-42.95,42.952H0.059l10.708,17.424l10.526-17.424h-7.581
	C13.71,31.936,30.048,15.599,50.129,15.599z"/><path d="M100.059,52.705L89.351,35.283L78.824,52.705h7.704c-0.369,19.763-16.549,35.729-36.399,35.729
	c-6.359,0-12.62-1.663-18.102-4.811l-0.946-0.543l-3.251,5.666l0.944,0.543c6.47,3.715,13.854,5.677,21.354,5.677
	c11.458,0,22.241-4.476,30.356-12.602c7.872-7.881,12.313-18.27,12.58-29.354l0.003-0.308L100.059,52.705L100.059,52.705z"/></svg>