<svg xmlns="http://www.w3.org/2000/svg" xmlns:xlink="http://www.w3.org/1999/xlink" version="1.1" x="0px" y="0px" viewBox="0 0 100 125" style="enable-background:new 0 0 100 100;" xml:space="preserve"><g><path d="M19.6,75.6c1.5,1.8,3.2,3.3,5,4.7c3.9,3.1,6.9,4.7,12.7,6.3c4.5,1.2,13.8,2.6,20.7,1.3c2.3-0.4,4.5-1.2,6.6-2.2   c2.1-1,4-2.4,5.8-3.9c0.9-0.7,1.7-1.6,2.5-2.4c0.7-0.7,1.4-1.5,2-2.3c0.8-0.9,1.4-1.9,2.1-3c0.6-1,1.1-2,1.5-3.1c0.4-1,0.8-2,1.1-3   c0.3-1,0.6-2.1,0.8-3.2c0.4-2.4,0.5-5,0.3-7.4c-0.4-4.2-2.2-9.7-3.8-12.9c-1.3-2.7-4.1-6.6-7.7-9.2c-3-2.2-7-4.4-10.8-5.3   c-5.8-1.4-9.5-1.3-12.5-1.3c-1.8,0-5.9,0.2-7.6,0.6c-0.4,0.1-0.8,0.3-1.2,0.4c-0.2,0-0.3,0.1-0.4,0.2c-1.8,0.3-3.7,1-5.3,1.7   c-1.8,0.9-3.2,1.9-6,4.3c-2.9,2.5-6.3,5.8-7.9,9.3c-1.4,2.9-2.3,5.8-2.8,8.7c-0.4,2.5-0.6,5.1-0.6,7.7   C14.3,66.9,16.3,71.8,19.6,75.6z M19.8,51.8c1.1-4.1,2.5-7.7,11.3-14.7c1.2-0.9,1.9-1.2,2.9-1.7c2.6-1.1,3.5-1.1,4.4-1.1   c0.6,0,1.1-0.2,1.5-0.6c1.6-0.4,8.7-0.6,12.5-0.1c6,0.9,8.3,1.9,11.4,3.7c2.7,1.6,4.4,2.8,6.8,5.7c2.3,3.1,3.3,5.6,4.4,9.5   c1.2,4,1.6,6.7,1,11.1c-0.3,2-1,4-1.8,6c-1,2.3-1.8,3.4-2.6,4.5c-3.3,4-6.5,6.4-10.2,8.1c-2.9,1.1-5.6,1.6-8.3,1.7   c-2.2,0.1-8.6-0.1-14-1.5c-4.4-1.2-7.1-2.1-11.3-5.3c-4-3.2-7.9-6.9-9-13.8C18.5,60.2,18.7,55.9,19.8,51.8z"/><path d="M34.5,52.7c1.2,0,2.3-1,2.3-2.3s-1-2.3-2.3-2.3s-2.3,1-2.3,2.3S33.3,52.7,34.5,52.7z"/><path d="M60.5,51.7c1.2,0,2.3-1,2.3-2.3c0-1.2-1-2.3-2.3-2.3s-2.3,1-2.3,2.3C58.3,50.7,59.3,51.7,60.5,51.7z"/><path d="M47.1,75.7c0.6,0.2,1.1,0.3,1.7,0.3c1.1,0.1,2.2-0.2,3.1-0.7c0.5-0.2,1.5-1,2-1.6c1-1.3,1.5-2.7,1.1-4.3   c-0.1-0.3-0.2-0.6-0.4-0.9c-0.4-0.8-1.4-1.4-2.8-2.5c-0.6-0.4-1.6-0.5-2.5,0.1c-0.3,0-0.5,0-0.8,0.1c-1,0.2-2,0.3-2.8,0.9   c-1.1,0.8-1.5,1.6-1.9,2.6c-0.3,0.8-0.4,1.8-0.1,2.7C44.1,74.2,45.4,75.2,47.1,75.7z M48.1,71c0.2-0.1,1.3-0.3,1.5-0.3   c0.1,0,0.3-0.1,0.4-0.1c0.1,0.1,0.2,0.2,0.4,0.3c0,0.1-0.3,0.3-0.3,0.3c-0.5,0.4-0.9,0.5-1.9,0.2c-0.1,0-0.1-0.1-0.2-0.1   C48.1,71.2,48.1,71.1,48.1,71z"/><path d="M86.7,15.5c-0.4-0.8-1.1-1.5-1.8-2.1c-1.1-0.8-2.1-0.9-2.9-0.9c-0.9-0.1-3.2,0.2-4.7,1.2c-1.2,0.7-1.9,1.9-2.3,3.2   c-0.2,0.8-0.1,1.6-0.1,2.3c0.1,0.6,0.2,1.2,0.7,1.6c0.4,0.4,1,0.7,1.6,0.7c1.5,0,2.4-1.4,2.3-2.3c0-0.3-0.1-1.1,0-1.4   c0-0.1,0.1-0.2,0.1-0.2c0.6-0.4,1.5-0.6,2.3-0.5c0.3,0.1,0.3,0.1,0.6,0.3c0.2,0.4,0.4,1,0.4,1.5c0.1,1.3,0,1.8-0.3,2.6   c-1.5,3.2-3.2,3.5-3,8.8c0,1.2,1,2.3,2.3,2.3c1.2,0,2.3-1,2.3-2.3c0-1,0-2,0.3-2.8c0.6-1.2,1.6-2.3,2.6-4.6   c0.7-1.8,0.6-3.8,0.2-5.7C87.2,16.5,87,16,86.7,15.5z"/><path d="M83.2,34.1c-1.2,0-2.3,1-2.3,2.3s1,2.3,2.3,2.3c1.2,0,2.3-1,2.3-2.3S84.4,34.1,83.2,34.1z"/></g></svg>