<svg xmlns="http://www.w3.org/2000/svg" viewBox="0 0 64 80"><path d="M18 59.999a1 1 0 0 1-1-1A7.01 7.01 0 0 1 24 52a1 1 0 0 1 0 2 5.005 5.005 0 0 0-5 4.999 1 1 0 0 1-1 1"/><path d="M28 54.001 24 54a1 1 0 0 1 0-2l4 .001a1 1 0 0 1 0 2M18 64a1 1 0 0 1-1-1v-3.714a1 1 0 0 1 2 0V63a1 1 0 0 1-1 1M48 59.999a1 1 0 0 1-1-1A5.005 5.005 0 0 0 42 54a1 1 0 0 1 0-2 7.01 7.01 0 0 1 7 6.999 1 1 0 0 1-1 1"/><path d="M38 54.001a1 1 0 0 1 0-2L42 52a1 1 0 0 1 0 2ZM48 64a1 1 0 0 1-1-1v-3.714a1 1 0 0 1 2 0V63a1 1 0 0 1-1 1M28 54.001a1 1 0 0 1-1-1V49.8a1 1 0 0 1 2 0V53a1 1 0 0 1-1 1"/><path d="M38 54a1 1 0 0 1-1-1v-3.2a1 1 0 0 1 2 0V53a1 1 0 0 1-1 1"/><path d="M33 52a12.013 12.013 0 0 1-12-12 1 1 0 0 1 2 0 10 10 0 0 0 20 0 1 1 0 0 1 2 0 12.013 12.013 0 0 1-12 12"/><path d="M22 41.001a1 1 0 0 1-1-1V35a1 1 0 0 1 2 0v5.001a1 1 0 0 1-1 1M44 41.002a1 1 0 0 1-1-1V35a1 1 0 0 1 2 0v5.002a1 1 0 0 1-1 1M28 56a1 1 0 0 1-1-1v-1.999a1 1 0 0 1 2 0V55a1 1 0 0 1-1 1"/><path d="M27.999 56a1 1 0 0 1-.195-1.98l5-1a1 1 0 0 1 .392 1.96l-5 1A1 1 0 0 1 28 56M38 56a1 1 0 0 1-1-1v-1.999a1 1 0 0 1 2 0V55a1 1 0 0 1-1 1"/><path d="M38.001 56a1 1 0 0 1-.197-.02l-5-1a1 1 0 1 1 .392-1.96l5 1a1 1 0 0 1-.195 1.98M33.02 59a1 1 0 0 1-.01-2h.01a1 1 0 0 1 0 2M33.02 63a1 1 0 0 1-.01-2h.01a1 1 0 0 1 0 2M12 64a1 1 0 0 1-1-1V1a1 1 0 0 1 2 0v62a1 1 0 0 1-1 1M9 64a1 1 0 0 1-1-1V1a1 1 0 0 1 2 0v62a1 1 0 0 1-1 1"/><path d="M35 4H12a1 1 0 0 1 0-2h23a1 1 0 0 1 0 2M35 12H12a1 1 0 0 1 0-2h23a1 1 0 0 1 0 2"/><path d="M35 12a1 1 0 0 1-1-1V3a1 1 0 0 1 2 0v8a1 1 0 0 1-1 1"/><path d="M55 9H35a1 1 0 0 1 0-2h20a1 1 0 0 1 0 2M55 17H30a1 1 0 0 1 0-2h25a1 1 0 0 1 0 2"/><path d="M55.001 17a1 1 0 0 1-.8-.4l-3-4a1 1 0 0 1 0-1.2l3-4A1 1 0 0 1 55.8 8.6L53.25 12l2.55 3.4A1 1 0 0 1 55 17M12 2H9a1 1 0 0 1 0-2h3a1 1 0 0 1 0 2M30 17a1 1 0 0 1-.707-1.707l5-5a1 1 0 1 1 1.414 1.414l-5 5A1 1 0 0 1 30 17M46 36H20a1 1 0 0 1 0-2h26a1 1 0 0 1 0 2"/><path d="M45.998 35.999a1 1 0 0 1-.51-.14A26.5 26.5 0 0 0 33 33a26.5 26.5 0 0 0-12.487 2.858 1 1 0 0 1-1.028-1.715A27.96 27.96 0 0 1 33 31a27.96 27.96 0 0 1 13.515 3.143 1 1 0 0 1-.517 1.856"/><path d="M22 35a1 1 0 0 1-1-1v-9a1 1 0 0 1 2 0v9a1 1 0 0 1-1 1M44 35a1 1 0 0 1-1-1v-9a1 1 0 0 1 2 0v9a1 1 0 0 1-1 1"/><path d="M22 26a1 1 0 0 1-1-1 3.003 3.003 0 0 1 3-3 1 1 0 0 1 0 2 1 1 0 0 0-1 1 1 1 0 0 1-1 1M44 26a1 1 0 0 1-1-1 1 1 0 0 0-1-1 1 1 0 0 1 0-2 3.003 3.003 0 0 1 3 3 1 1 0 0 1-1 1"/><path d="M42 24H24a1 1 0 0 1 0-2h18a1 1 0 0 1 0 2"/></svg>