<?xml version="1.0" encoding="UTF-8"?>
<svg width="1200pt" height="1200pt" version="1.1" viewBox="0 0 1200 1200" xmlns="http://www.w3.org/2000/svg">
 <path d="m1174.1 627.37-136.13-436.97c-11.953-38.391-51.047-71.438-90.938-76.875l-446.44-60.703c-36.328-4.875-86.062 10.781-112.83 35.25l-330.24 301.69c-29.438 26.906-43.453 76.172-32.578 114.56l145.6 513.19c11.156 39.188 50.016 72.469 90.469 77.344 0 0 441.28 53.25 445.55 53.25 35.531 0 76.312-16.922 99.094-41.156l341.81-363.61c26.859-28.594 38.344-78.469 26.625-115.97zm-743.72-492.79c11.859-10.875 36.75-19.688 55.547-19.688 2.1562 0 446.72 60.281 446.72 60.281l-363.24 324.98-459.19-73.078zm-161.81 897.61c-15.047-1.8281-33.188-17.344-37.312-31.922l-145.6-513.19 468.84 74.625 150.05 523.13c-0.9375-0.046875-435.98-52.641-435.98-52.641zm832.87-332.06-338.34 359.95-148.03-516.1 365.21-326.72 133.6 428.86c4.9219 15.75-1.125 42-12.422 54z"/>
 <path d="m542.11 344.39c-42.75 24.188-89.625 22.266-104.62-4.3125-15.047-26.578 7.5-67.688 50.25-91.875 42.797-24.188 89.625-22.266 104.67 4.3125 15 26.578-7.5 67.688-50.297 91.875"/>
 <path d="m259.03 689.02c20.812-16.547 18.281-54.422-5.7188-84.516-24-30.141-60.281-41.062-81.141-24.469s-18.281 54.469 5.7188 84.562 60.281 41.062 81.141 24.422z"/>
 <path d="m326.06 725.16c-20.859 16.594-18.281 54.469 5.7188 84.562 23.953 30.094 60.281 41.062 81.141 24.422 20.812-16.594 18.234-54.422-5.7188-84.562-24-30.094-60.281-41.016-81.141-24.422z"/>
 <path d="m243.84 830.95c-20.859 16.594-18.281 54.469 5.7188 84.562s60.281 41.062 81.141 24.422c20.812-16.594 18.234-54.422-5.7188-84.516-23.953-30.141-60.281-41.062-81.141-24.469z"/>
 <path d="m512.44 742.36c20.859-16.594 18.281-54.422-5.7188-84.516-24-30.141-60.281-41.062-81.141-24.469s-18.281 54.469 5.7188 84.562 60.281 41.062 81.141 24.422z"/>
 <path d="m481.18 893.26c-20.859 16.594-18.281 54.469 5.7188 84.562s60.281 41.062 81.141 24.422c20.812-16.594 18.234-54.422-5.7656-84.562-23.953-30.094-60.234-41.016-81.094-24.422z"/>
 <path d="m931.69 652.18c0 39.844-18.797 72.141-42 72.141-23.156 0-41.953-32.297-41.953-72.141s18.797-72.141 41.953-72.141c23.203 0 42 32.297 42 72.141"/>
 <path d="m978.05 433.45c0 39.844-18.797 72.141-41.953 72.141-23.203 0-42-32.297-42-72.141s18.797-72.141 42-72.141c23.156 0 41.953 32.297 41.953 72.141"/>
 <path d="m863.48 865.08c0 39.844-18.797 72.141-41.953 72.141-23.203 0-41.953-32.297-41.953-72.141s18.75-72.141 41.953-72.141c23.156 0 41.953 32.297 41.953 72.141"/>
</svg>
