<svg xmlns="http://www.w3.org/2000/svg" data-name="Layer 1" viewBox="0 0 100 125"><title>mini chat</title><path d="M80.27 8.27H19.73A13.75 13.75 0 0 0 6 22v35.86a13.75 13.75 0 0 0 13.73 13.73h31.53l1.6 1.19 19.75 14.76-2.37-8.29-2.19-7.65h12.22A13.75 13.75 0 0 0 94 57.86V22A13.75 13.75 0 0 0 80.27 8.27M29.72 46a5.75 5.75 0 1 1 5.71-5.67A5.73 5.73 0 0 1 29.72 46m20.22 0a5.75 5.75 0 1 1 5.8-5.72 5.81 5.81 0 0 1-5.8 5.72m20.34 0A5.75 5.75 0 1 1 76 40.21 5.74 5.74 0 0 1 70.28 46" style="fill:none"/><path d="M80.27 2.27H19.73A19.73 19.73 0 0 0 0 22v35.86a19.73 19.73 0 0 0 19.73 19.73h29.53l24.17 18c1.89 1.41 3.48 2.09 4.66 2.09 2.2 0 3-2.32 1.8-6.55L76 77.59h4.26A19.73 19.73 0 0 0 100 57.86V22A19.73 19.73 0 0 0 80.27 2.27M94 57.86a13.75 13.75 0 0 1-13.73 13.73H68.05l2.19 7.65 2.37 8.29-19.76-14.75-1.6-1.19H19.73A13.75 13.75 0 0 1 6 57.86V22A13.75 13.75 0 0 1 19.73 8.27h60.54A13.75 13.75 0 0 1 94 22z"/><path d="M50 34.51a5.75 5.75 0 1 0 5.73 5.78A5.8 5.8 0 0 0 50 34.51M29.77 34.51a5.75 5.75 0 1 0 5.67 5.82 5.73 5.73 0 0 0-5.67-5.82M70.33 34.5A5.75 5.75 0 1 0 76 40.21a5.73 5.73 0 0 0-5.67-5.71"/></svg>