<svg xmlns="http://www.w3.org/2000/svg" xmlns:xlink="http://www.w3.org/1999/xlink" version="1.1" x="0px" y="0px" viewBox="0 0 100 125" enable-background="new 0 0 100 100" xml:space="preserve"><g><path d="M60.061,31.915c2.528,0.362,5.058,0.89,7.561,1.542c12.15-3.53,22.104-9.713,22.104-9.713s-21.136-4.985-36.455-1.784   c-11.168,2.335-19.14,10.368-19.718,10.962C39.288,31.789,49.472,30.397,60.061,31.915z"/><path d="M92.095,50.062c0,0-22.394,3.466-38.066-1.077c-11.87-3.44-19.752-12.643-19.752-12.643s10.853-3.06,22.345-1.563   C74.348,37.088,92.095,50.062,92.095,50.062z"/></g><g><path d="M67.046,59.227c-8.06-3.271-16.359-3.708-20.342-3.699c-6.62-5.613-11.354-11.483-14.066-17.458   C27.11,25.89,22.177,7.479,22.128,7.295l-2.449,0.653c0.039,0.146,3.102,11.577,7.123,22.47c-0.162,0.694-0.958,3.672-3.198,6.607   c-4.415-3.151-11.849-1.089-17.202,4.98C0.69,48.48-0.492,57.064,3.764,61.179c4.256,4.114,12.336,2.199,18.048-4.275   c5.235-5.936,6.661-13.643,3.584-18.055c1.312-1.655,2.214-3.337,2.818-4.737c0.688,1.736,1.396,3.422,2.115,5.005   c0.224,0.495,0.466,0.988,0.716,1.48l-0.032,0.012c0.018,0.049,1.831,4.98,1.899,9.567c0.044,2.997-0.395,5.37-0.802,6.909   c-5.487-0.429-11.223,4.644-13.327,12.133c-2.308,8.213,0.624,16.221,6.548,17.885c5.923,1.664,12.596-3.644,14.903-11.856   c2.187-7.787-0.336-15.387-5.654-17.572c0.452-1.725,0.914-4.302,0.866-7.536c-0.015-0.977-0.099-1.959-0.225-2.911   c2.658,3.521,5.98,6.969,9.94,10.317c2.021,4.199,7.494,14.166,16.073,19.491c14.598,9.062,37.636,8.479,37.636,8.479   S84.243,66.205,67.046,59.227z M20.76,51.096c-0.503,1.016-1.151,1.975-1.925,2.854c-2.034,2.306-4.72,3.74-7.185,3.838   c-0.092,0.004-0.185,0.006-0.276,0.006c-1.515,0-2.837-0.506-3.836-1.471c-0.424-0.41-0.436-1.085-0.026-1.509   c0.411-0.425,1.085-0.436,1.509-0.026c0.796,0.77,1.822,0.898,2.544,0.867c1.894-0.074,4.013-1.24,5.669-3.117   c0.651-0.738,1.194-1.542,1.614-2.389c0.261-0.528,0.901-0.745,1.429-0.482C20.806,49.928,21.021,50.568,20.76,51.096z    M34.752,71.243c0.042-0.599,0.565-1.052,1.156-1.008c0.598,0.043,1.048,0.561,1.006,1.157c-0.062,0.89-0.219,1.785-0.466,2.665   c-0.707,2.517-2.091,4.694-3.897,6.131c-1.411,1.122-2.955,1.703-4.473,1.703c-0.538,0-1.072-0.073-1.595-0.221   c-0.696-0.195-1.346-0.517-1.933-0.955c-0.479-0.358-0.577-1.038-0.219-1.518c0.358-0.479,1.037-0.577,1.517-0.22   c0.372,0.278,0.784,0.482,1.222,0.605c1.314,0.371,2.782-0.019,4.131-1.092c1.454-1.155,2.576-2.939,3.16-5.021   C34.569,72.733,34.7,71.983,34.752,71.243z"/></g></svg>