<svg xmlns="http://www.w3.org/2000/svg" xml:space="preserve" viewBox="0.059 9.066 100 107.376"><path d="M70.069 50.706c0 9.573-8.936 17.327-19.94 17.327-2.617 0-5.1-.435-7.391-1.232-3.195 1.75-6.039 2.942-9.849 3.69-1.138.232-1.591.209-1.688.07-.114-.166.259-.49.59-.758 3.689-2.881 4.305-4.388 5.195-6.075-4.17-3.159-6.798-7.825-6.798-13.021 0-9.572 8.922-17.336 19.941-17.336 11.005-.001 19.94 7.762 19.94 17.335"/><path d="M50.129 15.599a36.4 36.4 0 0 1 18.166 4.846l.944.544 3.262-5.66-.942-.544a42.94 42.94 0 0 0-21.429-5.72c-23.672 0-42.932 19.263-42.95 42.952H.059l10.708 17.424 10.526-17.424h-7.581c-.002-20.081 16.336-36.418 36.417-36.418M100.059 52.705 89.351 35.283 78.824 52.705h7.704c-.369 19.763-16.549 35.729-36.399 35.729a36.4 36.4 0 0 1-18.102-4.811l-.946-.543-3.251 5.666.944.543a42.94 42.94 0 0 0 21.354 5.677c11.458 0 22.241-4.476 30.356-12.602 7.872-7.881 12.313-18.27 12.58-29.354l.003-.308z"/></svg>