<svg xmlns="http://www.w3.org/2000/svg" xml:space="preserve" viewBox="0 0 100 125"><path d="M77.471 42.369c-.956 0-1.913.089-2.86.265A24.6 24.6 0 0 0 71.499 33h17.627v-2.5H69.878c-4.512-6.082-11.734-10-19.878-10-9.878 0-18.578 5.841-22.514 14.5H13.375v2.5h13.119a25 25 0 0 0-.57 2.02 17 17 0 0 0-2.126-.139c-9.538 0-17.298 7.76-17.298 17.297 0 9.539 7.76 17.299 17.298 17.299h53.673c8.715 0 15.805-7.09 15.805-15.804-.001-8.714-7.09-15.804-15.805-15.804m0 29.109H23.798C15.638 71.478 9 64.839 9 56.679s6.638-14.797 14.798-14.797c.925 0 1.887.098 2.859.291l1.242.246.23-1.245C30.08 30.643 39.278 23 50 23c11.931 0 21.692 9.33 22.224 21.241l.071 1.583 1.522-.437a13.3 13.3 0 0 1 3.653-.519c7.336 0 13.305 5.969 13.305 13.305 0 7.337-5.968 13.305-13.304 13.305M32.25 78.25H72.5v2.5H32.25zM49.888 84.875h28.987v2.5H49.888zM13.375 14.5h45.809V17H13.375zM42.937 8.5h21.444V11H42.937z"/><path d="M20.835 57.25h36.794v2.5H20.835zM41.425 45.989H67.5v2.5H41.425zM69.562 20.5h9.782V23h-9.782zM10 84.875h18.295v2.5H10z"/></svg>