<svg xmlns="http://www.w3.org/2000/svg" viewBox="0 0 160 200"><path d="M98.75 0h-37.5C27.48 0 0 27.48 0 61.25c0 24.65 14.93 46.87 37.5 56.37V155a5 5 0 0 0 5 5c1.3 0 2.58-.51 3.54-1.46l36.04-36.04h16.68c33.77 0 61.25-27.48 61.25-61.25S132.52 0 98.75 0m0 112.5H80c-1.33 0-2.6.53-3.54 1.46L47.5 142.92v-28.73c0-2.12-1.33-4.01-3.33-4.71C23.73 102.25 10 82.86 10 61.24 10 32.98 32.99 9.99 61.25 9.99h37.5c28.26 0 51.25 22.99 51.25 51.25s-22.99 51.25-51.25 51.25Zm3.54-66.46L87.08 61.25l15.21 15.21a5.003 5.003 0 0 1 0 7.07c-.98.98-2.26 1.46-3.54 1.46s-2.56-.49-3.54-1.46L80 68.32 64.79 83.53c-.98.98-2.26 1.46-3.54 1.46s-2.56-.49-3.54-1.46a5.003 5.003 0 0 1 0-7.07l15.21-15.21-15.21-15.21a5.003 5.003 0 0 1 0-7.07 5.003 5.003 0 0 1 7.07 0l15.21 15.21L95.2 38.97a5.003 5.003 0 0 1 7.07 0 5.003 5.003 0 0 1 0 7.07Z"/></svg>