<svg xmlns="http://www.w3.org/2000/svg" data-name="Layer 1" viewBox="0 0 100 125" x="0px" y="0px"><title>emojis</title><path d="M38.664,53.809a1,1,0,1,0-.028,2c1.165.018,2.333.007,3.5,0,6.1-.059,11.866-.105,17.012,3.539A1,1,0,1,0,60.3,57.712C54.631,53.694,48.273,53.75,42.118,53.8,40.965,53.814,39.811,53.824,38.664,53.809Z"/><path d="M26.252,24.813a.993.993,0,0,0,.576-.183c6.7-4.726,10.028-4.747,14.847-.1a1,1,0,1,0,1.389-1.439c-5.535-5.341-9.922-5.365-17.389-.1a1,1,0,0,0,.578,1.817Z"/><path d="M58.485,27.293a1,1,0,0,0,.265-.036,29.671,29.671,0,0,1,9.077-.59,53.662,53.662,0,0,0,5.606,0,1,1,0,1,0-.139-2,52.071,52.071,0,0,1-5.4-.006,31.651,31.651,0,0,0-9.677.66,1,1,0,0,0,.264,1.965Z"/><path d="M85.414,29.9a1,1,0,0,0-1.836.792A36.571,36.571,0,0,1,50,81.7c-.607,0-1.216-.031-1.824-.061,0-.247.01-.5.01-.718a13.234,13.234,0,0,1,.155-1.768,6.822,6.822,0,0,0-.015-2.873,16.972,16.972,0,0,0-1.178-2.951L58.234,69.87a.852.852,0,0,0,.479-.379,3.28,3.28,0,0,0,.4-3.078,4.063,4.063,0,0,0-2.764-1.991.851.851,0,0,0-.391.011c-20.863,5.544-23.6,3.417-23.844,3.151,0-.017,0-.034,0-.05C31.219,56.3,28.375,55.253,27.525,55.2l-.053,0a2.793,2.793,0,0,0-2.119,1.037,3.649,3.649,0,0,0-.325,3.29c.687,2.474-.678,8.325-1.235,10.29-.078.2-.144.384-.217.576a36.561,36.561,0,0,1-6.4-41.329,1,1,0,1,0-1.795-.882,38.569,38.569,0,0,0,7.47,44.329c-3.542,11.579,2.65,15.34,2.927,15.5A23.372,23.372,0,0,0,37.739,91.7,14.472,14.472,0,0,0,46.8,88.827a.849.849,0,0,0,.19-.233,4.5,4.5,0,0,0,.552-2.028,4.392,4.392,0,0,1,.144-.933,11.776,11.776,0,0,0,.364-2c.65.032,1.3.065,1.95.065A38.57,38.57,0,0,0,85.414,29.9ZM45.847,86.428a2.979,2.979,0,0,1-.27,1.2c-.972.731-7.957,5.444-18.943-1.084-.062-.036-6.168-3.746-1.233-16.18.091-.319,2.221-7.852,1.265-11.292a2.227,2.227,0,0,1,.034-1.8,1.041,1.041,0,0,1,.68-.363c.351.19,2.3,1.65,3.03,10.687a1.623,1.623,0,0,0,.558,1.247c2.185,2.052,10.667,1.141,25.209-2.709a2.3,2.3,0,0,1,1.379.967A1.492,1.492,0,0,1,57.4,68.35L45.632,72.025a.851.851,0,0,0-.452,1.286A13.9,13.9,0,0,1,46.7,76.766a5.608,5.608,0,0,1-.041,2.166,14.808,14.808,0,0,0-.17,1.994,16.221,16.221,0,0,1-.432,4.231A6,6,0,0,0,45.847,86.428Z"/><path d="M41,33.043h0a6.607,6.607,0,0,0-.618-4.132,3.971,3.971,0,0,0-6.532-1.043,6.916,6.916,0,0,0-1.256,7.866,4.143,4.143,0,0,0,2.986,2.273,3.682,3.682,0,0,0,.579.046C38.43,38.053,40.534,35.934,41,33.043Zm-5.152,3.285a2.49,2.49,0,0,1-1.755-1.4,5.223,5.223,0,0,1,.933-5.837,2.613,2.613,0,0,1,1.786-.8,2.023,2.023,0,0,1,.316.025,2.489,2.489,0,0,1,1.754,1.395,4.906,4.906,0,0,1,.439,3.064h0C38.964,34.984,37.405,36.578,35.844,36.328Z"/><path d="M60.983,42.065a3.665,3.665,0,0,0,.578.046c2.276,0,4.381-2.119,4.842-5.009a6.608,6.608,0,0,0-.618-4.132A4.142,4.142,0,0,0,62.8,30.7c-2.484-.39-4.919,1.829-5.42,4.964S58.5,41.668,60.983,42.065Zm-1.926-6.137c.329-2.056,1.7-3.579,3.149-3.579a2.084,2.084,0,0,1,.325.026,2.488,2.488,0,0,1,1.754,1.395,4.9,4.9,0,0,1,.439,3.063h0c-.352,2.208-1.906,3.8-3.473,3.553S58.705,38.137,59.058,35.929Z"/></svg>