<svg xmlns="http://www.w3.org/2000/svg" data-name="Layer 1" viewBox="0 0 24 30" x="0px" y="0px"><defs><style>.cls-1{fill:#231f20;}</style></defs><title>ThinEmoticons_bb</title><path class="cls-1" d="M12.16,21.86a9.5,9.5,0,1,1,9.5-9.5A9.51,9.51,0,0,1,12.16,21.86Zm0-18a8.5,8.5,0,1,0,8.5,8.5A8.51,8.51,0,0,0,12.16,3.86Z"/><path class="cls-1" d="M15.5,14.8a2.07,2.07,0,0,1-1.77-1.05.5.5,0,0,1,.87-.5,1.06,1.06,0,0,0,1.81,0,.5.5,0,0,1,.87.5A2.06,2.06,0,0,1,15.5,14.8Z"/><path class="cls-1" d="M8.5,14.8a2.07,2.07,0,0,1-1.77-1.05.5.5,0,0,1,.87-.5,1.06,1.06,0,0,0,1.81,0,.5.5,0,0,1,.87.5A2.06,2.06,0,0,1,8.5,14.8Z"/><path class="cls-1" d="M12.66,18.75h-1a.5.5,0,0,1,0-1h1a.5.5,0,0,1,0,1Z"/><path class="cls-1" d="M7.27,10.24a2.88,2.88,0,0,1-.66-.08.5.5,0,1,1,.23-1,1.88,1.88,0,0,0,2.25-1.4.5.5,0,0,1,1,.23,2.88,2.88,0,0,1-2.79,2.22Z"/><path class="cls-1" d="M17,10.24A2.88,2.88,0,0,1,14.24,8a.5.5,0,0,1,1-.23,1.88,1.88,0,0,0,2.25,1.4.5.5,0,1,1,.23,1A2.88,2.88,0,0,1,17,10.24Z"/><text x="0" y="39" fill="#000000" font-size="5px" font-weight="bold" font-family="'Helvetica Neue', Helvetica, Arial-Unicode, Arial, Sans-serif">Created by Brandy Bora</text><text x="0" y="44" fill="#000000" font-size="5px" font-weight="bold" font-family="'Helvetica Neue', Helvetica, Arial-Unicode, Arial, Sans-serif">from the Noun Project</text></svg>