<?xml version="1.0" encoding="utf-8"?>
<svg viewBox="0 0 4000 5000" style="enable-background:new 0 0 4000 4000;" xmlns="http://www.w3.org/2000/svg" xmlns:bx="https://boxy-svg.com">
  <g transform="matrix(1.351991, 0, 0, 1.351991, -715.299927, -740.387024)" style="">
    <path d="M2211.5,2168.8c56.5-56.5,87.6-131.6,87.6-211.5V931.6c0-79.9-31.1-155-87.6-211.5s-131.6-87.6-211.5-87.6H931.6   c-79.9,0-155,31.1-211.5,87.6s-87.6,131.6-87.6,211.5v1025.6c0,79.9,31.1,155,87.6,211.5s131.6,87.6,211.5,87.6h64.1v235   c0,22.1,6.5,43.1,18.8,60.9c11.4,16.4,27.3,29.3,45.9,37.3c13.6,5.8,28,8.8,42.5,8.8c5.4,0,10.9-0.4,16.2-1.3   c21.3-3.3,41.1-13.1,57.1-28.4l328-312.4H2000C2079.9,2256.4,2155,2225.3,2211.5,2168.8z M1487.2,2170.9c-11,0-21.5,4.2-29.5,11.8   l-340.4,324.2c-9.2,8.8-19.3,5.8-23.2,4.2c-3.9-1.7-12.9-6.9-12.9-19.6v-235H1188c23.6,0,42.7-19.1,42.7-42.7s-19.1-42.7-42.7-42.7   H931.6c-117.8,0-213.7-95.9-213.7-213.7V931.6C718,813.8,813.8,718,931.6,718H2000c117.8,0,213.7,95.9,213.7,213.7v1025.6   c0,117.8-95.9,213.7-213.7,213.7h-512.8V2170.9z" style=""/>
    <path d="M3279.9,1831.2c-56.5-56.5-131.6-87.6-211.5-87.6h-64.1v-235c0-22.1-6.5-43.1-18.8-60.9c-11.4-16.4-27.3-29.3-45.9-37.3   c-18.6-8-38.9-10.6-58.7-7.5c-21.3,3.3-41.1,13.1-57.1,28.4l-328,312.4h-68.4c-23.6,0-42.7,19.1-42.7,42.7s19.1,42.7,42.7,42.7   h85.5c11,0,21.5-4.2,29.5-11.8l340.4-324.2c9.2-8.8,19.3-5.8,23.2-4.2c3.9,1.7,12.9,6.9,12.9,19.6v235h-128.2   c-23.6,0-42.7,19.1-42.7,42.7s19.1,42.7,42.7,42.7h277.8c117.8,0,213.7,95.9,213.7,213.7v1025.6c0,117.8-95.9,213.7-213.7,213.7   H2000c-117.8,0-213.7-95.9-213.7-213.7v-683.8c0-23.6-19.1-42.7-42.7-42.7s-42.7,19.1-42.7,42.7v683.8c0,79.9,31.1,155,87.6,211.5   s131.6,87.6,211.5,87.6h1068.4c79.9,0,155-31.1,211.5-87.6s87.6-131.6,87.6-211.5V2042.7   C3367.5,1962.8,3336.4,1887.7,3279.9,1831.2z" style=""/>
  </g>
  <ellipse style="fill: rgb(216, 216, 216); fill-opacity: 0; stroke-width: 150px; stroke: rgb(121, 121, 121);" cx="1254.035" cy="1193.01" rx="550.837" ry="550.837"/>
  <path d="M 2711.993 2307.476 L 3188.974 3172.964 L 2235.012 3172.964 L 2711.993 2307.476 Z" style="fill: rgb(255, 255, 255); stroke-width: 150px; fill-opacity: 0; stroke: rgb(116, 116, 116);" bx:shape="triangle 2235.012 2307.476 953.962 865.488 0.5 0 1@dc6ae6db"/>
</svg>