<?xml version="1.0" encoding="UTF-8"?>
<svg width="1200pt" height="1200pt" version="1.1" viewBox="0 0 1200 1200" xmlns="http://www.w3.org/2000/svg">
 <path d="m1075.9 1081.8h-951.8c-6.3633 0-12.469-2.5273-16.969-7.0273-4.5039-4.5-7.0312-10.605-7.0312-16.973v-915.57c0-8.5742 4.5742-16.5 12-20.785 7.4258-4.2891 16.574-4.2891 24 0 7.4258 4.2852 12 12.211 12 20.785v891.57h927.8c8.5742 0 16.496 4.5742 20.785 12 4.2852 7.4258 4.2852 16.574 0 24-4.2891 7.4258-12.211 12-20.785 12z"/>
 <path d="m239.44 960.45c-4.7734 0-9.3516-1.8984-12.727-5.2734-3.3789-3.375-5.2734-7.9531-5.2734-12.727v-211.98c0-6.4336 3.4297-12.375 9-15.59 5.5703-3.2148 12.43-3.2148 18 0 5.5703 3.2148 9 9.1562 9 15.59v211.98c0 4.7734-1.8984 9.3516-5.2734 12.727s-7.9531 5.2734-12.727 5.2734z"/>
 <path d="m309.34 960.45c-4.7734 0-9.3516-1.8984-12.727-5.2734-3.3789-3.375-5.2734-7.9531-5.2734-12.727v-286.59c0-6.4297 3.4297-12.371 9-15.59 5.5703-3.2148 12.43-3.2148 18 0 5.5703 3.2188 9 9.1602 9 15.59v286.59c0 4.7734-1.8984 9.3516-5.2734 12.727s-7.9531 5.2734-12.727 5.2734z"/>
 <path d="m379.24 960.45c-4.7734 0-9.3516-1.8984-12.727-5.2734-3.3789-3.375-5.2734-7.9531-5.2734-12.727v-350.54c0-6.4297 3.4297-12.371 9-15.59 5.5703-3.2148 12.43-3.2148 18 0 5.5703 3.2188 9 9.1602 9 15.59v350.54c0 4.7734-1.8984 9.3516-5.2734 12.727s-7.9531 5.2734-12.727 5.2734z"/>
 <path d="m449.14 960.45c-4.7734 0-9.3516-1.8984-12.727-5.2734-3.3789-3.375-5.2734-7.9531-5.2734-12.727v-425.15c0-6.4297 3.4297-12.375 9-15.59 5.5703-3.2148 12.43-3.2148 18 0 5.5703 3.2148 9 9.1602 9 15.59v425.15c0 4.7734-1.8984 9.3516-5.2734 12.727s-7.9531 5.2734-12.727 5.2734z"/>
 <path d="m519.04 960.45c-4.7734 0-9.3516-1.8984-12.727-5.2734-3.3789-3.375-5.2734-7.9531-5.2734-12.727v-499.76c0-6.4297 3.4297-12.371 9-15.586 5.5703-3.2148 12.43-3.2148 18 0 5.5703 3.2148 9 9.1562 9 15.586v499.76c0 4.7734-1.8984 9.3516-5.2734 12.727s-7.9531 5.2734-12.727 5.2734z"/>
 <path d="m588.94 960.45c-4.7734 0-9.3516-1.8984-12.727-5.2734-3.3789-3.375-5.2734-7.9531-5.2734-12.727v-574.37c0-6.4297 3.4297-12.375 9-15.59s12.43-3.2148 18 0 9 9.1602 9 15.59v574.37c0 4.7734-1.8984 9.3516-5.2734 12.727s-7.9531 5.2734-12.727 5.2734z"/>
 <path d="m658.84 960.45c-4.7734 0-9.3516-1.8984-12.727-5.2734-3.3789-3.375-5.2734-7.9531-5.2734-12.727v-574.37c0-6.4297 3.4297-12.375 9-15.59 5.5703-3.2148 12.43-3.2148 18 0 5.5703 3.2148 9 9.1602 9 15.59v574.37c0 4.7734-1.8984 9.3516-5.2734 12.727s-7.9531 5.2734-12.727 5.2734z"/>
 <path d="m728.74 960.45c-4.7734 0-9.3516-1.8984-12.727-5.2734-3.3789-3.375-5.2734-7.9531-5.2734-12.727v-499.76c0-6.4297 3.4297-12.371 9-15.586 5.5703-3.2148 12.43-3.2148 18 0 5.5703 3.2148 9 9.1562 9 15.586v499.76c0 4.7734-1.8984 9.3516-5.2734 12.727s-7.9531 5.2734-12.727 5.2734z"/>
 <path d="m798.64 960.45c-4.7734 0-9.3516-1.8984-12.727-5.2734-3.3789-3.375-5.2734-7.9531-5.2734-12.727v-425.15c0-6.4297 3.4297-12.375 9-15.59 5.5703-3.2148 12.43-3.2148 18 0 5.5703 3.2148 9 9.1602 9 15.59v425.15c0 4.7734-1.8984 9.3516-5.2734 12.727s-7.9531 5.2734-12.727 5.2734z"/>
 <path d="m868.54 960.45c-4.7734 0-9.3516-1.8984-12.727-5.2734-3.3789-3.375-5.2734-7.9531-5.2734-12.727v-350.54c0-6.4297 3.4297-12.371 9-15.59 5.5703-3.2148 12.43-3.2148 18 0 5.5703 3.2188 9 9.1602 9 15.59v350.54c0 4.7734-1.8984 9.3516-5.2734 12.727s-7.9531 5.2734-12.727 5.2734z"/>
 <path d="m938.44 960.45c-4.7734 0-9.3516-1.8984-12.727-5.2734-3.3789-3.375-5.2734-7.9531-5.2734-12.727v-286.59c0-6.4297 3.4297-12.371 9-15.59 5.5703-3.2148 12.43-3.2148 18 0 5.5703 3.2188 9 9.1602 9 15.59v286.59c0 4.7734-1.8984 9.3516-5.2734 12.727s-7.9531 5.2734-12.727 5.2734z"/>
 <path d="m1008.3 960.45c-4.7734 0-9.3516-1.8984-12.727-5.2734-3.3789-3.375-5.2734-7.9531-5.2734-12.727v-211.98c0-6.4336 3.4297-12.375 9-15.59 5.5703-3.2148 12.43-3.2148 18 0 5.5703 3.2148 9 9.1562 9 15.59v211.98c0 4.7734-1.8984 9.3516-5.2734 12.727s-7.9531 5.2734-12.727 5.2734z"/>
</svg>
