<svg xmlns="http://www.w3.org/2000/svg" xml:space="preserve" viewBox="0 0 540 675"><path d="M270 15C129.068 15 15 129.049 15 270c0 140.932 114.049 255 255 255 140.932 0 255-114.049 255-255 0-140.932-114.049-255-255-255m0 490C140.421 505 35 399.579 35 270S140.421 35 270 35s235 105.421 235 235-105.421 235-235 235"/><path d="M396.21 326.82h-28.36c-54.63 0-104.609 30.857-129.063 79.768-3.35 6.699 1.592 14.474 8.937 14.474 3.668 0 7.2-2.025 8.952-5.53 21.191-42.382 63.791-68.711 111.175-68.711h28.36c5.522 0 10-4.478 10-10s-4.479-10.001-10.001-10.001"/><circle cx="189.636" cy="211.5" r="34"/><circle cx="350.364" cy="211.5" r="34"/></svg>