<?xml version="1.0" encoding="UTF-8"?>
<svg width="1200pt" height="1200pt" version="1.1" viewBox="0 0 1200 1200" xmlns="http://www.w3.org/2000/svg">
 <path d="m13.875 471.61 165.71 584.06c4.6875 16.594 25.359 34.266 42.516 36.375 0 0 495.1 59.859 496.18 59.906l-170.76-595.4zm105 202.08c-27.375-34.312-30.281-77.344-6.5625-96.281 23.719-18.891 65.062-6.4688 92.344 27.844 27.281 34.266 30.234 77.344 6.5156 96.188-23.719 18.938-65.016 6.4688-92.297-27.75zm173.9 313.4c-23.766 18.938-65.062 6.4688-92.344-27.797-27.375-34.266-30.281-77.344-6.5625-96.281 23.719-18.891 65.062-6.4219 92.344 27.844 27.375 34.266 30.281 77.344 6.5625 96.234zm93.562-120.42c-23.766 18.938-65.062 6.4688-92.344-27.797-27.328-34.312-30.281-77.344-6.5625-96.281 23.719-18.891 65.062-6.4688 92.344 27.844 27.328 34.266 30.281 77.344 6.5625 96.234zm20.953-132.32c-27.328-34.312-30.281-77.391-6.5625-96.281s65.062-6.4688 92.344 27.844c27.328 34.266 30.281 77.344 6.5156 96.188-23.719 18.984-65.016 6.5156-92.297-27.75zm155.58 323.63c-23.766 18.938-65.062 6.4688-92.344-27.797-27.328-34.312-30.281-77.344-6.5156-96.281 23.719-18.891 65.016-6.4219 92.344 27.844 27.281 34.266 30.234 77.344 6.5156 96.234z"/>
 <path d="m1184.2 652.64-152.06-488.11-415.64 371.86 168.42 587.39 385.13-409.69c12.844-13.688 19.734-43.5 14.156-61.453zm-332.76 331.31c-26.344 0-47.766-36.75-47.766-82.125 0-45.328 21.375-82.078 47.766-82.078 26.391 0 47.766 36.75 47.766 82.078 0 45.375-21.375 82.125-47.766 82.125zm77.578-242.34c-26.391 0-47.766-36.75-47.766-82.125 0-45.328 21.375-82.125 47.766-82.125 26.391 0 47.766 36.75 47.766 82.125s-21.375 82.125-47.766 82.125zm52.781-248.9c-26.391 0-47.766-36.75-47.766-82.125s21.375-82.078 47.766-82.078c26.344 0 47.766 36.75 47.766 82.078 0 45.328-21.422 82.125-47.766 82.125z"/>
 <path d="m977.86 116.67s-505.97-68.625-508.4-68.625c-21.375 0-49.688 10.031-63.188 22.406l-364.4 332.9 522.66 83.156zm-563.58 187.64c-17.109-30.234 8.4844-77.062 57.188-104.53 48.703-27.562 102-25.312 119.11 4.9219 17.062 30.234-8.5312 77.062-57.234 104.58-48.656 27.469-102 25.219-119.06-4.9688z"/>
</svg>
