<svg xmlns="http://www.w3.org/2000/svg" viewBox="0 0 64 80"><path d="M6 49h12a5 5 0 0 0 0-10 4.6 4.6 0 0 0-.783.067A5.988 5.988 0 0 0 6.083 41 4 4 0 1 0 6 49m0-6a2 2 0 0 1 .677.129 1 1 0 0 0 1.342-.978c0-.034-.014-.117-.019-.151a4 4 0 0 1 4-4 3.96 3.96 0 0 1 3.73 2.6 1 1 0 0 0 1.27.587A3 3 0 0 1 18 41a3 3 0 0 1 0 6H6a2 2 0 0 1 0-4M56.35 39.048A7.005 7.005 0 1 0 50 49h7a5 5 0 1 0-.65-9.952M57 47h-7a5 5 0 0 1-1.666-.284 5 5 0 1 1 6.444-6.194 1 1 0 0 0 1.274.651A2.992 2.992 0 1 1 57 47M21 20A11 11 0 1 0 32 9a11.013 11.013 0 0 0-11 11m11-9a9 9 0 1 1-9 9 9.01 9.01 0 0 1 9-9M33 6V3a1 1 0 0 0-2 0v3a1 1 0 0 0 2 0M31 34v3a1 1 0 0 0 2 0v-3a1 1 0 0 0-2 0M20.686 7.272a1 1 0 0 0-1.414 1.415l2.122 2.121a1 1 0 0 0 1.414-1.414ZM42.606 29.192a1 1 0 0 0-1.414 1.414l2.122 2.122a1 1 0 0 0 1.414-1.415ZM18 19h-3a1 1 0 0 0 0 2h3a1 1 0 0 0 0-2M46 21h3a1 1 0 0 0 0-2h-3a1 1 0 0 0 0 2M21.394 29.192l-2.122 2.121a1 1 0 1 0 1.414 1.415l2.122-2.122a1 1 0 0 0-1.414-1.414M43.314 7.272l-2.122 2.122a1 1 0 1 0 1.414 1.414l2.122-2.121a1 1 0 1 0-1.414-1.415M3 53h57a1 1 0 0 0 0-2H3a1 1 0 0 0 0 2M36 56a1 1 0 0 0-1-1H20a1 1 0 0 0 0 2h15a1 1 0 0 0 1-1M45 56a1 1 0 0 0-1-1h-5a1 1 0 0 0 0 2h5a1 1 0 0 0 1-1M27 61h12a1 1 0 0 0 0-2H27a1 1 0 0 0 0 2"/></svg>