<svg xmlns="http://www.w3.org/2000/svg" viewBox="0 0 4000 5000"><path d="M2274.628 2191.811c76.388-76.387 118.435-177.922 118.435-285.946V519.128c0-108.024-42.047-209.559-118.435-285.946s-177.922-118.435-285.946-118.435H544.215c-108.024 0-209.559 42.047-285.946 118.435S139.834 411.104 139.834 519.128V1905.73c0 108.024 42.047 209.558 118.435 285.946S436.19 2310.11 544.215 2310.11h86.663v317.718c0 29.88 8.787 58.271 25.417 82.336 15.413 22.173 36.91 39.614 62.056 50.43 18.387 7.841 37.856 11.897 57.46 11.897 7.3 0 14.737-.54 21.902-1.757 28.798-4.462 55.567-17.711 77.199-38.397l443.453-422.362h670.317c108.024.27 209.559-41.776 285.946-118.164m-979.247 2.84c-14.872 0-29.068 5.678-39.884 15.953L795.28 2648.919c-12.439 11.898-26.094 7.842-31.367 5.679-5.272-2.299-17.44-9.33-17.44-26.5v-317.717h144.392c31.907 0 57.73-25.823 57.73-57.73s-25.823-57.73-57.73-57.73h-346.65c-159.265 0-288.92-129.656-288.92-288.92V519.127c.135-159.265 129.655-288.785 288.92-288.785h1444.467c159.265 0 288.92 129.655 288.92 288.92v1386.602c0 159.265-129.655 288.92-288.92 288.92h-693.3z"/><path d="M3719.095 1735.379c-76.387-76.388-177.922-118.435-285.946-118.435h-86.662v-317.717c0-29.88-8.788-58.271-25.418-82.337-15.412-22.172-36.91-39.613-62.056-50.429s-52.593-14.331-79.362-10.14c-28.797 4.462-55.567 17.711-77.199 38.397L2659 1617.08h-92.476c-31.907 0-57.73 25.823-57.73 57.73s25.823 57.73 57.73 57.73h115.595c14.872 0 29.068-5.679 39.884-15.954l460.218-438.315c12.438-11.898 26.093-7.842 31.366-5.679 5.273 2.299 17.44 9.33 17.44 26.5v317.717h-173.325c-31.907 0-57.73 25.823-57.73 57.73s25.823 57.73 57.73 57.73h375.583c159.265 0 288.92 129.656 288.92 288.92v1386.603c0 159.264-129.655 288.92-288.92 288.92H1988.682c-159.264 0-288.92-129.656-288.92-288.92V2483.3c0-31.907-25.823-57.73-57.73-57.73s-57.73 25.823-57.73 57.73v924.492c0 108.024 42.046 209.558 118.434 285.946s177.922 118.434 285.946 118.434H3433.15c108.024 0 209.559-42.047 285.946-118.434s118.435-177.922 118.435-285.946V2021.325c0-108.024-42.047-209.559-118.435-285.946"/><circle cx="1254.035" cy="1193.01" r="550.837" fill="none" style="fill:#d8d8d8;fill-opacity:0;stroke-width:150px;stroke:#797979"/><path fill="none" d="m2711.993 2307.476 476.981 865.488h-953.962z" style="fill:#fff;stroke-width:150px;fill-opacity:0;stroke:#747474"/></svg>