<?xml version="1.0" encoding="utf-8"?>
<svg viewBox="0 0 96 120" xmlns="http://www.w3.org/2000/svg">
  <g transform="matrix(1.313527, 0, 0, 1.206756, -15.15077, 3.719462)" style="">
    <path d="M 29.448 19.769 C 32.527 19.769 34.451 16.436 32.912 13.769 C 32.197 12.531 30.877 11.769 29.448 11.769 L 17.448 11.769 C 15.238 11.768 13.447 13.56 13.448 15.769 L 13.448 79.769 C 13.447 81.978 15.238 83.77 17.448 83.769 L 29.448 83.769 C 32.527 83.769 34.451 80.436 32.912 77.769 C 32.197 76.531 30.877 75.769 29.448 75.769 L 21.448 75.769 L 21.448 19.769 L 29.448 19.769 Z"/>
    <path d="M 79.235 12.031 L 67.235 12.031 C 64.156 12.031 62.232 15.365 63.771 18.031 C 64.486 19.269 65.806 20.031 67.235 20.031 L 75.235 20.031 L 75.235 76.031 L 67.235 76.031 C 64.156 76.031 62.232 79.365 63.771 82.031 C 64.486 83.269 65.806 84.031 67.235 84.031 L 79.235 84.031 C 81.445 84.032 83.236 82.241 83.235 80.031 L 83.235 16.031 C 83.236 13.822 81.445 12.031 79.235 12.031 Z"/>
  </g>
  <path d="M 51.716 73.041 C 53.86 74.814 53.231 78.048 51.716 79.646 C 49.958 81.5 46.858 81.62 45.162 79.709 C 43.6 77.95 42.563 76.012 45.269 73.099 C 46.955 71.284 49.807 71.462 51.716 73.041 Z M 37.494 53.377 C 35.914 52.685 35.698 50.174 36.337 48.453 C 36.976 46.732 37.855 45.418 38.993 44.226 C 40.131 43.033 41.504 42.103 43.112 41.435 C 44.72 40.766 46.518 40.432 48.505 40.432 C 51.07 40.432 53.211 40.784 54.928 41.489 C 56.644 42.194 58.026 43.07 59.074 44.117 C 60.122 45.165 60.872 46.294 61.323 47.505 C 61.775 48.716 62.001 49.845 62.001 50.892 C 62.001 52.627 61.775 54.054 61.323 55.174 C 60.872 56.294 60.312 57.252 59.643 58.047 C 58.974 58.842 58.234 59.519 57.421 60.079 C 56.608 60.639 55.84 61.199 55.117 61.76 C 54.394 62.32 53.753 62.961 53.193 63.684 C 52.633 64.407 52.281 65.31 52.136 66.394 C 52.136 66.394 51.242 68.109 50.425 68.491 C 49.367 68.986 48.502 69.177 46.922 68.453 C 45.946 68.006 45.244 66.719 44.989 65.621 C 44.693 64.345 45.226 63.16 45.714 62.112 C 46.201 61.064 46.77 60.17 47.421 59.429 C 48.072 58.688 48.758 58.047 49.481 57.505 C 50.204 56.963 50.872 56.421 51.486 55.879 C 52.1 55.337 52.597 54.741 52.976 54.09 C 53.356 53.44 53.528 52.627 53.491 51.651 C 53.491 49.989 53.085 48.761 52.272 47.966 C 51.459 47.171 50.329 46.773 48.884 46.773 C 47.909 46.773 46.413 46.994 45.295 48.168 C 44.177 49.342 44.61 50.15 42.781 52.442 C 40.952 54.734 38.822 53.958 37.494 53.377 Z" style="white-space: pre; fill: rgb(60, 60, 60);"/>
</svg>