<svg xmlns="http://www.w3.org/2000/svg" xmlns:xlink="http://www.w3.org/1999/xlink" version="1.1" x="0px" y="0px" viewBox="0 0 90 112.5" enable-background="new 0 0 90 90" xml:space="preserve"><path d="M41.291,33.505c0,0-2.287-11.433-2.287-11.849c0-0.416-3.741-18.224,4.573-19.956c4.365-0.346,4.988,3.811,4.643,6.929  c-0.347,3.118,3.396,23.767,10.255,27.786c6.514,2.287,7.103,7.622,8.35,10.013s3.43,7.899,6.444,10.498  c3.014,2.598-1.039,25.36-7.483,28.894c-6.444,3.534-12.161,2.287-12.161,2.287S19.429,87.171,24.522,76.05  c0.416-0.936,0.416-0.936,0.416-0.936s-10.602-2.807-4.989-11.745c-7.172-4.157-4.781-12.576,2.079-13.823  c-6.756-3.43-6.548-11.745,3.95-14.759C33.954,33.177,41.291,33.505,41.291,33.505z"/><g><path fill="#000000" d="M41.1,46.323c-0.68,0.451-1.402,0.838-2.156,1.17c-0.378,0.161-0.766,0.306-1.17,0.419   c-0.4,0.12-0.84,0.166-1.242,0.195c-1.628,0.124-3.247,0.187-4.866,0.294c-0.81,0.044-1.618,0.099-2.425,0.16   c-0.808,0.055-1.613,0.133-2.419,0.209c-1.608,0.171-3.215,0.365-4.793,0.774c0.744-0.337,1.533-0.572,2.325-0.776   c0.795-0.195,1.598-0.354,2.406-0.48c0.807-0.135,1.619-0.225,2.43-0.314c0.812-0.08,1.626-0.141,2.439-0.194   c0.814-0.043,1.628-0.082,2.442-0.106l2.437-0.049c0.201-0.005,0.404-0.01,0.595-0.024c0.191-0.016,0.385-0.048,0.579-0.083   c0.388-0.073,0.773-0.185,1.155-0.308C39.604,46.962,40.355,46.654,41.1,46.323z"/></g><g><path fill="#000000" d="M38.554,61.083l-1.569,1.207l-0.778,0.604c-0.129,0.102-0.256,0.204-0.38,0.309   c-0.12,0.1-0.255,0.217-0.333,0.308l-0.058,0.067l-0.1,0.006c-1.291,0.07-2.584,0.123-3.877,0.16l-1.939,0.045l-1.94,0.018   c-1.293,0.005-2.586-0.008-3.88-0.038c-1.293-0.039-2.587-0.085-3.88-0.187c1.292-0.108,2.584-0.177,3.876-0.24   c1.292-0.057,2.584-0.102,3.876-0.135l1.938-0.041l1.938-0.021c1.293-0.01,2.585-0.007,3.878,0.01l-0.156,0.073   c0.147-0.149,0.278-0.232,0.417-0.335c0.138-0.097,0.274-0.189,0.413-0.281c0.276-0.185,0.557-0.36,0.839-0.532   C37.401,61.732,37.974,61.4,38.554,61.083z"/></g><g><path fill="#000000" d="M39.281,77.297c-0.514-0.343-1.078-0.586-1.655-0.749c-0.578-0.168-1.174-0.246-1.766-0.25l-1.834,0.053   c-0.616,0.012-1.232,0.013-1.85,0.012c-0.617-0.011-1.235-0.025-1.853-0.054c-0.617-0.039-1.235-0.074-1.851-0.147   c-0.617-0.066-1.232-0.16-1.841-0.295c-0.303-0.073-0.607-0.151-0.901-0.263c-0.288-0.113-0.596-0.242-0.793-0.489   c0.117,0.103,0.259,0.16,0.402,0.209s0.291,0.085,0.439,0.114c0.297,0.059,0.599,0.1,0.902,0.127   c0.606,0.062,1.217,0.087,1.827,0.111c0.611,0.016,1.223,0.039,1.836,0.042c0.611,0.012,1.225,0.021,1.838,0.021   c1.231,0.023,2.444,0.012,3.699,0.074c0.637,0.048,1.264,0.201,1.846,0.446C38.305,76.514,38.853,76.846,39.281,77.297z"/></g><g><path fill="#000000" d="M54.456,35.099c-0.032-0.14-0.151-0.232-0.261-0.311c-0.112-0.079-0.236-0.143-0.363-0.198   c-0.255-0.11-0.522-0.188-0.793-0.254c-0.54-0.136-1.093-0.222-1.647-0.296c-1.109-0.14-2.229-0.222-3.351-0.278   c-1.121-0.063-2.244-0.097-3.369-0.135c-1.125-0.032-2.252-0.07-3.381-0.122c1.125-0.11,2.253-0.18,3.382-0.203   c1.13-0.028,2.261-0.013,3.392,0.044c1.13,0.065,2.261,0.165,3.379,0.374c0.559,0.103,1.114,0.234,1.655,0.421   c0.268,0.098,0.533,0.208,0.783,0.351c0.125,0.071,0.246,0.151,0.354,0.248C54.336,34.837,54.444,34.953,54.456,35.099z"/></g></svg>