<svg xmlns="http://www.w3.org/2000/svg" xml:space="preserve" viewBox="0 0 100 125"><path d="M49.999 84.95c-19.273 0-34.953-15.678-34.953-34.948 0-19.272 15.68-34.952 34.953-34.952s34.955 15.68 34.955 34.952c0 19.27-15.681 34.948-34.955 34.948m0-66.9c-17.619 0-31.953 14.333-31.953 31.952 0 17.616 14.334 31.948 31.953 31.948 17.62 0 31.955-14.332 31.955-31.948 0-17.619-14.335-31.952-31.955-31.952M50 74.572c-12.26 0-22.235-8.538-22.235-19.032v-1.5h44.469v1.5c0 10.494-9.974 19.032-22.234 19.032M30.849 57.04C31.759 65.18 40 71.572 50 71.572s18.241-6.393 19.151-14.532zm5.093-20.29a6.845 6.845 0 0 0-6.838 6.838h3c0-2.116 1.722-3.838 3.838-3.838s3.838 1.722 3.838 3.838h3a6.846 6.846 0 0 0-6.838-6.838m28.117 0a6.845 6.845 0 0 0-6.838 6.838h3c0-2.116 1.722-3.838 3.838-3.838s3.838 1.722 3.838 3.838h3c-.001-3.771-3.068-6.838-6.838-6.838"/></svg>