<svg xmlns="http://www.w3.org/2000/svg" xmlns:xlink="http://www.w3.org/1999/xlink" version="1.1" x="0px" y="0px" viewBox="0 0 100 125" enable-background="new 0 0 100 100" xml:space="preserve"><circle cx="14.5" cy="68.9" r="9.2"/><circle cx="85.5" cy="68.9" r="9.2"/><path d="M76,61.3l-2.5-14.2h15.3c3.3,0,6-2.7,6-6V8.4c0-3.3-2.7-6-6-6H49.3c-0.2,0-0.4,0-0.7,0H11.5c-3.3,0-6,2.7-6,6v39.2  c0,3.3,2.7,6,6,6h13.3v10.5l10.5-10.5h13.3c3.3,0,6-2.7,6-6v-0.5h5.8L76,61.3z M50.9,8.4v35H18.5c-1.3,0-2.3-1-2.3-2.3V8.4  c0-1.3,1-2.3,2.3-2.3H49C50.1,6.3,50.9,7.3,50.9,8.4z M50.9,47.6c0,1.3-1,2.3-2.3,2.3H33.8l-5.3,5.3v-5.3h-17c-1.3,0-2.3-1-2.3-2.3  V8.4c0-1.3,1-2.3,2.3-2.3H13c-0.3,0.7-0.5,1.5-0.5,2.3v32.7c0,3.3,2.7,6,6,6h32.4V47.6z M54.1,6.1h34.6c1.3,0,2.3,1,2.3,2.3v32.7  c0,1.3-1,2.3-2.3,2.3H69.1l1.4,7.9l-8.7-7.9h-7.2v-35C54.6,7.6,54.4,6.8,54.1,6.1z"/><path d="M33.6,36.6c6.1,0,11.1-5,11.1-11.1v-1.1c0-6.1-5-11.1-11.1-11.1s-11.1,5-11.1,11.1v1.1C22.4,31.6,27.4,36.6,33.6,36.6z   M26.1,24.3c0-4.1,3.3-7.5,7.5-7.5s7.5,3.3,7.5,7.5v1.1c0,4.1-3.3,7.5-7.5,7.5s-7.5-3.3-7.5-7.5V24.3z"/><path d="M72.7,13.1L59.4,34.9h26.5L72.7,13.1z M72.7,20.2l6.7,11H66L72.7,20.2z"/><path d="M18.9,80.7h-8.6c-5.2,0-9.5,4.7-9.5,10.4v8.9h27.6v-8.9C28.4,85.3,24.2,80.7,18.9,80.7z"/><path d="M89.7,80.7h-8.6c-5.2,0-9.5,4.7-9.5,10.4v8.9h27.6v-8.9C99.1,85.3,94.9,80.7,89.7,80.7z"/></svg>