<svg xmlns="http://www.w3.org/2000/svg" xml:space="preserve" viewBox="0 0 100 125"><path d="M58.528 87.98c0 3.099-.892 5.307-2.654 7.09-2.005 1.539-4.213 2.43-6.644 2.43-2.45 0-4.659-.891-6.644-2.43-2.005-1.783-2.876-3.991-2.876-7.09 0-2.43.871-4.66 2.876-6.644 1.763-1.762 3.99-2.654 6.644-2.654s4.862.892 6.644 2.654c1.762 1.985 2.654 4.213 2.654 6.644M81.336 27.536c0 3.525-.669 6.624-2.208 9.298-1.337 2.653-3.1 5.084-5.105 6.846q-2.978 3.008-10.634 9.966c-1.317 1.337-2.653 2.451-3.322 3.322-.87 1.114-1.54 2.005-1.985 2.674-.446.87-.668 1.762-1.114 2.43 0 .892-.446 2.431-.871 4.416-.891 4.436-3.322 6.442-7.535 6.442-2.208 0-3.99-.669-5.53-2.006-1.56-1.54-2.228-3.544-2.228-6.42 0-3.546.668-6.645 1.782-9.075.871-2.654 2.431-4.882 4.193-6.867 1.783-1.985 4.213-4.213 7.313-6.867 2.653-2.43 4.658-4.213 5.752-5.307 1.337-1.114 2.228-2.43 3.12-3.99.87-1.56 1.094-3.1 1.094-4.862 0-3.342-1.094-6.218-3.545-8.426-2.654-2.208-5.753-3.322-9.743-3.322-4.639 0-7.96 1.114-10.189 3.322-2.208 2.43-3.97 5.752-5.53 10.411-1.337 4.639-4.213 7.09-7.96 7.09-2.451 0-4.436-.891-5.996-2.654-1.762-1.56-2.43-3.322-2.43-5.327 0-3.99 1.336-7.96 3.767-11.95 2.653-4.214 6.198-7.536 11.282-10.19C38.596 3.837 44.126 2.5 50.77 2.5c5.975 0 11.525 1.114 16.164 3.322 4.659 2.208 8.204 5.327 10.634 9.075 2.654 3.767 3.768 7.98 3.768 12.64"/></svg>