<svg xmlns="http://www.w3.org/2000/svg" xml:space="preserve" viewBox="0 0 91 113.75"><path d="M79.658 13.067c-4.068-3.359-9.287-5.209-14.697-5.209-6.256 0-12.309 2.488-16.604 6.828a24.3 24.3 0 0 0-2.768 3.35c-4.39-6.367-11.482-10.215-19.124-10.215-1.4 0-2.82.129-4.221.383-7.232 1.317-12.916 5.295-16.894 11.82-5.695 9.354-6.146 17.992-1.383 26.408 2.555 4.508 5.879 8.918 10.168 13.48 7.891 8.389 17.23 16.348 29.4 25.055.648.461 1.338.693 2.047.693 1.1 0 1.844-.557 2.268-.877 10.816-7.717 19.691-15.152 27.137-22.738 4.188-4.268 8.932-9.512 12.4-16.033 1.455-2.746 3.117-6.432 3.02-10.596-.218-9.114-3.833-16.634-10.749-22.349m3.289 30.59c-3.164 5.953-7.613 10.859-11.545 14.869-7.09 7.223-15.543 14.326-25.836 21.713-11.457-8.256-20.303-15.826-27.771-23.768-4.012-4.268-7.102-8.361-9.455-12.516-3.836-6.78-3.424-13.554 1.303-21.315 3.199-5.25 7.744-8.443 13.498-9.492a18.6 18.6 0 0 1 3.324-.301c6.857 0 12.928 3.781 16.223 10.088.188.367.373.717.678 1.285a2.51 2.51 0 0 0 2.215 1.332h.043a2.51 2.51 0 0 0 2.211-1.402c1.201-2.436 2.5-4.318 4.092-5.928 3.361-3.395 8.111-5.338 13.035-5.338 4.246 0 8.328 1.441 11.494 4.059 5.746 4.742 8.748 11 8.93 18.592.067 2.982-1.197 5.778-2.439 8.122"/></svg>