<svg xmlns="http://www.w3.org/2000/svg" xmlns:xlink="http://www.w3.org/1999/xlink" version="1.1" x="0px" y="0px" viewBox="0 0 100 125" style="enable-background:new 0 0 100 100;" xml:space="preserve"><path d="M58.5277061,87.9797134c0,3.099205-0.8912621,5.3071518-2.6535149,7.0895538  C53.8688812,96.6087341,51.6609344,97.5,49.2302055,97.5c-2.450882,0-4.6588287-0.8912659-6.6438637-2.4307327  c-2.0053139-1.782402-2.8763008-3.9903488-2.8763008-7.0895538c0-2.4306107,0.8709869-4.6588287,2.8763008-6.6438675  c1.762249-1.7622528,3.9903488-2.653511,6.6438637-2.653511s4.8614616,0.8912582,6.6439857,2.653511  C57.6364441,83.3208847,58.5277061,85.5491028,58.5277061,87.9797134z"/><path d="M81.3358459,27.5362377c0,3.5245018-0.6684799,6.6237125-2.2079468,9.2973804  c-1.3368301,2.6535149-3.0990829,5.0842438-5.1045151,6.8464966c-1.9850388,2.0054359-5.5298157,5.3273048-10.6343384,9.9659805  c-1.3165588,1.336834-2.6535149,2.450882-3.3218727,3.3218689c-0.8709869,1.1141739-1.5394669,2.0054359-1.985157,2.6737938  c-0.4455719,0.8709869-0.6683578,1.762249-1.1140518,2.4307289c0,0.8912621-0.4455681,2.4307327-0.8709869,4.4157639  c-0.8912621,4.4360428-3.3219948,6.4413605-7.5351257,6.4413605c-2.2079468,0-3.9904747-0.6683578-5.5299416-2.0053177  c-1.5596161-1.5394669-2.228096-3.5447769-2.228096-6.4210739c0-3.5447807,0.6684799-6.6439896,1.7825279-9.0745964  c0.8709869-2.6535149,2.4307289-4.8817368,4.1929817-6.8667717c1.7825279-1.9851608,4.2131348-4.2132607,7.3123436-6.8667755  c2.6535149-2.4307289,4.6588249-4.2132568,5.7525978-5.3070297c1.3369598-1.114048,2.2282219-2.4307289,3.1194839-3.9904709  c0.8709908-1.5596199,1.0937767-3.0990868,1.0937767-4.8613377c0-3.3422699-1.0937767-6.2185707-3.5447807-8.4265156  c-2.6535149-2.2078209-5.7526016-3.3218699-9.7430725-3.3218699c-4.6385536,0-7.9605484,1.114049-10.1886444,3.3218699  c-2.207943,2.4307308-3.9701958,5.7527237-5.5299377,10.4115524c-1.336834,4.6386757-4.2131348,7.0895576-7.9605465,7.0895576  c-2.450882,0-4.4360428-0.8912659-5.9956608-2.6535149c-1.7623749-1.559742-2.4307308-3.3219948-2.4307308-5.3273067  c0-3.9903488,1.336834-7.9605465,3.7675648-11.9508953c2.6535149-4.2132568,6.1982937-7.5352516,11.2825394-10.1887665  C38.5958672,3.8368337,44.1258087,2.5,50.7696724,2.5c5.9755096,0,11.5256004,1.1140487,16.1641502,3.3218703  c4.6589508,2.2079453,8.2037277,5.3273063,10.6343384,9.0747185C80.2218018,18.6641521,81.3358459,22.877409,81.3358459,27.5362377z  "/></svg>