<svg xmlns="http://www.w3.org/2000/svg" viewBox="0 0 24 30" x="0px" y="0px"><path d="M22.1162,15.0591l-1.1475-1.147c-.4941-.4951-1.3584-.4961-1.8545,0l-3.1279,3.1284-1.1006-1.1011c-.4961-.4951-1.3604-.4946-1.8545,.0005l-1.147,1.147c-.2476,.2476-.3843,.5771-.3843,.9272s.1367,.6797,.3843,.9268l3.1743,3.1753c.248,.2476,.5771,.3838,.9277,.3838s.6797-.1367,.9268-.3843l5.2031-5.2026c.5107-.5107,.5107-1.3423,0-1.854Zm-.707,1.147l-5.2031,5.2026c-.1172,.1182-.3232,.1172-.4404,0l-3.1743-3.1753c-.0591-.0586-.0913-.1362-.0913-.2192s.0327-.1611,.0913-.2202l1.147-1.147c.0586-.0591,.1367-.0913,.2197-.0913s.1621,.0327,.2207,.0913l1.4541,1.4541c.1875,.1875,.5195,.1875,.707,0l3.4814-3.4814c.1172-.1182,.3232-.1187,.4404-.0005l1.1475,1.147c.1211,.1211,.1211,.3188,0,.4399ZM2.5,14V6.7695l7.4849,3.3267c.3223,.1431,.6689,.2144,1.0151,.2144s.6929-.0713,1.0156-.2144l7.4844-3.3267v5.3346c.3297-.061,.6689-.0591,1-.0076V4c0-1.3784-1.1211-2.5-2.5-2.5H4c-1.3784,0-2.5,1.1216-2.5,2.5V14c0,1.3784,1.1216,2.5,2.5,2.5h6.447c.1084-.1685,.2316-.3286,.3768-.4736l.5264-.5264H4c-.8271,0-1.5-.6729-1.5-1.5Zm0-10c0-.8271,.6729-1.5,1.5-1.5h14c.8271,0,1.5,.6729,1.5,1.5v1.6753l-7.8901,3.5068c-.3877,.1719-.8325,.1719-1.2192,0L2.5,5.6753v-1.6753Z"/></svg>