<svg xmlns="http://www.w3.org/2000/svg" xml:space="preserve" viewBox="0 0 91 113.75"><path d="M85 45c4.5-4.3 5.6-12.8-.6-16.2-2.1-1.1-18.7-.9-21.4-.6 1.2-6.3.2-14.2-2.4-19.9-1.4-3-3.5-6.4-6.9-7.4C50-.2 47.2 2 45.8 5.3c-2 4.7-2.8 9.9-3.6 14.9-.3 2.2-.7 4-2.5 5.6-2 1.8-4.4 3.2-6.6 4.8-3.8 2.8-7.7 6.4-12.5 7.3-5.4 1-10.9.5-16.3 1.6-2.1.4-2.1 3.9 0 4.3 4.3.8 9 .5 13.3.1 3.9-.4 7.6-1.2 10.9-3.4 3.5-2.3 6.8-5.1 10.2-7.7 2.8-2.1 6.2-4.2 7.3-7.8 1.1-3.8.9-8 1.8-11.9.5-2.2 1-4.5 1.9-6.6 1.7-3.8 4.7-.8 5.9 1.6 3 6.4 3.3 15.1.1 21.5-.1.3-.2.5-.3.8-3.8 2.6-4.3 9.7-1.6 13.9-1.5 2.4-2 5.3-4.1 7.4-2.3 2.3-4.9 2.7-7.9 3.3-4 .9-2.9 6.7.9 6.8 4.6.2 10-3 13.1-7.4.4.8.9 1.4 1.5 2-.3.2-.6.4-.9.7-2.6 2.5-3 6.4-1.4 9.5.9 1.8 2.1 3.1 3.5 4.1-1.5 1.4-2.5 3.5-2.5 5.9 0 2.5.9 4.7 2.5 6.5-8.6.7-17.5.7-25.6-2.3-5.2-2-9.5-5.8-14.8-7.6-5.4-1.5-11.1-1-16 1.8-1.8 1-.5 3.3 1.3 3 6.3-.9 12.2.1 17.7 3.3 4.4 2.5 8.5 5.1 13.4 6.4 9.9 2.6 20.5 1.3 30.6.8.9 0 1.5-.4 2-.9.9.1 1.9.2 2.9.3 6 .5 15.6-1.6 16.4-9 .4-3.2-.8-5.3-2.7-6.8 1.9-1 3.6-2.4 4.7-4.3 2.3-3.9 1.4-8-1.5-10.5.7-.7 1.3-1.5 1.8-2.5 2.1-4.4-.2-7.8-3.7-9.8m-28.3-4.7c-.7-2.5-.2-4.5 1.4-5.9.5.1 11.6-1.3 16.3-1.5 2.5-.1 7.1-1 8.8 1.3 1.2 1.6.5 4.6-.6 6.2-1.6 2.2-4.4 2.9-7 3.2-3.3.4-6.8.6-10.1.5-3.1-.1-7.8-.1-8.8-3.8m25.8 13.9c-2.5 2.2-6.8 2.5-9.9 2.4-3.2-.1-6.7-.2-9.7-1.7-1.3-.7-2.9-1.5-3.7-2.8-1.1-1.7-.4-3 .8-3.8 3.1.7 6.5.6 9.4.5 3.2-.1 10.8-1.1 11.1-1.2 4.2-1.2 3.9 5 2 6.6m-.9 24.2c-1.5 4.1-7.4 5-11.1 4.8-3.9-.2-9-.5-10.1-5.2-.7-3 .7-4.2 2.7-4.9 2.8.8 5.9 1 9 1.1 1.8.1 3.8 0 5.7-.3 2.3.5 4.8 1.7 3.8 4.5m1.9-12.1c-1.3 1.4-4.2 2.2-6.1 2.7-1.4.4-2.7.3-4.1.3-2.2 0-4.6.1-6.9-.1-.6-.2-1.2-.2-1.7-.3-.2 0-.4-.1-.7-.2-2.3-.6-4.6-2.4-5.4-4.8-.7-2.3.3-3.8 2-4.8 3.3 1.6 7.4 2.2 10.8 2.4 3.5.2 8.1-.1 11.7-1.7 2 1.4 2.2 4.6.4 6.5"/></svg>