<svg xmlns="http://www.w3.org/2000/svg" width="1600" height="1600" viewBox="0 0 1200 1200"><path d="m372.63 569.37-.645.645-228.89 227.93c-28.324 28.668-42.184 66.012-42.184 104.31 0 37.344 13.86 74.043 42.184 102.71l1.926 1.593c27.996 27.375 64.695 41.207 101.39 41.207 37.676 0 75.02-14.164 103.66-42.805l258.54-258.54 277.52-277.5c12.54-12.555 18.344-29.3 18.344-45.719 0-16.102-5.789-32.836-18.344-45.39-12.566-12.556-28.973-18.356-45.719-18.356-16.43 0-32.836 5.79-45.402 18.355L396.44 777.33c-18.344 17.078-46.363 17.078-64.695 0-17.379-18.344-17.379-46.996 0-64.695l399.2-398.9c30.266-29.617 69.852-45.074 109.46-45.074 39.918 0 79.504 15.453 109.46 45.074 30.266 30.266 45.375 70.18 45.375 109.46 0 39.602-15.113 79.516-45.375 109.78l-277.2 277.19-.949.977-.644.644-257.25 257.22c-46.023 45.72-106.55 68.902-167.41 68.902-59.234 0-118.79-21.89-164.84-66.316l-2.57-2.57c-45.72-46.363-68.903-106.25-68.903-166.76 0-61.172 23.184-122 68.902-168.05l257.89-257.55 325.81-325.81c60.184-60.527 139.08-90.46 217.94-90.46 79.848 0 158.4 29.944 218.28 90.46 59.883 59.566 90.145 138.43 90.145 217.64 0 78.871-30.266 158.07-90.145 217.96l-446.21 447.16c-18.027 17.078-46.996 17.078-64.39 0-17.696-18.672-17.696-46.996 0-65.039l446.55-446.2c42.16-42.172 63.413-98.188 63.413-153.89 0-55.37-21.242-111.72-63.414-153.89-42.184-42.5-97.555-63.098-154.22-63.098-55.688 0-111.39 20.61-153.24 63.098z"/></svg>