<?xml version="1.0" encoding="UTF-8"?>
<svg width="1200pt" height="1200pt" version="1.1" viewBox="0 0 1200 1200" xmlns="http://www.w3.org/2000/svg">
 <g>
  <path d="m602.04 927.82c-39.504 14.531-89.629 32.988-153.06 56.473-108.34-15.121-222.17-50.363-271.38-131.24 17.914-48.266 33.562-90.562 47.363-127.91 92.746 107.14 254.8 175.16 377.07 202.68z"/>
  <path d="m633.52 566.48c-105.39-105.38-241.14-183.21-296.47-127.78-11.809 11.809-8.2422 4.7383-90.301 227.41 87.48 126.27 308.52 214.4 462.5 222.14 46.043-17.305 44.953-18.191 52.043-25.32 67.898-67.832-59.961-228.66-127.77-296.46zm89.582 258.26c-5.1367 5.207-29.09 5.4844-71.594-15.504-46.211-22.848-98.953-62.723-148.5-112.25-114.77-114.77-141.57-206.29-127.78-220.12 2.1602-2.1484 6.1914-3.3242 11.902-3.3242 30.996 0 111.32 34.223 208.21 131.1 49.535 49.547 89.426 102.29 112.27 148.49 21.004 42.469 20.656 66.445 15.484 71.602z"/>
  <path d="m350.12 1021c-62.34 23.195-134.23 50.027-217.71 81.324-21.719 7.9805-42.742-13.117-34.715-34.703 21.035-56.293 40.008-107.2 57.277-153.64 47.457 54.492 118.79 87.551 195.15 107.02z"/>
  <path d="m732.09 164.22c-16.812 2.9531-33.035 5.6172-44.051 11.148 16.57 25.414 51.168 57.77 30.035 100.03-18.887 37.789-58.188 35.578-92.281 36.758 20.93 28.586 45.109 57.574 26.461 94.883-19.344 38.688-70.031 46.738-99.926 51.602-9.6719 1.5703-18.684-4.8828-20.473-14.508l-6.5508-35.352c-1.8242-9.8398 4.7773-19.285 14.629-21.012 17.027-2.9883 32.988-5.5664 44.062-11.148-16.633-25.234-51.098-57.926-30.059-100.02 18.863-37.703 58.117-35.578 92.281-36.758-20.941-28.598-45.109-57.574-26.461-94.906 19.344-38.652 70.055-46.738 99.91-51.59 9.6719-1.5703 18.684 4.8828 20.461 14.508l6.5508 35.352c1.8359 9.8398-4.7383 19.285-14.59 21.012z"/>
  <path d="m1056.8 453.31 35.352 6.5508c9.6367 1.7891 16.078 10.801 14.508 20.461-4.8477 29.844-12.938 80.566-51.59 99.91-37.332 18.66-66.301-5.5195-94.906-26.461-1.1758 34.176 0.94922 73.43-36.758 92.281-42.098 21.035-74.785-13.414-100.02-30.059-5.5781 11.074-8.1602 27.047-11.148 44.062-1.7266 9.8516-11.184 16.453-21.012 14.629l-35.352-6.5508c-9.6367-1.7891-16.078-10.801-14.508-20.473 4.8594-29.891 12.91-80.578 51.602-99.926 37.309-18.66 66.301 5.5312 94.883 26.461 1.1758-34.105-1.0312-73.402 36.758-92.281 42.277-21.133 74.617 13.465 100.03 30.035 5.5312-11.016 8.1953-27.238 11.148-44.051 1.7266-9.8398 11.172-16.414 21.012-14.59z"/>
  <path d="m949.2 780h-68.398c-5.9648 0-10.801-4.8359-10.801-10.801v-32.398c0-5.9648 4.8359-10.801 10.801-10.801h68.398c5.9648 0 10.801 4.8359 10.801 10.801v32.398c0 5.9648-4.8359 10.801-10.801 10.801z"/>
  <path d="m1024.4 141.82-48.371 48.371c-4.2109 4.2109-11.051 4.2109-15.277 0l-22.906-22.906c-4.2109-4.2109-4.2109-11.051 0-15.277l48.371-48.371c4.2109-4.2109 11.051-4.2109 15.277 0l22.906 22.906c4.2266 4.2148 4.2266 11.055 0 15.277z"/>
  <path d="m463.2 258h-32.398c-5.9648 0-10.801-4.8359-10.801-10.801v-68.398c0-5.9648 4.8359-10.801 10.801-10.801h32.398c5.9648 0 10.801 4.8359 10.801 10.801v68.398c0 5.9648-4.8359 10.801-10.801 10.801z"/>
  <path d="m721.78 501.18-27-18c-5.0625-3.3711-6.5391-10.234-3.0469-15.215 73.465-104.55 215.15-213.52 365-218.77 6.1406-0.20312 11.266 4.9219 11.266 11.051v32.449c0 5.7734-4.5234 10.273-10.285 10.5-125.4 4.957-253.84 99.371-321.42 195.27-3.3555 4.7734-9.6797 5.9492-14.516 2.7227z"/>
 </g>
</svg>
