<svg xmlns="http://www.w3.org/2000/svg" width="1600" height="1600" viewBox="0 0 1200 1200"><path d="M602.04 927.82a74080 74080 0 0 0-153.06 56.473c-108.34-15.121-222.17-50.363-271.38-131.24a93758 93758 0 0 0 47.363-127.91c92.746 107.14 254.8 175.16 377.07 202.68zM633.52 566.48C528.13 461.1 392.38 383.27 337.05 438.7c-11.809 11.809-8.242 4.738-90.301 227.41 87.48 126.27 308.52 214.4 462.5 222.14 46.043-17.305 44.953-18.191 52.043-25.32 67.898-67.832-59.961-228.66-127.77-296.46zm89.582 258.26c-5.137 5.207-29.09 5.484-71.594-15.504-46.211-22.848-98.953-62.723-148.5-112.25-114.77-114.77-141.57-206.29-127.78-220.12 2.16-2.148 6.191-3.324 11.902-3.324 30.996 0 111.32 34.223 208.21 131.1 49.535 49.547 89.426 102.29 112.27 148.49 21.004 42.469 20.656 66.445 15.484 71.602zM350.12 1021a93111 93111 0 0 0-217.71 81.324c-21.719 7.98-42.742-13.117-34.715-34.703 21.035-56.293 40.008-107.2 57.277-153.64 47.457 54.492 118.79 87.551 195.15 107.02zM732.09 164.22c-16.812 2.953-33.035 5.617-44.051 11.148 16.57 25.414 51.168 57.77 30.035 100.03-18.887 37.789-58.188 35.578-92.281 36.758 20.93 28.586 45.109 57.574 26.461 94.883-19.344 38.688-70.031 46.738-99.926 51.602-9.672 1.57-18.684-4.883-20.473-14.508l-6.55-35.352c-1.825-9.84 4.776-19.285 14.628-21.012 17.027-2.988 32.988-5.566 44.062-11.148-16.633-25.234-51.098-57.926-30.059-100.02 18.863-37.703 58.117-35.578 92.281-36.758-20.94-28.598-45.109-57.574-26.46-94.906 19.343-38.652 70.054-46.738 99.91-51.59 9.671-1.57 18.683 4.883 20.46 14.508l6.551 35.352c1.836 9.84-4.738 19.285-14.59 21.012zM1056.8 453.31l35.352 6.55c9.637 1.79 16.078 10.802 14.508 20.462-4.848 29.844-12.938 80.566-51.59 99.91-37.332 18.66-66.301-5.52-94.906-26.461-1.176 34.176.95 73.43-36.758 92.28-42.098 21.036-74.785-13.413-100.02-30.058-5.578 11.074-8.16 27.047-11.148 44.062-1.727 9.851-11.184 16.453-21.012 14.629l-35.352-6.551c-9.637-1.79-16.078-10.801-14.508-20.473 4.86-29.891 12.91-80.578 51.602-99.926 37.309-18.66 66.301 5.531 94.883 26.461 1.176-34.105-1.031-73.402 36.758-92.281 42.277-21.133 74.617 13.465 100.03 30.035 5.531-11.016 8.195-27.238 11.148-44.051 1.727-9.84 11.172-16.414 21.012-14.59zM949.2 780h-68.398c-5.965 0-10.801-4.836-10.801-10.801v-32.398c0-5.965 4.836-10.801 10.801-10.801H949.2c5.965 0 10.801 4.836 10.801 10.801v32.398c0 5.965-4.836 10.801-10.801 10.801M1024.4 141.82l-48.371 48.371c-4.21 4.21-11.051 4.21-15.277 0l-22.906-22.906c-4.21-4.21-4.21-11.051 0-15.277l48.371-48.371c4.21-4.21 11.051-4.21 15.277 0l22.906 22.906c4.227 4.215 4.227 11.055 0 15.277M463.2 258h-32.398c-5.965 0-10.801-4.836-10.801-10.801v-68.398c0-5.965 4.836-10.801 10.801-10.801H463.2c5.965 0 10.801 4.836 10.801 10.801v68.398c0 5.965-4.836 10.801-10.801 10.801M721.78 501.18l-27-18c-5.062-3.371-6.54-10.234-3.047-15.215 73.465-104.55 215.15-213.52 365-218.77 6.14-.203 11.266 4.922 11.266 11.051v32.449c0 5.773-4.523 10.273-10.285 10.5-125.4 4.957-253.84 99.371-321.42 195.27-3.355 4.773-9.68 5.95-14.516 2.723z"/></svg>