<?xml version="1.0" encoding="UTF-8"?>
<svg width="1200pt" height="1200pt" version="1.1" viewBox="0 0 1200 1200" xmlns="http://www.w3.org/2000/svg">
 <g fill-rule="evenodd">
  <path d="m438.18 323.65v801.66c0 94.605-114.52 94.605-114.52 0v-801.66c0-94.605 114.52-94.605 114.52 0z"/>
  <path d="m587.55 323.65v801.66c0 94.605-119.5 94.605-119.5 0v-801.66c0-94.605 119.5-94.605 119.5 0z"/>
  <path d="m731.95 323.65v801.66c0 94.605-119.5 94.605-119.5 0v-801.66c0-94.605 119.5-94.605 119.5 0z"/>
  <path d="m876.35 323.65v801.66c0 94.605-119.5 94.605-119.5 0v-801.66c0-94.605 119.5-94.605 119.5 0z"/>
  <path d="m174.27 124.48h851.45c89.625 0 89.625-124.48 0-124.48h-851.45c-94.605 0-94.605 124.48 0 124.48z"/>
  <path d="m209.13 214.11h776.76c34.855 0 54.773-29.875 59.75-64.73h-896.27c9.957 34.855 29.875 64.73 59.75 64.73z"/>
  <path d="m239 1195c29.875 0 54.773-24.895 54.773-69.711v-801.66c0-44.812-24.895-69.711-54.773-69.711z"/>
  <path d="m956.02 1195c-24.895 0-49.793-24.895-49.793-69.711v-801.66c0-44.812 24.895-69.711 49.793-69.711z"/>
 </g>
</svg>
