<svg xmlns="http://www.w3.org/2000/svg" width="1600" height="1600" viewBox="0 0 1200 1200"><g fill-rule="evenodd"><path d="M468.53 267.73v664.54c0 81.273-95.617 81.273-95.617 0V267.73c0-81.273 95.617-81.273 95.617 0M588.05 267.73v664.54c0 81.273-95.617 81.273-95.617 0V267.73c0-81.273 95.617-81.273 95.617 0M707.57 267.73v664.54c0 81.273-95.617 81.273-95.617 0V267.73c0-81.273 95.617-81.273 95.617 0M831.87 267.73v664.54c0 81.273-100.4 81.273-100.4 0V267.73c0-81.273 100.4-81.273 100.4 0M248.61 105.18h707.57c71.715 0 71.715-105.18 0-105.18H248.61c-76.492 0-76.492 105.18 0 105.18M282.07 176.89h640.64c28.684 0 43.027-23.906 47.809-52.59h-741.04c4.781 28.684 23.906 52.59 52.59 52.59zM305.98 989.64c19.125 0 43.027-19.125 43.027-57.371v-664.54c0-38.246-23.906-57.371-43.027-57.371zM898.8 989.64c-23.906 0-43.027-19.125-43.027-57.371v-664.54c0-38.246 19.125-57.371 43.027-57.371zM248.61 1099.6h707.57c71.715 0 71.715 100.4 0 100.4H248.61c-76.492 0-76.492-100.4 0-100.4M282.07 1023.1h640.64c28.684 0 43.027 23.906 47.809 52.59h-741.04c4.781-28.684 23.906-52.59 52.59-52.59z"/></g></svg>