<svg xmlns="http://www.w3.org/2000/svg" width="1600" height="1600" viewBox="0 0 1200 1200"><path d="M879.55 245.1c-15.301-36.121-37.176-68.566-64.992-96.422-27.84-27.828-60.277-49.703-96.422-64.992-37.453-15.828-77.207-23.867-118.13-23.867-40.945 0-80.676 8.04-118.13 23.867-36.145 15.289-68.578 37.152-96.422 64.992-27.84 27.852-49.703 60.289-64.992 96.434-15.84 37.453-23.867 77.195-23.867 118.13 0 3.758 3.059 6.828 6.84 6.828h131.58a6.83 6.83 0 0 0 6.828-6.828c0-87.203 70.957-158.16 158.16-158.16 87.19 0 158.16 70.957 158.16 158.16 0 49.488-22.547 95.219-61.824 125.45a162 162 0 0 1-16.645 11.195c-.66.383-1.332.77-1.992 1.152-.348.203-.707.407-1.106.637l-.023.012c-92.04 49.32-149.2 144.76-149.2 249.14v52.129a6.835 6.835 0 0 0 6.84 6.84h131.58c3.77 0 6.816-3.06 6.816-6.84v-52.13c0-51.097 28.129-97.68 73.379-121.56a64 64 0 0 0 2.902-1.62l.84-.504c1.078-.602 2.16-1.223 3.215-1.836 11.039-6.434 21.77-13.68 31.945-21.504 36-27.72 65.832-63.77 86.23-104.28 21.422-42.54 32.293-88.402 32.293-136.29.016-40.945-8.027-80.691-23.867-118.14zM600.01 916.79c-61.535 0-111.6 50.074-111.6 111.61 0 61.535 50.062 111.6 111.6 111.6 61.547 0 111.61-50.062 111.61-111.6 0-61.539-50.066-111.61-111.61-111.61"/></svg>