<?xml version="1.0" encoding="UTF-8"?>
<svg width="1200pt" height="1200pt" version="1.1" viewBox="0 0 1200 1200" xmlns="http://www.w3.org/2000/svg">
 <g>
  <path d="m879.55 245.1c-15.301-36.121-37.176-68.566-64.992-96.422-27.84-27.828-60.277-49.703-96.422-64.992-37.453-15.828-77.207-23.867-118.13-23.867-40.945 0-80.676 8.0391-118.13 23.867-36.145 15.289-68.578 37.152-96.422 64.992-27.84 27.852-49.703 60.289-64.992 96.434-15.84 37.453-23.867 77.195-23.867 118.13 0 3.7578 3.0586 6.8281 6.8398 6.8281h131.58c3.7812 0 6.8281-3.0703 6.8281-6.8281 0-87.203 70.957-158.16 158.16-158.16 87.191 0 158.16 70.957 158.16 158.16 0 49.488-22.547 95.219-61.824 125.45-5.3164 4.0664-10.895 7.8359-16.645 11.195-0.66016 0.38281-1.332 0.76953-1.9922 1.1523-0.34766 0.20313-0.70703 0.40625-1.1055 0.63672l-0.023437 0.011719c-92.039 49.32-149.2 144.76-149.2 249.14v52.129c0 3.7812 3.0586 6.8398 6.8398 6.8398h131.58c3.7695 0 6.8164-3.0586 6.8164-6.8398v-52.129c0-51.098 28.129-97.68 73.379-121.56 0.98437-0.51563 1.9453-1.0547 2.9023-1.6211l0.83984-0.50391c1.0781-0.60156 2.1602-1.2227 3.2148-1.8359 11.039-6.4336 21.77-13.68 31.945-21.504 36-27.719 65.832-63.77 86.23-104.28 21.422-42.539 32.293-88.402 32.293-136.29 0.015625-40.945-8.0273-80.691-23.867-118.14z"/>
  <path d="m600.01 916.79c-61.535 0-111.6 50.074-111.6 111.61 0 61.535 50.062 111.6 111.6 111.6 61.547 0 111.61-50.062 111.61-111.6 0-61.539-50.066-111.61-111.61-111.61z"/>
 </g>
</svg>
