<?xml version="1.0" encoding="UTF-8"?>
<svg id="Layer_1" xmlns="http://www.w3.org/2000/svg" version="1.1" viewBox="0 0 1024 1024">
  <!-- Generator: Adobe Illustrator 29.7.1, SVG Export Plug-In . SVG Version: 2.1.1 Build 8)  -->
  <path d="M764.65,645.65c-89.27,87.44-224.61,114.27-344.89,87.53-31.51,23.86-64.78,44.59-101.51,59.57-10.21,4.16-33.73,13.84-43.8,14.28-10.15.45-19.09-7.92-17.2-18.27l34.82-112.11c-55.75-38.58-100.1-97.42-111.78-165.45-27.41-159.65,112.91-274.56,256.5-299.92,128.8-22.75,281.55,17.96,361.04,126.38,73.7,100.51,53.13,223.44-33.18,307.98ZM754.65,623.65c102.36-104.84,80.43-248.47-35.34-331.46-117.73-84.4-297.7-86.61-416.23-2.6-135.39,95.97-138.03,256.76-9.55,360.37,9.7,7.82,25.22,13.3,22.37,28.46l-32.9,103.58c33.51-11.31,65.74-26.81,95.3-46.19,12.84-8.42,24.47-19.62,38.46-25.62,119.27,27.21,250.83,2.62,337.88-86.54Z"/>
  <path d="M424.58,564.42c-23.68-24.7-52.58-52.45-74.09-78.41-2.87-3.46-6.49-8.25-7.25-12.75-3.33-19.85,21.91-32.69,36.67-19.68,21.97,21.38,42.74,43.96,64.06,65.95,3.56,3.67,10.85,11.99,14.51,14.49.84.57,1.04,1.37,2.5.97.07-1.2.65-2.17,1.46-3.02,59.28-62.29,121.84-121.63,179.55-185.49,17.54-17.62,46.07,7.39,32.01,27.01l-201.5,213.5c-7.18,4.82-13.66,6.46-21.89,2.89-7.56-3.28-19.68-18.84-26.03-25.47Z"/>
</svg>