<?xml version="1.0" encoding="UTF-8"?>
<svg width="1200pt" height="1200pt" version="1.1" viewBox="0 0 1200 1200" xmlns="http://www.w3.org/2000/svg">
 <g>
  <path d="m613.99 872.74-46.379-34.965v295.56h64.781v-256.91c-0.60547 0.15625-1.2188 0.28125-1.8398 0.36719-5.8477 1.0977-11.883-0.37891-16.562-4.0508z"/>
  <path d="m513.5 288.24c0.027344 15.148 4.0898 30.016 11.777 43.066 9.5195 16.445 24.113 29.359 41.59 36.809 10.539 4.2422 21.77 6.4883 33.129 6.625 15.176-0.015626 30.082-4.0391 43.203-11.668 13.121-7.625 23.992-18.586 31.516-31.766 7.6875-13.055 11.75-27.922 11.777-43.066v-59.625h-172.99z"/>
  <path d="m682.43 185.57h64.801v-36.832h-70.934l-13.734-82.066h-125.13l-13.734 82.066h-70.934v36.832z"/>
  <path d="m1115.5 406.57h-181.63l14.336-42.871h-242.93c-0.36719 0.73828-1.1016 1.1055-1.4727 1.8438l-4.418 5.5195c-1.8398 2.207-4.0469 4.7852-6.2578 6.9922l-4.7852 4.7852c-2.207 2.207-4.7852 4.0469-6.9922 5.8906l-5.5234 4.418c-2.5781 1.8398-5.1523 3.3125-7.7305 5.1523-1.8398 1.1055-4.0469 2.207-5.8867 3.3125-2.5781 1.4727-5.5234 2.9453-8.4648 4.418-1.8438 0.73828-4.0508 1.8398-5.8906 2.5781-3.3125 1.1016-6.2578 2.207-9.5703 3.3125l0.003906-0.003907c-2.0117 0.44531-3.9805 1.0625-5.8867 1.8398-3.6797 0.73438-6.9922 1.4727-10.672 1.8398-1.8438 0.36719-3.6836 0.73828-5.1523 1.1016l-0.003906 0.003907c-10.992 1.4727-22.133 1.4727-33.129 0-1.4727-0.36719-3.3125-0.73438-5.1523-1.1016-3.6797-0.36719-6.9922-1.1055-10.672-1.8398v-0.003906c-1.9062-0.77734-3.875-1.3945-5.8906-1.8398-3.3125-1.1055-6.2578-2.2109-9.5703-3.3125-1.8398-0.73828-4.0469-1.8398-5.8906-2.5781-2.9414-1.4727-5.8867-2.9453-8.4648-4.418-1.8398-1.1055-4.0469-2.207-5.8867-3.3125-2.5781-1.8398-5.1523-3.3125-7.7305-5.1523l-5.5234-4.418c-2.207-1.8438-4.7852-3.6836-6.9922-5.8906l-4.7852-4.7852c-2.207-2.207-4.418-4.7852-6.2578-6.9922l-4.418-5.5195c-0.36719-0.73828-1.1016-1.1055-1.4727-1.8438l-242.92 0.003906 14.336 42.871h-181.63v36.809h193.94l13.109 39.211h90.914c5.1797-0.03125 10.199 1.8125 14.125 5.1992 3.9219 3.3828 6.4883 8.0742 7.2188 13.203l48.957 309.18 50.793-51.16c4.1875-3.9453 9.7031-6.1797 15.457-6.2617 4.668 0.003906 9.1992 1.5586 12.887 4.418l26.867 20.246 62.941 47.113 41.223-62.203v-0.003906c3.7266-5.2383 9.457-8.7031 15.828-9.5703 6.5117-0.52734 12.938 1.75 17.664 6.2617l50.793 51.16 48.953-309.18 0.003906-0.003907c0.73047-5.1289 3.2969-9.8203 7.2227-13.203 3.9219-3.3828 8.9414-5.2305 14.125-5.1992h90.914l13.109-39.211h193.94z"/>
 </g>
</svg>
