<svg xmlns="http://www.w3.org/2000/svg" width="1600" height="1600" viewBox="0 0 1200 1200"><path d="m613.99 872.74-46.379-34.965v295.56h64.781v-256.91a16 16 0 0 1-1.84.367 20.65 20.65 0 0 1-16.562-4.05zM513.5 288.24a85.15 85.15 0 0 0 11.777 43.066 87.87 87.87 0 0 0 41.59 36.809 91.7 91.7 0 0 0 33.129 6.625 86.13 86.13 0 0 0 74.719-43.434 85.17 85.17 0 0 0 11.777-43.066v-59.625h-172.99zM682.43 185.57h64.801v-36.832h-70.934l-13.734-82.066h-125.13l-13.734 82.066h-70.934v36.832z"/><path d="M1115.5 406.57H933.87l14.336-42.871h-242.93c-.367.738-1.102 1.106-1.473 1.844l-4.418 5.52c-1.84 2.206-4.047 4.785-6.257 6.992l-4.786 4.785c-2.207 2.207-4.785 4.047-6.992 5.89l-5.523 4.418c-2.578 1.84-5.153 3.313-7.73 5.153-1.84 1.105-4.048 2.207-5.888 3.312-2.578 1.473-5.523 2.945-8.464 4.418-1.844.738-4.051 1.84-5.89 2.578-3.313 1.102-6.259 2.207-9.571 3.313l.004-.004a36.5 36.5 0 0 0-5.887 1.84c-3.68.734-6.992 1.472-10.672 1.84-1.844.367-3.684.738-5.152 1.101l-.004.004a124.8 124.8 0 0 1-33.13 0c-1.472-.367-3.312-.734-5.151-1.102-3.68-.367-6.993-1.105-10.672-1.84v-.003a36.4 36.4 0 0 0-5.891-1.84c-3.313-1.106-6.258-2.211-9.57-3.313-1.84-.738-4.047-1.84-5.891-2.578-2.941-1.473-5.887-2.945-8.465-4.418-1.84-1.105-4.047-2.207-5.886-3.312-2.579-1.84-5.153-3.313-7.731-5.153l-5.523-4.418c-2.207-1.843-4.786-3.683-6.993-5.89l-4.785-4.785c-2.207-2.207-4.418-4.786-6.258-6.993l-4.418-5.52c-.367-.737-1.101-1.105-1.472-1.843l-242.92.004 14.336 42.871H84.523v36.809h193.94l13.109 39.211h90.914a21.425 21.425 0 0 1 21.344 18.402l48.957 309.18 50.793-51.16a23.02 23.02 0 0 1 15.457-6.261c4.668.003 9.199 1.558 12.887 4.418l26.867 20.246 62.94 47.113 41.224-62.204v-.003a23.28 23.28 0 0 1 15.828-9.57 22.9 22.9 0 0 1 17.664 6.261l50.793 51.16 48.953-309.18.003-.004a21.43 21.43 0 0 1 21.348-18.402h90.914l13.11-39.211h193.94z"/></svg>