<svg xmlns="http://www.w3.org/2000/svg" width="1600" height="1600" viewBox="0 0 1200 1200"><g fill-rule="evenodd"><path d="M1027.3 486.8c9.508 0 18.895 3.559 25.281 10.48 6.172 6.668 10.348 17.773 9.172 32.641l-19.852 253.27-207.36 207.16v99.922l-163.34-.004V808.14l142.85-142.51c20.762-20.773 43.266-18.613 53.762-8.055 10.547 10.492 12.64 33.055-8.121 53.812L792.04 778.96c-8.266 8.266-12.773 20.895-12.426 29.36.414 10.226 4.586 18.894 11.52 25.784 6.8 6.868 15.48 11.16 25.625 11.586 8.465.332 21.105-4.16 29.44-12.508l117.71-117.44 20-184.92c3.212-29.352 24.786-44.016 43.399-44.016zM599.64 109.67l405.96 151.16v65.918l-405.96 151.16-406.05-151.16V260.83z"/><path d="m386.49 432.64 213.15 79.359 213.12-79.359 33.613 130.61-246.73 88.266-246.83-88.266zM171.85 486.8c-9.52-.055-18.879 3.559-25.281 10.48-6.16 6.668-10.281 17.773-9.078 32.641l19.867 253.27 207.28 207.17v99.922h163.4v-282.15l-142.93-142.51c-20.773-20.773-43.188-18.613-53.746-8.055-10.492 10.492-12.641 32.988 8.121 53.812l67.652 67.574c8.238 8.266 12.84 20.895 12.508 29.36-.426 10.226-4.668 18.894-11.535 25.784-6.813 6.867-15.492 11.105-25.691 11.52-8.48.348-21.121-4.094-29.375-12.44l-117.77-117.44-19.945-184.92c-3.266-29.353-24.867-44.017-43.469-44.017z"/></g></svg>