<svg xmlns="http://www.w3.org/2000/svg" width="1600" height="1600" viewBox="0 0 1200 1200"><path d="M873 71.25c-7.016.945-13.238 5.371-16.875 12l-228 432c-2.766 5.117-3.781 11.145-2.863 17.008.918 5.86 3.707 11.172 7.87 14.996 4.165 3.82 9.434 5.902 14.868 5.871h456c5.433.031 10.703-2.05 14.867-5.871 4.164-3.824 6.953-9.137 7.87-14.996.919-5.863-.097-11.891-2.862-17.008l-228-432c-2.313-4.238-5.715-7.637-9.786-9.773-4.066-2.133-8.62-2.907-13.09-2.227zM228 72c-86.008 0-156 69.992-156 156v192c0 86.008 69.992 156 156 156h192c86.008 0 156-69.992 156-156V228c0-86.008-69.992-156-156-156zm0 48h192c60.246 0 108 47.754 108 108v192c0 60.246-47.754 108-108 108H228c-60.246 0-108-47.754-108-108V228c0-60.246 47.754-108 108-108m648 25.875 94.125 178.88 93.75 178.12h-375.75l93.75-178.12zm-552 478.12c-138.89 0-252 113.11-252 252s113.11 252 252 252 252-113.11 252-252-113.11-252-252-252m456 0c-86.008 0-156 69.992-156 156v192c0 86.008 69.992 156 156 156h192c86.008 0 156-69.992 156-156v-192c0-86.008-69.992-156-156-156zm-456 48c112.95 0 204 91.051 204 204s-91.051 204-204 204-204-91.051-204-204 91.051-204 204-204m456 0h192c60.246 0 108 47.754 108 108v192c0 60.246-47.754 108-108 108H780c-60.246 0-108-47.754-108-108v-192c0-60.246 47.754-108 108-108"/></svg>