<?xml version="1.0" encoding="UTF-8"?>
<svg width="1200pt" height="1200pt" version="1.1" viewBox="0 0 1200 1200" xmlns="http://www.w3.org/2000/svg">
 <path d="m873 71.25c-7.0156 0.94531-13.238 5.3711-16.875 12l-228 432c-2.7656 5.1172-3.7812 11.145-2.8633 17.008 0.91797 5.8594 3.707 11.172 7.8711 14.996 4.1641 3.8203 9.4336 5.9023 14.867 5.8711h456c5.4336 0.03125 10.703-2.0508 14.867-5.8711 4.1641-3.8242 6.9531-9.1367 7.8711-14.996 0.91797-5.8633-0.097656-11.891-2.8633-17.008l-228-432c-2.3125-4.2383-5.7148-7.6367-9.7852-9.7734-4.0664-2.1328-8.6211-2.9062-13.09-2.2266zm-645 0.75c-86.008 0-156 69.992-156 156v192c0 86.008 69.992 156 156 156h192c86.008 0 156-69.992 156-156v-192c0-86.008-69.992-156-156-156zm0 48h192c60.246 0 108 47.754 108 108v192c0 60.246-47.754 108-108 108h-192c-60.246 0-108-47.754-108-108v-192c0-60.246 47.754-108 108-108zm648 25.875 94.125 178.88 93.75 178.12h-375.75l93.75-178.12zm-552 478.12c-138.89 0-252 113.11-252 252s113.11 252 252 252 252-113.11 252-252-113.11-252-252-252zm456 0c-86.008 0-156 69.992-156 156v192c0 86.008 69.992 156 156 156h192c86.008 0 156-69.992 156-156v-192c0-86.008-69.992-156-156-156zm-456 48c112.95 0 204 91.051 204 204s-91.051 204-204 204-204-91.051-204-204 91.051-204 204-204zm456 0h192c60.246 0 108 47.754 108 108v192c0 60.246-47.754 108-108 108h-192c-60.246 0-108-47.754-108-108v-192c0-60.246 47.754-108 108-108z"/>
</svg>
