<svg xmlns="http://www.w3.org/2000/svg" width="1600" height="1600" viewBox="0 0 1200 1200"><path fill-rule="evenodd" d="M733.33 315.27a148.5 148.5 0 0 1-43.441 104.96 148.524 148.524 0 0 1-209.93.254 148.52 148.52 0 0 1-43.695-104.86c-.094-39.363 15.441-77.152 43.191-105.07s65.445-43.676 104.81-43.816a148.56 148.56 0 0 1 105.38 43.312 148.53 148.53 0 0 1 43.691 105.22zM600 1033.4a1300 1300 0 0 1-164.67-10.398l-22.934-372s-132.4 100.54-148.13 129.6c-15.73 29.066-264.27-211.47-264.27-211.47l21.199-37.066 211.34 94.668s97.867-105.73 121.6-140.13c7.2-10.266 40-26.668 82.398-40a198.14 198.14 0 0 0 205.078 57.515 198.2 198.2 0 0 0 92.926-60.582c49.734 11.867 90.934 28.398 100.67 47.867 21.195 43.332 138.13 172.93 138.13 172.93l194.93-142.8 31.734 47.598s-216.8 224.67-243.2 237.87c-26.402 13.2-195.6-166.93-195.6-166.93v383.33a1297 1297 0 0 1-161.2 10z"/></svg>