<?xml version="1.0" encoding="UTF-8"?>
<svg width="1200pt" height="1200pt" version="1.1" viewBox="0 0 1200 1200" xmlns="http://www.w3.org/2000/svg">
 <path d="m733.33 315.27c0 39.363-15.625 77.117-43.441 104.96-27.816 27.852-65.551 43.523-104.91 43.57-39.363 0.046875-77.133-15.535-105.02-43.316-27.887-27.785-43.602-65.5-43.695-104.86-0.09375-39.363 15.441-77.152 43.191-105.07s65.445-43.676 104.81-43.816c39.488-0.14453 77.402 15.445 105.38 43.312 27.973 27.871 43.691 65.734 43.691 105.22zm-133.33 718.13c-55.055 0.027343-110.05-3.4492-164.67-10.398l-22.934-372s-132.4 100.54-148.13 129.6c-15.73 29.066-264.27-211.47-264.27-211.47l21.199-37.066 211.34 94.668s97.867-105.73 121.6-140.13c7.1992-10.266 40-26.668 82.398-40 25.156 28.117 57.82 48.465 94.148 58.656 36.332 10.188 74.812 9.793 110.93-1.1406 36.109-10.938 68.348-31.953 92.926-60.582 49.734 11.867 90.934 28.398 100.67 47.867 21.195 43.332 138.13 172.93 138.13 172.93l194.93-142.8 31.734 47.598s-216.8 224.67-243.2 237.87c-26.402 13.199-195.6-166.93-195.6-166.93v383.33c-53.473 6.6797-107.31 10.02-161.2 10z" fill-rule="evenodd"/>
</svg>
