<?xml version="1.0" encoding="UTF-8"?>
<svg width="1200pt" height="1200pt" version="1.1" viewBox="0 0 1200 1200" xmlns="http://www.w3.org/2000/svg">
 <g>
  <path d="m600 72c-287.52 0-521.4 233.88-521.4 521.4 0 258.48 188.4 476.4 441.12 514.68 6.5977 11.762 19.078 19.922 33.477 19.922h162.36c15.719 0 30.121-10.32 36.238-26.641l3.6016-10.922c216.24-66.84 366-269.16 366-497.16 0-287.4-233.88-521.28-521.4-521.28zm104.88 1003.2h-137.16l2.5195-397.32c0-15.359 20.16-24.359 31.559-12.84 3 3 4.8008 7.6797 4.8008 12.84v141.96c0 14.16 11.281 25.801 25.441 26.398l120.96 4.4414c10.078 4.5586 17.039 14.281 18.359 25.559zm71.762-48.238 46.441-138.72c0.96094-2.7617 1.3203-5.5195 1.3203-8.3984 0-36.719-23.16-69-57.602-80.52-2.3984-0.71875-4.9219-1.1992-7.3203-1.3203l-99.961-3.7188v-116.52c0-19.441-7.1992-37.32-20.16-50.281-13.441-13.559-31.32-21-50.398-21-39.961 0-71.281 31.32-71.281 71.039l-2.3984 376.08c-220.68-39.602-383.64-232.44-383.64-460.44-0.24219-258.12 210-468.36 468.36-468.36s468.6 210.12 468.6 468.6c0 191.52-117.84 363-291.96 433.56z"/>
  <path d="m769.56 448.2c-14.641 0-26.398 11.879-26.398 26.398v39.84c0 14.52 11.762 26.398 26.398 26.398 14.641 0 26.398-11.879 26.398-26.398v-39.84c0.003907-14.52-11.758-26.398-26.398-26.398z"/>
  <path d="m680.52 374.16c-8.5195 11.879-5.8789 28.32 6 36.84 11.762 8.3984 28.32 5.8789 36.84-5.8789 20.879-28.922 71.52-28.922 92.398 0 5.1602 7.1992 13.199 10.922 21.359 10.922 5.3984 0 10.801-1.6797 15.48-5.0391 11.879-8.5195 14.52-24.961 6-36.84-40.676-56.043-137.4-56.043-178.08-0.003906z"/>
  <path d="m430.08 448.2c-14.641 0-26.398 11.879-26.398 26.398v39.84c0 14.52 11.762 26.398 26.398 26.398 14.641 0 26.398-11.879 26.398-26.398v-39.84c0.003907-14.52-11.875-26.398-26.398-26.398z"/>
  <path d="m341.04 374.16c-8.5195 11.879-5.8789 28.32 6 36.84 11.762 8.3984 28.32 5.8789 36.84-5.8789 20.762-28.922 71.52-28.922 92.398 0 5.1602 7.1992 13.199 10.922 21.359 10.922 5.3984 0 10.801-1.6797 15.48-5.0391 11.879-8.5195 14.52-24.961 6-36.84-40.797-56.164-137.52-56.164-178.08-0.003906z"/>
 </g>
</svg>
