<svg xmlns="http://www.w3.org/2000/svg" width="1600" height="1600" viewBox="0 0 1200 1200"><path d="M575 100c262.36 0 475 212.64 475 475s-212.64 475-475 475-475-212.64-475-475 212.64-475 475-475m0 50c-234.74 0-425 190.26-425 425s190.26 425 425 425 425-190.26 425-425-190.26-425-425-425m100 600c13.809 0 25 11.191 25 25 0 12.273-8.844 22.48-20.508 24.598L675 800H475c-13.81 0-25-11.19-25-25 0-12.273 8.844-22.48 20.508-24.598L475 750zM425 500c12.273 0 22.48 8.844 24.598 20.508L450 525v50c0 13.81-11.19 25-25 25-12.273 0-22.48-8.844-24.598-20.508L400 575v-50c0-13.809 11.191-25 25-25m300-50c12.273 0 22.48 8.844 24.598 20.508L750 475v100c0 13.81-11.19 25-25 25-12.273 0-22.48-8.844-24.598-20.508L700 575V475c0-13.809 11.191-25 25-25m-325-50c21.531 0 49.641 9.371 86.18 27.641 12.352 6.172 17.355 21.191 11.18 33.539-6.172 12.352-21.191 17.355-33.539 11.18-30.129-15.062-52.02-22.359-63.82-22.359-23.512 0-40.066 11.035-52.641 36.18-6.172 12.352-21.191 17.355-33.539 11.18-12.352-6.172-17.355-21.191-11.18-33.539 20.762-41.523 54.207-63.82 97.359-63.82zm350-125c43.152 0 76.598 22.297 97.359 63.82 6.176 12.348 1.172 27.367-11.18 33.539-12.348 6.176-27.367 1.172-33.539-11.18-12.574-25.145-29.129-36.18-52.641-36.18-11.801 0-33.691 7.297-63.82 22.359-12.348 6.176-27.367 1.172-33.539-11.18-6.176-12.348-1.172-27.367 11.18-33.539 36.539-18.27 64.648-27.641 86.18-27.641z"/></svg>