<?xml version="1.0" encoding="UTF-8"?>
<svg id="Layer_1" xmlns="http://www.w3.org/2000/svg" version="1.1" viewBox="0 0 741 748">
  <!-- Generator: Adobe Illustrator 29.7.1, SVG Export Plug-In . SVG Version: 2.1.1 Build 8)  -->
  <path d="M375,748c-3.98.06-8.02.08-12,0C94.95,742.88-75.25,457.53,37.14,215.64c124.22-267.35,504.32-285.6,651.03-28.31,139.79,245.15-29.85,556.49-313.17,560.67ZM358.79,25.29C117.61,35.72-37.7,271.9,44.73,498.77c88.79,244.38,406.53,306.3,582.3,113.76C832.31,387.65,667.96,11.93,358.79,25.29Z"/>
  <path d="M439.78,512.28c12.42-1.49,23.77-.25,34.75,5.69,29.06,15.74,45.5,66.07,15.95,89-30.4,23.6-70.85-15.85-96.81-30.15-31.37-17.27-95.1-41.06-124.71-12.37-7.11,6.89-12.21,22.84-24.7,17.78-14.52-5.88,1.91-25.02,8.25-31.24,25.84-25.33,54.51-23.3,87.53-16.54,6.17,1.26,18.98,6.27,24.11,5.99,4.59-.25,18.79-5.95,23.84-7.97,16.32-6.52,34.13-18.09,51.8-20.2ZM394,553.99c23.01,7.22,43.32,31.2,65.98,37.53,24.42,6.82,28.92-15.08,21.78-33.78-15.68-41.02-54.05-21.27-82.12-7.59-1.92.93-4.7,1.79-5.64,3.84Z"/>
  <path d="M394.76,398.26c29.17-4.18,53.2,18.47,46.79,47.79-14.21,65.03-86.52,75.6-129.58,28.48-5.97-6.53-16.32-16.41-7.51-24.56,10.57-9.78,17.05,3.82,23.02,10.05,24.65,25.73,59.39,35.05,82.74,1.71,6.92-9.88,16.45-25.04,7.77-36.21-8.97-11.55-26.56.47-33.45-10.55-5.63-9.01,1.4-15.43,10.21-16.69Z"/>
  <path d="M144.71,228.21c6.21-1.41,12.36,2.29,17.97,4.61,48.14,19.91,95.02,44.75,143.21,64.79,10.88,5.64,7.64,20.57-5.4,20.48-52.98-20.81-104.28-46.64-156.52-69.56-9.3-3.5-8.53-18.21.74-20.32Z"/>
  <path d="M588.73,228.24c12.03-2,17.01,9.18,10.29,18.28-51.77,25.1-104.57,49.09-157.56,71.52-12.62.71-16.27-13.96-6.16-20.24l153.43-69.56Z"/>
  <path d="M178.73,331.23l95.68-.14c13.65,1.85,14.46,19.24,1.11,21.93l-96.96-.09c-12.99-2.97-12.65-18.76.17-21.7Z"/>
  <path d="M468.74,331.24l93.67-.15c14.6,1.99,14.3,19.77.11,21.93l-94.96-.09c-11.49-1.76-12.29-19.43,1.18-21.7Z"/>
</svg>