<svg xmlns="http://www.w3.org/2000/svg" width="1600" height="1600" viewBox="0 0 1200 1200"><g fill-rule="evenodd"><path d="M551.87 301.61c44.918 134.76 64.172 333.69-154.01 38.504-70.59-96.258-282.35 83.422-57.754 160.43 231.02 83.422 205.35 192.51-38.504 198.93-179.68 6.418-263.1 263.1 19.25 89.84 192.51-115.51 218.18 19.25 147.59 121.93-141.18 211.77 198.93 340.11 160.43 64.172-25.668-166.84 134.76-141.18 147.59-70.59 19.25 173.26 346.52 44.918 121.93-64.172-70.59-38.504-70.59-160.43 6.418-128.34 359.36 154.01 385.03-192.51 102.67-134.76-134.76 25.668-121.93-32.086-83.422-57.754 243.85-154.01-25.668-333.69-141.18-12.836-19.25 70.59-121.93 38.504 6.418-205.35 89.84-173.26-320.86-250.27-237.43 0z"/><path d="M330.79 1035c28.098-2.848 49.148-27.875 47.016-55.898-2.133-28.027-26.637-48.438-54.738-45.594-28.098 2.848-49.145 27.875-47.012 55.898 2.133 28.027 26.637 48.438 54.734 45.594M1077.4 955.14c28.098-2.848 49.148-27.871 47.016-55.898-2.133-28.023-26.637-48.438-54.738-45.59-28.098 2.844-49.145 27.871-47.012 55.895 2.129 28.027 26.637 48.438 54.734 45.594M841.18 164.35c28.102-2.844 49.148-27.871 47.016-55.895-2.133-28.027-26.637-48.438-54.734-45.594-28.102 2.848-49.148 27.871-47.016 55.898 2.133 28.023 26.637 48.438 54.734 45.59M834.73 1120c15.594-1.582 27.277-15.473 26.094-31.027-1.184-15.555-14.785-26.883-30.383-25.305-15.594 1.578-27.277 15.469-26.094 31.027 1.184 15.555 14.785 26.883 30.383 25.305M25.434 751.22c13.418-1.36 23.469-13.309 22.449-26.691s-12.719-23.129-26.137-21.77C8.332 704.119-1.719 716.068-.699 729.45c1.016 13.379 12.719 23.129 26.133 21.77"/></g></svg>