<?xml version="1.0" encoding="UTF-8"?>
<svg id="Layer_1" xmlns="http://www.w3.org/2000/svg" version="1.1" viewBox="0 0 1024 1024">
  <!-- Generator: Adobe Illustrator 29.7.1, SVG Export Plug-In . SVG Version: 2.1.1 Build 8)  -->
  <path d="M669.01,429c.64-14.19-2.52-28-7.26-41.25-.92-2.58-5.99-12.33-5.3-13.72l109.06-109.02c49.81-59.6-29.27-138.63-88.04-90.04-32.12,36.32-74.37,68.94-105.5,105.5-16.32,19.16-23.43,44.49-15.91,68.96,10.76,35.03,50.57,36.17,45.94,82.06-.61,6.04-1.52,6.86-7.47,6.49-32.96-2.04-69.16-37.6-81.01-67.01-19.61-48.68-4.18-94.58,29.46-131.51,27.97-30.71,65.67-68.82,96.5-96.5,106.15-95.3,254.25,46.38,164.04,153.04l-134.5,132.99Z"/>
  <path d="M336.99,548c.45,11.18,2.76,22.46,6.55,32.96,1.21,3.35,8.73,17.56,8.01,19.01-10.49,9.54-19.72,20.45-29.53,30.55-23.44,24.15-49.98,47.44-72.68,71.82-20.56,22.08-27.98,52.59-10.16,78.96,21.97,32.53,64.85,29.5,92.34,5.71,34.82-30.14,65.91-69.56,100.5-100.5,21.14-23.12,28.23-61.32,8.39-87.44-6.49-8.54-16.46-13.92-23.44-21.56-11.46-12.56-15.96-31.06-11.92-47.47,50.12,2.74,92.18,51.89,95.93,100.46,3.69,47.72-16.19,67.87-46.01,98.96-30.16,31.43-64.03,69.07-96.45,97.55-14.3,12.57-31.47,22.14-50.32,25.68-103.36,19.39-167.42-97.93-98.72-176.72l127.5-127.99Z"/>
  <path d="M497.99,337.01c-.49,13.63,3.66,27.19,8.83,39.67,1.38,3.33,6.99,11.47,5.71,14.29-28.98,30.91-61.97,59.4-90.56,90.51-23.68,25.75-39.46,54.85-21.68,89.74,8.78,17.22,26.07,23.1,34.88,39.12,5.96,10.85,8.36,25.17,4.95,37.09-23.48,2.24-50.87-16.18-66.14-32.9-44.76-49-35.11-114.35,7-161.05,35.76-39.66,79.39-75.11,114.74-115.19.6-.68-.06-1.92,2.28-1.27Z"/>
  <path d="M510.01,631c-.97-17.87-6.67-35.48-15.88-50.69l97.38-98.3c18.44-22.6,27.77-52.45,16.67-80.69-11.98-30.49-47.88-33.84-44.16-73.8,1.1-11.85,4.98-9.17,14.99-7.03,81.26,17.34,107.99,134.2,50.5,190.52l-119.5,119.99Z"/>
</svg>