<svg xmlns="http://www.w3.org/2000/svg" width="1600" height="1600" viewBox="0 0 1200 1200"><path d="M493.2 421.2c0 26.512-21.488 48-48 48-26.508 0-48-21.488-48-48 0-26.508 21.492-48 48-48 26.512 0 48 21.492 48 48M828 421.2c0 26.512-21.492 48-48 48s-48-21.488-48-48c0-26.508 21.492-48 48-48s48 21.492 48 48"/><path d="M612 1064.4c-265.2 0-480-225.6-460.8-495.6 15.602-228 200.4-411.6 428.4-428.4 264-18 484.8 186 494.4 444 0 9.602 8.398 16.801 18 16.801s18-8.398 18-18c-10.797-277.2-249.6-498-534-477.6-244.8 16.801-444 216-460.8 460.8-20.398 291.6 210 534 496.8 534 237.6 0 438-168 486-392.4 2.398-10.801-6-21.602-18-21.602-8.398 0-15.602 6-18 14.398-44.398 207.6-229.2 363.6-450 363.6z"/><path d="M1110 644.4c0 10.605-8.598 19.203-19.199 19.203-10.605 0-19.199-8.598-19.199-19.203 0-10.602 8.594-19.199 19.199-19.199 10.602 0 19.199 8.598 19.199 19.199M612 962.4c-75.602 0-136.8-61.199-136.8-136.8 0-75.598 61.199-136.8 136.8-136.8s136.8 61.199 136.8 136.8c0 75.598-61.199 136.8-136.8 136.8m0-237.6c-55.199 0-100.8 45.602-100.8 100.8S556.802 926.4 612 926.4s100.8-45.602 100.8-100.8c0-55.203-44.402-100.8-100.8-100.8"/></svg>