<svg xmlns="http://www.w3.org/2000/svg" width="1600" height="1600" viewBox="0 0 1200 1200"><path fill-rule="evenodd" d="m1200 4.074-118.17 275.04-364.68 325.98 154.84 171.14 146.69-148.73 46.859 46.86-124.28 177.25 173.17 191.51 85.57 42.784-14.262 95.754-95.754 14.262-42.785-85.57-193.55-171.14-175.21 124.28-46.859-44.82 146.69-148.73-177.25-158.91-179.29 158.91 146.69 148.73-46.859 44.82-175.21-124.28-193.55 171.14-42.785 85.57-95.754-14.262-14.262-95.754 85.57-42.785 173.17-191.51-124.28-177.25 46.859-46.859 146.69 148.73 154.84-171.14-364.68-325.98L-.002 4.074l277.08 116.13 323.94 356.54 321.9-356.54z"/></svg>