<svg xmlns="http://www.w3.org/2000/svg" width="1600" height="1600" viewBox="0 0 1200 1200"><g fill-rule="evenodd"><path d="M1073.9 127.35c-6-22.398-20.648-41.5-40.75-53.148-20.102-11.602-44-14.699-66.398-8.7L870.15 91.356c-22.449 6-41.551 20.699-53.148 40.8a87.52 87.52 0 0 0-8.75 66.399c17.25 64.25 47.5 177.2 64.699 241.45 6.05 22.449 20.699 41.55 40.801 53.148a87.52 87.52 0 0 0 66.398 8.75l96.602-25.898a87.42 87.42 0 0 0 53.102-40.75 87.55 87.55 0 0 0 8.75-66.398l-64.699-241.5zM537.35 633.25l-175 350c-9.25 18.5-1.7 41.051 16.801 50.301s41.051 1.75 50.301-16.801l175-350c9.25-18.5 1.75-41.051-16.75-50.301-18.551-9.25-41.051-1.75-50.352 16.801M661.45 664.75l150 350c8.148 19.051 30.199 27.852 49.25 19.699 19-8.148 27.852-30.199 19.699-49.199l-150-350c-8.148-19.051-30.25-27.852-49.25-19.699-19.051 8.148-27.852 30.199-19.699 49.199"/><path d="m758.4 561.3-245.65 65.801a86.5 86.5 0 0 0 21.301 34.75c16.398 16.449 38.648 25.648 61.852 25.648h75c48.352 0 87.5-39.148 87.5-87.5V561.3zM755.3 173.9 303.55 294.95a87.36 87.36 0 0 0-53.148 40.75 87.55 87.55 0 0 0-8.75 66.398c11.301 42.102 27.551 102.8 38.852 144.9 6 22.398 20.648 41.551 40.75 53.148a87.55 87.55 0 0 0 66.398 8.75l451.75-121.1a137.8 137.8 0 0 1-14.699-34.852c-17.25-64.25-47.5-177.2-64.75-241.5-3.3-12.352-4.852-25-4.648-37.551zM188.7 377.5 123.302 395c-46.699 12.5-74.398 60.5-61.898 107.2l12.949 48.25c12.5 46.699 60.5 74.398 107.15 61.898l65.398-17.551a137.8 137.8 0 0 1-14.699-34.852c-11.301-42.102-27.551-102.8-38.852-144.9-3.3-12.352-4.852-25-4.648-37.551z"/></g></svg>