<?xml version="1.0" encoding="UTF-8"?>
<svg width="1200pt" height="1200pt" version="1.1" viewBox="0 0 1200 1200" xmlns="http://www.w3.org/2000/svg">
 <g fill-rule="evenodd">
  <path d="m1073.9 127.35c-6-22.398-20.648-41.5-40.75-53.148-20.102-11.602-44-14.699-66.398-8.6992l-96.602 25.852c-22.449 6-41.551 20.699-53.148 40.801-11.602 20.102-14.75 43.949-8.75 66.398 17.25 64.25 47.5 177.2 64.699 241.45 6.0508 22.449 20.699 41.551 40.801 53.148 20.102 11.602 43.949 14.75 66.398 8.75l96.602-25.898c22.398-6 41.5-20.648 53.102-40.75 11.602-20.102 14.75-44 8.75-66.398l-64.699-241.5z"/>
  <path d="m537.35 633.25-175 350c-9.25 18.5-1.6992 41.051 16.801 50.301s41.051 1.75 50.301-16.801l175-350c9.25-18.5 1.75-41.051-16.75-50.301-18.551-9.25-41.051-1.75-50.352 16.801z"/>
  <path d="m661.45 664.75 150 350c8.1484 19.051 30.199 27.852 49.25 19.699 19-8.1484 27.852-30.199 19.699-49.199l-150-350c-8.1484-19.051-30.25-27.852-49.25-19.699-19.051 8.1484-27.852 30.199-19.699 49.199z"/>
  <path d="m758.4 561.3-245.65 65.801c4.1992 13 11.449 24.949 21.301 34.75 16.398 16.449 38.648 25.648 61.852 25.648h75c48.352 0 87.5-39.148 87.5-87.5v-38.699z"/>
  <path d="m755.3 173.9-451.75 121.05c-22.449 6-41.551 20.648-53.148 40.75-11.602 20.102-14.75 44-8.75 66.398 11.301 42.102 27.551 102.8 38.852 144.9 6 22.398 20.648 41.551 40.75 53.148 20.102 11.602 44 14.75 66.398 8.75l451.75-121.1c-6.3984-10.75-11.398-22.5-14.699-34.852-17.25-64.25-47.5-177.2-64.75-241.5-3.3008-12.352-4.8516-25-4.6484-37.551z"/>
  <path d="m188.7 377.5-65.398 17.5c-46.699 12.5-74.398 60.5-61.898 107.2l12.949 48.25c12.5 46.699 60.5 74.398 107.15 61.898l65.398-17.551c-6.3984-10.75-11.398-22.5-14.699-34.852-11.301-42.102-27.551-102.8-38.852-144.9-3.3008-12.352-4.8516-25-4.6484-37.551z"/>
 </g>
</svg>
