<svg xmlns="http://www.w3.org/2000/svg" width="1600" height="1600" viewBox="0 0 1200 1200"><path d="m1154.2 903.36-248.16-124.2a28.56 28.56 0 0 0-25.199 0c-60.84-64.199-73.922-175.44-82.922-252.72-.719-7.441-1.68-14.641-2.52-21.359v-.004c.067-.476.067-.96 0-1.437a145.35 145.35 0 0 0-22.437-57.602 84 84 0 0 1-14.523-37.438L714.52 113.04a72 72 0 0 0-22.832-44.473 72.02 72.02 0 0 0-46.29-18.887h-2.16a72.72 72.72 0 0 0-43.199 14.398 73.7 73.7 0 0 0-45.48-14.398c-35.039.96-62.52 25.922-69.359 64.559l-43.32 294.36a85.7 85.7 0 0 1-14.64 37.559 145.3 145.3 0 0 0-22.439 57.84c-.07.476-.07.96 0 1.441-.84 6.719-1.68 13.922-2.52 21.359-8.878 77.281-21.96 188.52-82.921 252.72a28.56 28.56 0 0 0-25.2 0l-248.4 123.84a28.08 28.08 0 0 0-15.718 25.441v193.08a28.33 28.33 0 0 0 8.336 20.191 28.33 28.33 0 0 0 20.223 8.25h383.16a28.57 28.57 0 0 0 24.723-14.281l72-124.08a28.2 28.2 0 0 0 3.778-15.812 28.2 28.2 0 0 0-5.578-15.27 76 76 0 0 1 6.12-6.238 119.97 119.97 0 0 0 57.239-29.762 119.15 119.15 0 0 0 57.48 29.762 77 77 0 0 1 6.12 6.238 28.2 28.2 0 0 0-5.577 15.27 28.2 28.2 0 0 0 3.777 15.812l72 124.08a28.56 28.56 0 0 0 24.719 14.281h383.04a28.443 28.443 0 0 0 28.441-28.441v-193.08c.016-5.3-1.46-10.5-4.262-15s-6.812-8.117-11.578-10.441zm-582.6-14.52c0 9.96-26.039 27.961-36 29.398-24 0-54.121 34.801-69 62.762a139.45 139.45 0 0 1-87.238-32.039 128.53 128.53 0 0 1-51-102.6c102.24-72 119.16-216 130.44-313.32.84-7.078 1.559-13.801 2.281-20.16h-.004a90.55 90.55 0 0 1 14.883-36.957 144 144 0 0 0 22.438-58.801l43.2-293.52c1.44-7.559 5.038-16.559 14.64-16.922a16.6 16.6 0 0 1 9.278 2.68 16.54 16.54 0 0 1 6.203 7.402zM733.48 981c-14.762-27.961-44.879-62.762-68.039-62.762-10.922-1.441-36.84-19.441-36.84-29.398V116.76c1.281-3.012 3.422-5.574 6.156-7.367s5.938-2.739 9.207-2.715c9.602 0 13.2 9.36 14.398 15.84l43.56 294.96a140.45 140.45 0 0 0 22.44 58.441 92.2 92.2 0 0 1 14.758 36.957c.719 6.36 1.442 13.199 2.281 20.16 11.281 96.84 28.2 241.08 130.44 313.32a128.52 128.52 0 0 1-50.879 102.6 139.7 139.7 0 0 1-87.48 32.039z"/></svg>