<?xml version="1.0" encoding="UTF-8"?>
<svg width="1200pt" height="1200pt" version="1.1" viewBox="0 0 1200 1200" xmlns="http://www.w3.org/2000/svg">
 <path d="m1154.2 903.36-248.16-124.2c-7.9453-3.9062-17.254-3.9062-25.199 0-60.84-64.199-73.922-175.44-82.922-252.72-0.71875-7.4414-1.6797-14.641-2.5195-21.359v-0.003906c0.066406-0.47656 0.066406-0.96094 0-1.4375-3.2617-20.586-10.914-40.23-22.438-57.602-7.7969-11.121-12.781-23.969-14.523-37.438l-43.918-295.56c-2.0547-17.074-10.156-32.852-22.832-44.473-12.68-11.621-29.098-18.32-46.289-18.887h-2.1602c-15.57 0.050781-30.711 5.0977-43.199 14.398-13.145-9.707-29.141-14.773-45.48-14.398-35.039 0.96094-62.52 25.922-69.359 64.559l-43.32 294.36c-1.8242 13.504-6.8438 26.383-14.641 37.559-11.555 17.441-19.211 37.168-22.438 57.84-0.070313 0.47656-0.070313 0.96094 0 1.4414-0.83984 6.7188-1.6797 13.922-2.5195 21.359-8.8789 77.281-21.961 188.52-82.922 252.72-7.9453-3.9062-17.254-3.9062-25.199 0l-248.4 123.84c-4.75 2.3281-8.7461 5.9531-11.527 10.453s-4.2344 9.6953-4.1914 14.988v193.08c-0.03125 7.5742 2.9688 14.844 8.3359 20.191 5.3672 5.3438 12.652 8.3125 20.223 8.25h383.16c10.199-0.003906 19.621-5.4492 24.723-14.281l72-124.08c2.7812-4.7852 4.0977-10.285 3.7773-15.812-0.32031-5.5273-2.2617-10.836-5.5781-15.27 1.918-2.1953 3.9609-4.2773 6.1211-6.2383 21.438-4.5078 41.234-14.801 57.238-29.762 16.047 15.035 35.941 25.336 57.48 29.762 2.1562 1.9609 4.1992 4.043 6.1211 6.2383-3.3203 4.4336-5.2578 9.7422-5.5781 15.27-0.32031 5.5273 0.99219 11.027 3.7773 15.812l72 124.08c5.0977 8.832 14.52 14.277 24.719 14.281h383.04c7.543 0 14.777-2.9961 20.113-8.332 5.332-5.332 8.3281-12.566 8.3281-20.109v-193.08c0.015625-5.3008-1.4609-10.5-4.2617-15s-6.8125-8.1172-11.578-10.441zm-582.6-14.52c0 9.9609-26.039 27.961-36 29.398-24 0-54.121 34.801-69 62.762-31.887-0.39062-62.68-11.699-87.238-32.039-32.148-24.312-51.027-62.297-51-102.6 102.24-72 119.16-216 130.44-313.32 0.83984-7.0781 1.5586-13.801 2.2812-20.16h-0.003907c2.1562-13.27 7.2383-25.895 14.883-36.957 11.723-17.707 19.387-37.785 22.438-58.801l43.199-293.52c1.4414-7.5586 5.0391-16.559 14.641-16.922 3.2891-0.046876 6.5195 0.88672 9.2773 2.6797 2.7578 1.7969 4.918 4.3711 6.2031 7.4023zm161.88 92.16c-14.762-27.961-44.879-62.762-68.039-62.762-10.922-1.4414-36.84-19.441-36.84-29.398v-772.08c1.2812-3.0117 3.4219-5.5742 6.1562-7.3672s5.9375-2.7383 9.207-2.7148c9.6016 0 13.199 9.3594 14.398 15.84l43.559 294.96c2.9883 20.922 10.66 40.898 22.441 58.441 7.5508 11.098 12.586 23.711 14.758 36.957 0.71875 6.3594 1.4414 13.199 2.2812 20.16 11.281 96.84 28.199 241.08 130.44 313.32 0.054688 40.285-18.777 78.266-50.879 102.6-24.637 20.375-55.516 31.684-87.48 32.039z"/>
</svg>
