<svg xmlns="http://www.w3.org/2000/svg" data-name="Camada 1" viewBox="0 0 100 125" x="0px" y="0px"><title>Thinking</title><path d="M50,0A50.00433,50.00433,0,0,0,4.37988,70.47c-.23974.29-.5.58-.75976.86A13.70124,13.70124,0,0,0,.2998,83.51a45.51478,45.51478,0,0,0,2.75,8.92,12.655,12.655,0,0,0,11.52,7.57,21.25537,21.25537,0,0,0,4.32836-.69767A39.725,39.725,0,0,1,23.37988,98.73,43.08369,43.08369,0,0,0,33.04,97.04,50.00175,50.00175,0,1,0,50,0ZM26.8999,94.33c-2.166.29539-4.3457.47413-6.51428.74833-1.11533.141-2.24142.28729-3.34053.5275a10.85838,10.85838,0,0,1-2.952.38357,8.65786,8.65786,0,0,1-6.25433-3.29325A8.77863,8.77863,0,0,1,6.71,90.81a40.97347,40.97347,0,0,1-2.49023-8.12A9.706,9.706,0,0,1,6.31006,74.3c.06982-.08.1499-.16.21973-.24A33.328,33.328,0,0,0,9.08008,71c4.66992-6.34,6.92969-13.75,8.35986-18.45.27979-.9.52-1.7.75-2.38a2.27572,2.27572,0,0,1,1.62012-1.49,2.13874,2.13874,0,0,1,2.02.54c1.93994,1.87,3.71,7.65,3.92969,10.07a3.86232,3.86232,0,0,0,5.57031,3.31L45.9502,56.27a3.17581,3.17581,0,0,1,4.12988,1.53,3.10368,3.10368,0,0,1,.12012,2.53,3.17181,3.17181,0,0,1-1.77051,1.82L36.7002,66.98a3.92821,3.92821,0,0,0-1.8003,5.93c1.6499,2.45,5.3501,8.7,4.21,13.69A8.0374,8.0374,0,0,1,34.98,91.82a15.58194,15.58194,0,0,1-1.91992.95A24.99189,24.99189,0,0,1,26.8999,94.33ZM50,96a45.70349,45.70349,0,0,1-11.77-1.53,11.53744,11.53744,0,0,0,4.77979-6.98c1.43017-6.23-2.33008-13.13-4.77979-16.81l11.73-4.84a7.18811,7.18811,0,1,0-5.6001-13.24L29.73975,58.93c-.21973-2.47-2.02-9.58-5.12989-12.59a6.14,6.14,0,0,0-5.75-1.54,6.22153,6.22153,0,0,0-4.46972,4.1c-.23.71-.49024,1.54-.77,2.48-1.21,3.96-3.04,9.97-6.47022,15.34A45.56189,45.56189,0,0,1,4,50,46,46,0,1,1,50,96Z"/><path d="M63.74219,23.35367a3.92868,3.92868,0,1,0,3.92773,3.92865A3.93226,3.93226,0,0,0,63.74219,23.35367Z"/><path d="M32.25781,23.35367a3.92868,3.92868,0,1,0,3.92725,3.92865A3.93236,3.93236,0,0,0,32.25781,23.35367Z"/><path d="M56.71,44.98663h0a1.997,1.997,0,0,1-2.44136,1.95493,30.80684,30.80684,0,0,0-14.19738.00007,1.997,1.997,0,0,1-2.44134-1.95493v0a2.01577,2.01577,0,0,1,1.569-1.963,35.324,35.324,0,0,1,15.94205,0A2.01576,2.01576,0,0,1,56.71,44.98663Z"/></svg>