<svg xmlns="http://www.w3.org/2000/svg" data-name="Layer 1" viewBox="0 0 100 125" x="0px" y="0px">
  <path d="M38.664,53.809a1,1,0,1,0-.028,2c1.165.018,2.333.007,3.5,0,6.1-.059,11.866-.105,17.012,3.539A1,1,0,1,0,60.3,57.712C54.631,53.694,48.273,53.75,42.118,53.8,40.965,53.814,39.811,53.824,38.664,53.809Z"/>
  <path d="M 26.414 24.813 C 26.653 24.813 26.887 24.749 27.083 24.63 C 34.865 19.904 39.111 16.449 44.709 21.096 C 45.352 21.631 45.65 21.103 45.866 20.356 C 45.967 20.01 46.285 19.106 45.986 18.858 C 39.557 13.517 34.417 17.726 25.743 22.991 C 25.013 23.435 25.114 24.393 25.926 24.716 C 26.079 24.777 26.246 24.808 26.415 24.808 L 26.414 24.813 Z" style=""/>
  <path d="M 58.122 25.736 C 58.309 25.922 59.091 26.072 59.177 26.048 C 62.154 25.386 63.516 25.722 65.619 25.805 C 69.07 25.941 71.507 27.398 73.374 27.3 C 74.144 27.246 75.644 25.431 75.213 24.791 C 75.013 24.494 74.071 24.499 73.714 24.524 C 71.915 24.615 68.768 23.679 66.969 23.584 C 63.729 23.306 61.779 22.876 58.607 23.592 C 57.864 23.794 57.575 25.193 58.122 25.736 Z"/>
  <path d="M85.414,29.9a1,1,0,0,0-1.836.792A36.571,36.571,0,0,1,50,81.7c-.607,0-1.216-.031-1.824-.061,0-.247.01-.5.01-.718a13.234,13.234,0,0,1,.155-1.768,6.822,6.822,0,0,0-.015-2.873,16.972,16.972,0,0,0-1.178-2.951L58.234,69.87a.852.852,0,0,0,.479-.379,3.28,3.28,0,0,0,.4-3.078,4.063,4.063,0,0,0-2.764-1.991.851.851,0,0,0-.391.011c-20.863,5.544-23.6,3.417-23.844,3.151,0-.017,0-.034,0-.05C31.219,56.3,28.375,55.253,27.525,55.2l-.053,0a2.793,2.793,0,0,0-2.119,1.037,3.649,3.649,0,0,0-.325,3.29c.687,2.474-.678,8.325-1.235,10.29-.078.2-.144.384-.217.576a36.561,36.561,0,0,1-6.4-41.329,1,1,0,1,0-1.795-.882,38.569,38.569,0,0,0,7.47,44.329c-3.542,11.579,2.65,15.34,2.927,15.5A23.372,23.372,0,0,0,37.739,91.7,14.472,14.472,0,0,0,46.8,88.827a.849.849,0,0,0,.19-.233,4.5,4.5,0,0,0,.552-2.028,4.392,4.392,0,0,1,.144-.933,11.776,11.776,0,0,0,.364-2c.65.032,1.3.065,1.95.065A38.57,38.57,0,0,0,85.414,29.9ZM45.847,86.428a2.979,2.979,0,0,1-.27,1.2c-.972.731-7.957,5.444-18.943-1.084-.062-.036-6.168-3.746-1.233-16.18.091-.319,2.221-7.852,1.265-11.292a2.227,2.227,0,0,1,.034-1.8,1.041,1.041,0,0,1,.68-.363c.351.19,2.3,1.65,3.03,10.687a1.623,1.623,0,0,0,.558,1.247c2.185,2.052,10.667,1.141,25.209-2.709a2.3,2.3,0,0,1,1.379.967A1.492,1.492,0,0,1,57.4,68.35L45.632,72.025a.851.851,0,0,0-.452,1.286A13.9,13.9,0,0,1,46.7,76.766a5.608,5.608,0,0,1-.041,2.166,14.808,14.808,0,0,0-.17,1.994,16.221,16.221,0,0,1-.432,4.231A6,6,0,0,0,45.847,86.428Z"/>
  <path d="M 43.354 33.499 C 43.6 32.091 43.384 30.641 42.736 29.367 C 41.557 26.785 38.128 26.237 36.204 28.324 C 34.166 30.418 33.663 33.566 34.948 36.19 C 35.523 37.381 36.633 38.226 37.934 38.463 C 38.125 38.494 38.319 38.509 38.513 38.509 C 40.784 38.509 42.888 36.39 43.354 33.499 Z M 38.202 36.784 C 37.428 36.623 36.777 36.103 36.447 35.384 C 35.521 33.433 35.892 31.113 37.38 29.547 C 37.849 29.059 38.49 28.772 39.166 28.747 C 39.272 28.747 39.377 28.756 39.482 28.772 C 40.255 28.933 40.906 29.45 41.236 30.167 C 41.709 31.114 41.863 32.189 41.675 33.231 C 41.318 35.44 39.759 37.034 38.198 36.784 L 38.202 36.784 Z"/>
  <path d="M60.983,42.065a3.665,3.665,0,0,0,.578.046c2.276,0,4.381-2.119,4.842-5.009a6.608,6.608,0,0,0-.618-4.132A4.142,4.142,0,0,0,62.8,30.7c-2.484-.39-4.919,1.829-5.42,4.964S58.5,41.668,60.983,42.065Zm-1.926-6.137c.329-2.056,1.7-3.579,3.149-3.579a2.084,2.084,0,0,1,.325.026,2.488,2.488,0,0,1,1.754,1.395,4.9,4.9,0,0,1,.439,3.063h0c-.352,2.208-1.906,3.8-3.473,3.553S58.705,38.137,59.058,35.929Z"/>
</svg>