<?xml version="1.0" encoding="UTF-8"?>
<svg width="1200pt" height="1200pt" version="1.1" viewBox="0 0 1200 1200" xmlns="http://www.w3.org/2000/svg">
 <g>
  <path d="m1020.5 973.35-0.8125-3.6914c-0.042969-0.19141-0.089844-0.37891-0.13281-0.56641-0.28516-1.1445-0.60156-2.2812-0.91797-3.4141l-1.2852-4.5117c-0.007812-0.023437-0.097656-0.34375-0.10938-0.36719-0.12891-0.44531-0.26172-0.89062-0.47656-1.5391l-2.8516-8.0391c-0.21484-0.58594-0.42969-1.1641-0.72656-1.8633l-2.0938-5.2148c-2.1016-5.3242-4.3281-11.176-6.7891-17.848-2.582-7.0352-5.4336-14.09-8.3242-21.055l-0.011719-0.003906c68.93-89.438 105.56-199.57 103.92-312.47-1.6328-112.9-41.438-221.93-112.93-309.33-71.492-87.398-170.46-148.03-280.8-172.01-110.34-23.984-225.55-9.918-326.87 39.918-101.32 49.832-182.8 132.5-231.15 234.53-48.359 102.04-60.758 217.44-35.176 327.41 25.582 109.98 87.641 208.06 176.07 278.28 88.426 70.219 198.02 108.44 310.93 108.44 1.4453 0 2.8789-0.042969 4.3164-0.054688 2.1953 13.125 8.9258 25.066 19.02 33.734 10.098 8.6719 22.914 13.52 36.223 13.707l217.36 2.6562h0.23828c0.10547 0 0.21094 0 0.31641-0.003907l5.5273-0.10937c2.8516-0.03125 5.457-0.25781 7.7617-0.46094l1.2578-0.10938v0.003906c35.297-3.3203 68.148-19.484 92.312-45.43 15.977-17.129 27.645-37.82 34.035-60.359 6.4492-22.848 7.207-46.926 2.1992-70.129zm-83.469 121.71h0.003906c-14.516 9.5078-31.137 15.328-48.414 16.957l-1.1797 0.10156c-1.8047 0.15625-3.5117 0.30859-5.1758 0.32031l-5.1953 0.10547-217.1-2.6523h0.003906c-6.6367-0.078125-12.766-3.5703-16.215-9.2422s-3.7305-12.723-0.75-18.652c2.9844-5.9297 8.8125-9.9023 15.422-10.516 5.5664-0.51562 10.492-3.8203 13.086-8.7695 2.5938-4.9531 2.5039-10.883-0.23828-15.754-2.7422-4.8711-7.7656-8.0234-13.344-8.3711-8.9531-0.57812-17.125-5.3008-22.098-12.77-4.9688-7.4688-6.168-16.832-3.2383-25.312s9.6484-15.109 18.168-17.922c4.4453-1.4609 8.0586-4.7461 9.9414-9.0273 1.8867-4.2812 1.8633-9.1641-0.0625-13.43s-5.5703-7.5117-10.027-8.9336c-8.2969-2.6602-15.027-8.7969-18.441-16.812-3.418-8.0156-3.1758-17.121 0.65625-24.949 3.8281-7.8281 10.875-13.602 19.301-15.82 4.7422-1.2578 8.6797-4.5586 10.742-9.0078 2.0664-4.4531 2.043-9.5898-0.0625-14.023-2.1055-4.4297-6.0742-7.6953-10.828-8.9062l-146.94-37.488 0.003906-0.003907c-10.387-2.6484-18.57-10.637-21.465-20.957-2.8984-10.32-0.070312-21.402 7.418-29.07 7.4844-7.668 18.496-10.762 28.883-8.1094l280.55 71.582h-0.003907c12.352 3.1484 25.465 0.70312 35.848-6.6914 10.379-7.3945 16.98-18.984 18.039-31.688l7.7852-93.242 0.003906 0.003906c0.66797-7.9258 4.4531-15.266 10.527-20.402 6.0742-5.1367 13.938-7.6562 21.863-7 18.168 1.5195 26.914 18.809 27.348 34.23 0.21094 7.457 0.058594 14.883-0.097656 22.75-0.62891 30.793-1.3438 65.691 17.633 127.55 4.8203 15.719 11.395 31.332 17.75 46.43 4.3203 10.266 8.4062 19.965 11.965 29.664 2.5742 6.9727 4.8984 13.082 7.1328 18.727l1.8125 4.5352 2.2812 6.1133 2.2109 7.1992c0.20312 0.71875 0.40625 1.4375 0.59375 2.1641l0.74609 3.3945-0.003907 0.007813c3.7148 17.211 3.1523 35.07-1.6406 52.016-4.7578 16.785-13.445 32.195-25.348 44.953-5.9258 6.3477-12.586 11.957-19.848 16.715zm-660.93-171.2c-85.895-85.891-134.14-202.39-134.14-323.86s48.254-237.96 134.14-323.86c85.891-85.895 202.39-134.14 323.86-134.14s237.96 48.254 323.86 134.14c75.617 75.648 122.39 175.37 132.21 281.88 9.8203 106.51-17.926 213.1-78.434 301.3-0.82422-2.4062-1.625-4.8047-2.3516-7.1758-17.211-56.113-16.59-86.453-15.992-115.79 0.16797-8.332 0.33203-16.207 0.09375-24.574-1.0703-37.977-27.023-67.645-61.719-70.547v0.003907c-17.836-1.4688-35.527 4.1953-49.191 15.754-13.664 11.555-22.184 28.062-23.688 45.898l-7.7852 93.246-0.003906-0.003906c-0.14453 1.707-1.0312 3.2656-2.4258 4.2617-1.3984 0.99219-3.1602 1.3203-4.8203 0.89844l-280.55-71.582h0.003907c-17.355-4.4453-35.762-1.8125-51.172 7.3242-15.41 9.1328-26.559 24.02-30.984 41.375-4.4297 17.359-1.7773 35.766 7.3711 51.164 9.1523 15.402 24.047 26.535 41.41 30.945l106.28 27.117c-7.4531 12.281-10.793 26.621-9.5352 40.934 1.2617 14.309 7.0547 27.844 16.543 38.637-10.836 12.883-16.359 29.406-15.449 46.215 0.90625 16.805 8.1758 32.641 20.336 44.281l-0.050781 0.074219c-4.6367 0.14062-9.2852 0.23047-13.949 0.23047-60.168 0.16406-119.77-11.605-175.36-34.633-55.59-23.027-106.06-56.848-148.49-99.512z"/>
  <path d="m476.2 378.71c9.3281 1.1211 18.562 2.8984 27.641 5.3242 9.1133 2.418 18.051 5.5391 27.133 8.8828l0.56641 0.21094h-0.003907c6.6289 2.4297 14.031-0.42578 17.309-6.6758s1.418-13.965-4.3516-18.035c-18.82-13.035-40.312-21.715-62.906-25.406-22.418-3.707-45.316-3.3516-67.605 1.043-21.867 4.2031-43.008 11.539-62.773 21.785-4.9375 2.4727-9.7109 5.2773-14.387 8.2148-4.6836 2.9219-9.2852 6.0117-13.707 9.3633-9.1328 6.6836-17.309 14.578-24.305 23.473-2.5312 3.3438-2.2188 8.0352 0.73438 11.012 2.9492 2.9805 7.6406 3.3359 11.008 0.83594l0.35937-0.26562c7.8281-5.6406 16.141-10.582 24.84-14.762 8.8359-4.2773 17.898-8.0703 27.148-11.363 9.2383-3.293 18.637-6.0352 28.07-8.3789 9.4062-2.2383 18.922-3.9648 28.516-5.1758 18.824-2.418 37.883-2.4453 56.715-0.082031z"/>
  <path d="m693.84 307.8 0.40625-0.30078v-0.003906c15.418-12.027 32.914-21.121 51.617-26.828 18.758-5.3477 38.32-7.3164 57.766-5.8086 4.9453 0.35938 9.8906 0.98438 14.824 1.7812 4.9375 0.77344 9.875 1.707 14.781 2.8477l0.003907 0.003906c9.8438 2.3594 19.512 5.4102 28.93 9.1289 9.4219 3.7344 18.531 8.2227 27.238 13.414 8.5547 5.0156 16.434 11.098 23.449 18.102l0.41406 0.42188v0.003906c3.2695 3.3086 8.4883 3.6797 12.195 0.86719 3.707-2.8164 4.75-7.9453 2.4375-11.984-6.2227-10.5-14.203-19.855-23.594-27.652-2.2578-1.9688-4.5469-3.8906-6.9492-5.6328-2.3516-1.8398-4.7891-3.5234-7.2422-5.2031-4.8828-3.3633-9.9531-6.457-15.18-9.2617-10.426-5.6914-21.371-10.383-32.684-14.012-5.668-1.8047-11.414-3.4531-17.254-4.7773-5.8516-1.2539-11.773-2.3047-17.754-3.0469-24.344-3.3711-49.141-1.0352-72.43 6.8203-23.324 8.0586-44.004 22.336-59.801 41.293-4.4258 5.3711-4.1484 13.195 0.64062 18.242 4.7891 5.0469 12.594 5.7266 18.184 1.5859z"/>
  <path d="m533.5 472.75c0-17.902-7.1133-35.07-19.77-47.73-12.66-12.656-29.828-19.77-47.73-19.77s-35.07 7.1133-47.73 19.77c-12.66 12.66-19.77 29.828-19.77 47.73s7.1094 35.07 19.77 47.73c12.66 12.66 29.828 19.77 47.73 19.77s35.07-7.1094 47.73-19.77c12.656-12.66 19.77-29.828 19.77-47.73zm-94.598-28.875h-0.003906c0-7.1875 2.8555-14.078 7.9375-19.16 5.082-5.082 11.977-7.9375 19.164-7.9375s14.078 2.8555 19.16 7.9375c5.082 5.082 7.9375 11.973 7.9375 19.16s-2.8555 14.082-7.9375 19.164c-5.082 5.082-11.973 7.9375-19.16 7.9375s-14.082-2.8555-19.164-7.9375c-5.082-5.082-7.9375-11.977-7.9375-19.164z"/>
  <path d="m782 365.25c-17.902 0-35.07 7.1133-47.73 19.77-12.656 12.66-19.77 29.828-19.77 47.73s7.1133 35.07 19.77 47.73c12.66 12.656 29.828 19.77 47.73 19.77s35.07-7.1133 47.73-19.77c12.66-12.66 19.77-29.828 19.77-47.73s-7.1094-35.07-19.77-47.73c-12.66-12.656-29.828-19.77-47.73-19.77zm0 65.723c-7.1875 0-14.078-2.8516-19.16-7.9336-5.082-5.082-7.9375-11.977-7.9375-19.164s2.8555-14.082 7.9375-19.164c5.082-5.082 11.973-7.9336 19.16-7.9336s14.082 2.8516 19.164 7.9336c5.082 5.082 7.9375 11.977 7.9375 19.164s-2.8555 14.082-7.9375 19.164c-5.082 5.082-11.977 7.9375-19.164 7.9336z"/>
  <path d="m489.39 690.34c1.5391 4.9375 4.9844 9.0586 9.5664 11.453 4.5859 2.3984 9.9375 2.8711 14.871 1.3164 33.133-10.387 182.37-31.75 265.05-18.355 6.875 1.1055 13.816-1.5352 18.215-6.9336 4.3984-5.3984 5.5859-12.73 3.1172-19.238-2.4727-6.5078-8.2266-11.207-15.098-12.328-87.383-14.148-243.25 7.1914-282.95 19.641l0.003907 0.003906c-4.9375 1.5469-9.0547 4.9883-11.449 9.5742-2.3984 4.582-2.875 9.9297-1.3242 14.867z"/>
 </g>
</svg>
