<svg xmlns="http://www.w3.org/2000/svg" width="1600" height="1600" viewBox="0 0 1200 1200"><path d="m1020.5 973.35-.812-3.691c-.043-.192-.09-.38-.133-.567a126 126 0 0 0-.918-3.414l-1.285-4.512c-.008-.023-.098-.343-.11-.367-.129-.445-.262-.89-.476-1.539l-2.852-8.039a38 38 0 0 0-.727-1.863l-2.093-5.215a846 846 0 0 1-6.79-17.848c-2.581-7.035-5.433-14.09-8.324-21.055l-.011-.004a499.98 499.98 0 0 0 103.92-312.47 499.99 499.99 0 0 0-720.6-441.422 499.98 499.98 0 0 0-231.15 234.53 500 500 0 0 0-35.176 327.41 500 500 0 0 0 176.07 278.28 500 500 0 0 0 310.93 108.44c1.445 0 2.879-.043 4.316-.055a56.814 56.814 0 0 0 55.243 47.441l217.36 2.657h.238q.159.001.317-.004l5.527-.11c2.852-.031 5.457-.258 7.762-.46l1.257-.11v.004a144.66 144.66 0 0 0 92.312-45.43 147.46 147.46 0 0 0 34.035-60.36 145.3 145.3 0 0 0 2.2-70.128zm-83.469 121.71h.004a106.6 106.6 0 0 1-48.414 16.957l-1.18.102c-1.804.156-3.511.308-5.176.32l-5.195.105-217.1-2.652h.004c-6.637-.078-12.766-3.57-16.215-9.242s-3.73-12.723-.75-18.652a19.26 19.26 0 0 1 15.422-10.516 16.497 16.497 0 0 0 12.848-24.524 16.5 16.5 0 0 0-13.344-8.37 28.78 28.78 0 0 1-22.098-12.77c-4.97-7.47-6.168-16.833-3.239-25.313s9.649-15.109 18.168-17.922a16.49 16.49 0 0 0 9.942-9.027c1.887-4.281 1.863-9.164-.063-13.43s-5.57-7.512-10.027-8.934a30.002 30.002 0 0 1-17.784-41.76 29.98 29.98 0 0 1 19.3-15.82 16.5 16.5 0 0 0 10.68-23.031 16.5 16.5 0 0 0-10.828-8.907l-146.94-37.488.004-.004a29.99 29.99 0 0 1-21.465-20.957 30 30 0 0 1 7.418-29.07 29.99 29.99 0 0 1 28.883-8.109l280.55 71.582h-.004a43.34 43.34 0 0 0 35.848-6.691 43.33 43.33 0 0 0 18.04-31.688l7.784-93.242.004.004a30.02 30.02 0 0 1 32.39-27.402c18.168 1.519 26.914 18.809 27.348 34.23.211 7.457.059 14.883-.097 22.75-.63 30.793-1.344 65.69 17.633 127.55 4.82 15.719 11.395 31.332 17.75 46.43 4.32 10.266 8.406 19.965 11.965 29.664 2.574 6.972 4.898 13.082 7.132 18.727l1.813 4.535 2.281 6.113 2.21 7.2c.204.718.407 1.437.595 2.163l.746 3.395-.004.008a107.66 107.66 0 0 1-1.64 52.016 109.8 109.8 0 0 1-25.349 44.953 108.5 108.5 0 0 1-19.848 16.715zm-660.93-171.2c-85.895-85.891-134.14-202.39-134.14-323.86s48.254-237.96 134.14-323.86C361.992 190.245 478.491 142 599.961 142s237.96 48.254 323.86 134.14a458.238 458.238 0 0 1 53.776 583.18 232 232 0 0 1-2.352-7.176c-17.21-56.113-16.59-86.453-15.992-115.79.168-8.332.332-16.207.094-24.574-1.07-37.977-27.023-67.645-61.719-70.547v.004a67.58 67.58 0 0 0-49.19 15.754 67.54 67.54 0 0 0-23.689 45.898l-7.785 93.246-.004-.004a5.84 5.84 0 0 1-2.426 4.262 5.84 5.84 0 0 1-4.82.898l-280.55-71.582h.004a67.5 67.5 0 0 0-51.172 7.325 67.48 67.48 0 0 0-30.984 41.375 67.497 67.497 0 0 0 48.781 82.109l106.28 27.117a67.5 67.5 0 0 0-9.535 40.934 67.5 67.5 0 0 0 16.543 38.637 66.23 66.23 0 0 0-15.45 46.215 66.24 66.24 0 0 0 20.337 44.28l-.051.075c-4.637.14-9.285.23-13.949.23a454.988 454.988 0 0 1-323.85-134.145z"/><path d="M476.2 378.71a199 199 0 0 1 27.641 5.324c9.113 2.418 18.051 5.54 27.133 8.883l.566.21h-.003a14.072 14.072 0 0 0 12.957-24.71 154.1 154.1 0 0 0-62.906-25.406 189.6 189.6 0 0 0-67.605 1.043 231.2 231.2 0 0 0-62.773 21.785c-4.938 2.473-9.711 5.277-14.387 8.215-4.684 2.922-9.285 6.012-13.707 9.363a124.3 124.3 0 0 0-24.305 23.473 8.42 8.42 0 0 0 .734 11.012 8.42 8.42 0 0 0 11.008.836l.36-.265a164 164 0 0 1 24.84-14.762 271 271 0 0 1 27.148-11.363c9.238-3.293 18.637-6.036 28.07-8.38a268 268 0 0 1 28.516-5.175 225.2 225.2 0 0 1 56.715-.082zM693.84 307.8l.406-.3v-.005a159.7 159.7 0 0 1 51.617-26.828 164.4 164.4 0 0 1 57.766-5.808c4.946.36 9.89.984 14.824 1.78 4.938.774 9.875 1.708 14.781 2.849l.004.004a216 216 0 0 1 28.93 9.128 189.7 189.7 0 0 1 27.238 13.414 116.8 116.8 0 0 1 23.45 18.102l.413.422v.004a9.27 9.27 0 0 0 12.195.867 9.27 9.27 0 0 0 2.438-11.984 106.5 106.5 0 0 0-23.594-27.652c-2.258-1.968-4.547-3.89-6.95-5.632-2.351-1.84-4.789-3.524-7.242-5.204a161 161 0 0 0-15.18-9.261 188 188 0 0 0-32.684-14.012c-5.668-1.805-11.414-3.453-17.254-4.778-5.851-1.253-11.773-2.304-17.754-3.046a158.6 158.6 0 0 0-72.43 6.82 135.4 135.4 0 0 0-59.8 41.293 13.774 13.774 0 0 0 18.824 19.828zM533.5 472.75a67.5 67.5 0 0 0-19.77-47.73c-12.66-12.656-29.828-19.77-47.73-19.77s-35.07 7.113-47.73 19.77a67.497 67.497 0 0 0 0 95.46 67.497 67.497 0 0 0 95.46 0 67.51 67.51 0 0 0 19.77-47.73m-94.598-28.875h-.004A27.105 27.105 0 0 1 466 416.777a27.1 27.1 0 0 1 19.16 7.938 27.095 27.095 0 0 1 0 38.324 27.095 27.095 0 0 1-38.323 0 27.1 27.1 0 0 1-7.938-19.164zM782 365.25a67.5 67.5 0 0 0-47.73 19.77c-12.656 12.66-19.77 29.828-19.77 47.73s7.113 35.07 19.77 47.73c12.66 12.656 29.828 19.77 47.73 19.77s35.07-7.113 47.73-19.77a67.497 67.497 0 0 0 0-95.46A67.51 67.51 0 0 0 782 365.25m0 65.723a27.09 27.09 0 0 1-27.097-27.098A27.092 27.092 0 0 1 782 376.777a27.1 27.1 0 0 1 19.164 7.934 27.105 27.105 0 0 1 0 38.328A27.08 27.08 0 0 1 782 430.973M489.39 690.34a19.46 19.46 0 0 0 9.566 11.453 19.47 19.47 0 0 0 14.871 1.316c33.133-10.387 182.37-31.75 265.05-18.355a19.5 19.5 0 0 0 18.215-6.933 19.5 19.5 0 0 0 3.118-19.238 19.51 19.51 0 0 0-15.098-12.328c-87.383-14.148-243.25 7.191-282.95 19.64l.004.005a19.48 19.48 0 0 0-11.45 9.574 19.47 19.47 0 0 0-1.324 14.867z"/></svg>