<svg xmlns="http://www.w3.org/2000/svg" data-name="Layer 1" viewBox="0 0 100 125"><path d="M38.664 53.809a1 1 0 1 0-.028 2c1.165.018 2.333.007 3.5 0 6.1-.059 11.866-.105 17.012 3.539a1 1 0 1 0 1.152-1.636c-5.669-4.018-12.027-3.962-18.182-3.912-1.153.014-2.307.024-3.454.009M26.414 24.813c.239 0 .473-.064.669-.183 7.782-4.726 12.028-8.181 17.626-3.534.643.535.941.007 1.157-.74.101-.346.419-1.25.12-1.498-6.429-5.341-11.569-1.132-20.243 4.133-.73.444-.629 1.402.183 1.725.153.061.32.092.489.092zM58.122 25.736c.187.186.969.336 1.055.312 2.977-.662 4.339-.326 6.442-.243 3.451.136 5.888 1.593 7.755 1.495.77-.054 2.27-1.869 1.839-2.509-.2-.297-1.142-.292-1.499-.267-1.799.091-4.946-.845-6.745-.94-3.24-.278-5.19-.708-8.362.008-.743.202-1.032 1.601-.485 2.144"/><path d="M85.414 29.9a1 1 0 0 0-1.836.792A36.57 36.57 0 0 1 50 81.7c-.607 0-1.216-.031-1.824-.061 0-.247.01-.5.01-.718a13 13 0 0 1 .155-1.768 6.8 6.8 0 0 0-.015-2.873 17 17 0 0 0-1.178-2.951l11.086-3.459a.85.85 0 0 0 .479-.379 3.28 3.28 0 0 0 .4-3.078 4.06 4.06 0 0 0-2.764-1.991.85.85 0 0 0-.391.011c-20.863 5.544-23.6 3.417-23.844 3.151v-.05C31.219 56.3 28.375 55.253 27.525 55.2h-.053a2.8 2.8 0 0 0-2.119 1.037 3.65 3.65 0 0 0-.325 3.29c.687 2.474-.678 8.325-1.235 10.29-.078.2-.144.384-.217.576a36.56 36.56 0 0 1-6.4-41.329 1 1 0 1 0-1.795-.882 38.57 38.57 0 0 0 7.47 44.329c-3.542 11.579 2.65 15.34 2.927 15.5A23.37 23.37 0 0 0 37.739 91.7a14.47 14.47 0 0 0 9.061-2.873.9.9 0 0 0 .19-.233 4.5 4.5 0 0 0 .552-2.028 4.4 4.4 0 0 1 .144-.933 12 12 0 0 0 .364-2c.65.032 1.3.065 1.95.065A38.57 38.57 0 0 0 85.414 29.9M45.847 86.428a3 3 0 0 1-.27 1.2c-.972.731-7.957 5.444-18.943-1.084-.062-.036-6.168-3.746-1.233-16.18.091-.319 2.221-7.852 1.265-11.292a2.23 2.23 0 0 1 .034-1.8 1.04 1.04 0 0 1 .68-.363c.351.19 2.3 1.65 3.03 10.687a1.62 1.62 0 0 0 .558 1.247c2.185 2.052 10.667 1.141 25.209-2.709a2.3 2.3 0 0 1 1.379.967 1.5 1.5 0 0 1-.156 1.249l-11.768 3.675a.85.85 0 0 0-.452 1.286 14 14 0 0 1 1.52 3.455 5.6 5.6 0 0 1-.041 2.166 15 15 0 0 0-.17 1.994 16.2 16.2 0 0 1-.432 4.231 6 6 0 0 0-.21 1.271"/><path d="M43.354 33.499a6.6 6.6 0 0 0-.618-4.132c-1.179-2.582-4.608-3.13-6.532-1.043a6.92 6.92 0 0 0-1.256 7.866 4.14 4.14 0 0 0 2.986 2.273q.287.046.579.046c2.271 0 4.375-2.119 4.841-5.01m-5.152 3.285a2.49 2.49 0 0 1-1.755-1.4 5.22 5.22 0 0 1 .933-5.837 2.6 2.6 0 0 1 1.786-.8q.159 0 .316.025a2.49 2.49 0 0 1 1.754 1.395c.473.947.627 2.022.439 3.064-.357 2.209-1.916 3.803-3.477 3.553zM60.983 42.065a4 4 0 0 0 .578.046c2.276 0 4.381-2.119 4.842-5.009a6.6 6.6 0 0 0-.618-4.132A4.14 4.14 0 0 0 62.8 30.7c-2.484-.39-4.919 1.829-5.42 4.964s1.12 6.004 3.603 6.401m-1.926-6.137c.329-2.056 1.7-3.579 3.149-3.579a2 2 0 0 1 .325.026 2.49 2.49 0 0 1 1.754 1.395 4.9 4.9 0 0 1 .439 3.063c-.352 2.208-1.906 3.8-3.473 3.553s-2.546-2.249-2.193-4.457Z"/></svg>