<svg xmlns="http://www.w3.org/2000/svg" width="1600" height="1600" viewBox="0 0 1200 1200"><path d="M600 0C440.87 0 288.26 63.215 175.73 175.73 63.21 288.25 0 440.87 0 600s63.215 311.74 175.73 424.27C288.25 1136.79 440.87 1200 600 1200v-75c-139.24 0-272.77-55.312-371.23-153.77S75 739.24 75 600s55.312-272.77 153.77-371.23S460.76 75 600 75s272.77 55.312 371.23 153.77S1125 460.76 1125 600h75a600 600 0 0 0-80.383-300 600.13 600.13 0 0 0-219.62-219.62 600 600 0 0 0-300-80.383z"/><path d="M562.5 584.62 310.88 835.87l52.875 52.875 262.5-262.5a37.5 37.5 0 0 0 11.25-26.25v-412.5h-75zM900 562.5a187.5 187.5 0 0 0-132.58 54.918 187.5 187.5 0 0 0-54.918 132.58h75a112.5 112.5 0 0 1 32.949-79.551 112.503 112.503 0 0 1 159.102 159.102 112.5 112.5 0 0 1-79.551 32.949 37.5 37.5 0 0 0-26.516 10.984 37.49 37.49 0 0 0-10.984 26.516v112.5h75v-78.75a187.49 187.49 0 0 0 149.236-202.593 187.46 187.46 0 0 0-60.875-120.3 187.5 187.5 0 0 0-125.86-48.352zM862.5 1087.5h75v75h-75z"/></svg>