<?xml version="1.0" encoding="UTF-8"?>
<svg width="1200pt" height="1200pt" version="1.1" viewBox="0 0 1200 1200" xmlns="http://www.w3.org/2000/svg">
 <g>
  <path d="m600 0c-159.13 0-311.74 63.215-424.27 175.73-112.52 112.52-175.73 265.14-175.73 424.27s63.215 311.74 175.73 424.27c112.52 112.52 265.14 175.73 424.27 175.73v-75c-139.24 0-272.77-55.312-371.23-153.77s-153.77-231.99-153.77-371.23 55.312-272.77 153.77-371.23 231.99-153.77 371.23-153.77 272.77 55.312 371.23 153.77 153.77 231.99 153.77 371.23h75c0-105.32-27.723-208.79-80.383-300-52.664-91.211-128.41-166.95-219.62-219.62-91.211-52.66-194.68-80.383-300-80.383z"/>
  <path d="m562.5 584.62-251.62 251.25 52.875 52.875 262.5-262.5c7.0664-6.9219 11.109-16.359 11.25-26.25v-412.5h-75z"/>
  <path d="m900 562.5c-49.727 0-97.418 19.754-132.58 54.918-35.164 35.164-54.918 82.855-54.918 132.58h75c0-29.836 11.852-58.453 32.949-79.551 21.098-21.098 49.715-32.949 79.551-32.949s58.453 11.852 79.551 32.949c21.098 21.098 32.949 49.715 32.949 79.551s-11.852 58.453-32.949 79.551c-21.098 21.098-49.715 32.949-79.551 32.949-9.9453 0-19.484 3.9492-26.516 10.984-7.0352 7.0312-10.984 16.57-10.984 26.516v112.5h75v-78.75c45.566-9.2539 86.074-35.109 113.65-72.543 27.578-37.438 40.262-83.789 35.586-130.05-4.6719-46.262-26.367-89.141-60.875-120.3-34.508-31.168-79.363-48.398-125.86-48.352z"/>
  <path d="m862.5 1087.5h75v75h-75z"/>
 </g>
</svg>
