<svg xmlns="http://www.w3.org/2000/svg" width="1600" height="1600" viewBox="0 0 1200 1200"><path d="m1130.2 576.75-55.875-85.125 13.5-100.88c1.875-16.5-6-33.375-20.25-42l-87.375-52.5-31.5-96.75c-5.25-16.125-19.875-27.375-36.375-29.25l-101.25-9.375-70.5-73.125c-12-12.375-29.625-16.5-45.375-10.5l-95.25 36L504.7 77.62c-15.75-6-33.75-1.875-45.375 10.5l-70.5 73.125-101.25 9.375c-16.875 1.875-31.125 13.125-36.375 29.25l-31.875 96.75-87 52.125c-14.625 8.625-22.5 25.125-20.25 42l13.5 100.88L69.7 576.75c-9 14.25-9 32.25 0 46.5l55.875 85.125-13.5 100.5c-2.25 16.875 5.625 33.375 20.25 42l87 52.5 31.5 96.75c5.25 16.125 19.5 27.375 36.375 28.875l101.25 9.75 70.5 73.125c12 12 29.625 16.5 45.375 10.5l95.625-35.625 95.25 35.625c4.875 1.875 9.75 2.625 14.625 2.625 11.25 0 22.5-4.5 30.75-13.125l70.5-73.125 101.25-9.375c16.5-1.875 31.125-13.125 36.375-29.25l31.5-96.75 87.375-52.5c14.25-8.625 22.5-25.125 20.25-42l-13.5-100.88 55.875-85.125c9.375-13.875 9.375-31.875 0-46.125zm-292.88-84L562.44 767.63c-7.875 7.875-18.75 12-30 12-10.875 0-22.125-4.125-30-12L362.56 627.75c-16.5-16.5-16.5-43.125 0-60 16.5-16.5 43.5-16.5 60 0l109.88 109.88 244.5-244.5c16.5-16.5 43.5-16.5 60.375 0 16.5 16.125 16.5 43.125 0 59.625z"/></svg>