<?xml version="1.0" encoding="UTF-8"?>
<svg id="Layer_1" xmlns="http://www.w3.org/2000/svg" version="1.1" viewBox="0 0 1024 1024">
  <!-- Generator: Adobe Illustrator 29.7.1, SVG Export Plug-In . SVG Version: 2.1.1 Build 8)  -->
  <path d="M513,486.01l-.98,2.5-50.05,51.02c-13.01-1.69-23.86-5.43-37.21-3.29s-23.72,8.43-33.28,16.72c-23.22,20.15-46.22,46.95-67.94,69.08-17.13,17.46-37.57,34.99-53.56,53.42-58.49,67.43,29.12,157.09,100.04,95.04,39.8-34.83,77.88-79.31,116.46-116.54,12-11.58,24.25-23.18,36.51-34.49,14.91-13.75,30.39-26.97,45.52-40.48,1.32,2.4,2.02,5.89,2.37,8.62,5.37,41.59-11.42,86.04-38.85,116.9-40.19,36.61-76.54,81.13-117.01,116.99-99.43,88.09-251.64,9.27-227.7-124.7,6.48-36.27,24.23-59.43,48.66-85.34,32.24-34.19,70.41-73.52,105.01-104.99,35.19-32,76.31-46.82,124.2-38.17,17.1,3.09,32.44,10.03,47.81,17.7Z"/>
  <path d="M724.21,423.22c18.06.29,33.63-5.67,47.27-17.24,39.28-33.32,75.72-78.96,113.34-114.66,42.25-70.48-38.91-140.24-102.34-84.34-24,21.15-47.4,48.15-69.93,71.07-24.93,25.36-53.89,46.43-65.5,81.5l-55.56,46.45c-2.16.37-1.15-.44-1.57-1.38-46.06-103.22,92.02-186.58,147.56-252.64,97.44-85.58,248.87-4.25,228.25,124.25-11.4,71.08-105.35,128.71-148.71,182.29-39.29,37.65-98.03,52.35-148.02,26.97l55.21-62.26Z"/>
  <path d="M693.76,342.27c13.91-1.89,29.37,9.91,36.04,21.44,15.68,27.1-8.5,41.47-24.83,58.77s-31.86,34.14-47.95,51.05c-1.67,1.75-4.95,5.91-7.28,5.33-19.65-12.47-36.82-29.09-48.5-49.37l79.75-81c3.7-3,7.95-5.57,12.77-6.22Z"/>
  <path d="M531.58,501.05c.73-.17,7.3,7.18,8.39,8.48,10.72,12.78,17.7,27.44,24.62,42.47l-.05,2.96c-11.36,11.66-23.22,22.84-34.56,34.51s-33.1,38.42-45.06,45.94c-22.57,14.18-52.98-5.56-49.8-31.8,1.93-15.93,34.49-41.76,46.42-53.58,16.56-16.43,32.53-33.62,50.06-48.98Z"/>
  <path d="M622.71,628.22c8.3-1.91,16.27,2.56,17.32,11.26,3.02,25.1-2.25,56.21-.09,81.96-4.03,15.17-24.12,13.93-25.94-1.93,2.06-25.05-2.75-54.48,0-79,.53-4.7,3.7-11.13,8.71-12.28Z"/>
  <path d="M507.73,230.22c6.94-1.41,14.68,2.79,15.29,10.25l-.08,85.97c-5.02,13.88-23.34,11.05-24.95-3.94-2.74-25.56,2-55.87.07-81.94.7-4.52,5.18-9.43,9.67-10.34Z"/>
  <path d="M407.73,266.23c7.07-1.43,10.35.99,14.78,5.76,17.04,18.32,30.55,45.49,47.34,64.65,5.27,11.32-3.08,19.8-14.93,16.93-3.68-.89-7.87-5.73-10.35-8.65-12.37-14.59-27.56-36.5-38.4-52.6-3.16-4.7-7.67-9.81-7.25-15.8.33-4.72,4.16-9.35,8.79-10.28Z"/>
  <path d="M674.76,605.22c6.32-.93,9.83,2.49,13.75,6.77,16.38,17.84,29.34,43.06,45.31,61.69,8.78,15.92-8.01,26.81-19.86,14.86-12.58-21.36-36.49-44.06-47.79-65.21-4.31-8.07-.61-16.77,8.59-18.12Z"/>
  <path d="M354.71,357.21c2.5-.57,6-.38,8.56.03,21.99,3.55,47.83,16.53,70.44,20.56,13.57,6,10.56,24.98-7.1,23.09-21.09-2.26-49.41-17.19-71.31-20.69-10.99-3.03-11.19-20.56-.59-22.99Z"/>
  <path d="M703.48,561.54c3.22-.11,7.32,1.2,10.51,1.97,22.02,5.3,44.2,14.14,66.27,19.73,11.97,7,7.8,24-6.64,22.68l-73.01-22.03c-11.6-4.38-9.73-21.9,2.86-22.34Z"/>
</svg>