<svg xmlns="http://www.w3.org/2000/svg" width="1600" height="1600" viewBox="0 0 1200 1200"><path d="M999.96 840c-24-26.762-49.922-51.961-75.238-77.398-18.84-18.84-39.602-36-57-55.922-46.441-53.879-91.68-109.08-138.48-165h-.004a36.5 36.5 0 0 1 1.922-4.32A2233 2233 0 0 1 909.12 334.2c9.48-9.36 19.559-18.238 28.441-27.961 19.922-21.961 21.121-36.602 1.2-57.36a271.6 271.6 0 0 0-53.403-44.878c-38.879-24-82.68-36-125.76-50.641h.004a15.836 15.836 0 0 0-19.68 7.562c-17.038 23.16-35.038 45.602-53.16 67.922-36 44.398-72 88.441-108 132.72v-.004a104 104 0 0 0-6.242 9.364C516 309.842 465.6 248.404 409.08 192.004a147.6 147.6 0 0 0-27.84 17.762c-18.719 19.922-36 40.8-53.879 61.8-13.559 16.2-26.398 33-39.602 49.442-13.199 16.44-25.32 29.879-37.078 45.359-13.078 17.398-12 27.48 3.72 43.078a975 975 0 0 0 111.72 100.32c21.96 15.719 41.28 35.039 62.038 53.16-56.16 85.797-108.84 171.48-173.4 248.52-30.238 36-58.078 73.922-86.52 111.24-12 16.199-12 26.64 2.762 41.52h-.004a169 169 0 0 0 25.078 21.12 738.8 738.8 0 0 1 112.56 92.04 113 113 0 0 0 20.758 13.68 285 285 0 0 1 18.602-35.04 59467 59467 0 0 1 230.76-320.52c3.238-4.44 6.719-8.398 10.68-13.198 4.078 3.601 7.559 6.601 10.922 9.84l115.2 117.24q48 48.596 96 96.96c18.602 18.84 26.762 18.84 49.2 6.602a3145 3145 0 0 1 128.4-67.082c26.038-12.961 30.84-24.36 10.8-45.84z"/></svg>