<?xml version="1.0" encoding="UTF-8"?>
<svg width="1200pt" height="1200pt" version="1.1" viewBox="0 0 1200 1200" xmlns="http://www.w3.org/2000/svg">
 <path d="m999.96 840c-24-26.762-49.922-51.961-75.238-77.398-18.84-18.84-39.602-36-57-55.922-46.441-53.879-91.68-109.08-138.48-165h-0.003907c0.54688-1.4805 1.1875-2.9219 1.9219-4.3203 55.168-71.246 114.59-139.09 177.96-203.16 9.4805-9.3594 19.559-18.238 28.441-27.961 19.922-21.961 21.121-36.602 1.1992-57.359-15.797-17.191-33.746-32.277-53.402-44.879-38.879-24-82.68-36-125.76-50.641h0.003906c-3.6367-1.375-7.6523-1.3633-11.281 0.03125-3.6289 1.3945-6.6211 4.0742-8.3984 7.5312-17.039 23.16-35.039 45.602-53.16 67.922-36 44.398-72 88.441-108 132.72v-0.003906c-2.25 3.0078-4.332 6.1328-6.2422 9.3633-56.52-61.082-106.92-122.52-163.44-178.92-9.9141 4.8594-19.25 10.816-27.84 17.762-18.719 19.922-36 40.801-53.879 61.801-13.559 16.199-26.398 33-39.602 49.441-13.199 16.441-25.32 29.879-37.078 45.359-13.078 17.398-12 27.48 3.7188 43.078 34.605 36.262 71.957 69.801 111.72 100.32 21.961 15.719 41.281 35.039 62.039 53.16-56.16 85.797-108.84 171.48-173.4 248.52-30.238 36-58.078 73.922-86.52 111.24-12 16.199-12 26.641 2.7617 41.52h-0.003906c7.6562 7.8359 16.055 14.91 25.078 21.121 40.457 26.906 78.16 57.734 112.56 92.039 6.3945 5.3086 13.359 9.8984 20.758 13.68 5.3789-12.098 11.594-23.805 18.602-35.039 76.641-107.2 153.56-214.04 230.76-320.52 3.2383-4.4414 6.7188-8.3984 10.68-13.199 4.0781 3.6016 7.5586 6.6016 10.922 9.8398l115.2 117.24c32 32.398 64 64.719 96 96.961 18.602 18.84 26.762 18.84 49.199 6.6016 42.16-23.281 84.957-45.641 128.4-67.082 26.039-12.961 30.84-24.359 10.801-45.84z"/>
</svg>
