<svg xmlns="http://www.w3.org/2000/svg" xmlns:v="https://vecta.io/nano" viewBox="231 61 576 845"><!--oldViewBox="0 0 1024 1024"--><style>.B{fill:#010100}.C{fill:#fcfbfc}.D{fill:#fff}.E{fill:#0d0d0d}.F{fill:#f5f4f5}.G{fill:#191919}</style><path d="M712 289c2 1 3 2 4 5h0c1 1 2 2 2 3-2 2-4 5-5 8l-1-2c2-5 1-9 0-14zm53 28h1v2l2-2h0c0 5-2 10-4 15v-1 1h-1v-2c1-5 1-9 2-13z" class="E"></path><path d="M578 242c2-1 6 0 9 0-1 1-2 0-4 0l1 1h1v1c-2 2 0 5-1 7h-1-1s-1 0-2 1h0c-1-1-1 0-1-1 0-2-1-6 0-8h0l-1-1z" class="C"></path><path d="M413 457h0c6-6 9-12 12-19 0 2-1 5-1 7-3 8-10 16-16 21h0c0-1 4-4 5-6h0c-1 1-4 4-6 5 1-2 3-3 4-5 1-1 1-2 2-3z" class="B"></path><path d="M746 255c3 3 7 8 9 12 1 0 2 2 2 2l-1 2c3 6 6 12 8 19h0c-2-1-2-3-3-4-1-3-2-7-4-10l-1 1c0-1-3-6-3-7l-9-12h1l5 6s0 1 1 2c0-1-1-2 0-4l-2-2c-1-1-2-3-3-4v-1zm-58 198c9-2 16-5 22-11 2-2 4-5 7-7-2 6-5 11-7 17h0 0v-2l-20 4-2-1zm-3 123v-1c-8-8-9-17-9-28 2 7 5 18 11 24h0l2 2c-2 1 0 0-1 1-1 0-2 1-3 2zM421 305c-1 2-2 8-3 10-1 6-4 12-7 18 1-3 2-7 2-11 1-8 2-17 2-25l8 8h-2z" class="E"></path><path d="M756 277l1-1c2 3 3 7 4 10 1 1 1 3 3 4h0c-2-7-5-13-8-19l1-2c6 11 10 23 11 34 1 4 1 10 0 14h0l-2 2v-2h-1c1-15-3-27-9-40z" class="G"></path><path d="M374 157l1 15c-2 2-5 4-7 6-1 2-2 4-4 6s-6 3-10 4c-3 0-7 0-11 1l1-1c3-1 6-2 9-4 8-6 18-14 20-24 0-1 0-2 1-3h0zm269 327c13 11 21 28 25 44l-1-1c-3-5-5-10-9-15-3-4-7-8-11-12-1-1-3-3-3-4-1-4-1-9-1-12zm-60-53c3 2 3 7 5 10 3 6 7 12 12 16l9 8c-1 3-3 5-5 7l-8-7c-9-9-13-17-15-28l1 3c2 4 5 8 7 11-2-6-4-13-6-20z" class="B"></path><path d="M257 284h2c1-2 1-4 2-5 1 1 0 2 1 4-7 18-9 38 0 56 6 12 14 21 26 27 1 2 3 3 5 4 1 1 1 1 2 1v1 1l-4-2c-16-7-29-24-35-40-5-14-5-33 1-47z" class="G"></path><path d="M691 269c1 1 3 1 4 2 6 4 11 11 12 18 1 2 2 7 0 9-2 1-4 0-7 0l-10-1v-15h9c-3-1-6-1-9-1 0-3-1-9 1-12zm-7-81c-4 0-10-3-13-5-6-5-12-10-16-17-3-5-4-10-6-15 0-3-1-6-2-9 0-3 1-5 2-7 0 3 1 7 4 9 1 2 1 2 3 2 4-5 10-14 10-21 0-3-1-5-3-7-4-5-10-5-16-5 5-1 9-2 14-1 4 2 8 5 10 9 5 10-1 18-8 26-2 2-4 4-5 7-1 4 1 10 3 13 6 11 14 16 26 20h0 1c-1 1-3 0-4 1z" class="E"></path><path d="M402 290c3 1 5 2 8 4 2 10 2 19 0 29-2 9-7 17-9 25-1 5-1 11-1 16v1h0l-1-3-9-18c-1-5-2-10 0-14 2-5 8-6 12-7 2-8 5-16 3-25 0-3-2-6-3-8z" class="B"></path><path d="M408 466c-1 1-2 3-3 4l-9 8c-12 11-24 23-34 36-4 4-7 10-9 16 0-4 3-10 4-14 3-8 6-15 11-22 4-5 8-9 13-14 16-14 32-27 41-47l1-2v-1c-1 7-3 15-6 20-1 2-3 4-4 6v1c-1 1-1 2-2 3-1 2-3 3-4 5 2-1 5-4 6-5h0c-1 2-5 5-5 6zm-76-278h1c4 1 11-4 14-6 7-4 14-13 15-20 1-3 2-6 1-8-2-6-9-11-12-17-3-4-3-9-2-13s4-8 8-10c6-3 11-3 17-1-4 0-7 0-11 1-3 2-6 4-7 7-2 4 0 8 1 11s6 13 9 14c1 0 1-1 2-2 3-3 4-6 4-10v-1c1 2 2 4 2 7 1 3-1 8-2 12 1 1 2 2 2 4v1h0c-1 1-1 2-1 3-2 10-12 18-20 24-3 2-6 3-9 4l-1 1-1 1h3l-21 1c2-1 5-1 8-2l-1-1h1z" class="E"></path><path d="M372 152c1 1 2 2 2 4v1h0c-1 1-1 2-1 3-2 10-12 18-20 24-3 2-6 3-9 4l-1 1-1 1h3l-21 1c2-1 5-1 8-2 6 0 12-2 17-5 12-8 20-18 23-32z" class="F"></path><path d="M712 289c-4-10-8-18-17-24 5-1 10-2 15-1l2 1c0-2 0-2-1-3-1-2-3-2-5-2s-4 0-6 1c-3 1-6 3-9 2-2-2-1-6-1-9 13 0 23-1 33 8 3 3 5 6 6 10 0 9-5 18-11 25 0-1-1-2-2-3h0c-1-3-2-4-4-5zm-61 90h1c2 2 3 7 3 10-2 0-4 1-6 2-5 3-7 7-8 13 2-3 5-9 9-9 2-1 5-1 7 1h0c-2 7-11 12-17 16 7-2 13-3 18-8l1-1v8l-1 2c-2 1-5 1-8 1-1 1-1 1-2 1 2 1 7 0 9-1h2v4c-8 1-18 1-24-3-4-2-8-5-9-9s1-8 3-11c4-8 13-14 22-16zm84 51c5-2 9-5 13-7h0c-2 5-8 10-12 12-5 1-11 0-15-2-6-3-11-8-13-15-2-6-2-13 1-19l9-18c1-2 2-4 3-5s2-2 3-2v1l-2 2c-2 10 3 19 3 29 1 5-1 9 0 14 1 4 3 6 6 8 2 0 2 1 4 2z" class="B"></path><path d="M735 430c-2 0-5 0-7-1-4-1-6-4-8-8-4-9-6-23-3-33 1 2 1 4 2 5 0 3 1 5 1 8 1 8 0 16 4 23 2 1 4 3 6 4h1c2 0 2 1 4 2z" class="F"></path><path d="M295 372c2 1 3 1 4 3 2 1 3 3 4 5l7 14c4 8 7 15 4 24-3 6-7 12-14 15-5 2-10 3-15 1-4-1-7-4-10-7 0-2-2-3-2-4 4 2 7 5 12 6 0-1 1-1 2-1h1c1-1 1-1 2-1 2-1 4-2 5-4 3-5 0-12 1-17 1-9 6-20 3-29-1-2-2-3-4-4v-1z" class="E"></path><path d="M290 427h1c2 0 5-2 6-4s2-5 2-7c1-5 2-26 5-28 4 6 1 19-1 25-1 6-3 12-8 15-3 2-7 2-10 1h0c0-1 1-1 2-1h1c1-1 1-1 2-1z" class="F"></path><path d="M569 319l8 2v91 26c0 2-1 6 0 8 0 2 2 4 3 5 5 7 11 13 17 19 2 1 5 4 5 6l-2 2-3 3c-3-3-7-6-10-9l-15-14c-1-1-3-3-3-4-1-2 0-7 0-9l-1-23 1-103zm49 19c7 4 13 9 18 15-5 3-9 6-13 10 0 3 1 6 1 9 5-6 10-11 15-16 2 3 6 7 7 10 1 1-7 8-9 9-8 7-14 15-19 24-3 9-3 17-4 26l-1 20c0-10-2-20-4-30-1-9-1-18-1-27 0-10-1-19 2-29 2-7 5-14 8-21zm145-8v2h1v-1 1c-1 6-5 11-8 16-7 10-15 18-25 23-2 0-4 2-6 2s-5 1-7 2-4 4-5 5c-4 6-7 12-9 18-2 7-2 16 1 23 2 4 5 8 7 12l-2 4c-3 3-6 7-11 7l-2-2h-1l-2 3c-1 2-2 2-3 3-4 1-9 1-13-1-2-1-4-3-5-5v-4c3-4 9-5 13-6 1 2 1 3 3 4h0c0-4 0-6 3-9 1-1 3-3 3-5 0-1 0 0-1-1s-3-1-4-1v-14c3 5 7 9 12 11-4-6-11-13-12-20 0-4 4-7 6-10-2 0-4 1-6 0v-10c16-2 33-5 47-13 13-7 22-20 26-34zm-178-87h1c11 1 23 0 35 0h57c13 1 29 0 42 4 8 3 17 9 22 16 3 4 6 8 5 12 0 6-3 12-7 16-3 3-7 5-10 6 4-7 5-15 3-23-1-7-8-15-14-18-4-3-8-3-13-4-10-1-21 0-31 0h-68c-1 0-5 0-6-1v-2h-2c-1 1-1 2-1 2-4 2-9 1-13 1v-8-1zm-162 62c1 3 1 6 1 9v22 37c0 15 1 31 0 46-2 12-9 22-17 31a120.94 120.94 0 0 1-16 16l-9 7c1-2 4-4 6-6 1-2 2-4 4-6 4-7 9-12 13-19 6-12 9-26 10-39v-11-3c-1 1-1 0-1 1 1 4 0 8 0 12-1 14-4 27-10 39-2 5-6 10-9 14-2 2-4 4-5 6-2 2-3 5-5 7v-1c2-3 3-6 5-10 1-4 3-8 4-13 2-8 3-17 5-26 1-9 3-18 3-27v-14c0-3-1-7 0-10 0-1 0-1 1-2 2 4 3 7 4 11l1-8h3c4 2 7 8 9 11-2-5-4-9-5-15-1-3-1-6-2-10-1 2-2 4-4 6l-2-2c-4-5 5-19 7-24 2-3 3-6 4-9 2-7 2-14 3-20h2z" class="B"></path><path d="M390 457s1-1 2-1c0-1 1-2 2-3l4-8 5-8v-2c1-3 3-6 3-8l2-7c1-2 1-5 1-7 1-5 1-11 1-16 0-1-1-4 0-5v3c1 1 1 4 1 6 1-2 1-7 0-8v-3-1c0-2 1-5 0-7v-2h1v1c1 1 1 2 2 2v1 2c1 1 1 2 1 3-1 1-1 0-1 1 1 4 0 8 0 12-1 14-4 27-10 39-2 5-6 10-9 14-2 2-4 4-5 6-2 2-3 5-5 7v-1c2-3 3-6 5-10z" class="G"></path><path d="M581 323h1c1 0 3 0 4 1s3 5 4 7c3 7 8 13 9 20 1 3 1 6-1 8v1c-2-2-3-4-5-6 0 3 0 6-1 9-2 6-5 11-6 17 2-4 5-10 10-12 1-1 1-1 2 0 1 2 2 5 2 8 1-5 2-8 4-12l1-1c4-8-4-27-7-35 6 3 13 6 19 10-1 3-3 6-4 9-2 6-4 11-7 16-2 2-1 7-2 10 0 17 2 33 5 50l3 22c0 3 1 5 0 8 0 1 0 1-1 2-13-20-21-43-19-68h0 0c-2 5-1 11-1 16 1 14 5 26 11 38 3 5 6 11 9 16 0 2 0 3-1 4-2-1-9-9-11-11-7-7-13-15-16-25-2-9-1-19-1-29v-40l-1-22v-11zm-293 43c12 5 24 8 37 10 6 1 12 1 18 2 14 1 30 7 36 21 1 3 1 5 0 8-2 5-7 9-11 10-6 2-12 2-18 3l-14 1c-3 0-9-2-11 0 0 2 0 2 1 4 3 3 5 3 6 7v6 1c2-2 2-4 3-5s5-1 7 0c2 0 5 2 7 4v4c-1 2-3 5-6 6s-8 1-12 0c-2-1-3-2-5-5l-1-1c-2 1-2 3-5 1-5-1-9-5-11-10h0c6-11 12-20 9-33-2-8-8-21-15-26-2-1-6-2-8-3-1 0-1 0-2-1-2-1-4-2-5-4z" class="B"></path><path d="M350 399h0l1 2c3 3 6 4 9 6 2 1 3 2 4 3h-2c-4 0-8-1-12-4-1-1-3-2-3-4 0-1 1-2 3-3z" class="C"></path><path d="M324 387c9 0 22-1 31 3 6 2 8 6 11 12-1-1-1-1-2-1-1-2-3-4-5-5-4-2-14-2-18-1-1 1-3 3-3 4-1 2 0 4 1 6 3 6 8 8 14 10h9l-5 2c-6 1-11 0-16-4-4-3-6-5-6-10h0c-4 5-8 11-14 13h0c2-5 11-13 10-19 0-4-4-7-7-10z" class="D"></path><path d="M713 305c0 2 0 2 1 3 6 0 15-2 20-5 6-2 13-9 15-16h1c1-4 1-9 0-13v-1c6 9 9 24 9 35 0 18-3 33-15 45-15 15-35 16-54 16v-27c1 2 3 4 5 6 4 3 10 5 16 4 1-1 1-2 1-3-3-3-8-2-11-4-4-2-7-6-8-10-2-7-2-14-2-21-1-2-2-8-1-10 6 1 11 2 17 4 2-1 3-3 5-5l1 2z" class="B"></path><path d="M738 309h1c6 5 8 17 10 24-4-5-8-9-14-12 2 11-1 24-7 34-3 5-8 5-13 6l1-2v-1c2-7 0-16-4-22-4-7-10-8-17-10 3-1 7 0 9 0l1 1c3 0 5 2 8 3l1 1-1-1c-1-4-3-7-7-9-2 0-2-1-3-1 2 0 4 1 7 2 9 4 10 14 12 23 0 2 0 4 1 6 1-3-1-7 0-9h1v6h0c3-5 5-10 7-16v-1c1-4 0-8-1-12v-1c0-2-3-5-4-7 3 1 7 1 10 3h1c2 1 4 3 6 5-2-3-3-7-5-10z" class="C"></path><path d="M692 494c-2-10-8-22-16-29-9-8-19-14-28-22-1-2-4-4-4-6-1-3 1-7 0-9 0-1-1-1-2-2 0-1 0-1 1-1 0-1 14-2 16-2h0v3c2 2 4 1 6 1l13 1c3 0 6-1 8 1v1c-2-1-3-1-6-1-4 0-8 0-10 3-2 2-3 4-3 7 0 4 3 8 6 11 5 4 10 3 15 3l2 1 20-4v2h0 0c4 1 10 1 13 1-1 2-2 5-2 8-1 13 0 27 0 40v30c0 4-1 11 0 14s4 5 6 6c-4 7-7 13-8 21-2 11-1 24-2 35l-5 103-15-46-25-74-10-32c-1-4-3-8-3-12l-3-14c-2-5-4-9-7-13-1-2-4-4-5-5v-4-9c3 4 7 8 10 13 4 5 8 12 11 18 6 15 8 30 13 45 1 1 1 0 1 1l1-1c0-1 0-1 1-1 4 3 8 6 13 9l-2-2c-2-3-4-5-7-7 1-1 2-2 3-2 1-1-1 0 1-1l-2-2c-1-5-4-9-6-15s-3-13-5-20c-2-9-5-19-10-28-3-6-7-12-11-18-2-2-11-12-11-14-1-3 0-6 0-9l-1-22c5 4 10 9 15 12 6 4 12 7 17 11 1 1 3 2 3 4 0 1-1 3-2 4-3 0-7-4-9-6l-11-7c3 3 7 7 8 10 0 0 0 2 1 3v4c1 1 4 4 6 5l-2-4c0-1-1-3 0-4 6 3 11 9 15 14l-2-13c4 5 7 10 9 17l1-1z" class="B"></path><path d="M662 429l3-1v1c-1 3-5 6-7 10h0l-1 1h0c-1-3-1-6-1-8 2-2 4-3 6-3z" class="D"></path><path d="M707 666v-1-3c-1-6-1-12-1-19 0-4 0-9 1-13 0 2 0 4 1 6v35-2-1c-1-1-1-1-1-2z" class="C"></path><path d="M691 495l1-1c1 5 2 11 2 16 0 4 0 8 1 11s1 6 0 9l-2 1c1-12 0-25-2-36zm-1-41l20-4v2c-3 2-7 3-11 3h-1c-3 1-9 1-12 0 1-1 2-1 4-1zm20 93c1 1 0 1 1 2 1 0 0 0 1-1v-2h0c1 1 1 2 1 3l-1 1h0c0 1-1 2-2 4h0c-4 3-7 11-8 16v-6c1-6 2-11 7-15 1 0 1-1 1-2zm-5-22c1 2 1 6 0 9h0c0 2-1 5-1 8l-6 19c-1-6 2-14 3-20l4-16z" class="F"></path><path d="M707 630v-18c-2-18-6-37 7-52-3 5-5 10-6 16-3 20 2 40 0 60-1-2-1-4-1-6z" class="D"></path><path d="M680 577c1 3 2 7 3 10 2 3 5 6 7 9 3 5 6 9 8 15 1 2 1 4 1 6v-1c-2-6-5-11-10-16l11 47 6 27c1 3 1 6 2 8 0-7-2-16-4-23 0-4-2-7-2-11h0c1 2 1 4 2 5 1 4 2 8 3 13 0 1 0 1 1 2v1 2l1 22-31-116c1 1 1 0 1 1l1-1z" class="F"></path><g class="C"><path d="M695 530c-1 8-1 16-2 24 0 6-1 12 1 18 1 6 4 11 6 16 6 12 6 27 6 40-2-3-1-9-1-12l-3-18c-1-4-2-7-4-10-2-5-6-8-7-13-1-3-1-7-2-10-1-5-3-10-3-15-1-8-1-16-2-24l-1-3c4 12 5 25 6 38l1-4c0-13 0-26-4-38-2-8-7-15-12-21-3-4-8-7-11-11 3 1 6 4 9 6 10 9 17 18 19 32v8c1 2 0 4 1 6l1-8 2-1z"></path><path d="M705 525c1-17 0-33-1-49-2 5-1 9-1 14-2-6-4-13-8-18-2-4-5-6-8-9-1-2-3-3-3-5h1c5 2 11 8 14 12l16-12c-3 5-4 9-5 14-2 14-1 29-1 43 1 7 0 17 2 24 2 5 5 8 9 11-6 4-10 8-14 14 1-4 2-7 4-10h0c1-2 2-3 2-4h0l1-1c0-1 0-2-1-3h0v2c-1 1 0 1-1 1-1-1 0-1-1-2-2-3-4-9-5-13 1-3 1-7 0-9z"></path></g><path d="M313 675c-1 6-1 12-1 18l13-47 8-34 13-42c1-6 2-12 4-18 3-13 7-25 14-36 5-7 12-14 18-20l29-28 14-15c1-1 4-4 4-6 1-1 1-3 0-4v-8-38-86l8 14c0 1 0 3 1 5l-1 91v23c0 3 1 7 0 10 0 0-1 1-1 2-2 3-6 6-9 8-14 14-29 27-43 42-7 7-13 14-17 22-3 5-3 12-4 17-1 4-2 7-3 11l-33 100c-6 17-11 36-18 53l-4-99c-1-12 0-25-2-37-2-8-4-15-8-22 2-2 4-3 6-6 1-3 1-9 1-12l-1-23v-29c0-7 1-14 0-21 0-3-1-5-2-8h12c-2-6-5-11-6-17 3 3 5 7 8 9 7 6 18 10 26 9 5 0 9-2 12-6 3-3 4-6 3-10 0-1-1-3-2-4-3-4-8-4-13-3-2 0-4 0-5-1v-1c6-6 29-3 37-5 4-1 8-3 12-5 0 4 0 8-2 11-4 13-15 21-26 28l-13 10c-5 5-7 11-9 17-2 5-4 11-5 16-4 23 1 47 1 70h0 1c0-1 0-2 1-3 0-1 0-2 1-3h0c1-8 0-16 0-24 0-12 2-24 9-34 5-8 12-14 18-20-4 2-7 5-11 8-7 6-12 12-15 21-3 8-2 15-3 23-2-14-3-28 0-42 1-6 5-12 9-17l-1 11c3-4 9-10 14-12-1 2-1 4-2 7 1-2 4-3 5-5 1-3 0-6 2-8 2-3 5-5 7-8l-9 6c-3 2-7 6-11 6 0-1-1-2-1-3 1-4 3-5 6-7 9-6 18-11 26-19 5-5 9-10 11-17 1-4 1-8 1-12 4 13 1 29-3 42 0-1 0-4-1-5-1-2-3-4-5-6 1 2 1 3 2 5 2 3 3 6 2 10-3 10-10 17-16 25-4 5-7 11-10 17-4 9-8 19-10 29-2 4-2 9-3 13-2 9-6 17-10 25h1c5-9 9-16 11-26 1 10 0 20-7 28-4 3-8 6-11 10 5-3 10-6 15-10-1 4-2 8-4 11-2 5-6 10-9 14-4 6-6 12-7 18h0v-1c1-2 2-5 3-7 2-4 5-8 8-11-4 11-6 21-9 32l-3 14-4 20c0 3 0 6-1 8l2-15c0-3 1-7 1-10-2 5-3 10-3 15-1 3-1 6-2 9 0 1-1 2-1 3z" class="B"></path><path d="M365 428v1l1 13-3-4-5-8 7-2z" class="D"></path><path d="M312 449c2-1 20 6 24 7-6 0-17-1-22-4-2 0-2-1-2-3zm1 166l1 1c0 7 1 14 1 21l-1 23v9c0 1-1 2 0 3 0 1-1 2-1 3-1-4 0-10 0-15v-28-17z" class="C"></path><path d="M313 615c1-18 4-37-5-54h1c4 6 7 12 8 19 1 3 0 6 0 10l-3 26-1-1zm19-51h0c3-13 1-28 6-41l-2 23c-1 9-2 19-5 28s-10 16-12 24c-2 7-2 14-3 21 0 3 1 8-1 11 0-14 0-28 6-41 3-6 6-12 8-19h0 1c0-1 0-2 1-3 0-1 0-2 1-3z" class="F"></path><path d="M336 458h1c0 2-9 11-11 14-4 6-6 14-8 20v-15c-1 3-1 8-1 11-1 18 0 36 4 54 1 6 4 13 4 20-3-7-6-15-7-22-1-4-1-8-2-12-1 7-2 13-5 19 2 2 4 4 6 7h0c2 5 2 8 2 13-1-3-1-5-2-7-2-4-4-6-7-9 3 5 5 10 7 15-5-7-8-11-15-16 3-3 6-6 7-9 4-8 3-18 3-26 1-14 1-28 0-42-1-5-3-10-5-15l16 11c3-4 8-8 13-11z" class="D"></path><path d="M290 267c-1 1-2 4-2 5-2 5-2 14 1 20l3 6c-5-2-10-5-13-9-4-4-7-10-6-16 0-5 6-11 10-15 6-5 14-9 22-11 9-3 20-3 29-3l42-1c15 0 30-1 45 1v8c-4 0-11 1-14-1 0-1 0-1-1-2h-2c0 1-1 1-1 2h0c-4 1-8 1-11 0-1 2-5 13-6 13h-4c-6 1-13 2-18 6-2 1-6 4-6 7l1 1 1 1c3-1 7-4 10-5 4-2 9-3 13-4-2 7-6 15-8 23v9c-2-2-3-5-4-7-2-3-5-5-8-8-9-9-20-11-33-10 10 2 20 5 27 12 9 8 17 21 17 33 0 6-1 11-5 15-1 1-3 2-4 2-1-2 4-10 5-12 1-4 1-9 0-13-2-10-9-20-18-26s-20-8-31-6c13 1 24 4 35 13 6 5 10 14 11 22 0 8-3 14-8 20 0-2 1-4 1-6 1-2 0-2-1-3-4 1-9 9-11 12 6 6 11 7 19 7l-6 6c9 4 13 11 20 18 1-3 2-6 2-9-4-5-12-9-18-12 5-3 10-7 12-12 6-11 2-24-1-35 1-1 2-3 2-4l1-1c2 3 4 6 8 7 3 2 7 1 10-1 2-1 2-2 3-3l-1-1h0c-3 1-7 2-9 0-2 0-4-2-4-4-1-3 1-7 3-10h1c2 0 8 1 9 3h1l1 2c3 5 5 13 3 19v1c-2 7-11 8-16 14-1 2-1 4-1 7 0 12 8 22 10 33v1c3 22 1 44-3 66-1 7-2 15-5 22h-1c3-10 4-21 3-30 0-6 0-12-1-17-3-13-11-23-21-32-7-5-15-11-22-17-3-3-6-6-8-10v-1c-1-3-1-7-1-10-2 5-3 8-3 14 0 8 5 13 11 18-10 0-20 1-29 0-10 0-18-2-27-7-11-6-21-16-25-29-5-15-4-32 0-47 1-4 2-8 4-11 1 2 0 4 1 7 0 4 2 8 5 11 6 8 19 14 29 15 2 0 2 0 3-1 2-6-6-12-9-17-3-4-5-9-6-14-1-6 1-9 4-13l-1-1c-1 2-3 4-5 5z" class="E"></path><path d="M290 267c2-4 6-8 10-10 8-6 20-5 30-4 5 0 9 0 14 1-2 1-4 1-5 1h-15c-11-1-19 0-28 8h0l-1-1c-1 2-3 4-5 5zm-7 41h0v1l-1 1c-2 3-2 5-3 8 2-2 4-4 6-4h1c3-2 6-2 9-3l-5 8c-3 8 6 26 9 33 0-8 1-15 4-22 3-6 8-8 14-10-3 2-6 3-8 6 0 1-1 2 0 3 3-1 8-3 12-3h1l1 1v1l-7 2c-5 2-8 5-10 9-2 8-3 16 1 23-6-1-10-2-13-6-7-9-10-24-8-34v-1l-6 3-7 7c2-8 3-16 10-23zm69-52c7-1 14 0 20 0 5 1 10 2 15 4-14 0-26-2-40 2-11 3-24 9-30 20-3 4-5 11-3 16 0 0 0 1 1 1s6-1 8-1c6-1 13-1 20 0 0 0 3 0 3 1 1 0 0 1 1 2 1-1 2-2 3-2 5 1 11 8 13 12 3 5 3 10 1 16h0c-1-4-3-7-6-11-2-2-4-5-7-5-7 2-9 12-12 18-1 2-2 3-3 5l-4 8c-3 4-6 7-11 8-3 1-9 2-12 1v-1-2h4c3-1 6-2 8-3 4-2 7-6 8-9v-1c1-3 1-6 1-10 0-2 0-4 1-6 2-7 9-12 14-16-5 0-11 1-16 2l-15 3c-4-3-6-6-6-11-1-3 0-6 1-9 3-9 8-15 14-22-6-2-9-2-16-2l1-1c2-2 3-3 5-3 4-1 10 2 12 4h0c9-5 17-7 27-8z" class="C"></path><path d="M345 190c10 1 19 1 28-1 15-4 31-11 43-21 3-2 6-6 9-9 6-5 10-11 14-17-9 8-18 18-29 25-7 5-15 8-22 10-3 1-12 4-15 2v-1c1-6 7-7 11-11 1-1 2-3 3-5 0 1 0 2 1 3s3 1 4 1c21 1 36-16 48-31 3-4 6-8 10-11 6-4 14-3 21-5 6-1 11-5 16-8 8-6 16-13 24-20 3 4 7 7 11 10 9 7 18 16 30 19 7 1 14 0 20 4 2 2 4 5 6 7 5 5 9 10 13 15 11 11 22 20 37 20 2 0 5 0 7-1v-3c3 5 6 7 12 10v-15l3 7c2 6 5 9 9 13 7 6 13 10 21 13-6-1-15-1-20-5-2-1-4-3-5-4-2-3-4-6-7-8l1 7c-7-1-13-3-19-5-4-1-8-3-12-5-10-4-18-12-25-19-3-3-6-6-9-8l-1 1c8 10 17 20 28 27 6 5 13 8 20 11 9 4 18 7 27 8 5 1 10 1 15 1 2 0 5 0 6-1 2 0 5 1 7 1h11c-4-1-9-1-13-3 1-1 3 0 4-1h-1c-2-2-5-3-8-5-8-4-14-11-16-20l-1-3v-6h1c0 9 2 17 9 23 8 7 21 10 31 9 6 0 14-2 18-7 4-4 5-9 7-13 5 3 8 5 10 11 1 5 1 11 1 16 0 2-1 6 0 8 2 0 3 1 5 0 3-11 0-23-5-33-4-6-10-11-16-13-4-1-7-1-10-1-3 1-10 3-12 2-1 0-1 0-1-1 0-2-1-4-1-6h0c-2 2-4 5-4 8 0 2 0 4 2 5s4 0 6 0c4-1 14-4 17 0 1 3 0 6-2 9-4 5-9 8-15 9-8 1-16-2-22-7-4-3-7-7-7-13-1-6 2-13 3-19v-1c1-7 1-15-4-21-4-6-10-9-17-9-7-1-14 1-20 6v-1c2-5 7-7 12-9 7-3 14-2 21 1 8 4 13 11 16 20v1c15-4 31-2 45 6 12 6 20 17 24 30 3 12 2 26-3 38l22 1h5c2 1 5 5 7 7 0 1 0 1 1 1 0 2-1 5-1 6 0 5 1 9 0 13 0 2-6 8-7 9-1 0-1 1-2 1-2 1-6 0-8 0h-24c-5 0-10 0-15 1 6 5 12 10 17 15v1c1 1 2 3 3 4l2 2c-1 2 0 3 0 4-1-1-1-2-1-2l-5-6h-1c-2-2-18-17-20-18h-7-19l-111 2c-3 0-7-1-9 0l-1 1c-1 2 0 6 0 9h-9v-12H437c0 3 1 10 0 12h-9v-10l-116-2-11 1c-1 0-4-1-4 0-2 0-4 3-5 4l-13 12c-8 8-13 16-17 26-1-2 0-3-1-4-1 1-1 3-2 5h-2c5-18 21-32 35-44l-48-1-9-9c0-5 1-9 0-13v-7l1-1 7-7c1 0 23-1 27-1-4-10-6-20-5-30v-1l2-7c3-13 12-24 24-30 13-8 31-10 46-6v-3c2-7 7-13 13-17s14-5 21-3 12 5 15 12l-8-5c-6-3-13-3-19-1-14 5-17 17-15 31l3 12c0 4-1 10-3 14-3 5-9 9-14 10-6 3-15 3-21-1-3-2-7-5-8-9-1-3-1-5 1-7 4-2 10 0 14 1h8c1-1 2-1 2-3 0-4-2-8-5-11l-1 8c-10-1-18-4-27 2-9 5-14 15-16 25-1 4-1 9-1 14 0 1 0 3 1 4 2 0 3 1 5 0-1-5-1-11 0-16v-1c0-3 1-6 2-9 2-5 4-6 8-8l3 6c3 6 7 10 14 12 10 3 22 2 32-4 7-3 13-8 15-16h1c1-4 1-7 1-10 1 2 1 4 0 7s-2 7-4 10c-4 7-13 14-21 16l-1 1h-1l1 1c-3 1-6 1-8 2l21-1z" class="B"></path><path d="M329 155c1-1 4-1 5 0s0 3-1 5c-3 4-6 6-11 8-2 0-4 0-6-1v-1h2l3-1c4-1 6-7 8-10zm356-1h5c4 1 4 6 6 9 2 2 6 3 8 3l1 1h-2c-5 1-9 0-12-3s-5-6-6-10zm-228 34c5 1 10 1 15 1v2c0 4 1 6 3 9h1v1h-1c-7 0-15-8-18-13zm106 1h1 0c-5 8-13 11-21 13l3-3c3-3 3-6 3-10 4 1 10 1 14 0h0z" class="C"></path><path d="M428 183c2 4 4 7 5 11 0 2 0 4-1 6-2 2-4 2-6 3-1-1-2-1-3-2-1 0-2-2-2-3-1-5 5-11 7-15zm165 0c2 4 6 7 8 11v5c-1 2-3 2-4 3h-5c-2-1-3-2-3-3-2-5 2-12 4-16z" class="D"></path><path d="M369 198c9-1 17-3 25-5 9-3 16-6 22-14l1 1c-7 9-21 15-32 17-1 0-3 0-4 1 12 0 25-5 34-14 2-2 4-5 5-8 1 0 0 0 1-1 0 4-3 8-5 11-6 7-18 13-29 14-7 0-15 0-22-1h4v-1c1 1 1 1 2 1h3 1v-1h-5-1z" class="F"></path><path d="M365 199l-24 1-25-1c-4 0-11 0-15-2s-8-3-11-6c5 1 10 3 15 4 9 1 18 0 27 1l37 2h1 5v1h-1-3c-1 0-1 0-2-1v1h-4zm333-65c2-1 5-1 7 0 11 1 25 5 33 14 8 10 9 22 8 34 0-3 0-5-1-8-2-8-6-16-11-22l-4-4c-10-8-26-10-38-10-4 1-8 1-11 2v-1c8-2 15-3 24-3-3-1-7-1-11-1-1 0-10 2-11 2l4-1 1-1 10-1z" class="C"></path><path d="M314 134c6-1 12 0 18 1 1 1 2 1 2 1-4 0-8-1-12-1-2 1-5 0-7 1 6-1 17 0 22 2 1 1 3 1 3 2l-5-1c-15-2-32 0-44 9-10 9-15 22-17 35-1-11 1-24 8-33 8-10 20-14 32-16z" class="D"></path><path d="M600 174l3 3c2 3 4 6 7 9 4 4 9 7 15 9 10 3 19 3 29 3l37-2c9-1 19 0 28-1 5-1 8-3 12-5v1c-5 5-13 7-20 8-14 1-28 0-43 0-14 0-29 2-43-1-10-2-16-6-22-15-1-1-3-3-2-5 3 5 6 9 11 13v-1c-4-3-7-8-10-12-1-1-2-2-2-4zm-80-12h4c1 3 0 7-1 9l-3 16c1-2 2-3 3-5h2v1c0 2 0 3-1 5-2 4-5 5-9 7 4 1 8 3 12 3 4 1 8-1 11-2-2-1-4-2-5-4-2-2-3-4-3-7 1-2 1-2 3-3h3c3 1 9 7 10 9 0 1 1 2 0 2 0 2-3 4-5 5-7 3-19 4-26 1h-2c-1-1-3-1-4-2-2 0-5 2-7 3-3 1-7 1-10 1-6 0-13-2-17-7-1-1-1-2 0-3 1-3 7-8 10-9 2 0 4 0 6 1v3c-1 4-3 7-6 10h-1l6 3c4 1 10-2 13-4-3-3-6-6-7-11 1-1 1-1 3-2 1 1 1 1 1 3h1l-4-22c1-1 3-1 4-1 2 2 3 21 5 26v1c-1 0-2 0-3-1h0l-1 1c1 1 2 2 4 3s5 2 8 1c2-1 4-2 5-5-1-1-2 1-4 1 2-6 2-11 3-16 1-3 1-7 2-10v-1z" class="C"></path><path d="M486 158v1c2 5 2 13 0 18-2 2-5 2-7 3-3 1-6 3-9 3-3 1-7 1-11 1-1 0-2 0-3 1l1 2h0c-5-2-12-4-15-8-2-1-3-3-4-5 1 6 2 10 6 14 3 1 6 1 9 2l4 12c-4 0-8 1-11-2-2-2-4-6-5-9-3-4-6-8-8-13-1-4-1-7-1-11 0-14 8-27 17-36 5-5 11-8 17-9 5-2 10-2 15-4 3-2 6-4 8-6 8-5 15-11 22-17 6 5 12 11 19 15 4 3 8 6 13 8 9 3 19 4 26 10 4 3 8 7 11 12 1 1 2 2 3 4h0c1 1 1 2 2 3 4 9 6 20 3 29-2 6-5 11-8 17-2 3-3 6-7 8-2 2-5 2-8 1h0l3-12c4-1 9-1 11-5 3-4 4-8 4-13-2 6-4 8-10 11-3 1-5 4-8 4 0-1 0-1-1-2-3-1-8-1-11-1-5-1-17-4-19-9-1-5-1-11 0-16h0c1-2 2-3 4-4 3-2 11-2 15-1l2 1 2 1c-3-6-7-10-13-13-7-2-13-1-19 2s-11 8-13 14c-1 5-1 11-1 16-1-3-1-7-1-10-1-9-8-17-16-21-6-2-12-2-18 0-3 2-9 5-10 9-1 1 0 1 0 2h1c5-2 11-2 16 0 2 0 2 2 3 3z" class="D"></path><path d="M510 107c7 2 14 8 20 13l6 5c1 0 2 2 2 2 1 0 3-1 3-1 3 0 5 0 8 1 4 1 6 4 9 6 3 1 5 2 7 3 5 2 9 7 11 11 4 6 5 15 3 21-1 4-2 8-6 11-4 4-10 2-15 2 2-2 5-2 8-4 2-1 5-3 7-5-4 1-8 3-13 4-3 1-7 2-11 1-3 0-7-2-9-5-1-2-2-5-1-7s2-4 4-5 6-2 8-1l1 1-3 6 6-1c2-2 4-5 4-9 1-4-2-9-5-13s-8-6-13-6c-12-2-20 3-30 10 0 1 0 1-1 1-6-6-14-10-21-11s-14 0-20 4c-3 3-7 7-7 12-1 4 1 8 4 12 1 1 5 1 7 1-2-2-3-4-3-6l1-1c2 0 4 0 6 1 2 0 3 2 4 3 1 2 1 5 1 7-2 3-5 6-8 7-2 1-4 1-6 1-3 0-6-2-9-3-4-1-7-1-11-3h-1c5 4 9 6 15 8-3 1-7 2-10 1-3 0-6-3-7-5-4-6-4-15-2-22 1-6 7-14 12-17 3-2 6-3 9-5s6-4 10-5c3-1 7 0 10-1 3-2 5-5 8-6 6-5 12-9 18-13z" class="B"></path><path d="M452 148v1c1 6 5 11 9 16h0c-3-1-7-3-8-6-3-3-2-7-1-11z" class="C"></path><path d="M569 147v1c2 3 2 6 1 9-1 4-5 6-9 8l-1 1-1-1c3-3 6-6 8-9v-1c1-3 2-5 2-8zm-59-28c1-1 1-1 2 0s3 3 4 5 2 4 1 6c0 3-2 4-4 5h-2c-2 1-3 0-4-1-2-2-3-4-3-7 1-3 3-6 6-8zm6 89c3 0 6-1 8 0 13 2 26 1 39 1h63l152 1c1 2 2 3 3 5 2 3 1 9 0 12 0 1-2 2-2 2-2 1-4 2-6 2h-14l-27 1h-13c-2 0-5 0-6-1 1 0 1-1 2-2-2-1-3 0-4 0l-1 1 1 1c-2 1-5 1-7 1h-18-39-31c-9 0-18 0-26-1l-1-1c-1-1-1-1-2 0v1h0l-39 1c-6 0-12 0-18-1l1-1v-1s-1-1-2-1-1 0-3 1v2c-1 1-3 0-4 0h-14c-3 0-9 1-12 0 0-1 1-1 0-2s-2-1-3-1c-2 2-1 1-1 3-6 1-12 1-17 1-4 0-8 0-12-1v-2c-1-1-2 0-3 0-2 1 0 1-1 2h-53l-1-1c-1-1-1-1-2 0l1 1-1 1h-7l-22-1-85 1-27-1h-14c-2 0-6-1-8-3-1-1-1-3-1-5-1-5 0-9 4-12 4-2 11-1 16-1l128-1h90l18-1h21z" class="D"></path><path d="M603 216h4c0 2 0 2-1 3l-1 1c-1 0-1 0-2-1s-1-1 0-3zm64 0h0c2-1 2-1 4 0 0 1-1 2-1 4h-1c-1 0-2 0-3-1 0-2 0-2 1-3zm-36-1c2 0 3 0 4 1 1 0 1 1 1 2l-1 1v1h-3l-1-5z" class="G"></path><path d="M353 215c1 0 2 0 3 1 1 0 1 0 2 1l-1 2c-1 1-2 1-3 1-1-2-1-3-1-5zm345 0h1c2 0 4 0 5 1v2l-1 1c-2 0-3 1-4 1l-1-5z" class="E"></path><path d="M399 260h284v160l-10-1c-2-26-7-53-25-73-27-30-73-41-112-43v201h2c19 4 44 2 61-9 7-5 14-12 17-20 8-16 8-34 11-50 2 0 7 0 9 1 1 3 0 5 0 8v11 43l1 195h-14c-1-35-5-77-30-104-9-11-21-18-35-22-6-1-12-1-18-2-2 0-3 0-4 1v57c0 29-1 58 2 87 2 22 7 44 14 65 7 19 17 38 31 53 8 9 17 16 27 23 6 4 13 8 18 14-6-3-12-7-19-8-17-5-37 0-52 9-13 7-25 18-33 31-7 11-11 23-14 34-6-17-13-33-26-46-22-21-50-33-80-37-11-2-22-2-33-2v-15h2c16 2 36-5 49-15 28-20 38-56 43-88 3-23 3-47 3-70v-81-99c0-32 0-64-5-95-3-25-10-51-25-71-12-15-27-25-46-28l7-14z" class="B"></path></svg>