<svg xmlns="http://www.w3.org/2000/svg" xmlns:xlink="http://www.w3.org/1999/xlink" xmlns:v="https://vecta.io/nano" viewBox="95 12 849 964"><!--oldViewBox="0 0 1024 1024"--><style>.B{fill:#c2bab3}.C{fill:#bcb4a7}.D{fill:#97918a}.E{fill:#c1b6a7}.F{fill:#ada294}.G{fill:#b0a79e}.H{fill:#9e958b}.I{fill:#c7bdaf}.J{fill:#a7a099}.K{fill:#b5ada2}.L{fill:#beb5aa}.M{fill:#171615}.N{fill:#bcb2a8}.O{fill:#cbc2ba}.P{fill:#181716}.Q{fill:#292825}.R{fill:#dad6d4}.S{fill:#6a6762}.T{fill:#1d1c18}</style><path d="M442 914c1 2 3 4 3 5-1 1-2 2-3 2l-2-1c-1-1-1-2-1-4 1-1 2-1 3-2zM239 82c0-1-1-3-2-3 0-3 1-8 1-11l1-12 2 15c0 2 1 4 0 6 0 1 0 3-1 4v1h-1z" class="M"></path><path d="M240 82l4 55 5 73 3 35c1 9 1 18 3 26h26c2-10 3-21 6-31 12-51 41-95 83-127 51-38 117-51 179-42 49 8 95 31 130 67 8 8 14 16 20 25 23 31 38 70 41 108h26l5-59 6-59 3-39 1-21c0-5 1-10-1-14-1-3 0-7 1-9l1-13 1 12c0 4 1 8 0 12-1 1-1 4-1 6l2 20 7 91 1 18c1 3 1 6 1 9l1 15 2 21c1 3 1 7 1 11h112v6c-5 2-10 3-14 8v8c-6 1-8 2-12 7-1 1-1 8-1 10-2 1-6 1-8 2-3 5-3 15-2 21 0 1 1 3 1 5-1 2-3 4-3 6 0 1 2 4 2 5s-1 3-1 4l-1 1v5l2 15c0 3 1 7 0 9 0 1-1 2-2 3-2 0-2-1-3-2-1-3 0-5 0-7l1-10c0-5 0-10 1-15 0-2 1-6 1-7-2-4-3-7-2-11 0-2 1-4 1-6 0-6-2-10-3-15 0 5 1 12 0 17l-3 9c-2 4-3 13-7 16-2 2-5 4-8 6-4 3-9 7-14 9-4 1-10 1-14 1-8 0-15-4-21-7l-1 24c0 4 1 8 1 11-1 7-1 15-1 22v38 69c0 4 0 9 1 14 0 2 2 4 2 6s-2 4-3 5v82l1 16c0 4-2 8 0 13 0 2-1 6 0 8 0 4 2 7 3 10l-4 4v8 22c1 1 1 0 3 2 0 1 0 2-1 3h-2v12 23c0 4 1 7 1 11 0 3-1 6-1 10 0 0-1 2 0 2 1 2 1 2 0 4s-1 20 0 24c6 5 14 10 22 14 3 3 7 6 11 7h1 12l21-1c4 0 8 0 13 1-7 7-13 15-18 23-2 3-5 7-7 10 0 1 1 3 0 5s-4 2-6 4c-1 1-1 2-2 3l-14 21c4 7 10 14 15 21l-62 44-27-22-13-10c-2-2-5-3-6-5l18-13c-3 0-7 1-10 0-3 0-5 0-7-1-4 0-9 1-13 1-1 1-3 4-3 5-2 5 2 14-2 18-1 0-1 0-2-2 2-5 3-11 2-17-1-2-2-4-3-5h-1c-5 2-11-1-15 2-1 0-2 0-3-1-4-1-9 0-13 0h-23l-1 1s-1 1-2 1c-2 0-2-2-3-2-1-1-4-1-4-1l-19 1v13 1h-2c0-1 0-3 1-5v-9h-4l-2 2c-2 0-2-2-4-2l-3 2c-1 0-2-2-3-2h-5c-9 0-18-1-27 1-1 2-1 4-2 6 0 2 0 3-1 4-2 1-2 1-3 0h-1v-2c-5 4-9 11-15 11-1 0-2-1-2-1 0 1 1 2 1 3 0 3-3 4-5 6 0 1-2 2-2 2 0 1 2 4 1 6l-1 1-2-2 1-6c-1-1-3-2-5-3-1 2-2 4-3 7 0 1-1 2-1 4 0 4 2 10 3 14 0 1 1 3 0 4 0 0-2 2-2 3-1 0-1 0-2-1-1-3 1-10 0-14v-10c1-3 4-5 3-8 0-1-1-2-2-2-3 1-6 5-8 8-2 2-5 5-8 7-5 6-10 14-14 20l-1 2h-8c-4-7-8-14-13-20l-12-12-6 2c1 1 2 2 3 2 0 2-1 4-1 5v12c0 2 1 6 0 8 0 1 0 1-1 2l-3-4c0-2 1-4 1-5l2-13c-1-3-2-8-4-10-1-1-2 0-3 1-1 0-1 1-2 2h-1c-2-2-6-5-6-7h2c-1-1-1-2-2-3h-3c-5-1-9-8-12-11 0-1-2-3-3-5l-2-2c-2-1-3-2-5-2-5-1-11 0-16 0h-55l-3 2c-2 0-2-1-3-2-1 0-29-1-32 0-3 0-4 1-7 0-5-1-11-1-17-1l-1 3c-1 3-1 12 0 16 1 1 1 2 1 3 0 2 0 1-1 2h-1c-1-3-1-5-1-7v-9-3c0-1-1-2-2-2-1-1-2-2-3-2-3-1-8 0-11 0h-17l17 14-46 36-62-44 16-21-46-67h8l25 1c4 0 10 1 13-1h1c5-2 9-5 14-8l17-12c1-1 0-18 0-21 0-2-1-4 0-6 1-5 0-10 0-15v-43l-2-2v-3l1-1h1v-21c0-2 1-6 0-8 0-1-3-3-3-4 0-4 2-7 2-10 1-4 0-7 1-11s-1-8 0-12v-65c0-10 1-22 0-32-1-1-2-2-2-4-1-3 1-6 2-9 1-9 0-18 0-26l-1-113v-37c-8 4-15 7-24 7-6 0-14-2-19-5-3-2-5-4-8-6-2-2-5-3-7-5s-2-6-3-8c-2-6-6-13-5-20 0-4 0-10-2-14l-2 15c0 2 1 5 1 7s-1 4-2 5l-1 1 3 38c0 3 0 5-2 7h-1v-2c-1 0-1 0-2 1-1-1-1-2-1-3 0-5 1-10 2-15v-11c0-1-1-3-1-5s2-4 2-6-2-5-2-7c-1-8 3-18-1-25-2-2-6-2-9-2 0-4 0-9-2-12-2-4-6-5-10-6 0-2 0-7-1-9-2-5-9-6-13-7-1-1-1-4-1-6h112c2-8 2-16 3-23l4-47 9-120h1z"></path><path d="M773 378l1 1v5h-1v-6z" class="M"></path><path d="M583 917l-2-3c1-2 3-2 4-3-1 2-1 4-2 6z" class="R"></path><path d="M591 111l-1 1c-2-1-4-1-6-3h3 0c1 0 2 0 3 1v1h1z" class="H"></path><path d="M220 336h1c1-1 4-1 5 0l-1 2h-3c-1 0-1-1-2-2z" class="S"></path><path d="M781 696c1 0 0 0 1 1s1 4 1 6h-1 0l-2-3 1-4z" class="N"></path><path d="M683 278c-2 0-5 0-6-1v-3h5l-2 1v1l1 1s1 0 2 1z" class="H"></path><path d="M386 333c1-1 1-1 1-3h2l2 5h-1c-1 0-3-1-5-1h1v-1z" class="L"></path><path d="M822 840s1 1 2 1c-1 1-1 1-2 1 0 1 0 2 1 2l-1 1-4-3h0v-1l1-1h2 1z" class="M"></path><path d="M671 189c1 1 2 3 1 4v2h0c1 1 1 0 1 1l-3 4c0-3 0-7 1-11z" class="D"></path><path d="M561 101h3l1 1c0 2 1 3 0 5l-1-1c0-1-2-3-4-4l1-1z" class="N"></path><path d="M573 116c4 1 8 2 12 5-4 0-7-1-11-3h1l-2-2z" class="M"></path><path d="M833 350l1 1c-2 3-3 5-5 6l-1-2c2-1 3-3 5-5z" class="D"></path><path d="M689 208l1-1c1 3 3 6 4 9-1 0-2 0-3-1s-1-2-1-4c0-1 0-2-1-3z" class="B"></path><path d="M623 103c3 1 8 2 9 5h-5 0c0-2-3-3-4-4v-1z" class="D"></path><path d="M655 173l1 2c1 2 2 5 1 7h-2c-1-2-1-6 0-9z" class="S"></path><path d="M387 121l6 6h-1 0c-2-1-2-1-4-1v-1l-4-3c1 0 2-1 3-1z" class="J"></path><path d="M252 741h0c1 2 1 3 1 5h1l2-1v5s-2 1-2 0c-1 0-1-1-2-1v-8z" class="D"></path><path d="M671 189l1-3h1c1 3 2 7 2 10h-1-1c0-1 0 0-1-1h0v-2c1-1 0-3-1-4z" class="S"></path><path d="M181 322c2 0 2 0 3-2h0-3 0l1-1c1 0 2 0 3-1 1 1 1 4 1 5l-1 2v-1c-2 0-3 0-5-1l1-1z" class="C"></path><path d="M770 695c1 1 1 5 1 6h-1c-2-2-4-6-4-9l1 1c1 0 1 1 2 1l1 1z" class="L"></path><path d="M375 153l1-2 3 1c-1 2-1 2-3 3s-3 1-4 3l-2-3c2-1 3-1 4-3v1l1 1v-1z" class="J"></path><path d="M231 519c1-1 1-1 1-2 1 3 0 7 1 10l-1 5c0-2 0-3-1-4h1l-2-2c-1-1 0-5 1-7z" class="C"></path><path d="M228 470v-2c1-1 3 0 4 0 0 1 0 1 1 1v4h-3l-1-1v1h-1v-3z" class="B"></path><path d="M836 323l3 3c2 2 2 4 2 6-1 0-2-1-3-2-2-2-2-5-2-7z" class="F"></path><path d="M691 215c1 1 2 1 3 1 2 3 3 6 3 9l-3-3-1-1-2-6z" class="G"></path><path d="M351 184c1 0 3 0 5-1 1 2-1 3 1 4-1 2-1 2-2 2h-1c-2-1-3-3-3-5z" class="D"></path><path d="M776 914l7 6v2h-1c-3-1-5-3-7-5h0c1-1 1-2 1-3z" class="F"></path><path d="M418 440v-16l3 16h-3z" class="S"></path><path d="M360 327c-3 0-6 1-9 2h-2c0-1 0-2 1-3l2-1c2 0 3 0 4 1h2c1 0 1 0 2 1z" class="O"></path><path d="M780 366l1-12h0c1 1 1 3 1 5v13l-1-1v-3c0-1 0-1-1-2z" class="R"></path><path d="M672 206h1c1 2-1 8-2 10v1h-1l-1-1c1-3 1-8 3-10z" class="D"></path><path d="M233 506v13 8c-1-3 0-7-1-10 0 1 0 1-1 2v-1l1-2c-2-3 0-6 0-9v-1h1z" class="G"></path><path d="M809 336l4-4c1 1 3 1 4 3l-1 1-2 2h-1v-1l-1-1-2 1-1-1z" class="H"></path><path d="M557 400h2c1 2 1 6 2 8l-1 1c-1 0-1 0-1-1v-1c-1 0-2-1-2-2-1-1-1-3 0-5z" class="P"></path><path d="M416 175v-1l-3-1c1-2 4-3 6-4l1 3h2 0c-1 1-1 1-3 1-1 1-1 1-2 1 0 1 0 1-1 1z" class="M"></path><path d="M231 518c0-1 0-2-1-3-1-3 0-6-1-9-2 1-1 2-2 4 0-2 0-3 1-5 2 0 3 0 5 1h-1v1c0 3-2 6 0 9l-1 2z" class="F"></path><path d="M694 222l3 3c1 3 3 7 3 11h0-1c-1-4-3-7-4-11l-1-3z" class="H"></path><path d="M350 319h3v1h3l-1 2h1l1 1c-2 0-4 1-6 1l-1 1-1-1 1-5z" class="B"></path><path d="M828 355l1 2v1c-6 3-10 3-16 2 3 0 6 0 9-1 2-1 4-2 6-4z" class="H"></path><path d="M499 108c-1 0-1 0-2-1v-3l7-1v4c-2 1-3 0-5 1z" class="G"></path><path d="M507 376l15-1v2h-3-15v-1h2 1z" class="L"></path><path d="M390 159c2 1 2 1 5 1 1-1 1-1 2-1-3 2-4 3-5 7v2l-1 1h-1c-1-3 0-7 0-10z" class="C"></path><path d="M350 299c2 0 8-1 10 0l1 1c1 0 2 0 3 1l-12 1h-1-1v-3z" class="B"></path><path d="M394 350c-2-3-4-6-7-7-1 0-1 0-2-1 2 0 3-1 5-1 2 2 4 5 5 8l-1 1zm370 245c-1-2-2-6-2-8 3 3 5 6 6 11l-1 1v2l-1-1c0-1-1-3-1-5h-1z" class="D"></path><path d="M252 749c1 0 1 1 2 1 0 1 2 0 2 0l1 4-6 3 1-8z" class="J"></path><path d="M624 353c1-3 4-10 7-12h0l1 2h1c1 0 2-1 3 0l-2 1c-4 1-6 4-8 8l-1 2-1-1z" class="H"></path><path d="M205 348l-1-1c-2-2-4-5-4-8 0-1 0-1 1-2l1 1-1 1 1 1h1l2 2c0 2 1 4 0 5v1z" class="E"></path><path d="M231 421c-1 1-1 2-2 3h0c-1-1-1-2-1-4 0-4 2-6 5-9l-1 6c0 1-1 1-1 2v2z" class="L"></path><path d="M239 584h3c-1 4 0 9 0 13h-1-1l-1 4v-17z" class="D"></path><path d="M398 172h8v1c-2 3-3 7-4 10l-2-2h1v-3c1-1 1-2 1-3l-1-1h-1v-1l-2-1z" class="O"></path><path d="M436 95l1 1c1 0 2 0 4 1 1 0 2 1 2 3l-1 1h-5-1l1-1c-1-2-1-4-2-5h1z" class="B"></path><path d="M386 315l3 15h-2c0 2 0 2-1 3v-2c2-6-2-11 0-16z" class="K"></path><path d="M475 940h0c-1-1-1-3-1-5l2-2c2 1 4 3 5 5l-6 2z" class="R"></path><path d="M386 165h1v4h-7-1l1-3c2-1 4-1 6-1z" class="I"></path><path d="M644 470c1 1 0 5 0 7l3-6-2 8-1 7-1-1c-2-5-1-10 1-15z" class="S"></path><path d="M394 350l1-1 5 12-1 1h-1c-2 2-3 4-6 6 1-2 3-4 4-6 2-4 0-9-2-12zM251 769c1 2 1 4 1 7 1 2 1 4 1 6v8c0-2-1-3 0-5l-1-1c-1 1 0 3 0 4 0 4 1 10-1 13v-32z" class="J"></path><path d="M355 235h0-1c1 1 2 1 3 1v1h-5-1c0 1-1 1-2 1l-1-1h-4l-1-1h-3l-1-1h16z" class="M"></path><path d="M797 886v-1l-2-2c-1 0 0 0-1-1h3v1h0c3 2 5 4 5 6 1 3 1 6 0 9l-1-1v-1-1c1-3-2-6-4-9h0zM321 260v1c0 2 1 3 0 6-2 1-3 1-5 1l-2-1c0-2 2-4 2-6 1 1 1 2 1 3 1-1 1-1 1-2 1-1 2-2 3-2z" class="C"></path><path d="M353 414v-1c1 1 1 1 2 0h2l7 5-1 1v2h0c1 0 1 1 1 1-4-2-8-5-11-8z" class="S"></path><path d="M850 331h0c-1-3-1-14 1-16h0l1 10c-1 4 0 8-2 11v-5z" class="B"></path><path d="M379 152c3-3 7-6 11-8h0c0 1-1 1-2 2-1 0 0 0-1 1h-1l-2 2v1c-2 3-5 5-7 8h-1 0l-3 3h-1c2-2 3-4 4-6 2-1 2-1 3-3z" class="D"></path><path d="M359 381l3 6h0c-1 1-1 2-1 4h-1l-9-7c1 0 2 0 2 1h1 1v-1c0 1 1 2 2 3h0c1-1 1-2 0-3h0l2-3z" class="C"></path><path d="M554 108l4 1 1-1c0 1 1 1 2 2l1 1v1h1 0c1 1 2 1 2 1h0c-1 1-3 0-4-1l-11-1-1-2c3 0 3 0 5-1z" class="K"></path><path d="M838 914c-4-5-7-9-9-15l12 15h-3z" class="B"></path><path d="M566 462v-1-1c0-1 0 0-1-1 0-2 0-5 1-6l3-1v1c0 3 1 5 0 7h0c-1 2-1 3-1 5h0l-1-1c0-1 0-2-1-2z" class="M"></path><path d="M652 352h0l1 1v1 1h1 1c-2 2-2 2-2 5h1 0l2-1h0c0 1-5 6-6 7l-1 1v-2-1c2-4 3-7 3-12z" class="G"></path><path d="M355 408c0 1 0 1 1 2h4c2 0 4-1 6 0-3 1-6 3-9 3h-2c-1 1-1 1-2 0v1l-1-1c-1-1-1 0-1-1 1-2 2-3 4-4z" class="M"></path><path d="M355 408c0 1 0 1 1 2h4c-2 1-4 2-5 2-2 0-2 0-3 1-1-1-1 0-1-1 1-2 2-3 4-4z" class="Q"></path><path d="M830 333c-6-2-11-2-17-3 5-1 13-1 18-1l3 3v1c-1 0 0 0-1 1h0l-1-2-2 1zM659 135c2 1 4 3 5 4-3 2-7 6-10 8v-2c1-2 2-3 4-4l1-1 2-1c1 0 0 0 1-1l-2-1-6 5-1 1v-1c1-2 2-3 4-4 1-1 2-1 2-2v-1z" class="D"></path><path d="M704 258l4 9-1 1h-5c-1-1-2-2-2-4 0-1 1-1 1-2l2 1h1-1c-1-1-1-1-1-2h1l1 1v-1-1-2z" class="B"></path><path d="M351 184c0-3 0-6 2-9v1 3h1c1-1 2-1 3-1h1c-1 3 0 7-1 9-2-1 0-2-1-4-2 1-4 1-5 1zm319-2c1 1 1 2 1 3 0 2-1 2-1 3-1 1-2 2-3 2-3-2-2-2-3-4v-1-1c3 0 4 0 6-2z" class="F"></path><path d="M254 769v6c2-2 0-6 1-8h1v16l-1 19v-6h0c1-3 0-8-1-10v-3l-1-1 1-13z" class="M"></path><path d="M251 517h0c0 3 0 6 1 9 1 0 2 0 3-1 0-1 0-1 1-1 0 2 0 4-1 6-2 2-3 3-3 5h-1v-6c0-4-1-8 0-12z" class="I"></path><path d="M448 504l3-1-3 22v-4h0l-1-1v2c-1-6 0-13 1-18z" class="H"></path><path d="M527 943l-1-1c-2 1-3 1-4 2l-1 1v-1c0-1 1-1 1-2 1 0 1 0 1-1h-2v1l-1-1c0-1 1-1 1-1h3c1-1 1-1 2-1s2-1 3-2l2-2c2 0 3-1 4-2l1 1c-1 1-3 2-4 3l-1 2c-2 1-3 2-4 4z" class="M"></path><path d="M766 381v5h1v-1c1 0 1 0 2-1-1 6 0 11 0 16l-1 2h0c-1 0-1-1-2-2l1-12-1-1v1c0-2-1-4 0-7z" class="D"></path><path d="M529 105c7 2 13 3 20 4l1 2c-4-1-18-1-21-3-1-1 0-2 0-3zM327 266h2c3-1 12-1 15 1l-1 1h-3c-6 0-11 1-16 2l3-4z" class="F"></path><path d="M574 502c0 5 4 19 0 22v1h-1v-1c2-3 1-6 0-10-1-3-1-7-2-10 2-1 2-1 3-2z" class="H"></path><path d="M726 237h1c0 1 1 1 1 2 1 2 2 5 1 7-1 1-3 1-5 1h-3v-1l3-3c2-1 2-3 2-6z" class="C"></path><path d="M370 133h3c3 3 3 8 5 9-1 3-3 7-3 10v1 1l-1-1v-1l1-3c1-6-1-11-5-16z" class="D"></path><path d="M830 333l2-1 1 2h0c1-1 0-1 1-1v-1c2 4 3 7 2 11v1c0 3-1 5-2 7l-1-1c1-3 2-8 1-11l-1-1c0-2-1-4-3-5z" class="F"></path><path d="M858 315h3c0 7 0 13-3 19l-1 1h-1c2-6 2-13 2-20z" class="B"></path><path d="M326 900h16c-3 1-7 4-10 4h-1c1 0 1 0 2-1-2-1-6 0-8 0l-1-1h-4v-1l6-1z" class="L"></path><path d="M388 153c-1 4-1 8-1 12h-1c-2 0-4 0-6 1l1-3c2-4 4-7 7-10z" class="K"></path><path d="M381 163h1c1 0 2-1 3-2 1 1 1 2 1 4-2 0-4 0-6 1l1-3z" class="G"></path><path d="M655 303l16 1v2l-1 1v-1h-8c-2-1-5 0-7 0 0-1-1-2-1-2l1-1z" class="B"></path><path d="M295 237c2 1 0 4 1 6 1 1 4 1 4 1l1 1c-1 2-1 2-3 3-1 0-1 0-2-1-2 0-3-1-4-3 0-3 1-5 3-7z" class="N"></path><path d="M233 439v18c0 2 1 5 0 6-2-1-5-2-6-4 0-2 0-3 1-4h0c1 1 1 2 1 3l2 1c1-3 0-6 0-9 2-3 1-8 2-11z" class="O"></path><path d="M251 769v-4l8-5c0 2-1 5-3 6l-3 1 1 2-1 13h0c0-2 0-4-1-6 0-3 0-5-1-7z" class="D"></path><path d="M388 153c1-1 2-1 3-1v2c-1 1-1 2-1 3v2c0 3-1 7 0 10h-3v-4c0-4 0-8 1-12z" class="T"></path><path d="M337 166h0c3 2 8 3 10 6 2 2 2 3 2 5h0c-2 0-11-7-12-8s-1-2 0-3z" class="E"></path><path d="M678 266h12c3 0 4 0 6 3h0-2-11c-2 0-5 0-6-1v-1l1-1z" class="D"></path><path d="M493 75h0c3 0 7 1 8 3 1 1 1 3 0 4-3 0-6-1-8-3-1-2-1-2 0-4zM233 218v-3-2h2c4 2 7 1 11 1v1l-1 2h0c-2 0-3 1-4 1h-1-3c-1-1-2-1-4 0zM528 75h1c0 2 0 4-1 6-2 1-5 1-7 1h0-1v-4c0-1 0-1 1-1 1-1 5-1 7-2h0zM252 726c0-6 1-13-1-19v-1l7-7-3 16h0v-8l-1-1c-2 3-1 5-1 8v16l-1-4z" class="B"></path><path d="M351 263c1 1 2 1 4 1s4 0 7 1h0c1 1 1 2 1 4-3 0-7-1-11-1-1 1 0 1-1 0v-5z" class="O"></path><path d="M339 230h9 17l1 1-3 3c-2 1-5 1-8 1h0l4-4h-20v-1z" class="G"></path><path d="M564 502c0-8 1-15 3-24 1 7 0 15 0 21 0 2 0 3-1 4-1 0-1 0-2-1z" class="D"></path><path d="M533 87l-1 1 20 2c-1 1-3 1-4 1l-13-1h-14v-1c4 0 7-1 10-3v-1l2 2z" class="F"></path><path d="M245 392v42c0 3 0 7-1 10v-1-33h-1s-1 0-1-1c-1-1-1-4 0-6h1 1v-4h1v-7z" class="R"></path><path d="M231 421v-2c0-1 1-1 1-2l1 22c-1 3 0 8-2 11v-12c0-6-1-11 0-17z" class="B"></path><path d="M229 326h2v1c2 0 6 1 7 2 2 0 4 1 6 1h1 15v1h-31 0v-1-1h-1c0-1 0-2 1-3z" class="E"></path><path d="M229 326h2v1c2 0 6 1 7 2-2 0-6-1-9 0h-1c0-1 0-2 1-3z" class="O"></path><path d="M237 879c4 1 9 3 12 6 2 2 2 5 2 7h0c-2-3-5-6-8-7l-6-2h0l-1-1c0-1 0-2 1-3z" class="L"></path><path d="M240 842v-1-10h1v22 1c0 3 1 12 0 14h-1c-1-3-1-7-1-10l1-16z" class="C"></path><path d="M793 225l1 15h-1v6 13l1 1c0 1 0 2-1 3v-2c-1-2-1-9-1-11v-2c-1-1 0-4 0-5s-1-1-1-2v-6-4c0-1 2-1 2-2v-4z" class="M"></path><path d="M296 895l-22 1c-3 0-9 1-10-1h0l25-2c2 0 3 0 5 1h0c1 0 2 1 2 1z" class="G"></path><path d="M239 470h2c0 1 0 1 1 2h1v8c0 1 0 3 1 4h-2c0 1 0 1-1 1s-1 1-2 1c-1-5 0-11 0-16z" class="C"></path><path d="M242 472h1v8c0 1 0 3 1 4h-2c-1-3 0-8 0-12z" class="R"></path><path d="M353 319h0 3c2 1 2 1 4 1l1-1h8v4l-1 1c-4-1-8-1-11-1l-1-1h-1l1-2h-3v-1z" class="L"></path><path d="M456 889l1 1v-1h9 15v1 2c-3 1-8 0-10 0-5-1-11-1-16-1l1-2z" class="E"></path><path d="M684 165h0c1 1 1 2 1 3-2 3-8 7-11 9h-1l-1-5 12-7z" class="K"></path><defs><linearGradient id="A" x1="661.086" y1="323.366" x2="661.719" y2="328.16" xlink:href="#B"><stop offset="0" stop-color="#baabad"></stop><stop offset="1" stop-color="#c8c1b2"></stop></linearGradient><linearGradient id="B" gradientUnits="userSpaceOnUse"></linearGradient></defs><path fill="url(#A)" d="M652 328v-5h1l1 1 17 2c1 1 1 1 1 3-6-2-13-2-18-2l-1 1h-1z"></path><path d="M717 892l29 2c3 0 8 0 11 1h0-1l-34-1h-8l1-1 2-1z" class="B"></path><path d="M370 133c-2-2-4-5-6-7l3-4c1 2 2 4 3 5h1c0 1 1 2 2 3 2 2 6 10 5 12-2-1-2-6-5-9h-3z" class="G"></path><path d="M181 336h2c-1 5-1 9 1 15v1h0l-2-1c-4-5-4-9-6-14 1-1 4-1 5-1z" class="C"></path><path d="M366 305c-3 1-7 1-10 1-2 0-5 1-6 0v-2s0-1 1-1h3c4 0 8 0 12-2h1c0 1 1 2 1 3l-1 1h-1z" class="B"></path><path d="M673 385c1 1 0 3 0 5 1 3 1 6 1 9l-5-3-4-4c3-2 6-4 8-7z" class="F"></path><path d="M832 314h1c3 1 7 1 10 1 0 3 0 7 1 11-2-1-3-1-5 0l-3-3-2-4c3 0 7 1 8-1l1-1c-2-3-9-2-12-2l1-1z" class="G"></path><path d="M782 406c1 11 0 22 0 33l-1-1v-14c0-4 0-8-1-11 0-2-2-3-2-4l-1-2 1-1h0v1h2 1l1-1z" class="I"></path><path d="M332 904c-2 1-4 1-7 1-5-1-10-2-15-2v1h3v1h-7c2-2 4-4 7-5 4-1 9 0 13 0l-6 1v1h4l1 1c2 0 6-1 8 0-1 1-1 1-2 1h1z" class="H"></path><path d="M590 382c-1-4-1-7 0-11l15 1h4c-2 2-6 1-8 1l-2 1c-1 0-2-1-3 0-1 0-4 3-4 3v1l-1 2h0c0 1-1 2-1 2z" class="I"></path><path d="M529 105l-1-1c4 0 7 0 10 1 6 0 11 1 16 3-2 1-2 1-5 1-7-1-13-2-20-4z" class="L"></path><path d="M304 206c1 1 1 3 1 5 0 1 0 3-1 3-1 4-3 8-4 11v1h-1-2c0-2 1-5 1-6 2-5 4-9 6-14zm351 149h0c4-4 9-4 14-4h2v1l-3 1v1h-2-1c-1 1-1 1-2 1-2 0-3 1-5 2l-2 2h0l-2 1h0-1c0-3 0-3 2-5z" class="B"></path><path d="M606 477l7-10-1-1-1 1v-1l13-9-16 21-2-1z" class="D"></path><path d="M580 636c-1-2-1-9-1-12l1-1h2c2 2 2 9 2 11v2l-1 1c0 1 0 2-1 3-1-1-1-4-2-4h0z" class="Q"></path><path d="M839 326c2-1 3-1 5 0 1 4 2 8 1 12l-1 5c-1-1-3-2-4-3s-1-3 0-5c1 1 2 1 4 0h1c-2-2-2-2-4-3 0-2 0-4-2-6z" class="I"></path><path d="M243 599c1 0 1 0 2 1v6c-2 4-1 9-1 12 1 6 1 11 1 16l-1 3c0-5 0-10-1-14v-6h-1v-2l-1-1v-6-4-1h0 1l1-1v-3z" class="D"></path><path d="M715 246h0l2 11c4 1 7 0 11 0h5v3c-1 1-3 0-4 0l-13 1c0-5-1-10-1-15z" class="B"></path><path d="M329 211c1 1 1 1 1 2 0 2-1 4-2 6-2 6-5 12-5 18h0l-1 1-1-2c0-3 1-5 1-7 2-7 4-12 7-18z" class="E"></path><path d="M764 595h1c0 2 1 4 1 5l1 1v-2l1-1c0 2 0 7 2 8h1v1 3c-1 2-4 3-6 4 1-6 0-13-1-19z" class="J"></path><path d="M348 385l9 7-4 4c-1 1-3 2-5 3v-1c-1-1 0-3 0-4 1-3 0-6 0-9zm428 449l1-39c1 2 0 4 1 5s0 1 1 2h0c-1 1-1 2-1 3 1 1 0 2 0 3 1 5 0 10 0 15l-1 17v-4l-1 3v-5z" class="C"></path><path d="M433 353h0 0c-2 6-14 14-19 17l-1-1c4-7 11-8 16-14l1-1c1 0 1 0 2-1h1z" class="J"></path><path d="M425 491l-9-37c-1-1-1-1 0-2 2 5 3 11 4 16l6 20c-1 1-1 2-1 3h0z" class="H"></path><path d="M655 319h0l16 1c1 2 1 3 1 5h-1-1c-4-1-9-2-14-2h-2c0-2 0-3 1-4z" class="L"></path><path d="M655 319h0l3 2-2 2h-2c0-2 0-3 1-4z" class="O"></path><path d="M608 154l20 15h-1-3l-2 1c0-2 1-3-1-4-2-2-4-3-6-4l5 7-1 1c-1-1-2-1-2-2s-1-2-2-3v-1c-1-1 0-2 0-2l-1-1h-1c-3 0-5-3-6-5h-1l2-2z" class="D"></path><path d="M776 834v5l1-3v4l1 28-1 1-1-1v-34zM387 109h1l7 8c2 2 4 4 5 6 1 1 0 1 0 2h-1a57.31 57.31 0 0 1-11-11c-1-1-3-2-3-4l2-1z" class="B"></path><path d="M237 944c0-2 0-3 1-5 9-6 17-14 26-20h2c-2 2-4 3-6 5l-8 6c-4 4-8 8-12 11-2 1-2 2-3 3z" class="H"></path><path d="M307 246h1c-1 5-2 10-2 14h-17-1c0-1 0-2 1-3h15l3-11z" class="C"></path><path d="M653 328c5 0 9 0 13 1 2 0 4 0 6 1v3h0-1c-3-2-13-2-17-1h-1v1c0 2-1 4 0 5h1v2h-2v-12h1z" class="O"></path><defs><linearGradient id="C" x1="551.032" y1="887.124" x2="552.836" y2="893.414" xlink:href="#B"><stop offset="0" stop-color="#a49c9c"></stop><stop offset="1" stop-color="#c1b7b1"></stop></linearGradient></defs><path fill="url(#C)" d="M579 892h-23-10-5v-2c1-2 28 0 32 0 1 1 6 0 6 2z"></path><path d="M671 346h1l1 3c-2 1-3 1-5 1-5 0-10 1-14 5h-1v-1-1c0-1 1-2 1-3 4-5 11-3 17-4h0z" class="B"></path><path d="M767 525c1-1 1 0 1-2l1 1h0c1 2 0 1 1 2l-1 24h-1v-5-1c0-1-1-2-1-3 0-5-1-10-2-15l2-1z" class="E"></path><path d="M618 331l-13 27h0c0-5 3-10 5-14l6-15 2 2z" class="J"></path><path d="M366 889l20 1h0c0 1-1 3-1 3-2 1-4 0-5 0h-13l-1-1h0v-3z" class="E"></path><path d="M339 235h0c0-2-1-3 0-5v1h20l-4 4h-16z" class="K"></path><path d="M239 749c1 1 1 1 1 2 1 1 0 1 1 2 1-1 1-1 1-3 2 2 2 6 2 8 1 3 2 6 2 9v1l-2-1v-2l-1-1v-1c-1 1-2 3-3 4h0c0-6-2-11-1-18z" class="E"></path><path d="M628 315l2-13c0 5 0 11-2 16-1 9-5 17-7 26-2 5-3 13-6 17-1 1-1 1-2 1h0c-1-4 4-11 5-15l4-10c1-2 2-5 2-8 2-4 3-10 4-14z" class="J"></path><path d="M832 314c3 0 11-1 14 0l-1 1c2 11 5 22 0 32 0-3 1-7 0-9 1-4 0-8-1-12s-1-8-1-11c-3 0-7 0-10-1h-1z" class="Q"></path><path d="M410 95l2-1c2 2 4 4 6 5l-11 3h-9l12-7z" class="J"></path><path d="M259 587c-2 9-4 17-4 26l-4-2c-1 0-2-1-2-2 4-5 4-10 6-15 1-3 3-5 4-7z" class="H"></path><path d="M236 201c1 0 3-1 4 0 2 0 4 1 5 3 0 1 1 3 0 4 0 1-1 2-3 3h-2v-2c1-1 1-1 1-3-1-1-1-1-2-1s-2 0-2 1l-1 1c0 1-1 1-2 1-1-1-1-4-1-5 1-2 2-2 3-2z" class="B"></path><path d="M767 541c0 1 1 2 1 3v1c0 1-1 1-1 2s0 3 1 4l1 1v9l1 12s0-1-1-1l-2-2h-1c1 3 3 3 4 6h0c-2-2-5-4-5-6 1-3 1-6 1-10l1-19z" class="D"></path><path d="M779 201c3 0 5 0 8 1 1 1 1 3 1 4-1 2-2 2-3 2l-1-2c-1 0-1-1-2-1-2 0-2 0-3 1v1c-1 1 2 3 3 4l-1 1-3-1c-1 0-1 0-2-1s-1-3 0-5c0-2 1-3 3-4zM607 97c1-2 1-2 3-3 5 2 9 6 13 9-3 0-7 1-9-1-3-1-5-2-8-2h-1 0l2-3z" class="K"></path><path d="M340 186l1-1c1-2 2-3 4-5-1 7-4 14-6 21l-3 9c0-4 0-6-3-9-2-1-3-2-5-3l-1-1h2c2 1 2 1 4 1l2 2c0-1 1-1 1-1h1c1-1 1-1 1-2 1-2 2-4 2-6l1-1c0-2 0-3-1-4z" class="F"></path><path d="M140 304c7-1 15 0 22 0 12 0 26-1 37 1l-1 1h-16l-28-1c-3 0-11 1-14-1z" class="R"></path><path d="M237 883c-4 0-7 0-11 2-2 2-5 5-5 9 0 1-1 1-1 2h-1v-4c1-2 2-3 3-5-2 0-3 3-4 5v-2c0-4 5-7 9-9 3-1 6-1 10-2-1 1-1 2-1 3l1 1h0zm336 7h27 15l1 1v1c-2 1-5 1-7 0h-13c-5 0-12 1-17 0 0-2-5-1-6-2z" class="B"></path><path d="M185 325c0 1-1 6-2 6-2 1-5 2-6 3h-1c0-5 0-11 1-16h1c0 1 0 2 1 3 1 0 1 0 2 1h0l-1 1c2 1 3 1 5 1v1z" class="E"></path><path d="M395 411c1 3 0 6 0 9 1 3 1 6 0 8 0 3-1 5-2 7-5-7-8-13-10-21l1-1 1 2c0 2 1 5 2 7 0-3-1-7 0-10v2 1c1 4 2 9 5 11 1 1 1 1 2 1 1-3 0-7 1-9v-7z" class="H"></path><path d="M391 312h1c1 3 1 6 2 10l4 15 6 15c2 3 4 7 4 11h-1c-3-4-5-11-7-16-3-11-7-23-9-35z" class="D"></path><path d="M828 862c-5-4-30-19-31-23l1-1 1 1c10 8 21 13 30 21 0 1 0 1-1 2z" class="J"></path><path d="M367 893h-14c-2 0-4 1-6 0 0 0-3-2-3-3 7 0 15-2 22-1v3h0l1 1z" class="N"></path><path d="M633 109h0c2 0 2 0 3 2-3 5-9 11-14 14-2 0-3 0-4-1 1-2 4-3 5-5l10-10z" class="G"></path><path d="M283 904c-7 0-14 0-20 1v-6h12c1 1 3 0 4 1s2 2 2 3c1 0 1 1 2 1z" class="J"></path><path d="M626 411c3-1 6-1 9-1h18c-1-4-2-7-4-10 2 2 5 3 7 5 2 1 4 4 5 5h28c1 0 2 0 3 1h-66z" class="M"></path><path d="M654 317h-2v-5c1 0 1 0 1 1 1 1 2 1 3 1l1-1c1 0 1 0 3 1h0 6l1 1h4l1 4c-2 1-16-1-18-2z" class="B"></path><path d="M355 408c4-2 8-2 11-4 4-1 7-2 10-2v3c-3 2-7 3-10 5h0c-2-1-4 0-6 0h-4c-1-1-1-1-1-2z" class="P"></path><path d="M771 883v1h0c2-2 4-3 6-4 1 0 2 0 3-1h2c2-1 6-1 8-1l1 2h0-1c-2-1-5-1-8 0h-1c-1 0-4 1-5 2 0 1-1 1-1 2h0l-1 1c-2 0-4 1-5 3 0 1-1 2-1 3v1c-2 5 1 12 4 17 1 2 2 4 4 5 0 1 0 2-1 3h0c-6-7-9-15-8-24 0-4 1-8 4-10z" class="H"></path><path d="M229 877h5c5 0 13 2 17 6 2 1 3 3 3 5-2-3-6-7-10-8-3-1-6-1-8-1l-1-1c-1 1-2 1-3 1-3 0-5 1-7 2-1 1-3 1-4 2-3 2-4 5-5 8 0 2 0 2-1 3v-4c1-5 4-8 8-11 2-1 4-1 6-2z" class="G"></path><path d="M348 140c3-2 8-9 12-9l1 1v1h1l2 2h-1c0 1-1 1-1 2-2 2-4 3-6 5l6-7c-1 0-1 0-2 1-2 1-3 3-5 4 0 1-1 2-1 2-1 1-3-1-4 1-1-1-2-2-2-3z" class="D"></path><path d="M606 477l2 1c-5 8-9 17-11 26-1 5-1 9-2 14h-1l2-14c1-6 2-14 5-20 1-3 3-5 5-7zm-19-368c3-6 6-13 7-20 2 1 3 1 4 3l-7 19h-1v-1c-1-1-2-1-3-1z" class="F"></path><path d="M240 644v1l2-7 2 27-2-5c0-1 0-2-1-2v-1c0-2 0-4-1-5 1 2 1 4 1 6 1 3 3 11 2 14v5c-1-2 0-4-1-6 0-3-1-5-2-7-1-7-1-13-2-20h2zm-25-318v-7c0-5-2-12-4-16v-1 1c2 2 6 6 6 9 0 2 0 1 1 2 0-1 0-1 1-1l1-2h1 0l-3 3c1 2 0 2 0 3s1 3 2 4c0 0 1 1 2 1 0 0 0-1 1-1l-1 1 1 1-2 2v1c-1 0-2 0-3-1l-1 1-1-1-1 1z" class="J"></path><path d="M651 374l2-2v1c1-1 2-1 3-1-4 4-8 10-10 15-2 3-2 8-4 11l-1-1c0-1 0-3-1-4h0l-1-2c2-1 2-3 3-4s1-2 2-3c1-2 2-4 3-5 1-2 3-4 4-5z" class="F"></path><path d="M651 374c0 2-2 3-3 5-1 3-3 4-5 7 0 0 0 1-1 1 1-1 1-2 2-3 1-2 2-4 3-5 1-2 3-4 4-5z" class="H"></path><path d="M371 127c2-6 4-10 9-14 3 3 5 5 7 8-1 0-2 1-3 1-1-1-2-2-4-2-2 1-4 3-5 5-1 1-1 3-2 5-1-1-2-2-2-3z" class="B"></path><path d="M504 103h5c2 0 3 1 4 1 0-1-1-2-2-3-1 0-2-1-3-1h-1v-1c2-3 2-6 1-9h1l2 6s1 0 1 1c0 0-1 0-1 1h1c2 3 5 6 5 9-1 1-4 0-5 0s-2-1-2-1v-1c-1 0-2 1-3 2-2 1-6 1-8 1 2-1 3 0 5-1v-4z" class="H"></path><path d="M244 948l10-8c5-4 18-16 24-17v1c-10 9-22 17-33 25l-1-1z" class="J"></path><path d="M351 384l-3-1v-11c4 3 8 5 11 9l-2 3h0c1 1 1 2 0 3h0c-1-1-2-2-2-3v1h-1-1c0-1-1-1-2-1z" class="G"></path><path d="M768 820l-2-1-3-1v-1c2 0 5 2 7 3l1 49-2 1v-8c-1-3 0-12 0-15 0-1-1-3 0-4v-2-19l-1-2z" class="L"></path><path d="M567 499c0 4 1 9 1 12l2 12c1 2 1 4 1 7-1 5-4 10-6 14 0-3 6-14 4-16-1-2-1-4-2-6v-1c-2-6-2-13-3-19 1 1 1 1 2 1 1-1 1-2 1-4z" class="H"></path><path d="M239 601l1-4h1 1v2h1v3l-1 1h-1 0v1 4 6l1 1v2h1c-1 5 0 9-1 13l-2-11-1 7c-1 6 1 12 1 18h-2c-1-11 1-21 1-31 1-4 0-8 0-12z" class="F"></path><path d="M780 808l1 1 1 59h-1l-1-1v-34l-1-17c0-2 0-5 1-8z" class="I"></path><path d="M251 648l-1-31 6 3c0 2 0 3-1 4 0-1-1-1-2-1v1c0 9 2 19 0 28v-4c-2-2-1-8-1-10-1 0 0 0-1 1v9h0z" class="B"></path><path d="M845 338c1 2 0 6 0 9-2 5-8 12-14 14v-1c1-2 3-3 4-4 4-3 4-11 5-16 1 1 3 2 4 3l1-5z" class="M"></path><path d="M840 340c1 1 3 2 4 3-1 3-4 11-8 13h-1c4-3 4-11 5-16z" class="G"></path><path d="M590 382s1-1 1-2h0l1-2v-1s3-3 4-3c1-1 2 0 3 0l2-1 1 2-2 2v1l-1 1h-1l-1-1v-1c-1 1-2 2-3 4h0c-1 2-1 4-3 6v2l1 1c1 0 1-1 2-2l1 1v2c2 2 4 1 7 1h1v2h-13c0-3 1-8 0-10v-2z" class="L"></path><path d="M490 104l4-1-3 5c-5 1-11 1-17 2l-6 1c1-1 3-4 4-5 3-1 15-2 18-2z" class="K"></path><path d="M348 354l1-3c1-2 8-1 10-1 3 1 6 3 8 5l2 1c1 2 1 5 2 7-1 0-1 0-2-1 0-2-2-3-3-4s-4-3-6-3h-1-2 0l-1-1h-4c-1-1-2 0-4 0z" class="E"></path><path d="M426 89h1l4 13c1 2 2 5 3 7 1 1 1 0 3 1-2 1-5 2-6 2-1 1-2 1-3 1 1-1 2-1 3-2-2-2-2-5-3-8l-5-12c1-1 2-1 3-2z" class="G"></path><path d="M778 384v18l1 1c3-4-1-13 2-17v8l1 12-1 1h-1-2v-1h0l-1 1 1 2c-2 10-2 21-2 32v-2l1-52 1-3z" class="O"></path><path d="M506 74h10l-2 14c-1 2-1 4-1 5l-1-1c-1 0-1-1-1-2l2 2h0v-6l-6-2c-1-3-1-7-1-10z" class="B"></path><path d="M778 266l1 1c2 0 8 0 9-1v-3-2l1-2h0l1 10 6 3h-27c1-1 3-3 5-4h1v-1l1-1h0l-1 2h1 3v1c1 0 2 0 3-1h-1 0c-1 0-1-1-1-1h-3l1-1z" class="O"></path><path d="M349 342v4l4-1h1l3-1c1 0 3 0 4 1h2 0c3 1 5 3 6 5v6l-2-1 1-1c-2-2-5-4-8-4h0c-3-1-7-2-10-1-1 1 0 1-1 0v-7z" class="N"></path><path d="M717 207h1c2 4 3 9 5 14 0 1 1 3 1 5h-4s-3-9-4-11l-1-1h0l-1 1c-1 2 1 4 2 6 0 2 1 3 1 5h-1c-2-3-2-6-4-10h0l1-2c1-1 2-2 3-2v-1c0-2 0-3 1-4z" class="J"></path><path d="M627 108c-5-1-10-1-14 3-2 1-4 4-5 7v2l-5-1c2-3 3-7 6-9 2-3 6-6 10-6h4c1 1 4 2 4 4z" class="N"></path><path d="M788 744c1 1 1 1 1 2h1v1-1c1-2 1-5 1-8 0-7 1-16-1-23 0-1 0-4 1-5v2l1-1c0-1 0-1-1-2l2-1v2c1 1 0 5-1 7v17c0 8 0 16 1 24-1-2-4-5-5-7s0-5 0-7z" class="C"></path><path d="M232 262v1c1 0 1 1 1 1v1 2h0c1 1 1 1 2 0h4c1 0 0 0 2-1h1l2 1 2-2h0l1 2v1l6 3c-4 0-24 1-26 0l1-1c1-1 2-1 4-2v-6z" class="O"></path><path d="M766 381c0-2 1-5 1-8s0-5 1-7v-9-11c1 1 1 3 1 4v12c0 2-1 4 0 6 2-3 1-14 1-17 0-2-1-4-1-6 1 0 1 1 1 2 1 3 1 7 1 11 0 9 0 18-2 26-1 1-1 1-2 1v1h-1v-5z" class="N"></path><path d="M263 307l1-1 1 1c-1 1-1 1 0 2v1l2-1v1 1c-1 2-1 3-2 5v1c-1 3 0 7-2 9h-3c-1-1-1-2-1-3h-1l2-1v-3c-1-1-2-1-3 0h-7v-1h3c1-2 1-3 0-4l1-1v1 4h1c1 0 1 0 2-1s0-1 1-1v1h1c1-2 4-8 4-10z" class="D"></path><path d="M184 918l-4-3c1-3 3-5 5-7 3-4 9-9 9-13 1-6-6-13-9-17 2 1 3 3 5 3 2 1 4 2 5 3 4 4 4 17 3 22-1-5 0-11-1-16-1-3-3-6-6-8h-1c3 4 5 9 5 13 0 2 0 4-1 6-3 2-4 5-7 8-1 2-3 3-4 5l3 2-2 2z" class="C"></path><path d="M818 842l-2-1-1-1h-1l-5-5c-2 0 0 1-2 0l-1-1c-1-1-3-2-5-3l-3-3h0c1-1 2-1 2-2h0l1-1 2 1 2 2 2 1 3 3 4 2 4 3 1 1c1 1 2 1 3 2h-1-2l-1 1v1h0z" class="P"></path><path d="M444 550c0-6 1-13 1-20 0-8-6-18-9-25v-1l8 16c0-2-1-3-1-5h1l1 4v1c0 2 0 4 1 5 0-1 1-2 1-3v-2l1 1h0v4c1 6-1 12-2 19 0 2 0 5-1 7 0 0-1 0-1-1z" class="D"></path><path d="M767 638v-10c0-2 1-4 0-5h-2c-1-1 0-1 0-2 2-2 4-3 6-4l-1 26v1c-1 1 0 1-1 2v8 1h-1c-1-1 1-10 0-12 0-1-1-1-1-2v-3z" class="B"></path><path d="M777 387v-12c0-2-1-4-1-6v-13c0-2-1-4 0-6 1 1 0 4 0 5 1 3 0 8 2 11h1 1c1 1 1 1 1 2v3l1 1c0 3 0 11-1 13-1-1-2-1-2-3-1 1-1 1-1 2l-1 3z" class="I"></path><path d="M395 104h5c6 0 9 2 13 6 2 2 4 5 4 8l-3 2v-1-1c-1-3-2-6-5-8-5-5-14-3-21-2 2-2 5-3 7-4z" class="C"></path><path d="M391 152l1-1h6l11 2c-4 2-8 5-12 6-1 0-1 0-2 1-3 0-3 0-5-1v-2c0-1 0-2 1-3v-2z" class="D"></path><path d="M391 152l1-1h6c-2 0-3 0-5 2l9 2c-4 1-8 1-12 2 0-1 0-2 1-3v-2z" class="M"></path><path d="M764 761l6 3v50l-1-1c-2-1-3-1-6-2l3-9h2v1c2-2 1-5 1-7-1-2 0-9 0-11-1-6-2-13-1-19v-1l-2-2v1c-1-1-2-1-2-2v-1z" class="E"></path><defs><linearGradient id="D" x1="252.6" y1="652.439" x2="255.535" y2="665.145" xlink:href="#B"><stop offset="0" stop-color="#5a5958"></stop><stop offset="1" stop-color="#82817e"></stop></linearGradient></defs><path fill="url(#D)" d="M253 624l1 1 1 1c1 2 0 4 1 7v6 21c0 4 0 8-1 12-1-2-1-3-1-4h0v-2l-1 2v-6-10c2-9 0-19 0-28z"></path><path d="M779 679c1 6 0 11 1 17h1l-1 4 2 3h0v9 4c-1 2-1 3-1 6 0-5 1-12-2-17h-1c-3 6-3 18-1 24 1 7-2 14 0 21v1l-1-15c-1-9-2-16-1-24 1-5 3-8 3-13 2-6 1-13 1-20h0z" class="K"></path><path d="M634 160l1-5 1-1 1 2 2 2 2 4c0 2 1 4 1 7h-2-4 0c-2 1-3 1-4 1l-1-2s1 0 1-1v-8h0l2 1z" class="I"></path><path d="M632 159l2 1v9h2 0c-2 1-3 1-4 1l-1-2s1 0 1-1v-8h0z" class="T"></path><path d="M637 156l2 2 2 4c0 2 1 4 1 7h-2c-1-1-1-2-2-2 0 0-1 0-1-1v-1c1-1 1-1 1-2l-1-1v-1-1-1h0v-3z" class="C"></path><path d="M252 726l1 4v-16c0-3-1-5 1-8l1 1v8h0l1 30-2 1h-1c0-2 0-3-1-5h0v-15z" class="S"></path><path d="M253 782h0l1 1v3c1 2 2 7 1 10h0v6c1 3 1 6 2 9l-6 2v-12c2-3 1-9 1-13 0-1-1-3 0-4l1 1c-1 2 0 3 0 5v-8z" class="C"></path><path d="M253 782h0l1 1v3c1 2 2 7 1 10h0c-1 2-1 5-2 7-1-4-1-8 0-13v-8z" class="Q"></path><path d="M781 874c4-1 9-1 13 0s11 5 13 9v1c-5-5-11-8-18-9-9-1-16 3-23 9-2 2-2 4-3 7-1 4-1 9 0 14 1 2 3 6 2 7-1-2-2-4-2-7h0c-2-7-2-17 2-22 3-6 10-8 16-9z" class="B"></path><path d="M788 744v-40l5 4-2 1c1 1 1 1 1 2l-1 1v-2c-1 1-1 4-1 5 2 7 1 16 1 23 0 3 0 6-1 8v1-1h-1c0-1 0-1-1-2z" class="J"></path><path d="M639 470c1 2-1 6-1 7-1 3-2 6-2 9-1 7 1 15 3 22 1 3 3 5 3 8h-1l-6-9c-5-13-1-25 4-37z" class="B"></path><path d="M661 258l1-1c2-1 5-1 9-1l-1 8c-5-1-11 0-16 0h-1c0-5 2-2 5-4l-1-1h-2c0-1-1-1-1-2h1c2 1 3 0 4 1h1 1z" class="C"></path><path d="M624 329v1l-2 3h0v1l-2 1c0 1 0 2-1 2v1l-1 2-2 4c0 1 0 1-1 2v-1-1c0-1 0-2 1-3 0-1 1-3 2-4 0-2 1-4 2-6l1-3v-2l3-8c0-2 1-3 1-4h1v-2-1c0-1 1-1 1-1 0-2 0-2 1-3h0 0v3c-1 1-1 2-1 4l1 1c-1 4-2 10-4 14z" class="P"></path><path d="M240 545h0c0 5-1 10 0 14 1 7 4 13 4 20v-5-2l1 1c2 4 0 10 0 15 0 3 1 7 1 11 1 1 1 4 0 6v-6c-2-5-1-10-2-14l-2-1h-3l1-39z" class="H"></path><path d="M671 306c0 2 0 5 1 7l-1 2h-4l-1-1h-6 0c-2-1-2-1-3-1s-1 0-2-1h-1v-2-2l3-1c3 1 8 1 12 1 1-1 0-1 1-2v1l1-1z" class="C"></path><path d="M657 313c-1 0-1 0-2-1h-1v-2-2l3-1-1 2h0v1l-1 1c5 3 12-1 17 2l-1 2h-4l-1-1h-6 0c-2-1-2-1-3-1z" class="I"></path><path d="M251 535h1c0-2 1-3 3-5-2 13-3 28 0 41-1 2-3 3-5 4h0c1-2 4-3 4-5h-1l-1 1-1-1 1-20c0-5-1-11-1-15z" class="J"></path><path d="M678 900h19c3 0 7 0 10 1s5 3 7 4c-5 0-9-1-13-1s-9 1-13 0c-4 0-7-2-10-4z" class="L"></path><path d="M232 532v29c0 3 0 8 1 11 0 2 1 3 2 5l-6-7c-1-5-1-11-1-16v-33 1c-1 8 0 17 0 26 1 3 1 5 1 8l1 8c0 2 0 4 1 6 0-2 0-4-1-6v-6-10l1-20c1 1 1 2 1 4z" class="B"></path><path d="M344 244c1-1 1-1 1-2l2 2c2-1 5-1 7-3h-1-4c-1 1-2 0-2 0h-4-1c1-2 4-1 6-1h0c2 1 5 0 7 0 1 0 3-1 4-1-5 5-10 8-13 14l-1 1h-1c-3-3-3-9-4-14h0c1 2 1 3 2 4h0 2z" class="K"></path><path d="M342 244h2 1c1 1 1 1 2 1l1 2c-1 1-1 1-3 2-1 0-2 0-3-1v-1h2v-1c0-1-1-1-2-2z" class="B"></path><path d="M578 527h1c1 6 1 13 1 19 1 7 1 13 0 20-2-6-3-12-4-17l-3-17c0-2 0-4 1-5 4 7 3 18 5 26 0 1-1 2 0 3v2 2c1-3 0-5 0-7l-1-16v-9-1z" class="H"></path><path d="M252 418l1-2c0 3-1 29 0 30 2-2 1-9 1-12 0-5-1-11 0-15v-3c2 2 1 5 1 8v20 8c-1 3-3 5-5 7 0-4 1-9 2-14v-27z" class="C"></path><path d="M766 802c-1-5 0-10 0-14v-20-1c-2-1-3-2-3-3-1-2-1-3-1-4l2 1v1c0 1 1 1 2 2v-1l2 2v1c-1 6 0 13 1 19 0 2-1 9 0 11 0 2 1 5-1 7v-1h-2z" class="H"></path><path d="M629 272l-2 22c0 6-1 12-2 18-1 3-2 5-3 8l-4 11-2-2c2-6 4-11 6-17 1-3 1-7 2-10 2-5 2-10 3-15l1-14 1-1z" class="D"></path><defs><linearGradient id="E" x1="323.421" y1="238.117" x2="333.079" y2="215.383" xlink:href="#B"><stop offset="0" stop-color="#9f9183"></stop><stop offset="1" stop-color="#beb1a3"></stop></linearGradient></defs><path fill="url(#E)" d="M329 211l2-6c0 2 0 5 1 7 0 2 1 5 1 7 0 3-2 8-3 12l-5 13c0-4-1-7 0-11 0-5 3-10 4-15 1-1 2-3 1-5 0-1 0-1-1-2z"></path><path d="M314 184h1c2 5-1 7-2 12-3 6-2 12 3 16 2 1 4 1 4 3h-1c-2-1-3-1-4-2-3-2-6-6-7-10-2-8 2-13 6-19z" class="B"></path><path d="M770 479v47c-1-1 0 0-1-2h0l-1-1c0 2 0 1-1 2l-2 1c-2-4 0-12 0-17l1 2 1 1 1-1v-1c-1-3-1-7 0-10v1l1-1v-5-13h1v-3z" class="H"></path><path d="M765 526l1-13 1-1 2 2c1 2-1 8-2 11l-2 1z"></path><path d="M357 195h1v1l2 2v2 1-1c1-1 1-1 2-1-1 2-1 2-1 4v2l1 1c0 1 0 3 1 4l1-1v5l1 3-3 1-4-1c-1-1-1-4-1-6l-1-15 1-1z" class="J"></path><path d="M357 195h1v1l2 2v2 1-1c1-1 1-1 2-1-1 2-1 2-1 4v2l1 1c0 1 0 3 1 4l1-1v5l1 3-3 1c-1-2-1-4-1-6-1-6-1-12-4-17z" class="P"></path><path d="M566 462c1 0 1 1 1 2l1 1h0c0-2 0-3 1-5h0l5 42c-1 1-1 1-3 2l-5-42z" class="D"></path><path d="M439 383v5 12l-1 1c-1 0-3 0-4-1v-17c0-3-1-7 0-9 1-1 1-1 2-1l-1 1c1 0 1 2 1 2 1 0 2 1 2 1 1 1 0 4 1 6zm305-87h4l14 10h0l3 1h-2c1 1 2 2 2 4 1 1 1 2 2 3v1c0 2 0 3 1 5 2 1 4 0 6 1h0c-2 0-3-1-5 0v2c-1-2-2-5-3-7-1-3-2-7-6-9-1 0-3-2-4-3l3 5c1 2 2 4 4 6h-1l-1-1c-1-2-2-3-4-5h0-1c0-1 0-2-1-2v-1c-1 1-1 1-1 2 1 2 2 2 1 4h0v-1c0-1 0 0-1-1h-1c-2-5-5-10-9-14z" class="G"></path><path d="M275 899c9-1 21 2 30-2 1 0 1 0 3 1-4 2-11 8-15 7h0v-1l1-1c-1-1-2-1-3-1l-1 1c-3 2-5 2-7 1-1 0-1-1-2-1 0-1-1-2-2-3s-3 0-4-1z" class="D"></path><path d="M527 943c1-2 2-3 4-4-4 7-10 13-14 20-2 3-4 6-7 9l-9-13c-3-5-7-9-9-14v-1c2 2 4 5 6 7 4 5 8 12 13 16l11-14c2-2 3-4 5-6z" class="C"></path><path d="M766 671h-1c-2-16 0-31 1-47v1 13c0 2-1 6 0 7l1-7v3c0 1 1 1 1 2 1 2-1 11 0 12 0 4 1 9 0 13-1 2 0 4-1 6v-3h-1z" class="Q"></path><path d="M767 641c0 1 1 1 1 2 1 2-1 11 0 12 0 4 1 9 0 13-1 2 0 4-1 6v-3c-1-3 0-7 0-10v-20z" class="I"></path><path d="M852 325v4l1-14h1v18h0l1-6 1 1c0 2-1 4-1 7v4c-1 5-4 11-7 14-1 0-1-1-2-2l1-2c2-4 2-8 3-13 2-3 1-7 2-11z" class="E"></path><path d="M349 338c1 1 1 1 1 2l1 1 1-1 1-1h1 2l2-1c2 0 5 0 6 1h1c1 0 1 0 2 2v2h0l1 1v-3h1v9c-1-2-3-4-6-5h0-2c-1-1-3-1-4-1l-3 1h-1l-4 1v-4-4z" class="I"></path><path d="M768 655h1v-1-8c1-1 0-1 1-2v-1 52l-1-1c-1 0-1-1-2-1-2-7-1-15-1-22h1v3c1-2 0-4 1-6 1-4 0-9 0-13z" class="E"></path><path d="M231 363c2 1 1 33 3 39v1c-1 2-3 4-5 6-1 1 0 0-1 0-1-1-1-3 0-4 0-1 1-1 1-2 1-1 0-3 0-5v-12c0-3 0-5 1-8 0-1 1-2 1-4v-11z" class="J"></path><path d="M602 392c-3 0-5 1-7-1v-2l-1-1c-1 1-1 2-2 2l-1-1v-2c2-2 2-4 3-6h0c1-2 2-3 3-4v1l1 1h1l1-1c1 1 2 3 3 4l1-1v1c0 1 0 2-1 3v2l-1 1v2 2z" class="F"></path><path d="M392 298v1l3 10c0 1 1 2 0 3v1c0 3 3 9 4 11l6 20c2 4 7 9 7 14h0l-4-7c0 3 1 6 3 8l-1 1-1-2c-2-3-3-7-4-10l-8-24-4-11c0-1-1-2-1-4-1-2-1-4-1-5-1-2-1-3-1-4l2 7c1 1 1 3 2 4 0-1-2-11-2-13z" class="H"></path><path d="M771 883c0-1 1-1 2-2 6-4 12-5 20-3 1 0 3 0 4 1 7 3 8 7 10 13-2-4-5-8-10-10h-3c1 1 0 1 1 1l2 2v1c-3-2-6-2-9-3-2-2-6-1-8-1l-5 2c0-1 1-1 1-2 1-1 4-2 5-2h1c3-1 6-1 8 0h1 0l-1-2c-2 0-6 0-8 1h-2c-1 1-2 1-3 1-2 1-4 2-6 4h0v-1z" class="B"></path><path d="M757 309h0c2 2 3 3 4 5l1 1h1c-2-2-3-4-4-6l-3-5c1 1 3 3 4 3 4 2 5 6 6 9 1 2 2 5 3 7v-2c2-1 3 0 5 0 1 2 2 3 1 5h-3l-1-3h-1v3h-7l-3-9c0-3-2-5-3-8z"></path><path d="M448 504l5-47h1l1 1 1-1c0 15-3 31-5 46l-3 1z" class="D"></path><path d="M346 365c3 0 6 1 9 3 8 5 17 15 18 25 1 2 0 3-1 5h-1c-1-3-1-6-2-8-3-9-9-16-18-21-1 0-5-2-6-3l1-1z" class="K"></path><path d="M706 184l5 6c2 4 3 9 2 14v1h0c-1 5-6 8-10 10h-2l-1-1c0-1 4-3 5-4 5-4 6-9 3-15-1-1-2-3-3-4 0-3 1-5 1-7z" class="J"></path><path d="M673 365h3v1c-1 2-5 3-7 4-7 4-13 12-16 20-1 2-1 5-2 7v1h-1c-1 0-1 0-1-1-2-3 0-7 2-10 4-10 12-19 22-22z" class="C"></path><path d="M414 904h-18l-3-6 29 1c0 1 0 2-2 3 0 1 0 1-1 2h-5z" class="L"></path><path d="M414 904c0-1 0-2 1-3 1 0 1 1 2 1h3c0 1 0 1-1 2h-5z" class="K"></path><path d="M241 385l1 13s-1 3 0 3c0 1 0 1 1 2h-1c-1 2-1 5 0 6 0 1 1 1 1 1-1 1-2 3-3 5v11c-1 15 0 30 3 46h0-1c-1-1-1-1-1-2h-2v-1l1-1c0-6-1-11-1-17v-17l1-45c0-1 0-3 1-4z" class="O"></path><path d="M777 494c0 3-1 7 1 9l1 1c1-2 2-4 2-6l1 1-1 48c0-3-1-6-1-8-1-4 0-8 0-11l1-13-4-4v13c0 3 1 7 0 11-1-2-1-4-1-5-1-6 0-12 0-18l1-18h0z" class="E"></path><path d="M362 447c2 2 3 4 5 7l6 10c3 5 8 11 6 18 0 1 0 2-1 3-1-12-7-21-15-29-2-3-4-5-5-8l1-2c1 0 2 1 3 1z" class="G"></path><path d="M251 517v-16-28c0-2 0-5 1-6 0-1 1-2 1-3l2-2v1 20l-1 1c-1-1-1-1-1-2-2 3-2 8-1 12 0 3 1 6 2 9l1-8v12c0 2 1 4 0 6l-1 1-1-1c-1 1-1 2-2 4h0z" class="B"></path><path d="M485 75h1c1 4 2 8 4 12-2-2-4-5-5-7l-18 1-8 2c-1-1-1-2-2-3 3-3 23-5 28-5z" class="K"></path><path d="M692 878h1l-3 3c2-1 5-2 7-2h24l-5 4c-3 2-11 1-14 1h-17c2-2 4-5 7-6z" class="E"></path><path d="M228 470v3h1v-1l1 1h3v27c-1 0-4 1-5 0v-12-18z" class="D"></path><path d="M229 473v-1l1 1c1 3 1 6 1 9 0 5 0 11-2 16-1-8-1-17 0-25z"></path><path d="M199 335h0c0 2-1 3-2 5l2 4c2 5 6 8 11 9 8 3 17 1 25-3h1l-1 1c-5 5-10 7-17 7s-13-2-18-8c-3-2-4-6-4-10 0-2 1-3 3-5z" class="C"></path><path d="M384 453v1c-3 12 3 21 4 32l1 3c1 10-2 18-8 26l-2 1h0c3-6 6-13 7-19 0-4 0-9-1-13-1-9-6-22-1-31z" class="G"></path><path d="M229 331c-5 1-11 0-17-1h0l1-1c-1-2-1-5-1-7-1-8-2-15-7-22 0-1-1-2-1-3 1 1 2 3 3 4 2 3 4 6 5 9 1 4 1 16 3 18v-2l1-1 1 1 1-1c1 1 2 1 3 1v-1l2-2h1c2-1 3-3 5-4-1-2-2-3-2-5 1 0 0 0 1 1 0 1 1 2 2 3h1c-1 1 0 1-1 1-1 1-3 2-3 3s0 2 1 3c0 1 0 1 1 1-1 1-1 2-1 3h1v1 1h0z" class="N"></path><path d="M788 363c2 1 1 11 2 13v-12h1v36c0 1 0 2 1 4h1v6l-1-1-5-5c0-2 1-6 1-8v-33z" class="S"></path><path d="M336 884h-24c-3-1-6 0-8-1-2 0-5-3-7-4 5-1 11 0 17 0 3-1 7-1 10 0 3 0 6 3 9 3h1c0 1 1 1 2 2z" class="G"></path><path d="M531 85h1c1-2 2-3 2-5 1-2 1-4 2-5l18 2c3 0 6 1 9 2 0 1-1 3-1 4-2 0-4-1-6-1-5-1-10-2-15-2h-3c-1 0-1 0-1 1-1 2-3 4-4 6l-2-2z" class="L"></path><path d="M193 328l13 2h0c-2 1-4 1-6 1l-5 1c-2 2-3 4-4 5l-1 2c-2 3 1 2 1 4h-1c-2-1-2-1-2-3 1-2 2-4 4-7 2-2 3-2 5-2l1-1c-2 0-4 0-5 1-2 1-5 5-6 7h0v3 1c0 1 0 2 1 3s1 2 2 3h0v1l-2-2v1s0 1 1 1c2 5 5 8 11 10 1 0 3 1 5 1-3 1-6 1-9 0s-7-3-9-6l1-1 4 3-2-2c-2-2-3-3-3-6h-1c0-3-1-6-1-9v-1c0-2 1-3 1-5 2-3 4-4 7-5z" class="F"></path><defs><linearGradient id="F" x1="426.656" y1="444.779" x2="416.498" y2="459.99" xlink:href="#B"><stop offset="0" stop-color="#73726b"></stop><stop offset="1" stop-color="#a19c9c"></stop></linearGradient></defs><path fill="url(#F)" d="M418 440h3c1 12 4 25 8 36 4 13 11 25 15 39h-1c0-1-2-4-2-5-4-11-9-20-13-31-5-12-8-26-10-39z"></path><path d="M780 882c2 0 6-1 8 1 3 1 6 1 9 3h0c2 3 5 6 4 9v1c-2 0-3-1-5-1-1 1-2 3-3 4s-4 3-6 2c-3 0-4-1-6-3 1 0 1 0 1 1 2 1 3 1 5 1s4 0 5-2c2-2 3-3 3-6-1-2-1-2-2-3-3-3-5-4-9-4-4 1-7 2-9 5-1 1-1 2-2 3-1-1 0-2 0-3 1-3 4-5 7-7v-1z" class="C"></path><path d="M780 882c2 0 6-1 8 1 3 1 6 1 9 3h0c2 3 5 6 4 9v1c-2 0-3-1-5-1v-3c0-2-1-4-3-6-3-2-9-3-13-3v-1z" class="P"></path><path d="M653 264h1l1 1 15-1v6h0v5c-3 0-8-1-11 0 0-1-1-2-2-3h0l-1-2h-2l-1-1c0-1 0-1 1-2-1-1-1-2-1-3z" class="O"></path><path d="M653 269c2-1 4-1 6-1 4 1 8 1 12 1-5 1-10 1-15 1h-2l-1-1z"></path><path d="M520 145c8 0 16 1 24 2 21 3 37 13 54 24h0c-15-9-31-18-48-21-2-1-5-2-7-1h-1-1c-1-1-8-1-10 0h-1l-11-1h1v-1c-2 0-3 0-4-1h4v-1z" class="D"></path><path d="M353 175c0-2 1-5 3-7 2-4 6-7 10-10 1-1 2-2 4-3l2 3c-5 6-13 12-14 20h-1c-1 0-2 0-3 1h-1v-3-1z" class="E"></path><defs><linearGradient id="G" x1="243.669" y1="790.905" x2="238.831" y2="788.095" xlink:href="#B"><stop offset="0" stop-color="#959384"></stop><stop offset="1" stop-color="#ad9d90"></stop></linearGradient></defs><path fill="url(#G)" d="M240 767h0c1-1 2-3 3-4v1l1 1v2l2 1c0 3 0 6-1 8 0 3-2 5-2 7-1 3 0 7-1 10 0 3-1 7 0 11l2-8v11c-1-1-2-3-3-4-1 1-1 2-1 4h-1l1-2c1-5 0-10 0-15v-23z"></path><path d="M239 807h1 0c1 1 1 3 1 4 1 2 3 4 4 6v17 34l-1 1-1-1v-12l1-21c0-6 0-12-1-17-1 1-1 2-1 3-1 3-1 7-1 10v23-1-22h-1v10 1l-1-35z" class="K"></path><path d="M580 372c1 1 2 3 3 4l1-1c0-1 1-1 1-1h2c1 3 0 21-1 25v1c-1 1-2 1-3 1s-1 0-1-1v-1c0-4 0-8-1-12 0-4-1-7-2-10 0-2 0-3 1-5z" class="G"></path><path d="M380 351h6c1 1 3 2 4 4 1 1 1 3 0 5s-2 3-4 4h-3c-2 0-3-1-5-3-1-1-2-4-2-6 1-2 3-3 4-4z" class="I"></path><path d="M561 101c1-6 3-15 9-17 3-2 10 0 13 1 2 1 3 1 5 2-1 2-1 4-2 6h0-1c-1-2-1-3-4-4-3-2-8-2-10 0-3 1-4 5-5 8l-1 5-1-1h-3z" class="G"></path><path d="M769 870c-1 1-2 1-3 2-1-1-1-1-1-3 0-1 0-2 1-2h1v-1h-1c-1-2 0-5 0-8 0-11 1-22 1-33-1 0-2-1-2-1-1-2-2-3-1-5l2 2c0-1 1-1 2-1l1 2v19 2c-1 1 0 3 0 4 0 3-1 12 0 15v8z" class="K"></path><path d="M260 879c3-1 7 0 10-1h18c3 2 10 6 11 9-3-1-8-4-11-4h-9-16c-1-1-2-3-3-4z" class="G"></path><path d="M636 351h4c2 1 4 1 5 3v4c-1 3-3 5-6 6-1 1-2 1-4 0-1 0-3-2-4-3 0-2-1-4 0-6s3-3 5-4z" class="B"></path><path d="M686 208c0-1 0-2 1-3v5l2-2h0c1 1 1 2 1 3 0 2 0 3 1 4l2 6 1 1 1 3c1 4 3 7 4 11h1c-1 1-3 3-4 5 0 1 0 1-1 2-2-8-5-15-7-22-1-3 0-7-1-10l-1-3z" class="D"></path><path d="M672 373h1l1 10c-3 1-5 2-7 4-2 1-2 3-4 4-1-1-1-2-1-4h-1l-1 1c-1 1 0 3 0 5h-1l1 1h1l1 1-2 2h-2c-1-2-2-2-1-4 0-2 1-4 2-5 3-7 7-11 13-15z" class="E"></path><path d="M671 376h1v3c-4 1-6 2-8 4h-1c2-3 5-5 8-7z" class="F"></path><path d="M605 372l3-1c-1-2-8-6-10-8-1-1-3-3-5-4l-4-4 2-2c2 0 4-5 5-7 9-15 18-31 23-48 1 2-1 4-1 7-1 4-4 9-6 13-3 8-7 16-12 23-3 5-6 10-8 14v1c8 4 14 9 19 17l-1 1c-1 0-1 1-2 2h-1c-2-1-3 0-5-1l-1-2c2 0 6 1 8-1h-4z" class="K"></path><path d="M732 878l29 1-2 4h-17c-10-1-16 1-24 6 3-5 9-8 14-11z" class="C"></path><defs><linearGradient id="H" x1="439.955" y1="125.789" x2="440.062" y2="131.009" xlink:href="#B"><stop offset="0" stop-color="#8d8581"></stop><stop offset="1" stop-color="#a49c92"></stop></linearGradient></defs><path fill="url(#H)" d="M492 118c-10 2-20 3-30 6-6 2-13 7-20 8-5 1-12-1-17 0-3 0-7 1-11 2 5-3 12-5 17-5 4-1 8 0 11-1 16-4 32-10 49-11l1 1z"></path><path d="M378 442l1 1c0 5-2 9-1 15 1 13 6 26 6 39h-1v-5l-3-15c-2-10-7-19-11-28 3-3 5-5 9-7z" class="F"></path><path d="M543 119c2 0 3 0 4-1 5-2 24 7 25 4 0-1-1-1-2-1s-2 0-3-1c-3-1-6-2-9-4 4 0 12 4 16 6h1l10 4h1c3 1 7 2 9 4-8-1-15-3-23-4l-29-7z" class="P"></path><path d="M371 219l1 1v2h1l-2 44c-1 0-1 0-1 1l-1-1c0 2 0 2-1 3v-1l-5 1c0-2 0-3-1-4h0c-3-1-5-1-7-1h0v-1h0 9c1 1 2 1 4 1v-1l-1-1h0l1-1v-1c0-2-1-2-1-4h0c1-2 1-4 1-6 1-2 0-5 0-7 1-2 1-3 1-4 1-1 0-3 0-4 1-1 1-3 1-5v-3-2c1-1 1-4 1-6z" class="D"></path><path d="M362 265h3l1 1c1 0 1 0 2 1v1l-5 1c0-2 0-3-1-4z" class="K"></path><path d="M239 749v-41c0-3-2-6-2-9l1-2c2-3 4-5 4-8v8c1 5 3 11 4 17 0 8-1 15-1 24l-1-9c-1 1-2 1-2 2h-1v-4c1-1 1-1 2-1s1 0 2-1c0-6 0-13-2-19h-1v3h0c-1-1-1-3-1-4l-1-1v29c0 4-1 13 1 17h1c0 2 0 2-1 3-1-1 0-1-1-2 0-1 0-1-1-2z" class="G"></path><defs><linearGradient id="I" x1="405.23" y1="338.439" x2="409.394" y2="337.175" xlink:href="#B"><stop offset="0" stop-color="#898173"></stop><stop offset="1" stop-color="#939293"></stop></linearGradient></defs><path fill="url(#I)" d="M393 281c1 26 12 51 23 75-1 1 0 1-2 1-2-3-3-6-5-9-3-8-7-16-9-25-1-3-1-7-3-11-3-9-5-19-5-29l1-2z"></path><path d="M230 818l-1-36v-12c0-1-1-4-1-5 1-2 5-6 6-8 0 2-2 5-2 7 0 4 1 8 1 12v26c-1 2 0 5-1 6-2-2-1-7-1-9v-2 1l-1 1v6 13h0zm226-340c3 13 2 27-1 41 0 2-2 7-2 10 0 1 1 3 1 4l4 11h-1c-2-5-6-12-6-17-1-4 1-9 2-13l1-12c1-8 1-16 2-24z" class="H"></path><path d="M787 506h2v3c1 1 0 17 0 21 1 1 1 2 1 3 1 2 0 7 0 10 0 1 1 1 1 2v7c0 3-1 7-1 10h1v-1c1-2 0-3 1-5h1v13c-1 2-3 3-4 5l-1-1 1-1v-1h0v-2c-1-4 0-10-1-14-1-5-1-10-1-15h1l-1-34z" class="Q"></path><path d="M829 860c5 4 8 6 11 12h0c1-2 1-3 1-5l-40-30h1c8 7 18 12 27 18 5 3 10 9 15 10h0v4c-1 3-4 6-7 7l-14 9c-2 1-3 2-5 2v-1l2-1c3-2 6-4 9-5 4-2 7-4 10-7-2-4-7-8-11-11 1-1 1-1 1-2z" class="H"></path><path d="M230 818h0v-13-6l1-1v-1 2c0 2-1 7 1 9 1-1 0-4 1-6v39 8c0 1 1 3 1 4l-6-5 2-30z" class="F"></path><path d="M491 117c18-2 35-1 52 2l29 7c8 1 15 3 23 4 4 0 7 1 10 3-6-1-14-2-20-1h-5c-5-1-11-5-17-7l-25-6c-16-2-31-3-46-1l-1-1z" class="J"></path><defs><linearGradient id="J" x1="809.599" y1="334.639" x2="782.965" y2="342.316" xlink:href="#B"><stop offset="0" stop-color="#ab9e8e"></stop><stop offset="1" stop-color="#cbbeae"></stop></linearGradient></defs><path fill="url(#J)" d="M802 346c-6 1-11 0-16-4-2-1-6-5-6-7h0c3-1 6 3 9 4 2 2 5 2 8 2h1c4-2 7-3 11-5l1 1 2-1 1 1v1h1c-4 4-7 6-12 8z"></path><path d="M810 337l2-1 1 1v1c-2 1-4 1-6 1 1-1 1-1 3-2z" class="D"></path><path d="M781 722c0-3 0-4 1-6v31 9c0 4-1 8-1 13v24c0 4 1 9 0 13h-1c-1-3 0-4 0-7 0-5 1-13-2-17v-3h0c1 0 1 1 2 1v-4-12c0-1 0-3-1-5h0c-3 5-3 12-4 18v-4c-2-7 2-14 2-22v-1c1 0 1 1 2 2 0-1 0-1 1-1 0 0 1-1 1-2v-5-22z" class="O"></path><path d="M765 509c1-6 0-13 0-20v-29c1 2 2 4 4 6h0c1 4 1 9 1 13v3h-1v13 5l-1 1v-1c-1 3-1 7 0 10v1l-1 1-1-1-1-2z" class="F"></path><path d="M768 500c-4-6-1-17-1-24l1-10h0c1 5 0 10 0 15l1 1v13 5l-1 1v-1z"></path><path d="M227 577c2 0 4 3 5 4 1 3 1 8 1 11l-1 37c0 4 1 10 0 14-2 2-3 3-5 4l1-3c3-8 0-20 0-29v2c0 1 0 2 1 2 1 4 0 7 1 10 1 4 0 9 0 13v1h0c1-2 1-6 1-9-1-3-1-7-1-11 1-6 2-12 1-18 0-1-1-2-2-3v-3c1 0 2-1 2-1v-11-5l-2-2c-1 0-1 2-1 3v16 11l-1-33z" class="B"></path><path d="M625 150c1 0 1 0 2 1l2 2h1l2 1h2 2l-1 1-1 5-2-1h0v8c0 1-1 1-1 1-1-2-2-3-4-4l-13-9 1-1 3-1 2-1h1v-1h-1v-1h5z" class="S"></path><path d="M625 150c1 0 1 0 2 1-2 1-5 1-7 2h-2l2-1h1v-1h-1v-1h5zm7 9h-1c-1 2-1 3-1 5l-2-1c0-1 0-2-1-3v-1-1c1-1 2-1 3-1s1 1 2 2h0z" class="M"></path><path d="M629 153h1l2 1h2 2l-1 1-1 5-2-1c-1-1-1-2-2-2l1-1c-2-1-7 0-9 0v-1c2-1 5-1 7-2h0z" class="P"></path><defs><linearGradient id="K" x1="446.164" y1="106.934" x2="447.489" y2="83.913" xlink:href="#B"><stop offset="0" stop-color="#a09894"></stop><stop offset="1" stop-color="#c3bcb3"></stop></linearGradient></defs><path fill="url(#K)" d="M435 95v-3c-1-1-2-3-2-5 4-2 12-5 17-3 4 1 6 6 8 10 1 3 4 10 2 13l1 1-5 1-1-1c0-1 0-1 1-2 0-5-1-13-5-17-1-1-3-1-5-2-3 0-7 1-10 4-1 1-1 2 0 4h-1z"></path><path d="M476 910h1c3 0 5 4 7 5-3 5-7 9-11 12l-5-5h0c-2 1-3 3-4 5 1 2 2 2 4 3l1 1 3-2v1c0 1-1 2-2 3h-3c-2-1-4-3-4-5v-1c0-2 2-4 3-4 3-5 7-9 10-13zM244 443v1l1 63v8l-1-4-4 4 1 24h0 1l-2 6h0l-1-57c3 3-1 10 2 14 0 1 0 0 1 1 1-1 2-1 3-2v-15c-1-1-1-2-1-2-1-1-1-3-1-4h1c1-6-1-12-1-19 0-2 1-4 1-6v-12z" class="B"></path><path d="M266 919c1 1 3 2 4 3-1 2-5 5-7 6l-25 19h0l-1-3c1-1 1-2 3-3 4-3 8-7 12-11l8-6c2-2 4-3 6-5z" class="E"></path><defs><linearGradient id="L" x1="258.383" y1="679.51" x2="246.422" y2="683.391" xlink:href="#B"><stop offset="0" stop-color="#979290"></stop><stop offset="1" stop-color="#b2b1aa"></stop></linearGradient></defs><path fill="url(#L)" d="M251 648v-9c1-1 0-1 1-1 0 2-1 8 1 10v4 10 6l1-2v2h0c0 1 0 2 1 4v14c0 2-1 4 0 6v1c0 2-4 6-5 8 1-7 1-14 1-21v-32h0z"></path><path d="M251 648v-9c1-1 0-1 1-1 0 2-1 8 1 10v4 10c-1 4-1 10-1 14l-1 1v-29z" class="C"></path><path d="M349 338c0-1 0-2 1-3 6-2 11-2 18-2v-1c-5-2-13 0-18 2h0c-1-1-1-2-1-4 2-1 3-1 5-1 4-1 9-1 14-1l1 2v11h-1v3l-1-1h0v-2c-1-2-1-2-2-2h-1c-1-1-4-1-6-1l-2 1h-2-1l-1 1-1 1-1-1c0-1 0-1-1-2zM186 916c4 2 8 6 12 9 9 5 18 10 27 16 4 4 8 8 12 11l7-4 1 1-8 6c-16-14-36-25-53-37l2-2z" class="L"></path><defs><linearGradient id="M" x1="212.961" y1="354.007" x2="234.239" y2="331.245" xlink:href="#B"><stop offset="0" stop-color="#bdae9c"></stop><stop offset="1" stop-color="#cdc8c0"></stop></linearGradient></defs><path fill="url(#M)" d="M205 342c6 4 14 7 21 5 4 0 7-2 10-4 4-3 6-6 9-9-2 7-6 13-13 16-6 3-15 4-21 1l-6-3v-1c1-1 0-3 0-5z"></path><path d="M664 184c1-12-8-17-14-25-1-2-2-4-3-7 4 3 8 5 12 9 6 5 11 12 11 21-2 2-3 2-6 2z" class="E"></path><path d="M777 750c-2-7 1-14 0-21-2-6-2-18 1-24h1c3 5 2 12 2 17v22 5c0 1-1 2-1 2-1 0-1 0-1 1-1-1-1-2-2-2z"></path><path d="M702 261c-3-2-4-9-4-12s0-6 2-9c5-4 12-7 18-8 3-1 6-2 8-2 1 1 1 1 1 2-7 2-17 6-22 12-2 1-3 4-3 7v1 1c2 3 1 2 0 4h1 1v1 2 1 1l-1-1h-1z" class="K"></path><path d="M763 700l7 6c-3 14 0 28-1 42v1c1 3 1 5 1 8l-6-3c0-2 1-5 2-7v-25-11c-1-4-2-7-3-11z" class="R"></path><path d="M240 389l-1-25c0-3 0-9 2-12h0c0 5-1 10 1 14l1 1c2-3 1-14 2-17 1 1 0 13 0 16 0 5-1 10-1 16 1 2 0 5 1 7v3 7h-1v4h-1c-1-1-1-1-1-2-1 0 0-3 0-3l-1-13c-1 1-1 3-1 4z" class="B"></path><path d="M241 385c0-1 1-2 2-3 1 1 1 2 1 3 1 3 0 7 0 10v4 4h-1c-1-1-1-1-1-2-1 0 0-3 0-3l-1-13z"></path><path d="M208 333c2 0 3 2 5 3 3 2 7 5 12 5 4 0 8-2 11-5l1-1h5v1l-3 2c-3 3-5 5-10 7s-10 2-15-1c-3-1-7-3-8-6 0-1 1-4 2-5z" class="I"></path><path d="M708 894h2c1 0 2 1 3 1s1-1 1-1h8l-8 1c2 1 5 3 8 4 7 2 32-1 36 1v4h-15c-5 0-11 1-14-1-1-1-2-1-3-1l4 3h0c-3 0-5-1-7-2-5-2-10-6-15-8v-1z" class="K"></path><path d="M232 705h1v3c-1 1-1 1-2 1v4l1-1v-1-1l1 30v8c0 1 1 2 0 3 0 1-2 3-3 4l-3 3 1-2c1-6 1-12 1-18 0-10 0-20-1-29 1-2 2-3 4-4z" class="J"></path><path d="M636 195h7v4c1 4 1 9 1 13v26l1 23v7 7h-1c-1-4 1-10 0-15-1-4 1-8-1-12h0c1-4 0-8 0-12h-1-1v-3-4l-1-1c0-2 0-4-1-6 2-1 2-5 2-7-2-4-2-11-3-15v-1c0-2-1-2-2-3v-1z" class="E"></path><path d="M641 215c0 1 0 3 1 4v5c0 4-1 8 0 12h-1v-3-4l-1-1c0-2 0-4-1-6 2-1 2-5 2-7z" class="I"></path><path d="M488 922c2 1 5 2 7 4 3 2 6 3 10 4 9 2 17 1 25-4 1-1 1-1 2-1v1l3-1h0l-2 2c-8 6-16 9-27 8-7-1-15-5-20-10 0-1 1-2 2-3zm300-510l4 4v8 25c0 2 1 6-1 9 0 0-1 1-1 2l3-3 1 2c-2 2-5 3-7 4l1-50v-1z" class="D"></path><path d="M790 416h0c1 2 0 4 0 6v11c1 7 1 13 1 20 0 1-1 2-1 4h-1v-11l1-30z"></path><path d="M378 899l10-1c0 3 2 4 3 6h-38l-11 1c1-1 3-4 5-4 3-1 6-1 9-1l22-1z" class="K"></path><path d="M436 134h2v1c-8 3-16 9-24 14 0 0-3 2-4 2-1 1-7-2-9-3h0 0c1 0 2-1 3-1 3-2 6-3 9-5h0l14-6c-8 1-14 5-21 7 9-7 18-8 30-9z" class="D"></path><path d="M394 181h3 3l2 2c-2 3-2 6-4 9-1 4-4 8-6 12-3 6-5 12-7 19h-2l1-1v-1c0-3 1-4 1-6-1-3-2-7-1-9 0-1 1-4 1-5 0-2 0-4 1-6h2l-1 2h-1c-1 2-1 6-1 9l1 1 1-1v-3c0-1 1-3 2-4l1-1c1 0 1-1 2-1s1-1 1-2h1v-4c0-3-1-7 0-10z" class="N"></path><path d="M394 181h3c1 2 2 2 2 4s0 2-1 4h0l-1 2v1c0 1 0 1-1 2v1l-3 3c-1 0-2 1-2 2-1-1-1-1-1-2 1 0 1-1 2-1s1-1 1-2h1v-4c0-3-1-7 0-10z" class="G"></path><path d="M243 410h1v33 12c0 2-1 4-1 6 0 7 2 13 1 19h-1v-8h0c-3-16-4-31-3-46v-11c1-2 2-4 3-5z"></path><path d="M316 261c2-5 2-11 2-16-6-7-16-10-24-13v-1-1h3c8 1 20 5 25 11 1 3 2 5 2 8v1l-3 10c-1 0-2 1-3 2 0 1 0 1-1 2 0-1 0-2-1-3zm264 375h0c1 0 1 3 2 4 1-1 1-2 1-3l1-1c0 9 2 17 3 26 2 13 0 26-5 38 1-11 2-22 1-33 0-11-3-21-3-31z" class="B"></path><path d="M640 114h1c3 1 7 5 8 8 1 1 2 3 3 4 1-1 1-2 3-1 0 0 1 0 1 1 0 0-2 2-2 3-2 3-5 6-7 10-1 3-2 6-1 10v2 1h-1c0-2-1-4-1-6v-1c1-5 4-9 6-13v-1l-3 4c-1 3-3 5-4 9v1h0c-3-5 4-12 4-17-1-3-2-6-4-7-1-1-2-1-4 0-4 0-6 6-8 9l-3-2h-1l13-14z" class="K"></path><path d="M766 400c1 1 1 2 2 2h0l1-2c1 4 1 7 0 11l1 17c0 11 0 21 1 32-1-2-5-5-5-7-1-3 0-8-1-12v-33c0-2 1-5 1-8z" class="J"></path><path d="M768 402l1-2c1 4 1 7 0 11 0 1 0 3-1 4v-9-4z" class="B"></path><path d="M766 400c1 1 1 2 2 2h0v4c-1 2-1 3-1 5-1-1-1-1-2-3 0-2 1-5 1-8z" class="K"></path><path d="M708 894c-5-1-9 0-13 0-8 0-16 1-24-1 1-1 3-2 5-3h2 7 26l46 1v1h0-40 0l-2 1-1 1s0 1-1 1-2-1-3-1h-2z" class="E"></path><path d="M619 899c4 1 10 0 14 0l31 1c2 0 6 0 9 1 1 0 3 3 5 4h-5l-35-2h-10-7c0-1 0-2-1-3-1 0-2 2-2 3h-1c0-1 1-3 2-4h0z" class="N"></path><path d="M589 137c-3-1-5-2-7-4h0 1c1 0 2 0 4 1 4 0 8 2 12 2s9 4 12 6c-2-1-5-1-7-3h0c2 2 4 3 6 4 5 3 10 5 15 7h-5v1h-3c-2 0-3 1-5 1h0l-23-15z" class="S"></path><path d="M589 137h0c4 0 7 1 10 3 1 0 2 1 3 2v1h1c1 0 2 1 3 2 3 2 5 4 8 5 1 0 2 0 3 1-2 0-3 1-5 1h0l-23-15z" class="G"></path><path d="M263 307l-3 1h0c2-2 4-3 6-5l-3 1c-2 1-3 2-4 4h-1-1c3-3 6-4 10-7 3-2 4-4 9-5l-1 2c-1 2-6 7-6 9s-1 5-2 7c-1 5-2 11-1 16-2 1-4 1-6 1v-1h-15-1c-2 0-4-1-6-1-1-1-5-2-7-2v-1l1-1h0c2 1 4 1 6 1h10 2 2c0-2 1-4 1-6h1v1c-1 1-1 3-1 5h7 3c2-2 1-6 2-9v-1c1-2 1-3 2-5v-1-1l-2 1v-1c-1-1-1-1 0-2l-1-1-1 1z" class="N"></path><defs><linearGradient id="N" x1="413.572" y1="473.055" x2="407.882" y2="476.274" xlink:href="#B"><stop offset="0" stop-color="#9e9387"></stop><stop offset="1" stop-color="#b5af9e"></stop></linearGradient></defs><path fill="url(#N)" d="M392 439l-2 9 9 8c11 9 22 23 25 37 2 8 2 17 3 26h-1v-2c-1-5-1-11-3-17-3-15-13-28-23-39-4-5-8-9-12-14h-1v-1c0-2 3-5 5-7z"></path><path d="M241 218c1 0 2-1 4-1h0l1-2v29c-1-2 0-4 0-7l-1 1-1-2h-2-5l-1-1-1-1h-1 0l-1-1v-15c2-1 3-1 4 0h3 1z" class="K"></path><path d="M237 233l1-1 1 1h0c1-1 3-1 4 0h1v1h-1c-1 0-1 0-1 1h-6l-1-1c1-1 1-1 2-1zm3-8h2l2 1v2h0-2-5c-1-1-1-1 0-3h3z" class="L"></path><path d="M233 218c2-1 3-1 4 0h3 1c1 1 1 2 3 2v2l-1 1c-2-1-3-2-5-1-1 0-2 1-2 2l1 1h3-3c-1 2-1 2 0 3l-2 2v1l2 2c-1 0-1 0-2 1h-1 0l-1-1v-15z" class="N"></path><path d="M647 196c0-1 0-1 1-2v2h1c2 1 7 0 9 0 0 3-1 7-1 9v6c-1 2-1 5-2 7h-4l-1 1c0 2 0 4 1 6v1c0 1 1 2 3 3v1l1 2c-2 0-3-2-4-3v7h-1l-3-40z" class="I"></path><defs><linearGradient id="O" x1="500.358" y1="889.129" x2="485.954" y2="909.237" xlink:href="#B"><stop offset="0" stop-color="#938982"></stop><stop offset="1" stop-color="#c0b7a4"></stop></linearGradient></defs><path fill="url(#O)" d="M500 921h-1c-5-3-10-9-11-15l-1-1c0-1 0-3-1-4 0-7 2-14 7-19 4-4 9-6 14-7v1c-4 4-12 6-14 13h1l-2 8c1 6 2 10 6 15h1 0c-1 1 0 1-1 1l-2-2-1 1c1 1 1 2 2 3v1h1c-1 1-1 1-2 1 1 2 3 2 5 4h-1z"></path><path d="M495 912c0-1-1-1-1-2s-1-1-1-2c-1-1-2-2-2-3v-1c-1-3 0-5-1-8v-1l1 1 1 1c1 6 2 10 6 15h1 0c-1 1 0 1-1 1l-2-2-1 1z" class="F"></path><path d="M252 418c0-7-1-13 0-19 1-4 2-8 1-13-1-3-1-6-2-9-1-10-1-20-1-31l1-1 1 1c1 6-1 14 0 20l1 1 1-1c1-2 0-7 0-8 0-5 0-10 1-15h0c1 8-1 16-1 24 0 3 0 6 1 9 0 4 1 8 0 12-1 5 0 12 0 17 1 5 1 13 0 19 0-3 1-6-1-8v3c-1 4 0 10 0 15 0 3 1 10-1 12-1-1 0-27 0-30l-1 2z" class="N"></path><path d="M455 891l-34 1h-21c-3 0-7 0-9 1h0c4 1 10 1 15 1 23 0 46-4 68-1 2 0 5 0 6 1h0c-5 0-10-1-15-1-11 0-71 4-75 1 0-3 0-3 2-5 1 0 0 0 1 1 4 1 10 0 15 0h33l7-1c1 0 2 1 3 0h1 4l-1 2z" class="C"></path><path d="M820 338s0-1-1-2h2c1 0 2 1 3 2 1 3 1 7-1 10-2 4-6 7-11 9-6 2-15 1-21-2-2-1-4-3-7-6h1 0c7 3 16 4 23 2 5-1 10-4 12-8 1-2 1-3 0-5z" class="F"></path><path d="M820 338s0-1-1-2h2c1 2 2 4 1 8s-6 7-10 9c-7 3-17 1-24-2-1-1-2-1-3-2h0c7 3 16 4 23 2 5-1 10-4 12-8 1-2 1-3 0-5z" class="P"></path><path d="M372 182v-9l26-1 2 1v1h1l1 1c0 1 0 2-1 3v3h-1-3-3v-2l-1-1-1 1v2c-1 1-1 1-2 1-5-1-13-1-18 0z" class="B"></path><path d="M604 459v1c-2 15-7 30-10 46-3 12-4 26-5 39-1 6-2 13-4 18h0c0-15 2-28 4-42 1-7 1-13 3-19 1-6 3-11 5-17 2-9 4-17 7-26z" class="H"></path><defs><linearGradient id="P" x1="369.653" y1="417.724" x2="372.789" y2="444.626" xlink:href="#B"><stop offset="0" stop-color="#85807b"></stop><stop offset="1" stop-color="#c3b9ac"></stop></linearGradient></defs><path fill="url(#P)" d="M364 418l9 6-1-1c-2-2-2-3-2-6v-2l1 3c1 2 2 5 4 6l1 1c-2-5-3-8-4-13l2 4c1 4 2 7 5 10 2 3 5 6 7 9-5 3-11 5-16 7-3 1-5 3-8 5-1 0-2-1-3-1 3-4 9-13 14-14h1c-1 2-3 4-4 6 3-1 7-3 10-4-5-5-11-8-16-12 0 0 0-1-1-1h0v-2l1-1z"></path><path d="M334 882l-8-4c4 1 7 2 10 4l2-2c2-1 6-1 9-1h18 28c-2 2-3 4-4 5h-38c-4 0-12 1-15 0-1-1-2-1-2-2z" class="E"></path><path d="M776 214c4 0 8 0 12-2v2 12s-1 1-1 2l-2 2c-1 0-1 1-2 1s-2-1-3 0c-1 0-1 1-3 1v1l1 1c2 0 3 0 4-1v2 1c-2 1-3 1-5 2v1h0c-1 1-2 1-3 3 0-5 0-24 2-28z" class="G"></path><path d="M779 223h-1c-1-1-1-2-1-4h2 2v3h-1l-1 1z" class="B"></path><path d="M781 219h1 3c1 1 1 2 1 4v1h-4-3v-1l1-1h1v-3z" class="L"></path><path d="M779 224h3c2 1 3 2 4 3l1 1-2 2-2-1h-4v-2-3z" class="I"></path><path d="M776 214c4 0 8 0 12-2v2c-1 2 0 4-1 5h0c0-1-1-2-1-2h-2c-3 0-6 1-8 0v-3z" class="O"></path><path d="M372 182c5-1 13-1 18 0 1 0 1 0 2-1v-2l1-1 1 1v2c-1 3 0 7 0 10v4h-1c0 1 0 2-1 2s-1 1-2 1l-1 1c-1 1-2 3-2 4v3l-1 1-1-1c0-3 0-7 1-9h1l1-2h-2-8v-6-4c-1-1-1-1-2-1h-3-1v-1-1z" class="M"></path><path d="M388 195h2c-1-1-1-1-1-2-1-2 0-3-1-4l-4-1v1h1c1 2 1 2 1 3-1 1-2 1-3 1h-1c-1-2-1-3 0-5 1-1 2-1 2-2h-1c0-1 1-2 2-2h0c0 1 1 1 0 2l1 2c1-1 2-1 2-2l1-1h0c2 2 0 6 2 9 1-2 0-8 0-10h1c0 3-1 8 0 11h1c0 1 0 2-1 2s-1 1-2 1l-1 1c-1 1-2 3-2 4v3l-1 1-1-1c0-3 0-7 1-9h1l1-2z" class="I"></path><path d="M471 373v-1c-10-3-21-9-29-16-2-1-4-3-5-5 2 1 7 5 10 7 7 5 17 11 26 14 7 3 14 2 20 3l-3 1h1c-2 1-3 1-5 1h-3c-1 0-2 1-3 1-2 1-4 4-6 6l-6 7c-2 1-2 1-4 0h-1c-2 0-3 0-5-1 1-2 3-4 5-7 1-1 3-2 5-3v-1c1 0 1-1 2-2h-1c-1 0-1-1-2-1 1 0 1 0 1-1h1 4 1c-1-1-2-2-3-2z" class="H"></path><path d="M468 380h0c-2 2-8 8-8 10l1 1c4-4 6-8 11-11 1-1 2-3 4-3h0c-5 5-8 9-12 14h-1c-2 0-3 0-5-1 1-2 3-4 5-7 1-1 3-2 5-3z" class="Q"></path><path d="M251 819c2-1 5-1 7-2-1 3-1 7-3 9v37-1c-1 0-1 0-1 1v3 1h0 2v4l-1 1c-2-1-3-2-4-3-1-3-1-6-1-9v-19c0-8 0-15 1-22z" class="B"></path><path d="M251 819c2-1 5-1 7-2-1 3-1 7-3 9v37-1c-1 0-1 0-1 1-2 1 0 4-1 6l-1-1v-1c0-3 0-6 1-8v-27c0-2-1-5 0-6 0-1 1-2 1-2v-1-1c-1-1-2-3-3-3z" class="H"></path><path d="M254 824l1 2h0c-1 3 0 6-1 10v14c0 2 0 7-1 9v-27c0-2-1-5 0-6 0-1 1-2 1-2z"></path><path d="M422 899h58c-1 1-4 4-5 4h-4-8l-44 1c1-1 1-1 1-2 2-1 2-2 2-3z" class="F"></path><path d="M795 276l60-1h35c6 0 12 0 17 1h1c-2 1-6 1-8 1h-15l-65 1c-10 0-19 0-29-1h-3c2 0 5-1 7-1z" class="B"></path><path d="M841 914l1 1c-1 1-3 2-4 2l-8 6c-15 10-31 20-46 32l-42-32c3 1 6 3 9 5l13 10c6 5 13 10 20 14 7-6 14-12 22-17 10-7 22-13 32-21h3z" class="G"></path><path d="M785 349c-5-5-7-9-9-15 3 2 5 5 8 8 5 5 11 6 18 5v-1c5-2 8-4 12-8l2-2c1 2 1 3 2 4l2-2c1 2 1 3 0 5-2 4-7 7-12 8-7 2-16 1-23-2z" class="E"></path><path d="M816 336c1 2 1 3 2 4-5 4-10 7-16 7v-1c5-2 8-4 12-8l2-2z" class="P"></path><path d="M846 314c1 2 1 5 1 8 1 4 2 8 2 12l1-3v5c-1 5-1 9-3 13l-1 2c1 1 1 2 2 2-6 8-14 14-25 15-5 1-10 1-14-2-1-1-2-1-2-2 7 0 14 1 20-1 2-1 3-1 4-2 6-2 12-9 14-14 5-10 2-21 0-32l1-1z" class="F"></path><path d="M738 285h14 24 32c6 0 13 0 20 1h0l-1 2c-3 1-6 0-8 0h-17-43-13c-3 0-5 1-8 0v-3z" class="B"></path><defs><linearGradient id="Q" x1="435.434" y1="536.893" x2="430.044" y2="537.781" xlink:href="#B"><stop offset="0" stop-color="#908e8d"></stop><stop offset="1" stop-color="#b6b1aa"></stop></linearGradient></defs><path fill="url(#Q)" d="M426 488c2 7 4 13 6 21 1 5 1 11 2 17l4 27 1 19v9c1 1 1 1 0 2v3c0 1-1 2-2 2-1-22-3-42-6-63l-2-15c-1-6-3-13-4-19h0c0-1 0-2 1-3z"></path><path d="M755 918h2c1 0 4 3 4 3l11 9 12 10c0 2 0 5-1 7l-2-1-31-24 5-4z" class="E"></path><path d="M196 285h56 20 11c0 1 0 2-1 3h-2-70-11c-2 0-4 1-5 0-1 0-1-1-1-2v-1h3z" class="N"></path><path d="M653 333c6-1 13-1 19 1v12h-1 0c-6 1-13-1-17 4 0 1-1 2-1 3l-1-1h0v-6h0v-6h2v-2h-1c-1-1 0-3 0-5z" class="L"></path><path d="M654 338h5l1 1c-1 0-2 1-3 1h-1-2v-2z" class="B"></path><path d="M652 352l1-2c1-2 2-3 4-4 4-3 10-1 14 0h0c-6 1-13-1-17 4 0 1-1 2-1 3l-1-1z"></path><path d="M222 836l1 1c-2 2-6 4-9 6-9 7-19 14-29 19l-1 1v1c11-8 23-14 35-21 1-1 2-2 4-3v1c-2 3-7 5-10 7-7 5-15 11-23 15l-11 7c3 3 6 4 9 6 4 3 8 7 13 9 1 0 2 0 4-1v1l-1 1c-2 1-6-1-8-3-5-3-13-6-17-11-1-3-2-5-3-8l46-28z" class="D"></path><path d="M337 219c7 1 14 0 21 0 4 0 7 0 11 1v1c-2 1-3 3-3 6 0 1 0 1-1 2h-27l-1-10z" class="C"></path><path d="M669 351h3c2 2 1 7 1 9-6 3-12 7-17 12-1 0-2 0-3 1v-1l-2 2c-1 1-3 3-4 5l-1-1c0-1 1-2 1-3h1l-1-1c0 1-1 1-1 1-1-1-1-1-1-2-2 2-2 3-3 5h0-1-1c0-3 2-3 2-5l4-3 3-3 1-1c1-1 6-6 6-7l2-2c2-1 3-2 5-2 1 0 1 0 2-1h1 2v-1l3-1v-1h-2z" class="E"></path><path d="M289 893c-5-1-12-1-18-1-2 0-6 1-7-1h0l62-1c5 0 13-1 17 1h1c0 1 1 2 1 3h-6-16c-3 0-7 0-9 1-3 0-5 2-6 3-2-1-2-1-3-1l4-3-13 1s-1-1-2-1h0c-2-1-3-1-5-1z" class="H"></path><path d="M651 225l1-1-1-1v-3c3-1 7 0 11 0 7 0 14 0 22-1l-1 10-11 1c-2-1-4-1-5-1h-12c0-2 0-5-1-7h-1v3c1 1 1 2 1 3l-3-2v-1z" class="C"></path><path d="M348 354c2 0 3-1 4 0h4l1 1h0 2 1l-1 2 10 7v1 1c1 2 2 3 3 5 0 1 1 2 2 3 2 2 3 5 5 8-1 2-1 2 0 4s1 3 2 5v1 1l-1 1v3c-1-2-1-4-2-6-4-10-11-20-20-26-3-2-7-3-9-4l-1-3v-4z" class="E"></path><path d="M348 354c2 0 3-1 4 0h4l1 1h0 2 1l-1 2 10 7v1 1c1 2 2 3 3 5-4-2-7-6-10-9-1 0-3-2-4-2-2-1-4-1-5-2-2-1-3 0-5 0v-4z" class="B"></path><path d="M369 366c-4-2-6-5-10-7-1-1-2-2-4-3h1l3 1 10 7v1 1z" class="F"></path><path d="M613 879h57c1 0 8 0 8 1 1 1 0 1 1 2h4l-1 1c-4 2-12 1-17 1h-28-18-1c-2-1-3-3-5-5zm-23 20h22l-2 4c-5 1-10 1-15 1l-29-1c-7 0-17 2-23-3l1-1h46z" class="C"></path><defs><linearGradient id="R" x1="625.386" y1="222.066" x2="639.427" y2="211.192" xlink:href="#B"><stop offset="0" stop-color="#a59e9c"></stop><stop offset="1" stop-color="#cac4b4"></stop></linearGradient></defs><path fill="url(#R)" d="M638 238c-1-5-1-10-2-15-1-4-2-7-3-10-2-5-4-9-6-13-2-3-4-6-4-9v-1l2 2c1 1 1 1 2 1 0 1 1 1 2 2h0 7v1c1 1 2 1 2 3v1c1 4 1 11 3 15 0 2 0 6-2 7 1 2 1 4 1 6l1 1v4c0 3 0 13-1 14-1-1 0-3 0-5-1-2-1-3-1-5v2h0v-2h-1v1z"></path><path d="M629 195h7v1c1 1 2 1 2 3v1c1 4 1 11 3 15 0 2 0 6-2 7l-2-11-2-5c-1-2-2-4-2-6-1-2-2-2-3-3l-1-1v-1z" class="C"></path><path d="M629 195h7v1 6-1l-3-3-2-2-1 1-1-1v-1z" class="R"></path><path d="M794 576l-1 35c0 11-3 24 0 35l1 1h-1l-1-1-3-2c-1-3 0-8 0-11-1-16-2-31-1-46 0-6 2-8 6-11z" class="B"></path><path d="M792 579h0c1 8 0 17 0 24 0 6 1 11 0 17-1 7-1 14-1 22-1-2-1-5-1-7 0-4 1-9 1-13-1-3-2-5-2-8 0-4 1-9 1-13v-1 2h1c1-2 1-3 0-5h0l-1 2c-1-1-1-1-1-2-1-4-1-10 0-14 1-1 2-3 3-4z"></path><path d="M233 873c3 0 6 0 8 1 6 1 11 3 15 8 3 5 5 16 3 22v1c-1 5-4 12-9 15-2 1-7 4-9 3-2-7 7-10 9-15 3-4 4-8 5-13v2c0 5-1 10-4 14-2 2-5 4-7 7l1 2h3c5-3 8-8 9-13h1c1-5 1-11 0-16h0c0-2-1-3-1-5-3-5-8-7-13-9l-4-1c-7-1-14-1-20 4-4 2-10 8-10 12v1c-1 4 0 8 1 11 2 5 5 10 9 13 2 1 5 2 7 3l2 2c0 2 0 3-1 5-3 1-6 0-9-1l-1-1c-1 0-1-1-2-1 0-2 0-3 1-5l1 1v4c3 0 4 1 6 2h3c0-2 1-3 0-4s-5-2-6-3c-4-2-8-7-10-11-3-4-5-9-3-14 2-8 7-15 15-18 3-2 6-3 10-3z" class="B"></path><path d="M530 149h1c2-1 9-1 10 0h1 1c5 1 9 2 14 4 12 5 23 12 33 20 5 3 9 7 13 10 5 5 9 12 13 17 8 11 12 24 14 37 2 12 4 24 3 37 0 5-1 10-2 15v8l-1 2c0-10 2-20 2-30s-1-20-3-29c-2-12-5-23-11-34-2-4-5-7-8-11-4-5-8-10-13-14-5-5-10-9-16-12-7-5-15-10-24-13-8-3-17-5-27-7z" class="H"></path><path d="M786 756l5 7 1 2c1 1 0 4 0 6v18l-1 33c0 9 1 18 2 27l-3 2c-1 1-2 2-3 2v-1h0c2-4 1-7 1-11v-15-40-16c0-2 1-5 1-6 0-3-2-6-3-8z" class="J"></path><path d="M779 679c-1-3-2-7-1-11 0-2 1-5 1-8 1-4 1-9 1-14 0-2 1-4 2-7 0-4 0-11-1-15-1-2-1-4-1-6v1 2c-1 2-1 4-1 6 0 7 1 14-1 20v2-2c1-6 0-11 0-16 0-3 1-6 0-9 0-2 2-6 1-8-1 1-1 3-1 4l-2 9c0-7 3-15 1-21-1-2-1-2 0-4 0-2 2-3 2-5 1-2 1-7 1-9l-1-1c-1 1 0 3-1 4 0-2 0-6-2-8 0 4 1 9-1 13 0-4 1-6 1-9 0-5-1-10 1-14 2-5 3-10 4-15v11c1 13 0 25 0 38 0 6 1 11 1 16 1 7 1 15 0 21 0 6 0 11-1 16-1 6-2 11-2 16v3h0z" class="C"></path><path d="M780 160l1-27c1-3 0-7 1-9l5 74c-5-1-6-1-10 1 0-2 0-5 1-7l2-32z" class="R"></path><path d="M781 167c1-2 1-4 1-5 2 3 1 6 2 9 0 6-1 12 0 18v1c-2 0-2 0-3-1 0-1 0-1 1-2-1-2-1-4-1-7v-13z" class="M"></path><path d="M778 192l2-32v10h1v-3 13c0 3 0 5 1 7-1 1-1 1-1 2 1 1 1 1 3 1v-1c1 1 1 2 1 3-1 1-2 2-4 2h0c-1-1-2-1-3-1v-1z" class="N"></path><path d="M537 880v-1h22 35c3 0 9-1 12 0l4 4 1 1h-1c-9-1-19 0-28 0h-42c-1-1-2-2-3-4z" class="G"></path><path d="M537 880v-1h22l-1 1 2 1c-2 1-7 0-9 0h0-10c-2 0-3-1-4-1z" class="J"></path><path d="M239 197l-5 1 5-77 2 42 3 36-5-2z" class="C"></path><path d="M237 190c1-4 0-10 1-14 0-5 0-10 1-14l1-1v2 26c-1 1-2 1-3 1z"></path><path d="M240 163h1l3 36-5-2 1-1h1c0-1 1-1 1-2s0-2-1-2l-1 1c-1 0-2 0-3-1v-2c1 0 2 0 3-1v-26z" class="B"></path><path d="M682 274l113 2c-2 0-5 1-7 1h3l-108 1c-1-1-2-1-2-1l-1-1v-1l2-1z" class="E"></path><path d="M276 296c-5-1-12-1-17-1h-43c-5 0-14 2-18 0-1-1-1-2-1-3 2-1 4-1 6-1h13l64 1 1 1h0c-2 2-4 3-6 5l1-2zm468 0c-2-1-3-1-4-2v-1c3-3 20-2 24-2h59l1 1c0 1 0 2-1 3-10 1-21 0-32 0l-30 1h-13-4z" class="B"></path><path d="M360 355c2 0 5 2 6 3s3 2 3 4c1 1 1 1 2 1 3 3 5 6 9 7 2 1 4 1 6 1 1 2 3 3 4 5h0v2 1l1 1 2 4 1 3v1c1 1 1 2 1 3h-1 0-2c-1-1-1-2-2-3v-1-1c-1-1-1-2-2-2v1c0 1 1 3 2 5h0c0 1 1 1 1 2h3l1 1c-4 0-9-1-13 0h-1v-1-1c-1-2-1-3-2-5s-1-2 0-4c-2-3-3-6-5-8-1-1-2-2-2-3-1-2-2-3-3-5v-1-1l-10-7 1-2z" class="C"></path><path d="M379 382c1 3 3 6 6 9h0l-1-3v-2h-1v-2h1v1c1 1 1 1 1 2l1 2 1 2 1 1h3 3l1 1c-4 0-9-1-13 0h-1v-1-1c-1-2-1-3-2-5s-1-2 0-4z" class="O"></path><path d="M362 199h0v-1c-1-1-1-2 0-3h7 0 3v-5l1-1-1 1v1h0-1c-1-2-2-3-1-4 0-2 1-3 2-4v1h1 3c1 0 1 0 2 1v4 6h-1-2c-1 3-1 6-1 9l-1 18h-1v-2l-1-1c0 2 0 5-1 6v2c-1 0 0-1-1 0v1l-1 1v1 1h-1c0-3 0-6 1-9l1 1h1v-1c0-2 0-3-1-4l-4-1-1-3v-5l-1 1c-1-1-1-3-1-4l-1-1v-2c0-2 0-2 1-4z" class="B"></path><path d="M368 200l-1-1 1-1h4l-1 2h-3zm-1 3l-1-2-2 2v-3l2-1 2 2 1 1v2h-1l-1-1z" class="C"></path><path d="M372 184h1 3c1 0 1 0 2 1v4h0v-4c-1 1-1 0-1 1h-2v3h1 1v1h-4l-1-6z" class="G"></path><path d="M362 199h0v-1c-1-1-1-2 0-3h7 0 3v-5l1-1-1 1v1h0-1c-1-2-2-3-1-4 0-2 1-3 2-4v1l1 6v5c-2 2-8 1-11 1l1 1c1 4 1 8 1 12l-1 1c-1-1-1-3-1-4l-1-1v-2c0-2 0-2 1-4z" class="T"></path><g class="I"><path d="M372 198v2h0c-1 2 0 5-1 8 0 2-1 9 0 11 0 2 0 5-1 6v2c-1 0 0-1-1 0v1l-1 1v1 1h-1c0-3 0-6 1-9l1 1h1v-1c0-2 0-3-1-4l-4-1-1-3c2-1 2-1 3-2-1-3-1-6 0-9l1 1h1v-2l-1-1h0v-1h3l1-2z"></path><path d="M369 228v-1c1-1 0 0 1 0v3c0 2 0 4-1 5 0 1 1 3 0 4 0 1 0 2-1 4 0 2 1 5 0 7 0 2 0 4-1 6h0c0 2 1 2 1 4v1l-1 1h0l1 1v1c-2 0-3 0-4-1h-9 0v1h0c-2 0-3 0-4-1l-2-12c1-2 3-3 4-4 2-1 3-2 5-2s2 1 4 0v-1h-3c1-5 8-6 10-10 1-1 0-5 0-6z"></path></g><path d="M369 228v-1c1-1 0 0 1 0v3c0 2 0 4-1 5 0 1 1 3 0 4 0 1 0 2-1 4 0 2 1 5 0 7 0 2 0 4-1 6 0-1-1-1-1-3h0l-1-1v3l-1-1-3-3 1-1 1-1v-1h-2l-2-1v4c-1 1-2 1-3 1l-2-1 1 1 2-2c1-2 1-3 1-5 2 0 2 1 4 0v-1h-3c1-5 8-6 10-10 1-1 0-5 0-6z" class="F"></path><path d="M617 173c2-1 6-1 8-1 8 0 16 0 24 1h0v9h-19l1 2h0v10c0-1-1-1-1-1l-1 1v1c-1-1-2-1-2-2-1 0-1 0-2-1v-2-1l-6-9-3-6h0l1-1z" class="I"></path><path d="M619 180l-3-6h0l1-1 1 1h3l1 1-1 1v1l1 1c-1 0-1 1-2 1l-1 1z" class="B"></path><path d="M622 178l1-1v-2l1-1c2 1 3 3 4 4h1c1 1 1 2 2 4h-1l1 2h0v10c0-1-1-1-1-1l-1 1v1c-1-1-2-1-2-2-1 0-1 0-2-1v-2-1l-6-9 1-1c1 0 1-1 2-1z" class="E"></path><path d="M629 178c1 1 1 2 2 4h-1l1 2h0c-2 0-2 0-4-1l2-5z" class="T"></path><path d="M627 183c2 1 2 1 4 1v10c0-1-1-1-1-1l-1 1v1c-1-1-2-1-2-2h1 1v-1c0-1 0-6-1-7s-1-1-1-2z" class="Q"></path><path d="M620 179c2 1 3 1 4 3h0 1c1 1 1 2 1 3v1l1 1-2 1c1 1 1 0 2 1s1 3 1 4h-1c-1 0-1 0-2-1v-2-1l-6-9 1-1z" class="K"></path><path d="M400 879h86l-3 5h-2-84-1l4-5zM233 233l1 1h0 1l1 1 1 1h5 2l1 2 1-1c0 3-1 5 0 7l1 23-1-2h0l-2 2-2-1h-1c-2 1-1 1-2 1h-4c-1 1-1 1-2 0h0v-2-1s0-1-1-1v-1-8l1-21z" class="E"></path><path d="M237 244c-1-1-1 0-1-2 2 0 5 0 8 1-2 2-4 0-7 1zm2 4h2c1-1 2 0 2 0l1 1 1 1-1 1v2l-1-1v2h-1c-1-1-4 0-5 0l-1-1v-3c1 0 2 0 3-1v-1z" class="I"></path><path d="M237 236h5 2l1 2 1-1c0 3-1 5 0 7l1 23-1-2h0l-2 2-2-1 1-1c1-1 1-1 1-2v-1c0-3 1-7 0-9v-2l1-1-1-1-1-1s-1-1-2 0h-2c-1 1-2 1-3 1v-4h1v-1c3-1 5 1 7-1l1-1c0-2 0-2-1-3-2-1-1 0-2 0h-2c-2-1-3 0-4-1v-2h1z" class="L"></path><path d="M348 140c0 1 1 2 2 3 3 2 6 5 6 9 1 3 0 5-2 8s-5 4-8 6c3-4 8-8 7-13 0-2-2-3-3-4-1 0-2-1-3 0-6 1-13 11-15 16-4 6-8 17-6 24 1 4 5 7 8 8 2-3 4-8 6-11 1 1 1 2 1 4l-1 1c0 2-1 4-2 6 0 1 0 1-1 2h-1s-1 0-1 1l-2-2c-2 0-2 0-4-1h-2c-1 0-2-2-2-2-4-5-4-11-4-17 1-15 16-28 27-38z" class="K"></path><path d="M651 226l3 2c0-1 0-2-1-3v-3h1c1 2 1 5 1 7h12c1 0 3 0 5 1 3 1 8-1 10 1v5s0 3-1 4c-1 4 0 10-3 14h-3c-2-4-4-6-7-9v1c-2-1-4-3-5-3h-1l-3-3c-2-2-3-4-6-4-1 1 0 1 0 3 0 0-1 1-1 2-1-2-1-3-1-5v-7c1 1 2 3 4 3l-1-2v-1c-2-1-3-2-3-3z" class="M"></path><path d="M668 245l-5-5h3 1c3 1 5 3 8 5-1-1-1-2-2-3-1 0-1-1-2-2h3 7c-1 4 0 10-3 14h-3c-2-4-4-6-7-9z" class="G"></path><path d="M655 229h12c1 0 3 0 5 1 3 1 8-1 10 1v5l-15-1h-7c-2-1-4-4-5-6z" class="J"></path><path d="M778 409c0 1 2 2 2 4 1 3 1 7 1 11v14l1 1v60l-1-1c0 2-1 4-2 6l-1-1c-2-2-1-6-1-9h0l-1-55v2c0-11 0-22 2-32z" class="B"></path><path d="M777 494c0-3 0-7 1-9 1-1 2-1 3 0 1 4-1 9 0 13 0 2-1 4-2 6l-1-1c-2-2-1-6-1-9zm1-85c0 1 2 2 2 4 1 3 1 7 1 11v14c0 8-2 16-2 24-1 6 0 13-1 19l-2-40c0-11 0-22 2-32z"></path><path d="M439 581c3-18 2-35 2-52h0c1 5 2 10 2 15s-1 10-1 15h1l1-9c0 1 1 1 1 1l-3 43c-1 24 2 56-15 75 10-26 11-53 10-81 1 0 2-1 2-2v-3c1-1 1-1 0-2z" class="B"></path><path d="M787 228c0-1 1-2 1-2l1 33h0l-1 2v2 3c-1 1-7 1-9 1l-1-1-1 1h3s0 1 1 1h0 1c-1 1-2 1-3 1v-1h-3-1l1-2h0l-1 1v1h-1c1-1 1-4 0-6v-16-4c1-2 2-2 3-3h0v-1c2-1 3-1 5-2v-1-2c-1 1-2 1-4 1l-1-1v-1c2 0 2-1 3-1 1-1 2 0 3 0s1-1 2-1l2-2z" class="L"></path><path d="M774 242c1-2 2-2 3-3v4c1 1 3 0 4 0h1 2 1v1l-1 1-1 1h-1l-1 1h0l1 1v1l-1-1c-1 0-2 1-3 1l-1-1h0l-1-3h-1l-1 1v-4z" class="B"></path><path d="M782 236c1-1 2-1 3-1 1 2 1 2 1 4h-1c-1 0-2 0-3 1h-1l1 1c1 1 1 0 2 2h-2-1c-1 0-3 1-4 0v-4h0v-1c2-1 3-1 5-2z" class="K"></path><path d="M774 246l1-1h1l1 3c0 1 0 1-1 2 0 1 0 2 1 4 0 2 0 5-1 7h1s0 1 1 0c0 1-1 2 0 3v2l-1 1h3s0 1 1 1h0 1c-1 1-2 1-3 1v-1h-3-1l1-2h0l-1 1v1h-1c1-1 1-4 0-6v-16zm-391-12v-5h1 0c0 7-2 14-2 21 0 12 0 24 1 35 1 10 1 20 3 30-2 5 2 10 0 16v2 1h-1c-5 1-8 6-12 10l2-24v1l1 12c1 0 1 0 1-1h1c1-2 1-8 1-10v-26l-1-22 1 1c1-3 0-10 0-12 0-3 1-5 1-7s-1-5 0-6 0-4 1-5h1v-6h0l1-1v-4z" class="I"></path><path d="M379 296c1 1 0 2 0 4 0 3-1 9 0 13l1-2v2c0-1 0-3 1-4v2 1c1 1 0 3 1 5 0 4 1 9 1 14 0 0-1 1-1 2-1-1-1-1-1-2-1 1-2 1-3 1 1-2 1-8 1-10v-26z" class="B"></path><path d="M774 321h1c1 1 2 2 2 4v1h3l1-2h0l1 2h1l1-1v-2h2v3h2 1l-1-3h-1v-1c1 0 2 0 3-1l1-1h0c0 2-2 2-2 3l1 1h0c1 0 1 0 1 1l1 1c1 0 1 0 3-1 0-2-2-2-3-4h1c1 0 2 1 3 2 0 1 0 2 2 3 0 1 1 1 2 0s2-3 3-5l-1-1c-1 0-2-1-3-1h0c-1 0-1 1-1 1l-1 2-1-1 1-2c1-1-1-3-2-4l1-1 3 4h4v-1c-1-1-1-2-2-3-1-2-1-2-3-3l-2 1v1-1s1-1 1-2h0 1 1l2 2c1 2 2 3 3 4 1-2 1-4 1-5 1-4 4-6 6-9-1 3-3 6-4 9-1 4 0 12-3 15v1h0c1 0 2 0 2-1 1-2 1-4 1-6 1-6 3-14 7-19 1-2 2-3 3-4-8 10-8 21-9 33-7 2-15 1-22 1h-31c1-7 0-14-2-21h1c1 1 1 0 1 1v1h0c1-2 0-2-1-4 0-1 0-1 1-2v1c1 0 1 1 1 2h1c1 3 3 5 3 8l3 9h7v-3h1l1 3h3c1-2 0-3-1-5h0z" class="L"></path><path d="M461 108c3-1 6-1 10-1-4 3-9 6-14 6l-29 11c-5 2-10 5-15 8-6 3-12 6-18 10-4 3-7 6-11 8v-1l2-2h1c1-1 0-1 1-1 1-1 2-1 2-2h0c-4 2-8 5-11 8l-3-1c4-6 13-14 19-17 6-2 11-3 16-6 9-5 17-10 26-14 6-2 12-3 17-6h1l1 1 5-1z" class="E"></path><path d="M428 124v-1h-1l6-3 14-5c2-1 4-2 6-2h4l-29 11z" class="F"></path><path d="M422 172l13-9c13-8 27-14 42-16 2 0 5-1 7-1 2 1 4 0 6 0l14-1c5-1 10-1 16 0v1h-4c1 1 2 1 4 1v1h-1c-15 0-29 1-43 4-19 5-39 17-54 30-3 3-6 7-8 10-3 4-7 8-9 12-3 4-5 9-7 14-5 14-9 31-9 46v20 2c-2-6-2-14-2-20 1-22 5-44 16-63 2-3 4-5 6-8 5-5 8-11 13-15 3-3 5-4 8-6 11-9 24-16 38-21 3-2 6-3 10-4h1l3-1c-4-1-7 1-11 2-13 3-25 8-37 15-4 2-7 6-12 7h0z" class="J"></path><defs><linearGradient id="S" x1="195.681" y1="338.214" x2="173.157" y2="349.834" xlink:href="#B"><stop offset="0" stop-color="#aaa39f"></stop><stop offset="1" stop-color="#c9beb0"></stop></linearGradient></defs><path fill="url(#S)" d="M169 315s1 0 1 1v4c0 6-1 14 0 19 0-4 1-21 3-24h3c-2 5-2 12-2 18 0 10 2 16 10 23 4 5 10 8 16 8h12 0l-1 2c-3 3-9 3-13 2-9 0-16-5-23-11-2-2-5-4-7-6-1-1-1-3-2-4l-1-1c-3-9-9-22-5-31h1c-1 6-1 14 1 19 2 6 4 14 9 18l8 7v-1c-3-2-5-5-7-8 0-1 0 0-1-1l1 2c-1 0-1-1-2-1-3-4-4-10-6-15-1-2-2-5-2-7-1-4-1-9 0-13h1c-1 8 0 15 3 22h1c-2-6-1-10-1-15 0-2 1-5 1-7h1 1z"></path><path d="M507 875c7-1 13 0 19 5 5 3 8 10 9 16 1 5-1 10-3 15-2 3-4 6-7 8-7 4-14 6-21 4-1-1-3-1-4-2h1c-2-2-4-2-5-4 1 0 1 0 2-1h-1v-1c-1-1-1-2-2-3l1-1 2 2c1 0 0 0 1-1l3 2c5 2 9 3 13 1h1l2-1c4-2 9-7 10-11 1-3 2-7 1-10v-1l-1-1c-1-5-5-8-9-10s-10-2-15-1c-4 2-8 5-10 9h-1c2-7 10-9 14-13v-1z" class="C"></path><path d="M525 919h-4-1c1-2 3-3 4-4l7-6v1l1 1c-2 3-4 6-7 8z" class="F"></path><path d="M528 903l1 1c1-1 1-2 1-3l1-1h0c1 3-1 7-3 10-1 1-2 3-3 4h-1c-1 1-2 1-2 2h-1c-1 1-2 1-3 1l-1 1c-2 1-4 0-5 1-2 1-4 0-5 0s-2 0-3-1h-1l-6-3c-1-1-1-2-2-3l1-1 2 2c1 0 0 0 1-1l3 2c5 2 9 3 13 1h1l2-1c4-2 9-7 10-11z" class="H"></path><defs><linearGradient id="T" x1="600.169" y1="135.647" x2="605.34" y2="123.935" xlink:href="#B"><stop offset="0" stop-color="#a89e90"></stop><stop offset="1" stop-color="#c3bbad"></stop></linearGradient></defs><path fill="url(#T)" d="M559 108v-2h1l1-1 3 1 1 1h1c7 4 14 5 21 8s13 7 20 11c7 3 14 5 21 9 4 2 7 5 10 8s5 5 6 9c1 3 2 5 4 8-1 0-1-1-2-1-1-2-3-3-4-4-1-2-4-3-5-4-15-13-34-23-52-30-4-3-8-4-12-5-1 0-6-2-8-3h0s-1 0-2-1h0-1v-1l-1-1c-1-1-2-1-2-2z"></path><path d="M686 208l-10-29c5 5 9 13 12 19 2-2 6-5 7-9 3-7-2-16-5-23-3-5-7-10-11-14-1-1-3-2-4-3-2 0-3 0-4 1-7 5 0 8 0 13-2 0-2-1-3-2-2-1-3-4-3-6-1-4 1-7 3-10 1-1 2-1 4-1h1v-1c-1 0-5-2-6-2 0 0-1 0-2 1l-3 3c-1 1-2 3-4 3 1-3 6-7 8-9l-7-6c-2 1-4 4-6 5 2-3 5-6 7-8l7 4c3 3 5 6 8 8 6 6 13 12 18 19 3 5 6 9 7 15s0 12-2 18c-3 4-7 6-11 9v2c-1 1-1 2-1 3z" class="G"></path><path d="M687 203v-1c2-4 5-7 9-9 0 0 1 0 2 1-3 4-7 6-11 9z" class="H"></path><path d="M642 155c1 1 3 2 4 4 1 0 1 1 2 1s1 0 1 1v1l1 2c2 4 2 10 2 14 0 2 0 3 1 5v2c1 0 0 0 1-1 2 0 3 0 4 1h1s1 0 1 1c1 1 1 4 0 6h0c-1 1-1 1-2 1l-3 1h-1 0-1c-1-2 0-5-1-7v-1-2c-1-1-1-2 0-3v-4c-2 0-2 0-2-1v-2 4h0v1 3 1c-1 3 0 5 0 7v1s0 1-1 1v3c1 1 5 0 7 1h2c1 0 2 1 3 2h1l-1-1c1-1 2-1 3-1h1c1 1-1 19-2 21v1h-4-1l1-1v-2-1-1h-2v3 2h-2c1-2 1-5 2-7v-6c0-2 1-6 1-9-2 0-7 1-9 0h-1v-2c-1 1-1 1-1 2l-3-2c-1 2-1 3-1 5v-4h-7-7 0v-1l1-1s1 0 1 1v-10h0l-1-2h19v-9h0v-1c0-3-4-7-6-9v-1h-1-1l-2-4h3 1 1c-1-1-2-1-2-3h0z" class="P"></path><path d="M657 205l2 1v6c-1 0-2-1-2-1v-6z" class="Q"></path><path d="M637 184v1c1 2 0 5 0 8l-1 1c-2-3-1-6-1-9l2-1z" class="F"></path><path d="M639 184h2c1 3 1 6 0 9h-2v-9z" class="H"></path><path d="M631 184h2c1 2 1 6 1 8v1l-3 1v-10h0z" class="K"></path><path d="M642 155c1 1 3 2 4 4 1 0 1 1 2 1s1 0 1 1v1l-1 1c1 2 1 2 1 5l-1-1c-1-2-1-3-4-4h-1v-1h-1-1l-2-4h3 1 1c-1-1-2-1-2-3h0z" class="M"></path><path d="M659 185s1 0 1 1c1 1 1 4 0 6h0c-1 1-1 1-2 1h-4c-1-1-1-3-1-5v-1l1-1c1 0 3 0 4-1h1z" class="I"></path><path d="M659 185s1 0 1 1c1 1 1 4 0 6h0c0-2 1-3 0-4h-6-1v-1l1-1c1 0 3 0 4-1h1z" class="M"></path><path d="M644 184h5c1 1-1 9-1 12v-2c-1 1-1 1-1 2l-3-2c-1 2-1 3-1 5v-4-9-2h1z" class="C"></path><path d="M643 186v-2h1c1 2 1 2 2 3h2 0l-2 2c-2 0-2-2-3-3z" class="B"></path><path d="M664 196h1c1 1-1 19-2 21v1c-1 0-2-1-3-1v-1c0-5 1-10 2-15v-4c1 0 1 0 2-1z" class="J"></path><path d="M377 195h1 8c-1 2-1 4-1 6 0 1-1 4-1 5-1 2 0 6 1 9 0 2-1 3-1 6v1l-1 1h2c0 2-1 4-1 6h-1v5 4l-1 1h0v6h-1c-1 1 0 4-1 5s0 4 0 6-1 4-1 7c0 2 1 9 0 12l-1-1 1 22v26c0 2 0 8-1 10h-1c0 1 0 1-1 1l-1-12v-1-6-12l2-54v-31c0-5 0-12 1-17v-4l-1-1z" class="D"></path><path d="M380 231l1 2c1 0 2 1 2 1v4l-1 1h0v6h-1l-1-1h-1c0-1 1-2 1-3 0-2-1-5 0-7v-3z" class="C"></path><path d="M379 244h1l1 1c-1 1 0 4-1 5s0 4 0 6-1 4-1 7c0 2 1 9 0 12l-1-1 1-20c0-2-1-5 0-6v-4zm-2 4h0v20c0 2 1 6 0 9v6c0 3 0 7 1 10 0 3-1 6-1 9v30c0 1 0 1-1 1l-1-12v-1-6-12l2-54z" class="B"></path><path d="M377 195h1 8c-1 2-1 4-1 6 0 1-1 4-1 5-1 2 0 6 1 9 0 2-1 3-1 6v1l-1 1h2c0 2-1 4-1 6h-1v5s-1-1-2-1l-1-2v-11-18h-1c0 1 0 4-1 5v-7-4l-1-1z" class="E"></path><path d="M380 220h0c1-1 1-2 1-3h1 0c1 2 0 5 0 8 1-1 1-1 1-2h2c0 2-1 4-1 6h-1v5s-1-1-2-1l-1-2v-11z" class="B"></path><path d="M294 274h37c3 0 11-1 13 1v2l-1 1H163l-37-1c-3 0-11 1-13-1h1l180-2z" class="N"></path><path d="M641 233v3h1 1c0 4 1 8 0 12h0c2 4 0 8 1 12 1 5-1 11 0 15h1v-7l2 72v3l-1-1c-2-3-5-5-8-7-2-1-4-1-6 0h-1c0-1 1-5 1-7 4-15 5-31 6-46s2-30 0-44v-1h1v2h0v-2c0 2 0 3 1 5 0 2-1 4 0 5 1-1 1-11 1-14z" class="B"></path><path d="M647 340c-1-1-2-2-2-3l-1-1v-2c0-2-1-3-1-5-1-2-1-5 0-7v-4c1-9 0-18 0-27v-22-3-12l-1-1c0-2 0-3 1-5 2 4 0 8 1 12 1 5-1 11 0 15h1v-7l2 72z" class="K"></path><path d="M392 283l-1-9c0-7 1-15 2-22s4-13 6-20c6-16 14-32 26-45 7-7 15-11 23-16 10-6 22-12 33-15 10-2 21-3 31-3 11 0 23 1 34 5 10 3 20 9 29 14 8 5 14 9 21 15 17 17 29 44 32 69 1 5 1 11 1 16l-1 1c1-20-6-42-15-60-7-12-14-23-25-31-2-2-5-4-7-5-1 1-3 0-4-1-1 0-1 0-2-1-1 0-2-1-2-1-1 0-2 0-3-1s-2-1-3-2-1-1-2-1l-1-1-1-1-4-1v-1l-2-1h-2l-7-3-3-2h-1-2c-1-1-1-1-2-1h-3c-2-1-3-1-4-1-1-1-2 0-3 0-2-1-4-1-5-1-1-1-3 0-5 0-2-2-10-1-12-1-2 1-4 1-5 1h-5c-3 1-4 1-6 1l-1 1c-1 0-3-1-4 0-1 0-2 0-3 1h-3c-2 0-2 0-2 1h-1-2-1c-1 1-1 1-2 1h-1l-9 4c-2 1-3 1-5 2h0c-1 1-3 2-5 3-1 1-7 4-8 4-3 1-6 3-9 5-11 8-19 18-25 30-8 13-14 30-17 45-1 8-1 18-1 26l-1 2z" class="G"></path><path d="M371 266c0 5 0 11-1 16l-1 48-1-2c-3-1-5-1-8-1-1-1-1-1-2-1h-2c-1-1-2-1-4-1 5-1 11 0 15 0l1-1 1-1v-4h-8l-1 1c-2 0-2 0-4-1h-3 0-3v-11c2 0 4-1 6-1h8c2-1 2-1 2-2h1l1-1c0-1-1-2-1-3-1-1-2 0-3 0-1-1-2-1-3-1l-1-1c-2-1-8 0-10 0v-4-7l1-19c1 0 4 0 5 1 2 0 3-1 5 0h6s1 0 1-1c1-1 1-1 1-3l1 1c0-1 0-1 1-1z" class="N"></path><path d="M371 266c0 5 0 11-1 16 0-3 1-8-1-10 0 2 1 9 0 11-2-1-1-9-1-11 0 0-1-1-1-2 0 0 1 0 1-1 1-1 1-1 1-3l1 1c0-1 0-1 1-1z" class="J"></path><path d="M350 288l2-1h3l2 1c1 1 1 2 3 2l-1 1 1 1h0c-2 0-2 0-2 1h-2l-6 2v-7zm3-7l-1-1c0-2-1-3 0-4v-1c1-1 1-1 2 0l1 1h3 8c0 2 0 2-1 3s-2 1-4 1v1h-8z" class="O"></path><path d="M350 288l1-19c1 0 4 0 5 1s1 1 2 1c1 1 2 1 3 1v1c-1 1-2 1-4 1-1 0-2 0-3 1-1-1-1-1-2 0v1c-1 1 0 2 0 4l1 1-1 1h6c0 2 0 2-1 3v1h0l-2 1h-3l-2 1z" class="B"></path><path d="M356 307h8c2 0 2 1 3 2v1c-1 1-1 1-2 1h-1-2 0l-1 1 1 1v1h0c-1 0-1 0-2 1-1 0-1-1-2-1h-3l-1-1h-3v1c0 1 0 1 1 1 2 0 3 1 5 3l-1 1h-3 0-3v-11c2 0 4-1 6-1z" class="C"></path><path d="M356 307h8c2 0 2 1 3 2v1c-1 1-1 1-2 1h-1-2 0l-1 1h-5c-1 0 1 0-1 0v-1h0l1-1v-3z" class="B"></path><path d="M399 362l1-1c2 4 5 8 8 11h1c3-1 7-1 10-1 4 0 9 0 13 1-1 4-1 9-1 14 0 2 1 5 0 7-1 1-3 1-4 0h-45c4-1 9 0 13 0l-1-1h-3c0-1-1-1-1-2h0c-1-2-2-4-2-5v-1c1 0 1 1 2 2v1 1c1 1 1 2 2 3h2 0 1c0-1 0-2-1-3v-1l-1-3-2-4-1-1v-1-2h0c-1-2-3-3-4-5l19 1-6-10z" class="K"></path><path d="M413 381c0-3-2-5-3-7l2 1 1-1c4 3 6 7 9 9l1 1 1 3v2l1 1-1 1-1-1-2 1v1l-1-1h-2c-2-1-4-9-5-10z" class="H"></path><path d="M413 381c0-3-2-5-3-7l2 1c3 4 9 11 9 16h-1-2c-2-1-4-9-5-10z" class="Q"></path><path d="M399 362l1-1c2 4 5 8 8 11h1c3-1 7-1 10-1 4 0 9 0 13 1-1 4-1 9-1 14 0 2 1 5 0 7-1 1-3 1-4 0h-3l-1-1c2 0 5 1 7 0v-3-3c0-2 0-5-1-6l-1-1v-1c-1-2-2-3-3-4l-1 1h0v1l-1 1c-1 1-1 0-1 1h-1-1c1 2 1 3 2 4h1l-1 1c-3-2-5-6-9-9l-1 1-2-1c1 2 3 4 3 7h-1v-1l-1-1v1l1 2-1 1-2-2c-1-2-2-3-4-5v1c0 1 0 2 1 3-1 0-1 0-3-1l-1 1 1 2h-1c1 1 1 2 1 3l-2-1v-1l-1-1v1c0 1 0 2 1 3v1h-1l-1-3c0-1 0-1-1-2l-2-3h0c-1 1 0 1 0 3v1h-1l-1-1c-1-1-1-2-2-3 0-1-1-2-2-3h0c-1-2-3-3-4-5l19 1-6-10z" class="E"></path><path d="M624 353l1 1c-1 5 1 8 2 13-1-2-3-4-3-6h-1c0 1 1 1 0 2l-7 8c5 0 11 1 16 0h8c4-1 6-4 8-6l1-1v1 2l-3 3-4 3c0 2-2 2-2 5h1 1 0c1-2 1-3 3-5 0 1 0 1 1 2 0 0 1 0 1-1l1 1h-1c0 1-1 2-1 3l1 1c-1 1-2 3-3 5-1 1-1 2-2 3s-1 3-3 4l1 2c-6 1-12 1-18 1h-19v-2h-1v-2-2l1-1v-2c1-1 1-2 1-3v-1l-1 1c-1-1-2-3-3-4v-1l2-2c2 1 3 0 5 1h1c1-1 1-2 2-2l1-1v-1c3-1 3-1 5-3l1-1c3-4 6-9 7-15z" class="C"></path><path d="M642 378c1-2 1-3 3-5 0 1 0 1 1 2 0 0 1 0 1-1l1 1h-1c0 1-1 2-1 3l1 1c-1 1-2 3-3 5-1 1-1 2-2 3s-1 3-3 4h-2v-1c1-1 1-2 2-3v-1l1-2c1-2 1-3 2-4v-1-1z" class="N"></path><path d="M614 381c1 0 1 0 2 1h0l2-1h2c1 3-1 8-1 10l2 1c-3 1-7 0-9-1-1-1-1-1 0-3l1-3 1-4zm21-7h1v1c1 0 1 0 1 1 1 1-2 3-3 5l-1 2c0 1-1 2-1 3-1 2-1 4-2 5s-2 1-3 1h0-2v-3l2-5c1-3 2-5 3-7h0l1-1h0v2l1 1 3-4v-1z" class="G"></path><path d="M406 172c4-1 8-5 11-7 31-23 74-36 112-30 12 2 23 4 34 8 14 5 29 13 41 22 4 2 9 6 12 9l-10-2c-3-3-8-6-12-9-12-8-25-14-39-18-9-3-20-5-30-6-13-2-26-1-38 1-7 2-15 3-21 5-18 5-33 13-47 24-2 1-5 2-6 4l3 1v1h-3c0-1 0-1-1-2-2 1-3 1-6 0v-1z" class="C"></path><path d="M548 373h1c2 0 4-1 6-1 7 0 17-1 24 0-1 3-1 9-3 10l-2-2c0 2 2 5 3 7s1 4 1 6h0l-13 1h-9c-3 0-7 0-10-1l-1-1-2-1h0v-1c-3 0-7-2-10-4-1 0-1-1-2-1h-1c-2-1-4-2-6-4v-1h-1c-2-1-3 0-5-1h-1l-1-1c1-1 2-1 3-1h3v-2c4 0 9 0 14-1 4 0 8-1 12-1z" class="E"></path><path d="M522 375c4 0 9 0 14-1 4 0 8-1 12-1l-2 1v1c1 0 3 0 4 1h1 1 3l1 1h2s1 0 1 1c2 1 1 0 2 0 1 1 1 2 2 2l-1 1-1-1c-1-1-2-1-3-2h-1l-4-1h-1-1c-2-1-4 0-5 0h-8c-1 1-3 1-5 1-3-1-7-1-11-1v-2z" class="F"></path><path d="M546 377c1 0 3-1 5 0h1 1l3 3 2 2c2 0 4 2 4 4 1 1 2 1 2 3l2 1h0c1 1 1 1 2 1l-1 1h-2l4 1h-5 1v1h-9c-3 0-7 0-10-1l-1-1-2-1h0v-1c-3 0-7-2-10-4-1 0-1-1-2-1h-1c-2-1-4-2-6-4v-1h-1c-2-1-3 0-5-1h-1l-1-1c1-1 2-1 3-1h3c4 0 8 0 11 1 2 0 4 0 5-1h8z" class="E"></path><path d="M522 377c4 0 8 0 11 1l5 4c3 3 7 5 10 9h-1l-5-5c-2-2-5-5-9-6-4-2-10-1-15-1h-1l-1-1c1-1 2-1 3-1h3z"></path><path d="M546 377c1 0 3-1 5 0h1 1l3 3 2 2c2 0 4 2 4 4 1 1 2 1 2 3l2 1h0c1 1 1 1 2 1l-1 1h-2l4 1h-5 1v1h-9l1-1-1-2h0l-4-4c-3-4-6-7-10-9h-1c5 3 10 9 13 14-4-2-6-6-9-9v-1l-1 1c-2-2-2-1-4-2l-2 1-5-4c2 0 4 0 5-1h8z" class="M"></path><path d="M538 377c3 2 5 3 7 5h0l-1 1c-2-2-2-1-4-2l-2 1-5-4c2 0 4 0 5-1z" class="C"></path><path d="M546 377c1 0 3-1 5 0h1 1l3 3 2 2-1 2-11-7z" class="N"></path><path d="M558 382c2 0 4 2 4 4 1 1 2 1 2 3l2 1h0c1 1 1 1 2 1l-1 1h-2l4 1h-5 1v1h-9l1-1-1-2c1-3-3-7-5-9 4 2 7 8 11 10v-1c-2-2-4-4-5-6v-1l1-2z" class="C"></path><path d="M652 241c0-1 1-2 1-2 0-2-1-2 0-3 3 0 4 2 6 4l3 3h1c1 0 3 2 5 3 3 3 3 5 3 9v1c-4 0-7 0-9 1l-1 1h-1-1c-1-1-2 0-4-1h-1c0 1 1 1 1 2h2l1 1c-3 2-5-1-5 4 0 1 0 2 1 3-1 1-1 1-1 2l1 1h2l1 2h0c1 1 2 2 2 3 3-1 8 0 11 0l1 20v8l-16-2-1 1 1 1-1 1s1 1 1 2c2 0 5-1 7 0h8c-1 1 0 1-1 2-4 0-9 0-12-1l-3 1v2 2h1c1 1 1 1 2 1l-1 1c-1 0-2 0-3-1 0-1 0-1-1-1v5h2l-1 1 2 1c-1 1-1 2-1 4h-1-1v5 12 6h0l-2-110h1c0 2 0 3 1 5z" class="K"></path><path d="M655 301h-1v-2c1-2 5 0 7-1l-1-1h-2-1c-1-1-2-1-2-1l-1-1c0-1-1-2-1-2l1-2c1 0 1 0 3 1 1 0 1 1 3 1h1c1 1 1 1 2 1h1 2 1l3 1h1v8l-16-2z" class="B"></path><path d="M652 241c0-1 1-2 1-2 0-2-1-2 0-3 3 0 4 2 6 4l3 3h1c1 0 3 2 5 3 3 3 3 5 3 9v1c-4 0-7 0-9 1l-1 1-1-1h-3l-1-1h-1v-1h1c0-1 0-1 1-1 2-1 2-1 3-1l-2-2c-1 0-1-1-2-1 2-2 1-3 2-5l-2 1c-1 0-1 0-2 1h0-1v-1-1-1-1l1-1c0-1-1-1-2-1z" class="I"></path><path d="M658 245c1 0 4 0 5 1l-2 1 1 1h0c2 0 3 0 4 1h0v1l-1-1h-3v1h1c1 0 0 0 1 1 1 0 2 1 3 1h1c1 0 2 1 2 2l-1 1h2v1c-4 0-7 0-9 1l-1 1-1-1h-3l-1-1h-1v-1h1c0-1 0-1 1-1 2-1 2-1 3-1l-2-2c-1 0-1-1-2-1 2-2 1-3 2-5z" class="L"></path><path d="M667 252h1c1 0 2 1 2 2l-1 1-6-1v-1h3l1-1z" class="R"></path><path d="M670 275l1 20h-1l-3-1h-1-2l-2-1-3-2h-1s-1-1-2-1v-1h3c1 0 1-1 2-1 2 0 4 1 6 0-1-1-1-1-3-1-1-1-2-1-3-1h-2l-1-1h-2l-1 1-2-2v-1-1c-1-2 0-1 0-2v-1-2c0-1 0-1 1-2l1 1 1-1v1c2 0 2 0 3-1 3-1 8 0 11 0z" class="I"></path><path d="M653 277c1 1 2 2 3 2 1 1 2 1 3 2h-3l1 1h2 0c-1 1-3 0-4 1v1l1 1-1 1-2-2v-1-1c-1-2 0-1 0-2v-1-2z" class="G"></path><path d="M494 889c2-4 6-7 10-9 5-1 11-1 15 1s8 5 9 10l1 1v1c1 3 0 7-1 10-1 4-6 9-10 11l-2 1h-1c-4 2-8 1-13-1l-3-2h0-1c-4-5-5-9-6-15l2-8z"></path><path d="M508 886c1-1 4-1 6 0h0c1 0 2 0 3 1l1 1c2 2 4 4 4 7v1c1 1 1 1 1 2h-2v-4c-2 0-5-4-7-5l1-1-2-1h-2l-1-1-1 1-1-1z" class="M"></path><path d="M509 891h4c1 1 3 2 3 3 1 2 1 4 0 5-1 3-3 5-6 6h-3c-1-1-3-2-3-3-1-2-1-4-1-6 1-2 4-4 6-5z" class="D"></path><path d="M509 893h3c2 1 2 2 3 3 0 3 0 3-1 5l-1 1h-2c1-1 1-1 1-2h-1 0l-2 2c-1-1-2-1-4-3v-3c1-1 3-2 4-3z"></path><path d="M436 373l6-1v3c1-1 1-3 2-3 2-1 5 0 7 0 7 0 14-1 20 1 1 0 2 1 3 2h-1-4-1c0 1 0 1-1 1 1 0 1 1 2 1h1c-1 1-1 2-2 2v1c-2 1-4 2-5 3-2 3-4 5-5 7 2 1 3 1 5 1h1c2 1 2 1 4 0l6-7c2-2 4-5 6-6 1 0 2-1 3-1h3c2 0 3 0 5-1h-1l3-1 14 1h-1-2v1h15c-1 0-2 0-3 1l1 1h1c2 1 3 0 5 1h1v1c2 2 4 3 6 4h1c1 0 1 1 2 1 3 2 7 4 10 4v1h0l2 1 1 1c-6 0-10-1-15-2h-1c-2 0-11 1-12 0l-1-1v1h-1c-2 0-4 1-6 0h-1 0c-1-1-1 0-2-1l-1 2c-4-1-9-1-12-2-2 0-3 0-4 1v1c-3 2-42 2-48 2 1-6 2-12 0-17l-1 2h-1v-1l-1 5c-1-2 0-5-1-6 0 0-1-1-2-1 0 0 0-2-1-2l1-1z" class="C"></path><path d="M445 383l-1-1c0-3 0-5 1-7 1-1 2 0 3 0v1l-1-1c-1 1-1 1-1 3l-1 5z" class="B"></path><path d="M530 385v1c-2 0-4-1-6-1 0-1-1-1-1-1l-2-1c-1-1-2-1-3-1h-1v-1h2c1 1 4 0 5 0 2 2 4 3 6 4z" class="I"></path><path d="M461 379s1-1 2-1h0v-1c-1 0 0 0-1-1v-1l1 1h3c1-1 2-1 3-1h-1c0 1 0 1-1 1 1 0 1 1 2 1h1c-1 1-1 2-2 2v1c-2 1-4 2-5 3l-1-4h-1z" class="F"></path><path d="M469 377h1c-1 1-1 2-2 2v1c-2 1-4 2-5 3l-1-4c1 0 1 0 3 1 1-1 2-2 4-3z" class="N"></path><path d="M504 377h15c-1 0-2 0-3 1l1 1c-5 0-11 0-15 2h-1-1c-5 3-10 4-14 8h-1l3-3c4-3 9-3 13-7h0 3v-2h0z" class="P"></path><path d="M446 378c1 1 1 2 1 3l2-2h3v1c0 1 0 1-1 2l-1 1v1c0 1-1 2-1 4l-1 1-1 2h-2c0-1-1-2-1-3h0c1-2 0-4 1-5l1-5z" class="J"></path><path d="M458 390v-1h0c-1 0-1 1-2 1v1h-5v-1l2-3c0-1 1-1 1-2l1-1v-1c1-1 4-4 6-4h1l1 4c-2 3-4 5-5 7z" class="G"></path><path d="M494 390h3l1-1h3 0c1-1 1-1 2-1l1-1c1 0 2-1 3-2s1 0 2-1l1-1c1-1 1-1 2 0l3 1 6 4c1 1 3 1 5 1h1c1 1 2 1 3 2-2 0-11 1-12 0l-1-1v1h-1c-2 0-4 1-6 0h-1 0c-1-1-1 0-2-1l-1 2c-4-1-9-1-12-2z" class="I"></path><path d="M493 375l14 1h-1-2v1h0v2h-3 0c-4 1-9 0-12 1-6 2-9 9-15 11v-1l-1-2c-2 2-2 3-5 3l6-7c2-2 4-5 6-6 1 0 2-1 3-1h3c2 0 3 0 5-1h-1l3-1z" class="F"></path><path d="M474 390c3-2 5-4 7-6s5-5 7-6c5-1 11 0 16-1v2h-3 0c-4 1-9 0-12 1-6 2-9 9-15 11v-1z"></path><path d="M397 169h-2v-1c2-3 6-3 8-6 8-6 16-12 24-17 12-7 25-14 38-18 9-2 18-4 27-5 17-2 33-1 50 2 5 1 11 2 16 4 18 5 36 15 50 26l-2 2h1c1 2 3 5 6 5h1l1 1s-1 1 0 2v1c1 1 2 2 2 3-9-4-16-11-24-17-21-13-47-21-71-23-42-4-83 12-114 38l-3 3h-2-6z" class="C"></path><path d="M397 169l2-2c2-2 4-2 7-2l2 1-3 3h-2-6z" class="M"></path><path d="M498 157h5c1 0 3 0 5-1 2 0 10-1 12 1 2 0 4-1 5 0 1 0 3 0 5 1 1 0 2-1 3 0 1 0 2 0 4 1h3c1 0 1 0 2 1h2 1l3 2 7 3h2l2 1v1l4 1 1 1 1 1c1 0 1 0 2 1s2 1 3 2 2 1 3 1c0 0 1 1 2 1 1 1 1 1 2 1 1 1 3 2 4 1l2 3c3 2 7 5 8 8 5 7 11 14 15 22 7 11 11 23 14 35 2 9 4 18 3 27-4 27-18 58-40 75-7 5-14 9-21 13-19 10-44 14-65 11-8-1-16-2-24-5-21-7-39-21-53-39-5-7-9-15-12-23-7-15-12-32-9-48 1-11 5-23 10-34 1-2 2-5 3-6 4-8 10-18 17-25 0-1 2-3 3-5 4-4 8-8 13-11 1 0 7-3 8-4 2-1 4-2 5-3h0c2-1 3-1 5-2l9-4h1c1 0 1 0 2-1h1 2 1c0-1 0-1 2-1h3c1-1 2-1 3-1 1-1 3 0 4 0l1-1c2 0 3 0 6-1z" class="I"></path><path d="M614 247c1 3 1 7 1 10 1 3 2 8 0 11v-1c0-2 0-4-1-5v-5c1-3 0-4 0-6v-1-2-1zm-197-25h1v2c0 3 0 5-1 8l-1-1v-1h0-1l-1-1c1-1 1-2 2-3v-2l1-2z" class="B"></path><path d="M411 293h1c0 1 0 1 1 2v1l4 8h-1 0-1v3c1 0 1 1 1 2l1 2-1 2c0-1-1-1-1-2v-1c-2-5-4-9-5-13 1-2 1-2 1-4h0z" class="C"></path><path d="M577 180l-5-3 1-1c2 1 7 3 9 5l1-1c3 2 7 5 8 8l-1 1 1 2-1 1c-4-5-8-8-13-12z" class="D"></path><path d="M583 180c3 2 7 5 8 8l-1 1c-2-1-5-3-5-5l-3-3 1-1zm-171 36c4-8 10-18 17-25v1c2-1 2-1 3-1l1 1-3 3-2 3c-1 1-4 4-4 6-1 3-4 6-6 9 0 2-1 4-3 6h0v-1h0v-2l1-1c0-1 1-3 2-4v-3c-2 3-3 6-6 8z" class="F"></path><path d="M418 213c1-1 1-2 1-3 0-2 0-3 1-4v-1c1-1 2-3 3-4 2-2 4-3 5-5l1-1h1l-2 3c-1 1-4 4-4 6-1 3-4 6-6 9z" class="H"></path><path d="M576 339v-1c1-1 2-1 3-2 1-2-1 0 1-1 1-1 2-2 4-3l4-4v1h0l-2 2 1 1 5-5 1 1c-1 0-2 1-2 2h2 0c-2 2-4 6-7 7-1 1-2 3-4 3-1 1-1 2-3 2l-1 1-2 2c-1 1-2 1-2 2l-2 1-2 1c0-1 1-2 1-3l-1 1-1-1 1-1c2-2 5-3 7-5v-1h-1z" class="F"></path><path d="M570 349l-4 3c-1 1-2 1-3 2h-1c-1 1-1 1-2 0v-1l-1 1-1-1v-1c-2 1-5 3-7 3-2 1-4 1-6 1l-7 2-2 1h-1l-4 1h-2c-1 1-3 1-4 1-1 1-1 1-2 1s-1 0-2 1h0l-1-1h0c1-1 2-1 3-1 1-1 1-1 2-1h2c1-1 1-1 2-1h2c1-1 1-1 2-1h2l1-1h2 1l1-1h2s1-1 2-1l5-1c1-1 3-1 4-2h1l4-2 2-1h1c1-1 2-1 2-2l3-2c1 0 2-1 2-1l2-1 2-2h1c1-1 1-2 3-2h1v1c-2 2-5 3-7 5l-1 1 1 1 1-1c0 1-1 2-1 3z" class="L"></path><path d="M498 157h5c1 0 3 0 5-1 2 0 10-1 12 1 2 0 4-1 5 0 1 0 3 0 5 1 1 0 2-1 3 0 1 0 2 0 4 1h3c1 0 1 0 2 1h2 1l3 2 7 3h2l2 1v1l4 1 1 1 1 1c1 0 1 0 2 1s2 1 3 2 2 1 3 1c0 0 1 1 2 1 1 1 1 1 2 1 1 1 3 2 4 1l2 3-1 1c-2-2-7-4-9-5l-1 1 5 3-1 1c-1-1-1-2-2-2v1h0c-2-2-4-3-6-5h-1-1c-1 0-1 0-1-1l-1-1-1 1c1 0 5 4 6 5 2 0 2 1 3 2 1 0 1 0 2 1v1c-1-1-2-1-2-1l-10-7c-1-1-3-2-5-3l-2-1-3-1v-1c-3-1-7-3-10-4h-1c-2-1-1-1-2-1h-2c-1-1-1-1-2-1h-2c-2-1-2-1-3-1-2-1-3 0-4 0-1-1-4-1-5-1-2-1-3 0-5 0h-12c-1 1-4 0-6 0l1-2h1 2 1v-1h-2l-3-1z" class="C"></path><path d="M498 157l3 1h2v1h-1-2-1l-1 2c-2 1-3 1-5 1h0c-2 0-2 0-3 1h-3c-1 0-1 0-2 1h-2c-1 0-1 0-2 1h-1l-4 1c-1 1-1 1-2 1l-1 1-2 1-7 4h-1c-1 1-3 2-4 3s-3 1-4 2l-9 6-2 2c-2 1-4 3-5 5-1 1-4 5-5 6-1 0-1-1-2 1l-4 4c0 1 0 1-1 2 0 0 0 1-1 1v-1h-2c0-2 3-5 4-6l2-3 3-3-1-1c-1 0-1 0-3 1v-1c0-1 2-3 3-5 4-4 8-8 13-11 1 0 7-3 8-4 2-1 4-2 5-3h0c2-1 3-1 5-2l9-4h1c1 0 1 0 2-1h1 2 1c0-1 0-1 2-1h3c1-1 2-1 3-1 1-1 3 0 4 0l1-1c2 0 3 0 6-1z" class="N"></path><path d="M505 168c12-1 25 0 37 4 23 7 41 22 52 43 12 23 16 54 8 79-3 9-8 19-14 27l-13 13c-7 5-13 10-21 13-5 3-10 5-15 6-3 1-7 1-10 2-5 2-10 6-15 8-2 1-3 2-5 2h1v-1c-2-1-5-2-7-3-3-2-6-4-9-5-6-3-12-3-17-5-13-4-23-11-33-19-17-15-28-37-29-59 0-8 0-15 1-22 3-20 10-39 23-53 17-20 41-29 66-30z"></path><path d="M510 339h2c1 1 0 2 0 4l-1 1c-1-1-1-2-2-3l1-2z" class="Q"></path><path d="M453 265l7 2-7 1-2-2c-1 0-2-1-3-1 1-1 3 0 5 0z" class="B"></path><path d="M464 268v-1l11-1 1 1c-3 1-6 3-9 2l-1-1h-2z" class="G"></path><path d="M519 283h1c-2 2-6 6-8 7-2 0-3-1-5-2-1 0-1-1-2-2h1c5 2 8 0 13-3z" class="K"></path><path d="M476 267v3c-2 2-8 1-11 1-1-1-1-2-1-3h2l1 1c3 1 6-1 9-2zm35-31v1c2 1 3 3 4 5h-8c1-4 1-7 1-11l1 5h2z" class="J"></path><path d="M484 262h3c2 0 5-1 6 1v2h-2-9v-1-1l2-1z" class="C"></path><path d="M545 266h1c1-1 9-1 11 1v4c-3 1-8 0-11 0-1-1-1-3-1-5z" class="J"></path><path d="M548 258c1 0 4 0 6 1 1 0 2 0 2 2 1 1 1 2 1 4h-2c-2 0-9 0-10-1v-1c0-2 1-4 3-5zm-82 1c2-1 5-1 7 0 1 0 2 1 3 2 0 1 1 2 0 3h-1l-12 1c1-2 1-5 3-6zm71 50l1-1c0-2 2-4 4-5s4-1 5-1c2 1 2 2 3 3 1 2 1 3 0 5 0 1-1 2-1 3-4-1-7 0-10-3 0 0-1-1-2-1z" class="B"></path><path d="M550 305c1 2 1 3 0 5 0 1-1 2-1 3-4-1-7 0-10-3h3c1-1 3-3 5-3 2-1 2-1 3-2z" class="F"></path><path d="M554 195c6 2 12 7 16 12 2 2 3 4 5 6 2 3 3 6 4 9-3-3-6-5-9-7-2-1-4-2-7-3h0l-2-8c4 2 7 4 10 6-5-6-11-10-17-15z" class="E"></path><path d="M464 197h1 0c-5 4-11 8-15 13 3-2 7-4 10-6l-2 8-9 3c-3 3-5 4-7 7l-1 1 2-4c3-10 13-18 21-22z" class="N"></path><path d="M511 320c1 3 3 7 5 10s8 7 8 9l-1 2c-3-1-7-6-10-8h0l-2-1c-4 1-8 5-11 8l-1-1-1-1c1-2 3-3 4-4 4-4 7-9 9-14z" class="F"></path><path d="M486 311h0l-2 2c-2 2-4 2-6 2-3 0-5-1-6-3-2-2-2-4-1-6 0-1 1-3 2-3 2-1 4-1 5-1 3 1 4 4 6 6 0 1 0 2 1 2s0 0 1 1z" class="I"></path><path d="M536 212c2-2 3-4 6-4 2 0 4 0 6 1 1 1 2 3 2 5s-1 4-2 6c-1 1-3 1-5 1s-4-1-5-2-1-2-2-4h1c0-1-1-2-1-3z" class="B"></path><path d="M478 225c3-2 5-3 6-6v-1h-1 0c-1 2-3 3-5 3s-4 0-5-1c-1-2-2-4-2-6s0-3 2-5c1-1 4-1 6-1s4 1 5 3c2 2 2 4 2 7-1 3-2 6-5 8-2 1-6 2-9 1h-1c2-1 5 0 7-1h0 2v-1c1 0 1-1 2-1h-1c-3 1-4 1-7 1v-1c1 1 2 1 3 1h1z" class="I"></path><path d="M562 216c6 2 12 4 17 9-1 2-1 4-1 6-1 2-1 2-3 3h-2c-3-1-4-4-6-7s-6-3-9-4l4-7z" class="E"></path><path d="M457 216h2c1 2 2 5 3 7-2 1-5 1-6 3-4 2-4 6-8 8h-3c-1-1-1-3-2-4-1-2-1-4 0-6 2-4 10-6 14-8z" class="I"></path><path d="M571 295h2c2 1 4 2 5 4 1 1 2 5 1 7-2 7-12 12-18 14 1-3 2-6 2-9 6-3 12-3 17-7-4 0-9 2-13 3-1 0-3 1-4 0v-2s3-2 3-3c2-2 3-5 5-7z" class="L"></path><path d="M447 295h2c2 1 3 3 5 5l4 5c0 1 1 2 0 3-4-1-10-4-14-3h0c3 3 9 5 13 6l1 1c1 3 1 6 3 10-5-4-12-6-16-11-2-3-3-5-3-8 1-3 2-6 5-8z" class="I"></path><defs><linearGradient id="U" x1="465.459" y1="324.043" x2="480.418" y2="297.953" xlink:href="#B"><stop offset="0" stop-color="#aa9d8e"></stop><stop offset="1" stop-color="#c9c3bb"></stop></linearGradient></defs><path fill="url(#U)" d="M471 330l-5-5c-4-5-6-10-5-17 1-4 3-8 6-10s7-3 10-2c3 0 6 2 8 5s2 6 1 10c-1-1 0-1-1-1s-1-1-1-2h0c0-2-1-4-2-6-2-2-4-3-6-3-3 0-5 1-6 2-2 3-4 6-4 9s1 7 3 10c3 2 8 4 11 4-1 2-1 3-1 5-2-2-3-3-6-4l-5-2c1 2 3 4 5 5l1 2h-3z"></path><path d="M508 231c0-11 2-21-3-32-2-4-7-9-8-13 6 2 9 8 14 12l8-8 4-4 1 1c-7 8-12 18-11 29 0 5 1 13 0 18h-2l1 1c0 1 0 1-1 1h-2l-1-5z" class="K"></path><path d="M562 268c5 1 12 6 16 10 3 3 6 7 7 10 3 8 2 19 1 27v1l-1-4c-1-8-3-16-7-22s-10-11-16-13c-1 0-2 0-3-1 1 0 2-1 3-1l-1-1v-1l3-1c-1 0-2 0-3-1 0-1 0-2 1-3zm20-59h0c2 11 2 22 1 33-1 4-2 8-4 11-3 6-10 9-16 11l-1-1c-1-2-3-4-4-5 5-2 9-4 13-7 10-9 10-29 11-42z" class="C"></path><path d="M438 209h1c1 11 1 23 5 33 4 8 10 12 18 16-1 1-1 2-2 4 0 1 0 1-1 2-6-2-12-5-16-9-7-7-5-36-5-46z" class="E"></path><path d="M511 304c1-4 5-11 7-16 2-2 3-4 5-6 3-3 10-5 14-6 3-1 4-1 6 0-1 1-3 2-5 3s-5 3-7 5c-1 1-3 2-3 2-1 1-2 0-3 0h0l1 2c0 2-2 5-3 7-4 9-4 19 2 27 3 3 6 5 10 6-2 2-3 5-6 6-3 0-6-3-8-5-4-4-6-10-7-15l-3-9v-1z" class="I"></path><path d="M525 286c0 2 0 2-1 2h-2v-1l1-1h2 0z" class="B"></path><path d="M442 274l1 1c1-1 3-3 4-3 2-2 7-4 10-4-1 0-2 1-2 1h-1c-1 1-1 1-1 2 2-1 4-2 7-3l1 8h14 4c0-1 0-1 1-1h3c6 1 12 4 17 7v1c1 5 5 9 7 14 1 2 2 6 4 7v1c-2 3-3 9-4 13-3 7-6 12-13 16l-2-1c-2-2-4-5-6-7 4-2 9-3 11-7 3-4 4-10 4-14v-1l-1-2c-1-8-5-15-12-19l-9-6c-2-1-8-1-10-1-7 1-11 1-17 5-12 8-15 22-17 35v-19l-3-3c1-7 4-15 10-20z" class="L"></path><path d="M442 274l1 1c1-1 3-3 4-3 2-2 7-4 10-4-1 0-2 1-2 1h-1c-1 1-1 1-1 2-6 4-13 9-16 16-1 3-2 6-2 10l-3-3c1-7 4-15 10-20z" class="M"></path><path d="M549 313c-2 2-4 3-7 3-2-1-4-2-6-4-1-3-1-5-1-8 1-3 3-5 6-7 2-1 6-2 9-1 4 2 7 5 9 8 2 5 1 12-1 17-2 6-9 11-14 15-6 6-12 11-18 15-3 2-6 4-10 5-5 2-9 1-15-1-7-4-13-10-19-15-4-3-8-7-11-10h3l-1-2c-2-1-4-3-5-5l5 2c3 1 4 2 6 4 0-2 0-3 1-5 3 2 5 4 7 7l8 9c3 4 6 9 12 10 3 0 7 0 10-1s4-4 6-6 5-5 8-7c2-3 4-6 7-8 3-3 8-4 12-7 3-2 4-5 5-8 0-4 0-8-2-10s-4-4-7-4c-2 0-5 1-6 3-2 1-3 4-3 6v1c1 0 2 1 2 1 3 3 6 2 10 3z" class="E"></path><path d="M473 328c-2-1-4-3-5-5l5 2c3 1 4 2 6 4s5 4 7 6l-1 1-7-5c-1-1-3-3-5-3z" class="B"></path><path d="M432 294c0 2 0 4-1 5-4-6-8-13-10-20-6-21 3-38 14-56-1 7-1 15 1 22 2 10 8 15 17 20-2 0-4-1-5 0 1 0 2 1 3 1l2 2c-3 1-9 3-11 6-6 5-9 13-10 20z" class="E"></path><path d="M451 266l-7 3c-7 2-13 6-16 12l-1 1c-4-13-2-26 3-38 0 2 0 4 1 6 3 6 10 13 16 15h1c1 0 2 1 3 1z"></path><path d="M586 220c5 11 13 21 15 33 4 18-1 33-11 48l-2-12c0-3-2-5-3-8-6-9-13-13-24-15h3c7-1 11-4 15-9 9-10 8-25 7-37z" class="E"></path><path d="M592 245l1 1c5 11 5 26 0 37-1-5-4-8-8-11h-1c-5-3-10-5-15-6 3 0 5-1 8-3 6-4 13-10 15-18z"></path><path d="M592 261l1 1c1 3 1 7 1 10l-4-4c-2-1-3-2-5-3l7-4z" class="D"></path><path d="M509 244c2-1 3-1 5 0 4 1 8 4 12 6 6 3 12 5 19 6-2 2-5 4-5 7-1 1-1 1-1 2h-11v-1c2 0 2 0 3-1h-3l-1-1h12c-4-1-9-1-13-1v4 1c1 2 10 0 13 1v3 1c0 1-3 1-4 1l-10 4c-5 3-11 7-16 7-2 0-4-2-5-3-3-1-6-3-9-4-4-2-9-4-14-5l1-4c3-1 10 1 13-1v-5c-3-1-10 0-14 0l-5-5c6-1 11-3 17-5 5-2 10-6 16-7z" class="I"></path><path d="M508 254c2-1 4-1 6 0 3 1 6 2 7 5s1 7 0 9c-1 4-5 5-8 6h0c-3 1-5 1-7 0-3-2-5-4-7-7 0-3 0-5 1-8 2-3 5-4 8-5z"></path><path d="M505 264c1 1 1 2 2 4v1l-1 1-1-1c-2-1-2-2-2-4h0l2-1z" class="F"></path><path d="M507 269c2 0 3 1 5 0s2-2 3-4l1 1h3c-1 2-2 3-4 5-2 1-4 1-7 0 0 0-1 0-2-1l1-1z" class="D"></path><path d="M505 264c1-2 2-3 4-3 2-1 3-1 5 0 1 2 1 3 1 4-1 2-1 3-3 4s-3 0-5 0v-1c-1-2-1-3-2-4z"></path><path d="M503 265c-1-2 0-4 1-6 2-2 4-3 7-3 2 0 4 1 5 2 2 2 3 5 3 7v1h-3l-1-1c0-1 0-2-1-4-2-1-3-1-5 0-2 0-3 1-4 3l-2 1h0z" class="B"></path><path d="M471 227c-2 0-5-2-6-4-3-4-4-9-3-14 2-11 22-28 31-34 7-5 18-6 27-4 6 2 11 6 16 10 8 7 15 13 21 21 3 4 3 9 2 14-1 4-3 8-7 10-3 1-7 2-10 1s-4-3-6-6c-1-2-1-5 0-8v-1c0 1 1 2 1 3h-1v1c0 2 1 4 2 6 2 2 5 2 8 2 2 0 5-2 6-4 2-2 3-5 2-8 0-5-4-9-8-11-2-2-5-3-8-3-6 1-10 5-13 10-4 6-6 15-5 23 2 8 8 15 14 21-8-4-16-9-19-18-1-2-1-5-1-8 0-9 2-18 6-25 2-4 6-9 10-10h2c0-1-2-3-3-4-3-3-7-6-11-8-4-1-9-2-13 0-7 3-14 10-19 15 2-1 5-2 7-3 8 6 11 14 13 23 1 8 2 20-3 26-4 6-9 9-16 11 8-9 15-16 14-29-1-7-4-15-9-20-3-3-6-4-10-5-5 2-11 6-14 11-1 3-1 7 0 10 1 2 3 5 5 6 1 0 3 0 5 1h-1c-1 0-2 0-3-1v1c3 0 4 0 7-1h1c-1 0-1 1-2 1v1h-2 0c-2 1-5 0-7 1z" class="E"></path><path fill="#fff" d="M692 411h1c1 2 1 20 1 23l-1 73c-1 4-4 7-6 10-7 10-15 18-25 26 9-12 12-21 12-36 0-14-4-29-15-40-6-6-13-9-21-12-20-7-42-6-63-6h-41v121c16 0 34 1 49-4 15-6 25-17 32-32v84 18 6c-1 2-4 5-5 7-4 7-8 13-13 19 1-11 3-25-2-36-3-7-10-12-18-15-11-4-24-4-36-5-2 0-6 0-7 1v91 40c0 21-1 41 6 61 7 21 21 40 40 51 4 3 9 5 14 7H411c2-1 5-2 8-3 4-2 8-4 12-7 21-14 36-38 41-63s4-51 4-76v-97-78c0-16 0-33-2-49-1-15-6-30-14-43-10-15-28-28-45-33-5-1-9-1-14-2 2-1 5-1 7-1h16 39 163 66z"></path><path d="M510 459h0l1 1c1 4 2 7 2 11v66 121 114l-1 55c0 3 0 5-2 8h0c-1 0-1-1-1-1-2-5-2-10-2-14v-60-106l1-118v-69c0-3 0-5 2-8z"></path></svg>