<svg xmlns="http://www.w3.org/2000/svg" xmlns:v="https://vecta.io/nano" viewBox="210 88 634 824"><!--oldViewBox="0 0 1024 1024"--><path d="M716 374c2 0 5 5 7 6l7 7-1 1c-1 0-1 0-2 1-4-3-10-7-12-12 0-1 1-2 1-3zm13-87h13c3 3 5 8 7 11h-14c-1-5-3-7-6-11zm-443 1h3c3-1 7 0 10 0l-7 10c-4 1-9 0-13 0 2-3 4-9 7-10zm428 92l13 11c-5 4-10 5-17 7l-13 3c3-3 6-5 8-7 4-4 6-9 9-14zm-397-2h1c2 5 4 10 7 15h1c2 3 5 5 7 7l-12-2c-5 0-9-2-13-4-2-1-4-2-4-4 2-2 4-3 6-4 2-3 4-5 7-8zm-22 6h1c1 1 2 1 3 2 1 2 2 3 2 5-1 5-4 10-5 14-5 12-7 21-8 34v2-1c-1-3-1-6-1-9-2-16 0-33 8-47zm442 0h0c2 3 4 6 5 10 5 12 6 27 5 40-1 4-1 8-2 11v-2c0-10-1-23-6-32-1-2-2-4-4-5-4-5-4-11-4-17 2-2 4-3 6-5zm-92-228h1c1 1 1 3 1 4v53c0 19 1 39 0 57-8 1-16 1-24 0h-2v-1c7-3 13-6 20-8h1v-5l-1-13c0-8 0-15 1-23 0-6 1-11 1-17v-30-12c0-2 1-4 2-5zm-272 0c1 0 1 0 2 1 1 4 1 9 1 13v27c0 21 2 42 1 64 6 2 13 4 18 8v1h-1l-22 1v-33-48-20-11c0-1 1-2 1-3zm261 68c1 10 2 21 1 31-1 2-5 4-7 5l-16 8c-2 1-5 0-8 0l-17-3c-2 0-4 0-6-1 8-1 16-2 24-5 16-8 23-19 29-35zm-249 0c1 0 1 0 1 1 1 4 2 8 5 12 7 12 21 22 34 26 3 0 9 0 11 2h-3c-7 1-13 3-20 3-2 0-4 1-5 1s-3-2-5-2c-6-4-13-8-19-12-1-10 0-21 1-31zm214-87c2-1 4-1 7-1 8 1 17 11 23 17 3 3 6 5 8 9 1 0 2 1 2 2 1 2 0 6 0 8 0 8 0 16-1 23l-3-12c-2-6-5-11-8-16-7-12-17-20-31-24-4-2-9-3-14-4l17-2zm-186 0c9-1 18 1 26 2-6 1-12 2-18 4-16 6-26 17-33 32l-6 19c0-3 0-5-1-8 0-7-1-14-1-22 2-3 5-6 7-8 7-9 15-17 26-19zm98 304c2 3 3 6 4 8 1 3 5 7 5 9v46h-7l-1-37-1-14v-6h-1c-1 4 0 11 0 15l-1 42h-8v-30c0-5 0-12 2-16 1-3 2-5 4-7l4-10zM228 275c5 3 10 8 16 11 8 4 17 7 25 11-1 2-2 3-3 5 2 2 5 4 7 6l-12 5c-6 3-12 7-18 12 2-10 2-19-6-26-2-1-5-2-6-3v-1-3c1-6-1-11-3-17z"></path><path fill="#fff" d="M241 298h2c2 1 3 2 5 4 1 1 1 1 1 3h-2l-6-7z"></path><path d="M802 270h1c-2 9-1 14 1 22-3 0-6-1-9 0-4 2-9 5-10 10-3 7 0 15 3 22-5-5-10-9-16-12-4-2-9-3-14-4 1-1 4-2 5-4-1-4-4-7-6-10l15-6c11-5 20-12 30-18zm-460-97c2 0 3-1 5 1 1 3 0 7 0 11v32l-1 19c0 4 1 8 0 11-8-4-15-9-22-14l-1-1c-1-1 1-4 2-5 7-11 15-22 15-36 0-4-1-6-3-9h-4c-2 2-3 4-3 6h-1s-1 0-1-1c0-2 0-5 1-7 3-5 9-6 13-7zm331-2l1-1c4 0 11 2 14 4s5 5 5 8c1 2 0 4 0 5h-1l-2-3c-1-2-2-3-4-3s-3 1-4 3c-2 2-2 5-2 8 0 8 4 16 9 22 2 2 5 4 6 6s1 5 2 7l-1 1c-3 8-15 15-22 18l-1-48v-17c0-3-1-7 0-10zm-308-12c1 0 1 0 1 1v103c-2-1-4-3-6-5l-6-5c1-7 0-14 1-21l1-62c2-4 6-8 9-11zm289 1l9 6c0 1 2 2 2 3 1 2 1 4 1 6v16 60l-5 5c-2 1-5 4-7 5V160zM284 307h9c1 9 1 18 2 27 2 11 6 22 10 33-2 4-5 8-8 13-1 1 0 1-2 1-3-4-7-7-9-11-2-5-4-10-5-15-3-16-2-32-3-48h6z"></path><path fill="#fff" d="M287 324l1 2c1 3 4 16 3 18 0 1-1 1-1 2h-1-1c-1-2-1-4-2-6v-1c0-5 0-10 1-15z"></path><path d="M510 545c0-3-1-5-2-7h6 1v1c-1 3-1 6-1 9 1-4 1-7 3-10h2c1 4 1 9 1 13l-1 1c-2 0-2 0-3-1-1 2-1 6 0 7s2 1 4 1c1 6 1 13 1 19 0 5 1 11 0 15-1 5-3 11-5 16l-4 9c-4-9-9-17-12-26v-1c-1-4 0-8 1-12 0-7 0-13 1-20h0 2c1 0 2 0 2-1v-7c-1 0-2 0-3 1-2-2-1-5-1-7s-1-6 1-7h2c2 2 4 4 5 7z"></path><path fill="#fff" d="M510 545h0c4 5 1 24 3 31 1 3 5 9 5 13l-2 2c-1-2-2-5-3-7h-1l-1 3c-1 1-1 1-1 2-1 1-1 2-2 3-1-2 1-5 1-7-2 2-1 3-3 5l-2-3c0-3 2-4 4-7 3-3 2-14 2-18s1-10 0-14v-3z"></path><path d="M288 218c2-1 4-1 6 0l2 1c-3 2-7 3-9 6 0 1-1 2 0 4 0 2 2 4 4 5 8 4 17 2 25 0l30 20c-5 1-9 1-14 1h-9c-23-2-48-7-70-16 9-2 22-5 27-14 2-4 4-5 8-7z"></path><path d="M279 234h2c1 1 4 2 4 4h-2c-2 0-3-1-4-2v-2zm41 13c4-1 7 1 11 3h-1c-4 0-8 1-11-2l1-1zm-21-5c3 0 8 0 10 1 0 1 0 2-1 2-2 1-5 1-7 0-1 0-3-1-4-2l2-1z" fill="#fff"></path><path d="M756 314c5 1 9 2 14 4 10 5 21 15 25 26 1 2 2 7 0 9-1 2-3 3-5 4-3 0-6 0-8-1l-2-2c3-5 7-2 10-4-1-2-2-3-4-5-1-1-3-1-5-1-4 1-8 3-11 6-1 2-1 4 0 6 1 4 5 7 9 9 1 7 2 13 1 20 0 6-1 13-2 20l-1 1c-2-18-5-34-14-49-2-3-4-6-6-8-1-1-2-3-3-4 0-2 0-5 1-7 5-2 13-1 18-1 5 2 11 3 15 7 1 1 2 3 3 4h0c0-2 0-3-1-4-4-5-11-9-18-10v-1c-6-1-11-1-17 0l1-19z"></path><path fill="#fff" d="M766 326h1c2-1 4 0 6 1l-1 1h-2c-1 0-5 1-6 0 1-2 1-2 2-2z"></path><path d="M738 307l15 1-2 33c-1 18-6 33-20 45l-1-2c-2-2-4-5-6-7-2-1-3-3-4-4 2-3 3-5 5-8 4 4 7 9 12 12-2-3-5-6-7-8-1-1-3-4-4-5l1-2c4-11 8-23 10-35 0-7 0-14 1-20z"></path><path fill="#fff" d="M744 324c1 5 1 10 1 16-1 1-1 3-2 4 0 1-1 0-2 0h-1c0-7 2-14 4-20z"></path><path d="M273 313h1l1 20c-8 0-18 1-25 5-4 3-9 7-10 12h1l3-3c7-8 20-10 31-10 0 1 2 7 1 8 0 1-2 3-2 4-2 3-5 6-6 9-7 13-12 29-13 43 0 7 1 13 0 19v-1c-5-16-7-32-4-49 0-1 1-5 1-5 1-1 2-2 3-2 3-2 5-4 6-7 1-1 1-3 0-5-2-3-4-5-7-5-3-1-5-1-7 0s-4 3-4 5c2 3 6 1 8 3v1c0 1-1 2-2 2-3 1-7 1-10 0-2-1-4-3-4-5-1-4 1-9 3-12 8-14 20-23 35-27zm235-59c6 0 10 1 15 4 4 3 8 8 9 14 1 7 0 13-4 18s-9 7-15 8c-6 0-11-1-16-4-4-3-8-9-8-14-1-6 0-12 4-17s9-8 15-9z"></path><path fill="#fff" d="M509 261c3 0 7 0 10 2s4 5 4 9c1 4 1 10-2 14-2 3-6 5-10 5-3 0-6 0-8-2-4-2-7-5-7-9-1-5 0-10 2-14 3-3 6-5 11-5z"></path><path d="M516 270h2c1 1 2 2 3 4 0 3 0 6-2 9-1 3-4 5-8 5-4 1-7-1-10-3-1-1-2-2-2-4-1-2-1-5 0-8 1-1 2-3 4-3 1 0 1 1 1 1 1 1 2 3 4 4 1 1 3 1 5 0 1-1 2-4 3-5zm222-56c10-2 13 9 19 15 3 3 8 5 11 7-13 6-27 11-42 14-11 2-23 3-34 4-6 0-12 0-17-1 8-7 21-11 27-20 3-4 2-5 1-9 4 2 8 4 12 4l1 1c5 1 11 1 16 1h1c5-1 9-2 12-6 0-3-1-6-4-7l-3-3h0z"></path><path d="M696 247h3c1 0 1 1 1 2-1 1-2 1-3 1h-5 0c1-2 2-2 4-3zm49-19h1v1 2c-3 3-5 3-9 3h-1c2-2 7-4 9-6zm-26 11c2 0 5 0 7 2h0c-2 2-4 2-6 3-3 0-5 0-7-1v-1c2-1 3-2 6-3z" fill="#fff"></path><path d="M537 134c2-1 7 0 10 1l17 3 13 1c-3 1-6 1-9 1-8 2-15 3-22 7-19 9-30 29-37 48-2-14-12-28-22-38-13-12-27-15-44-18l39-5c3 2 5 4 8 7 8 8 14 17 20 27 2-3 3-6 4-9 6-10 14-18 23-25h0zm266 118h1c-1 2-3 5-5 8-9 14-28 26-46 29-2-2-5-7-6-9H545c-2 0-8 0-9-1l-1-4c1 0 1 0 1-1h4 16l65 1h67 32c8 0 15 0 22-1 22-4 42-11 61-22z"></path><path fill="#fff" d="M774 273h2v1c-3 3-8 4-12 4h-2l1-1c3-2 7-3 11-4z"></path><path d="M217 255c11 6 24 10 37 14 9 2 19 4 29 6 15 1 31 0 46 0h83l57-1c4 0 14-1 16 1l1 4c-2 1-7 0-10 0l-194 1c-2 0-8 9-9 11-16-3-33-11-45-23-4-4-7-9-11-13z"></path><path fill="#fff" d="M250 277h4c2 0 5 1 7 2v2h-1c-3 0-7-1-10-3v-1z"></path><path d="M753 352c2 2 4 5 5 7 4 6 6 12 8 18 6 18 6 35 2 54s-15 37-31 48l-7 3c18-15 24-39 23-62 0-7-1-14-3-21-2-4-3-9-6-13 0-1-2-3-3-4 0-1 3-4 3-5 6-7 7-16 9-25z"></path><path d="M757 375c1 0 2 1 2 1 1 2 3 5 3 8-1 0-2 0-2-1-2 0-2-2-3-3 0-2-1-3 0-5zm5 20h0c2 1 2 3 3 5s2 4 1 7h-1c-2-1-3-3-3-5-1-2-1-5 0-7zm-2 33l2 4c1 4 0 10-2 14h-2v-1c-2-3 1-13 2-17z" fill="#fff"></path><path d="M277 352c2 6 3 13 6 19 2 3 4 7 7 10-3 8-7 16-8 25-4 24 0 47 14 67 3 3 6 6 9 10l-4-2c-16-10-29-25-35-43-7-23-7-48 3-70 2-6 5-10 8-16z"></path><path d="M275 375c1 0 0-1 1 0v2c0 2-1 3-3 5h-1v-2c0-2 1-3 3-5zm-5 18h1v1c1 4-1 11-3 13h-1v-1c-1-3 1-10 3-13zm5 32c2 5 2 12 3 17 0 2 1 3 0 5l-2-2c-4-5-2-15-1-20z" fill="#fff"></path><path d="M296 307h65l-18 12c-5 4-11 11-12 18 0 7 3 10 7 14-3 2-8 5-11 8-2 2-4 5-5 8v-2c0-5 1-11-2-15-4 1-8 6-10 10 0 3 1 6 2 10-1 2-3 5-4 6-3 3-5 6-7 9 1-1 3-2 4-3l9-10c2 1 2 2 2 4-1 5-9 10-14 13 0-1-5-5-5-7l2-2 7-10c0-1 2-2 2-3 0 0-1-1-1-2 0-2-2-7-2-9 0-1 2-3 2-3 2-4 9-12 9-17l-1-1c-2 2-3 4-5 6l-7 10-6-28c5-1 15-3 19-6l-1-1c-1-1-3 0-5 0-4 1-9 3-13 4h0l-1-13zm34-19h113 36c2 0 7-1 9 0l1 1c1 2 3 4 5 5 2 2 5 3 8 5h1-11-23l-173-1 8-10h26zm205 0l190-1c3 4 6 8 8 12h-18-196c3-1 6-2 8-5 3-2 5-5 8-6zm293-67h1c-8 10-15 19-25 26-5 4-10 6-15 8-30 15-62 14-95 15h-24c-5 0-10 1-15 0v-1c3-2 13-11 15-11 3-1 7 1 11 1h20c18-2 36-5 53-12l15-6c2-1 4-3 6-4h5 9c14-3 27-9 39-16z"></path><path d="M790 245h4v1c-2 1-3 2-6 3h-4c-1-1-1-1-1-2l1-1c2-1 4-1 6-1zm-23 8h1c2 0 3 0 4 1v1c-2 1-5 2-7 2s-4 0-6-1c2-2 5-3 8-3zm-29 6c2 0 3 0 4 1h0c-5 3-14 4-20 3l-7-2 23-2z" fill="#fff"></path><path d="M195 224c12 7 23 12 36 14 5 1 11 1 15 2 18 8 37 13 56 16 7 1 14 3 21 3h15c3 0 7-1 10-1 1 1 3 2 5 3l12 9c-4 1-8 1-12 1h-27c-13 0-26 1-39 0-10-1-20-3-30-5-18-5-38-12-51-26-4-5-8-11-11-16z"></path><path d="M339 264c1 0 2 0 4 1v1c-1 1-3 1-5 1s-2 0-4-1c2-1 3-1 5-2zm-110-18h0c3 0 7 0 9 2v1l-1 1c-1 0-2 1-3 1-2 0-5-1-7-3l1-1 1-1zm60 15c4-1 12 1 15 2v1l-2 1h-2c-4 1-10 1-13-2l1-1 1-1zm-39-6h8c3 1 8 2 10 5h-1-2c-3 1-14-2-16-4l1-1z" fill="#fff"></path><path d="M493 340h7c1 3 1 5 1 8 2 3 3 6 5 9 2 5 3 9 5 14h0c0-11-9-19-8-30 3-2 11-1 15-1-1 11-3 21-6 31-2 6-1 15-3 22 0 4-3 7-3 11-1 1 0 2 0 3 1 1 1 1 2 1l3-5h1c1 2 1 4 2 7l4-5c-2-3-3-5-5-8-2-5-1-11-1-16 0-3 0-6 1-9 2-4 2-9 3-13 2-6 4-12 4-18v-1l10 1v163l-7-1-1-74c-2 6-2 13-2 19-3-3-5-6-6-9 2-8 6-17 9-24 1-3 0-6 0-9l-1-10v-27c-1-6 0-12-1-18-2 9-1 18-1 27l-2-4c0-1 0-1-1-2-1 1 0 1-1 1l-1 1v2c0 2 1 3 2 4 1 0 2 0 2-1h1l1 21c0 5 1 10 0 15-2 6-6 13-10 18-3-6-11-20-11-27 0-2 0-5 1-7v-7c0-4 1-9 1-13 0-1 0-1-1-1-1 6-1 12-2 18 0 3-2 6-2 10 1 5 5 13 7 18l5 14c-2 3-5 9-8 11 1-8 1-15-1-23v7 12l-1 58h-6c-1-4 0-9 0-13v-29-121z"></path><path fill="#fff" d="M501 357c3 4-1 14 3 18 1-1 2-2 3-2 1 1 0 3 0 4l-2 3h-1l-1-1c-1-1-2-2-2-3v-4-15z"></path><path d="M493 537h7c0 13 0 25-1 37 0 4 0 8-1 13-1 3 0 5 1 7l7 16c1 4 3 9 4 13 1 6 0 11 0 16 0 4 0 7-1 11-1 2-3 5-4 7 0 2 0 5 1 7h1c1-3 2-5 4-8l2 8 1 1c0-3-1-8-1-10-1-9-3-19-1-28 1-7 5-16 7-23 2-4 3-9 6-13h0c-4-5-2-44-3-53h8v265l-3-3c-1-1-4-3-4-4-1-1 0-6 0-8v-27l-1-15c0 3-1 6-3 8v1 1h1c2 3 1 9 0 12l-6-9c0-1-1-2-1-3s1-4 2-4l9-25c-1-4-1-10-1-15v-22l1-20c0-10-1-20-1-30-1-10 0-20-1-30-1 2-4 8-4 10l2 2v4c-2 1-2-1-4-1h0c-1 2 0 5 0 7 2 1 2 0 4 1v12c0 6 1 15-1 21l-3 10c-2 3-4 9-4 13 2-2 2-5 3-8l4-10 3-6v16c0 1 0 3-1 5 0 1-1 1-2 1s-1 0-2-1c-1 2-1 3-1 5s0 2 1 3l3-1 1 23c0 4 0 9-1 13-1 7-5 14-9 20-3-4-5-9-7-14-1-3-3-8-4-12-1-6 0-14 0-21 0-2 0-6 1-8h2 1c1-1 1-3 1-5 0-1-1-3-2-3l-2 1-1-1c0-2 0-4-1-6 0-5-1-10-1-15l8 16c2 3 4 6 4 9 0 4 0 8-1 11 0 3 0 7-2 10-1 3-4 6-4 9 1 2 2 3 3 4h1c0-2 1-4 2-6 1-1 1-1 3-1 1 2 2 4 3 7l1-1v-5c-1-4-2-7-3-10-1-6-1-13-2-19v-1c-2-7-7-13-9-21-2-4-1-10-1-15v-20h1l2 1c1 0 2-2 2-3 0-2 0-3-1-5-2-2-1 0-4-1 0-5 0-10-1-16-1 16-1 32-1 48 0 2 0 5-1 7 0 1-1 2-1 3 0 10 2 19 2 29l-1 19c0 3-1 6-1 9s2 7 3 9l4 13c1 3 3 6 3 9 0 5-2 9-3 14l4 6c0-6 1-9 2-14l9 15c2 4 1 13 1 18-9-10-15-22-21-34-3-6-6-14-6-22-1-7-1-15-1-22v-40l1-138zm-53-384h3c9 0 18 2 26 6 8 5 14 12 20 18-10-1-22-1-32 1-7 2-15 6-19 12s-5 13-3 19c1 5 5 10 10 13 6 4 12 4 18 2 6-1 12-6 15-11 2-4 4-10 2-14-1-3-3-5-6-6-4-2-10-2-14-1l5 2c2 1 4 3 4 6 1 2 0 6-1 9-2 2-5 4-8 5-3 0-7-1-9-3-3-2-4-5-4-8s1-7 3-10c6-5 12-7 20-7 5 0 11 0 17 1 2 0 5 0 7 1 2 2 3 6 3 8 6 18 4 38 4 56l-3 2c-6 4-9 8-11 14h-5l-11-1-30-2c7-2 15-3 22-6 10-4 22-13 27-24 4-10 2-25-2-35 0 12 1 23-7 33-9 11-21 19-35 20-12 2-24-1-33-9-11-9-19-21-21-35-1-14 2-27 11-38 10-12 22-17 37-18z"></path><path d="M423 181h1c0 2-1 6-1 8-1 1-1 2-3 2l-2-2c0-3 3-6 5-8zm-4 45c2 0 8 3 10 5 2 1 2 2 2 4-3 0-7-2-9-4-2-1-3-3-3-5zm20-64c8-1 17 2 24 4-9 1-17 3-23 9-4 4-7 8-10 11 1-3 2-6 4-9 2-4 5-7 8-11l-7 1c-9 2-16 7-21 14-3 4-4 8-3 13 3 12 13 20 23 27h-2c-12-4-20-13-26-24-1 11 0 21 7 30 3 4 7 8 11 10 9 6 18 4 27 2-5-3-8-5-12-9l8 4c8 3 15 1 23-2-5 4-10 8-17 10-11 3-23 3-32-3-9-5-15-14-18-23v-4c-2-14 1-27 10-38 6-8 16-11 26-12z" fill="#fff"></path><path d="M572 153h1c14-2 28 3 38 12s17 22 17 35c1 14-4 27-13 37-10 10-21 16-34 17-14 0-26-5-36-14-11-10-14-21-14-36l-1 2c-3 9-2 23 2 32 6 11 20 19 31 23 5 1 10 2 15 4l-44 3c-2-5-5-9-10-13h-1l-4-2c1-5 0-10 0-15 0-17-1-35 6-50 4-1 9-1 13-2 6 0 13-1 20 0 5 1 10 4 13 9 1 3 2 8 1 11s-3 5-6 7c-2 1-7 1-9 0-3-1-6-3-7-6s-1-6 0-9c2-4 7-5 11-6h-2c-6-1-13-1-18 3-2 2-2 4-2 7 0 6 3 12 7 16 4 5 10 7 16 7 7 0 13-2 17-6s7-11 6-17c0-6-3-13-8-17-13-10-31-9-46-8 3-3 7-7 10-11 9-8 19-12 31-13z"></path><path d="M596 179c2 2 4 4 5 7 1 1 1 2 1 3-2 1-2 1-4 0-2-2-2-7-2-10zm0 48h3 0c-2 4-5 5-9 7h-3c2-4 5-6 9-7zm-23-65h0c10-1 20 1 28 7 9 8 15 19 16 31 1 11-1 21-8 30-6 7-17 13-26 14-13 1-24-4-34-12l7 3c11 2 19-2 27-7-4 6-8 9-15 11 7 2 13 3 21 1 6-2 11-6 15-10 9-10 10-20 10-33-6 9-11 14-21 17l6-4c5-5 10-12 10-19 0-5-2-10-6-14-7-8-17-11-27-11 5 5 10 12 11 19l-5-7c-7-9-16-11-26-12 5-2 11-4 17-4z" fill="#fff"></path><path d="M369 307h366v12l-4-1c-4-1-14-4-17-2l1 1c2 1 5 2 7 2l12 3c-1 10-3 18-6 27-3-5-7-11-12-15v1c0 3 2 6 4 8 2 4 4 7 6 11-2 5-4 13-7 17-1 0-1-1-1-1-2-2 2-9 2-12-2-5-6-8-11-10-1 6-1 13 0 19h1l-5-6c-5-5-12-9-19-10h-1 0l2-1c2-2 3-4 3-6s-1-3-2-5c-5-4-11-5-17-6-10-1-19 0-28 0h-42-116v178h59 15 8c6-1 14-7 18-11 21-16 32-39 41-63 2-7 4-16 9-22 3-5 9-10 15-10 6-1 11 0 15 4-2 1-5 1-7 3-7 3-12 9-14 17-2 5-2 10-3 16v34 60 48c0 8-1 16 0 24s3 16 6 23c4 7 10 15 18 17h1l-1 1c-5 2-13 3-18 1-9-4-13-12-17-20-14-37-20-80-58-101-1-1-2-1-4-1-3-1-6-1-10-1h-20-38c-4 0-11 0-15 1v142 40c0 11 0 23 2 34 3 15 11 30 20 42 10 13 22 25 38 31 8 2 17 4 25 5-1 2-5 5-7 7-5 6-11 12-17 19-15 18-28 42-35 65-4-10-8-20-13-28-10-17-23-31-37-44-14-15-29-29-45-41-23-18-41-25-70-21 3-4 7-8 12-10s10-3 14-3c9-2 18-4 27-8 13-8 22-28 26-42 4-15 3-29 3-44v-39-114-90c0-15 1-31 0-46 0-9-2-18-5-26-6-15-16-28-31-35-4-3-10-4-14-7s-6-7-9-11z"></path></svg>