<svg xmlns="http://www.w3.org/2000/svg" xmlns:v="https://vecta.io/nano" viewBox="64 16 576 652"><!--oldViewBox="0 0 688 752"--><path d="M266 188h2 0v1c-1 3-3 4-5 5-1 1-1 1-2 1v-2c1-3 3-4 5-5zm161 0h1c2 0 4 1 5 3 1 1 2 2 1 3v1c-2-1-4-3-6-4-1-1-1-2-1-3zM275 292v1l1 4-8 1h-1c1-2 6-4 8-6zm145 0c2 1 8 4 8 6h0-9l1-6zM284 171c1 3 1 5 2 9l-8-1h-1-1c3-3 6-5 8-8zm128-1c2 3 4 6 7 9h1 0-2l-8 1c1-4 1-7 2-10zM171 398h1v1c-3 4-7 6-11 9l-18 12h-1 0l20-15c3-2 6-5 9-7zm353 0h0c1 0 1 0 2 1 4 2 6 5 9 7l19 15c-2-1-16-11-19-13l-9-6c-1-1-2-2-2-4zM169 131c2 0 24 18 27 21 1 1 2 2 2 3l-1 1c-3-1-9-8-11-11l-17-14zm358-2l1 1-16 14c-4 4-8 9-13 12h-1v-1c0-2 5-5 7-7l22-19zm-37 397c1 0 1 4 2 5l3 2-2 1c-2 2-2 4-2 6h-1c-1 0-1-3-2-4l-3-3c1-1 2-2 3-2 1-1 1-4 2-5zM242 317h1c2 1 4 1 6 0h1l-1 1c-1 2-1 4 0 7 1 1 1 0 0 1h-1c-1-1-2-1-3-1-1 1-1 1-2 1v-2c-1-1-2-1-3-3l2-2v-2zm-47 208c1 2 2 6 4 7 1 0 1 1 1 1-2 2-3 4-5 7-1 0-1-3-2-4l-3-3c1-1 2-1 3-2s2-5 2-6zm258-208h1c0 2 0 2 2 4 0 1-2 1-2 3-1 0-1 1-1 2h0c-1 0-2-1-3-1h-1l-2 1-1-1c1-2 1-5 1-7l-1-1h1c2 1 3 1 5 0h1zm-318-48c2 0 3 0 4 1v1c-3 2-7 1-11 1h-14-6l27-3zm426-1l27 4h-2-16c-3 0-6 1-9 0-1 0-2-1-2-2s1-1 2-2zM397 381h2c1 0 2 1 3 2s1 3 1 4c-1 2-2 2-3 3h-4c-1-1-2-2-2-3-1-1-1-2 0-3 0-2 1-3 3-3z"></path><path fill="#fff" d="M397 383h3c1 1 0 2 0 3 0 2 0 2-1 2s-2 0-3-1c0 0-1-1-1-2l2-2z"></path><path d="M172 356l1-1c1 0 2 0 3 1-1 1-2 2-3 2l-12 3-23 5c-1 0-3 1-4 1l9-3 29-8zm125 25h3l3 3c0 1 0 3-1 4 0 1-1 2-3 2h-2c-2 0-3-1-3-3-1-1-1-3 0-4 0-1 1-2 3-2z"></path><path fill="#fff" d="M298 383c2 0 2 1 3 1v3c-1 1-1 1-2 1s-2 0-3-1v-2c0-1 0-1 2-2z"></path><path d="M445 455h2c4 5 7 11 10 17l6 10c1 2 3 4 3 6-5-6-9-14-14-21-2-3-5-6-6-9-1-1-1-2-1-3zm-196 0h2v1c0 3-2 5-4 7l-6 9-10 15-1 1h0l10-19c3-5 5-10 9-14zm272-100c4-1 21 5 26 7l15 5h0l-38-9c-2 0-3-1-4-2l1-1zm-56-249v1l-14 24c-1 2-3 4-5 4l-1-1c1-5 7-10 10-14l10-14zm-236-1c1 1 16 20 18 22 2 3 4 5 3 8h-1c-2-1-3-2-4-3-2-3-3-6-5-9-3-6-8-12-11-18zm360 81h1l-11 7-12 7c-3 2-5 3-8 4l-1-1-1-1c3-5 25-13 32-16zM300 349h3v15l-8 1c1-3 3-5 5-8l-4-7h0l4-1zm93 1c2-1 5 0 8 0-2 2-4 4-4 7 0 2 1 4 3 6l1 2c-1 1-6 0-8-1v-14zM107 186h0l23 10c3 2 7 3 8 5 1 1 1 1 1 2s-1 1-1 1c-3 0-17-9-20-11-4-3-8-5-11-7zm24 52c3 0 6 0 9 1 2 0 3 0 4 2h-1c-3 1-5 1-8 1l-16-1-14-1c3 0 6 0 10-1l16-1zm427 0l35 2h1l-7 1-20 1c-4 0-8 1-11 0-1 0-2 0-3-1 1-2 3-2 5-3zM347 661h1 1c1 1 1 2 1 3v12l-2 20h0l-2-30c0-2 0-4 1-5zm-54-393h7c1 1 1 2 1 3 0 3 1 10-1 12-1 2-3 2-5 2h-5c3-2 6-5 7-8 0-3-2-6-4-9zm105 0h5c-1 2-4 6-4 8-1 3 4 6 6 9h0c-3 0-6 0-8-1-2 0-2-1-3-3 0-3 0-9 2-12 0-1 1-1 2-1zm-150 17c1 0 3-1 4 0 2 1 3 2 4 3 1 2 1 5 0 7s-3 3-5 3c-1 1-2 1-3 0-2 0-4-2-5-4s-1-3 0-6c1-2 3-2 5-3z"></path><path fill="#fff" d="M248 288h2c1 0 2 1 2 2 1 0 1 2 0 3 0 1-1 1-2 2h0c-2 0-3-1-4-1-1-2-1-2 0-4 0-1 1-1 2-2z"></path><path d="M444 285h3c2 0 4 1 5 3s1 4 0 6c0 2-3 3-4 4-2 1-3 1-4 1-2-1-4-3-5-4-1-2-1-4 0-6s2-3 5-4z"></path><path fill="#fff" d="M445 288h2c1 0 2 0 2 1 1 1 1 2 1 3 0 2-1 2-2 3h-1c-1 0-2 0-3-1s-1-2-1-3c0-2 1-2 2-3z"></path><path d="M305 28c1 2 1 4 2 6 1 5 2 11 7 13h1c-1 1-2 2-2 3-1 1-1 2-1 3 0 6 1 13 2 20 0 2 1 5 0 7-1-2-1-5-2-7l-4-18c-1-1-1-3-2-4 0-1-3-2-4-2l1-1 1-1c3-4 1-14 1-19zm85 1c1 1 0 8 0 10 0 4 0 6 3 9v1h0c-1 0-2 1-3 1 0 1-1 2-1 3-2 3-2 7-3 11-1 5-3 10-4 15v1c-1 0-1-3-1-4l2-16c0-2 1-5 0-7 0-2-1-4-2-6 7-3 6-11 9-18zm42 311h5c2 1 4 3 5 6 1 2 1 5 0 7-2 3-4 4-7 5-2 0-4 0-5-1-3 0-4-2-5-5-1-2-1-4 0-7 2-3 4-4 7-5z"></path><path fill="#fff" d="M432 344h2c2 0 2 1 3 2v3c0 2-1 2-3 3h-1c-1 0-3-1-3-2-1-1-1-2-1-3 1-2 2-2 3-3z"></path><path d="M260 340h5c3 1 5 3 6 6 0 2 0 5-1 7-2 3-4 4-7 5-1 0-3 0-5-1-2 0-4-2-5-5-1-2-1-5 1-7 1-3 3-4 6-5z"></path><path fill="#fff" d="M261 344h2c1 0 2 1 2 2 1 1 1 2 1 3 0 2-1 2-3 3h-2c-1 0-2-1-2-2-1-1-1-3-1-4 1-1 2-1 3-2z"></path><path d="M280 306l7 4c1 1 2 1 4 2 5 1 11-4 15-7l-3 5-3 6v2 2c1 2 2 5 3 7 1 1 2 2 3 4h-1c-4-3-8-5-12-7-6 2-10 4-14 8 2-4 5-8 6-13-1-5-2-9-5-13zm136-1c-3 4-4 9-6 14 2 5 4 9 7 13-4-4-8-6-13-8-4 1-9 4-12 6l-2 1 1-1c1-3 4-6 4-10 1-5-3-11-6-15 4 3 9 6 13 7 4 0 11-4 14-7h0zM309 411v2c1 5 1 10 1 15v27l-1 70v9 2 1c-1-4-1-8-1-11l-1-28v-51c0-12 0-24 2-36zm79 0c1 6 1 13 2 20v23 49l-1 34h-1c-1-4 0-9-1-14v-31-51c0-10 0-21 1-30zm-40-304c1 7 5 14 7 21 2 4 2 8 2 12h-9-8-1c0-12 6-22 9-33zm93 148c8 0 16 0 24 1 4 1 8 2 11 2-8 4-15 11-25 13 0 1-1 1-1 1-1 0-1-1-2-1 0 0-1 0-2 1v-1c5-3 8-10 12-14-6 2-10 6-16 8-5-2-10-6-15-9l14-1zm-197 0h6c6 0 13 1 19 1l-13 8-2 1c-1 0-2 0-2-1-3-1-6-3-8-4l-6-3 5 7c2 2 4 6 6 7h1c-1 0-2 0-2 1h-1c-2 0-4-1-5-1-8-3-15-8-22-13l24-3zm130-93c3 0 5 1 7 2 3 2 6 5 6 8 1 3 0 6-1 9-3 3-6 5-10 5-3 0-5 0-7-1-3-2-5-5-6-8 0-3 0-7 2-9 2-4 5-5 9-6z"></path><path fill="#fff" d="M372 170h1c1-1 2 0 3 0 1 1 1 2 1 3 0 2-1 2-2 3 0 1-1 1-2 1-1-1-2-1-2-2-1-1-1-2-1-3s1-1 2-2z"></path><path d="M400 453c2 4 4 8 7 12l16 27c7 13 13 25 22 36 1 1 4 4 3 6-1-1-4-5-5-7l-16-17-13-18c1 10-3 20-7 30l-7 16v-85zm-104 1h1l-1 84c-2-3-3-6-4-9-3-8-7-16-9-24-1-4-1-8-1-12l-14 17-15 17c-2 3-4 6-6 8 2-4 4-7 6-10 3-3 5-6 7-10l14-23 11-19c4-6 8-13 11-19zM348 5c1 2 1 5 1 7 1 7 3 13 5 19l5 16c8 22 18 43 10 66-1 3-3 9-6 11-1 0-1 0-2-1-2-2-4-7-5-10-2-9-3-17-4-25l-1-29-3-37v-1l-4 59c0 11-2 22-5 33-1 3-2 8-4 10-1 1-1 0-2 0s-1-1-2-2c-2-3-4-8-5-12-1-6-2-12-1-19 0-9 3-17 6-25l11-32c3-9 4-18 6-28zm51 61v40 10c0 3 0 5 1 8 1 0 1 0 2 1 2-2 3-5 5-7l6-7c6-7 12-12 18-18 6-7 12-15 18-21-1 4-4 7-5 11l-11 34c-7 18-17 34-30 50-1-4-2-7-6-9h0l12-21 33-54c-2 3-4 6-6 8l-6 10-24 32-8 12c-2 3-4 5-6 8l-13-7c-4-2-9-3-13-4 0-6 1-11 3-16 3-9 8-18 12-27l18-33zm-103 1l26 45c2 5 4 9 6 14 1 5 2 10 2 15l-15 6c-4 2-7 4-11 6-2-2-3-4-5-6l-9-12-24-34c-4-6-8-13-13-18l33 53 13 21c0 1 0 1-1 1-3 3-4 5-6 8-12-13-22-31-29-48l-11-34-5-12 47 53c1 0 2-1 2-2 1-2 1-5 1-7v-12l-1-37zm-104 42l27 24c5 5 10 11 16 14 3 2 8 2 11 1 8-3 12-11 16-18 2 7 5 13 8 19 2 4 5 7 7 11 0 1 1 3 1 4 0 3-2 5-4 7-11 12-29 12-44 12h-19-12c-2 0-5 1-7 0-2 0-5-2-7-4-14-8-26-19-38-30l10 5c10 4 42 18 52 14 2-1 4-4 5-6v-5c-1-5-4-10-7-15l-15-33zm310 1h1l-20 44c-1 3-2 6 0 9 1 2 3 5 5 5 2 1 4 1 6 1 7-1 15-3 22-6l23-10 11-5-1 1c-2 3-6 5-9 8-9 8-18 15-28 22-2 1-5 3-8 4-2 1-4 0-6 0h-9-22c-10 0-21 0-31-3-5-2-15-7-17-13-1-1-1-4-1-5 2-4 4-8 7-12 3-6 6-13 9-20 2 4 4 9 7 12 4 4 8 6 13 6 2 1 4 0 7-1 4-2 9-7 13-11l28-26zM210 261l28 19c0 3-2 6-2 8-8 25-7 51 5 75 12 22 32 38 55 45v37l-11 19-27 52c-2 3-5 9-8 11 3-6 5-12 7-18 1-1 1-3 2-5 0-1-1-3-1-5l-1-7c-1-9-2-19 1-27 1-4 3-8 4-11s1-5 0-8c-1-2-3-3-6-4-2 0-4 0-6 1-4 1-8 4-12 6l-27 13c-6 3-11 5-16 9l12-17 12-17c3-4 7-10 8-15 0-3-1-7-3-9-2-3-5-4-8-4-3-1-5 0-7 1-3 2-6 5-9 7l-14 11-26 20 24-40c2-4 4-8 4-12-1-3-2-6-4-7-2-2-4-3-6-4-5-1-11 1-16 2l-26 4c-5 1-9 3-13 3l34-16 16-7c3-2 7-4 9-7s3-6 3-9c-1-4-3-8-6-10l-6-3c-6 0-13 1-19 2l-28 5c-4 0-7 1-11 2l21-10c8-4 17-8 24-13 3-2 6-4 7-7 1-2 1-4 0-6s-2-3-4-4-7-1-9-1l-22 1-36 2c-3 0-9 0-13 1h7l52 1h11c1 0 3 0 4 1 1 0 1 1 1 1 0 1-1 1-1 2-1 1-3 1-4 2-5 2-9 3-14 3-10 0-20-2-30-4-18-2-34-4-52-5 3-1 6-1 9-1l15-2 23-5c12-3 24-7 37-8 6 0 12 0 19 1 2-3 4-6 7-9 9-10 20-18 31-24l12-6z"></path><path d="M196 319c1 0 2 0 3 1 1 0 0 1 0 3 0 1-1 1-2 2-1 0-1 0-2-1s-1-2-1-3 1-1 2-2zm3-31c1 1 2 1 2 1 1 1 1 2 1 3s-1 2-2 2h-1c-1 0-1 0-2-1s-1-2 0-3c0-1 1-1 2-2zm-1 46h2c1 2 1 2 1 3 0 2 0 2-1 3h-2s-1 0-2-1c0-1-1-1 0-2 0-1 1-2 2-3zm31 59c1 0 1 0 3 1 1 1 1 1 1 3l-2 2h-3c-1-1-1-2-1-3 0-2 0-2 2-3zm-33-89c1 0 2 0 3 1s1 1 1 3l-2 2c-1 0-2 0-3-1-1 0-1-1-1-2 0-2 0-2 2-3zm12 62c1-1 2-1 3 0 1 0 2 1 2 2s-1 2-2 3h-1c-1 0-2 0-2-1-1 0-1-2-1-2 0-2 0-2 1-2zm46 49h2c1 1 1 1 2 1 0 1 1 2 0 3 0 1 0 2-1 2h-3c-1-1-1-1-1-3 0-1 0-2 1-3zm29 16h1c1 0 2 0 2 1 1 1 1 2 1 3-1 1-1 1-3 2-1 0-1 0-2-1s-1-2-1-3 1-1 2-2zm-42-25l1-1c1 0 2 1 3 2 0 0 1 1 0 2 0 1-1 2-2 2-1 1-2 0-3-1 0-1-1-1 0-3 0-1 0-1 1-1zm-37-133h0c1 0 2 1 2 1 1 1 1 2 1 3s-1 2-2 3c-1 0-2-1-3-1-1-1-1-2-1-3 1-2 2-2 3-3zm14 106h0c1 0 2 1 2 1 1 1 1 2 1 3s0 2-2 3c-1 0-1-1-3-1v-3c0-1 1-2 2-3zm-16-29h3c1 1 1 2 1 3 0 2-1 2-2 3h-1s-1 0-2-1-1-2-1-3l2-2zm66 74c2-1 2 0 3 0 1 1 1 2 1 3 0 2-1 2-2 3-1 0-2 0-3-1s-1-2-1-3c1-2 1-2 2-2z" fill="#fff"></path><path d="M487 262h0c16 5 30 15 41 27 3 3 6 7 9 11 8-1 17-1 25 0 12 1 23 5 34 8 14 3 28 6 43 6v1h-2-6l-20 2-26 4c-10 1-20 4-31 3-4 0-8-1-12-3-1-1-3-1-3-2-1-1-1-2-1-3 1 0 2-1 3-1h7 11l40-1h10 7c-7-1-13-1-19-1l-29-2c-11 0-21-1-32 0-2 0-4 0-6 3-2 1-2 3-1 5 1 9 22 18 30 21l11 6c4 1 8 3 11 5l-36-6c-8-1-16-4-23-2-4 0-7 3-9 6s-2 7-1 10c0 3 2 5 4 7 3 3 7 4 10 6l32 15c5 3 10 4 14 7l-12-3-27-4c-4-1-9-2-14-2-2 0-3 1-4 2-3 1-5 3-6 6-2 5 0 9 2 13l24 42c-7-6-15-12-23-18l-18-14c-3-2-7-6-11-7-3-1-6-1-9 1-2 2-4 5-5 8-1 2 0 5 1 7 2 5 5 10 9 14 7 10 15 20 22 31-1 0-2-1-3-2l-7-3-32-16c-5-2-11-7-17-7-2 0-4 0-6 2-6 5-1 13 1 19 1 3 2 6 3 10 0 6 0 13-1 19l-1 8c0 2-1 3 0 5 0 4 2 8 4 13l2 6c1 1 2 2 2 3h-1l-12-21-22-42-7-13c-1-2-3-5-4-6v-8-29l1-1c24-8 43-23 54-46 10-19 12-40 8-61-1-7-4-13-6-20 4-3 9-5 13-7 6-4 11-8 17-11z"></path><path d="M495 288h2c0 1 1 1 1 1 1 1 1 2 1 3-1 1-1 2-2 2h-1c-1 0-2 0-2-1-1 0-1-1-1-2 1-2 1-2 2-3zm3 16c1 0 2 0 3 1s0 2 0 3-1 1-2 2c-1 0-2-1-3-1v-3c0-1 1-2 2-2zm-7-31h0c1 0 2 1 2 1 1 1 1 2 1 3-1 1-1 2-2 2h-2-1c-1-1-1-2-1-3 1-2 1-2 3-3zm-80 158h3c0 1 1 2 1 3s-1 2-2 3c-1 0-2 0-3-1s-1-1-1-3c0-1 1-1 2-2zm87-112h1c1 0 2 0 2 1 1 0 1 1 1 2s-1 2-2 2c-1 1-2 1-3 0s-1-1-1-3c0-1 1-1 2-2zm-2 15c2 0 2 1 3 1 1 1 1 2 1 3l-2 2h-1c-1 0-2 0-2-1-1-1-1-2-1-3l2-2zm-31 59c1 0 2 0 3 1s1 1 1 3l-2 2h-1c-1 0-2 0-2-1-1-1-1-2-1-3l2-2zm-12 13h0c2 0 2 0 3 1 0 1 1 2 0 3 0 1-1 1-2 2-1-1-2-1-3-2 0 0-1-2 0-3 0-1 1-1 2-1zm38-56h2s1 0 2 1v2c0 1-1 2-1 2l-1 1c-1 0-2 0-3-1l-1-2c0-2 1-2 2-3zm-6 16c1-1 1-1 3-1 1 1 1 2 1 3s-1 2-1 3h-2c-1 0-2 0-2-1-1-1-1-1-1-2s1-2 2-2zm-45 49c1 0 2 1 3 2v3c-1 1-1 1-2 1h-3c-1-2-1-2-1-4 1-1 2-1 3-2zm36-36c1 0 2 0 3 1s1 2 1 3-1 2-2 2c-1 1-2 1-3 0s-1-2-1-3c1-1 1-2 2-3zm-51 45h4c1 1 1 1 1 3l-2 2c-1 1-1 1-3 0-1-1-1-1-1-3 0-1 0-1 1-2z" fill="#fff"></path><path d="M552 169l-4 16a211.33 211.33 0 0 0 0 100c-2-4-6-7-9-10-11-12-23-21-38-28-6-3-14-5-21-7-16-4-34-5-51-4-11 1-22 2-32 8s-17 16-20 27c-2 8-1 17-1 26v29 105 103 32c0 7-1 15 0 22 1 10 4 20 9 29 8 13 21 21 36 24 3 1 7 2 10 3h-15-36-114l8-2c6-1 11-3 16-5 15-8 26-22 30-39 1-8 1-17 1-25v-24l-1-272c-1-11-6-22-15-29-5-4-10-7-15-8-7-2-13-3-20-3-10-1-21-1-32 0-14 1-28 4-41 10-18 8-36 22-48 38-1-2 1-6 1-8l3-20c2-10 2-19 2-29-1-13-3-26-6-39 0-2-1-4-2-7-1-2-2-6-2-9 1-1 1-1 3-1l2 3c5 6 12 11 18 15 12 7 24 11 37 12 14 1 28 1 41 1h76 104 38c15-1 31 0 45-4 13-4 24-12 34-21l9-9z"></path></svg>