<svg xmlns="http://www.w3.org/2000/svg" xmlns:v="https://vecta.io/nano" viewBox="70 20 496 672"><!--oldViewBox="0 0 616 752"--><style>.B{fill:#f7f6f8}.C{fill:#f2f1f4}</style><path d="M497 371h1 0c-2 1-3 3-4 5s0 4 0 6h0-2v-1c-2-1-2-2-2-5 1-3 5-4 7-5zm-1-131l6 3c1 1 1 2 1 3h0-3-7l3-6zM133 369h2c3 0 5 1 6 3s1 2 1 4c-1 1-2 2-4 3s-4 1-7 0v-1c-1-1-2-1-2-3 2-1 3 1 5 2h2c1-1 2-1 2-2 1-1 1-1 1-2-1-2-4-3-6-3v-1zm373-46h0c2 3 3 6 4 8-2 3-5 6-8 7 0 1-1 1-2 1-2-4 5-12 6-16zM259 176h0c2 2 2 3 3 5 0 2-2 5-3 7-2 4-4 4-8 5h-1c-1 0-2 1-3 1 1-2 5-5 7-7 2-3 3-7 5-11zM130 351c-5-2-10-3-14-8 0 0-1-1-1-2h0c3 2 6 4 9 5 8 4 17 6 26 7h3l-2 1c-7 0-14-1-21-3zm136-211h0c0 5-3 10-3 16h0l-7-4-6-3c7-1 11-4 16-9h0zm-23 21h2c2 0 3 0 5 2 1 3 0 7-1 10l-2-2-9-5c0-1 0-2 1-2 1-2 3-3 4-3zm287 23c4 1 8 3 13 4 7 4 16 11 19 19l-4-5-4-4c-4-3-12-8-17-9h-4c0 1-1 1-1 2l-6 3v-1c1-3 2-6 4-9zm-142-13h1c3 2 6 6 7 9 2 5 2 10 2 14-3-3-6-5-8-8-2-5-3-10-2-15zm-19-37c8 3 15 9 21 15l-6 3c-2 2-5 3-7 5 0-5 1-9 1-14-2-4-6-7-9-9zm61 55c1 1 1 2 1 3-1 1-2 1-3 0-3-4-4-12-3-17 0-8 3-19 9-25 3-2 5-2 8-2h0c-2 1-3 1-4 2-2 1-4 3-6 5-3 6-5 21-4 27 1 3 1 5 2 7zm44-37c1-1 3-1 5-1 1 0 7 2 7 1l4-4c4-4 9-6 14-8-3 2-6 5-9 7-2 3-4 6-7 8 3 2 7 3 10 6 1 1 2 2 3 4l-8-4c-4-2-10-4-14-7-2 0-4-1-5-2zm-66 222v-1c2 0 5 0 7 1l-1 1c-1 2-4 3-6 4-5 3-11 6-16 8l-6 2c1-2 3-5 4-7 4-5 12-7 18-8zm-247 12c-2-5-5-10-6-15l9-2v1c-1 3-1 8 0 12 0 2 1 4 2 6-1-6-1-14 2-20h0c-1 6-2 14-1 20 1 7 5 14 3 21h-1l-1-6c-2-6-4-12-7-17zm-37-183c8 9 14 20 17 32h0c-4-4-9-7-12-12-3-3-6-9-6-13 0-2 1-5 1-7zm258 196c2 1 6 5 7 6h0c-3 0-6 2-9 4-6 4-10 11-11 18-1 2-1 4-1 6l-1-1c-1-7-1-14 1-21l-7 2c3-2 8-4 11-6 4-2 6-6 10-8z"></path><path d="M500 238c2 1 3 2 4 3 4 3 7 6 9 10-2 4-4 7-8 10-1 1-3 1-4 2-4 2-5 6-6 10l-1 7h0 0c-1-3-1-5 0-8 0-3 1-6 2-9 2-6 6-11 9-17 0-3-3-5-5-7v-1zM217 416c5-2 9-3 14-4-1 2-3 2-5 2 2 0 4-1 7 0 9 1 18 4 23 11 4 5 6 11 5 17-1 4-3 7-6 9s-6 2-9 4c-1 1-3 2-4 4l-1-1c3-4 7-5 11-7 5-3 7-8 6-13-1-7-5-13-10-17-9-5-20-3-29-2h-3l1-1c0-1 0-1 1-1l-1-1z"></path><path d="M217 416c5-2 9-3 14-4-1 2-3 2-5 2 2 0 4-1 7 0-6 1-11 1-16 4 0-1 0-1 1-1l-1-1z" class="C"></path><path d="M238 404l5-6h0c3 3 6 5 8 7 9 6 18 12 24 21-3-2-6-4-10-6s-9-3-13-6c-3-1-6-3-9-5-2-1-5-2-7-3l2-2zm307-125c2 3 4 6 7 7 6 3 12-2 17-4v1c-4 3-9 5-13 6-3 0-6 0-9-1 1 3 2 7 2 10 1 7 0 14 0 21-1 8-3 16-6 23 1-11 3-22 3-33 0-4-1-7-3-11 0-1-1-3-1-4-1-1 0-2 0-3l3-12zM201 150l18 2h1c2 0 3 1 5 2l-6 4c3 2 7 3 9 5-1 2-5 6-6 8l-9 10c2-5 3-9 2-14-2-8-8-13-14-17zm36 17c4 3 8 5 12 8-2 5-4 9-8 13-2 2-5 3-7 5-3 1-6 2-9 2v-1c1-2 4-4 5-6 2-3 3-8 4-11l3-10zm168-43v2c1 5 3 9 7 12l2-9c0 4 0 8 1 11s4 7 6 10c0 0 1 1 2 1 0-1 0-1 1-2l-5-6h4c4 0 7 0 11 1 1 0 2 1 4 1v1h-2c-5 2-8 7-10 12h0c-2-1-5-3-6-4-6-5-11-10-15-17-2-5-2-8 0-13zM83 269v7c1 4 1 9 1 13s-1 7-1 10c-1 3-1 6-1 9 0 7 1 13 1 19 0 3 1 6 1 9-2-5-3-11-4-17l-3-27c-4 1-12 2-16-1h1 0c4 0 8-1 12-3 6-4 7-13 9-19zm347-91c1-5 1-12 3-17h0v1c1 3 4 6 7 8 3 3 8 5 13 6v1c-5 1-11 2-13 6-1 3-1 7-3 8-1 0-2 1-3 1-1-1-2-3-3-4l-1 1c-1-2-1-4-2-7l1-1c0-1 0-1 1-2v-1z"></path><path d="M428 182l1-1c0-1 0-1 1-2v-1c0 4 1 7 1 10l-1 1c-1-2-1-4-2-7z" class="B"></path><path d="M386 395c3-3 9-4 14-5 0 1 1 3 3 3h2c4 0 4-5 7-7 2-1 4-2 6-2l-3 7c0 2 0 2-1 4l-4 4-1 1c1 0 1-1 2-1 1-1 3-3 4-3-2 3-5 5-9 6-6 2-13 1-18-3-1 0-2-1-3-2h-1c1-1 1-2 2-2z"></path><path d="M415 391c0 2 0 2-1 4l-4 4-1 1c1 0 1-1 2-1 1-1 3-3 4-3-2 3-5 5-9 6-6 2-13 1-18-3-1 0-2-1-3-2h-1c1-1 1-2 2-2 1 1 2 3 4 4 5 2 10 3 15 1 5-1 8-5 10-9z" class="C"></path><path d="M460 368c2 1 4 2 5 3s-1 4-2 6c1-2 3-4 4-5 2-2 5-2 8-2-3 3-6 7-8 11-4 7-4 17-8 25-3 6-9 11-13 17l-10 12c1-3 2-7 4-10 3-6 9-10 13-16 7-12 10-27 7-41zM174 169l1-1c4 3 7 6 11 9l16 11 9 6c-3 0-5-1-7-1l-14-3-3-1c-7-2-10-11-13-17-2 4-3 7-6 10v-5h-3c-3 0-4 3-5 5 1-8 8-9 13-13h1zm-68 180l3 9c3 4 6 8 8 13-4-3-6-6-8-10 1 5 1 10 3 14 4 7 11 9 18 11 4 1 9 2 12 6-1 0-2-1-3 0v1c0 2 0 2-1 4v-1c-1 0-1-1-1-2-1-3-9-4-12-6l-8-3c2 10 3 20 3 30-2-6-3-14-5-21 0-3 0-6-2-9-1-4-3-8-6-11-2 2-5 3-8 6-1 1-2 4-4 5 2-4 4-7 6-10 2-2 5-5 5-8v-7-11zm396 17c1-1 1 0 2 0-1 2-4 3-5 4h-2c-2 1-5 2-7 3-6 2-11 5-15 10-6 7-6 18-7 26l-1 11c0 4-1 8-3 12v1h-1 0c2-12 1-25 2-38 1-5 2-9 4-13 1-4 4-7 7-10l1-1c1-1 3-1 4-1l7-1c5 0 10-2 14-3zm-26-79h1c1 1 1 1 1 2 2 3 3 6 3 9 2 5 3 11 2 15-2 6-5 11-11 14-2 1-4 1-6 1l10-41zm26 18c3 2 5 5 7 8l8 9c-1 3-3 5-5 7-2-5-3-9-7-12-1 2-2 4-2 6l-4 8-3 12c-3 1-5 2-8 3 1-11 5-21 10-31l4-10zm20 42h0c1 5 1 12 0 17 0 5-2 10-3 14-2 4-3 7-4 11l-3 17c-1 3-1 6-3 8h0c2-8 2-17 2-25-7 3-12 3-20 3h-1c-1 1-1 2-2 3-1 0-1 0-2-1v-2c0-1 2-3 3-3 1-1 3 0 4 0 4 0 9 0 13-2 7-5 10-15 12-22-2 2-6 7-9 8-2 0-3-1-5-2h0c2 0 3-1 4-1 2-1 3-3 4-4 5-5 8-12 10-19zm-301 73c6 0 11 0 17 2 4 3 8 6 10 12 1 1 1 4 0 5 0 1-1 2-3 2-1 0-1-3-2-4l-6-6h-1c0 1 0 3-1 5h-1v-1c0-2-1-4-3-5-3-2-18 0-22 1l-3-6c2-1 6-3 9-4l6-1zm-55-11c-1 7-2 14-4 21-1-5 0-11 1-16l-1 1c-4 7-10 13-15 18 4-6 10-14 12-21 2-11-4-24-10-33l-6-9c2 1 5 1 7 1h1c2 5 6 10 9 15h1c3 5 5 11 7 17h-1v1 1c-1 1 0 3-1 4z"></path><path d="M161 386c3 5 5 11 7 17h-1v1 1c-1 1 0 3-1 4 0-8-2-15-6-23h1z" class="B"></path><path d="M415 396c2-3 4-8 5-11 0 0 0-2 1-3 0 0 1 0 1-1l8-3h0c1 8 1 14-4 21-4 5-9 7-16 8-8 1-15 1-21-4-2-2-4-3-5-5v-1h1c1 1 2 2 3 2 5 4 12 5 18 3 4-1 7-3 9-6zM93 312l6 11 3 6c1 3 2 7 2 10 1 12-1 24-8 34-2 3-5 6-7 8-6 6-12 12-17 18l-3 4c3-7 9-13 13-19l9-15c8-14 9-30 5-45l-3-12zm436 10c-1 4-1 9-1 13 1 7 2 14 4 20 1 4 2 7 4 10 5 10 11 20 17 30-3-3-6-7-9-10l-15-19-2 13-4-31h0c-1-4-1-9-1-13 1-1 1-4 1-5 2-3 4-6 6-8zm-412 10c-2-2-6-5-7-8 2-3 5-5 8-7 1 2 2 3 3 4-1 3-2 5-3 8 2 3 4 5 8 5 0 1 1 1 2 1l4-1 1-1c2 1 5 1 7 0h1l1 1h1 0c1 1 3 1 5 1h9 1c1 1 2 4 3 5l5 8c-9-1-18-2-26-5-9-3-16-6-23-11z"></path><path fill="#fff" d="M140 333h1l1 1c-1 1-1 1-3 1h-11l4-1 1-1c2 1 5 1 7 0z"></path><path d="M405 157c-4 0-10 0-14 3-3 3-5 8-6 13 0 2 0 5 1 7v1c0 4 3 7 5 10-5-3-8-7-9-13-3-7-1-13 1-20-3 3-4 8-6 12l-3 9c2-2 3-4 4-5 1 6 4 13 9 17 3 2 6 2 8 4-6-1-15-2-19-7s-3-12-2-17c1-6 4-12 9-15 5-4 14-5 20-4 4 1 8 2 10 6 2 3 4 7 5 11-1-1-2-4-3-5-2-4-6-6-10-7zm88 6l9 6-10 5-7-7c-8-7-21-13-32-13-3 0-5 1-7 3-1 2-2 4-1 6 0 6 9 9 13 12-8-1-15-4-19-10-1-1-2-4-3-4-1-1-1-1-2-1 1-1 1-2 2-2h2v-1c0-2-1-1-2-2 1-2 4-3 6-4 6-3 14-2 20 0 1 0 2 0 3-1 3 1 6 2 9 2 1 1 3 2 5 2 4 3 10 5 14 7v1c-1 0-1 0-2-1h-1c1 0 2 1 2 1l1 1h0z"></path><path d="M465 150c3 1 6 2 9 2 1 1 3 2 5 2 4 3 10 5 14 7v1c-1 0-1 0-2-1h-1c1 0 2 1 2 1l1 1h0c-1 0-2-1-3-1l-6-3c-3-1-7-3-10-5l-12-3c1 0 2 0 3-1z" class="C"></path><path d="M397 414h7c3 1 8 3 11 4s5 2 7 4v1c0 1 0 1-1 2h0c-4 2-8 1-12 0-8 0-13 1-19 5-6 3-11 8-15 14s-6 14-8 21c0-7 1-13 4-20 2-7 5-12 10-18 6-7 13-10 22-11h1c-8-1-16 1-23 3-3 0-5 1-7 1h0c1-2 3-2 5-3 6-2 11-3 18-3zm7-55c9 0 15 1 22 7l-8 7c-4-2-8-3-13-3-7 1-16 5-20 11-2 3-3 7-6 10-2 1-4 2-4 3-1 1-1 3-2 3 0 2-1 4-2 6 0-6 2-12 5-18s6-11 10-16c-3 0-6-1-8-1 3-1 6-1 9-2 2-1 3-2 5-3 4-2 8-3 12-4zM107 89h0c0 1-2 1-3 2-2 1-5 3-7 4-9 9-11 21-12 33 0 5 0 10 2 15 2 6 5 10 7 15 10 14 22 26 33 38 7 8 13 17 16 26 1 4 2 8 3 11 1 5 2 10 2 16 0 8 0 17-1 26l-7-4-5-2c4-3 7-6 9-11 2-6 2-13 0-19-2-10-6-21-12-30-2-4-5-7-8-11l-25-28c-5-6-9-13-12-20-5-10-4-20-2-31 0-4 1-8 3-13 4-8 10-14 19-17zm110 271l2-1c9 0 17 2 24 8s14 25 14 35c-2-5-6-10-9-14-4-8-8-13-16-15-9-3-18-3-26 1-3-2-6-4-8-7 6-4 12-6 19-7zm248-210l-15-3c-3 0-5-2-7-2-7-2-14-4-20-9-2-2-3-4-5-6-3-5-5-11-4-17 1-4 6-9 10-12 4-2 8-3 12-4-2 2-4 3-7 4-5 3-9 7-10 13 0 5 1 12 4 16 4 4 11 9 18 9h1c0-1-1-3-2-4-3-6-8-10-12-16 7 4 13 8 19 15 1-6 4-13 9-16 2-1 3-2 5-2l2 2v1-1c-2 0-3 0-5 1-3 2-5 6-6 10 0 3 1 6 3 9 1 1 2 3 4 4 4 3 13 4 15 10-3 0-6-1-9-2zM217 416l-14 7c-2-5-7-9-11-13l-3-3c-3-3-5-7-5-10-2-9 1-17 6-24l6 5c-2 4-3 10-4 14l1 3h0c0-2 0-3 1-4v-1c0 5 1 9 4 12 6 6 15 8 23 8 6 0 12-2 16-7l1 1-2 2c2 1 5 2 7 3-1 0-1 1-1 2l-11 1h0c-5 1-9 2-14 4z"></path><path d="M192 392l1 3h0c0-2 0-3 1-4v-1c0 5 1 9 4 12 6 6 15 8 23 8 6 0 12-2 16-7l1 1-2 2c2 1 5 2 7 3-1 0-1 1-1 2l-1-1c-8-2-16 3-24 2-3 0-6-1-9-2-5-2-9-4-12-8h-1 0c3 6 11 8 17 11-2 1-4 2-6 2s-5-2-6-4c-6-6-8-10-8-19z" class="C"></path><path d="M393 78c-1 3-3 5-5 8-3 4-5 10-7 15-2 6-2 12 1 18 4 1 9 2 13 2 2 0 4-2 5-3 2-3 3-7 3-10s-1-5-3-6c-2-2-4-1-6-1h0c0-1 0-2 1-2 2-1 3-1 4 0 3 1 4 3 5 5 2 4 2 8 1 12-3 7-12 8-19 11h1c6 9 15 14 23 21 5 4 9 8 15 11v1l-2 18c-2-2-2-5-3-7-1-4-2-8-4-11l-3-6c-2-2-5-3-7-4-7-2-13-4-18-9-2-2-4-5-6-7-4-6-8-12-8-19 0-14 9-27 19-37zm45 294c1-1 1-1 2-1 5 6 6 15 5 23-1 4-1 8-3 11-2 5-7 9-11 13l-9 7h-1c1-1 1-1 1-2v-1c-2-2-4-3-7-4s-8-3-11-4h-7c0-1 3 0 5-1-5-1-10-1-15-1-1-1-4 0-5-1v-1c6-1 12 1 18 1 8 1 19-1 26-7l-3 5c3-2 6-4 8-8 5-7 3-16 1-25 2-1 4-3 6-4z"></path><path d="M429 408h1c0 2-2 4-3 5-2 2-4 3-7 3h-1c0-3 6-4 7-5l3-3z" class="C"></path><path d="M438 372c1-1 1-1 2-1 5 6 6 15 5 23-1 4-1 8-3 11-2 5-7 9-11 13l-9 7h-1c1-1 1-1 1-2v-1c-2-2-4-3-7-4s-8-3-11-4h-7c0-1 3 0 5-1 1 0 3 1 4 1 2 0 5 0 7 1h1c3 1 7 4 10 6v-1c9-6 18-14 19-25 2-9 0-16-5-23z" class="B"></path><path d="M405 157c4 1 8 3 10 7 1 1 2 4 3 5v1c3 8 4 16 7 24l-10 1-3-14c-2-7-5-12-11-16-1-1-2-2-4-3h-3v1c3 2 7 4 9 7 7 6 9 16 9 25h-2c-3 0-7 0-9-1-1 0-3-12-3-14-2-5-6-8-9-12 1-1 2-4 3-5 4-4 7-5 12-5h0-2 1 0c1 0 1 0 2-1h0z"></path><path d="M405 157c4 1 8 3 10 7 1 1 2 4 3 5v1l-10-10c-2-1-3-1-4-1v-1h0-2 1 0c1 0 1 0 2-1h0z" class="B"></path><path d="M454 156c11 0 21 4 29 11a30.44 30.44 0 0 0 8 8c-13 5-26 10-39 13-4 1-8 2-12 2v-1c0-1 1-4 2-6 3-3 10-4 14-4 1 1 1 2 2 3 3-1 6-1 8-4-2-3-5-4-8-6-2-1-5-2-7-4-1-1-3-2-3-4-1-2-1-4 0-5 2-2 4-2 6-3z"></path><path fill="#fff" d="M459 164h2c2 1 4 4 5 6v4l-1-1c0-1 0-1-1-1-1-3-3-5-6-6h-1c0-1 1-1 2-2z"></path><path d="M429 298c3 0 7 0 10 2s4 6 5 10c-2-2-2-5-5-7-2-2-5-2-8-2-4 1-7 3-9 6-1 2-2 4-2 6-1 11 12 17 18 23 2 1 3 2 3 3-1 4-3 9-5 12-4 0-7-1-10-3-7-6-16-15-17-24-1-6 1-13 4-18 4-5 10-7 16-8zm-231 0c3 0 7 0 10 2 6 3 12 9 14 16 1 5 0 12-3 17-6 10-18 17-29 20l-5-12 3-2c4-1 8-4 12-6 2-1 5-3 8-5 3-3 5-6 5-10s-1-7-4-10c-2-3-6-4-9-4s-7 0-9 2c-3 4-3 8-3 13 0-2-2-4-2-5-1-3 0-7 2-9 2-4 6-6 10-7zm-42 57c4 0 9-1 13-2l7 8h1c-2 1-3 2-5 2-5 2-11 4-16 4-14 2-29 0-39-9-5-5-10-10-11-17-1-3-1-6-1-9l7 9c1 2 3 5 6 7h0c2 0 4 2 5 2 1 1 1 1 2 1s1 0 1 1h2 0c1 1 2 1 3 1h0 2v1l2-1h-1-1-1 0c-1 0-1-1-2-1h0-1l1-1c7 2 14 3 21 3h1c1 1 3 1 4 1z"></path><path d="M118 348c2 0 4 2 5 2 1 1 1 1 2 1s1 0 1 1h2 0c1 1 2 1 3 1h0 2v1l2-1h-1-1-1 0c-1 0-1-1-2-1h0-1l1-1c7 2 14 3 21 3h1c1 1 3 1 4 1h-1c-4 1-9 1-13 0-8 0-17-2-24-7z" class="C"></path><path d="M133 165l-4 2h0l21-12h-1v-1c-4-1-9-5-12-7l17 3c2-1 4-2 7-3 2-1 4-1 6-2 6-1 12-6 15-11 3-3 4-8 3-13h0c-1-2-2-3-3-4h0 1c1 0 2 1 2 1 4 5 4 10 3 16 7-4 12-7 16-13 7-8 11-20 9-30-1-8-4-13-11-18l1-1c6 4 10 9 13 15 4 9 4 19 0 29-5 11-13 19-24 26-2 1-5 3-8 4-3 2-8 2-12 3l-1 1c-1 0-1 0-2 1l1-1v1h1-1c-3 2-7 2-10 3-5 2-10 4-14 6s-8 4-11 7c0-1 1-2 2-2v-1h0c-2 1-2 1-4 1h0z"></path><path d="M133 165c6-3 12-7 19-9l8-3c4-2 8-3 12-4l-1 1c-1 0-1 0-2 1l1-1v1h1-1c-3 2-7 2-10 3-5 2-10 4-14 6s-8 4-11 7c0-1 1-2 2-2v-1h0c-2 1-2 1-4 1h0z" class="B"></path><path d="M194 390v-2h0c2 4 3 7 6 10l2 2h1 0c-4-5-6-8-6-15 0-2 1-4 1-6 2 1 4 2 5 3l8 4c1 1 1 1 0 1v5c1 2 2 3 4 3 1 1 4 0 5 0v-1h0c-2-1-4-3-5-5v-1c2-2 9-1 12 0l1 1c-1 3-7 8-10 9l-1 1h1c2 0 4 0 5-2 4-2 6-6 7-10 2 1 3 3 4 4 1 3 0 6-1 8-2 3-5 5-9 6-6 1-11-2-17-3 4 3 10 5 15 5 4-1 8-2 10-5 3-2 4-6 4-9s-2-6-5-8c-6-5-12-6-19-6 7-3 14-4 21 0 3 1 6 4 8 8 1 3 1 8 0 11-1 2-3 4-4 5-4 5-10 7-16 7-8 0-17-2-23-8-3-3-4-7-4-12zm72-206h0c-1 4-3 5-7 6l4-5c3-5 2-14 1-20-2-3-3-6-7-8-1 0-3-1-4 0 1 1 4 2 5 2 1 1 2 2 2 3 4 5 4 13 3 19l-4-11c-1 5-3 11-6 15s-8 9-13 10h-4c1-2 5-4 7-6s4-4 5-7c3-5 6-14 5-20l-3-3c-2-1-5-2-7-1-8 2-11 13-12 20-1 3-1 6-3 8-1 3-6 8-8 9-4 1-10-4-13-6 7-6 13-14 19-21l7-8c-1 0-2 0-3 1-2 0-4-2-6-3l5-3-2-4h18c8 1 14 3 20 10 3 7 3 16 1 23zM254 79l2 2c8 9 13 23 12 36 0 9-3 18-10 24-3 3-6 5-9 6-4 1-10 1-14 1-7 0-13 1-20 1-9 0-19-2-28-2 1-1 2-2 3-2 5-2 10 1 15 0 8-2 10-11 13-17-1 5-2 11-4 16v1c2-1 5-1 7-2 1 0 2-1 2-2 0-5-2-9-4-13l5 5c2 3 5 8 9 9 5 1 12-3 16-6 5-3 7-7 9-13-3 1-6 1-9 1-7 0-16-1-21-7-2-2-4-6-4-10 1-4 2-9 5-11 3-3 8-4 12-3h-1c-1 0-3 1-5 1-3 2-5 4-6 7-2 4-2 8 0 11 2 4 6 7 10 9 6 1 11 1 16-2 4-1 6-4 7-8 1-2 1-4 1-6 0-10-4-18-9-26zM116 333c14 11 30 15 47 17-6 2-13 1-19 0-16-3-32-13-41-27-11-15-15-34-16-52-1-16 0-33 5-48 1-5 3-10 6-15 1-3 3-6 5-9 0-2 1-3 1-5-3-2-6-3-9-4-4 1-8 4-11 6-4 2-8 4-12 7l-6 6c6-10 19-17 28-23l9-7a30.44 30.44 0 0 1 8 8c-2 4-3 8-5 12-2 5-5 10-7 15-3 9-6 18-7 27-2 11-1 24 0 35 2 15 5 31 13 44 3 5 7 9 11 13zm324 38l7-7c3 1 6 2 9 4 5 11 3 26-2 36-4 9-12 15-19 22-5 4-11 10-14 16-5 8-6 17-4 26 0 4 2 9 3 13-7-9-12-19-10-31 1-10 5-17 12-25l9-7c4-4 9-8 11-13 2-3 2-7 3-11 1-8 0-17-5-23zm-261-6h1s1 1 1 2l6 5c0 1-1 2-2 3-1 2-1 4-2 6-2 4-3 11-2 15 1 5 5 9 8 13 4 4 9 9 12 14 4 6 7 11 10 16 1 4 2 8 4 11 2 5 8 7 12 9-4 0-8-1-12-2-1 1-1 5-1 7-1 6-1 12-4 18v1c-2 3-5 6-9 7l2-2c2-2 4-4 5-7 2-5 2-11 2-17-1-8-4-17-9-24-3-4-6-8-9-11-7-8-13-15-17-24-4-8-6-20-5-29l3-9c2-1 4-1 6-2z"></path><path d="M171 151c5-1 19-3 23 0 3 2 5 4 8 5-2-2-4-3-5-5 6 3 12 6 15 13 2 5 1 12 0 16v1c-1 2-5 5-7 6-3-2-7-5-10-7l-12-8c-2-2-5-5-9-7-4 3-13 7-15 13v2c-1 0-4-1-5-1-5-2-10-3-14-6 5-4 9-7 15-10l-2-1c-3 2-7 3-10 6-2 1-4 3-6 5l-6-4 4-2c3-3 7-5 11-7s9-4 14-6c3-1 7-1 10-3h1z"></path><path d="M192 174c-2-1-4-2-5-4l7 1h-2v1h5c-2 1-3 1-4 1h-1v1z" class="C"></path><path d="M192 173h1c3 1 6 1 9-1s4-4 5-6l1-4h0v1c1 2 1 4 0 6s-3 4-5 5c-4 2-7 2-10 1l-1-1v-1zm-39-11c11-6 26-8 37-5 4 1 9 4 11 7 0 2 1 3 0 5-1 1-2 2-4 3h0-5v-1h2c2-1 3-1 5-3 0-1 0-2-1-4s-5-4-8-5c-10-3-25-1-35 4l-2-1z" class="B"></path><path d="M516 208c4 4 6 10 8 16 3 5 5 11 6 17 1 7 2 14 1 21-1 9-5 19-13 24-3 4-8 6-14 6-2-1-4-3-6-5 0-1-1-2-1-3-1-5-1-15 4-19 2-1 5-2 7-4 3-3 5-7 8-10-2-2-3-4-4-5-3-3-7-9-11-10-2-1-2 0-3 0 1-4 4-8 7-11l11-17z"></path><path d="M522 270h1v1c-3 4-7 4-11 7s-6 6-9 9h-2c0-2 1-3 2-5 2-3 6-9 10-10l9-2zm-15-43l2 1c2 0 5 3 6 4 3 6 7 12 9 19 1 2 2 5 2 7 0 3 0 6-1 8-1 1-3 1-4 1-3 0-6 1-8 2h-1c3-4 9-6 10-11 3-6-1-13-5-18-1-3-3-5-5-7-1-1-2-2-3-2-2-1-4-1-4-2s1-1 2-2z" fill="#fff"></path><path d="M521 334c0 4 0 8-1 11-3 8-10 15-17 19l-9 3c-10 2-21 3-31 0-5-1-10-3-15-5 1-1 5-8 6-8 1-1 3-1 3-1h11c8-1 16-3 24-6 4-1 7-3 10-6 12-8 19-20 25-32 8-18 12-40 11-60-1-11-4-21-7-32-1-4-3-8-5-12-1-2-2-5-3-7 0-1 0-2 1-2v-1c2 2 3 4 5 6 7 10 10 23 12 35 4 27 1 57-12 81-3 4-5 8-8 12v2l-1 1 1 1v1h0z"></path><path d="M521 329v2l-1 1 1 1v1h0v-1h-1c-1 1-3 3-4 5-3 2-5 4-8 7-7 5-18 8-27 9 1 0 3-1 4-1l8-3c11-4 20-12 28-21z" class="B"></path><path d="M520 202l1 1c12 21 17 48 14 73-1 6-3 12-4 18l-4-3c0 2 2 3 3 4-1 4-3 8-4 11-3 5-5 9-8 14-5-6-10-13-17-18l-5 11c-2 5-5 9-6 15-2 6-3 13-4 19-6 2-11 3-17 3l3-6c1-1 3-3 4-5l-1 1c-4 2-6 6-7 9v1h-12l7-15c1-1 2-1 4-1s4-1 6-2c3-1 5-4 8-7l6-6c3-4 2-9 1-14l-2-11c-1-11-1-22 1-33 1-4 2-9 5-12 3-2 6-1 9-1-1 4-4 8-6 12-3 7-4 16-1 23 1 4 4 9 8 10 3 2 8 0 11-1 10-5 14-12 17-22 3-8 4-21 2-30-2-8-6-16-9-24l-4-7c0-1-1-2-1-3s2-3 2-4zm-254-42c10-8 20-18 22-32 0-5 0-10-1-15-2-10-5-19-12-27-3-5-8-9-13-12-12-8-26-11-32-25-2-4-3-8-3-12 1-8 4-16 11-21 3-3 6-4 11-3 3 0 6 2 9 4-5-2-10-4-15-1-3 2-6 6-7 10-2 5 0 10 2 14 5 7 12 11 19 14 9 4 18 8 25 13 9 6 16 17 20 27 2 4 3 8 4 13 3 10 5 21 3 32-2 7-6 13-10 20-3 5-7 10-11 15-3 3-8 6-12 8l-8 4h-1c0-1 0-1-1-2 2-7 2-16-1-23 0-1 1-1 1-1z"></path><path d="M265 161c0-1 1-1 1-1l3 6c1 6 1 14-1 19 0 0-1 0-1 1 0-1 0-1-1-2 2-7 2-16-1-23z" class="B"></path><path d="M391 13c4-1 8 0 11 1a19.81 19.81 0 0 1 11 11c3 6 2 12 0 18-2 5-5 10-8 14s-7 6-12 9c-4 3-8 5-11 9-8 7-16 17-20 27-2 4-3 7-4 11-3 13 0 28 8 39 1 2 3 4 5 6 0 0 3 2 3 3v1c-1 6-4 12-3 19 0 2 2 5 3 7-9-4-15-11-21-17-4-4-8-8-11-13-9-14-11-36-7-52 1-6 3-13 6-19 7-11 18-18 29-24 8-4 15-6 21-11 7-4 16-12 17-21 1-3 1-7-1-10-3-4-7-6-11-7-3 0-6 0-9 2s-4 6-5 10h0 0c-1-3 0-6 1-8 2-3 5-5 8-5zM93 242l1-7c4-12 9-23 13-33 2-5 3-9 6-14 3 4 6 8 8 13 0 2 0 4-1 7-1 2-3 5-2 8 0 2 1 4 2 5 3 4 6 7 9 10 1 1 3 2 4 2 9 4 11 11 10 20 0 4-2 8-5 10s-7 4-11 6c7 1 15 5 20 10 1 9 1 18 2 27 2 9 5 18 8 27-4 1-9 1-13 0l-1 1h0-1l-1-1h-1c-2 1-5 1-7 0l-1 1-4 1c-1 0-2 0-2-1-4 0-6-2-8-5 1-3 2-5 3-8-1-1-2-2-3-4-3 2-6 4-8 7 1 3 5 6 7 8l-1 1c-4-4-8-8-11-13-8-13-11-29-13-44-1-11-2-24 0-35l1 1z"></path><path fill="#fff" d="M106 303v-1c-1-3-1-5 0-7 1-1 1-1 2-1h1c-2 2-2 4-2 6v1c0 1 0 1-1 2z"></path><path d="M107 301h0c1 2 7 4 7 6l-4 2-4-6c1-1 1-1 1-2zm2-33c-2-4-3-8-3-12-1-5-1-10 3-14 2-3 6-5 9-6 2 0 4 0 5 1 0 0 0 1-1 1h-3c-2 0-3 1-4 2-4 1-6 4-7 8-2 5-1 13 2 18h1l-2 1v1z" class="B"></path><path fill="#fff" d="M134 306h0c1-2 1-3 0-4-1-3-4-5-7-6-4-1-7-1-10-2-7-3-14-11-17-17-4-9-7-27-4-37 3-8 7-17 10-25 3-5 5-11 9-16-2 11-9 20-13 30-1 2-2 4-2 6 5-5 12-7 20-6 3 1 7 2 10 3-9 0-21-3-29 4-4 4-4 10-4 15 1 6 0 12 2 17 1 6 6 13 11 17 3 3 6 5 10 7 5 2 11 1 14 6 2 2 2 3 2 5s0 3-1 4c-1 0-1 0-1-1z"></path><path d="M116 333c-4-4-8-8-11-13-8-13-11-29-13-44-1-11-2-24 0-35l1 1c-1 9-1 18 0 26l1 11c2 11 3 20 7 30 2 4 3 8 6 11l2 2c4-7 6-12 13-17 4 0 9-1 12 1 0 1 0 1 1 1-3 3-7 3-10 5-2 1-4 3-6 4l4 4c2-1 3-3 5-4 2 0 3-1 5-2 1 0 5-1 5-2 3-8 3-15 0-22-2-6-8-6-13-8-3-2-6-3-8-4-5-3-12-5-14-11v-2l3 3c3 4 8 6 13 8-4-3-7-4-10-8v-1l2-1v1c3 0 9-2 12-3-3-4-5-9-4-14 0-2 2-4 4-5 3-2 7-2 10-1 2 0 4 2 5 4s1 5 1 8c-2 4-7 7-11 8-5 3-10 4-15 5l9 6c5 3 11 5 15 9 4 3 6 8 6 12 1 6 0 10-3 15 3-2 4-3 5-7 1-5 0-10-1-15 0-2 0-4-1-6-2-2-5-4-6-6 2 1 7 3 8 6 1 2 1 6 1 8 0 5 2 14-1 18-3 6-11 8-16 11 5 5 10 9 15 13l-1 1h0-1l-1-1h-1c-2 1-5 1-7 0l-1 1-4 1c-1 0-2 0-2-1-4 0-6-2-8-5 1-3 2-5 3-8-1-1-2-2-3-4-3 2-6 4-8 7 1 3 5 6 7 8l-1 1z" class="C"></path><path d="M124 306h7c-5 3-10 6-15 10l-4 3c3-5 7-11 12-13zm9 27c-3 0-6 0-8-1-2 0-3-1-3-3s3-6 4-8c4 2 7 5 10 7 2 2 3 3 4 5-2 1-5 1-7 0zm-6-87c2 0 5 0 7 2 2 1 3 3 3 5s-1 3-2 4c-2 1-4 0-6 0 1 1 2 2 3 2l-1 1-6 3c-1-2-3-3-4-5s-1-5 0-7c2-3 3-4 6-5zM518 76h1c3 0 8 3 11 5 2 2 3 4 5 7s4 7 6 11c2 6 3 14 3 21 1 14-1 29-7 42-7 17-17 33-27 47l-9 12c-8 10-15 21-20 33-2 6-4 11-6 17s-4 13-6 20l-5 22c-4 17-11 36-23 50-13 15-31 22-50 27-5 2-10 4-15 4 12-4 23-8 34-14 6-3 11-6 16-10 15-14 24-35 25-55 0-16-5-33-16-45-20-22-54-27-82-27v67 135 69 21 15c1 11 3 22 7 32 1 4 2 7 4 11 4 7 11 14 18 19 15 12 33 19 45 34 6 8 10 19 9 29 0 3-1 5-2 7-2 6-8 11-14 13h0c4-2 8-6 10-11 3-6 3-13 1-19-5-13-16-21-27-27-14-6-28-10-43-12-35-6-73-4-107 8-15 6-35 15-42 30-3 6-5 12-3 18 3 7 10 10 16 13h-4c-5-1-10-4-13-7-5-6-5-13-4-20 3-20 19-32 34-44l17-14c14-13 24-29 28-48 3-14 1-29 1-43v-58-219l-21 3-18 3c-21 7-41 19-54 37-4 7-9 14-11 22-3 9-3 21-1 30 3 18 14 35 31 43 5 2 11 3 15 6l-10-1c-3-1-5-1-7-2-7-3-14-9-20-15-8-7-15-15-20-24-4-8-7-17-9-26-3-10-5-20-5-30 0-11 1-22 1-33 0-5-1-10-1-15 0-3 1-6 0-9 0-2-1-3-1-5-2-5-3-11-5-16-3-3-6-6-8-10 4 1 7 4 10 7l5 5c1 2 2 4 2 6l1-2c1-1 2-3 3-4 1 0 3 0 4-1h2c2-1 5-6 6-8-12-3-24-8-34-15-15-9-28-22-36-36-4-6-7-12-8-18-1-5-2-11-1-16 1-1 1-2 1-3h0c0 3-1 7 0 10 1 16 14 31 26 41 15 13 34 21 53 27l18 3c8 2 17 4 25 5 18 1 35 1 53 1h59l58-1c13 0 25 1 37-1 9-1 18-3 28-5 27-6 55-17 74-40 10-13 15-27 13-44-1-9-5-21-12-28-2-3-6-4-8-6l-1-1z"></path></svg>