<svg xmlns="http://www.w3.org/2000/svg" xmlns:v="https://vecta.io/nano" viewBox="131 147 801 787"><!--oldViewBox="0 0 1024 1024"--><path d="M427 345c2-1 6-1 9 0 8 0 15 0 23 1h0l-2 1c-4 0-9 0-14 1h-16c-1-1 0-2 0-3zm170 0h12c2-1 5-1 7 0v3c-3 1-10 0-13 0-6 0-13 0-19-2h0c3-2 9-1 13-1zm-247 13l17 1-1 10-1 1c-4 0-12-9-15-12zm325 1h17c-2 2-5 4-8 6-2 2-5 4-7 6-2-4-2-8-2-12zm-360-3c4 2 8 4 11 6l15 10c1 1 5 4 6 6 1 1 0 1 0 2-1 1-1 1-2 1-4-2-7-5-10-8-7-5-14-11-20-17zm409 1h0c-3 4-8 8-12 11l-11 10c-1 1-3 3-4 3h-1l-1-1c0-1-1-2 0-3 1-2 4-4 5-5 8-5 16-12 24-15zM512 251h2c2 1 4 5 6 7v1h1c1 0 0-1 1-1 2 1 3 1 4 2l-1 1c-3 2-8 1-11 2-2 0-4-1-6-1s-5 0-7-1v-1l1-1c1 0 3-1 4 0h1c1-3 3-6 5-8zm-76 114l27 5-7 2-21 5 1-12zm168 0c1 0 1 0 2 1l1 12-20-5-8-3 25-5zM458 466h1c1 3 1 6 1 8v17 43c0 6 0 14-1 20h-1l-1-1v-59-18c0-3 0-7 1-10zm124 0h2v14 23 50l-1 1h-1c-1-17 0-34 0-51v-24c0-4-1-9 0-13zm2-73h1 4c2 0 3 2 4 3 2 2 2 5 2 7-1 3-3 5-6 7-2 0-4 0-6-1-1 0-3-2-4-4s-1-5 0-7c1-3 3-4 5-5zm-132 0h5c2 1 4 2 5 4s2 5 1 7c-1 3-3 5-6 6h-3c-3 0-5-2-6-4s-2-5-1-7c1-3 3-4 5-6zm193-49h44c4 0 12-1 15 1 0 2 0 2-1 3-3 1-7 1-11 1h-47c-3 0-10 0-13-1l-1-1v-1c3-2 11-2 14-2zm0 168c3 0 5 0 7 2 1 3-2 30-2 35l-3-6-12-25c3-3 6-5 10-6zM339 344h0c5-1 69 0 71 1 0 0 1 0 1 1v1l-2 1c-2 1-5 1-8 1h-16-28c-6 0-12 0-18-1l-1-1c0-1 0-2 1-3zm20 174c2-1 4-1 6 0 2 2 6 25 7 30l-7-7-19-16c3-3 9-6 13-7zm319-1h2c5 0 11 4 15 8-2 2-4 3-6 5l-11 9-9 9 4-19c0-3 1-7 2-9s2-2 3-3zm-285-5h2c4-1 8 4 11 7l-11 23-4 8-2-23c0-4-1-9 0-12 1-2 2-3 4-3zm332 5l25 1c1 1-8 13-9 15l-7 11c-3-6-10-21-9-27zm-410 0c1 0 1-1 2 0 0 9-6 19-9 28l-6-10-12-17 25-1zm418-68l34 17-9 1-26 3c-2-2-3-5-4-7-1-6 2-10 5-14zm-425 1h1c2 2 4 6 5 9 0 4-1 7-4 11-9 0-18-2-27-3l-9-1 34-16zm151 115h0c2 2 1 12 1 15v45 145 45c0 7 0 15-1 22l-1 1c0-1-1-1-1-2v-48-110-73c0-13 0-27 1-39l1-1zm76-350l1 1c1 2 2 5 4 7 2 1 3 3 3 5-1 1-1 0-2 0l-2-1c-2-1-4-1-6-1l-1 2h1 2c1 0 1 0 2 1 0 2-3 5-4 8-1 1-1 4 0 5 1 2 2 4 4 4h0c-1-2-2-3-2-5-1-1-1-2-1-4 4 1 4 5 6 7l6 3c1 1 1 1 1 2-1 1-5 1-7 1 3 2 6 4 10 5 1 1 4 2 5 2 3 0 9-3 11-4s2-1 3 0c0 1-1 2-1 3 1 2 10 0 13 1 2 0 5 0 7 1-7 5-26 4-34 3s-16-4-22-11c-4-6-6-11-5-19 1-5 4-13 8-16zm-45 1c1 0 1-1 1 0 4 2 6 8 7 12 2 6 1 12-2 18-5 7-12 12-20 15-4 1-8 1-13 1-8 0-18 1-25-4 4-4 15 0 20-1v-4h1c3 0 5 2 8 3 1 0 2 1 4 1 0 0 2-1 3-1 4-2 7-3 11-5-2 0-5 0-7-1-1-1 0-1-1-2 3-1 5-2 8-3h0l1-3c0-2 1-2 2-3 1 0 2-1 3 0 0 2-1 4-2 6h1 1c1-2 3-7 2-9s-4-4-4-7l1-1c2-1 2 0 4 1v-1c0-1 0-1-2-2-2 0-3 1-5 2-1 1-2 0-3 0h-1c1-2 2-4 3-5 2-2 3-4 4-7zm92 349h1l1 1v69 130 49 15c0 3 1 6 0 9h-1l-1-1v-78-121-49-14c0-4-1-7 0-10zM291 377l4 2c8 6 20 15 25 25 1 2 2 5 2 8l-18 2-28 2c7-4 13-10 16-17 4-8 2-15-1-22z"></path><path d="M749 378c1 0 1 0 1 1-2 5-3 12-2 17 3 9 10 15 17 19l-26-1-20-2c0-2 1-4 1-6 3-8 12-15 18-21 4-2 7-5 11-7zM407 547h2c1 0 1 0 2 1s2 4 2 6v13 28l-2 73c0 2 0 6-1 7-1-2-1-4-2-6l-1-18-3-65c-1-9-1-19-1-28 0-4 1-8 4-11zm224 0h2c1 0 2 1 2 1 2 2 2 5 3 7v12l-1 23-2 55-3 29v1h-1l-1-10-1-72c-1-13-2-27 0-40 0-2 0-4 2-6zm90-62c5-1 12-1 18-1 23 0 47 2 70 4 10 1 20 2 29 5l-25 2c-23 3-47 4-71 4-11 0-22 0-33-2-3-1-7-2-8-5-1-1-1-1 0-2 4-4 14-5 20-5zm-437 0c6-1 11-1 17-1 10 0 19 0 29 2 3 0 6 1 9 3 1 0 2 1 2 3l-1 1c-10 9-63 6-78 5l-59-5c5-2 12-2 18-3l63-5zm229-380c2 7 5 14 7 21l9 33 4 13c0 1 1 3 1 4l-2 2c-2 2-4 5-5 7-6 9-9 18-13 27h-1c-5-13-11-24-19-35 0-3 1-7 2-9l5-17 12-46zm-208 91l70 25c2 6 5 11 9 16 3 3 6 6 8 9 2 2 8 6 9 8h-3c-16-7-32-2-49 0-1-2-2-4-4-5l-6-10-34-43zm414 1h2 0l-32 44-8 10c-1 1-2 3-3 3 0 0-9-2-11-2-6-1-12-2-18-2s-12 2-19 3l-5 2c11-10 21-20 26-35l68-23zM605 494c1 0 2 1 3 2 4 5 5 14 6 20 3 22 2 45 2 67l-2 72-2 66-7 82c0 1 0 3-1 5l-1-1c-1-7-1-13-1-20l-1-39-1-106-1-92c0-15-1-32 2-48 0-3 1-6 4-8zm-170 0h2c2 1 3 4 3 6 2 5 2 11 2 17l-1 125-1 139-1 19c0 2 0 6-1 7h-1v-4l-8-91-3-129v-40c1-8 1-16 2-24s2-19 7-25zm-3-339h0c12-2 23 2 32 9 10 8 17 19 19 32 1 10-1 22-7 31-7 10-18 19-31 21-16 3-30-3-43-12 5 1 9 1 14 0 13-2 23-8 30-18 3-4 5-9 5-13 1-6-1-11-5-16-3-3-7-5-12-5-4 0-9 1-12 4s-4 7-4 11c0 3 2 6 4 9 3 1 6 3 8 2 5-1 8-5 10-9 1 4 0 9-2 13-4 4-8 8-14 9s-12 0-18-4c-6-5-11-12-12-21s2-20 8-27c8-10 18-15 30-16z"></path><path d="M586 155h2c12-1 24 3 32 11 8 7 12 17 13 27 0 8-3 16-9 22-4 5-10 8-17 8-6 0-11-2-15-6-5-5-6-9-6-16 2 2 3 6 6 7 2 2 5 2 7 2 3-1 6-3 8-5 2-3 2-7 1-10 0-4-3-7-6-9-4-2-9-2-13-1-5 1-9 4-11 8-4 6-3 13-1 18 2 7 6 12 11 16 11 8 24 11 36 9-8 5-16 11-26 12-12 2-25 0-35-7-10-8-18-18-19-31-2-13 1-27 9-37 8-11 20-17 33-18zm62 224c12-2 25 3 35 11 12 9 19 22 21 37 1 15-3 31-12 43-10 12-25 20-40 22-16 1-32-4-44-15-16-13-23-29-25-49 3 4 6 8 10 12 7 9 18 16 29 19 10 3 21 2 30-4 8-4 14-11 16-20 1-7-1-14-4-20-3-4-8-8-13-9-4-1-8-1-11 2-2 1-5 4-5 6s0 3 1 4c3 2 11 1 14 0-5 9-13 10-22 13-2 0-6 1-8 4-2 2-1 6-1 10-4-5-7-12-7-17-2-11 0-23 6-32 7-10 18-15 30-17zm-265 0c12-2 23 2 32 8 9 7 14 16 16 26 1 12-2 22-7 32 0-3 0-6-1-8-3-8-18-7-24-11a30.44 30.44 0 0 1-8-8c5 1 9 2 13 1 1 0 2-1 2-2 1-1 1-3 0-5-1-3-5-6-9-6-4-1-10 0-13 3-6 4-9 10-10 17s1 14 5 20c5 8 14 13 23 14 15 2 27-4 39-13 7-5 13-12 17-20 0 14-5 28-13 39-10 13-25 23-42 25-15 3-30-2-42-11-13-9-21-22-23-38-2-15 1-30 10-42s21-19 35-21zM126 274c5-1 11 0 16 0h30 118 446 73c12 0 101-1 104 1h-1c-5 1-11 1-16 1h-35c-6 0-13-1-19 0-3 0-7 2-9 3-16 8-29 18-40 32-12 15-19 34-21 54-1 7-2 15-1 22l1 1-12-13c-9-10-19-19-30-27-19-12-42-19-64-19h-63-21-12c-3 1-4 1-6 3-1 1 0 2 0 3v35 72 215 111l-1 34c0 9 0 18 2 27 2 13 5 25 13 36 11 16 25 22 44 25-14 2-28 2-42 2l-44 1h-62c-19 0-37-1-56-2 12-4 24-6 34-15 16-13 24-34 25-54 2-17 1-34 1-52v-92-293-39-10-4l-1-1c-1-1-4-2-6-2h-15-31-34c-9 0-17 0-26 1-20 2-40 9-57 20-14 11-26 24-38 37 2-6 1-13 1-19-2-19-8-38-19-54-10-15-25-26-41-34-3-2-7-3-10-4-5-1-11 0-16 0h-35c-8 0-17 1-24-1v-1z"></path></svg>