<svg xmlns="http://www.w3.org/2000/svg" xmlns:v="https://vecta.io/nano" viewBox="157 160 708 748"><!--oldViewBox="0 0 1023 1024"--><path d="M627 374h1l1 1c1 2 2 4 1 7-1 0-1-1-2-2-2-1-1-4-1-6zm28 337c4 0 6 1 9 4l-1 1h-2c-3-1-7-1-9-4 1 0 2-1 3-1zM386 237h1c2 1 3 2 4 4 0 2 0 4-1 6-2 1-3 1-5 1-1 0-2 0-3-1 1-1 3-1 4-1l1-1c1-2 1-4 0-6l-1-2zm22 244h0c2 3 6 12 6 14h-3c-1-1-2-2-3-4-1-3-2-7 0-10zm183-232h1c4 1 11 4 13 7h-2-2c-4-1-8-4-12-4h-2c1-2 2-2 4-3zm63 223h0c-1 3-3 7-3 10 0 4 4 17 3 18h-1c-2-4-4-9-5-14 0-5 2-10 6-14zm44-83h2v8c-1 3-2 7-4 9-4 2-6 2-10 2l-1-1c1-1 2-1 4-2 2 0 6-1 7-4 1-1 2-2 1-3l-3-1c-1-1-1-2-2-4h1c0 1 1 2 2 3 1 0 2 1 3 0v-7zm-58-3c2-1 3 0 5 1 4 3 7 6 8 11 0 3 0 6-2 9h0c0-3 0-5-1-8 0-4-2-7-6-10-1-1-2-2-4-2v1c-1 2-1 4 0 6h0v1c-1-1-2-3-2-4-1-2 0-4 2-5zm-81-219c4 0 7 0 10 1h-4c-8 1-13 5-18 11l-4 8c0-4 2-10 5-13 3-4 6-6 11-7zm-249 1c3-1 4-1 6 1 1 1 4 3 4 5-2-1-6-4-8-4-1 0-2 1-3 2-2 2-2 5-1 7s2 3 3 5h-1c-2-1-5-3-5-5-1-3-1-4 0-6 1-3 3-4 5-5zm337 22h1c-2 2-5 4-6 7-1 2-1 4 0 6 2 6 12 7 17 9h-1c-3 0-6 0-9-1-4-1-7-2-9-6-1-2-1-5-1-7 2-4 5-7 8-8zM337 663c3 0 6 0 8 2 3 1 4 3 4 6-1 1-1 1-2 1l-1-3c-2-2-5-3-8-3h0c-4 0-8 2-11 2s-4-1-5-2v-1c5 1 10-1 15-2zm318-420h1 3c2 1 4 3 4 5 1 1 1 4 0 6-2 3-5 4-8 5l5-4 1-1c0-2 0-5-2-6-1-2-2-2-3-2-3 1-2 2-4 4-1 0-3 0-4-1 2-3 3-5 7-6zM266 614h1c-1 2-2 4-1 6 0 2 1 4 3 5h3c2-1 3-6 4-9 1 4 0 9 1 13h1c0 2 1 2 2 3-1 1-1 0-2 0-1-1-2-1-2-2-1-1-1-2-2-2-2 1-4 1-6 0-3-2-4-4-4-7s0-5 2-7zm154 84c1-1 2-1 3 0 3 1 5 4 5 7 1 3 1 6-1 9-1 1-2 3-5 3-1 0 0 0-1-1 2-2 3-5 4-8 0-2-1-5-3-7-1-1-2 0-4 0-3 3-5 7-7 11 1-3 1-6 2-8 2-3 4-5 7-6zm-87-474c2-1 4-2 6-2 7 1 17 0 22 5 3 4 4 11 5 16v2c-1-2-2-5-3-7-2-5-5-10-10-11-2-1-4-1-7-1-3-1-6-2-8-2h-4 0-1z"></path><path d="M425 388h2c2 1 3 2 4 4 0 5-2 9-7 11-1 1-3 1-4 2s-1 4-2 5c-1 3-3 4-5 5l-1-1 1-2c3-3 4-6 5-10 1 0 0 0 2-1 2 0 4-1 6-3 2-1 2-3 2-5-1-1-1-2-2-2-3 0-3 2-5 3h-1c0-1 0-2 1-2 0-2 2-3 4-4zm259 307c8 4 14 10 17 18 2 4 1 8 0 12-1 2-3 5-5 5-2 1-4 1-6 0-1-1-1-2-2-3v-1l2 1c1 1 1 1 3 1 3-2 5-7 7-10-3-10-9-16-16-23zM501 248c3-1 9 3 12 5 3 1 6 2 9 4l-17-2c-8-1-15-1-23 0l9-3 10-4zm69 291c-1 5-4 10-6 15-4 11-2 21-2 32l-1-1c-1-4-2-8-2-11-3-15 3-24 11-35zM426 161h0 4c2 0 4 2 5 4 2 2 2 6 1 9-1 4-4 8-8 10-2 1-6 2-8 2-3-1-3-3-4-5h0 1c0 1 1 1 2 2s3 0 4 0c4-1 7-4 9-8 1-2 1-5 1-7-1-2-3-4-5-4-3-2-6 1-8 2v-1c2-2 3-3 6-4zm-90 530h1c3 0 6 0 8 2 1 2 2 4 2 6-1 1-2 1-3 2l-1-1s1-1 1-2-1-2-2-3c-4-1-9 1-13 3-3 1-5 4-6 7 0 5 2 10 1 15-1-2-2-5-3-7-1-5-1-9 2-13 3-5 8-7 13-9zm202-481h1c2 2 2 5 3 7l3 13-7-1-6-1c0-3 2-6 3-8 2-4 2-7 3-10zm90 547l2-1c4 0 9 2 12 5 2 2 3 6 3 9 0 5-3 7-6 10 2-4 3-8 3-12 0-2 0-3-1-4-2-2-5-3-7-4-5-1-7 1-9 6 0 2 0 4-2 5l-1-1c-1-2-1-5 0-8s3-4 6-5zm18-94h3c2 0 5 1 6 3 1 1 2 2 1 4 0 3-2 5-4 6-5 4-12 5-18 4 4-1 8-2 12-4 2-2 7-5 8-7-1-2-2-3-4-3-5-1-11 6-15 9v-1c3-6 5-9 11-11zM336 448l4-1c2 1 3 1 4 3 2 2 2 6 2 10 0 1-1 2-2 3h-1c-1 0 0-1-1-1 0-3 0-7-1-9-2-2-3-2-4-2-3 1-4 3-6 5v4c0 5 3 7 5 10h0-2c-2-1-4-2-5-4-2-3-1-8 0-11 1-4 3-6 7-7zm166-261h1c2 0 4 1 6 3 2 3 2 6 1 9 0 3-2 5-4 6s-4 1-6 1l-1-1c-1-1-2-1-2-2l1-1 3-1c2 0 2-1 3-2 0-2 1-5-1-6-1-1-2-1-4-1 0-1 0-1-1-1v-2c1-1 2-2 4-2zm174 420c3-1 8-1 11 1 1 0 2 1 3 3 0 2 0 4-1 6s-3 2-5 3v-1c-1-2 2-4 2-6-1-2-2-3-3-3-2-1-6-1-8 0s-3 3-4 5c0 3 2 8 1 11-1 1-2 2-3 2-2 1-3 1-4 0s-2-1-2-3v-1l2 2h3c3-2 0-11 1-14s4-4 7-5zM372 164c10 3 22 8 31 14 3 2 6 4 6 7l-1 1c-3-1-6-4-9-5-4-3-9-4-13-6-6-3-10-7-14-11zm233 237h2c3 0 5 2 6 4 5 6 4 12 3 19-1 3-2 7-1 10s4 6 6 9c-2-1-4-3-5-4-3-4-3-7-3-12v-3c1-5 2-11-2-16-2-2-3-2-5-3-2 1-3 2-4 3-2 4 0 9 1 13h0c-2-1-3-2-4-4s-1-7 0-9c1-3 3-5 6-7zM468 212c0-1 1-1 2-1 1 1 1 1 1 2 2 4 4 9 7 13h0c-3 1-6 0-9 0-4 0-7-1-11-2h0l1-1v-2c1-5 5-7 9-9zm89 404v11c0 11 3 22 8 31 3 6 7 11 9 17h-1c-5-5-10-12-13-18-7-13-7-27-3-41z"></path><path d="M467 158c1 0 2 0 3 1 2 0 3 2 4 3 1 3 0 6-1 9s-4 6-7 7h-1c1-2 1-4 3-6 1-3 3-5 3-8 0-1-1-2-2-2-2-1-3 0-5 1-4 2-5 7-6 12v9c0 4 2 8 6 11h0c0 1-1 0-2 0-3-1-4-3-5-5-3-7-2-18 2-25 2-4 4-6 8-7zm-51 286c3 0 5 1 8 2 3 2 5 5 5 8 2 7-2 16-6 22 2-6 3-12 4-18-1-3-2-6-5-7s-5-2-8-1c-1 1-2 2-2 4s0 4 2 6c1 0 1 1 1 2h-3l-3-3c-1-3-1-8 1-11 1-2 3-3 6-4zm157 107c1 0 2-1 3 0 2 0 3 1 4 2 2 2 2 6 1 9 0 3-3 5-6 6h-1c-3 1-4 1-6-1-1-2-1-6-1-8 1-4 3-6 6-8z"></path><path fill="#fdfdfd" d="M574 555h2c1 0 2 1 3 2 1 2 1 5 0 6 0 2-2 3-4 4h-3c-2-1-2-1-3-2 0-2 0-4 1-5 0-2 2-4 4-5z"></path><path d="M491 208c2 0 6 1 8 2 7 2 16 4 22 1h1 0c-1 3-3 5-5 7-2 3-5 5-8 6h-1c-6-3-15-10-17-16zm99 173l3 8c1 6 0 12 1 18 0 9 2 20 7 27 3 4 7 7 10 10v1c-3-1-5-2-8-4-8-6-12-15-13-24-2-12 1-24 0-36zM338 674h0c2 1 4 3 5 5-5 0-11 0-15 2-5 3-6 10-10 14-2 3-5 5-7 7-7 7-10 13-13 22l-1 2h0c1-7 3-16 7-22 3-4 7-8 11-12 2-3 4-7 6-10 4-5 11-7 17-8zm265 6l2 1c2 2 4 3 7 5-5 4-5 8-7 14-1 3-2 5-3 8-1 1-1 1-1 2-2-1-4-1-5-3-2-2-2-6-2-9 0-7 4-13 9-18zm-36 32c5 7 4 16 4 24 0 4-1 7 0 11s6 7 9 10c4 5 7 14 7 21 1 6 1 14-3 18h0l1-2c0-1 1-3 0-5-1 1-2 1-3 1s-2 0-3-1-1-3-1-4h0c1 1 2 2 4 3 1 0 2 0 3-1 1-4 0-8 0-12-3-9-7-18-16-23l-1 1c0 6 2 10 6 15-2-1-4-2-6-4-9-5-2-16 0-24 1-2 1-4 1-6 1-8-1-15-2-22zM290 416c6 0 13 0 19 2 5 2 9 5 11 10 2 2 2 5 1 8-1 2-4 4-6 5-5 2-12 2-17 0-4-2-5-6-7-10l2 2c2 2 3 3 5 4 4 2 11 1 15 0 1-1 3-3 3-4 1-3-1-7-3-8-4-4-11-5-17-5-9 0-17 0-26 1-4 0-9 1-14 1 10-4 23-5 34-6zm40-234h0c-4 3-8 7-12 10s-9 5-13 8c-3 2-6 4-10 5-4 2-9 3-13 3-4 1-7 1-11 1-3 0-6-2-9-3-9-1-20 2-28 5 7-6 19-10 29-9 2 0 5 2 8 2 5 2 13 1 18-1 6-2 10-5 15-8 4-2 8-3 12-5 5-3 8-6 14-8z"></path><path d="M608 171c1 1 1 1 0 2 0 1-1 3-2 3-2 3-5 4-8 6l-1 1c2 4 4 9 9 12 3 2 8 2 11 1 2-1 4-3 5-5 1-3 0-6-2-9 2 1 3 3 4 5s1 5 0 7c-2 2-4 4-7 4-4 1-10 2-13-1-5-3-8-9-9-15l-8 6c-2 1-4 2-5 4 1 2 1 3 3 5s4 3 7 5c2 1 5 4 7 5 5 1 11 0 16-1-8 4-13 4-21 2l-1 1c-1 0-1 0-1-1-1-4-5-5-8-8-3-2-5-4-6-8 0-2 1-4 2-5 3-4 9-5 13-7 3-2 4-6 8-7 2-1 5-2 7-2z"></path><path fill="#f3f2f3" d="M608 171c1 1 1 1 0 2 0 1-1 3-2 3-2 1-4 2-6 2v-1c1-3 6-5 8-6z"></path><path d="M683 698c1 0 1 1 2 1 0 4-1 8-3 12-2 7-5 14-3 22 2 13 15 18 20 30 3 10 2 22 3 32v1h-1c-2-5-2-10-2-14-1-10-2-17-8-25l-10-10c-10-10-6-22-4-34 1-4 1-9 1-13 2-1 3-1 5-2zm-87-327h0c3 3 5 6 8 9 4 3 10 6 15 9 5 4 10 8 14 13 3 3 5 6 6 10 2 4 1 8-1 11-3 5-7 8-13 9h0l1-1 3-2c4-3 7-8 8-13 0-4-2-5-4-8l-1 2c-2 3-3 4-6 5-1-1-2-1-3-3-2-5-2-11-4-16-3-6-14-9-20-14-3-3-3-7-3-11z"></path><path fill="#fdfdfd" d="M624 399c2 1 4 2 5 4 0 2 0 2-1 4 0 1 0 1-1 1-2-2-3-6-3-9z"></path><path d="M530 230h1c0 1 0 0 1 1 4 1 9 1 13 1 9 1 18-1 26 1 3 1 6 3 9 5l-7 3c-1 1-3 1-4 2-14 3-32-1-44-8l5-5zm106-68c2 0 4 1 5 2 11 7 18 19 25 29 3 3 6 7 10 10 2 2 4 2 7 3-1-3-3-6-2-10 0-2 1-3 3-4h4c4 2 6 7 7 10-2-2-4-5-6-7-1-1-1-1-2-1-2 0-2 1-3 2s-1 3-1 4c1 2 1 3 2 4 2 3 5 5 8 7 4 4 7 8 12 11 8 5 16 5 25 3-1 1-3 2-5 2l-11 2c-1 0-3 1-3 1-2-1-5-3-7-5-2-1-5-3-7-4 0 5 0 12 2 17 2 4 7 5 11 7h0c-4 1-7 0-10-3-5-4-7-12-6-18 0-3 1-6 1-8-1-3-7-4-9-6-3-2-5-2-9-3-4-2-9-5-12-8-8-8-10-19-17-27-3-4-8-7-12-10zm-58 522c1 1 0 2 0 3-2 6-2 11-1 17 1 5 2 10 6 15 3 4 8 7 12 11 3 3 6 7 9 10 4 7 3 15 1 23h0c3 4 7 7 9 11 2 3 3 7 3 10 0 4-1 8-4 11-2 2-5 3-7 7-2 10-3 12 2 22-1-1-4-3-5-5-3-5 1-15 2-20 1-6 8-7 8-14 1-6-6-13-10-18l-4 5 3-8-6-8 7 6c1-6 1-13-1-19-3-5-10-14-16-15-2-1-3-1-4 0-1 4 1 9 2 13-2-3-4-5-5-9-2-5-2-10-3-16-1-4-3-9-3-14 0-6 1-13 5-18z"></path><path d="M568 222c10 1 21 6 29 12 3 2 5 5 8 7 7 5 14 6 22 6l-7-3c3 0 6-1 9-3l6-3c2-1 5-1 7-1h10 0l-1 1c-2 0-6 1-7 2-4 2-7 7-11 10-7 4-14 4-22 3-7-1-13-5-18-9-4-3-7-7-11-9-3-2-6-3-9-4-2-1-4-1-5-2l1-3c0-1 0-2-1-3v-1zM346 369c2 0 4 0 6 1 1 1 3 2 3 4 1 2-2 6-4 8 1 1 3 3 3 5 2 5-1 11 1 16 1 6 9 14 14 18 2 2 6 4 8 7 2 2 4 6 6 8 2-2 4-8 3-11-1-1-3-2-3-3v-3-7c1-7 2-19-3-24 1 4 1 8 0 13h0c-1-4-1-7-3-10-2-2-4-3-6-3h-1c-2 10 2 21 5 30 1 2 2 5 2 8h0c-2-6-5-12-8-18-1-5-2-9-2-14 0-7 4-16 9-21l-3 6c0 1-1 2-1 2 0 1 1 1 2 1 1 1 3 1 4 2 2 1 3 3 5 5 3 7 3 13 4 20v4c1 1 2 1 3 2v5c0 8-2 15-5 22-5-7-11-14-17-19-5-5-10-9-14-14-2-1-3-3-4-5-1-3 0-5-1-8-1-5-4-7-2-13 1-3 4-5 4-9-1-1-2-2-4-2-4-1-6 3-9 5v-1c2-3 4-5 8-7zm107-158h12l-2 1-3 2c-4 3-5 10-5 15 0 1-1 2 1 3 1-1 1-3 2-5l15 2c3 0 6 0 8 1s4 4 6 6l-6 2a89.67 89.67 0 0 1-46 0l1-1c11-8 5-14 10-23 2-2 4-3 7-3zm156 363c6 6 13 13 15 22 2 12-3 21-10 31l-2 3c-3-7-7-17-8-25-1-5 0-11 1-16s3-10 4-15h0z"></path><path fill="#706f70" d="M157 268h13 21 77 163 89c-15 1-148 0-150 1s-4 3-5 4c-5 4-10 9-14 14-9 10-16 22-20 35-3 8-4 16-5 25-1 4-2 9-2 13 1 0 1 0 1 1l-9 3 3-21c3-12 8-24 13-36 4-8 8-16 13-23 3-4 7-7 10-10 2-2 5-4 7-6H157z"></path><path d="M333 224c0 2 0 3 1 4 2 7 0 16-2 24 5-1 10-2 13-5l1-4h0l1 2c1 0 2-1 2-2 2-2 1-6 1-8v-1c2 2 3 4 3 6 0 3-1 5-3 6-4 4-11 7-17 7l-9 3c-2 1-5 3-7 3-3 1-5 1-7 1 2-1 4-3 6-5-5-2-11-3-13-8-1-3-2-4-1-6 1-3 4-7 6-9 1-1 4-2 5-2 4-1 9-1 12-2s6-2 8-4z"></path><path fill="#fdfdfd" d="M316 234c1 0 3-1 4 0 2 0 4 1 4 3 2 2 1 7 0 9-1 4-3 6-7 8h-1l-3-1c-3-2-6-5-7-9-1-2-1-4 0-5 2-4 6-5 10-5z"></path><path d="M364 595l9 6c7 7 12 14 14 23 3 10 2 18-3 26-4-3-7-7-10-11-6-7-12-15-14-24-2-7 0-14 4-20zm225 2c-2 11-1 23 3 33 2 8 7 15 11 22l-13 12c-1 0-1-1-1-1-8-9-13-19-14-31-1-5-1-12 1-16 2-7 9-13 13-19zm-227-90c3 7 4 12 4 19 0 13-6 24-15 33-2-1-4-3-6-4l-3-2c-3-4-6-8-6-13 0-10 9-17 16-23l10-10zm-40 57c3 3 6 6 9 8-1 5-1 9-1 14l4-11c4 2 11 5 14 8-1 0-1 0-1 1-4 1-6 5-7 9-1 2-2 5 0 7 2-1 3-9 4-12 2-2 3-3 6-3 4 1 8 4 11 7-3 3-5 6-6 10-3 11 1 21 7 31 3 5 7 10 11 14 2 3 6 6 7 10h-1-1l-19-20c-11-12-23-21-28-37-2-5-3-11-4-16l-5-20zm80-96l4 8-1 2c-1 5-1 11 2 16 1 2 3 4 6 4 1 0 0-1 2 0 1 5 1 10 2 15-3 2-5 3-8 2-4 0-6-3-9-6v-1l-1 1c1 1 1 3 2 4 2 3 5 4 8 5 3 0 5 0 7-2h0 0c-1 16-6 30-13 44-5 8-10 15-15 22-3-2-5-4-8-6l1-1 3-1c10-9 12-25 13-38l2-31 3-37zm-69 36c-3 4-6 8-10 12l-7 7c-1 3-2 7-2 10-1 7-2 15-1 22 0 4 2 9 3 14-4-7-5-14-7-21l-2 14c-1-4 0-7 0-11l-1-17c-4 3-8 7-9 12v1c-1 7 0 15 0 22-1 5-1 10-1 15 2-2 4-4 8-5 3-1 6-1 8 1 4 2 5 5 6 8 1 4 0 8-2 11s-5 4-9 4h-1l4-2c2-2 3-4 4-7 0-2 0-6-2-8-1-1-2-2-3-2-5-1-9 3-12 6l3 6-4-4-3 5c-2 8 2 16 6 23h-1c-5-4-8-11-9-17 0-6 2-10 5-15-1-2-2-3-2-5-1-4 0-9 0-13 0-11-1-23 2-34 0-1 0-3 1-3 0-1 1-1 2-1l8-5c3-1 6-4 9-6 5-4 9-9 12-13-2 0-5 1-7 2-6 3-10 7-17 9-6 2-13 2-20 3-4 0-8 1-11 2-3 2-6 5-7 8-1 1-1 3 0 4 1 2 3 4 5 4s4 0 6-1c2-2 0-6 1-8s1-1 3-1c1 0 2 0 2 1 1 2 0 7-1 9s-3 3-4 4c-3 1-8 1-10-1-3-1-5-3-6-6s0-6 1-8c5-8 21-12 30-13 5-1 11-1 16-2h1c4-1 8-3 12-5l13-5zm36-312c12-1 24 0 35 4 4 2 8 4 12 5l1 1c8 2 19 0 27-1 6 0 12 0 18 2 2 0 5 1 7 2 1 1 1 1 1 2-3 1-15 0-19 1l-21 3c-6 1-14 4-20 3s-10-6-14-11l5-3-6-1-6-2c6 6 9 13 15 18 2 1 5 3 7 3 5 1 11-1 16-2 5-2 10-3 16-4-2 5-1 10-3 15-1 4-5 7-9 9-11-3-23-10-30-18-3-3-5-7-8-10-6-8-15-13-23-16h-1zm225 169h5v1l-2 2c-2 1-4 2-5 4-6 7-11 16-14 25-2 8-4 17-2 26 1 4 3 8 5 13-4 0-8 1-11 4-2 0-3 1-4 3 1 4 4 7 8 9h0c0-3-3-7-5-9 4-2 10-3 13-6h0l11 10c0 1 1 1 1 2h-2c-4 0-8 2-11 4-8 3-12 9-15 16v1l-6-17c-2-9-1-17-1-25 1-16 2-32 10-46 6-10 14-14 25-17zm-284 13h1c2 4 3 8 6 12 8 14 23 24 36 33 8 6 17 12 23 19 2 2 6 6 5 10-3 7-10 13-17 18l-11 6c4-5 4-10 3-17-3-21-22-31-36-46-9-9-16-20-18-32 3-2 5-2 8-3zm258-195h0c-4 2-7 2-10 5-8 6-11 16-12 26 11 0 20 2 31 5 7 2 14 4 21 5 8 1 15-1 23-3 10-2 21-1 31 2 9 3 18 8 23 17 3 6 3 13 1 19 0 2-1 5-3 6 0-1-1-1-1-1 0-1 1-6 1-7s0-3-1-5c-1-3-3-5-5-8-14-13-32-10-48-4-2 1-7 3-8 3s-3-1-4-2c-4-2-7-6-12-8-7-5-15-8-23-10-3-1-7-2-11-2-3-1-7 0-10 0 3 0 6 1 10 3s4 4 6 9h-19l-3-12c-1-9-1-19 5-27 4-6 10-10 18-11zM314 631c4-1 8-1 11 0 23 1 34 17 48 33l-8 10c-7-12-16-22-29-27-10-4-22-5-33 0-7 3-13 8-15 15l-1 3c0 3 0 7 3 10 1 2 4 4 7 4 2 0 4-1 5-2 1-2 2-4 1-5-1-4-4-2-6-4-1-1-1-2-1-4 1-1 2-2 3-2 2-1 5-1 7 0 3 2 5 6 5 9 1 4 1 8-2 11-2 3-5 5-9 6-6 1-11 0-16-3-5-4-9-10-9-16-1-8 1-16 6-22 9-10 20-15 33-16z"></path><path d="M504 170h3c6 0 13 3 17 8 7 7 11 19 11 29-1 11-5 19-13 26-4-1-7-4-11-7h3c3-1 6-5 8-8 4-6 3-15 1-22-1-6-5-12-11-15-3-2-8-2-12 0-5 2-10 7-13 12-2 4-1 10 1 15 2 6 7 10 12 15 8 7 16 13 27 17 12 5 27 8 40 6 6-1 10-3 14-8h0c3 2 6 4 8 7-7 5-15 9-24 10-21 4-48-3-66-15-10-7-22-18-24-31-1-9 0-19 6-26 6-8 13-12 23-13zm-87 203h0c-2 1-5 2-6 3-13 7-8 27-9 39 0 10-2 21-4 30-6 19-18 32-35 41-13 7-28 12-43 16-10 2-23 6-33 3-6-2-11-7-14-13-4-9-5-19-2-28 1-5 5-9 9-12 6-2 12-3 17-1h1c4 3 6 5 8 9 1 3 1 7 0 10-1 2-3 5-5 6-1 0-2 0-3-1h-1l2-3c1-2 1-4 0-6s-3-4-5-4c-3-1-7-1-10 1-2 2-3 4-4 7-1 5 0 10 3 14 4 5 9 8 16 9 14 2 30-4 43-10 9-4 18-8 26-14 18-14 26-33 28-56 0-6-1-13 0-20v-1c1-5 2-9 5-12 4-6 9-7 16-7zm-63-177h0c12-1 27 3 36 13 2 2 4 6 6 9 3 5 8 9 13 12 17 12 39 16 60 14 6-1 13-3 19-4 4-1 6 2 9 4-12 6-26 10-39 10-22 1-43-5-60-19-6-5-11-11-16-16-3-3-6-5-8-6-14-8-32-3-47 1-8 2-17 5-26 9-7 2-15 6-19 13-2 4-2 8-1 11 2 5 6 10 10 12 2 1 4 1 5 4h-1c-7-1-14-2-19-6-5-3-9-9-10-15 0-4 0-9 3-13s8-7 13-9c12-8 26-12 40-17 10-3 21-5 32-7zm61 445v2 3c-1 3 0 5 1 8 2 8 2 14-1 22v-11l-3-12c-1 4-3 7-4 10-1 1-3 3-3 4 0 3 2 6 2 9 1 3 1 7 1 11 1 13-1 26-1 39v1l-1-2c-2-13-5-24-9-36-1-3-2-8-4-9l-1 1c-1 1-1 2-1 4 0 10 5 20 8 29 2 5 3 11 3 16 1 5 2 10 1 15 0 19-5 37-11 55-3 7-6 15-11 21-4 6-10 10-17 10-5 1-10 0-14-3-2-2-4-5-4-8 0-2 1-4 2-5s3-2 4-2 2 1 3 2v1c-1 2-3 2-4 5 1 2 2 3 4 4 3 1 7 0 10-1 4-2 6-5 8-8 4-5 5-12 7-18 4-16 8-34 8-50 1-11 0-22-3-33l-4-14c0-2-1-5-2-7h-1c-1 1-2 2-2 3 1 5 3 9 4 13 3 12 5 23 5 36v8c-3 12-19 16-27 23-2 1-4 3-5 5-1 1-2 3-3 4 3-8 8-11 13-17 3-4 6-11 8-17 1-4 3-8 4-12l-1-1c-4 1-5 3-8 6h0c0-5 2-7 6-9 2-2 3-2 4-4 1-4 0-7 0-11 0-3 1-5 0-8 0-3-2-6-3-9l3 16-5-6c-3 5-6 13-8 18-1 4-1 10-4 12-4 4-10 4-15 8s-8 12-9 19v-1c-2-7 4-17 9-21s10-6 14-11c1-3 3-7 4-10 3-5 5-10 7-16 2-7 3-14 8-20 2-4 7-7 10-10 6-6 13-12 18-19s8-14 10-22z"></path><path fill="#fdfdfd" d="M378 716c4 8 5 16 4 25-1 5-1 11-4 15-2 2-4 4-7 6l-2 1c0-1 1-4 2-5 2-6 5-12 7-19 1-8 1-15 0-23z"></path><path d="M671 446c3 0 5 0 8 2 4 1 6 5 8 9 3 11-2 21-5 31-2 5-4 11-5 17-2 13-2 26-4 39-6 38-18 79-44 107-6 6-11 11-17 16-7 7-14 12-19 20-2 6-3 13-1 19 2 5 7 6 11 8l5-11c2-4 2-9 5-12 1-2 3-3 5-3 4-1 10 0 14 0 7 0 13 0 20-1 12-1 24-6 31-16 3-5 6-11 5-17 0-3-2-7-5-9h-4c-1 0-2 1-3 2v4c1 2 4 2 6 2 1 1 1 1 1 3 0 1 0 1-1 2-2 2-4 3-7 3s-6-2-8-4c-2-3-3-6-3-9 0-4 2-7 5-10 4-3 10-5 15-4s10 4 12 7c4 6 4 12 3 19-6 29-38 39-64 41h-10c-2 0-4 0-6 1-4 3-8 9-8 13-1 2-1 3 0 5 2-1 1-1 2-2 1-5 2-7 5-11l2-2h1c5 4 9 8 13 12 14 14 25 28 30 47 3 12 4 34-4 45-2 3-5 5-9 6s-8 0-11-2-5-5-5-8c0-2 1-5 2-7 2-2 4-3 7-3 2 0 3 1 5 2v3h-2c-2-1-1 0-2 0-2 0-3 1-4 3v4c1 1 3 2 4 2 2 1 5 1 7-1 4-3 6-9 6-14l1-1c1-9 0-18-3-27-5-11-13-19-23-25-7-4-14-7-21-10-5-2-10-5-14-8-5-3-9-6-12-10-4-7-5-18-3-25v-1c4-13 13-21 23-29 6-6 12-11 18-17 9-10 17-21 23-33 11-20 18-43 21-65 1-13 1-26 4-39 2-11 7-21 9-32 1-5 0-12-3-16-1-2-4-4-6-4-2-1-3 0-4 1-1 0-1 1-1 2-1 3 0 4 2 6 1 1 1 1 1 2-2 0-2 1-4 0s-3-3-4-5c0-3 0-5 1-7 2-3 5-4 8-5zm-272 9l-7 83c-1 15-3 26-15 36-3-1-8-4-10-7l2-1c7-6 11-13 12-23 2-12 3-24 0-37-2-4-3-9-6-12h-1c2 3 4 6 5 10 2 6 1 14 1 21 0 10-1 23-7 32-2 4-5 7-8 10-3-2-7-4-10-6 6-5 11-14 14-22 3-6 4-14 2-20-1-8-5-14-8-21l-12 12c-5 4-10 9-14 14s-7 11-6 18c1 4 3 8 6 11 6 5 13 9 19 12 10 6 19 11 28 18 14 10 24 24 26 42 3 20-8 35-22 48-5 5-10 9-14 14-3 4-5 10-7 16-2 5-5 9-9 14-8 10-19 17-27 27-6 9-11 19-16 29-11 21-27 38-50 46 5-4 10-7 14-10 7-5 13-11 19-17 4-6 8-11 11-17 5-10 9-21 15-31 8-12 20-20 29-32 8-10 10-24 17-35s18-19 23-32c3-8 2-17 0-24-7-21-25-33-43-44-11-7-22-12-28-24-4-9-3-19 0-28 3-6 7-12 12-17 2-2 3-4 6-5 6-4 14-6 21-9 12-5 24-13 31-24 3-5 5-10 7-15zm209-187h65 31 15c-10 4-17 10-22 20-4 9-4 19 0 28 4 10 8 19 3 31-2 5-6 9-10 12l-21-6c-29-6-60-4-90-5h-8c5-4 9-11 13-16 17-21 34-41 49-63l-25-1z"></path><path fill="#706f70" d="M608 268h65 31 15c-10 4-17 10-22 20-4 9-4 19 0 28 4 10 8 19 3 31-2 5-6 9-10 12l-21-6h5c6-1 11-3 15-7 4-5 5-11 4-17s-3-11-4-17c-2-7-2-15 0-21 2-9 7-18 15-22l1-1-67 1c-3 5-6 10-9 16-8 12-18 24-27 35-8 9-17 18-23 28h-8c5-4 9-11 13-16 17-21 34-41 49-63l-25-1z"></path><path d="M653 366h4c4 0 7 3 10 6 1 1 1 3 2 4 7 20-2 48-11 66-7 13-17 25-18 40-1 7-1 16 1 22 1 6 4 12 6 18 5 14 9 32 7 47-2 13-5 24-11 35 1-12 0-23-7-32l-1-1c2-1 4-2 5-3 3-2 6-8 7-11 0-2 0-3-1-4-3 3-4 9-7 12-2 2-3 3-5 3-4-1-6-5-9-8-4-4-9-8-13-12-10-12-17-25-23-40l44 32c-1 7-4 11-7 17 0 0 0 1 1 1l3-3c4-4 7-10 7-16 0-1 0-2-1-2-3-3-7-5-9-7l-22-17c-5-4-11-8-16-12-1-4-1-9-1-13 12 5 21 15 31 22 6 5 13 8 19 13h0c-1-9-4-19-3-29 0-12 3-23 3-35-9 9-21 14-34 14-4 0-14-1-16-4 3-10 26-4 33-10v-1l-17 2c-5 0-11 0-15 3-4 2-5 6-6 10l3 1c11 3 23 5 35 1 5-1 9-3 13-6-2 15-5 32-1 46-17-11-31-25-49-34 0 14 2 27 7 40 6 12 13 24 22 33l16 18c9 9 11 19 10 31-1 17-22 36-34 47l-4-8c-7-15-10-34-6-51 1-7 4-14 7-21-1-1-3-2-4-3-3 6-4 13-8 19-6 10-17 18-19 30s-1 24 5 34c3 6 7 12 11 17l-2 3c-2 2-3 3-4 5v1c-6-10-13-18-17-29-5-16-4-35 6-49 4-8 10-14 13-21 4-6 6-13 4-21-1-5-4-11-5-16 5 8 10 16 16 24 2 2 4 3 6 5 0 1 2 2 2 2v1c0 2-1 6-2 8l-3 12c-2 17 3 33 9 49l4-5c9-11 17-26 14-41-2-6-5-12-10-17-6-8-14-14-20-22-14-17-23-38-26-59-2-12-3-29 4-39 7-9 21-9 31-8 3 0 7 1 11 1h0l4-1c14-3 25-14 32-26 8-12 14-26 11-40-2-5-4-10-8-13-2 0-3 0-4 1-2 2-1 3-1 5 1 1 2 2 3 2l1 1v1c-2 1-3 1-5 1-1-1-3-2-4-3-1-2-1-5 0-7 1-3 4-5 6-6zM437 743c3-3 5-5 10-6 12-1 23 2 33 10 8 7 14 15 19 24 3 3 6 9 6 13 1 9-2 18-5 26-4 11-8 22-15 32l-16 24c-2 3-4 6-5 9h-90-34c-9 0-18 0-27-1 12-4 25-7 37-11 18-6 35-14 49-26 17-16 29-36 34-58 2-12 3-24 4-36zm282-475h82 21c2 0 6 0 7 1 1 0 2 1 2 1v3c-2 7-6 13-8 19l-13 37-16 56-8 43c-3 16-6 33-10 49-1 4-2 9-5 12h-1c-2-4 0-11 0-16-1-5-1-10-2-14-5-35-25-68-54-87-7-5-15-9-23-12l-1-1c4-3 8-7 10-12 5-12 1-21-3-31-4-9-4-19 0-28 5-10 12-16 22-20z"></path><path d="M544 268h64l25 1c-15 22-32 42-49 63-4 5-8 12-13 16-7 3-11 6-14 12-3 7-5 15-6 23-3 18-2 37-2 55l-1 63c-5-2-9-6-12-10-8-9-15-18-21-28-5-9-9-19-15-28-5-9-12-16-17-24-7-12-8-24-5-38 3-12 9-23 14-35l12-27c9-17 22-33 40-43zm-387 0h205c-2 2-5 4-7 6-3 3-7 6-10 10-5 7-9 15-13 23-5 12-10 24-13 36l-3 21c-7 3-14 6-20 9-17 10-32 24-45 39-24 29-38 65-42 102-1 10-2 21-1 32 0 1 0 1-1 2-1-1-1-2-2-3-3-6-5-14-6-21-6-31-3-65 1-96 6-42 16-84 27-124l-7-1c-21-4-42-13-60-25-2-1-7-4-8-6v-3h2l3-1z"></path><path d="M528 268c5 0 11-1 16 0-18 10-31 26-40 43l-12 27c-5 12-11 23-14 35-3 14-2 26 5 38 5 8 12 15 17 24 6 9 10 19 15 28 6 10 13 19 21 28 3 4 7 8 12 10v22l1 127c0 36-2 73 1 109 1 5 1 13 3 18l4 16c3 9 7 18 12 26 10 15 25 26 41 34 7 3 15 6 23 9 6 1 41 10 43 12l-15 1c-7 1-15 1-21 1h-42l-80-1h-54c1-3 3-6 5-9l16-24c7-10 11-21 15-32 3-8 6-17 5-26 0-4-3-10-6-13-5-9-11-17-19-24-10-8-21-11-33-10-5 1-7 3-10 6v-77-26-17l1-3-1-24v-11-91-44c1-22 0-46 7-67 3-9 7-17 13-25 2-3 6-6 9-9-10-1-21 0-32 0h-38c-24 1-48 5-71 12 0-1 0-1-1-1 0-4 1-9 2-13 1-9 2-17 5-25 4-13 11-25 20-35 4-5 9-10 14-14 1-1 3-3 5-4s135 0 150-1h8z"></path><path fill="#706f70" d="M528 268c5 0 11-1 16 0-18 10-31 26-40 43l-12 27c-5 12-11 23-14 35-3 14-2 26 5 38 5 8 12 15 17 24 6 9 10 19 15 28 6 10 13 19 21 28 3 4 7 8 12 10v22-3c-3-2-4-2-7-2-4 1-12 3-15 6-2 2-2 5-3 8-2 4-5 9-8 12-18 20-49 31-55 59 3 3 8 5 12 8l12 9c4 5 8 9 11 15 5 8 8 18 11 27 4 13 9 27 11 40 2 17 0 33-2 50l-1 12c0 2-1 5-1 7 0 1 2 2 3 3 3 2 7 4 12 6h1c8 2 17 0 24-3l4 16c-11 1-20-1-31-5-3-2-7-4-11-4-3 9-5 19-8 28s-7 17-11 25c-7 14-17 26-26 38h191c-7 1-15 1-21 1h-42l-80-1h-54c1-3 3-6 5-9l16-24c7-10 11-21 15-32 3-8 6-17 5-26 0-4-3-10-6-13-5-9-11-17-19-24-10-8-21-11-33-10-5 1-7 3-10 6v-77-26-17l1 107c7 4 16 2 25 4 4 1 9 2 14 4 12 6 22 18 32 27 1-1 1-3 1-4 2-15 2-31 1-46-1-17-3-36-9-52-4-10-11-20-18-29-5-7-21-23-31-24-4 0-9 1-12 4l-3 6-1-24h10c1 0 3 0 4-1 1 0 4-3 5-4 6-8 11-17 19-23 4-4 9-6 13-9 7-5 14-11 20-17 6-8 7-19 14-25 5-4 11-6 16-10-7-14-18-24-27-37-7-10-12-20-18-31-4-7-9-15-14-22-14-26-6-59 6-84 3-7 8-14 12-21 5-9 10-17 16-25 3-4 6-7 8-10l7-6c1-1 2-1 3-3h-3z"></path><path d="M438 620l3-6c3-3 8-4 12-4 10 1 26 17 31 24 7 9 14 19 18 29 6 16 8 35 9 52 1 15 1 31-1 46 0 1 0 3-1 4-10-9-20-21-32-27-5-2-10-3-14-4-9-2-18 0-25-4l-1-107 1-3zm223 255H470c9-12 19-24 26-38 4-8 8-16 11-25s5-19 8-28c4 0 8 2 11 4 11 4 20 6 31 5 3 9 7 18 12 26 10 15 25 26 41 34 7 3 15 6 23 9 6 1 41 10 43 12l-15 1zm-108-98c-7 3-16 5-24 3h-1c-5-2-9-4-12-6-1-1-3-2-3-3 0-2 1-5 1-7l1-12c2-17 4-33 2-50-2-13-7-27-11-40-3-9-6-19-11-27-3-6-7-10-11-15l-12-9c-4-3-9-5-12-8 6-28 37-39 55-59 3-3 6-8 8-12 1-3 1-6 3-8 3-3 11-5 15-6 3 0 4 0 7 2v3l1 127c0 36-2 73 1 109 1 5 1 13 3 18z"></path></svg>