<svg xmlns="http://www.w3.org/2000/svg" xmlns:v="https://vecta.io/nano" viewBox="175 70 712 880"><!--oldViewBox="0 0 1020 1024"--><style>.B{fill:#f8f7f7}</style><path d="M342 406c2 0 2 0 3 1v2l-1 1h-3c-1-1-1-1-1-2s0-1 2-2zm-28 123c2 0 6 3 8 4l1 1-2 1h-3c-1 0-2 0-2-1-2-2-2-3-2-5zm296 118h2c1 0 1 1 2 2 0 2 0 2-1 3s-2 1-3 1c-1-1-2-1-2-2 0-3 0-2 2-4zm-218 1c2 0 3-1 4 0 2 2 1 2 1 4l-1 1h-2c-2 0-2 0-3-1 0-2 0-3 1-4zm95-397h1c1 1 1 2 2 3v2h-9-2 0c3-1 6-2 8-5zm-87 358h3c1 2 1 2 1 4-1 1-1 1-3 2h-2c-1-2-1-2-1-3 1-2 1-2 2-3zm126-359c2 2 3 3 5 3 2 1 4 2 5 3h-1-11l2-6zM357 831h0 3c1 1 2 2 2 4 1 1 0 1-1 2h-3c-1 0-2 0-3-2 1-2 0-2 2-4zm335-304h1l1 1 1 2c-1 1-2 2-4 3-1 1-2 1-3 0h-1c-1-1-2-2-2-4 3 1 4 0 7-1v-1zm-47 304h2c1 2 2 2 2 4-1 1-2 2-4 3-1 0-2 0-3-1s0-2 0-4c1-1 1-2 3-2zM391 422h1c4-1 7 2 10 4h0l-4-1c-2 0-3 0-5 1-1 1-1 1-2 1-1 1-1 0-2 0v-2c0-2 1-2 2-3zm-67 38h0c2-1 3 0 5 1 1 2 2 3 3 5l-2 1-4-1c-2 0-3-1-3-2 0-2-1-2 1-4zm-5 77c1 0 2 1 3 2s1 2 1 3c-1 1-2 2-3 2-3 3-7 2-11 2-2-1-3-2-5-3l7 2c2 0 4-1 6-2 2-2 2-4 2-6zm49-331c1 6 0 12 2 17 1 3 2 5 3 7 1 1 0 1 0 2h-2-2c-1 0-2 0-3-2l2-1h1c1-3-1-9-1-13-1-3 0-6 0-10zm238 219h4c2 0 2 1 3 2 0 2 0 2-1 3-2 1-3 0-5-1-2 0-3-1-5 0h-2 0c1-2 4-3 6-4zm-314 68h3l3 3h-1l-1 1h-2c-3 1-5 4-6 6v1 4c-1-3-2-6-1-10 1-2 2-4 5-5zm384 84l1-1 1 1v3c-1 4-5 8-8 11h-2 0c2-5 4-10 8-14zm42-88c1-1 3 0 4 0 2 1 4 2 4 4 3 7 1 12-1 18v-3l1-4c0-4 0-7-3-10-2-1-4-2-6-2h-1v-1c0-1 1-1 2-2zm-38-31h1c1 0 1 1 2 2 0 1 0 2-1 3-3 3-5 3-9 3l-3-2h-1c1-1 1-1 2-1 3-1 5-4 9-5zm-99 303c2 0 5 0 8 1 1 1 4 3 5 5l-2 1c-2 0-4 1-7 0-2 0-2 0-4-2v-5zM377 509h2c2 0 3 0 4 1-1 4-5 6-8 9l-3 4c0-3 0-8 1-11 1-2 2-2 4-3zM258 725h1c3 0 7 1 9 3 1 1 1 3 2 5-1 1-2 1-3 2-2 0-3 1-4 2-2 1 0-1-1 0-1-1 1-3 1-4l-4-4c-1-1-1-2-1-4z"></path><path d="M598 765c3-1 5 0 8 2 2 1 2 2 3 5-1 1-2 1-3 1h-5c-2-1-5-3-7-6 1-1 3-2 4-2zm141-43h2c2 0 6 0 8 1-1 4-4 7-7 10l3 4 1 1h-1c-2-2-7-4-8-7-1-2-2-4-1-5 1-2 2-3 3-4zm-10-227c2 0 6 2 8 3 6 3 13 5 20 7 11 2 21 3 33 3h-2c-13 2-28 1-41-3-6-2-15-5-18-10zM402 143h2l-9 3c-7 2-13 5-18 9s-10 10-11 16v1c-2 2-7 1-10 0h-2c0-1 1-2 2-3 2-1 5-1 7-1 1 1 1 1 2 1 0-4 1-6 3-9 7-10 23-15 34-17zm211 2h4c10 1 22 5 29 13 2 2 3 5 5 8 2 1 3 1 4 1 2 0 3-1 4-2 1 0 1-1 2-1 1 2 1 3 0 5 0 1-1 2-2 2-1 1-2 1-3 1-6 0-10-9-14-13-8-9-18-11-29-14zM276 490h1c2 1 3 3 4 4-7 2-12 6-18 9-15 7-34 6-50 3l-5-1h0 0l24 2c16 0 33-5 44-17zm409 198v1c-1 2-1 5-2 8-6 14-16 26-30 32-11 5-25 6-36 2l-1-1c4 1 8 1 11 1 10 1 19-1 27-6 15-8 25-21 31-37zm-362 6c1 1 5 9 6 11 6 11 17 19 28 24 13 5 27 5 40-1v1h-1c-3 2-6 3-10 4-13 3-27 1-39-6-11-7-21-20-24-33zm90 69l8-1v11c-4-2-8-4-12-4l-2-1c-1 1-5 4-6 5s-3 1-5 1-2 0-3-1c0-2 0-3 1-4 1-2 3-3 6-4 2 0 4 1 6 2v1l2-2c2-2 3-3 5-3zM528 99h1l-1 1c-3 2-8 6-9 9 0 1 0 2-1 3h-1v25 41 33 15 3c1 1 1 2 1 3v1c-1-1-1-2-1-3-1-4-1-8-1-12l-1-24v-42-27c0-5 0-10 1-15 1-4 8-8 12-11zm-41 0h2c6 1 11 7 14 11v61 30c0 9 0 18-2 27l-2 7v1h-1l2-4c0-6 1-11 1-16v-63-29c0-4 1-9-1-13-2-6-7-10-13-12zM334 452l10 1c18 2 34 11 45 25h0c-6-6-12-11-20-15-13-7-29-10-43-7-3 1-5 2-8 2-1 1-2 1-3 1s-4-1-6-2c-2 0-4 0-6-1 5-4 7-4 14-3 2 1 3 2 5 1 4-1 8-2 12-2zm411-246c2 3 5 6 8 7 5 1 8-1 12-4 0 2-1 3-3 4-3 3-7 2-11 1 5 7 8 15 14 21 11 14 25 22 43 24 5 0 10-1 15-2-1 1-4 2-6 3-10 2-23-1-32-5-13-7-22-18-31-30-3-6-7-12-9-19zM256 575c1 0 2 0 4 1 2 0 4 2 5 4 1 3 0 5 0 7-2 3-4 4-7 6-2 0-3 0-5-1s-3-2-4-4-1-5 0-7c1-3 4-5 7-6z"></path><path d="M255 578h4c2 0 2 1 3 3 1 1 1 3 0 5 0 1-2 2-3 3h-4c-2 0-3-1-4-2-1-2-1-4 0-5 0-2 2-3 4-4z" class="B"></path><path d="M747 575h4c2 1 5 3 6 5s1 4 0 7-3 4-6 5c-1 0-3 1-5 0s-4-2-5-5c-1-2-1-4 0-7 1-2 3-4 6-5z"></path><path d="M747 578c2 0 3-1 4 0 1 0 3 1 4 3 0 1 0 3-1 5 0 2-2 2-3 3h-3c-2 0-3-1-4-3-1-1-2-3-1-4 1-2 3-3 4-4z" class="B"></path><path d="M668 450c6 0 12 0 19 1 1 1 5 2 7 2s4-2 6-2c4-1 9 3 12 6-4 0-8 0-12 1v1l-15-5c-12-3-25-1-37 3-6 3-13 6-19 10-2 2-11 11-13 11l2-2c12-15 32-24 50-26zM372 350h11c-3 1-7 0-10 1-4 0-9 1-14 3-27 7-49 23-67 44-7 10-14 20-20 31-1 2-2 5-4 7 0-2 2-5 3-7 6-12 14-24 22-35 20-25 46-41 79-44zM482 84h6c9 1 16 6 21 13 4-5 8-9 14-11 6-1 17 0 23 4 3 2 6 4 7 8 0 3 1 9-1 12 0-5 0-9-2-13-3-5-8-7-14-8-3-1-6-1-9-1-8 1-13 6-18 12-6-6-11-12-20-13-6-1-13 1-18 5s-5 10-6 16c-1-5-1-11 2-16s9-7 15-8zm152 267c4-1 9 0 13 1 10 2 19 4 28 8 10 4 20 9 29 16 23 18 41 46 52 73-2-1-5-8-6-11-6-11-13-22-21-32-11-15-23-27-39-36-12-7-25-13-39-16l-11-2c-2 0-4 0-6-1h0zm141 262l2 2 6 10c11 15 18 33 21 52 4 21 2 45-3 67v1c0-3 0-7 1-10l1-23c1-30-6-56-19-82l-9-16v-1zm-535-9l-6 9c-3 4-5 9-7 13-18 34-25 75-19 114l-1-1c-2-9-4-19-4-29-1-28 5-59 20-83 5-9 11-16 17-23zm89 20h1l-9 12c-2 3-6 6-7 10-1 2-1 6-1 8-3-5-7-8-12-11-4-2-9-2-13-3 13-8 27-12 41-16zm73-118h0c3 8 4 18 4 26-1 13-4 25-11 35-13 21-38 33-61 41-11 4-24 7-35 13-13 6-24 15-35 25h-1c10-11 23-21 37-28 8-4 18-7 28-10 22-8 46-18 61-37 12-14 16-32 15-50-1-5-2-9-2-14v-1zm271 114l3 1c8 2 15 5 23 8s15 6 22 10l-11 2c-8 2-12 5-17 11 0-3 0-7-1-9h-1c-1-4-4-6-7-9l-11-14zm-69-120v1l-3 16c-2 14 1 28 7 40 16 35 55 43 87 55 19 8 41 18 54 34h-1c-12-12-29-21-45-28-34-15-79-21-97-58-9-19-9-40-2-60zm-325-39h1c-6 8-9 18-15 25-14 13-32 15-50 15 5-2 11-2 16-5 11-5 19-13 28-22 6-5 13-9 20-13zm107-347c8-1 17-1 24 1l-18 1c-34 4-64 19-88 43-8 8-15 17-22 26-5 5-8 8-16 11 4-3 7-6 11-9 6-7 11-16 17-23 24-27 56-47 92-50zm241 3c38-3 73 17 96 46 6 8 11 18 17 25 4 4 8 7 12 10-6-2-10-3-14-8-5-6-9-12-14-18-20-28-52-48-86-51-5-1-11-2-16-1-5 0-11 1-16 0l21-3zm-438 86h1c6 0 12 1 16 5 5 4 6 11 6 16 0 7-3 13-8 17-3 4-6 4-10 4h-1c2 0 4 0 6-1h0c3-1 5-3 7-6 4-4 5-11 4-17 0-5-3-9-6-12-4-3-10-5-15-4h0-2c-6 2-11 6-14 11s-3 11-1 17c2 8 10 17 17 21 9 4 24 7 34 4 8-3 14-9 20-15 8-9 14-18 19-28h-2c-5 0-7-2-10-6 3 2 6 4 10 4 6 0 9-6 13-10l-2 4c-2 5-5 9-8 13-8 13-18 31-33 37-14 7-28 3-41-2l4 4c20 16 38 31 44 57 1 7 1 14 1 21v29l-1 87h0c-1-3 0-7 0-10v-17-70-22c0-4 0-8-1-12-1-10-4-19-9-28-9-16-26-27-40-39-6-6-14-13-17-22-1-6-1-13 2-18 4-7 10-10 17-12zm637-6c6-1 12 0 17 4 6 4 10 11 11 18 1 10-1 19-7 27-5 7-11 13-17 19-17 19-35 38-43 63-2 7-2 14-3 21v30 52 16c0 2 0 4-1 6v-1-65-26c0-11 0-22 3-32 5-17 14-31 24-44 6-8 14-15 21-22 9-10 21-21 22-36 0-8-3-15-8-20-4-5-10-7-16-7s-12 2-16 7c-4 4-5 9-5 15 0 7 4 13 9 17 3 3 8 5 12 5s8-3 10-6c3-4 4-9 4-14-1-3-3-7-6-9s-6-3-10-2c-2 0-5 2-6 4-2 3-3 6-2 9s3 6 5 7 3 1 5 1c1-1 1-1 2-1 0 2-1 2-2 3-1 0-1 1-2 0-3 0-6-3-7-5-2-3-3-7-2-11s4-7 8-9c2-1 6-1 8 0 4 2 7 5 9 9 2 5 2 11 0 16-2 4-6 8-11 10-4 1-9 0-13-2-7-4-11-10-13-17s0-14 3-20c4-6 10-9 17-10zM709 443c20 8 35 24 51 38 10 11 22 17 37 19h11 0l-7 1c-20 3-36-3-53-11-1-1-7-4-8-5-2-2-2-8-3-11-6-14-17-22-28-31zm-386 30c6-1 12 0 17 1 11 3 21 7 26 17-2 2-5 4-8 6-8 9-8 18-7 29 3-1 8-3 12-3 3 0 6-1 8 2 1 1 1 2 1 3 0 5-3 8-6 11 1-3 3-5 3-8 1-2 1-3 0-5h-3c-4 1-10 4-14 7-3 4-5 10-8 14-6 8-14 15-20 23 3 1 8 0 11 0 5 0 11 3 17 2 10-1 17-15 23-23-4 8-8 16-14 22-7 6-13 7-21 5-4-1-8-3-11-3-4 0-7 0-9 3-2 4-1 8 1 12 1 3 3 6 5 7 3 1 6 0 8-1-2-3-4-6-5-10 0-1 0-2 1-3h1c2 4 3 8 5 13 6-2 12-4 17-7 16-8 27-22 32-38 2-6 3-11 5-17-1 15-6 35-15 47-14 16-36 23-56 25-12 2-26 2-37 8-8 5-12 11-17 17 0-9 1-17-1-26v-1h1c2 1 4 2 6 2 17 3 34-5 48-15-1-3-2-6-2-10 0-3 2-6 4-9 3-5 6-10 11-14l-7 1c-10 1-22-2-30-9-12-9-17-23-19-38-3 2-6 4-9 5-17 7-53 6-71-1h4l10 2c9 1 18 1 27 1 8 0 16-1 24-3 6-1 11-4 16-6 1 11 4 23 12 32 6 7 15 12 25 12 6 1 12 0 16-4 6-6 9-14 9-21 1-7-2-15-7-20-7-8-17-10-27-10v-1h1c6-2 15 0 21 2 7 4 13 10 16 17 4 11-1 22-5 31l1-1c7-6 10-15 9-24 0-8-1-14-7-20-11-10-23-9-37-9-1 0-3-1-3-3s1-5 2-7c5-6 13-8 20-9z"></path><path d="M671 473c4 0 9 0 13 1 8 1 19 4 23 11 2 2 1 4 1 6-3 1-9 0-12 0h-11c-9 2-19 7-24 15-4 6-5 15-4 22 2 10 8 17 16 22l-7-10c-4-7-6-15-3-23 2-9 9-15 17-19s17-5 26-2h-7c-6 0-11 1-17 4-7 4-13 12-15 20-2 6-1 14 3 20 3 6 10 10 16 11 8 2 18 2 25-3 13-8 19-24 22-38 27 11 58 10 86 3l-9 3c-14 4-29 5-43 4-11-1-23-2-32-8h-1c-3 12-8 25-17 34-11 11-25 11-41 11 3 3 5 7 8 11 1 2 4 5 5 8 0 3 0 5 1 8 9 8 18 16 31 20h2c7 1 14 0 21-3h0v4c-2 7-1 15 0 22l-15-12c-19-11-42-11-63-17-5-1-11-3-17-5-10-4-18-12-24-22-10-18-12-39-6-59 0 4-1 8-1 12-1 8 1 18 4 26 4 16 12 28 27 36 7 3 25 10 32 8 2-1 3-3 4-4 1-3 1-9 0-12-1-2-3-5-5-6h-4c-9 0-22 5-30 1-7-3-12-16-14-22-1-1-1-2-1-3 2 7 7 14 12 19 2 1 4 3 6 3 6 2 13-1 19-2 3 0 7 0 10-1-4-5-9-10-13-15-8-9-13-18-18-29h0c-6-1-12-4-15-9-2-3-2-8-1-11 1-2 2-3 4-3 1 0 2 0 3 1s2 3 2 4c0 5-3 7-6 10 6 5 10 6 18 6 2-7 4-14 2-21s-6-11-12-15c9-7 18-10 29-12zm-255 77v1 5c-1 6-3 11-5 17-6 19-15 34-32 45-7 5-13 10-19 16-10 9-13 19-13 33l11-1c-3 3-6 5-10 8 4 11 13 21 24 27 9 4 17 4 26 1-3-1-7-3-9-6-3-3-5-6-8-9-1 0-1-1-2-1l1-1c13-1 9 8 17 12 4 1 8 1 12 0 7-3 12-9 15-16v2c-1 7-2 14-5 20-5 10-14 18-24 22-12 4-24 3-35-3-15-7-26-21-31-36-9-26 6-53 26-70 14-12 31-20 44-35 6-6 10-14 14-21 1-3 2-7 3-10z"></path><path d="M593 565c5 15 18 29 32 38 6 4 14 8 21 13 15 9 26 23 30 41 4 15 2 31-7 45-8 12-21 22-35 25-4 1-9 1-13 1-12-1-24-9-32-18-5-6-7-13-9-21l-2-9c3 6 6 10 10 13 5 4 9 6 15 5 2 0 5-1 7-2s3-5 5-7c1-2 4-2 6-2 1 0 1 0 2 1l-9 12c-2 1-4 2-6 4 4 1 9 2 13 1 9-1 20-9 25-17 3-3 5-7 7-11 0-1 1-2 1-2 0-1-2-2-2-2-1-1-5-4-5-6v-1l9 2c1-4 1-8 0-11-3-16-13-27-27-34-5-2-10-5-15-8-11-7-17-19-20-32-1-6-1-12-1-18zM417 349h5v4 12 40 183 43c1 8 1 17 0 26-1 5-4 10-9 13-6 4-16 5-24 3-5-1-11-3-14-8-2-4-3-9-2-13 1-6 4-11 9-14 4-2 8-3 12-1 3 1 5 2 6 5h0c-3-1-6-3-10-4-3 0-6 2-9 4-2 2-4 5-4 8s2 5 3 7c4 3 8 4 13 4 4 0 8-2 10-5 3-3 5-8 4-12 0-5-3-8-6-10-4-4-10-5-16-4-7 1-13 5-17 10-5 8-7 18-5 27v1h0c-2-4-2-9-1-13 0-8 4-16 11-21 5-5 12-7 19-6 8 1 13 6 18 12 3-2 5-5 7-9s2-8 2-13l1-32v-63-55l-1-34c0-7 0-15-3-21-4-10-12-13-22-16 2-4 3-7 7-10 5-4 12-4 18-3v-20c0-2 1-6 0-7l-3 2c-10 7-23 7-32 16-9 7-15 21-16 33 0 5 1 10 3 14 3 5 6 10 11 13 6 3 13 5 19 8 3 2 5 4 7 7 11 11 10 29 10 44v22c-4-17-9-33-21-47-17-19-42-28-67-31-5 0-11-1-15 0-2 1-5 2-7 3-3 2-7 4-10 6s-5 4-8 5c-5 3-11 4-16 6l-19 9c-5 3-12 7-18 6-2 0-3-1-3-3 0-1 0-2 1-3 0 1 1 2 1 4 2 1 3 1 5 1 4-1 10-4 14-6 9-5 17-11 20-20 2-5 3-10 5-15 2-6 6-11 11-17-1 5-2 10-1 15h1c2-2 4-5 7-7l-4 6c-2 2-2 3-1 5s3 3 5 4c9 3 16 1 24-3l-2-2c-5-5-9-11-8-18 0-12 10-22 18-30l-3 10c-2 8-1 16 3 23 2-4 5-9 5-12s-1-5-2-7c2 1 3 3 4 5 1 5-3 11-6 15l5 2c8 2 16 0 24-4-6-9-10-20-7-31v-1c1-4 3-8 6-11 5-5 10-9 17-12 13-8 25-11 41-12z"></path><path d="M581 347c10 0 20 1 29 4 12 3 25 10 35 17 7 6 14 13 16 22 1 10-3 19-9 26 4 3 8 4 13 4s9-1 12-4c1-2 1-3 1-4-1-5-1-8-4-10h-1l-1 1c-1-6-1-13-4-19-5-13-18-22-31-27-1-1-1-1-2-1h2 1c4 2 7 3 10 5 11 6 20 14 23 26 1 4 0 8 1 11h1c1-1 2-1 3-1 4 3 5 12 5 17l3-5c4-8 1-17-2-24 5 3 11 7 14 12 5 7 6 15 4 23-1 6-3 9-8 12 6 6 15 5 23 6 2-1 3-2 4-3 5-6 5-16 4-23l11 18c4 7 6 17 11 23 8 8 21 15 32 18 2 1 4 2 6 2 2-1 2-1 3-2 1-2 1-3 1-4v-1h0c2 2 2 3 2 6-1 1-1 2-3 2-4 1-7 0-11-1-10-3-20-8-28-14-6-4-11-9-18-13-4-3-10-5-15-7-6-2-15-1-22-1-9 1-18 0-27 1-10 1-19 4-27 8-21 11-37 29-45 51-2 5-3 11-5 17 0-4 0-8 1-12l1-23c0-8 0-17 4-24 3-7 8-11 14-13 5-2 10-2 15-4 8-3 14-11 18-19 4-9 4-18 0-27-5-11-13-19-24-24-6-3-13-5-19-7-5-2-10-5-14-8v31c6-3 13-3 19-1 7 3 10 8 12 15l-8 1c-6 1-12 2-17 8-5 8-5 20-6 29v36 69 56c0 9-1 20 1 29 1 6 5 9 9 12 3-4 7-8 12-10 7-1 14-1 19 3 8 4 14 12 16 20 3 8 2 15-2 23h-1c3-8 4-14 1-22-2-8-8-16-15-20-5-2-11-3-16-1s-8 5-10 9c-1 3-1 7 0 10 2 4 5 7 9 8 4 2 8 2 12 0 3-1 6-4 7-7 0-2 0-5-1-8-2-3-5-5-8-6-5-1-8 0-11 2h-1c2-2 4-4 7-4 4-1 8 0 12 3s8 9 8 14c0 6 0 11-4 15-5 6-13 8-20 8-8 0-17-3-22-9-3-2-4-6-5-9v-13-22-64-212zM473 101c2-1 4-1 6 0 4 1 8 4 10 7 2 4 3 8 2 12-3 9-14 16-21 21 3 1 10 3 14 2 2-1 4-4 5-6l1-2 1-1c-1 22 3 42 7 63l-6-12c-8-14-19-26-32-34-22-13-49-17-73-11-16 4-34 12-43 27-5 9-7 19-4 28 0 1 1 4 2 5l9-11-6 15c1 6 6 11 8 17v1l3-6c0-3-2-8-2-11 2 2 4 7 5 9v1c0 4-1 7-2 11-2 5-2 10-5 15-6 7-13 11-22 12 5 1 13 1 18-1 11-3 12-15 17-24h0c0 7-4 18-9 23v1c7-1 13-4 18-8l1 1 1 1c6 8 17 7 26 8-5-2-9-5-13-8-9-8-14-19-15-30-1-13 3-26 11-36 10-10 23-17 37-18 16 0 34 8 46 19 12 10 18 25 18 40 0 7-1 14-4 20-4 5-9 10-15 11-4 1-11 0-15-2-1-1-1-1-1-2 2 1 6 1 7 0 2-1 3-3 3-5 1-4 0-8-3-11-1-3-4-5-6-5-4 0-8 1-11 3-3 3-5 7-5 11-1 6 3 11 7 15H245c8-6 13-15 19-23l16-29c-2 9-7 18-12 26-4 8-8 16-14 23 5 0 10-1 15-3 10-6 12-18 14-28 0 6-1 13 3 18 7 8 20 12 31 13l-6-2c-9-5-16-13-20-23-5-14-4-30 2-43 12-27 37-45 64-55s61-13 89-2c7 3 13 7 20 10 8-2 17-9 21-16 2-3 3-7 2-10-2-5-6-9-11-10-1 0-3 0-5-1h0z"></path><path d="M383 133h0c-4 2-9 3-13 5-12 5-24 12-33 21-7 8-12 17-13 28 0 9 1 17 6 25 2 3 4 5 7 8s9 7 9 13c0 2-1 4-2 5-6 5-14 6-21 5-2-1-4-1-7-2-7-4-12-11-15-19-3-13 2-29 9-40 15-26 44-42 73-49z" class="B"></path><path d="M309 212c1 5 0 11 4 15 1 1 2 1 4 1s3-1 4-2l4-5 1 1c3 1 4 2 6 3l1 1v1c-2-1-6-1-8 0-4 1-7 3-12 2-1 0-3-2-4-3-2-5-1-10 0-14z"></path><path d="M422 181c6-1 13 0 19 1 12 3 24 12 30 23 5 9 10 22 7 33-2 6-7 10-13 13l2-3c3-4 3-9 2-14-2-7-7-14-13-19-5-3-12-5-18-4-7 2-11 6-14 11-5 10 1 14 6 21 2 2 3 4 3 6s-1 3-2 4c-1 0-2 1-3 0-6 0-12-5-16-10-3-4-4-8-3-14h0c0-4 2-6 3-9-5 4-6 7-7 14-3-4-7-11-6-15 0-4 7-11 10-13-5 2-8 6-12 7l-1-1c-1-7 1-15 5-20 5-7 12-10 21-11z" class="B"></path><path d="M426 188h2c0 1 1 2 2 3 1-1 3-1 4-2 7-1 16 3 21 7 11 7 19 18 21 30l-3-8c-4-7-9-14-16-19s-14-8-22-8c-1 0-3 0-4 1-2 1-3 3-5 3-3 0-5-1-8-1h0-1c2-3 6-5 9-6zm115-87h1c-4 3-7 4-10 8-2 3-3 5-2 8s3 5 5 7c6 7 14 12 21 16 7-3 13-8 20-10 12-4 24-5 36-6 22-1 44 2 64 12 21 11 43 31 51 54 4 13 3 28-3 40-6 11-16 20-28 23l-1 1c11-1 22-1 31-9 8-8 7-17 7-27 2 9 4 18 10 26 5 6 11 8 19 9-3-4-6-9-9-13-7-11-15-25-16-38 4 9 7 18 12 26 7 10 14 19 23 28H578c3-4 6-8 7-14 0-4-1-8-5-12-2-2-5-4-8-4-4 0-8 3-10 5-2 3-3 6-3 10 0 2 2 5 4 6 2 2 4 2 7 1h0c-4 4-11 6-18 5-5 0-10-2-14-7-3-3-5-8-6-12-2-11-1-22 2-32 6-16 16-28 32-35 13-7 28-8 42-3 13 5 25 14 31 26 5 13 6 28 2 41-3 7-7 14-13 18-3 3-7 4-10 6 11-1 20-3 29-10l9 6c0-4 1-8 1-12 0-8-5-3-9-6 0-3 1-6 2-9v3c0 1 4 3 4 3 2 1 3 3 4 4 3 4 2 8 5 11 5 6 15 4 22 4-6-2-15-5-19-11-3-4-3-9-2-13 1-1-3-7-4-8-1-2-1-4-1-7 0-2 0-3 1-4 1 5 2 8 6 12l5-9c0-1 2-4 2-5s-3-7-4-9-1-5-2-7l9 11c4-8 4-18 1-26-6-14-18-21-30-26-8-4-16-7-24-8-15-3-31-1-45 4-19 8-37 20-47 37-5 6-8 13-11 20 0-4 1-8 2-12 1-17 5-34 6-51 1 0 2 1 3 2 6 5 15 4 22 3-7-5-18-11-23-20-2-3-3-6-2-10 2-6 8-9 13-11z"></path><path d="M632 133h1c18 3 36 11 50 22 16 13 30 32 33 53 1 7 0 15-3 22-4 7-10 11-18 13-4 1-10 1-14-1-3-2-6-4-7-7-2-7 6-13 10-17l6-9c5-9 6-20 3-30-6-21-27-33-46-41l-9-3c-2-1-4-1-6-2h0z" class="B"></path><path d="M703 215c1 2 5 7 5 9s0 3-2 4c-1 2-2 2-4 2-7 0-9-2-13-7-1 0-3-1-3-2 1-1 2-2 4-1 3 0 4 5 6 7 0 1 1 1 2 1 2 0 4 0 5-2 2-2 1-8 0-11z"></path><path d="M582 180h9c9 0 19 4 26 11 6 6 7 13 6 22-5-3-8-5-14-6 5 3 8 5 12 10l-5 12-7-7c1 4 3 8 5 12-3 6-8 12-13 16-3 2-6 4-10 3-1 0-2-1-3-3-1-4 4-9 6-13 1-2 1-4 1-6 1-4 0-7-2-10-2-4-6-7-11-9-6-1-13 0-19 3-5 4-10 10-12 16-1 7 1 13 4 19-4 0-10-6-12-9-3-4-3-10-2-15v-1c1-10 5-21 12-29 7-10 17-14 29-16z" class="B"></path><path d="M591 188c2 0 2 0 3 1s2 2 2 4c-1 0-3 0-3 1-2 1-2 3-4 4l-1-1v-3c-1-1-2-1-2-1-6-2-13-1-18 2-12 5-19 14-23 26-1 2-1 4-2 6v-1c0-2 1-4 1-5 1-7 4-12 8-17 7-8 18-14 28-15 4 0 5 2 8 4 1-2 1-3 3-5zM252 602c0 2 0 5 1 8 2 19-5 34-12 51-5 11-10 23-14 35-6 22-5 46 6 66-1-5-3-10-3-15-2-9-1-20 2-29 6-19 23-37 42-45 5-2 11-2 16-4-6-1-11 0-16 1-14 5-29 19-37 31-2 3-3 7-5 10 2-9 7-18 12-26 6-8 12-17 21-23 6-4 15-7 23-6 6 1 12 5 15 10 3 4 3 8 2 12 0 4-3 7-6 8h-1c-1-1 0-13-1-16-1-2-2-3-3-5-1 8-4 14-6 22v1h0c-3 13 0 27 11 34 4 4 9 5 12 9 6 6 8 14 12 20 5 7 14 13 23 14l1 1h6c9 0 14-3 20-9l-8-2c-4-1-7-3-9-7v-1l17 1c9 1 18-1 26-2 5-1 11-2 16-5 2-1 4-3 6-4v19c-6-1-13-5-20-5-9-1-19 4-23 12-1 2-2 5-3 7 0 1-1 2-1 2 0 1-9 1-10 1-4 1-8 3-11 5-3 3-4 8-5 12v3c2 4 7 7 6 12 0 1 0 2-1 3-5-5-10-9-13-15l-2 1c-5 6-8 13-8 21 0 10 4 17 12 24 10 10 22 13 36 12l-3 1c-9 3-22-1-30-4-15-6-32-17-38-31-3-9-3-20 1-29 4-10 12-16 21-20h-9c-8 1-16 5-21 11-6 9-7 21-5 31h0l-2-1c-13-12-21-31-21-49-1-5 0-10 2-15 3-8 9-14 10-22 1-6-2-10-3-16-1-3-1-6-2-9-7 1-14 3-19 8-11 8-16 21-17 34-1 5-1 10 0 15 2 21 11 40 25 57 20 25 50 43 83 46 14 2 33 0 45-10 4-3 8-8 8-14 1-12-18-12-23-19-2-2-3-4-2-7 0-3 2-6 5-8 3-3 9-5 14-4s9 5 12 9c4 6 3 12 1 19 5-9 7-17 9-27 1-5 1-10 2-14v11c-1 13-4 26-10 38-11 20-29 34-46 49l-42 35h18 33 102 142 38 23l-52-44c-8-8-16-15-24-23-5-6-9-12-13-19-7-14-11-33-10-49 3 15 4 28 9 42v-2c0-4 0-8 1-12 3-5 8-10 13-12s11-2 15 0c3 1 6 5 7 8 6 18-19 14-24 25-1 3-1 7 0 10 4 9 15 14 24 17 24 8 52 4 75-7 29-15 49-41 60-71l1-6c5-19 6-42-4-59-4-6-9-12-15-15-5-2-9-3-13-4-1 10-7 18-7 27 1 6 6 13 8 18 3 7 5 14 5 21 1 23-12 40-28 56 2-6 3-12 3-18 1-9-2-16-8-22-6-7-13-9-23-9 5 2 8 5 11 9 8 11 9 25 7 38-2 11-9 20-18 27-12 8-30 14-45 11l-9-3c4 0 9 1 13 0 10-1 21-4 28-13 5-6 8-16 7-25-1-10-7-17-15-24-3 6-8 11-12 16 2-5 5-11 7-17h0c0-1 1-2 0-3 0-1-1-3-1-4-5-5-12-6-19-7-1 0-2 0-2-1v-2c-1-5-1-9-5-13-13-10-31-4-45-2v-23c2 3 4 6 8 9 10 5 31 6 42 6h13c2 0 4-1 6 0 0 1-1 2-2 3-2 4-8 5-12 6h-1c6 6 11 9 20 9 11 0 25-6 30-17 2-5 3-10 7-15s12-7 17-13c9-9 10-21 7-32l-3-14c-1-4-1-7-1-11-2 2-4 4-5 6-1 3 0 6 0 9l-1 11c-3-3-6-7-6-11-1-5-1-9 2-13 4-6 12-10 19-11 8-2 16 2 22 7 16 12 31 32 33 52-6-13-11-23-22-32-7-6-15-11-24-12h-13c2 2 7 2 10 2l9 3c15 6 30 20 37 35 10 23 6 46-3 68 6-6 10-18 12-26 8-30 1-58-11-85-6-14-13-28-15-43-1-7 0-13 1-20 17 17 30 40 36 63 3 14 4 28 4 42 0 29-5 58-20 83-20 33-54 60-92 69-25 6-54 6-77-8 23 24 50 44 74 66-3 1-7 0-11 0h-20-69-173-90c9-5 17-14 25-21 16-14 34-28 49-44-3 1-5 2-7 3-9 4-17 7-26 7-33 3-67-12-92-32-31-27-52-63-55-105-4-43 10-91 39-124z"></path><path d="M707 728c3 0 6 1 9 2 3 2 6 6 6 10 1 4 0 8-2 11-3 4-8 5-13 6-3 0-6 0-8-1-4-2-6-5-7-9s-1-7 2-11 8-7 13-8z" class="B"></path><path d="M707 740h3l2 4c-1 2-1 2-3 3h-2c-1-1-2-2-2-3 0-2 1-2 2-4z"></path><path d="M295 727c4-1 6 0 9 1 5 3 9 8 10 13 1 3 1 7-1 10-3 5-7 6-11 7-3 1-6 0-8-1-5-2-10-7-11-12-1-3-1-8 1-11 3-4 7-6 11-7z" class="B"></path><path d="M296 740h3c1 1 1 1 2 3 0 2-1 2-2 3l-3 1c-1-1-1-2-2-3 0-2 1-2 2-4zm-80-472h597c-20 20-33 44-38 72-2 16-2 32-2 48v53c0 2 0 10-1 11-2 0-3 1-5-2-2-2-3-5-4-8l-6-12c-10-20-21-39-36-54-25-24-60-37-94-39h-22-37v311 86c0 24-1 49 3 73 3 19 12 38 24 52 7 7 15 14 22 20l27 24H358l43-38c21-21 28-49 32-77 3-17 2-36 2-54v-87-310h-49c-27 0-55 9-76 26-20 15-34 36-45 57l-9 19c-1 4-3 10-6 13h-1V321c-2-23-15-39-33-53z"></path><path d="M505 307c1 0 1 0 1 1l1 538-36 28h-1V332l35-25z" class="B"></path></svg>