<svg xmlns="http://www.w3.org/2000/svg" xmlns:v="https://vecta.io/nano" viewBox="240 107 566 788"><!--oldViewBox="0 0 1021 1024"--><path fill="#ebe2d5" d="M649 501v1h-1c0-2 0-3-1-5h0v-1h4c0 2 0 3-2 4v1z"></path><path d="M385 494c0-1 1-2 2-2 1 2 1 7 1 10h-1c-2-1-2-5-2-8z"></path><path fill="#ebe2d5" d="M381 501h2c1-1 1-3 1-4s0-1 1-2v-1c0 3 0 7 2 8-2 1-4 1-5 2v-1c0-1-1-1-1-2z"></path><path fill="#0b0b08" d="M445 413c0 2 1 3 0 4-1 2-1 4-3 6h0c-2 0-3-2-4-3v-2c2-2 4-4 7-5z"></path><path d="M381 846c2 0 3 0 4 1 2 1 1 3 1 4 0 2-1 2-2 3-2 1-3 0-4 0-1-2-2-3-2-5l3-3z"></path><path fill="#cac3b5" d="M379 506h2v-1c-1-1-1-2-1-3l1-1c0 1 1 1 1 2v1c1 2 3 4 3 6l-3 3c-2 0-3 0-5-1l-1-2c1-1 3-2 4-2l1-1-2-1z"></path><path d="M652 846h0c1 0 3 0 4 1s1 2 1 4-1 2-2 3h-2c-1 0-2 0-3-1s-1-2-1-4c1-1 1-2 3-3zm65 0h1c1 0 3 0 4 1s1 2 1 4c-1 2-1 2-3 3h-1c-1 0-2 0-3-1s-2-2-2-3c1-2 2-3 3-4zm-395 0h1c1 0 3 0 4 1s1 2 1 3c0 2 0 3-2 4h-1c-1 0-3 0-3-1-2-1-2-2-2-3 0-2 1-3 2-4zm467 0h1c1 0 3 0 4 1s2 2 1 4c0 1-1 2-2 3h-1c-2 0-3 0-4-1s-1-2-1-3c0-2 1-3 2-4zm-540 0h5c1 1 2 2 2 4s-1 3-2 4c-2 1-3 0-5 0-1-2-2-2-2-4s1-3 2-4zm102-344h3c0 3 0 6-1 8-2 1-5 0-8-1l-6-1 12-6z"></path><path fill="#0b0b08" d="M671 502h0c5-1 10 3 14 5v1l-4 1c-3 1-6 2-9 2-1-1-2-2-2-3 0-2 0-4 1-6z"></path><path d="M390 514c4-1 7 1 11 2v5c-1 1-2 3-3 4l-1 1c-1-4-7-5-8-10 0-1 0-1 1-2zm2 73l1 1c1 4-14 34-17 39l-1 1c1-5 4-11 6-16 4-8 6-18 11-25zm241 0h0c3 2 4 8 5 11l6 14 6 14h-1c-5-8-9-16-13-25-1-3-2-7-4-10l-1-1c0-2 1-2 2-3zM512 213c2 4 4 10 5 15-1 2-3 3-4 5h-1c-2-2-3-3-4-5 0-5 2-10 4-15zm189 56h0v1c-1 1-3 3-4 5-8 8-19 15-31 17v-1c4-3 9-5 14-8 7-4 14-9 21-14zm-68 244c1 0 1 0 2 1 0 1 1 1 1 3-1 2-6 7-8 7-1 1-1 0-1 0-1-1-2-2-2-4-1-1-1-2-1-2h-2 0l-3 1c-1 1-4 1-6 0v-1c3-1 7-1 10-2 2-1 4-2 7-2h2l1-1zM322 268c3 1 6 4 8 6l11 8c6 3 13 7 19 10-3 0-7-1-10-3-9-3-16-8-22-14-2-2-5-4-6-7zm279 303h0l1 1h1 5l-3 17-1-1-9-17h1c2 0 3 1 5 0zm85-29h7c10 0 21 4 30 9 3 1 8 5 8 8l-1-1c-12-8-24-12-38-14-3 0-8 0-11-1l5-1zm-265 28h1l4 2 5-1c-1 2-3 3-4 5-3 3-4 7-6 11l-1 1h-1c-1-2-1-5-2-8l-3-10 6 3h0l1-3zm74-285c4 0 6 0 10 2 1 2 3 3 3 5-2 1-8 1-10 1h-14c3-4 6-6 11-8zm30 0h2c6 0 10 4 14 7l-9 1-17-1c3-4 5-5 10-7zM333 542c4 0 9 0 13 1-7 1-14 1-22 2-8 2-16 5-23 9-4 2-6 4-9 6 1-2 2-4 3-5 9-9 26-13 38-13zm411-205h2 0l-14 11c-9 6-17 13-24 22h-1v-1c1-3 3-5 5-8 8-11 19-19 32-24zm-311 90h0c1 1 2 2 2 3 0 2-2 4-3 5h1 8l2-2 1 1c0 3-1 5-3 7h-3c-2-1-4-2-5-1h-1l-2-1c-6 0-10 2-16 4 3-3 7-5 11-8 3-2 5-4 7-7l1-1zm-92 122c5-1 10-1 15 0-15 3-29 6-43 14l-10 6c8-11 24-18 38-20zm-65-213c20 6 33 18 43 36-5-5-9-10-15-15-9-8-19-14-28-21zm101 176h-1c-1-1-2-1-3-1v3h-12l6-5-4-3c-1-3 1-1 3-3 0-1-1-4 0-5 6 0 6 7 12 8h1l2 1-1 1c-1 0-3 1-4 2l1 2zm298 37h10c12 1 27 9 35 19h0l-2-1c-15-10-31-15-48-17 2-1 3-1 5-1zm-85-121h2l3 4c4 3 8 4 11 7 2 2 3 4 5 6-4-3-8-5-12-6-5 0-8 0-13 2h-3c-1 0-1-1-2-2s-1-3 0-5c2-1 4 1 6 1 1 1 3 1 4 0-1-1-2-3-2-4s0-2 1-3zm92-171h1c-1 1-1 2-2 4-8 12-21 27-35 31h-1l2-2c13-8 23-23 35-33zm-342-3c9 9 16 18 25 26 5 5 10 9 15 13l-3-2c-17-5-30-22-37-37zm116 572c2 0 3 0 4 1l-1 44c0 6 0 12-1 17v2c-1-6-1-12-1-18l-1-34v-8l-1-2c1-1 1-1 1-2zm109 0c2 0 4 0 5 1l-3 61v2-1l-1-35-1-18v-10zM419 520h0c6 1 11 5 14 10 3 3 4 6 3 10s-3 5-6 7c-2 1-3 1-5 0-3-1-4-4-6-7l4-3c2-1 3-3 3-5 0-5-3-8-7-11v-1zm332-157h2c-2 4-32 17-38 21-5 2-10 5-14 8l-2 1h0c12-16 32-26 52-30zm-481-1c5 1 11 2 16 4 12 4 24 11 33 19 3 3 6 6 8 9-5-3-10-7-15-10l-28-14c-5-2-10-4-14-8zm213 464c2 0 4 0 5 1l-1 78-1 2v-1l-2-63c-1-5-2-12-1-17zm129-362c3 0 4 0 6 1 5 3 8 7 10 13 1 5 1 12-2 17-2 4-6 5-10 6h-1c-3-1-4-2-5-4v-2l4-1c2-1 4-2 6-4 2-4 3-9 2-13-1-6-5-10-10-13zm-75 362h1c1 0 3 0 4 1l-3 81v1c-1-1 0-3 0-5l-1-10-1-44v-24zM410 464c1 0 1-1 2 0a30.44 30.44 0 0 0-8 8c-2 4-3 10-1 14 2 6 7 7 12 9v1c-1 2-2 3-4 4s-4 1-6 0c-4-1-7-5-8-9-2-5-1-13 1-17 3-6 7-8 12-10z"></path><path fill="#0b0b08" d="M651 516c3 0 5 2 6 4h-2c-7 3-15 10-20 15-3 3-6 7-9 9-2 0-4-8-5-9-2-3-4-5-7-7h-1l-1-1v-1h4c4 0 6 3 9 6 1 2 3 4 3 7-1 1-2 2-2 3 3-3 5-7 7-11 2-3 5-5 6-8 2-1 3-5 5-7 1-1 5 1 7 0z"></path><path d="M606 520h1c0 1-4 4-5 5-2 3-3 7-2 10 0 1 1 2 2 3 1 0 2 1 3 2 1 2 1 2 0 4-2 3-4 4-8 5v-1h-1-2c-2-1-4-5-5-7-1-3 0-6 1-9 4-7 9-10 16-12zm-228-4h1c2 0 12 14 14 17h1c0 2 1 5 1 8l4-8c2-4 4-7 9-7 1-1 2-1 3 0v1c-2 2-4 3-6 4v1c-1 1-2 2-3 4s-2 6-4 7c-1 1-3-1-3-2-7-7-14-16-24-20-1 0-2 0-3-1 0-1 1-2 2-3s2 0 4 0l1-1h3zm287-277v1c-4 12-11 23-19 34l-12 15c-2 1-3 3-5 4h-5l-1-1c6-4 10-10 14-16l16-21c4-6 7-11 12-16zM428 403c2 0 3 1 4 2s1 1 1 3c-1-1-2-2-3-2-5 1-10 3-15 5-14 3-30 7-44 4-3 0-6-1-9-3l15-1c8 0 17-1 25-3 9-1 17-4 26-5z"></path><path d="M595 404c7-1 15 2 22 3l16 3c10 2 19 2 30 2l-6 3c-13 3-29 0-43-3l-14-4c-3-1-6 0-9-1v-1c1-1 2-2 4-2zM358 237c6 7 11 15 17 22 8 12 16 23 26 34-2 0-5 0-8-1-7-6-12-14-18-22-7-10-13-21-17-33zm152 589h6l-3 90v2c-1-3-1-6-1-10l-1-18-1-64zm258-439h2c-3 2-6 3-10 4-20 9-42 13-64 20h-1 0c5-6 14-10 21-13 18-6 34-8 52-11zm-515 0c18 2 34 4 52 10 10 3 19 7 26 15-26-8-53-14-78-25zm234-126c1 0 1 0 2 1h1s-2 1-2 2c-3 1-5 3-6 6h1l6-3c3-2 10-2 13-1 6 3 8 6 10 11-3-1-6-4-9-5-5-1-9 2-13 4-6 4-11 9-13 16h0c-4 1-7 1-11 0-1-1-1-3 0-5h0c1 1 1 1 3 2 2-2 2-8 3-10 0-3 2-5 3-7 3-4 6-9 12-11zm48 0h3c7 2 13 12 15 19 1 3 1 7 3 9 2 0 2-1 4-2v5h-1c-3 1-6 1-9 1h-2c-1-1-3-6-4-7-2-3-4-6-7-8s-7-4-11-5c-5-2-9 1-13 4l2-4c1-3 3-6 7-7 9-2 15 2 22 6-3-5-5-6-10-9l1-2zm-19-17h0c0-2 1-3 2-4s2-1 3 0c6 1 10 7 13 12 0 1 1 2 1 4-1 1-2 2-4 2-6 0-7-8-14-2l-5 3-5-3c-2-1-4-2-6-2-3 1-6 5-9 4-1-1-1-2-2-2 0-4 3-9 6-11 1-2 6-6 8-6 1 0 3 1 4 2s1 3 1 5h0 0c-2-3-3-4-6-5l-2 1h1v1c3 1 6 3 7 5l3 8c1-3 3-7 3-11l1-1z"></path><path fill="#ebe2d5" d="M516 244c1-1 2-3 4-3l1 1v1c-1 2-3 2-4 3l-2-1 1-1z"></path><path d="M422 469l5 1c3 1 7 4 8 7 3 5 3 11 2 16-2 6-8 11-13 14-9 4-19 4-28 1-1-1-2-1-3-2l1-1c1 1 3 1 5 1l1 1c4 0 8 0 12-1h1c3-1 6-2 8-4 3-2 5-6 5-9 0-5-1-11-6-13-2 0-4 0-6-2-1-2 0-4 1-6 2-2 4-2 7-3zm176 1h0c4-1 7-1 10 1 2 2 3 4 3 7-1 2-2 1-4 2-3 0-5 1-6 4-2 2-2 8-1 12 1 3 4 7 8 9 6 3 15 3 22 0h2l-1 1c0 1-1 1-2 2-7 3-17 3-25 0-6-2-12-7-15-13-2-5-3-11-1-16s6-8 10-9zm165-57h12l-26 6-42 7c-32 4-66 8-97-4l-12-6c13 3 25 7 39 8 32 3 64-4 96-9 10-1 20-1 30-2zm-512 0c32-1 62 6 93 10 8 0 15 1 23 1 12 1 23 0 34-2l16-4c3-1 5-2 8-2l-2 1-1 1c-14 8-32 11-47 11-20 1-40-1-60-4-21-3-43-6-64-12z"></path><path d="M431 423c-1 2-3 4-5 5l-12 9c-14 8-32 12-48 14-11 1-21 0-32 0l-41-2c-16-1-31-3-46-6l-5-2h13l26 1 47 3c25 1 49 2 73-6 11-4 21-10 30-16zm161-1c15 10 31 18 48 21 7 2 15 2 23 3 20 0 41-2 62-3 20-2 39-2 58-2-1 1-3 1-5 2-25 5-50 7-76 8-21 0-41 1-62-3-9-2-18-5-26-9-5-3-10-6-14-10-3-2-6-4-8-7zm-147-9l-1-5c-1-3-2-5-4-6-4-3-9-2-13-2-6 0-13 2-20 3-3 0-6 1-9 1s-5-1-7-2c3 0 6-1 9-1 12-3 25-8 37-6 3 0 5 1 7 2 5 5 6 14 6 20v96l-1 1v1c1 3 1 6 1 8 0 10 0 20-5 29-4 6-9 10-16 12-5 1-10 1-15-2s-9-8-10-14c-1-1 0-2 0-3 1-2 3-3 5-5v1c1 5 3 10 7 13s9 4 13 4c5-1 10-4 13-8s4-9 3-15-7-12-12-16c-4-2-8-4-12-5 10-6 20-11 24-23v-1-1c2-7 1-13-2-19-4-6-10-8-16-10-9-2-18-1-25 4-4 2-8 6-9 10-2 4-2 6-5 9-4 4-10 7-14 10v2c1 2 1 7 1 8-2-3-3-7-4-11v-3c1-3 7-7 9-10 7-6 12-13 20-18 3-2 7-4 10-4 11-3 23-1 34 2 1-14 4-28 1-42 1-1 0-2 0-4z"></path><path fill="#f2efdd" d="M438 515c2 0 2 0 4 1 1 0 1-1 3 0l1 12c-3-5-4-9-8-13z"></path><path d="M651 496v-3c-4-4-10-6-14-11-3-3-4-7-6-10-6-9-18-14-29-13-5 0-15 4-18 8-5 5-7 12-6 18 1 8 7 16 13 21 2 2 12 7 12 8-9 3-18 8-22 17-2 5-2 10 0 15 2 4 6 9 11 11s11 2 15-1c4-2 7-6 8-10 1-1 0-3 0-4v-1-1c2 2 6 4 6 6 1 4-3 10-5 12l-7 6c-2 2-7 2-10 2l-6-3c-5-3-9-6-12-10-6-9-6-19-6-29 0-3-1-6 0-9v-1c-1-2 0-5 0-7 0-8-1-16 0-24 0-6 1-12 1-18 0-5-1-11-2-16-1-7-1-13-1-20 0-8 0-16 3-23 1-4 3-8 7-10 9-4 21 0 30 2 6 2 12 3 19 4-2 2-5 2-7 2-3 0-7-1-10-2-8-1-16-2-23-2-3 0-7 1-9 3s-4 5-3 8v1l-1 5h1l2-2c1 0 2 1 3 2s0 2 0 3c0 2-1 2-2 3-2 0-2 0-3-1 0-2-1-3-1-5-1 1-1 2-2 3-1 3 0 14 1 17l2 22c15-4 30-7 44 2 8 5 15 12 21 19 3 3 9 7 10 11v1c-1 1-1 2-1 4s-1 3 0 5c2 0 3-2 5-2l1 1-2 2c1 1 2 1 2 2 2 0 2 1 3 2v1l-6 3c1 1 4 3 4 4v1c-2-1-4-2-5-2-2 0-4 1-5 0-1 0-1-2-2-2-1-2-2-2-4-1-1 1-2 1-2 2h-1c-1-2-1-2-1-4l1-1 1 1-1 1 1 1c0-1 1-2 1-2 0-1 0-2 1-2h1c2-1 4-1 6-2 0-2-1-2-2-3h-1v-1c2-1 2-2 2-4z"></path><path d="M578 497h0c2 2 3 6 4 8h0c-2 0-3 0-4-1v-7zm5 19h2 0c-3 3-4 6-6 10l-1 1c0-2 0-8 1-10 1-1 3-1 4-1z" fill="#ebe2d5"></path><path d="M568 389l13 1c12 0 24 0 35 2-11 3-26-4-36 3-6 4-7 11-8 17-2 6-1 14-1 20v31c0 22-1 45 0 68 1 6 1 13 3 19 2 5 5 9 8 14 6 11 13 21 19 31 5 10 8 20 13 29-1-7-4-14-4-21 0-15 6-31 13-43 4-8 8-14 14-20 8-8 17-12 26-16 22-10 44-14 68-15h0c-31-1-60-15-83-35-9-8-16-16-28-21-6-2-15-2-21-2-3 0-6 1-8 1-1 0-1-1-2-2 0-1 1-3 3-4 1-1 4-1 6-1 3 1 11 1 13 0l1 1c9 0 17 4 26 5l29 5 42 4c22 1 45 2 67 6-21 3-42 2-62 1l-49-5-24-4c1 2 2 4 4 5 3 5 7 9 13 12 14 6 32 6 48 7l35 5 7-7-4 9c2 6 5 12 8 17 2 2 3 4 7 5h0 0c-1 0-5 1-6 2 0 0-2 3-2 4-4 5-8 12-12 16l-1 1c-1 1 0 6 0 7 1 1 1 2 1 3-3-2-3-9-6-11-4-2-12-2-17-2-16-1-32-2-47-1-1 0-1 1-2 1h-1c-2-1-4-1-6 0-2 2-5 4-7 7-2 2-2 4-1 7 2 7 25 18 32 23 6 3 14 8 15 15 2 6 1 10-2 15-3 4-6 7-11 8-12 2-20-5-29-12-3-3-7-6-11-8h-3c-1 3 2 6 3 9l8 17 15 27c-11-11-20-27-25-41-1-5-2-11-4-15v-1-3l-4-4 1-1c1 1 1 1 3 1h0v-2c-2-1-2-1-4-1-3 2-9 3-10 6l2 1v1c-2 1-3 1-4 2-1 3 0 7 1 9 2 5 3 10 4 15l5 16c1 3 2 8 4 11s5 5 8 7v1c-1-1-5-4-7-4s-14 9-18 11c-5 1-12-2-17-1v2l-1 1c0-4-2-5-4-7-1-1-1-1-1-2h1c0-2-1-5-1-7l-4-12-7-24c1-1 1-2 1-3 1-7-1-15-5-21-3 11-3 22-3 33l-2 43c0 8 0 17-1 25-2-6-2-12-2-18 0-1 0-4-1-6h0c2-4-1-10 0-14s0-9 0-14c0-9 1-19 2-28l2-15c0-3 2-7 1-9-1-1-2-1-4-1-1 2-2 8-2 11-3 23-3 48-3 72l-1 20c0 4 1 8 0 12h-1v-6-13l-1-88 1-22v-24l-1-85 1-58z"></path><path fill="#f2efdd" d="M655 532h1l-5 5c-1 2-1 4-1 7 1 7 7 10 13 14 1 1 2 2 2 3h0c-6 4-18-5-23-7-3 0-5-1-7 1-1 1-1 1-1 3l1 1c2 2 5 3 7 4l34 22c1 1 3 2 5 4-1 0-5-2-6-2l-18-9c-6-3-14-8-20-9-2 0-5 0-7 1-2 0-4 2-6 1 0-2 1-4 2-6 2-1 3 0 5 1v-1l-2-2-2-1c0-1 0-2 1-3 1-3 4-6 6-9 6-9 12-14 21-18z"></path><path d="M451 389h5l1 48v162 58c0 9 1 19 0 28h-1c-1-4 0-10 0-14l-1-34-1-43c-1-5-1-10-2-15 0-2-1-8-3-10-2 1-3 1-3 3 3 19 4 38 4 57v12c0 3-1 6 1 8-3 8 0 18-3 26l-6-100-4 6c-1 4-2 13 0 17 1 1-7 27-8 30-1 4-3 7-4 12 1 0 1 0 1 1-1 1-5 4-5 6-1 1-1 5-1 7 0 1 1 2 0 3h0v-10c-2 1-4 1-6 1-3 0-10-1-13 1-1-2-3-3-5-4-4-2-7-5-11-7l-10 3 8-5c1-1 3-4 3-5l3-9c3-10 7-20 9-30 1-4 2-8 1-11-1-1-4-1-5-1v-4c-2-1-3-2-5-2-2-1-2-1-4 0-1 3-4 8-4 10 1 0 1 0 2 1v1 1c-1 6-3 10-6 15-5 13-13 27-23 37l27-52c0-1-1-1-2-2-3 1-6 3-8 5-5 3-9 8-14 11-7 4-14 6-21 4-4-1-8-4-10-8-3-5-4-10-2-15 3-10 29-22 38-27 4-2 10-6 11-10 0-2 0-4-1-5v-1c-1-2-3-3-5-5 0 0-2-3-3-3h-3c-2 0-4 0-6-2l-45 1c-7 1-14 1-21 2-2 3-3 7-4 11h-1c0-2 1-5 1-8-6-8-10-16-17-23h-8c2-1 5-1 7-2 6-2 10-14 12-20-1-3-3-7-4-10l8 7 32-4c13-1 28-2 41-5 12-2 20-10 27-20-12 1-23 4-34 5l-36 3c-22 2-43 2-64 0 32-6 65-5 98-8l37-6c6-1 12-4 18-4 1 0 2-1 3-1 6-1 12-2 18-2 2 0 5 0 6 1 1 0 3 1 4 1 1 1 1 2 1 4-1 0-1 0-1 1-3 0-9-1-12-1-7 0-13 1-20 3-11 4-17 13-26 20-5 5-10 8-16 12-14 9-29 17-45 21-4 1-8 1-12 1-2 1-4 0-6 1h-2c-1 0-2 0-2 1h0c2-1 3 0 5 0 7 0 15 0 22 2 12 2 23 5 35 9 14 6 29 13 39 26 11 16 22 39 20 59-1 6-3 12-4 18h1c5-9 8-20 13-29 5-10 12-19 18-29 4-6 7-12 9-19 4-13 3-28 3-41l-1-54c0-11 1-22 0-33 0-7-1-13-4-19-9-15-29-5-43-8l45-3z"></path><path fill="#f2efdd" d="M369 532c11 3 22 15 27 25 1 2 1 5 3 7v1c1 2 1 5 0 7-1-1-1 0-1-1-1 0-2-1-2-1-2-1-4-1-6-1-8 1-14 5-21 9-8 3-17 8-25 11 2-2 5-4 8-6 8-4 15-9 22-14 5-4 11-6 16-9 1-1 1-1 2-3l-2-2c-2-1-5-1-7-1v1c-7 1-12 7-18 7-3 1-5 0-8-1 5-4 11-6 15-10 3-3 4-7 4-11-1-4-5-6-7-8z"></path><path d="M512 104h1c1 7 0 14 2 21 4 9 15 16 23 20 7-2 11-8 18-11-3 3-10 8-11 12-2 5-1 12-1 17v43 13c0 2 0 5-1 7l-2 4c1 4 2 8 5 11 2 1 4 1 6 0 7-4 7-12 8-19 0-6 1-12 2-18 3-11 6-17 15-23-9 13-11 24-12 39-1 5-1 10-2 14-2 6-6 10-8 15-1 2-1 5 0 7s2 3 3 4c2 1 4 1 6 0s3-3 4-5c4-7 5-15 6-23 1-3 2-7 3-11 3-10 8-19 18-24-9 12-13 24-16 39-1 4-2 9-4 14-1 3-2 6-4 9s-4 5-6 8c0 1-1 3 0 4s1 1 3 2c5-3 17-36 24-44-5 16-12 31-20 45l1 1c1 0 2-1 3-1 3-1 3-1 4-4 3-10 9-20 14-30 2-4 6-9 7-13 1-3 1-8 1-11 2 2 2 7 3 10l13-1h4c2-2 3-3 4-5v1c0 2-1 2 0 4 0 4 9 11 13 13h7c1 0 2-1 3 0-1 1-3 2-5 2h-4l-33 45c-2 2-5 6-7 8-2 1-3 1-4 0-2-1-4-2-4-4-1-4 20-40 23-46-2 1-3 3-4 5l-8 10-16 20c-2 3-9 10-8 13v1c-3 1-6 0-8 0-3-2-4-5-5-7-3-4-5-9-7-13-4-5-8-9-12-15-15-20-27-44-32-69-1-5-1-10-2-15v-12-6c-1 3-1 6-1 8 0 25-8 51-20 72l-9 13c-1 2-3 4-4 6-3 5-7 9-11 14-5 8-9 16-14 25-2-1-7 0-8-1v-1c0-4-21-28-24-32-4-5-8-11-12-16 1 4 4 8 6 12l12 24c2 2 4 6 5 8 0 2-1 3-1 4-2 2-3 2-4 2-8 0-34-40-40-47-2-2-2 0-4 0 1-1 2-1 2-3-2-2-4-2-6-3s-4-2-5-3l8 2c5-2 13-7 15-12 1-2 1-3 1-5-1-1-1-2-1-3l3 6 18 1c1-3 2-7 3-11v3c0 3-1 7 1 9l14 26c3 6 6 13 8 20 3 1 5 2 7 1 0-2-2-4-3-6-2-3-4-6-5-9-5-11-10-23-13-35l8 16c4 8 7 16 12 24 1 3 3 7 6 8l2-2c0-4-4-7-6-10s-3-5-4-8c-2-4-2-9-3-14-3-12-5-23-11-34-1-3-4-5-6-8 15 8 19 23 21 39 1 6 1 13 5 19 1 3 4 6 7 6 1 1 3 0 4-1 2-1 3-3 3-5 1-5-2-8-4-12-2-2-3-4-4-7-1-5-1-10-2-14-1-15-3-28-12-40h0c14 6 16 25 17 38 0 5 0 11 2 16 1 3 3 5 6 6 2 1 5 1 7-1 6-6 2-12 2-19v-28-28c0-5 0-12-1-18-2-5-8-9-11-12 3 1 6 3 9 5 2 2 4 4 7 5 5 0 10-5 13-7 4-3 9-7 11-12 3-6 2-16 3-22zM330 343l-1-1c-1-1-2-3-3-5l-7-10-27-37c21 12 43 20 66 24 21 3 43 2 64 2h78l94 1c18 0 36 0 53-1 13-1 25-2 37-6 12-3 23-7 34-12 4-2 8-5 13-7-16 22-32 43-44 67-4 6-6 12-9 19-1 3-2 9-4 12-10-12-22-20-39-22h-26-44c-3 0-18-1-19 0v243 76c0 16 0 32 3 47 3 17 11 34 23 47 11 11 26 18 41 23H411c25-8 45-20 57-44 6-10 9-21 10-33 2-18 1-37 1-56v-88-147-68h-55c-14 0-31-2-45 2-9 3-17 8-23 14l-5 6c-5-15-12-29-20-43l1-1c-1-1-2-1-2-2z"></path><g fill="#ebe2d5"><path d="M512 612h1c1 0 1 1 1 2l-1 1h-1c-1 0-1 0-1-2l1-1zm-1-229h3l1 1-1 2-2 1-2-2 1-2zm1 300h2l1 1-2 2h-2v-2l1-1zm0-50h1c1 1 1 1 2 3l-2 1c-1 0-1 0-2-1v-1l1-2zm0 34c1 0 1 0 3 1-1 1-1 1-2 3l-2-2c0-1 0-1 1-2z"></path><path d="M511 419h1c1 0 1 0 2 1s1 1 0 2l-2 1c-1-1-1-1-1-2v-2zm0 144h0c2-1 2-1 3 0l1 2-1 1h-2c-1 0-1-1-2-2l1-1zm0 13h2c1 0 1 0 2 2l-2 1h-1l-1-1v-2zm1-136h2v1c1 2 0 2-1 3h-1c-1-1-1-1-1-2l1-2zm-1 161c1-1 2 0 3 0l1 1-1 1c0 1-1 1-1 1-2-1-2-1-3-2l1-1zm0 97c2 0 2-1 4 0 0 2 0 2-1 3h-2c-1 0-1 0-1-2v-1zm0-160c2 0 2-1 3 0 1 2 1 2 0 3h-3c-1-2 0-2 0-3zm113-197c1 0 1 0 2 1 0 1 0 2-1 3h-2c-1-1-1-1-1-3l2-1zm23 0c1 0 1 0 2 1 0 1 0 1-1 3-2 0-2-1-3-2v-1l2-1zM511 463l2-1 1 1c1 2 1 2 0 3h-3v-3z"></path><path d="M512 591h1c1 0 1 0 2 1l-1 2c-2 0-2 1-3-1 0-1 0-1 1-2zm0-68h1l2 1c0 2 0 2-2 3-1 0-1 0-2-1v-2l1-1zM391 341c1-1 1 0 2 1s0 1-1 3h-1c-1-1-1-1-1-3l1-1zm-24 0h2l1 1c0 1 0 2-1 3h-2c-1-1-1-2-1-3l1-1zm304 0h1l1 1c0 1 0 2-1 3-2 0-2 0-3-2l2-2zm-59 0h1l2 1c-1 1-1 2-2 3h-1l-1-2c0-1 0-1 1-2z"></path></g><path fill="#cac3b5" d="M511 552c1-1 2 0 3 0l1 1-1 2h-1c-1 1-1 0-2 0-1-2-1-2 0-3z"></path><path d="M512 333h1l2 2-1 2h-2c-2-1-2-1-2-2l2-2zm123 8h1l2 1c-1 1-1 2-2 3-1 0-1 0-2-1v-2l1-1zm47 0h0c2 0 2 0 3 1s0 1 0 3h-2l-2-2 1-2zm-23 0h1l1 1c0 1 0 2-1 3h-1c-2-1-2-1-2-3l2-1zm-280 0l2-1 1 2c0 1 0 1-1 3h-2c-1-1-1-1-1-3l1-1zm133 17h0c2 0 2 0 3 1 0 2-1 2-2 3h-1l-2-2 2-2zm-109-18l2 2c0 2 0 2-1 3h-2l-1-2c0-2 1-2 2-3z" fill="#ebe2d5"></path><path fill="#f2efdd" d="M343 341h2l1 1c0 1 0 2-1 3h-2c-1-1-1-1-1-3l1-1z"></path><path d="M512 346h2c1 1 1 1 1 2l-2 2c-2 0-2 0-3-2v-1l2-1zm-157-5l2-1c1 1 1 1 1 3l-1 2h-2c-1-1-1-1-1-3l1-1zm156 29h3c1 1 1 1 1 3l-1 1c-2 1-2 1-4-1v-1l1-2zm-181-27c0-2 0-2 2-3 1 0 2 0 3 2 0 1 0 2-1 3h-2c-1-1-2-1-2-2zm181-23h1c2 1 2 1 3 2-1 2-1 2-2 3h-1c-1 0-2-1-2-2 0-2 0-2 1-3z" fill="#ebe2d5"></path></svg>