<svg xmlns="http://www.w3.org/2000/svg" xmlns:v="https://vecta.io/nano" viewBox="165 125 709 812"><!--oldViewBox="0 0 1024 1024"--><style>.B{fill:#f7f0de}.C{fill:#201f1e}</style><path d="M416 224h2l1 1c0 1 0 1-1 3-1 0-1 0-3-1 0-2 0-2 1-3zm192-1c2 1 2 1 3 2 0 2-1 2-2 3-1 0-1 0-2-1v-3l1-1zM414 833h2l1 2c0 1 0 1-1 3h-1c-1 0-1-1-2-2 0-1 0-1 1-3zm196 0c2 0 2 0 3 1 1 2 0 2-1 4h-1l-2-1c0-2 0-2 1-4zm79-542h1c2 1 2 1 2 3l-1 1h-2l-1-1v-2l1-1zm-373-81l2-1c1 2 1 2 2 3l-1 2h-2l-2-1c0-2 0-2 1-3zm391 0h2c1 1 2 1 2 2l-1 2h-2l-2-1c0-2 0-2 1-3zm-372 81h2c1 1 1 1 1 3l-1 1h-1c-1 0-1 0-2-1 0-2 0-2 1-3zm-39 241h1l2 2c-1 2-1 2-2 3h0c-2 0-2-1-3-2 0-2 0-2 2-3zm433 0h1c1 0 2 1 2 2 0 2 0 2-2 3h-1l-2-2c0-2 1-2 2-3z"></path><path d="M298 409l-4-5h7l1 4h-2l-2 1z" class="C"></path><path d="M460 171h2c1 1 2 1 2 3s-1 2-2 3h-2c-2-1-2-2-2-3 0-2 0-2 2-3zm103 0c1 0 2-1 3 0s1 2 2 3c-1 1-1 2-2 3h-2c-2-1-2-1-3-3 1-2 1-2 2-3zM276 292h2c2 2 2 2 2 4-1 2-1 2-2 3l-2-1c-2-1-2-1-2-3 0-1 1-2 2-3zm471 142h2c2 1 2 1 3 3-1 2-1 2-2 3h-3c-1-1-1-1-2-3 1-2 1-2 2-3zm-470 0c1 0 1 0 2 1s1 1 1 3l-2 2h-3c-1-2-1-2-1-4 1-1 1-2 3-2zm471-142c1 0 2 0 3 1s1 2 1 4c-1 1-2 1-3 2-1 0-2-1-3-1-1-2-1-2-1-3 1-2 1-2 3-3zM317 577h3v6c-3 3-7 5-11 7h-2l4-9c2-2 3-3 6-4zm390 0c2-1 4 0 5 0 4 2 7 11 8 14-4-2-10-4-13-9-1-1 0-3 0-5zm-352-4c1 0 2-1 3-1 2 1 3 1 4 2 1 2 1 3 1 5s-2 3-3 4c-1 0-2 1-3 0-2 0-3-1-4-2s-1-3-1-4c0-2 2-3 3-4zm311 0c1 0 2-1 3-1 2 1 3 2 4 3s1 3 0 5c0 2-2 2-3 3h-2c-2 0-3 0-4-2-1-1-2-3-1-4 0-2 1-3 3-4zm-311 61c1-1 3-1 4-1s3 1 3 3c2 1 2 3 1 5 0 1-1 2-3 3h-1c-2 0-4 0-5-2-1-1-2-2-1-4 0-2 1-3 2-4zm312-1h0c1 0 2 0 3 1 1 0 2 2 3 3 0 1 0 3-1 5-1 1-2 2-4 2h-2c-1 0-3-1-3-3-1-1-1-3 0-5 0-2 2-2 4-3zm-60 91c1 0 1-1 2 0 2 0 7 5 9 6 2 2 4 3 7 4 7 3 12 2 18-1l-5 6c-3 1-5 3-9 4-5 1-11 0-16-3-3-2-7-6-8-10 0-3 0-4 2-6zm0-73h2c2 0 4 2 6 4s5 4 8 5c8 4 13 3 21 0l-5 5c-3 3-7 4-11 5-7 0-12-1-17-6-3-2-6-5-6-8s1-4 2-5zm-191 73h2c1 1 2 1 2 3 1 2 1 4-1 6-2 5-8 8-13 9-6 2-12 1-17-2-2-2-4-5-6-7l2 1c9 3 17 0 24-5 2-2 4-4 7-5z"></path><path d="M415 651c1 0 2 0 3-1l2 2c1 2 1 5 0 6-2 5-7 9-12 11-6 2-13 1-19-2-3-2-5-4-7-7l3 1c1 1 3 1 4 1 11 2 19-5 26-11zm193-68c2 0 4 1 5 2 3 3 7 6 11 8 6 3 14 3 20 1l-6 6c-4 3-10 3-15 3-6-1-11-4-15-8-1-3-3-5-3-8 1-2 2-3 3-4zm-192 0h2l2 2c1 1 1 4 0 6-2 4-7 9-12 10-6 3-13 2-19 0-2-2-4-3-5-5-1-1-1-1-1-2l3 1c8 2 16-1 22-5 3-3 5-5 8-7zm0 18c1-1 2-1 3-1 0 1 1 2 1 3 1 5 0 10 0 15 0 6 1 14 0 20-1 3-2 5-4 7-2 4-7 8-12 8-3 1-6 0-8-2-1-1-2-1-2-2 6-1 10-1 14-6 2-2 4-4 5-7 1-6 0-15 0-22-5 2-11 3-17 2-4-1-5-2-8-5l1-1c1 1 3 1 5 1 9 1 16-4 22-10zm192-1c2 1 6 5 8 7 2 1 4 2 7 3 4 1 8 2 12 0 1 0 2 0 3-1-1 2-3 4-5 6-6 3-14 1-21 0 0 9-1 19 4 27l1 1c4 5 8 5 15 6h0l-2 2c-2 2-5 3-8 3-5-1-9-5-12-8-2-2-3-5-4-8-1-2 0-5 0-8l-1-16v-12c1-1 2-1 3-2zm-191 68c1 0 1 0 2 1 1 0 1 0 1 1 1 2 0 5 0 7v27c0 7-1 12-6 17-3 3-8 6-12 6-4-1-6-2-9-5h1c7 0 10-1 14-6 2-2 3-4 4-6 1-3 1-7 1-10v-19c-5 2-11 3-16 2-4-1-7-4-9-6l1-1c2 1 3 2 5 2 9 1 17-4 23-10zm190 0c1 0 1 0 2 1 2 1 4 2 6 4 3 2 8 4 12 5 5 1 8-1 12-4-2 3-4 6-7 7-6 4-13 2-19 0l-1 14c0 7 0 13 4 19l2 3c4 4 9 5 15 5-2 2-4 4-7 5-3 0-7-1-10-2-4-3-9-9-10-15-1-5 0-12 0-18-1-7-1-15 0-21 0-1 0-2 1-3zM402 530c4-1 8 0 12 2 2 2 5 5 5 8l1 1v3 17c0 3 0 8-1 12-1 2-3 5-5 7-3 3-7 6-11 6s-6-1-9-4h0c4-1 8-1 11-4 5-3 7-8 8-13v-5c0-6 2-15-3-20-2-2-5-2-8-1-2 1-2 1-3 3 0 2-1 3 1 4 1 2 2 1 4 1 1-1 1-2 1-4 2 1 3 1 4 3s1 5 0 7-3 3-5 4c-3 1-6 0-8-1-3-2-5-4-6-7-1-4-1-9 1-13 3-4 6-5 11-6zm218 0h2c4 0 8 1 11 5 3 3 4 7 3 12 0 3-2 6-5 8s-6 3-9 2c-2-1-4-2-5-3-1-3-1-6 0-8 1-1 1-2 3-2 1 1 1 2 2 3 2 1 2 1 4 0 0-1 1-2 1-3s0-3-1-4c-2-1-3-2-5-2s-4 1-6 2c-4 5-2 16-2 21v2c0 8 4 16 13 18 2 0 5 0 6 1-1 2-3 3-4 3-4 2-7 1-10-1-6-2-11-8-12-13-1-3-1-8-1-11 0-5 0-13 1-18 0-2 1-4 2-5 3-5 7-6 12-7zM447 223h1v102h-1c-9 1-17 0-26 0l-15 1h-58-10-4s0-1-1-1l-1 1-38-1 9-9c3-1 9-1 12-1h38l-1-2c0-3 0-7 2-10 1-2 4-4 7-4s7 0 9 2c2 1 3 3 3 5s0 3-1 4l-2 1c-2-1-2-3-3-4s-2 0-3 0-1 1-2 2c0 2 0 4 1 5 1 2 3 4 5 4 2 1 6 1 9 0 4-2 6-6 8-11 0-1-2-5-3-7-3-5-7-10-11-15-14-20-29-39-41-61 14 16 28 30 50 35 12 3 28 1 38-5 10-7 14-17 16-28 5 0 9-1 13-3z"></path><path d="M414 266c3-1 5-1 8 0 5 1 8 4 11 8 2 4 2 9 1 12s-3 6-6 7c-4 2-7 2-10-2-1-1-1-2-3-2h0c-1 2 0 8 1 11-2-3-3-6-4-9v-4c1-1 1-3 3-4 1-1 2-1 3-1l3 3h0 2s1-1 2-1c0-1 1-3 0-4 0-2-1-4-3-5-3-2-7-2-10-1-4 1-6 4-8 8-1-1-2-2-3-4 0-1 1-4 2-5 2-4 6-6 11-7z" class="B"></path><path d="M608 325c-4 0-29 1-31 0V222c2 2 5 3 8 3l6 1c2 10 5 20 14 26 11 8 26 10 39 7 16-3 30-11 41-23 3-3 6-8 10-11-9 16-20 31-30 46l-14 18c-4 6-8 11-10 17 1 5 2 9 6 11 3 2 7 2 10 2 2-1 4-3 5-5s1-4 1-5c-1-2-2-2-3-3-3 1-3 5-6 4-2-2-2-3-2-5 1-2 2-3 3-4 3-2 7-3 10-2s6 2 7 5c2 2 2 6 1 9 0 1 0 1-1 2 4 1 8 0 12 0h29 9l3 3c3 3 5 5 8 7l-33 1h-9v-1c-1 1-1 1-2 1h-43c-2 1-7 0-10 0-9 0-19 1-28-1z"></path><path d="M608 325c3-1 6-1 9-2 9-1 19 0 29 1-4 1-7 0-10 0h-6-1c-1 1-3 1-4 1-1-1-2-1-3-1h-3c-3 0-6 0-8 1h5 3 27v1c-2 1-7 0-10 0-9 0-19 1-28-1z" class="C"></path><path d="M605 266c3-1 6-1 9 1 4 1 9 5 10 10 0 1-1 3-2 5l-1-2c-2-2-3-4-6-6-3-1-7-1-10 0-2 1-4 3-5 5 0 1 0 3 1 5 2 1 2 1 3 1l3-3c2 0 3 1 4 1v1c1 1 1 2 2 3 0 4-1 8-3 11v-1-1-1c1-2 1-5 0-6h-1c-1 2-2 4-5 5-2 1-5 0-8-1-2-2-5-4-5-7-1-4 0-9 2-12 3-5 7-7 12-8z" class="B"></path><path d="M431 790c12-1 23-1 34-1h62 44c9 0 18 0 27 1 5 1 10 3 14 6 4 4 4 7 4 13v-1l-2-3c-3-3-8-6-12-6-1 0-4-1-5 0-2 1-5 5-7 7-4 4-8 7-12 11l-1-18h-7l-1 20c0 1 1 5 1 6-1 0-16 15-18 17v-43l-6-1c-2 5-1 12-2 18v1c1 3 1 7 1 11v20c0 3-2 5-3 7l-6 9-6 13c-10 20-15 42-17 64-4-24-9-47-20-70l-8-13c-1-2-4-5-4-7-1-3 0-8 0-11 0-14 1-28-1-41h-6l-1 43c-5-5-10-12-17-16v-1l-1-26h-7v18c-3-2-6-4-9-7-3-4-7-9-12-11-2-1-5 0-7 1-4 1-8 4-10 7v1h-1c0-4 1-7 3-10 5-6 13-8 19-8z"></path><path d="M514 808c1 2 1 7 2 8h0c2 0 2-1 3-3h0v-1l-1 6c0 1 2 1 4 2h-5c1 2 2 4 4 7l-5-5-1 10c-1-2-1-6-3-7v1c-1 2-1 3-2 5h0v-9l-5 3 3-5h-3-2c2-2 4-2 6-2l-3-5c2 1 2 3 4 3 0-1 0-2 1-3l1 1h0c-1-2 0-3 0-5 0 1 0 2 1 2s1-2 1-3z" class="B"></path><path d="M308 504l-6-3c14-1 25-4 35-13 5-5 9-10 13-14 10-10 23-14 36-14 1-17 5-32 18-44 19-16 44-14 67-14v203 57c0 15 1 30-2 45-3 16-10 32-22 43-9 10-20 13-33 13h-1v-9c-6 2-14 4-20 1-3-2-5-5-6-8 1 1 3 3 5 3 3 2 9 1 12 0s5-2 7-4 4-4 6-5h2c3 3 1 13 1 17 6-1 10-3 15-7v-54-87-47c0-8 1-16 0-24-1-6-4-12-9-17-5-6-13-9-20-9h-7l-1 1c-9 1-16 6-20 13-3 3-5 7-7 11-4 6-11 12-19 13-8 2-16 0-22-5-7-5-12-13-13-22-1-4-1-9-1-12a30.44 30.44 0 0 0-8-8z"></path><path d="M427 503c5-1 12 0 16 0h1-16-1zm-119 1c3-1 8 0 10-1 0 1-1 5-1 6v1l-1 2a30.44 30.44 0 0 0-8-8z" class="C"></path><path d="M341 499c2-1 3-1 4 0-4 4-8 8-9 14-1 4 0 8 2 12 2 2 4 4 7 4 2 0 5 0 6-1 1-2 2-2 2-4-1-2-2-2-4-3-1-1-1-2-1-4 1 0 1-1 1-1 2-1 5-2 7-1 3 1 5 4 6 7 1 2 1 4 0 6-1 4-4 7-8 9-3 2-9 2-12 0-5-1-9-5-12-10-2-5-2-11 0-17a19.81 19.81 0 0 1 11-11zm65-45c5 0 10 0 15 2 5 3 9 8 11 14 1 5 1 10-2 15-3 6-8 10-15 11-5 1-10 1-14-2-5-2-9-7-10-12-2-6-1-12 1-17 4-6 8-9 14-11z" class="B"></path><path d="M408 462c2 0 5 0 7 1 3 1 6 3 8 7 1 3 1 7 0 11-2 4-5 6-9 7-3 0-6 1-9-1-3-1-5-4-6-7-2-3-1-8 0-11 2-4 5-5 9-7z"></path><path d="M410 471h1c1 0 2 0 3 1 1 2 1 3 1 5-1 2-2 2-3 3h-2c-1-1-2-1-3-2s-1-3 0-4c0-2 2-3 3-3zm-4-48h50v61 154 60 17 10c-1 4-4 8-6 11h-1c-1-7 0-15 0-22v-47-151-53-33h-49l6-7z" class="B"></path><path d="M709 511c0 5 0 11-1 16-1 6-4 10-8 15-5 6-12 9-19 10-12 0-22-5-28-15-3-6-6-12-11-16-7-6-16-9-24-8s-15 4-20 10c-4 5-7 10-8 16-1 11 0 22 0 33v63 75c0 14-1 28 0 42 5 3 10 5 15 7 0-4-1-15 2-17 0-1 0-1 1-1 2 0 7 5 9 7 3 1 5 2 8 3 7 1 9-1 14-4-2 3-4 6-7 8-6 3-13 1-20-1-1 2 0 7 0 9h-2c-13 0-23-3-32-13-11-10-18-26-21-40-3-15-2-31-2-46v-56-205c24-1 50-4 69 14 12 12 15 27 16 43 15 0 27 5 37 15 3 3 5 6 8 9 6 6 13 11 21 14 6 2 11 3 17 3l-6 3c-3 2-5 5-8 7z"></path><path d="M709 511v-2l-1-1v-4h0v-1c2 1 3 1 4 1h5c-3 2-5 5-8 7z" class="C"></path><path d="M681 499c2-1 3 0 4 0 6 2 9 7 11 12s2 11-1 16a19.81 19.81 0 0 1-11 11c-4 1-9 1-13-1-4-3-6-6-8-11 0-3 0-5 1-8 2-2 3-3 6-3 2-1 4-1 6 1 1 1 1 2 1 3s-1 2-2 2c-1 1-2 1-2 2 0 2 0 2 1 4 1 1 2 2 4 2 2 1 5 0 7-2 3-2 4-5 5-8 0-5 0-10-3-14l-6-6zm-68-45c6 0 9 1 14 4 4 4 7 9 8 15 0 6-1 11-5 16s-8 7-15 8c-5-1-10-1-14-5-5-3-8-9-8-14-1-6 1-12 4-17 5-5 10-7 16-7z" class="B"></path><path d="M611 462c3 0 5 0 8 1 3 2 6 4 7 7 1 4 1 9-1 11-1 4-5 6-9 7-2 1-5 1-7 0-4-2-6-5-8-8-1-4 0-8 1-11 2-4 5-6 9-7z"></path><path d="M612 471h1c2 0 3 0 4 1s1 3 1 4c0 2-1 2-2 4h-1c-1 0-3 0-4-1s-2-3-2-5l3-3zm-42-48h50c2 2 4 5 6 7h-49l-1 49c1 6 0 13 0 19l1 44v147l-1 50c-2-4-6-9-6-13-1-3 0-7 0-10v-18-63-212z" class="B"></path><path d="M301 404h57l1-7h-58-11-3c-1 0-4-3-5-4-7-6-15-11-23-15-31-15-63-18-96-22 7-1 15-1 22-1 14-1 28-1 43-3 13-2 27-6 40-11 6-2 12-6 18-7h0c7-2 13-1 20-1h25 55c9 0 20-1 29 0 2 0 3 1 4 0h13 24V217c0-2 1-2 2-3h1l-1 1v3c0-1 1-2 1-2 0-4 5-8 8-11l6-9v-1l1 147h6c1-6 0-13 0-19l1-23v-27c0-1-1-4 0-5v-1-1-46-22c0-4 0-8 1-12 1-3 4-7 5-10l9-17c10-24 13-48 17-73l2 22c3 17 7 34 13 49 3 7 6 14 10 20 2 4 5 7 6 12 2 9 0 21 0 31l1 60v62h6c1-3 0-8 1-11h0c-1-3 0-8 0-11v-36-54c0-11-1-22 0-33 1 0 3 4 4 5 2 3 4 5 6 7l6 6h1c1 2 0 6 0 8v20l1 90h38v2h1v-1l1-1h18 16l1 1 1-1h3 9 60c4 1 8 0 12 0h1c8 0 11 1 18 5l18 7c22 7 46 8 69 10h18c2 0 5 0 8 1l-37 4c-20 3-41 8-59 18-7 3-13 7-19 12l-6 4-3 3h-71l1 7h63c-2 2-3 5-5 7-2 3-5 6-7 10v1h-46l3 7 37 1h0c-7 9-11 19-18 28 10 12 22 23 38 25l10 1c-11 4-20 5-30 0-6-2-11-6-15-11-14-13-24-31-30-49-8-20-11-49-2-69l3-5-312-1c11 20 10 44 4 65-5 19-14 36-26 51-5 7-12 13-19 18-8 4-17 6-27 3-1 0-4-1-5-2 5-1 10-1 15-2 9-2 18-9 24-15l7-8-18-29 38-1 3-6-36-1c-2 0-9 1-10 0l-9-13 2-1h2l-1-4z"></path><path d="M685 443c3-1 7 0 10 0h-10zm-377-25c2-1 4-1 6-1l12 1h0-18 0zm441-80l18 7c-1 0-1 1-2 1-3 0-11-3-14-5-1-1-2-2-2-3z" class="C"></path><path d="M308 354h0l-1 3c-1 2-1 3 0 4l7-4c-2 2-4 3-6 5 5 2 9 3 14 3-4 2-10 1-15 0 1 3 2 5 4 7l-5-4c-1 3-1 5-2 8v-4l-1-4-6 5 5-7c-4 0-8-1-12-1l11-3-5-5c2 1 4 3 6 4-1-3-2-5-2-8l3 6 5-5zm408 0h1c1 1 1 3 2 5l5-6c-1 2-2 4-3 8 2 1 6-4 8-4l-7 6c4 0 8 1 12 2l-12 1c0 1 2 4 3 5-1-1-3-2-5-3v2l-1 6c-1-3-1-6-2-8l-5 4 3-6-12-2 13-2-5-5v-1l6 4c-1-2-1-4-1-6zM512 186l2 14 3-8c-1 4-2 8-1 12v3c0 3-1 6 0 10v3c1 1 1 0 1 1l-1 1s-1 0-1 1c0 0 1 0 1 1 1 1 1 3 1 4-1 0-2-4-2-5 0 3-1 6-1 9s2 7 1 10l-1-3-2-5-3 8c1-5 2-9 2-14v-3c-1-2-3-3-3-4s2-4 2-5c0-2-1-4-1-6 0-6-1-11-1-16v1l2 7 2-16zm16 86c1 0 1 1 2 2 4 7 5 14 3 22-1 5-6 10-11 13-4 3-10 3-15 2h-1c-3-2-6-3-9-6-5-6-5-12-5-19 0-5 3-10 5-14 0 5-1 11 0 16 0 5 3 10 7 13 3 3 8 3 12 2 4 0 7-3 10-6 5-7 3-17 2-25z" class="B"></path></svg>