<svg xmlns="http://www.w3.org/2000/svg" xmlns:v="https://vecta.io/nano" viewBox="147 69 758 844"><!--oldViewBox="0 0 1023 1024"--><style>.B{fill:#050604}.C{fill:#fefefe}</style><path d="M699 289h1c-1 3 0 6 1 9l1 1h-1l-6 1-1-1h-1l6-10zm-249-7c6 4 17 13 19 19l-1 1-12-1c0-1 1-3 1-5 1-6-3-9-7-14zm219 220c2 5 2 10 4 15l2 10c1 2 2 4 1 6l-1 1-6 2c1-11 0-23 0-34zM490 232h2c5 2 19 7 21 13 0 1 0 2-1 4-1 1-2 1-3 1-3-1-4-2-6-4-4-2-8-5-11-9-2-1-2-3-2-5zm14 653h2c1 1 2 1 3 2 7 7 8 13 8 21-1-1-2-4-4-5l-4 6c-3 5-8 10-14 11h0c3-3 6-6 8-9 4-5 6-10 5-17h0l-10 9c2-5 3-13 6-18zm102-44c0 18 6 33 12 49l-6-9c-5-7-12-15-19-17l-1-1c7-6 11-14 14-22zM397 695l10 9c6 5 13 10 19 14l-6 4-10 7c-7-9-11-23-13-34zm208 58c5 1 11 3 16 5 10 2 20 1 30 1l-6 5c-3 2-6 3-9 4-7 2-15 2-21-2-6-3-8-7-10-13zM383 275h1c7 6 15 15 16 24-3 2-17 0-21 0l-17-3c8-6 13-15 21-21zm105 613h1 0c-8 14-22 27-39 30-12 3-27-1-37-8l-6-5c10 5 20 8 32 7 11-1 21-6 29-14 2-3 4-6 6-8s11-2 14-2zm136-326c5 5 10 13 11 20 2 12-7 30-14 39-8 11-17 15-30 17l-10 1c2-1 5-2 8-2 8-4 16-8 22-16 14-16 14-38 13-59zM402 366h8l-2 2c-2 5-6 8-10 12-5 4-10 7-16 9-8 3-18 4-27 6-2 1-4 2-6 2l7-8c12-15 28-22 46-23z" class="B"></path><path d="M386 373c1-1 2 0 3 0 1 1 1 2 2 4-1 1-2 2-4 3-2 0-2 0-4-1-1-1-1-1-1-3 1-2 2-2 4-3z" class="C"></path><path d="M711 523h1v26c1 15 9 22 19 31l-19-11c-6-5-13-9-18-15-3-3-5-7-7-10-1-2-3-4-4-7l28-14z" class="B"></path><path d="M698 539h1c2 2 3 8 3 11h-1 0c-2-2-5-4-5-7 0-2 1-3 2-4z" class="C"></path><path d="M624 179l51 33c2 2 7 5 9 8-1 1-3 1-4 2-10 3-21 4-32 3-3-2-8-7-10-10-2-6-2-13-4-19-2-7-5-12-10-17z" class="B"></path><path d="M643 202l6 3c2 2 6 4 6 7h-2c-4 0-8-7-10-10z" class="C"></path><path d="M412 273c14 0 25 4 35 13 2 3 5 6 5 9 0 2 0 4-2 5h-14-29c-2-10-7-17-13-24 6-2 12-2 18-3z" class="B"></path><path d="M430 284c3 1 8 4 9 7v1c-2 1-2 1-4 1-2-3-3-6-5-9zm-16 0c2 0 3 0 5 1 1 0 1 1 1 3s-1 3-2 4h-4c-2-2-2-3-3-6 1-1 2-1 3-2z" class="C"></path><path d="M711 243c6 5 11 11 17 17 9 11 17 21 24 34l-10 2-23 3c-2 0-6 1-8 0-1 0-2 0-2-1-9-11-2-26 0-37 2-6 2-12 2-18z" class="B"></path><path d="M723 276c1 0 2-1 3 0 2 0 4 1 5 3 1 1 1 4 1 6-1 2-2 2-3 4h-4c-1 0-2-1-3-2-2-2-2-5-2-7 1-2 2-3 3-4z" class="C"></path><path d="M674 539h2c1 0 2 4 2 4 2 4 3 7 6 10 7 10 18 17 28 24-3 13-5 25-10 38l-2 5h-1c-2-3-4-7-6-10-9-16-27-51-24-69l5-2z" class="B"></path><path d="M682 562l1 2c9 7 11 18 12 29-3-5-5-10-7-15l-6-16z" class="C"></path><path d="M419 365c6 1 12 4 16 8 21 16 26 43 29 67l-11-16c-10-14-25-24-42-30l-18-3c12-6 20-15 26-26z" class="B"></path><path d="M422 383c2 0 5 0 8 1 4 2 9 5 11 9 0 2 0 3-1 4-2 1-3 1-5 0-7-2-10-8-13-14z" class="C"></path><path d="M464 761h1c0 12-1 23-3 35l-4 20c-4 15-7 28-15 42-1 0-2-4-2-5-7-20-10-45-2-65 6-14 12-21 25-27z" class="B"></path><path d="M448 792h3c0 2 1 2 1 3 0 3-1 4-3 6h-2c-1-2-2-2-1-4 0-2 1-4 2-5zm7-15l2-1c1 2 1 2 1 4s-1 4-3 6c-1 0-2 0-2-1-2-1-1-3-1-4 0-2 1-3 3-4zm-11 35h2c1 1 1 1 1 3 0 3-1 6-3 8-1 1-1 0-2 0-1-2-2-3-2-4 1-3 2-5 4-7z" class="C"></path><path d="M676 230c5-1 13-1 18 2 4 2 9 7 10 11v1c0 1 1 2 1 3 2 19-8 37-19 51v-9c-2-11-8-21-8-32-1-4-1-7 2-10 1-1 3-2 4-2 2 1 3 1 4 3 4 3 2 10 2 15 2-4 4-8 4-13-1-2-2-5-4-7-3-3-6-3-9-3-3 1-5 3-6 5-4 6-1 14 0 20v1c4 11 8 23 3 34-3 1-7 1-11 1l-28-1c-1-9-2-15-6-23 7 7 15 15 25 17 4 1 10 0 14-2 2-2 4-4 4-7 1-6-1-12-3-17-5-13-12-24-20-36l23-2zm-149-82c8 0 17-1 25 0 19 2 37 8 52 19-1 1-3 1-4 2-2 0-3 1-3 3-1 2 0 5 1 7 3 5 12 10 17 12-3-4-7-6-11-9-1-2-3-3-2-5 0-2 0-3 1-4 4 0 7 0 10 3 11 8 16 20 17 33v1c-2 0-4-2-6-3-3-2-6-4-10-6-12-5-27-10-40-11-5 0-11 0-16 1-3-6-7-11-11-15 4-1 9-3 13-5 2-1 4-3 5-6 0-2 0-4-1-6s-4-3-6-4c-7-1-15 0-22-1-9-1-18-3-27-5l18-1z" class="B"></path><path d="M571 179c1 0 3-1 4 0v1c-2 1-4 1-6 1l-6 1v-1c1-2 5-2 8-2zm6-12c4 1 9 4 12 8 1 1 1 3 1 5-1 1-2 2-4 3h-2c1-1 2-2 3-4 0-4-7-10-10-12z" class="C"></path><path d="M429 254c15-1 30 2 44 7 9 4 19 7 27 12 9 7 17 19 22 29h-41c-1 0-3 0-3-1-1 0-1-1-1-2l-4-5c-7-9-18-19-28-24-11-5-29-7-42-5l-12 3c3-2 6-3 9-4 9-5 18-8 29-10z" class="B"></path><path d="M454 265l2-1c2 0 8 3 10 5 1 1 1 1 1 3-1 0-1 1-2 0-4 0-9-4-11-7zm33 15h3c1 0 3 2 4 3s1 3 1 4c-1 2-2 3-4 4h-4c-1-1-2-3-3-4 0-1-1-3 0-4 1-2 2-2 3-3z" class="C"></path><path d="M696 413h1c3 5 4 11 6 17 6 21 8 41 9 63-2 4-5 7-8 10l-17 18-5 6-6-18c-4-25 3-52 11-76l9-20z" class="B"></path><path d="M694 446h2c0 1 1 1 1 2 1 2 1 6 0 8 0 2-1 2-3 3h-2c-1 0-2-1-2-2-1-1-2-5-1-7s3-3 5-4zm-3 33h1c1 1 2 2 2 3 1 5-3 11-6 16l-2 1c-1-3-1-8 0-11 0-4 2-7 5-9z" class="C"></path><path d="M669 384c8 5 16 12 22 20-4 8-7 16-10 24-4 11-8 22-11 34-6 25-6 50-5 76-1 1-1 1-3 1-1-2-1-4-1-6l-1-12c-3-23-2-47 5-69 4-16 10-31 12-47-3 6-6 13-8 19-5 12-10 23-14 35-1 7-2 15-2 22-1 10-1 21 1 31l3 19c0 3 1 8 1 11-1 0-2 1-3 1h-2c-5-18-7-38-8-57 0-8 0-16 1-25s3-18 5-27c5-17 10-34 18-50zM319 620c-4 7-7 14-9 22-3 14-2 29 6 41 7 10 17 20 29 25 5 2 11 4 17 5-9-16-19-30-25-46 2 1 3 4 4 6 7 10 16 18 27 23 6 2 12 3 18 4h-1c-7-6-11-12-13-21v-1c0-4 0-8 1-12 4 11 7 18 18 24l1 8c0 6 4 26 9 30h0l3 2h0c-9 0-20 1-29 0-19-3-38-11-53-24-12-10-19-23-21-38-1-19 6-34 18-48z" class="B"></path><path d="M367 706c5 1 14 5 17 9-1 0-1 1-2 0-6 0-11-5-15-9z" class="C"></path><path d="M717 600h0c1 4 0 9-1 13-4 23-15 46-29 65-12 16-29 30-45 41-7 4-15 9-23 10h-1c-6 1-13 1-20 0 0-5-1-11 1-15 2-6 12-8 18-10l12-4c27-11 53-36 69-61 7-13 14-26 19-39z" class="B"></path><path d="M686 666h0l-1 2c-10 16-38 43-57 47l-1 1c-4 0-8 1-13 1v-1l23-10c20-10 35-24 49-40z" class="C"></path><path d="M609 431c-3 5-6 10-8 15-7 18-7 38-3 57 2 13 5 26 6 38 1 11 2 23-1 34-1 6-4 11-6 16 1-8 1-16 0-24-7 7-15 11-25 13l4-3c5-3 8-9 11-15 1-4 2-9 3-14-8 5-14 7-22 10 4-5 8-9 11-15 8-14 7-32 9-48-4 6-7 13-12 19-2-5-3-12-4-18-2-10-3-21 0-31 6-17 22-26 37-34z" class="B"></path><path d="M593 449c0 2-2 5-3 7l-3 9c-4 12-6 23-9 35 0-18 5-37 15-51z" class="C"></path><path d="M560 199h10c13-1 27 3 38 9 12 6 22 15 31 24 12 11 31 34 31 51 0 1-1 1-2 2h0c-5 2-8 1-12-1-19-8-28-25-41-40-5-7-12-14-19-19-11-8-23-12-35-15l-1-11z" class="B"></path><path d="M571 205h2c10 0 19 4 28 8 2 2 6 3 8 5-2 1-4 0-6 0-7-1-14-6-21-9-3-1-7-3-11-4zm45 23c4 3 8 7 12 10 11 10 24 20 29 34h-1c-4-2-8-4-11-7-7-6-12-14-17-21l-12-16z" class="C"></path><path d="M376 399c11-1 21 0 32 3 20 6 36 18 46 37 12 22 17 48 10 72-4 12-11 23-22 28-12 7-25 6-37 2 3 0 5 1 8 1 9 0 18-2 25-7 11-7 17-20 20-33-2 2-4 5-6 7-5 6-11 7-18 9l5-3c7-6 11-14 14-23 4-16-2-36-11-50-10-17-26-25-45-29 9 8 18 16 21 28 2 6 2 11 3 16l-4-7c-8-16-21-28-38-34-11-3-25-5-37-2-4 1-7 2-11 4h0c11-14 29-18 45-19zm-67 304c3 3 5 6 7 9 3 4 7 7 11 10 6 5 13 9 21 11 18 7 35 9 55 6-2 4-4 8-4 12 0 2 2 4 4 5 2 2 4 2 7 2 2-1 3-1 4-3-3 0-4 0-7-1-1 0-2-1-3-3s0-5 1-7c6-12 14-20 27-24l2 3c-2 3-4 5-6 8-1 4-1 8-2 11-3 10-8 19-15 26-9 9-19 15-32 17h-13c-17-1-32-6-46-16-12-10-18-24-20-39 1 2 2 5 3 7 3 7 7 13 13 18 13 12 30 17 48 18 5 0 10 0 15-1l-40-32a188.83 188.83 0 0 1-20-20c-4-5-7-11-10-17z" class="B"></path><path d="M383 749c2 2 9 7 10 10h-2c-4-1-7-7-8-10z" class="C"></path><path d="M561 217c15 1 28 10 39 21 13 12 26 30 31 48 1 5 1 10 1 14-5 1-11 1-17 1-2 0-6 0-8-1-1-8-2-16-4-24l-4 24h-19c2-1 4-3 5-5 6-10 5-23 2-34-3-9-8-16-12-24l3 13c2 10 3 23 2 33-1 5-2 13-6 16-1 1-1 0-2 0l-1-1c0-1-2-5-2-6 1-1 2-3 3-5 1-4 0-8-2-12-3-5-6-5-11-7 4-8 5-20 4-29-1 7-3 16-6 23-1 2-3 4-5 5-1 0-1 0-2-1-1-3 3-6 4-8 1-1 1-2 1-2l-1-1c-1-1-2-3-3-5 0-3 2-5 3-8 2-4 4-8 5-13 1-4 1-8 2-12zm12 476l4 2c9 5 19 3 28 0-3 3-8 7-11 11-6 10-6 24-2 35 3 8 8 15 10 23 8 24 9 47 1 72-3 9-7 18-14 24-2-3-3-7-5-10-1-5-3-9-4-13-2-12-3-25-4-37l-2-53-1-54z" class="B"></path><g class="C"><path d="M582 738h2c2 2 2 4 2 6s-1 3-2 5c-1 0-2 0-3-1-1-2-1-4-1-6s1-3 2-4zm10 28h2v1c1 3 1 10 0 13-1 1-2 1-3 2-1-1-2-2-2-3-1-5 1-10 3-13zm3 38c2 4 2 11 1 15-1 2-1 3-3 4l-1-1c-1-1-1-2-2-3-1-6 2-10 5-15z"></path><path d="M598 772c0 1 0 2 1 4 1 5 1 9 1 14v6c-1 3-2 3-4 4h-1-1c-1-2-2-4-2-5 0-2 2-4 3-5 4-6 3-12 3-18z"></path></g><path d="M612 369c17 0 35 3 50 10-2 6-5 11-9 16-14 18-38 26-57 38-7 4-13 9-19 15-3 3-5 7-7 11-1-22 2-43 11-63 3-6 6-13 11-18 6-6 12-8 20-9z" class="B"></path><path d="M623 389c5 0 9 1 13 2-1 1-3 1-4 2l-10 3c-10 3-19 8-28 14l-9 7c3-5 5-9 8-13 8-9 18-14 30-15z" class="C"></path><path d="M777 296c5 5 9 12 14 18 12 17 25 36 43 48 8 5 17 10 26 8 6-2 8-5 11-10-1 4-2 7-4 9-3 4-7 6-12 7-17 2-30-11-42-20 14 20 30 39 28 65-1-6-2-11-5-17-8-15-18-27-27-41l-12-19c-2-3-4-7-7-10l22 54c10 25 21 50 39 70 3 3 5 5 8 7 1 1 3 2 5 3-14-2-23-10-32-21-3-3-5-6-8-9l9 18c7 17 11 35 7 53-1-18-8-35-15-51l-16-38c-5-11-12-21-16-32-2-6-2-13-3-19-1-8-3-16-5-24-2-7-5-14-8-22-1-2-3-5-4-8 0-1 1-4 1-5l3-14zm-7 29c9 24 13 52 9 77-1 14-5 27-10 40-5 11-9 24-16 34-3 5-6 9-10 13-14 17-32 32-52 41l-9 3 6-3c5-4 11-9 15-14 10-11 18-22 24-35 8-17 12-35 17-53l26-103z" class="B"></path><path d="M739 481v1c-1 4-7 9-11 12 2-5 6-10 11-13zm11-28c1 0 1 1 2 1 1 2 1 4 0 6-1 3-3 4-5 5h0c-2 0-2 0-3-1 0-2 0-4 1-6s3-4 5-5zm12-31h0v2c0 4 0 11-4 14-1 1-1 1-3 1-1-1-1-1-1-2 0-6 4-11 8-15zm7-46c0 5 1 21-3 24-1 1-1 1-2 1s-1 0-2-1v-5c1-7 4-13 7-19z" class="C"></path><path d="M466 153c9 2 19 3 28 4 20 3 40 9 60 5-9 7-24 7-35 8 2 1 5 2 6 3 10 4 18 7 24 15 12 20 3 42-5 61-1 3-3 6-4 9 0 2-1 5 0 7 0 1 1 3 0 4 0 1-1 1-1 3 1 6 5 4 10 6 1 0 2 1 3 3 2 2 3 4 3 7 2 5 3 9 8 13h1c-11 3-23 1-34 1-2-12-9-22-17-31 2-1 4-1 7-2l6-3c9-7 16-21 18-32 2-13-2-28-9-39-10-13-25-21-41-23 18 10 35 21 41 41 3 10 3 21-2 30-2-3-5-7-7-10l-35-48c-8-11-14-23-25-32z" class="B"></path><path d="M536 285l1 1c3 2 8 6 9 10-1 0-3 0-4-1-4-2-5-6-6-10zm-30-97c4 3 8 6 11 9 2 3 4 6 3 10h-1c-3-1-5-5-6-8l-7-11z" class="C"></path><path d="M759 477l3 6c5 15 8 30 8 46 1 32-6 65-20 95-8 16-18 31-30 45-7 9-14 17-22 24-7 6-15 11-23 16-5 3-10 6-16 8l15-12 2-2c28-25 46-60 53-97 1-8 2-16 2-24 7 4 14 9 21 10l-21-13h-1v-8l-2-17-7-38 38-39z" class="B"></path><path d="M748 508l1 1c4 7 6 15 6 23 1 15 0 29-3 44v2c-1-5 0-12 0-17l-1-17c0-7-1-13-2-20-1-5-2-11-1-16z" class="C"></path><path d="M451 611c-10 9-18 16-24 28-5 12-8 27-3 40s17 22 30 28c-4-10-7-19-9-29 2 1 4 5 5 7 5 7 10 13 16 18v44s-2 1-3 2l-8 4a53.56 53.56 0 0 0-15 15c-13 19-12 47-7 68 1 9 5 17 6 25l-2 4c-9 12-21 20-37 22 8-3 14-7 20-13 3-3 6-7 7-11 1-5 0-12 0-17-4 12-12 21-24 26-10 6-22 9-34 5-8-3-12-8-16-16 3 3 6 7 10 9 9 3 20 2 28-1s16-9 20-15c3-4 4-8 6-13-2 1-3 2-5 3-7 2-15 3-22 3 7-3 15-6 22-11 6-4 8-10 11-17l2-10-4 7c-2 4-7 6-12 7h-1c-6 1-14 2-20 1-13-1-29-4-40-12-3-2-6-5-9-8l7 4c5 3 11 4 16 5 15 3 31 1 45-3-5-2-11-4-17-5l-31-6c12-1 23-2 34-5 18-5 28-22 36-38 1-3 2-7 5-9h1c0-1 0-1-1-2s-1-2-1-4c0-4 0-9 3-12 5-5 13-5 20-5-7-6-14-9-21-14a57.31 57.31 0 0 1-11-11c-10-13-16-28-13-44 0-4 2-8 2-12-5 10-7 21-5 33 2 15 13 29 25 37 4 3 8 4 11 7l-12-3c-4-2-7-4-10-6-9-5-19-13-23-22-5-12-3-26 2-38 9-22 29-32 50-40z" class="B"></path><path d="M445 733c1-1 3-1 4 0 2 0 4 2 4 3 1 2 2 4 1 5-1 3-2 4-4 5h-3c-2 0-4-2-6-4-1-2-1-3 0-6 1-1 2-2 4-3z" class="C"></path><path d="M648 411l2-1c0 3-2 8-2 11l-6 25c-1 5-1 9-2 14-2 16 0 33 2 49 2 14 5 29 10 43 3 10 7 20 12 29 4 10 9 19 15 28 1-1-3-6-4-8-2-4-5-9-7-14-2-6-15-38-14-43l3-1 1 1c1 0 2 7 2 8 4 15 9 29 16 43 6 12 13 22 20 33-1 2-3 4-4 7-8 13-17 24-29 34-8 8-17 15-28 20-7 3-14 6-22 8 6-16 21-21 33-32 10-9 14-19 15-32-4 4-7 6-11 9 2-3 3-5 4-8 5-22-8-49-19-67-6-8-13-16-18-25-9-16-13-33-15-52-2-13-2-27 2-40 2-7 4-16 9-21 2-2 5-3 8-4l11-5 16-9z" class="B"></path><path d="M633 451v5l-1 10v11c0 9 2 19 4 28l3 17v-1c-2-4-3-8-4-12-5-18-8-40-2-58zm24 150c9 10 13 23 18 35 3-8 2-14-1-22 3 4 5 9 7 14h0c1 10-4 17-10 24v-7c0-3-1-6-1-8-3-13-8-25-13-36zm-33-166c-2 8-4 15-5 23-2 20-1 42 6 60 4 9 9 17 13 25l16 29-3-2c-8-7-14-14-20-22-10-16-16-35-18-54-3-19-1-43 11-59z" class="C"></path><path d="M823 486c1 2 3 14 4 17l9 34c2 6 5 12 8 18s8 11 14 14l9 3c-11 1-18-1-27-7l1 3c6 15 8 30 2 44-1-1-1 0 0-1 2-15-6-31-14-44-2 13-3 26 0 39 3 14 10 26 22 34 11 7 24 8 36 5-7 5-14 7-22 7-10 1-21-4-28-11-18-18-17-47-18-71-1 6-1 13-1 19-1 13 1 26 2 39 3 27 7 59-12 81 5-11 9-23 6-36-2-7-5-13-6-20-3 22-10 41-27 56 15-23 15-48 17-75-2 5-3 10-4 14l-6 15c-6 18-17 35-21 54-2 5-3 12-1 18 1 3 3 6 4 8-6-5-9-9-12-17l-4 12c-2 13-2 27 2 39 2 6 6 11 9 16-5-4-10-10-13-16-5-9-7-18-7-28 0-12 5-25 8-37l-36 54c3-8 5-17 9-24 3-5 7-11 9-16l-11 13c-9 10-27 27-28 41 0 4 2 7 5 10-1 0-3-1-4-2-3-2-5-6-6-9-1-8 3-15 7-21-9 5-17 12-25 19l-24 21 20-28-14 8c-11 6-25 18-28 32-1 5-1 9 2 14 1 2 4 4 7 4 8 1 15-3 21-8-2 3-4 5-6 7-6 5-13 8-20 8-5-1-8-2-11-6 1 3 2 7 4 10 2 4 5 7 7 10l-6-3c-17-11-11-32-10-49 0-8-1-15-2-23 3 1 6 2 10 2 10 1 22-3 29-10 2-2 4-6 6-7 1-1 3-1 4-1l12-3c20-6 39-16 55-30 7-5 13-12 19-19 7-9 13-17 19-27 18-28 31-61 40-93 5-14 9-29 12-44 2-12 3-25 4-37 0-6-1-12 0-18v-1z" class="B"></path><path d="M810 611c1 3 1 7 1 10l3 19c0 5 1 9 1 14-5-14-7-28-5-43z" class="C"></path><path d="M790 399c4 7 7 14 10 21 7 13 11 27 14 42 2 14 2 28 2 42-2 37-12 72-25 107-11 29-27 57-46 82-7 9-14 18-22 26-12 10-25 18-38 24-14 6-30 10-46 11-9 0-16 0-25-4l-5-2c-5-3-8-6-10-12 14 1 27 1 40-3 8-2 16-5 23-9 16-7 29-14 42-26 21-18 39-43 51-68l12-30c6-19 11-36 12-56 0-10-1-21-2-31-2-10-3-19-7-29-1-4-3-9-6-12h0c1-3 3-5 4-8l6-11c8-17 13-36 16-54z" class="B"></path><path d="M669 740h2l1 1-1 1c-3 2-6 2-9 3h-2c1-2 7-4 9-5zm-12-5c1 0 1-1 1 0 1 3-1 4-2 6-2 2-3 3-6 3-1 0-2 0-2-1s0-3 1-4c1-3 5-3 8-4zm133-159h2l1 1c1 2 1 3 0 5s-2 4-4 5h-3c-1-2-1-3-1-5 0-3 3-5 5-6zm-88 139h4c1 1 2 2 2 3-1 3-4 5-7 6-1 1-2 1-4 0-1-1-1-1-1-3 1-3 3-5 6-6zm26-24h1c2 1 2 1 3 2 0 2 0 4-1 5-2 3-4 5-7 5-2 0-2 0-4-1v-5c2-3 5-4 8-6zm71-180h1c2 1 3 2 4 4 1 1 0 4 0 5-1 2-2 3-4 4h-2c-2 0-3-2-4-3-1-2 0-5 0-7 1-1 3-2 5-3zm-46 151h1l1 1c-1 4-3 8-6 12-1 2-3 3-5 3-1 0-1 0-2-1 0-1-1-2 0-3 2-6 6-9 11-12zm-73 64c1 0 2-1 3 0 1 0 3 2 3 4 1 1 0 3-1 5-1 1-2 2-4 3-1 0-2 0-3-1-2-1-3-2-3-3-1-2-1-3 0-5s3-3 5-3zm87-110c0 3-2 6-3 8-1 4-4 9-5 14 0 2 0 3 1 5h1c6-2 12-11 15-17 1-2 2-5 4-6l-1 2c-3 7-9 19-16 23-1 1-2 1-3 1-2-1-2-2-3-3s0-3 0-5c2-7 6-15 10-22zm11-17h1c3 0 4 1 6 2 1 2 0 3 0 5-1 3-2 5-5 6-1 1-2 1-3 0-1 0-3-1-3-2-1-2-1-4 0-6 1-3 2-4 4-5zm11-70c3 11 3 24 5 35 5-10 7-21 10-31v3c-1 8-2 14-4 21-1 3-1 6-3 9-1 1-2 1-3 1-2 1-3 0-4-2-1-1-1-4-2-6-1-10 0-20 1-30zm9-91c4 5 6 13 8 19 1 6 1 15-3 20-1 2-1 2-3 2-2 2-1 10-1 13 0 5-2 12-6 16-2 1-4 1-5 1-2 0-3-1-4-3-6-9-4-24-2-35l3 21v1c1 3 2 6 5 7 1 0 2-1 3-2 7-10 0-27-2-37l-3-19c1 2 2 5 3 8 1 6 3 12 5 17 1 1 2 3 3 3s1 0 2-1c4-6-1-24-3-31z" class="C"></path><path d="M323 77h0c6-2 23 12 28 16l11 7c18 10 36 19 56 23 7 1 14 1 22 1s16-1 24-3c13-3 25-12 32-23 2-3 4-7 6-10-3 10-7 19-14 27-11 14-26 17-43 18l11 1c11 1 22-3 34-5 22-4 51-4 68-20 6-6 11-13 12-21 1-3 1-7 1-10 2 10 2 21-4 31-12 19-38 23-59 28l-19 4c-1 1-1 1-2 1l34-6c19-2 37-5 56-2 11 2 21 5 31 8 17 5 34 11 53 11 18 1 31-6 44-19-5 10-14 18-24 23-22 11-48 1-70-6 4 3 10 6 14 8l21 12c18 10 37 21 56 30 16 8 34 12 50 6 9-3 16-9 21-17 2-3 4-7 5-10v2c-2 12-7 22-17 30-6 4-13 7-21 7-3 0-6 0-9-1 10 6 21 8 33 7h1l4-1c11-3 19-12 24-22 0 4-1 7-3 10-4 9-10 16-19 19-10 4-22 4-32 1-5-2-10-4-14-6l21 17c7 5 13 11 21 15 17 10 36 15 55 12-13 7-27 7-41 4 4 4 8 7 12 10 15 13 29 28 40 44-11-11-25-20-39-29l-9-5c-3-1-5-2-7-3v-4h0l-17 5-5-9c-10-16-22-30-35-42-29-27-63-49-96-69-12-7-22-14-34-19-10-5-21-7-31-9-15-2-33-2-48 0-6 1-13 3-19 4-7 0-14-2-21-3l-25-4-20-5c4 2 7 3 11 5 7 3 14 7 20 12 21 17 30 45 45 66 5 7 11 12 17 17l1 2c4 4 7 8 6 15 0 3-2 6-4 8-5 4-14 3-20 2l-26-6 19-3h0c-8-4-20-1-28-2-5 0-10 0-15-1 5-1 9-1 14-3 7-2 12-6 17-11 2 2 4 5 7 7s7 3 10 5c1 1 3 1 3 3 1 1 0 2 1 3 6 1 7 0 11-4 0-1 1-2 2-2h2c1-3-1-5-3-8-4-4-10-7-15-9s-9-5-12-9c-2-3-3-7-4-11-2-5-4-11-6-16-8-17-20-28-35-38-9-7-19-13-30-16l18 11c20 15 42 34 46 59 2 9 2 17-3 24-10 12-32 11-46 13-10 2-22 4-31 9-16 8-29 24-39 38l-14-3c16-7 25-24 38-35 6-5 14-6 20-10-5 1-10 1-14 3-11 5-18 14-26 22l-19 20c-5-1-11-3-16-5l-26-10c3 15 3 30 2 44-1 5-1 11-2 16-3 2-7 3-10 4l-23 7c11-1 22-2 32-4v8c-10 1-19 1-29 2-9 1-17 2-26 4 4 1 8 0 12 0 14-1 29-1 42 3l-1 9c-8 1-16 3-23 5-10 4-19 10-28 14-6 3-12 6-18 8 14-1 26-9 39-15 10-4 19-5 30-4l-5 49-18 16c-12 11-26 24-42 26-6 0-12 0-16-4-6-5-8-11-9-19-7 5-14 6-22 5-6-2-14-4-19-8-3-2-5-4-8-5-8-4-15-7-20-14-1-2-2-6-1-8 2-2 5-4 8-6l15-13c16-16 31-33 47-49 8-9 17-18 24-27 2-3 3-6 4-10-1-2-3-4-5-5-7-7-16-9-27-8 6-3 10-4 16-5l-5-4c-11-9-26-8-40-6 5-2 10-4 15-4 14-2 26 0 37 8v-1c-1-17-7-29-19-39 3 1 5 3 7 5 10 6 16 16 19 27 1 7 1 14 2 21 1-4 1-7 2-11l3-19c7-34 27-61 54-81l17-11c4-3 10-6 14-9 7-7-6-45-8-54-2-7-3-14-3-21 0-6 1-14 6-18z" class="B"></path><path d="M238 431h5l2 2-1 2h-2c-2 0-3-1-4-3v-1zm-13 7h1c2-1 6 2 8 3l-1 1c-1 1-2 1-4 0-2 0-3-1-4-2v-2zm59-143h2 0c1 1 1 3 1 4-1 2-1 2-2 2h-2c-1-1-1-1-1-2 0-2 0-3 2-4zm-15 112c1-1 2-1 3 0 0 3-1 7-3 10l-1-1c-1-3-3-5-5-8l6-1zm-14 4h2c4 2 6 5 9 9h0l-3 1c-3-2-6-6-9-8l-1-1h-1c1-1 2-1 3-1zm31-177h0c-1 3-2 6-4 9-3 7-5 13-9 19v-1c-1-9 7-21 13-27zm-44 182h2c6-1 11 4 15 8l-4 4-3 1c-2-1-2-3-2-4s0-2 1-2c-1-4-4-4-7-5-1 0-2 0-3-1l1-1zm51-125c1 0 1 0 2 1 0 3 1 5 0 7v1c0 2 0 3-1 4-1 4-3 7-7 9-4 1-7 0-11-1-2-1-3-3-4-4 3 1 9 3 11 1h1c2-1 4-2 5-4 5-4 4-8 4-14zm-57 93h1c-3 2-6 4-9 5l-20 10-18 12v1-1c12-14 29-20 46-27zm-75 39c4 0 10 0 14 2 1 1 3 2 4 4 0 4-2 8-4 11l-2 1h0v-5c-2-7-9-9-14-12l2-1zm138-112h0c0 2-2 4-3 6-3 3-7 5-11 6-5 0-10 0-13 2-5 3-9 8-12 12h0c3-7 8-15 15-17 2-1 5-1 8-1 7-1 11-3 16-8zm62-94h4c-1 1-4 1-5 1-14 3-29 9-42 15l-3 2h-1c4-4 8-7 13-10 10-6 22-7 34-8zm59-47h0c2 5 2 12 2 17-1 6-4 11-9 14-8 6-20 7-31 5h-2c9-1 19-1 27-6 5-2 10-7 11-13h1c1-6 1-12 1-17zM272 423c1 0 1-1 1 0l-1 1-16 11c-8 6-18 13-27 16-3 0-5 1-7 1-3-1-4-3-5-5l-1-2c0-1 2-3 4-4 1 2 3 5 5 5 2 1 4 1 6 0 4-1 8-3 11-5l30-18zm-9-27v1c-8 7-20 12-30 14-6 2-12 2-18 3-7 2-12 5-18 9v-1c11-14 25-12 40-16 9-2 17-6 26-10zm174-219c2 3 3 9 3 12 1 7 0 16-4 21-5 6-12 8-19 9h-15-2c1-1 4-1 6-2 8-1 17-2 24-8 10-9 6-20 7-32h0zm-83 17h1c-1 2-4 3-6 3l-10 6c-19 11-35 23-49 39v1-1c10-17 27-32 45-41 6-3 13-5 19-7zm-16-17h1c-4 3-9 5-13 7-10 5-20 12-28 20-7 6-14 13-19 20-16 22-21 46-24 72-1 11-2 23-6 33-4 7-9 12-14 17l-1 1h0c4-7 9-13 11-21 3-8 3-18 4-27 1-17 3-34 9-50 15-33 47-58 80-72zm-10-92l4 3c9 8 18 16 26 25 10 10 18 22 27 33l12 17c3 4 7 10 8 16 0 2-1 3-2 5-3 0-7-3-9-5-8-7-15-15-21-24l-9-14c-3-5-15-29-18-31l1 2 15 40c7 17 21 32 36 43-21-4-36-24-43-43-3-9-5-20-8-29-5-14-11-26-19-38zm129 107l1 1c3 4 3 15 2 20-6 26-40 23-60 28-5 1-11 3-16 5-18 10-28 29-46 39 3-4 7-7 11-11 4-5 7-10 10-15l-31 13c7-6 11-13 16-20-4 3-7 6-11 8-8 5-17 8-26 11 3-2 5-3 8-5-13 1-25 6-36 14-7 6-12 13-17 21 2-8 5-14 10-21 4-5 8-9 12-13s7-8 12-11c9-8 22-14 34-16 0 1-2 1-3 2-3 1-5 2-8 4-4 3-7 7-11 10 9-4 17-6 26-9 9-2 18-4 27-5-3 3-6 6-9 10 5-2 10-3 14-5 8-3 16-7 25-10 16-4 34-3 49-11 3-1 7-3 10-6 8-8 7-17 7-28z" class="C"></path><path d="M319 299c16 6 33 9 50 11 29 3 59 3 88 3h122l80-1c34 0 69 0 102-9-3 14-6 26-9 39l-16 74-3 13c-1 3-1 6-3 9-2 2-3 3-5 3-4 0-8-1-9-5-3-3-2-10-3-14-4-17-15-33-29-44-20-16-51-25-77-22-10 2-16 4-23 11-11 11-17 27-20 43-4 24-3 50-3 75l1 83 2 226c1 25 2 55 15 78 1 2 3 4 5 6 3 3 8 7 9 10 0 2 0 4-1 5-1 2-4 3-6 3-3-1-7-3-9-5-4-2-7-3-10-4-11-4-22-7-33-9-27-5-53-2-79 8l-10 5c-3 1-7 4-10 4-2 0-3 0-5-1-1-2-2-3-3-5 0-3 1-6 3-8s5-3 8-4c5-3 10-8 14-13 12-16 17-40 19-60 4-26 4-52 4-78V600l1-87v-56c0-13 0-26-2-39-3-20-10-42-26-54-14-10-34-10-50-8-32 6-57 24-69 55-1 3-3 7-4 11 0 3-1 7-3 9-2 3-5 4-8 5-3 0-5 0-7-2s-3-6-2-8c0-5 1-10 2-15l3-20c5-31 9-61 9-92z" class="B"></path></svg>