<svg xmlns="http://www.w3.org/2000/svg" xmlns:v="https://vecta.io/nano" viewBox="146 66 692 872"><!--oldViewBox="0 0 1023 1024"--><style>.B{fill:#0a0a09}.C{fill:#f0eeeb}.D{fill:#f4f2f1}.E{fill:#f9f7f5}.F{fill:#1c1b1b}</style><path d="M491 666c-1 4-3 9-5 12-4 5-10 8-16 9h0c2-2 5-2 7-4 6-4 10-11 14-17zm-24-2v1c-3 5-7 10-12 14-8 6-18 10-28 8h-1v-1c18-1 28-10 41-22zm19 115h1c2 1 2 1 3 3 0 1-1 2-1 3-3 6-11 7-16 8l-2 1v-1c4-5 9-12 15-14z" class="B"></path><path d="M483 749l1-1c1 0 1-1 2-2h1 1v-1h1 1l1 1c-1 2-2 3-2 4l-2 2-9 10c-1 1-3 2-5 3l-2 1-1 1c-1 1-1 1-2 1v1c-1 0-2 0-2 1h-2 0l-1 1h-1c-2 1-4 2-5 3h-1-1 0-1l1-2h-1-2c0-3 4-5 6-8 1-2 5-4 6-6 1-3 4-5 6-7l2-1v-1l1-1 12-12c2-2 4-4 6-5l1-1 1-1 1 1c-6 2-35 34-42 42 3-2 4-3 6-5 0 1 1 2 0 3l-2 2v1c14-6 27-14 34-28l-7 4z" class="D"></path><path d="M607 748h0c-6 9-13 14-23 18v-10c8-2 15-5 23-8zm-124 1l7-4c-7 14-20 22-34 28v-1l2-2 25-21zm-25 18c-2 2-3 3-6 5 7-8 36-40 42-42 0 4-1 6-4 9l-32 28zm36-132v1c1 16-5 28-15 39-9 9-17 12-29 12h-1c2-1 4-1 6-2 2 0 5-1 7-2 12-7 24-20 28-33 2-5 3-10 4-15zm121 80h3v1c-2 3-9 6-12 9-3 1-4 3-6 5 10-2 16-5 24-11v3c-5 13-19 20-31 26l-9 3v-8c8-2 14-3 20-8l-20 3v-14c4 0 8 1 12-1h1c6-2 12-6 18-8zm-33-324c16-1 31 4 44 14 6 5 11 11 17 16 6 6 13 10 19 14-3 0-5-2-8-3l-11-6c-8-5-16-11-25-14-12-5-25-4-38-2-7 1-13 3-19 5h-1c1-4 2-9 4-13 5-7 10-10 18-11zm95 253c0 2-3 5-3 6-7 10-14 20-21 29-3 5-7 9-10 13-2 4-2 10-4 15-8 32-27 58-55 74v-8-3h1c17-10 30-22 39-40 3-6 5-12 9-18 2-5 4-9 5-14l-2 2c-8 5-19 8-28 12l-13 6c-2 0-4 2-6 1-1-1-2-1-2-2 2-4 7-6 11-8 5-2 11-4 16-7 2-1 5-2 7-4-5 2-10 4-15 5-7 3-15 5-22 6v-8s-1-2 0-2c0-1 7-2 8-2 20-4 39-12 55-25 11-8 20-18 30-28zm9-197h2l61 144-52-8v-2c-1-29-12-62-33-82-24-21-54-22-84-21v4c-2 21-1 43-1 64v108 113 36c1 16 1 32 3 47 1 14 4 30 13 41 8 9 22 11 34 12v12H447c1-3 0-6 1-10 0 0-1-2 0-2 0-1 2-1 3-1 14-1 26-6 36-17 6-10 9-22 10-35 3-21 2-42 2-63v-93-131l-1-85h-35c-23 0-47 8-63 24-15 16-23 41-25 63-1 6-1 12-1 18-17 1-33 4-50 7l63-142c1-1 3 0 5 1l12 2c14 2 29 3 43 4h95 56c15 0 30 0 45-1s29-3 43-7zM557 69c2 0 3 0 4 1 3 1 4 4 5 7 2 5 3 11 4 17l5 34 8 43c1-7-2-17-3-25l-5-22c4-10 10-18 16-25 5-5 12-12 19-12 2 0 3 0 4 1 1 2 2 4 2 6 0 8-2 15-3 23-2 14-4 29-4 43l-1 15v5s2 2 3 2l11 8 22 16c7 6 13 12 18 18 14 15 26 34 28 54 1 5 0 9 0 14l6-18c0 9-3 18-2 27 0 3 2 6 3 8 3 7 8 12 13 17 8 8 16 15 25 22 14 11 27 23 43 32 6 3 13 7 20 9l16 6c2 0 5 2 6 4 1 4-1 8-3 12-3 7-7 13-11 20-4 8-9 17-18 22-2 1-5 2-7 3-2 0-5 0-7 1-3 2-6 5-9 8l-12 6 2 8c-2-2-4-5-6-8-2 0-4 0-5 2l-1 6c-1-2-2-5-5-6-1 0-2-1-4 0 0 2-1 5-3 6-1-2 0-4 0-6l-27-4c-2-3-3-7-5-10l5 2c15 5 37 7 52 0-11 1-23 1-34-1s-21-8-28-18l6-3c1-1 2-1 2-3l-1-1c-3-2-7-2-10-3-6-2-11-4-18-3v1c1 2 3 3 4 5-23-15-41-37-68-47-12-4-30-7-42-1-11 5-16 14-21 24-6 11-10 23-15 35 2-2 4-3 6-6 3-4 12-23 16-24 1 1 0 3-1 5l-5 11c-2 3-2 6-3 8 5-3 9-8 13-14 2-2 3-6 6-7 1-1 0-1 1-1 0 6-4 12-6 17 5-3 9-7 12-11 2-3 3-7 6-8 0-1 0 0 1 0 1 5-4 12-7 16 6-3 10-6 13-11 1-2 2-4 4-5 1-2 2-1 3-1h1c-2 5-5 9-7 13 3-1 7-4 9-7 2-2 5-6 7-7h2l-4 11 2-1c4-2 6-6 10-8 1-1 3 0 4 0 0 0 1 0 0 1l-1 1c-1 2-3 3-3 6 2 0 5-2 7-3s4 0 6 0h0l-1 2h2c7 2 14 7 21 9 9 4 20 7 29 13-12 1-27-6-38-10-9-3-19-6-29-6-11 0-20 3-30 5l-22 6-26 9c1-4 1-8 3-12v-1l-18 8c-25 10-55 9-80-2-10-5-19-11-29-15-2 0-4 2-5 3l-8 5c-12 9-24 17-34 27l-12 12c-4 6-7 13-11 20-18 33-22 71-11 107 4 13 10 26 16 39 1 3 3 7 5 9 1 2 4 4 6 6 6 5 13 9 20 13 18 10 37 17 57 22 17 4 36 7 53 5 5-1 9-2 13-4v13c-1 1-8 1-11 3h1l10-1v16c-6 3-13 8-18 13-18 14-31 32-43 51 3 0 6-2 9-3 20-7 38-17 53-33l-1 19-9 3c-17 7-20 14-27 29l8-1 10-4c4-1 10-2 13-5 2-1 4-4 5-7v18l-44 10-6 1 6-20c-12 2-24 2-36 3-20 1-39 4-58 8 2-8 4-16 8-24-6-2-12-5-17-9-9-6-20-14-32-13-8 0-16 5-21 11-7 8-9 17-8 27v4c-3-8-4-16-4-24 1-14 8-24 17-34l-12-9c-7-5-13-12-21-16-3-2-6-3-9-3-12-1-16 8-24 15 2-4 4-8 7-12 6-9 15-16 26-18-15-12-31-28-51-32-16-4-29 4-42 12 2-3 4-6 6-8 9-9 19-17 31-19 5-1 9-1 14-2-6-4-12-9-20-12-5-2-11-4-16-5l14-9c-6-10-12-21-20-29-6-6-13-11-21-10-10 0-18 9-25 16 7-14 14-26 28-33 11-5 22-5 33-1-1-3-3-5-4-7-6-12-9-25-12-38l-6-25c-2-17-3-37-15-50-7-9-15-10-26-11 14-7 28-11 44-8 11 3 17 10 23 20 0-11 1-22 2-32 2-17 5-34 12-49-5 0-9-1-14-2-15-4-27-16-34-29 10 9 20 14 34 15 11 0 19-1 28-7 2-1 5-2 6-4 3-4 10-4 14-6s9-4 13-6c7-5 15-11 21-18 17-19 27-44 41-66 4-6 9-11 13-16-2 1-5 3-7 5l-12 11c-5 4-10 9-15 13-14 10-31 15-47 20 11 0 21-4 31-7-3 2-8 4-11 8l-3 6c6-5 10-8 18-11-3 5-6 9-10 13l-15 15c-6 7-10 15-14 23 2 0 9-13 11-15 6-9 15-15 23-23 7-7 13-15 19-22-3 11-9 21-17 31-8 12-18 24-31 32-4 2-7 4-11 6s-8 3-11 6c-1 1-3 1-4 1l1-1c12-10 21-25 28-39l8-15c-15 1-28-2-41-7-6-2-12-4-17-8 8 1 16 3 24 4 28 2 54-14 76-31 7-6 16-14 24-18l1-1c-14-5-25-14-32-27l12 9c13 7 28 8 41 1 5-3 10-7 16-10 4-2 9-3 13-5-12-5-22-12-30-23 8 6 15 10 24 12 29 8 59-13 83-26-15-4-24-9-33-22 10 6 20 11 31 13s21 2 32 3l13-21c9-15 19-29 30-42 4-5 10-11 16-15 2-1 4-2 6-2z" class="B"></path><path d="M212 661h-12c5-2 11-3 16-3v1l-2 1-2 1zm419-397c5 1 10 3 14 7-1 0-1 0-2 1h-1c-1-2-8-5-10-6v-1c1 1 0 1 2 1v-1h-3v-1zm56 72c3 10 8 19 14 27l-11-10 1-1-1-1v-1c-1-1-1-1-1-2-1-1-1-1-1-2 0-2-1-5-2-7l1-3zM557 113c-2 1-2 3-3 5-2 5-4 9-5 14-2 6-5 12-6 19-1 1-1 1-1 2 0-7 3-15 6-21l4-14 6-12v6l-1 1zm179 327l6 6c-1 3-2 6-4 9-1 1-1 2-2 2h-1c-1-6 0-12 1-17z" class="E"></path><path d="M477 399c6 0 12 1 18 4 6 4 11 9 15 16v2h-1c-3-8-10-14-18-17-6-3-12-3-19-4h0 1c2-1 2-1 4-1h0zm186-166c5 7 7 19 9 28 1 5 2 11 2 16-4-3-9-37-11-44z" class="D"></path><path d="M725 353c0-1 0-2-1-2v-1h1l58 46c-1 0-3-1-4-1l-2-1c-5-5-12-9-18-14-12-8-24-17-34-27z" class="C"></path><path d="M559 93c-2 5-6 11-8 16-5 12-11 25-14 37v3h-1v-2c2-6 3-13 5-19 4-14 9-28 18-39h0l1 2c-1 1-1 1-1 2zm78 203l6 1c2 0 6 1 8 2 2 2 5 8 7 10-4 0-9 1-12 0s-7-11-9-13zm77 141c6 1 11 4 16 7 1 2 1 5 1 7-5 0-10-1-15-3-2-3-2-8-2-11z" class="E"></path><path d="M584 196c2 0 4 0 6 2 2 1 4 3 5 5 0 2 0 5-2 7-1 2-3 3-6 3h-5c-2-1-4-3-4-5-1-2-1-5 0-7s4-4 6-5z" class="C"></path><defs><linearGradient id="A" gradientUnits="userSpaceOnUse" x1="555.07" y1="163.197" x2="582.93" y2="115.803"><stop offset="0" stop-color="#d4d9d7"></stop><stop offset="1" stop-color="#f1e9ea"></stop></linearGradient></defs><path fill="url(#A)" d="M560 91v1l20 99c-1 0-1 0-1-1h0c-2-4-2-9-3-12l-9-38-6-38c-1-2-1-7-2-9 0-1 0-1 1-2z"></path><path d="M678 307c1 2 1 3 3 4h0c1-9 1-18 0-27-1-8-3-17-4-25 1 2 2 6 3 9 3 11 3 22 3 34 0 4-1 10 0 14 2 6 6 10 10 15-3-7-6-15-6-22 0-4 1-7 2-11 0-1 0-1 1-2v1c-2 8 0 20 3 28 2 5 4 9 5 13l5 14h0v1c1 1 0 1 1 2h-1c-4-6-6-13-10-20-2-3-5-6-7-10l-6-9c-1-2-3-3-4-4s0-2 0-3c1 0 1-1 2-2zm-233 57c14-1 32 3 44 9 5 3 9 6 12 10l3 3c-6-5-12-9-19-13-21-9-44-9-64-1 10 12 30 10 45 12 11 2 24 4 33 10 6 4 11 11 12 18 0 1 0 4-1 6 0-3 0-6-1-9-1-4-4-7-6-10-13-12-34-13-50-15-9 0-18-1-25-5-4-2-7-5-10-8 9-5 18-6 27-7zm255-41c2 0 22 23 25 27h-1v1c1 0 1 1 1 2 10 10 22 19 34 27 6 5 13 9 18 14l2 1c-9-2-16-7-23-11l-1-1-16-13c-6-4-11-10-16-15-3-4-7-8-9-12s-5-9-8-11c-1-1-1-1-2-1 0-2-2-6-4-7v-1z" class="E"></path><path d="M777 394h0c-6-3-10-6-15-10l-13-8c-9-6-18-14-26-23-3-3-6-6-8-10v-1c3 4 6 8 10 11 10 10 22 19 34 27 6 5 13 9 18 14z" class="F"></path><path d="M604 114c0 2 0 5-1 7v15 41l-10-7c-4-3-8-6-10-10 1 0 2 2 4 2l7 5c1 1 2 2 3 2v-2c-1-11 0-24 1-35l-12 25c2-15 11-30 18-43z" class="E"></path><path d="M472 160h2c-10 11-22 23-35 29-17 6-40 4-56-3l9 1c1 0 3 0 5 1h1c3 1 7 1 10 2 12 0 23-1 34-7 5-3 9-7 14-11-5 1-9 4-14 6-6 2-12 4-18 5-8 2-19 7-26 4 3 0 7 0 10-1 7-1 13-4 20-6 15-6 29-13 44-20z" class="D"></path><path d="M704 331c1 0 1 0 2 1 3 2 6 7 8 11s6 8 9 12c5 5 10 11 16 15l16 13 1 1c1 2 2 2 2 3h-1l-1-1v1c1 1 2 1 3 2h0c-6-1-11-3-16-6-6-3-12-7-16-11-5-4-8-9-11-15-4-8-9-17-12-26z" class="C"></path><path d="M706 332c3 2 6 7 8 11s6 8 9 12c5 5 10 11 16 15l16 13 1 1c1 2 2 2 2 3h-1l-1-1v1h0c-5-1-9-5-13-8-9-7-17-14-24-23-5-7-9-16-13-24z" class="F"></path><path d="M178 570c4-1 8 0 12 1 21 5 31 24 40 41-4-4-8-10-12-15-8-9-17-18-29-22-9-4-19-2-28 2 6 0 13 0 19 1 14 3 24 12 32 24l7 13c-3-3-6-6-8-9-5-7-10-13-16-17-3-3-7-4-11-6 12 10 20 23 23 38l-4-8c-6-12-18-29-32-33-8-2-14 0-21 4 8-9 16-13 28-14zm47-108c1 4 1 9 2 14 1 10 3 19 7 29s10 19 18 27c5 7 11 13 16 20 3 5 6 12 7 18 2 6 2 12 2 19-2-8-3-15-6-22-6-17-20-27-30-40-9-14-15-28-18-44-2 13-7 25-10 37-3 10-4 20-3 30 0 3 1 7 1 10 0 1 0 1 1 2v1h-1v-1c-2-6-2-13-3-19 0-8 1-16 2-24 3-20 11-38 15-57z" class="D"></path><path d="M703 352c0-3-1-8-2-10l-4-25 3 6v1l4 11c1 6 2 12 4 18 4 12 13 23 24 30 6 4 12 6 18 9 10 5 21 12 32 13h3v1c-1 3-2 4-2 7-8-6-17-11-27-15-8-3-16-5-24-7-6-2-13-4-19-7-12-5-22-16-32-24l14 5c3 0 6 1 8 3 3 1 5 4 8 6 2 2 4 3 7 4-6-6-9-11-13-18 0-1-2-3-2-5h1c-1-1 0-1-1-2v-1h0zm-286 70c-6 0-10-2-15-5v-1c-6 5-12 9-18 13-9 8-18 15-27 24 3-5 6-9 10-13 8-10 17-20 23-32 3-7 5-16 6-24 1-5 1-10 3-14v8c-1 9 1 18 6 25 0 1 2 5 3 5s3 0 4-1c5-1 11-4 17-5 11-3 22-4 34-4 5 0 10 0 14 1h0c-2 0-2 0-4 1h-1 0c-17 0-33 1-50 8-3 1-7 3-9 5l-1 1c2 2 4 5 5 8h0z" class="C"></path><path d="M398 395c2 6 4 11 3 17-1 4-13 10-16 13h-1-1c3-4 6-8 8-12 3-5 5-11 7-18z" class="B"></path><path d="M583 168c7 5 13 10 19 14 8 5 16 10 22 15 9 8 13 18 17 28l8 20c-8-7-18-15-28-19-5-2-11-4-17-5l-8-2c4-3 6-6 10-9h0v2c0 2-1 3-3 5v1c4 1 9 1 14 3 8 2 15 8 22 12-6-8-13-14-20-21-10-10-22-21-29-33v-1c-3-3-5-6-7-10z" class="D"></path><path d="M591 179h1c1 0 2 2 3 2l8 5c9 6 18 11 24 19 8 9 12 20 16 31-3-3-5-7-7-11-3-3-5-6-8-10-9-9-19-17-28-26-3-3-6-7-9-10z" class="B"></path><path d="M317 645h2c2 0 4 1 5 2 5 4 9 8 13 12 8 8 17 14 25 22l11 12c2 3 4 5 6 7 1 2 1 3 1 5-1 1-1 2-3 2-5 1-10 2-15 2-2-2-4-5-5-8l-11-15c-3-5-6-9-10-13-4-5-8-9-13-14-2-2-6-4-8-7-1-1-1-4-1-5 1-1 2-2 3-2z" class="C"></path><path d="M338 665c6 4 30 29 31 35l-1 1-4 2c-7-14-17-25-26-38z" class="B"></path><path d="M686 339c-2-5-4-11-8-15-3-4-6-7-9-12-2-5-2-11-6-15-2-3-6-5-9-7-5-3-10-5-15-6-7-2-14-2-21-2l-29-2c-10-1-19-3-28-5 10-1 20-2 30-5 6-2 12-5 19-7h1c6-2 13-1 20 1v1h3v1c-2 0-1 0-2-1v1c2 1 9 4 10 6h1c1-1 1-1 2-1 11 7 23 18 26 31 0 3 0 6 1 9 2 4 6 7 9 11 3 5 4 10 6 14l-1 3z" class="D"></path><path d="M642 272c-12-4-24-6-37-5 9-4 17-3 27-1 2 1 9 4 10 6zm-34-2c16-2 30 2 44 11l-11-4c-9-2-17-5-26-5h-21l14-2zm-10 5h13c12 0 22 2 33 6 5 2 11 4 15 8l-11-5c-12-3-24-5-36-6-10 0-20 0-30-1 5-1 11-1 16-2z" class="B"></path><path d="M581 287c5 2 10 5 15 7 6 2 12 2 18 5 5 4 9 9 14 13 4 4 9 7 14 9 7 3 14 0 21 2 3 0 6 2 9 3 8 5 10 13 16 20 0 1 0 1 1 2 0 1 0 1 1 2v1l1 1-1 1c-6-5-9-12-16-14h-1c-6-2-12-1-18-1-7 0-14 0-21-2-25-8-31-37-54-48l1-1z" class="D"></path><path d="M622 315c-4-4-8-9-12-13-2-2-5-3-7-5 10 4 15 10 22 17l-3 1z" class="F"></path><path d="M625 314c6 5 12 10 20 11 6 1 12-1 18 0 4 1 8 3 11 6h0l-12-3h-15c-11-1-18-6-25-13l3-1z" class="B"></path><defs><linearGradient id="B" gradientUnits="userSpaceOnUse" x1="635.069" y1="333.64" x2="636.312" y2="302.823"><stop offset="0"></stop><stop offset="1" stop-color="#363332"></stop></linearGradient></defs><path fill="url(#B)" d="M674 331l3 3c-3-1-7-1-11-1-5 1-11 2-17 2-12 1-26-8-34-17-5-7-10-14-17-20 2 1 5 2 7 3 6 5 10 11 16 17 5 5 11 10 18 12 12 3 24 0 35 2h1l-1-1h0z"></path><path d="M557 113l1-1 8 49c1 6 3 13 3 19h-1v-1l-2-11-4-21c-1-4-1-9-3-13h-4c-1 1-2 4-2 6-1 3-2 7 0 10 1 1 2 1 3 0 1 0 3-2 4-2v1c0 4 1 8 2 13 0 2-1 6-1 8-1 3-1 5-1 8 0 5-1 11 0 16 0 5 2 10 1 15 0 3-2 6-4 9-3 4-6 8-10 10-3 0-4 0-6-2-4-2-6-7-7-12s1-10 4-14c1-2 3-3 3-5 1-2 1-4 1-6 0-3 0-6 1-10 1-9 4-17 6-26l5-26h1 2c1-1 1-1 1-2 0-4 0-8-1-12z" class="D"></path><path d="M554 156l1-1c1 1 2 1 2 2 2 3 3 8 2 11-1 2-2 4-4 5-2 0-3 0-4-1-2-2-2-3-2-5 0-4 2-8 5-11zm-4 24c2-1 3-1 4 0 2 1 3 3 3 5 1 2 0 5-1 7-1 1-3 2-5 2h-2c-2 0-3-1-4-3s-1-4 0-6 3-4 5-5zm-2 20h3c1 0 3 1 4 2 1 2 2 6 2 8-1 5-4 8-7 11h-3c-1 0-2-1-4-3-1-2-2-6-1-9s3-7 6-9z" class="B"></path><path d="M379 734c3 0 7 0 10 1 5 1 14 6 17 10-2 2-7 2-9 3-3 1-5 2-8 4-7 4-12 12-19 16-2 1-3 2-5 2-5-1-10-5-15-7-7-4-14-8-21-10-12-2-21-1-30 5-4 3-8 7-10 10-2 2-2 4-4 6 2-7 7-18 13-23-1 4-5 8-7 12 2-3 4-5 7-7 14-12 32-9 49-13 11-2 21-8 32-9z" class="D"></path><path d="M330 749c8-1 14 2 22 4 9 3 17 2 25 0l-5 6c-2 2-4 3-6 4-2 0-5 0-7-1-7-2-14-6-21-9-3-1-8-2-12-4h4zm47-10c8-1 14 1 22 3-8 2-14 5-21 8-3 1-7 1-11 2-7 0-14-2-22-4 11-4 21-8 32-9z" class="B"></path><path d="M580 288h0c-11-4-24-6-36-5l-21 2c-12 1-23 0-35 2-11 1-22 5-32 9 4-3 9-7 13-9 25-15 52-20 80-23-2-1-7-1-10-1-10 1-20 1-31-1-5-1-10-2-15-5-6-4-11-11-16-17 8 3 16 6 25 8 11 3 23 4 34 6l57 7-56 8c-14 2-27 5-41 9-5 1-10 3-14 5 7-1 14-1 21-2 16-1 32-3 49-1 10 1 19 4 29 7l-1 1z" class="C"></path><path d="M497 251l30 8c-7 1-21 0-27-4-2-1-2-2-3-4z" class="B"></path><path d="M435 342h0c28-3 55 8 78 25 4 2 7 6 11 9 6 6 12 12 13 20v1c0 2 1 5 1 7-1 10-5 20-12 27-13 12-34 16-51 16l-15-1-1-1h1c6 1 11 1 16 0h1c12-1 30-6 38-16 6-6 10-14 9-24-1-14-11-29-22-38s-26-16-41-17h-19c-5 0-11-2-17-2-8 0-15 1-23 2 10-4 22-7 33-8z" class="D"></path><path d="M417 422c7-3 14-6 22-8 11-3 24-4 36-4 6 1 13 1 19 4s9 7 12 13c-7 8-16 11-26 12-20 3-43-1-58-13-2-1-4-3-5-4h0z" class="E"></path><path d="M273 705c7 0 13 2 19 3l34 5c15 2 30 1 46 3 4 0 9 1 14 3 10 4 20 12 25 23l-6-6c-4-5-9-7-15-9-7-1-16-1-24 0-10 1-20 6-31 8-20 3-34-6-50-17-5-2-9-6-14-8-7-3-14-1-21 2 6-6 16-6 23-7z" class="C"></path><path d="M271 708c7 0 13 2 19 3l21 4 19 3c3 0 7 0 9 1l-2 1-16 2c-6 1-13 1-19 0-5-1-10-4-14-6-5-3-10-6-16-8h-1z" class="B"></path><path d="M163 432c8 0 15 2 21 6 7 5 14 14 16 22v1c1 10 1 20 1 30 0 24-2 47 5 70-2-2-3-4-4-7l-10-21c-3-7-5-14-7-20-2-9-4-17-5-25s-2-17-5-25c-5-13-11-23-24-29h0c4-2 8-2 12-2z" class="D"></path><path d="M168 435c6 3 11 4 15 9 15 15 14 51 14 71l-8-50c-3-14-10-22-21-30zm-3 3l2 1 6 3c4 4 7 9 9 13 5 13 6 28 8 41 2 7 4 14 5 21 1 5 2 11 2 16-5-12-9-24-11-37-3-16-3-34-12-49-3-4-6-6-9-9z" class="B"></path><path d="M676 309v-3c-1-10-5-21-11-29-2-2-4-3-6-5-15-11-35-18-53-20-14-2-35 0-47-10-2-2-5-5-6-8 0-3 2-5 4-7 10-10 21-8 33-8-11 4-21 7-30 14 13-1 26-5 40-4s26 7 38 15c5 4 10 8 14 13 4 6 7 13 12 18l-8-22c-3-11-5-23-7-35 3 5 4 11 5 16l6 18c2 6 4 11 6 17 3 5 6 10 8 16 2 7 3 15 4 22-1 1-1 2-2 2z" class="C"></path><path d="M587 234c5-1 11-1 17 0 20 3 36 13 48 30l-17-8c-10-5-21-10-32-12-14-3-28 0-41-7l25-3z" class="B"></path><path d="M486 298c2-1 5-1 7-1l18 1c-11 12-17 26-15 43-7-5-14-9-22-11-25-8-53-3-75 9-4 3-9 5-12 8-4 3-8 7-12 9l18-17c27-23 57-38 93-41z" class="C"></path><path d="M488 302h14c0 2-4 8-5 10-3 7-5 14-6 22v-1c-17-12-40-12-59-9-8 1-15 4-23 6 3-3 8-5 11-7 21-12 44-20 68-21z" class="B"></path><path d="M699 385h1c2 0 4 2 5 3 5 2 9 5 14 7s10 3 15 5l19 6 12 3c5 2 11 3 14 8 3 3 3 7 1 11-1 1-2 3-2 4s0 2 1 2c3 4 5 3 10 3-4 6-8 10-16 11h0c-4 1-9 1-13 0-5 0-10-2-15-4-3-2-5-4-7-8-1-1-2-3-3-4-3 0-5 0-8-1-8-3-10-8-13-15 2 2 5 7 8 8 2 1 2 1 4 0 1-2 1-3 0-5-1-3-4-4-6-6-4-2-8-4-11-6-7-5-9-10-11-18 4 5 5 11 10 14 2 1 5 3 7 2v-1c1-2 1-5 0-6-1-2-3-3-4-4-4-3-9-6-12-9z" class="D"></path><path d="M768 437c2 0 3 0 4 1l2 2c-2 3-4 3-7 4-2 0-4 0-6-1h0c2-3 4-5 7-6zm-11-25c3-1 5-1 7 1 1 1 1 2 2 3-2 2-3 2-4 3-1 0-1 1-2 1-2 0-4 0-5-2-1-1-2-1-2-3 2-2 2-2 4-3zm13 7h0c2 0 3 1 4 2s1 2 1 4c-2 3-3 4-6 5-2 0-2 0-3-1-2-2-3-3-2-5 1-3 3-4 6-5zm-30-4c1-1 2-1 3-1 2 1 3 1 4 3 2 1 1 3 1 5-1 2-2 2-4 3l-2 1c-2-1-3-1-4-2s-2-4-2-5c1-2 2-3 4-4zm-15-14h1c4 0 11 3 14 6 0 2-1 2-2 3l-1 1c-2 1-4 2-5 1-3-1-6-3-7-6-1-2-1-3 0-5zm26 28c2 0 5 0 6 1 2 1 2 2 2 4-2 3-5 5-8 6-1 1-2 1-3 1-2-1-3-2-4-3 0-2-1-3 0-4 1-3 4-5 7-5z" class="B"></path><path d="M349 457c0 2-6 10-7 11-5 8-10 15-15 23-9 16-16 34-19 52-3 19-3 41 3 59 3 13 10 25 17 36 3 6 8 12 12 18-3-2-6-5-9-8l-8-9c-5-7-10-14-14-22-12-23-16-50-17-76-1-9-1-19 0-28 2-19 13-35 30-43 10-4 19-6 27-13z" class="C"></path><path d="M327 474h2c-4 6-8 12-11 18-10 18-15 38-17 58v19 9c0 1 0 1-1 2l-1-1c-3-19-3-38 0-57 2-12 5-23 11-33 4-6 10-13 17-15z" class="B"></path><path d="M221 517c3 4 5 8 7 12 3 5 6 10 9 14 9 10 20 19 27 31 4 6 6 13 8 19s3 12 6 17c2 2 4 5 6 7 2 1 7 5 8 7l-2-1c-7-3-15-6-23-8s-15-4-22-8-12-10-16-16c-6-9-8-19-9-29-2-10-2-21-1-30 0-5 1-10 2-15z" class="C"></path><path d="M245 582c6 4 15 8 19 15 2 2 3 4 3 7-2-1-4-1-6-2-8-3-13-12-16-20zm-20-32c3 5 5 10 8 15 4 10 7 20 13 29 2 4 5 7 7 10l-2-1c-4-2-7-4-10-6-14-12-15-30-16-47z" class="B"></path><path d="M265 335l-7 24c-3 12-5 23-9 34-5 13-12 27-19 39l-11 18c-3 5-5 11-8 16l2-62c1-13 4-28 11-39 3-4 6-7 10-10l-17 3c-14 1-27-2-37-11l4 1c4 3 9 5 14 6 17 3 28-3 43-9 8-3 16-5 24-10z" class="C"></path><path d="M248 367l1 1v2c0 3 0 12-3 14-2 1-6 1-8 2s-4 3-6 4h0c4-9 8-17 16-23zm-7 24l1 1c0 3-2 7-3 10-4 10-9 18-15 26l2-11c0-7 0-13 4-18 3-4 7-7 11-8zm0-31h4c0 1-4 3-5 4-4 4-7 10-9 15-3 8-6 17-8 25-2 12-2 24-6 36-1 1-1 2-2 2l1-17c0-18 1-35 9-52 4-7 9-11 16-13z" class="B"></path><path d="M537 108c-1 4-3 8-5 12-2 6-4 12-5 17-4 18-6 38-5 56 0 8 2 17 2 26 0 7-1 17-6 22-2 2-5 3-7 3-7-1-11-3-16-8-4-6-8-12-9-19-5-19-1-38 12-53 4-5 9-9 12-13s5-9 7-13l20-30z" class="E"></path><path d="M509 155l-8 23c-3 13-5 29-1 42 2 6 6 11 9 16-3-1-6-3-8-4l-2-2c-8-8-12-22-12-33 0-12 6-24 13-33 2-3 6-6 9-9zm11-16c1 1 0 5-1 7l-4 20c-2 10-2 19-2 29 0 13 4 26-1 38-1-1-2-3-4-5-4-7-6-15-6-23 0-6 0-12 1-17 1-11 5-20 8-30 2-6 5-15 9-19z" class="B"></path><path d="M384 692c16 9 35 16 53 20 7 1 14 3 21 3 10 0 20-1 30-2-20 13-39 32-52 52-6 8-10 16-14 24l-33 4-26 4c7-21 23-36 44-44 6-2 13-4 19-6 6-3 11-6 17-9 5-3 11-5 15-9-3-1-7-1-10-1-8 0-15 0-23-1-13-3-24-8-31-19-4-5-6-11-10-16z" class="C"></path><path d="M414 713h1c7 3 15 5 23 6 3 0 9 0 12 2h-9c-8 0-22-2-27-8zm-36 64c3 2 6 3 10 3-4 4-8 8-13 11-3 1-6 1-8 2 2-6 7-11 11-16zm33-2l1 1-1 1a30.44 30.44 0 0 1-8 8c-6 3-14 4-20 4-1 0-1 1-2 0 7-8 20-11 30-14zm11-21h1c-4 8-8 13-15 17-5 3-11 6-17 6-2 0-5-1-7-1-1-1-1-1-1-2 10-11 26-13 38-19l1-1z" class="B"></path><path d="M609 328c7 8 19 12 29 18s20 13 28 22c11 12 19 28 28 43-7-1-14-3-20-5-20-7-38-20-58-27-5-2-11-3-18-3-8 0-16 2-24 2-19 1-34-2-50-11-3-3-7-5-10-8h0c11 6 20 12 33 12 16 1 38-5 50-16 8-7 11-16 12-27z" class="D"></path><path d="M605 368c31-1 58 19 80 38l-10-3c-22-8-41-22-64-29-6-2-13-3-19-4 5-1 9-1 13-2zm7-28c7 5 15 8 22 11 11 6 21 12 29 21 5 7 9 15 14 22l-19-13c-11-8-25-15-38-17-12-1-24 0-35 3 2-2 5-3 8-5 10-5 15-12 19-22z" class="B"></path><path d="M476 176c1 3-1 9-2 12l-2 23-3 19c-2 5-4 10-7 14-9 14-26 26-43 29h0c-7 1-15 2-22 1-12-3-24-10-37-14-5-2-10-3-15-3h-1c21-11 44-15 67-21 11-4 20-9 29-17 5-3 9-7 13-11 10-9 17-21 23-32z" class="C"></path><path d="M454 225h2v2c-1 8-6 16-12 21-7 6-15 6-24 5h-2c11-5 19-12 27-20 3-3 6-6 9-8zm-52 32c7 0 14 1 21 1 5 0 9 0 14-1-11 8-24 10-38 10-5 0-9 0-14-2-7-2-14-5-21-7 6-1 14 0 21 0 6 0 12 0 17-1zm49-42h1c0 2-2 4-3 5-3 6-6 12-11 16-13 11-29 17-46 18-8 0-17-1-25-1l-1-1c1-1 5-1 7-2l26-6c5-1 11-3 16-5 14-6 25-15 36-24z" class="B"></path><path d="M216 658l43-6c15-1 26 3 39 10-3-3-6-7-9-10-6-5-15-8-22-8-6-1-13-1-19 0-4 1-9 3-13 4-1 0-4 1-4 1-2-1-5-5-6-7l-9-6c-2-1-5-3-7-4-1 0-6-1-6-2 7-3 13-7 21-9 12-3 29-1 40 3s22 11 30 19c4 3 7 8 9 12l12 17 23 34c-3-2-7-4-11-6-4-3-8-5-13-7-16-6-34-5-51-10-7-2-13-6-19-10-10-5-20-10-32-12l2-1 2-1v-1z" class="C"></path><path d="M244 641h1 0l-12 5c-2 0-2 0-3-1l1-1c3-2 9-3 13-3zm-11-9c6 0 12 0 18 1-6 3-11 4-17 6l-8 2c-3-1-5-3-7-5 5-1 9-3 14-4zm-4-8c8-1 15 1 22 2-8 1-16 1-24 3l-11 5-7-4c7-3 13-5 20-6zm22 32c13-2 26 1 37 7 4 2 7 4 11 7l-16-1c-10-1-20-3-30-5-6-2-11-5-17-6h-1l16-2zm-35 3c4 0 9 0 13 1 9 1 17 5 25 7 18 5 36 7 52 15-20 1-37-1-56-9-8-4-16-9-25-11-3-1-7-1-11-2l2-1z" class="B"></path><path d="M545 289c12-1 25 2 35 9 9 5 16 16 18 26 2 8 0 15-5 22-8 12-20 18-34 21-11 1-22 1-32-5-9-5-16-13-19-24-3-13 1-29 13-37 2-1 6-2 7-3-1-1-1-2-2-3l1-1c2-1 4-2 7-3s7-2 11-2z" class="C"></path><path d="M548 293h2c2 0 2 0 3 1l-2 2h-3c-1-1-1-1-1-2l1-1z" class="B"></path><path d="M531 293c3-1 7 0 10 0l3 6h-1c-2 0-4-1-6-2-1-2-2-3-4-3 0 0-1-1-2-1z" class="F"></path><path d="M560 310c-4-4-8-7-12-10v-1c11-3 25 6 31 14 3 4 4 8 7 12 2 2 5 3 8 5-2 2-5 4-7 6-2 3-4 6-5 9-5 7-12 13-20 15-10 3-21 2-30-3-6-3-12-10-13-16l-1-1c-1-7-1-14 2-20 3-8 9-14 17-17 2-1 8-3 10-2l1 1c4 2 7 5 11 8h1z" class="B"></path><path d="M559 329h1c1 0 3 0 4 1s2 3 2 5c1 2 0 3-1 5-1 0-2 1-3 1-1-1-2-1-3-3-1-3-1-6 0-9z" class="C"></path><path d="M559 310h1c1 1 2 5 4 5 1 1 4 0 6 1 1 0 2 1 3 2 2 7 3 19 0 25s-8 9-13 11c-11 4-20 0-30-5 4 0 8-1 12-3 6-4 7-10 9-16h0c0 5-1 9-3 13 2 2 4 4 7 5 4 1 6 2 10 0 3-2 6-6 7-9 2-8-3-13-9-17 0 0-2-1-2-2s1-4 0-6c0-1-2-3-2-4z" class="E"></path><path d="M553 349c1 0 3 1 5 2-1 0-2 1-3 1s-3 1-5 0c0-1 2-2 3-3z" class="F"></path><path d="M547 344c1 1 2 2 2 4l-1 1c-2 2-5 2-8 1h-3l-1-1c4-1 8-3 11-5z" class="B"></path><path d="M389 362v1c-1 6-2 12-2 19-1 6-1 12-3 18-3 15-15 26-27 35-4 2-8 4-12 7 1 1 3 2 4 3 0 14-29 15-38 20a34.47 34.47 0 0 0-12 12c-5 7-9 15-12 23-2 7-3 14-4 21-1 13-2 27-1 40 0 2 0 5 1 7v1h0l-1-1c-5-21-8-42-8-64-1-25 2-50 11-73 2-5 5-10 7-14 5-10 12-22 21-29 6-4 13-6 19-10 7-4 14-8 23-9 11-3 23-2 34-7z" class="C"></path><path d="M320 446c4 0 13-1 16 1v2 1c-2 1-4 1-5 1-5 0-8-2-11-5zm55-68h1l1 1c1 3 0 5 0 8-3 12-15 18-25 23-8 4-16 7-23 12l-1 1v-1c3-5 8-9 12-13l19-19c5-4 10-10 16-12zm6 16c0 5-1 11-4 16-4 7-11 11-18 14-13 7-28 10-43 13 16-22 49-21 65-43zm-23-22c3 0 5 0 7 1v1s-3 3-4 3c-3 3-5 6-8 9-19 23-39 45-56 70l-3 6c1-6 5-11 7-16 9-17 17-33 28-48 7-12 15-23 29-26zm-32 15v1c-3 10-10 20-15 30l-13 25c-4 6-7 13-10 19-2 6-3 12-4 17l-5 30c-2-12-2-25 0-37 2-11 6-23 10-34 4-9 9-18 14-27 6-10 12-19 23-24z" class="B"></path><path d="M308 373h-1c-1 4-3 8-7 10-3 2-5 2-9 1-2-1-4-3-6-4 0-1-3-5-3-5-1 0-6 2-7 3l-5 2 11-13c3-5 6-11 10-16 14-17 31-31 53-33 9-1 17-1 26-1 3 0 7 1 10 0-8-1-15-3-23-4-18-1-36 3-50 13-14 9-22 22-30 36 4-17 15-31 30-40 18-11 38-15 59-11 8 1 16 4 24 3-9-5-20-6-30-7-5-1-9-2-13-2-6-1-12 0-17-1-7-1-13-4-18-8l-16 17c-4 5-9 9-13 14-6 7-10 16-11 25-2 9-1 18-5 27-2 5-7 9-10 14-4 4-6 11-5 17 0 5 2 9 6 12 3 3 8 5 12 4 5 0 9-3 13-6l-5 13c-2 6-3 12-9 16-5 2-9 8-11 13-1 4-1 8 1 11 1 2 3 5 6 5 1 0 1 1 2 0 0-1 0-1-1-1-2-2-4-5-5-8 0-4 1-7 4-10 3-4 6-7 9-11-2 7-4 15-5 22s-1 14-1 21c-1 6-3 12-4 18-1 7 0 14-2 21 0-7 0-14-6-19-2-3-5-5-7-8-9-11-11-25-12-39 0-12 2-25 5-37l8-23c2-5 3-11 5-16 3-6 8-9 10-16 2-4 2-9 3-14 1-13 5-25 14-34l30-31c9 6 19 10 30 9-10-5-19-9-23-21-1-3-1-4 1-7 2-4 5-7 7-11 14-22 30-30 54-38 7-2 14-3 22-5 5-1 10-1 14-3 3-1 7-3 10-5 1-1 4-2 5-3-3 1-6 2-10 3-9 1-19-1-29 1-7 0-13 3-19 5-15 6-28 6-43-1l-2-1c1 0 3 1 5 1 1 1 2 1 4 2 5 1 11 2 16 2 12-1 23-8 35-10 15-3 32 1 45-8 2-1 4-3 5-4-10 2-20 2-31 2-6 0-12 0-17 1-18 4-33 18-52 16-1 0-2 0-3-1 1-1 3 0 5 0 4 0 9 0 13-2 7-2 13-6 20-10 4-2 9-4 14-5 13-2 27 0 41-2 5 0 10-1 15-4 7-4 13-10 19-15-11 19-24 37-46 43-6 2-12 2-19 4-18 3-36 8-51 20-5 4-11 9-14 14-4 6-8 19-6 26 1 4 4 7 8 9 6 3 14 3 21 5-5-6-15-14-15-23 0-1 0-3 1-4 2-1 4-1 5-1 2 1 3 2 4 3 2 3 2 7 4 10 1 4 4 8 7 12 1 1 2 4 4 5s5 2 7 3c13 3 27 6 39 0-16 0-30-3-42-15l-13-12c20 2 41 7 61 4 5-1 10-3 15-5 2-1 6-3 9-3-11 8-24 13-38 15-12 1-25 0-36-6 7 8 15 15 26 16 27 3 48-14 67-30 5-4 10-9 15-12-12 17-24 36-42 47-6 3-12 5-18 8-8 3-15 7-23 9-13 3-26 3-39 4-17 1-36 7-49 19-6 5-11 11-15 18-2 3-4 6-5 9-1 1-2 2-2 3 8-7 15-17 23-24 21-19 54-16 81-21-7 3-16 8-20 15-2 4-3 8-6 11-8 9-20 12-31 16-3 2-6 3-10 4 3-2 6-4 9-5l6-3v-1c-1-1 0-7 1-8 0-1 1-1 1-1h0l-2 10c2-1 5-2 7-3 5-3 9-8 14-12 1-1 4-4 4-6 1-1 1-1 1-2l-1-1c-13 2-26 10-34 20-3 4-6 9-10 13-3 3-7 6-11 8-4 3-7 5-9 8-6 8-6 18-11 26l1-4c1-4 0-8-1-12v-3l1-2a30.44 30.44 0 0 1 8-8c-4 1-7 2-11 4-1 0-3 2-5 2h-2c-3 0-7 0-9 2v1c4-1 7-1 11 2 2 2 4 5 4 8s-1 7-3 10c-2 2-5 4-9 4-4 1-8 0-11-3-4-3-5-7-5-12s2-9 6-12c5-6 13-9 20-8 5 0 12 2 17 0 4 0 7-3 10-5l2-3c0-1 0 0-1-1h0c1-1 1-3 1-4s-1-1-1-1z" class="C"></path><path d="M307 358l-9 2c5-5 11-10 18-10 4 0 7 1 11 1h1c-3-3-8-3-11-4 4-1 7-3 12-3 5-1 9 0 14-1-5 5-11 9-16 15-6 7-11 14-18 21 0-1 0 0-1-1h0c1-1 1-3 1-4s-1-1-1-1c0-1 0-2-1-3-1-3-4-5-7-7 3 1 8 2 10 6 1 1 1 2 0 4v2c2-2 3-5 3-8 0-2-1-3-3-4h0l-1-1h0c1-1 1-1 2-1v-2c-1-1-2-1-4-1z" class="F"></path><path d="M307 358l19-2c-3 2-6 6-10 8-2-1-3-2-6-1h0l-1-1h0c1-1 1-1 2-1v-2c-1-1-2-1-4-1z" class="E"></path><path d="M246 421c4 6 9 11 12 17 1 2 3 5 2 7h-1c-2-1-3-3-4-5-1-3-4-9-7-11 1 4 1 11 3 15 1 2 3 3 5 3h1c2 1 3 1 6-1 4-2 5-6 7-11 0-2 0-4 1-5 1-2 6-4 7-5-3 6-5 13-7 19l-3 3c-1 1-6 4-8 4-3 0-6 0-8-3h0l-1-1v-1c0 8 0 15 1 23l3 19c-1-1-2-2-3-4-3-4-4-9-6-14-2-7-4-15-3-23 0-9 2-18 3-26z" class="B"></path></svg>