<svg xmlns="http://www.w3.org/2000/svg" xmlns:xlink="http://www.w3.org/1999/xlink" xmlns:v="https://vecta.io/nano" viewBox="108 30 818 944"><!--oldViewBox="0 0 1022 1024"--><style>.B{fill:#f7f6f7}.C{fill:#fdfcfd}.D{fill:#efeeef}.E{fill:#e0dfe1}.F{fill:#dbdadc}.G{fill:#232223}.H{fill:#b2b1b1}.I{fill:#7a7979}.J{fill:#504f4f}.K{fill:#969596}</style><path d="M796 445c3 0 5 0 9 2v1c-3-1-7 0-9-2v-1zM439 561c1 1 1 3 1 4 1 6 1 11 1 16l-2 1h-1c-1-2 0-5 0-7l1-14z"></path><path d="M616 570c4 3 8 7 10 11l-2 2c-3-5-6-8-10-11l2-2z" class="G"></path><path d="M614 572c-6-3-12-4-18-2-2 0-4 1-5 1-1-1-1-1 0-2 2-1 3-2 5-2l1-1c7-1 13 1 19 4l-2 2z"></path><path d="M743 282c3-9-2-19-6-26 3 2 6 8 8 11 0 1 0 2 1 3h0c0 2 0 3 1 5 0 1-1 2 0 4 0 2 1 12 0 13l-1 1c-1-3 1-8-1-12v-2-3c-1 1 0 4 0 6-1 1 0 2 0 3l-2 1v-4h0z" class="D"></path><path d="M579 332c5 0 13 1 18 2-9 3-18 3-27 4-3 0-7-1-10 0-3 0-5 1-8 1 1-1 3-1 5-2 7-2 15-4 22-5zm-466 66h5c3 1 5 3 7 6 1 3 1 7 0 11-1 2-3 4-6 5s-7 1-10-1c-2-1-3-4-4-6v-2c1-2 2-4 4-5 2 0 2-1 4 0v2c-1 2-1 4 0 6 2 1 2 1 4 1s3-1 4-2c1-2 2-4 1-6 0-2-1-5-3-6-2-2-4-2-7-1h0 0l1-2zm324 152c5 2 8 3 12 7 6 8 6 18 5 27l-5-2 1-9c0-6-1-10-4-15-1-3-3-5-5-7 4 10 8 20 5 30-1 1-2 1-4 1 0-3 1-6 1-9 0-9-2-14-6-23z"></path><path d="M649 236v2c1 1 3 2 4 3 6 9 17 16 26 20l6 3c1 0 1 0 2 1h0l-5-1c-1 0-3-1-4-2l-3-1c-5-2-9-5-13-7-7-5-14-14-19-21-1-2-3-4-4-7-1-1-2-2-3-4h0 4c3 2 7 3 10 4 5 2 10 5 14 8h-1l3 2c2 1 2 2 3 3-4-1-10-3-13-6l-16-9 6 8c1 1 2 3 3 4z" class="H"></path><path d="M656 233h0l-4-3v-1c4 1 7 4 11 5l3 2c2 1 2 2 3 3-4-1-10-3-13-6z" class="J"></path><path d="M591 510h0c6 9 9 20 7 30v1c-1 4-2 8-4 11l-4 6 1-48zm41-250c1 2 1 5 2 8 1 5 2 10 5 15 15 30 52 37 71 63-2 0-6-5-8-7-2-1-4-3-7-5-14-10-32-18-45-31-12-12-18-27-18-43zm41 107c8 0 16 0 24 1 4 0 9 1 13 3-18-2-36-1-53 4-4 1-7 2-10 4-2 1-4 3-6 4h-4-12c9-6 18-11 29-14 6-1 12-1 19-2zm-47-43h0v1c-1 4-3 8-7 10-3 3-9 5-13 6-18 5-35 6-53 2h-3c1-1 3-1 5-1l18-1c12-1 25-3 37-8 5-2 11-5 16-9zm61-6c4-1 8 0 12 1 8 1 14 6 17 13 2 3 2 7 4 11 1 4 4 8 6 12 7 11 15 18 25 25-3 0-9-5-12-7-18-13-27-35-43-50 3 1 7 1 11 2 1 0 2 1 3 1-6-5-15-7-23-7-1 0-1 0-2-1h2zm-38-82c-1-1-2-3-3-4l-6-8 16 9c3 3 9 5 13 6l10 4h1c3 2 7 4 11 5 13 6 25 12 33 23-17-14-40-20-60-28 13 10 30 14 44 23h0c-6-3-13-5-20-7-14-5-28-12-39-23zm12 146l-18 1c4-2 7-3 11-5 20-6 54-9 74 1v-1c3 2 6 3 8 5h-2-1-11l-19-1h-26c-6 1-11 1-16 0z"></path><path d="M661 382c15-4 30-4 45-3 9 0 18 0 26 3l-4-3v-1c3 2 6 3 8 5h-2-1-11l-19-1h-26c-6 1-11 1-16 0z" class="H"></path><path d="M631 587c-4-9-10-17-19-21l-2-1h-1c-7-2-12 0-18 2-1-1-1-3-1-4 1-2 3-3 4-4 4-2 13 0 17 1 10 4 16 11 21 21 7 16 5 39-2 55-6 17-19 34-36 41-1 1-2 1-4 1 0-1 0-2 1-3l1-1c1-1 2-2 3-2 1-1 2-1 3-1 2-2 5-4 8-6h-1l-1 1h-1c-1 1-1 2-2 2l-5 2h0c0-1 2-2 3-2 3-2 6-4 9-7 7-6 12-14 16-23 8-15 11-34 5-51h2z"></path><path d="M629 587h2c5 16 3 36-4 51-7 16-18 29-35 36 1-1 2-2 3-2 1-1 2-1 3-1 2-2 5-4 8-6h-1l-1 1h-1c-1 1-1 2-2 2l-5 2h0c0-1 2-2 3-2 3-2 6-4 9-7 7-6 12-14 16-23 8-15 11-34 5-51z" class="B"></path><path d="M451 460h6c3 0 5 1 7 3 6 7 7 17 6 25-1-5-3-11-8-14-2 0-4-1-6 0-1 0-2 2-3 4 0 1 1 2 2 4 0 0 1 0 1 1 1 2 1 5 0 7s-2 5-5 6c-2 1-4 0-6-1-3-1-6-5-7-8-2-5-2-11 1-16 2-5 6-9 12-11zm349 12c9 3 18 7 28 9 8 1 19 1 26-5h1c-6 7-14 11-22 16l-22 14 4-7-9 6 4-8-6 3-4-28zM602 583c2 0 4 0 6 1 3 1 6 3 8 6 3 6 1 14-1 19-3 11-10 18-20 23l-5 1v-9h1 0l2-1c3-1 6-4 6-7 1-3 1-6-1-8-1-2-4-4-7-4h-1c0-4-1-12 1-15 3-4 7-5 11-6zm27-303c4 7 6 14 10 20 5 7 10 12 16 17 10 8 21 13 31 19 7 4 12 9 18 14 4 3 7 6 10 9l-6-4-14-9c-16-9-33-15-51-13-6 0-11 1-17 3 3-4 6-9 6-15h1c2-14-3-28-4-41zM423 513h1c9 1 19-2 27-8 5-4 7-8 10-14 0 4 0 8-2 12-2 7-12 14-4 22 2 2 5 2 8 2 2 0 4 0 5-1l1 73-4-7c2-7 2-16 1-24-1-6-3-12-7-17h0c-2-6-11-12-16-16a79.93 79.93 0 0 0-13-13c-2-3-5-6-7-9z"></path><path d="M451 500c2-1 3-2 4-3v1c-4 5-13 9-20 11-6 1-13 0-19-4s-10-11-11-18c-2-10 2-19 7-27h30c-7 8-11 16-10 26 1 4 3 8 6 11h0l-6-2c-4-2-6-5-7-9-3-7 0-17 3-24-1 1-2 1-3 2-3 6-5 16-4 23 1 6 5 9 11 13h0c3 1 5 1 8 0h3l3-1v1h0c-2 0-2 1-2 2h-2-1c-1 0-2 0-3 1h-4l1 1c1 0 4-1 6 0l3-1s1 0 2-1h0c1-1 3-1 4-2h1z"></path><path d="M425 505c-7-4-11-10-13-17s0-13 3-19c0 1 0 3-1 4-2 4-2 11 0 16s7 11 12 13c2 1 4 1 7 1h0c-1 1-3 1-4 0v1c-2 0-3 0-4 1z" class="E"></path><path d="M433 503c-2-1-3-1-5-2-4-1-8-7-10-11-3-7-1-16 2-23 1 1 0 3 0 4-1 7-2 14 1 20 2 4 6 7 10 8l1 1h0c3 1 5 1 8 0h3l3-1v1h0c-2 0-2 1-2 2h-2-1c-1 0-2 0-3 1h-4l1 1c1 0 4-1 6 0l3-1s1 0 2-1h0c1-1 3-1 4-2h1c-5 4-14 7-21 6-2 0-3-1-5-1 1-1 2-1 4-1v-1c1 1 3 1 4 0h0z" class="B"></path><path d="M596 670c-2 0-4 2-6 1 0-1 0-4 1-4 2-2 5-3 8-4 7-4 13-14 17-21 1-1 2-2 1-3-5 9-11 16-20 21-2 1-5 2-7 2v-3l2-1 9-6a30.44 30.44 0 0 0 8-8l-8 6c-2 2-9 7-11 7 0-1 0-2 1-3 2-2 5-3 7-5a53.56 53.56 0 0 0 15-15c-3 2-5 5-8 8-3 2-11 8-15 8v-1c0-1 0-1 1-2 0 0 2-1 3-1l9-6c3-1 10-8 11-11-2 1-3 2-4 4-5 4-11 8-18 10h-2v-2c1-2 7-4 10-6 9-5 17-17 19-27 2-7 2-15-2-21-2-3-6-6-9-6-6-2-12 1-17 4h-1v-3c2-2 5-3 7-4 4-1 10-1 14 1 7 4 9 10 12 17 0 2 0 3 1 5v-2c0-1-1-1-1-2 0-3-1-7-2-10-2-6-6-10-11-12-6-2-13 0-18 2h-1 0v-2c1-2 4-3 6-3 7-2 14 0 19 4 6 4 11 12 12 19v1h0c1-5-2-9-4-13l2-2 3 6c6 17 3 36-5 51-4 9-9 17-16 23-3 3-6 5-9 7-1 0-3 1-3 2zm4-411c6 2 11 5 15 10-4-2-8-3-13-4 3 2 7 4 10 6 4 3 8 8 9 12v1c-2-1-6-5-8-6-2-2-5-3-7-4-6-3-13-6-20-8-27-7-56 0-82 7-18 6-43 12-61 4 16 1 33-2 47-7 4-2 8-3 10-5-4 0-10 3-15 5-3 0-6 1-9 1h-8c-4 1-7 2-10 2-8 2-16 1-24-1v-1l2 1c3 0 5 0 8 1 7 0 14-1 22-3h-8c-5 0-9 0-14-1 15-3 31-4 45-8 10-2 18-6 27-9 13-4 25-6 38-7-5-6-10-13-17-17-3-2-6-3-9-5 7 1 13 3 20 6 8 4 14 9 22 13 5 3 12 5 17 8 4 3 8 7 12 9h1 0z"></path><path d="M532 260c4-2 7-3 10-3 2 0 3 0 5 1-5 1-10 2-15 2z" class="I"></path><path d="M591 258c2 0 6 1 9 1h0v1l-11-1 2-1z" class="E"></path><path d="M565 256l26 2-2 1-21-2h-5l2-1z" class="D"></path><path d="M542 257c7-2 15-2 23-2v1l-2 1h5l-13 1h-8c-2-1-3-1-5-1z" class="K"></path><path d="M532 260l-22 6c14-8 28-11 44-13 7 0 13-1 20 1-3 1-6 1-9 1-8 0-16 0-23 2-3 0-6 1-10 3z" class="D"></path><path d="M605 547c13 2 24 4 35 11 20 13 33 36 38 59 6 23 4 46-9 66-5 7-10 14-16 19-2 1-4 3-5 4 4-5 9-10 12-15 9-13 12-30 8-46-3-13-10-20-21-27 0 13 0 25-3 38-3 12-11 26-22 33l-1-1c8-7 11-15 15-25-5 6-9 12-15 16-5 4-11 8-15 13-3 3-4 6-3 11v1c4 10 14 15 22 23 5 4 10 10 14 16 3 6 7 16 5 24-1-1-1-5-2-6-1-5-4-9-8-12-14-8-30-5-44-2v-14c12 1 23 2 34 8 5 2 9 5 13 9l-3-4c-12-13-27-19-44-20v-43c7-2 12-5 18-9 19-15 30-37 33-60 2-15-1-33-11-45-8-10-17-14-29-15l4-7z"></path><path d="M656 585c7 8 12 18 15 28-5-9-11-18-15-28z" class="B"></path><path d="M652 600c2 3 4 7 5 10-4-1-9-7-11-11 0-1-1-3 0-4 2 1 3 2 5 4h1v1z" class="E"></path><path d="M652 599c-4-7-9-13-14-20 5 4 12 9 15 15 2 4 4 9 6 13-3-2-4-5-7-7v-1zm-5-18c4 3 8 6 10 9 2 2 2 4 3 6 2 3 5 7 7 11 1 4 3 10 3 15h0c0-1-1-2-1-3-2-5-4-11-7-16-4-8-10-15-15-22z" class="B"></path><path d="M458 553l2 4c5 10 5 22 2 33-1-1-6-4-6-5v-2c1-11 2-17-4-26s-14-12-24-14c5 9 8 17 8 26 0 3 0 11-2 13-1 1-4 2-6 3-2 2-5 4-7 7 1-8 0-17-2-24-4-12-11-23-17-34-8-17-14-37-10-55 1-5 3-10 4-14l-1 1c-10 12-13 28-11 43 1 8 3 16 6 23 7 15 18 27 21 44 1 6 2 13 1 20-1 12-6 23-3 35v1c1 3 2 6 3 8 4 8 11 14 18 20 2 1 5 3 8 4l-7-5c-10-9-17-21-17-35-1-10 2-21 9-28 5-5 13-8 20-8 8 0 15 4 21 9 2 3 4 6 5 9 1 2 0 6 0 9v22c-4-1-8-2-11-1s-5 3-6 5-1 3-1 5c2-1 4-2 6-2s4 1 6 3c1 1 2 4 1 6 0 4-3 7-6 10-11 8-31 9-44 7-17-3-33-9-48-18-14-8-27-18-37-32-15-21-26-47-28-73 0-8 0-16 2-24-6 7-9 16-9 26-1 10 2 22-4 31-4 6-8 8-15 10-3-14-1-28 2-41 8-29 29-60 56-76-14 23-22 47-20 73 1 16 6 29 13 43 2 5 4 10 7 14 3 3 6 6 9 8 1-2 2-4 2-7 1-6 1-14 1-21 0-6 2-11 1-18 0-2 0-7-3-9v2c-1 3 0 7 0 11 1 6 1 12 0 17-1-7-3-14-3-22v-9c1-2 1-3 3-4 6 1 8 12 10 17 5 11 17 21 27 27 1-3 1-6-1-9-3-11-11-17-21-21 5 6 12 10 16 18 2 2 2 5 3 8h0l-1-1c-3-3-19-21-20-26 0-1 0-1 1-1s3-1 4 0c3 1 6 3 9 5 6 4 12 8 16 15 2 4 3 9 1 14 0 1-1 1-2 2-4-1-7-3-10-5s-6-5-10-7c-2-1-5-2-8-1-2 3-3 5-3 9-1 16 5 33 15 44 14 15 32 17 51 17-5-1-11-3-16-6-12-8-20-24-27-36-4-7-7-12-14-16-1 1-3 5-2 7v1c2 9 6 20 12 27 2 4 5 6 9 8-7-8-14-20-15-31h1 0c2 2 3 5 4 7 2 4 4 9 6 13 1 3 3 5 5 7 1 1 2 3 3 4 3 2 7 3 9 6l-1 1h-2c-9-2-18-8-23-16-6-8-10-20-11-31 0-2 0-4 1-6 0-2 1-3 3-4 5 1 8 4 12 7 6 4 12 9 19 11 1-7 3-15 2-22-3-17-23-23-35-31-7-4-13-9-19-14-2 2-3 5-4 7-4 10-1 24 1 34 2 7 3 13 2 20-8-7-12-20-16-29-10-28-6-59 6-86 2-5 5-9 7-13 2-2 3-5 5-6 1-1 3-2 5-3l10-3c-1 2-3 4-4 6-3 3-6 7-8 11-14 22-22 50-19 76 1 13 4 26 11 37l-7-30c-4-27 5-57 19-80 5-8 10-14 16-22 14-2 28-1 43-1l-5 12c-4 11-2 25 7 34 3 3 7 5 10 7h3c2 3 5 6 7 9a79.93 79.93 0 0 1 13 13c5 4 14 10 16 16v1h0c1 1 1 1 1 2h0v1c0-1-1-1-1-2h-1z"></path><path d="M437 643h0v-7 1h0c0 3 0 4 2 7 2 7 6 13 11 19-3-1-5-1-8-3v-1c-2-6-5-10-5-16z" class="D"></path><path d="M437 643c-1-7 0-13 4-19 4-5 10-8 15-8 2 0 6-1 8 1h0c-7 0-14 1-20 7-5 5-6 10-6 17l1 3c-2-3-2-4-2-7h0v-1 7h0zm13-38h6c-2 1-4 1-6 1-5 1-9 3-13 6-7 6-8 15-9 24v7h0v-2l-1-1c-1-9 1-20 7-28 4-5 9-7 16-7z" class="B"></path><path d="M443 599c4-1 8 0 12 1h-8c-4 1-9 3-13 6-7 6-9 13-9 22v11c-1-3-1-5-2-8-1-7-1-17 4-23 4-6 10-8 16-9z" class="C"></path><path d="M420 513h3c2 3 5 6 7 9a79.93 79.93 0 0 1 13 13c5 4 14 10 16 16v1h0c1 1 1 1 1 2h0v1c0-1-1-1-1-2h-1c-2-3-5-6-7-9-11-10-23-18-31-31z" class="D"></path><path d="M409 525c2-1 6 1 9 1 2 0 4 0 6 1 1 0 2 1 3 2-3 0-5-1-7 0h-1l13 6c-4 0-9-2-13-2l1 1c5 3 11 5 16 8-8-2-20-5-25-12-1-1-3-3-2-5zm33 135c-4-2-7-4-9-8-4-8-4-18-1-26 2-6 6-11 11-14s12-5 17-3c-7 1-14 3-19 8-6 5-8 12-8 19 0 8 3 17 8 22l1 1v1zm-69-181c0 1-2 3-3 4-2 3-4 6-5 10-3 9-3 17 1 26 0-4-1-7 0-11 0-12 6-22 14-30-1 3-3 5-4 8-3 8-5 17-4 25 0 8 2 16 7 22l7 7c2 2 3 5 4 7v1c-3 0-6-1-9-1-11-3-19-8-24-17 7 7 15 10 26 12l-2-2c-4-2-7-5-10-8-7-7-12-17-12-27 1-11 7-19 14-26z" class="C"></path><path d="M298 400h468l9 33c10 38 16 77 18 116 0 3 1 10-1 12h-1-2c-1 0-2-9-2-11-4-25-11-54-30-72-22-21-53-32-82-34-14-1-28-1-41-1h-59l-1 268v85c0 14 0 29 1 43 1 13 3 26 7 38 8 24 24 40 46 51 9 4 19 7 29 8 5 1 9 1 14 2h10c2 0 3-1 5 0v2h-1c-21 2-43 2-64 2h-94-82l-42-1c-3 0-8 0-11-1v-1c1-2 2-1 4-2 24-1 45-9 62-26 14-13 22-31 25-49 4-18 2-38 2-56v-77l1-286h-57c-16 0-33-1-49 1-11 1-22 3-33 7-27 8-49 26-64 50-9 15-15 33-20 50-1 3-4 18-6 20-2 0-2 0-3-1 0-8 2-18 3-26 9-49 25-97 41-144zm-59 64c-1 7 0 13 0 19l-2-7c-1-5 0-10 0-15 1-8 2-17 5-25 4-8 9-16 13-23l10-16c-4 4-7 8-10 12-8 10-15 20-19 32-7 20-6 41 5 59 2 3 4 5 6 8l3 3c0 1-1 6-2 7l-4 31c-1 12-2 22 3 34 3 7 9 13 17 15 6 2 15 2 21-1 7-4 11-10 13-17 8 28 22 52 45 71 25 19 60 33 91 30 13-2 25-4 34-13 1 1 0 4 0 6v22l-1 1c-16 13-37 17-56 18-13 2-25 2-37 0-6-1-13-2-20-4-4-1-7-2-11-3 4 3 10 4 14 6 16 6 34 7 51 6 14-1 30-2 44-8 3-1 6-2 8-4 3-1 5-3 8-5 0 6 1 13 0 19h-2v1l2 1v4c-1 1-3 1-5 2l-11 3c-28 8-57 9-85 2-16-4-32-10-47-18-6-3-12-7-17-10-2-2-5-4-7-5 1 1 3 3 5 4 11 10 24 18 38 24s29 11 44 14c28 4 59-1 85-11v36c-8-4-17-6-25-7l-47-6c-8-1-14-3-22-4 2 1 5 2 7 3 20 7 41 8 62 12l23 6 1-1 1 1v16l-6-2c-2 6-4 13-7 19-1 3-2 6-4 8 1-4 3-8 3-12h0c1-5 1-11-2-15-4-6-16-7-23-8 2 9 2 18-2 26 1-6 1-12-2-18-5-10-16-13-26-16 2 5 4 9 4 14 1 10-2 20-9 28 3-7 5-13 3-20-2-4-4-7-8-9-1 0-2-1-2 0-2 0-3 2-3 3l-7 8c-3 3-6 7-10 10-6 6-16 10-24 9 7-2 13-3 18-10 5-8 8-19 6-28-2-15-18-24-29-32 6 10 12 21 14 32-4-10-8-19-16-27s-17-12-27-18c-17-10-32-22-45-37-4-4-8-9-11-15-2-3-3-7-5-11v8c0 16 6 34 15 47 2 3 5 6 7 9 2 2 5 5 6 7-5-3-9-7-14-11-16-15-29-32-39-52-1 6-2 12-1 18 0 17 7 36 19 48 3 3 5 5 8 7 3 3 6 4 8 7-15-7-32-15-44-28-3-5-6-11-8-16-9-21-12-43-15-65-5-37-6-75-4-113-14 12-31 26-49 28-4 1-8 1-10-1-2-1-3-3-3-4 0-2 1-3 2-4s1-1 2 0h0c0 1-1 1-2 2v2c1 1 2 2 4 3 3 1 6 0 8-2 8-4 14-13 18-21 7-15 11-32 15-47l14-46c-9 2-18 3-27 3-14 1-29 0-41-6-10-5-17-13-20-22-2-7-2-13 1-19l-1 5c-1 5 1 10 4 14 5 6 11 9 19 10 21 2 42-8 58-21-11 0-18-6-25-13 7 4 15 5 24 3 15-3 23-17 30-29l12-21c-22 5-44 6-64-5-14-8-23-21-27-37-2-5-3-13 0-18 2-3 4-4 7-5 2 0 4 0 6 2 2 1 2 3 2 5-1 1-1 1-3 1-1-1-1-3-3-4h-3c-2 1-3 3-3 4-2 5-1 12 1 17 3 5 7 9 13 11 5 2 11 2 16 2 14 0 26-4 39-10-3-1-6-1-9-1-9-1-21-2-28-7 3 0 6 1 9 1 29 2 60-16 80-35l-27 1c15-3 28-8 41-16 6-3 12-7 18-11-11 0-24 1-34-3 4 0 8 1 12 1 15-1 34-7 46-15-6-1-10-3-14-8l3 2c2 1 5 2 8 1 13-1 21-9 28-18-18-5-35-14-49-27-9-9-19-24-19-37 0-6 2-13 6-17 3-2 5-4 9-3 2 0 4 0 5 2s1 3 1 5h0c-1-1-1-2-2-3s-3-2-5-2-4 2-6 4c-3 4-4 10-4 15 1 8 6 15 12 20 11 10 28 11 42 11 8 0 15-1 23-1-1-2-4-4-5-6-3-3-5-7-7-12 3 4 6 8 10 11 14 9 35 5 51 1-9-2-19-5-27-11l8 2c15 4 34 1 48-5 4-1 9-3 12-5-2-1-5-1-7-2-6-2-11-5-16-9-9-7-18-17-19-29-1-5 0-10 3-13 2-3 6-5 9-5 2 0 4 0 5 1 2 1 2 2 2 4s0 2-1 3c-2 1-2 1-3 1 0-2-1-3-1-5-2 0-2-1-4-1-2 1-3 2-4 3-2 2-3 5-3 8 1 5 4 9 8 12 24 17 58 9 85 5-9-4-17-9-24-15 11 5 24 9 37 9 7 1 14 1 22 1-10-11-16-26-19-39 0 0 2 3 2 5 2 2 3 5 6 8 14 18 39 21 61 23 0-2-2-4-3-6-2-6-3-12-4-19 2 7 5 13 11 18 11 9 30 10 44 9-2-2-4-3-5-5-8-8-11-19-10-29l1 6c2 7 6 14 13 18 13 8 33 9 48 5 8-1 15-5 22-9 15-7 30-16 44-26 7-5 16-13 25-15 2 0 4 0 6 1 1 1 2 3 2 5 1 3 0 7-1 10-6 19-15 36-22 54-6 14-9 30-15 44-2 5-4 9-7 13v1c12 7 21 22 29 33l-2-17c3 7 4 15 6 22 1 5 4 9 6 13 2-4 4-10 3-15v-4l1 4c3 10 0 21 4 31l4-7-2 8c0 1-1 2-1 3s1 4 2 5l3 11c3-2 6-10 7-13v-1h0c1 7-3 13-4 20-1 6 1 13 1 19 3-6 6-11 9-17-1 5-2 9-3 13-3 8-8 17-6 26 4 19 40 43 54 56 9 8 17 16 27 23 6 4 13 8 19 11 4 2 7 3 11 6 2 2 4 4 5 7 2 4 1 9-1 14-2 8-8 15-15 20-3 3-6 5-10 7-5 3-13 6-15 12h-1c-4 1-8 2-12 1-15 0-31-5-44-11-1-2-1-4-1-6 0-1 2 0 3 0 3 0 6 1 9 1l14 4c1 1 4 2 5 1l-32-12-1-1 1-1c8 0 16 1 23 4l9 3-39-25c12 2 24 8 34 14 3 1 6 4 9 5-3-3-6-6-9-8-7-6-15-10-22-13-5-3-11-5-15-8 15 3 29 11 41 19 3 2 6 5 8 6-5-9-14-17-22-23l-1-1c7 3 12 7 17 12-9-17-29-26-45-34 4 0 8 2 12 4 8 4 16 8 24 13 2 2 5 6 8 7-1-3-5-6-7-8-9-10-20-17-33-22-4-2-9-4-13-6 4 0 7 2 11 3 11 3 22 8 31 15 5 3 10 8 15 12-12-17-27-28-44-37-6-3-12-5-17-8 4 1 9 3 13 5 18 7 38 18 49 33l1 1v-1c-2-3-5-6-7-9-13-16-32-26-48-36h0c8 2 14 7 21 11 5 3 10 6 15 10 8 5 15 12 22 19-2-5-6-9-10-13s-8-8-13-11l-13-10h1c5 0 34 24 38 29l1 1h1c-6-7-12-14-19-21-5-3-10-7-14-12 3 1 6 4 8 6l28 23c-2-4-6-7-9-10l-12-12c-8-7-17-13-25-19-7-7-13-14-21-21 5 7 10 13 15 19 3 2 7 6 9 9h-1c-2 1-4 1-5 0h0c-2 0-3-1-3-2-5-2-9-5-13-8-5-4-9-9-13-14-5-7-8-14-12-21 1 11 7 23 15 31 3 3 6 6 8 10-2-2-5-4-7-7-8-7-13-14-17-23-3-5-4-9-6-14 0 18 12 34 24 46h-1c-12-9-21-23-27-36-2-6-4-13-9-17 1 7 2 13 4 20 3 10 9 20 17 27 3 4 8 6 10 9-2 0-5-3-7-4-15-11-25-25-37-38 2 5 4 10 6 14 9 16 25 24 40 33v1c-19-9-35-20-46-38-3-5-5-12-10-16-4-3-11-5-16-7-4-1-8-3-12-6-12-9-18-25-26-37 1 7 2 13 5 18 1 4 3 7 4 10-5-5-9-15-11-22 0-2 0-7-1-8s-6-4-8-5c-3-1-5-3-8-5l11 4c-2-2-4-5-7-7l-18-15c0-1-2-2-2-2 0-1-1-3-1-5l-1-10c2 5 3 12 6 16 2 2 5 4 7 6-4-7-7-15-8-23l11 18c4 6 8 12 13 17 11 12 27 14 43 16 8 1 16 1 22 5s10 10 12 16l3 6c1 2 4 3 5 4 3 2 7 5 10 7 5 2 10 3 15 2a10.85 10.85 0 0 0 8-8c6-11 3-25-1-36h-1c2 10 5 21 1 32-1 4-4 8-8 10v-1l1-2c5-12 2-31-2-43 0 3 1 6 1 9 1 11 0 22-4 32 0 0 1-4 1-5 1-6 0-14-1-20v-1h-1v-2c0 2 0 4-1 6-1 6-1 11-3 17 0-11 0-20-5-30h0c-1-1-1-2-1-3-2-3-5-9-8-11 4 7 9 17 6 26v-6c-2-6-4-12-7-17-1-3-3-5-4-8l-1 1c3 5 6 11 8 17 2 10 2 20-3 28 0-8 1-17-2-25-4-9-13-20-21-24l-1 1c12 7 17 19 21 32-3-6-7-13-12-18-6-7-17-12-26-15l-15-6-1 1-10-4c-1-1-1-2-3-3l-3-2h1c-4-3-9-6-14-8-3-1-7-2-10-4 4 1 8 2 12 2 4 1 8 0 12 0-5-2-10-2-15-4-3 0-5 0-7-2 5 1 9 1 14 2 11 2 22 7 32 13-2-3-6-5-9-7-8-4-15-7-24-9-8-2-14-3-21 0l-1-9c1-5 2-10 4-15 9-26 30-46 50-64 9-8 67-57 74-57l1 3h0c1-3 1-5 0-7-1-1-1-1-2 0-5 2-9 6-13 9l-24 19c-15 12-32 23-47 36-11 10-22 20-31 31-10 13-15 27-21 42 0 1 0 3-1 5 0 2-1 2-2 3l-1 1v2c0 1 0 2 1 3v1c-1 0-1 0-2 1h0c1 3 0 5 1 8l-1 1c0 3 1 5 1 8 1 2 0 4 1 7 0 1-1 2-2 3-2-1-7-9-8-12h0-1c1 3 2 6 4 8 2 4 7 9 7 14 1 3 0 8-1 12-1-4-2-6-5-8 1-1 1-2 1-2 1-1 1-2 1-3-1-1-1-1-2-1-2 1-2 1-4 1l-1-1-2-14-4 13-1 1-2-1c-1 0-1-1-2-2h-1c-1-2-2-3-3-3-2 0-1 0-2-1-3-2-7-5-10-8-8-9-15-24-17-36 0-4-1-7 0-11-2 3-1 11-1 14 2 13 7 25 15 35-15-8-28-18-44-23 2-1 4-3 7-4s9-1 11-3c0-2-1-2-2-2-10-1-22 3-29 10-5 4-9 9-12 14 6-1 13-2 20-1h0c4 1 8 2 11 4-7 0-14 0-21 1-8 2-16 6-25 9l-25 9c-9 3-17 6-26 8-10 2-19 2-29 2-4 0-8-1-12 0 15 8 34 16 52 17 16 2 33-2 49-7 31-9 65-16 95 0 3 2 10 5 12 8-3 0-7-3-10-4-10-5-21-7-33-8-16-1-33 1-49 6-7 2-15 5-22 7-13 3-27 3-40 2-6 0-12 1-18 0 13 4 28 6 41 5 14-2 27-7 40-11 21-6 42-7 63-2 11 2 23 7 32 14-7-3-12-6-19-8-25-8-52-9-78 0-5 1-11 4-16 7-3 1-7 3-10 5 10-3 19-7 29-9 30-8 62-6 89 8-6-2-12-4-19-6-26-4-54 2-77 15l-9 6c1 0 15-8 18-9 26-11 62-13 88 0l-14-3c-28-5-59-2-84 13-10 6-19 14-28 21-7 5-14 9-21 13 12-3 21-10 31-16 9-7 17-14 27-19 4-2 9-3 14-4 5-2 11-4 17-5 11-2 23-1 34 0 9 2 17 5 26 6-10 0-21-1-31-2-10-2-21-3-31-1-7 1-14 3-20 6 4 0 8-1 12-2 7-1 13-2 20-2 8 1 15 2 22 4l24 3c-9 3-18 0-27 1l21 3c-10 3-19 2-29 3l-14 3c18 1 39 6 53-7 8-6 11-14 14-23 1 8 3 17-3 25-3 5-10 7-16 8-9 1-19 0-29 1-3 0-7 2-11 3s-9 1-13 3c-10 2-19 6-28 10 4 2 9 2 14 3 22 4 49 5 70-5 1 0 2-1 4-2v1c-6 4-13 8-19 10-4 1-7 1-10 3h1c4-1 9-2 14-4 6-1 12-4 17-6s10-5 15-6h1c3-1 7-1 11-1 19 1 37 9 53 19 10 5 19 11 28 17 4 3 8 5 10 9h-1c-2-2-5-3-8-5-4-2-9-6-13-9-21-13-44-27-68-30h-11c-4 1-8 4-11 6l-23 9c-4 2-9 3-15 4-4 1-8 1-12 2 16 1 33-4 48-9 11-4 21-8 32-9l-23 9c-10 3-19 7-29 10-14 4-28 5-42 2-6-1-11-2-17-4-3-1-7-3-11-4v1c8 4 17 7 25 9 6 1 12 3 18 3 20 2 41-8 59-14 10-2 19-5 29-6l-16 7c10-1 19-2 29-1-5 1-10 1-14 2-9 2-20 6-28 11 1 0 2-1 3-1l9-3c14-4 33-5 47 0-1 1-4 0-5 0h-10c-20 0-39 5-55 17l-3 3c-3 0-35 0-38-1h-9l-11 1h-47l8-5c-5 1-11 4-16 5h-14l16-10 1-1c-1-1-1-1-2 0h0-2-1l-1 1c-2 1 0 0-1 0l-2 1c-1 1-2 1-3 1h-1l2-2v-1c-4 1-8 3-11 5s-6 5-10 6h-7l-12-1 16-10c3-2 6-3 8-5-10 4-20 13-30 15-3 1-6 1-9 1 8-3 17-8 22-14-11 7-23 12-36 14 2-2 6-3 9-4 6-3 12-7 18-11-1 0-3 1-3 1l-11 6c-7 3-15 6-23 7-4 1-9 1-13 1h-24-49c3-8 10-14 18-17 3 0 5-1 7-2v-1h-2c-8 2-15 6-20 12-2 2-4 5-5 8h-21v-1-5c1-10 4-22 11-30 5-7 13-13 21-14 5-1 9 0 13 3v3c-8 1-13 3-20 8l2 1c5-3 10-7 16-6l-3 1c-2 0-4 1-6 2-5 3-8 7-12 11 3-2 5-4 7-6 4-3 9-5 14-6h1v3h-1c-9 2-20 9-25 17-2 2-4 5-4 8h0c2-3 3-7 6-10 5-6 13-10 21-12l3-1h1v3c0 1 1 1 0 2v2c-5 2-15 6-17 12 6-5 11-8 18-10 4 9 12 17 22 21 9 3 22 2 31-2 5-2 10-7 12-12 1-5 1-12-2-17-1-3-4-6-8-7h0c4 4 7 7 8 14 0 5-1 10-5 14-6 6-14 8-22 8-7 0-15-2-20-7-6-6-9-14-9-22 0-9 5-17 11-22 7-7 16-11 25-12 1 0 1 0 2-1-11 0-22 4-30 12-6 6-10 14-10 23 0 4 1 6 2 10h0c1 3 3 6 4 8h0c-6-8-8-16-6-25 2-10 7-17 15-23 8-4 18-6 27-6 4 0 8 1 12 2-8-5-14-10-16-19-1-5 0-11 3-14 2-3 5-5 8-7-7 1-13 3-17 9-3 5-2 11-1 16l1 3v-1c-6-3-13-3-20-4-11 0-22 1-32 4-32 9-55 31-76 55 2-5 6-10 9-15 5-7 10-15 15-21 10-10 23-20 36-25 20-9 41-10 62-10 2 0 2 0 3-1-2-1-6 0-8-1-17-1-33 0-50 4-31 7-54 35-70 61-5 7-10 15-14 24-3 7-6 14-8 22 12-16 25-31 39-46 21-20 44-40 74-44 12-1 27-3 38 2-12 2-23 7-30 17l-3 6c-6-4-12-6-19-4-12 3-22 14-28 24-5 8-6 17-7 27h-1c-5 1-11 3-16 6l-39 125c-2-4-3-9-4-13-1-13 2-27 5-39 2-7 3-14 6-20l10-24h0l-10 19 4-12-2-1c-8 17-14 32-16 50 0 1 0 5-1 5-2-1-1-5-2-7h0l1-1v-6 2l-1 4h-1z"></path><path d="M621 204c1 1 1 1 1 2 0 2 0 3 1 4 0 2-1 2-2 3l-1 1c0-4 0-7 1-10z" class="D"></path><path d="M661 195c2 2 3 4 4 7h-1-2c0-1-2-2-2-3l1-1v-3z" class="G"></path><path d="M381 181c3-1 9-3 12-2-2 1-8 2-9 4-1 1-2 1-3 0v-2zm120 117l10-1c1 0 3-1 4 0-1 1-1 1-2 1l-9 3-1-2-2-1z" class="E"></path><path d="M458 748h3c1 2 2 2 1 3l-1 1h-4l-1-1c0-2 0-2 2-3z" class="C"></path><path d="M469 218c2 1 3 1 4 3 0 1 0 1-2 3-1 0-3 0-4-1h-1l2-2h0c0-2 0-2 1-3z" class="B"></path><path d="M754 283c0-8-1-15-2-22 3 5 4 13 4 18h-1v-2c0 2 0 4-1 6z" class="D"></path><path d="M613 217c1 1 2 2 3 2v1 1c-2 2-4 5-4 8-1 1-1 1-1 2-1-4 1-10 2-14z" class="K"></path><path d="M617 224l2 1v5c-2 2 1 7-1 9h0c-2-5-1-10-1-14v-1z" class="F"></path><path d="M664 234l12 6c1 1 3 1 4 2l-1 1-10-4c-1-1-1-2-3-3l-3-2h1z" class="I"></path><path d="M572 206c-2-8 0-19 4-27-2 8-3 14-3 22l-1 1v4zm149-99c2-2 3-4 4-5-3 6-6 11-7 18h-1c-1 0-1 0-2-1l6-12z" class="D"></path><path d="M211 445h1v-1 2h0 1l-5 9v-1h-1c-1 0-1-1-1-2 1-2 3-5 5-7z" class="B"></path><path d="M680 184c1 1 1 2 2 3-3 2-7 3-10 5l-2-1 3-3 3-1c1-1 2-1 3-3h1z" class="D"></path><path d="M309 249c7-1 15-2 22-1-2 1-5 2-8 2h-13l-1-1z" class="B"></path><path d="M164 432c-5 1-11 2-16 2l15-5v1h1 2 0c-1 1-2 1-3 2h1z" class="D"></path><path d="M647 195l1-14c2 4 2 9 4 14-1 1 0 0-2 1l-1-2-1 1h-1z" class="E"></path><path d="M227 637l1-15h0l1 10c0 1 1 3 1 5h-1v5h-1v6c-1-4 0-9-1-11z" class="I"></path><path d="M719 301c1 7 4 12 7 19-3-3-7-6-9-10l1-1c0-3 0-5 1-8z" class="H"></path><path d="M435 231c-1-1-4-1-6-1l-11-3v-1h1 1c5 1 11 1 17 1l-4 1c1 1 2 1 3 1 0 1 1 1 1 1h3 0v1c-1 1-3 0-5 0z" class="E"></path><path d="M215 595v-1c2-8 0-17 0-26l4 25c-1 1-2 2-3 2h-1z" class="D"></path><path d="M458 245l21-2c-4 2-9 3-14 5-1 0-3 1-4 1-2-1-3-1-4-1h0c0-1 1-1 1-1h1 0l-1-2z" class="F"></path><path d="M551 150c6-2 14-2 21-3 3 0 6-1 9-1-2 1-5 2-7 2l-20 4v-1c1 0 2-1 3-1h1 0 2-2c-2 0-4 0-6 1h-1v-1z" class="B"></path><path d="M713 114c0-1 0-2 1-2 1-3 5-4 7-5l-6 12-1 2v-4h0l-2 5h0v-5c1-1 1-2 1-3h0zM467 302l27 1h-5c-1 1-1 1-2 1-4 1-14 1-18 0-1-1-1-2-2-2z" class="G"></path><path d="M391 750c-8-1-17-4-25-6-2-1-7-1-8-3l2 1 31 6h-2-5 1 1c1 1 2 1 3 1l2 1zm208-497v-3c1-1 2-4 2-6 1-3 3-6 4-9 0 5-2 11-2 17v4l-2-1c-1 0-1-1-2-2z" class="B"></path><path d="M560 320h10c-3 1-7 2-10 3l-14 3c-2 0-4 1-6 1-1 0-1 0-2 1h0-1c3-2 7-3 10-4 5-1 9-3 13-4z" class="E"></path><path d="M647 195h1l1-1 1 2c2-1 1 0 2-1 1 1 1 2 2 4s2 5 4 7c1 1 1 2 2 3-3-2-5-3-7-5-3-3-5-6-6-9z" class="G"></path><path d="M339 348c-7 7-13 14-18 23 2-9 9-19 16-24l2 1z" class="E"></path><defs><linearGradient id="A" x1="626.738" y1="123.619" x2="620.262" y2="131.881" xlink:href="#B"><stop offset="0" stop-color="#abaaa9"></stop><stop offset="1" stop-color="#c9c7ca"></stop></linearGradient><linearGradient id="B" gradientUnits="userSpaceOnUse"></linearGradient></defs><path fill="url(#A)" d="M614 133l1-1c8-6 15-9 25-11-1 2-5 2-7 3-4 2-8 5-13 7h-2c-1 1-2 1-3 2h-1z"></path><path d="M621 204c1-6 3-14 7-20l-2 13c-1 2-2 5-2 7v1c0 1 0 3-1 5-1-1-1-2-1-4 0-1 0-1-1-2z" class="E"></path><path d="M259 417l4-8c1-5 6-10 9-14l-11 23-2-1z" class="H"></path><path d="M437 227l22 3c-4 1-8 0-12 1l-1-1-1 1-1 1-2-1v1c-3 1-4 0-7-1 2 0 4 1 5 0v-1h0-3s-1 0-1-1c-1 0-2 0-3-1l4-1z" class="F"></path><defs><linearGradient id="C" x1="581.953" y1="195.314" x2="580.935" y2="190.111" xlink:href="#B"><stop offset="0" stop-color="#5d5c5d"></stop><stop offset="1" stop-color="#757575"></stop></linearGradient></defs><path fill="url(#C)" d="M580 199c0-6 1-12 3-17 2 1 1 1 3 1-1 4-2 8-2 12l-2 3-1-1-1 2z"></path><path d="M583 182c3-9 7-15 14-21-5 7-8 14-11 22-2 0-1 0-3-1z" class="E"></path><path d="M227 637c1 2 0 7 1 11l3 20-1-1c-1-1-1-3-2-5-3-9-3-16-1-25z" class="D"></path><defs><linearGradient id="D" x1="619.066" y1="137.042" x2="604.384" y2="138.416" xlink:href="#B"><stop offset="0" stop-color="#ccc7cd"></stop><stop offset="1" stop-color="#f9f9f8"></stop></linearGradient></defs><path fill="url(#D)" d="M614 133h1c1-1 2-1 3-2h2c-6 5-11 9-15 16h0c-1-2-1-3 0-5 2-3 6-8 9-9z"></path><path d="M655 196c-1-3-4-7-4-10 0-5 2-11 3-15l1 8c0 5 0 11 1 16l-1 1zm-53-36l6-7c-4 9-7 18-9 29v1h-1v-11c2-3 4-8 4-12z" class="F"></path><path d="M211 445l20-33h0l-18 34h-1 0v-2 1h-1z" class="C"></path><path d="M229 642v-5h1l3 24c1 4 3 9 2 13-3-10-6-21-6-32zm230-303h0c7 0 15-6 22-8-4 3-9 7-14 9-3 2-7 3-10 5 0-3 0-4 2-6z" class="D"></path><path d="M371 761c3 1 6 3 8 7s0 9-1 13c0 1 0 2-1 2 0-4 0-9-2-14-1-3-2-6-4-8z" class="C"></path><path d="M486 223l25-6c-6 4-12 6-18 8-3 0-5 1-8 1-1-1-1-2-1-2l2-1zm-4-88h1c-2 2-5 2-7 3l-14 5c-4 1-7 3-11 5h0-1c3-2 6-5 9-7 6-3 16-4 23-6zm3 94c0-1 1-2 1-2 2-1 4-1 6-1 6-1 11-2 17-1l-22 6-1 1c-1-1-1-1-1-3z" class="B"></path><path d="M500 372c5-3 13-4 19-5 2 0 4 0 5 1-5 1-9 3-14 5l1-1c-1-1-1-1-2 0h0-2-1l-1 1c-2 1 0 0-1 0l-2 1c-1 1-2 1-3 1h-1l2-2v-1z" class="F"></path><path d="M380 177l20-3 25-3c-1 1-2 1-3 1l-30 5c-3 1-6 1-9 2 1-1 2-2 3-2h0 4-10z" class="D"></path><path d="M303 627h1v2c-3 4-11 10-16 11-1 0-1-1-1-1v-1c1-4 13-9 16-11z" class="C"></path><path d="M717 310c-4-7-4-16-4-24 4 5 5 9 6 15-1 3-1 5-1 8l-1 1z" class="B"></path><path d="M580 199l1-2 1 1 2-3c-1 11-1 20-1 31-3-8-4-18-3-27zm75-20c2 6 3 11 6 16v3l-1 1-2-2v1c1 3 5 9 8 10l1 1c2 0 5 1 7 2l-1 1-6-3h-2c-4-4-8-8-10-13l1-1c-1-5-1-11-1-16z" class="J"></path><path d="M357 349v3c0 1 1 1 0 2v-1c-13 5-22 11-28 24 0-2 2-6 3-8 3-7 10-12 16-15 3-1 6-2 8-3l1-2z" class="E"></path><path d="M449 216l20 2c-1 1-1 1-1 3h0l-2 2c-5 2-12-2-17-5 1 0 2 0 3 1h1c1 0 0 0 1 1h1 1v-1h1c1 0 1 0 2-1h0 0-2c-3-1-5-1-8-2h0z" class="F"></path><path d="M219 520l2-32c1 3 1 7 1 10v9 1 1c1 1 1 2 1 4l-1 1v3c0 2 0 3-2 5 0-1-1-1-1-2z" class="D"></path><path d="M239 464c1-18 10-37 21-52 0 2-3 5-4 7-2 2-3 5-5 8-7 15-10 29-9 45-2-1-1-5-2-7h0l1-1v-6 2l-1 4h-1zm276-328c9-4 19-3 28-1 3 0 8 1 11 2l2 1-24-2c-5 0-10 0-14 1-1 0-2 0-3-1z" class="B"></path><path d="M434 245c8 1 16 1 24 0l1 2h0-1s-1 0-1 1h-5c-4 1-10 2-14 2l-2-2-4-1c1-1 1-1 2-1h0v-1z" class="E"></path><path d="M232 628h1c2 5 2 11 3 17 1 8 3 16 2 24-5-12-5-28-6-41z" class="C"></path><path d="M733 117h1c-1 3-4 7-6 9-3 4-9 7-13 9h-2c4-8 13-13 20-18zm-161 89v-4l1-1c1 6 2 11 5 17 2 4 4 7 6 11 1 3 2 6 3 10-6-8-11-16-14-26 0-2-1-5-1-7zm66-90v1h-1c-5 2-10 3-15 6-10 6-18 15-25 25 1-4 3-9 5-12 9-11 22-17 36-20zm-144 21h0l-8 3c-3 2-6 4-9 5-9 3-18 3-26 7v-1c12-7 28-12 43-14z" class="B"></path><path d="M674 211c4 2 8 4 11 6 9 5 16 13 21 22-2-1-3-2-3-4-6-7-15-13-23-17-5-2-10-3-14-7h1c5 3 11 4 17 7v-1l-11-5 1-1z" class="F"></path><path d="M718 120h0l3-6c1-3 4-7 6-10h1c6-7 13-14 21-20l-4 4-11 11c-8 10-13 21-20 32h0v-1l1-1h0c0-1 0-2 1-3-1 1-1 1-2 1 0-2 1-3 2-4 0-1 1-1 1-2v-1h1z" class="E"></path><path d="M311 631v1c-2 5-7 10-12 13-2 1-5 2-7 1-1-1-2-1-2-2 2-2 4-4 7-5l14-8z" class="C"></path><defs><linearGradient id="E" x1="671.091" y1="197.036" x2="661.255" y2="192.683" xlink:href="#B"><stop offset="0" stop-color="#343435"></stop><stop offset="1" stop-color="#4e4d4c"></stop></linearGradient></defs><path fill="url(#E)" d="M659 184c2 0 2 2 4 1l1-1c1 1 0 1 1 2 1 3 3 5 5 8l5 4-3 2 3 4-6-4c-3-1-4-3-6-5-3-4-3-7-4-11z"></path><path d="M670 194l5 4-3 2h-1c-1-2-1-3-2-4l1-2z" class="G"></path><path d="M860 419h14c-3 1-5 1-8 2-4 2-6 4-8 8h0c0 3 0 5 1 7v1l-6-6c-1-2-1-5 0-7 1-3 5-4 7-5z" class="C"></path><path d="M467 302c-6-1-12-3-18-4v-1c9 1 17 3 26 3 6 0 10-1 15-1 4-1 7-1 11-1l2 1 1 2c-3 1-6 1-10 2l-27-1z" class="B"></path><path d="M712 170h0l-8 9c-7 8-19 14-30 14h-1c1-2 2-2 4-2 3-1 7-2 10-4 9-4 17-11 25-17z" class="E"></path><path d="M593 249h0c-1-2-1-2-1-3-1-3-1-7 0-9l1-23c1 3 1 6 1 9 0 6 0 12-1 18 3-5 6-10 7-16 1 1 0 3 0 4 1 8-3 13-5 20v1c-2 0-1 0-2-1z" class="B"></path><path d="M518 137c-2 1-3 2-4 4v1c0-1 1-2 2-2 5-4 28-1 36 0-4 1-9 0-13 0-8 0-16 1-24 2 2 1 6 0 8 1h14c-4 1-9 1-13 1-5 0-9 0-14-1v-1c1-3 3-4 5-6 1 1 2 1 3 1zm24-18c10 2 18 5 27 8s18 6 27 7c-19 1-37-6-54-15z" class="D"></path><path d="M496 338h1c-4 3-9 6-13 8-15 8-29 11-45 11h-1 0c7-2 14-3 21-4 13-3 25-8 37-15z" class="C"></path><path d="M616 195l2 11c0 3 1 8 2 10 0 1 0 2 1 3v1c-1 0-1 0-2 1h0c1 3 0 5 1 8l-1 1h0v-5l-2-1v1l-1-5v-1c-1 0-2-1-3-2 0-3 1-5 1-8s-1-6 0-9l-1-2 1-1h2v-2z" class="H"></path><path d="M616 195l2 11c-2 3-1 5-2 8v-6c-1-3-2-5-2-8l-1-2 1-1h2v-2z" class="F"></path><path d="M618 206c0 3 1 8 2 10 0 1 0 2 1 3v1c-1 0-1 0-2 1h0c1 3 0 5 1 8l-1 1h0v-5l-2-1v-6c0-2 0-3-1-4 1-3 0-5 2-8z" class="D"></path><path d="M617 218c2 2 2 4 2 7l-2-1v-6z" class="E"></path><path d="M794 364c-11-9-20-18-26-31 5 7 12 14 18 20 5 4 11 8 16 13-2 1-4 1-5 0h0c-2 0-3-1-3-2zM613 198l-3 6c1-3 1-5 2-8 0-2 1-5-1-7v-2c1-3 2-6 2-9 3-10 8-19 16-26-3 3-5 7-7 11-5 9-6 21-6 32v2h-2l-1 1z" class="B"></path><path d="M427 297c15 8 34 14 51 13h1l-2 1c-4 2-9 4-14 3-4-1-8-2-11-4-7-3-13-5-19-8-2-1-5-3-6-5z" class="E"></path><path d="M655 217c-2-1-3-2-4-3v-3c5 0 9 2 13 4l14 3c6 2 12 7 17 11l5 6c-9-7-20-13-31-16-5-2-10-2-14-2zM221 319h1l9-3c6-3 13-5 19-8 7-3 14-8 21-11-3 3-8 5-11 7-11 6-20 12-32 16l-13 5c-3 1-5 2-8 3l1-2 1-1 1-1c1 0 1 0 1-1h2l5-3c1 0 2-1 3-1z" class="B"></path><path d="M532 107c2 0 4 1 6 2l9 3 27 9c4 2 9 4 14 5h1-2c-8-1-17-4-25-6-2-1-5-3-7-2l2 1c9 4 19 6 29 9h2 1v1c-1-1 0-1-1-1-4 0-8 0-12-1-16-4-30-11-44-20z" class="E"></path><path d="M674 123h1c-15 11-32 19-42 36-3 6-4 12-7 17l-3 6h-1c0-2 0-5 1-7 1-6 5-11 8-16 3-6 7-11 12-16 9-9 20-15 31-20z" class="B"></path><path d="M610 236h0c-5-10-9-22-11-33-1-4-2-8-3-11-1-6 0-14 2-20-2 3-4 8-5 11-1 2-1 5-2 7h0c0-11 5-22 11-30 0 4-2 9-4 12v11h1v-1c0 10 0 20 3 30 1 3 3 6 4 10s3 9 5 14h-1z" class="I"></path><path d="M239 536c0 2-2 5-2 8-2 8-4 17-4 26 4-5 5-15 7-21h0c0 5-1 10-2 15l-3 12c-1-1-4-2-5-1 0 1 0 3-1 4l-1-2c-2-12 2-27 7-38-1 4-2 9-3 14s-2 10-2 15c2-4 2-9 3-13 2-6 3-13 6-19z" class="C"></path><path d="M731 252c-2-2-3-4-4-6l-7-9c-4-5-9-10-13-15l-15-15h0c8 5 14 12 21 19h0c-2-3-4-7-7-9l-16-16h0c5 4 10 8 15 13a30.44 30.44 0 0 1 8 8c4 4 7 9 10 13 3 5 6 10 9 14v2l-1 1z" class="J"></path><path d="M271 322v1c-2 3-6 7-8 11-3 5-4 11-7 15-1 2-1 2-2 3-3-2-5-4-6-7 0-4 5-10 7-13 3-3 7-6 11-8-6 6-10 10-13 18 1 0 4-5 5-6 4-5 9-9 13-14zm408-43c3 1 6 1 9 2 0 4 0 9 2 13 3 5 7 9 13 10 2 1 5 1 8 2v1h0c-5 1-13-1-17-3-9-6-13-15-15-25z" class="B"></path><path d="M391 748l25 1c7 0 15-1 22 0 1 0 2 0 3 1v2c-2 2-16 1-19 1-4 0-29-2-31-3l-2-1c-1 0-2 0-3-1h-1-1 5 2zm147-415c3-1 7 0 10 0-5 1-9 2-14 4-6 2-11 6-17 7-3 1-5 1-8 1l-10 1c10-8 26-12 39-13zm-172-43c1-1 3 0 4 0-2 1-4 0-6 1l-13 2c-15 3-29 9-42 17-6 5-12 11-18 16l-3 2 2-3c15-18 34-29 57-33 6-2 13-2 19-2z" class="C"></path><path d="M237 595l5 10c5 8 14 16 24 19s21-2 30-7h0l-1 1c-5 4-11 8-18 10-7 1-15 0-21-4-11-6-15-17-19-29z" class="B"></path><path d="M486 232c6 0 14-2 20-3l-1 1c-1 1-4 1-5 2-5 2-12 5-17 5-1-1-2-1-3-2-2-3-1-9-1-12h0c1-1 1-2 1-3 2-5 15-4 20-4 2 0 4 1 6 0h1 1c2-1 3-1 4-1-1 1-2 0-4 1h-2c-1 0-3 1-4 1-5 1-12 2-16 6l-2 1s0 1 1 2v3c0 2 0 2 1 3z" class="C"></path><defs><linearGradient id="F" x1="709.008" y1="163.207" x2="732.561" y2="164.296" xlink:href="#B"><stop offset="0" stop-color="#4e4d50"></stop><stop offset="1" stop-color="#7a7978"></stop></linearGradient></defs><path fill="url(#F)" d="M744 114v1c-2 6-5 13-7 20-4 16-7 31-19 44-8 8-22 17-34 17v-1l8-2c8-3 14-7 20-13 5-5 9-10 13-17 8-15 11-33 19-49z"></path><path d="M241 590c2 2 3 6 5 8 3 5 7 9 11 12 9 7 21 7 30 1 2-1 5-3 7-4l-2 2c-4 5-9 9-16 11-7 1-14 0-19-4-10-6-14-16-16-26z" class="C"></path><path d="M315 277c4-1 10-1 14 0-10 2-20 2-29 7v1c3-1 6-3 9-3 4-1 7-1 11-1l13-2c-7 3-15 4-23 6l-12 5c9 0 17-6 26-6h0c-3 2-6 2-9 3-5 2-14 6-19 4-1-1-2-2-2-3-1-1 0-3 0-4 4-6 15-7 21-7z" class="B"></path><path d="M231 587c1 2 2 9 3 11 0 3 2 6 3 9 5 10 12 18 23 22s22 2 32-4c2-2 4-4 6-5l-1 1-1 1c-7 7-16 13-26 13s-18-4-25-11c-10-10-14-23-14-37z" class="C"></path><path d="M497 170c7-2 13-2 20-4l20-5 32-6c2 0 6-2 8-1-5 2-10 3-14 5-15 5-31 10-47 11-6 1-12 1-18 0h-1z" class="B"></path><path d="M659 184c0-6-1-16 1-21 1 1 0 1 1 2 0 5 3 12 6 16-2-8-2-18 1-27 0 8 3 15 6 22 1 2 2 6 4 7l1 1c-1 2-2 2-3 3l-3 1-3 3v-1c-1-1-2-2-2-4-1-1-1-2-1-4-1 1-1 2 0 3 0 4 3 6 5 9l17 16h0l-14-12-5-4c-2-3-4-5-5-8-1-1 0-1-1-2l-1 1c-2 1-2-1-4-1z" class="C"></path><path d="M181 423h0c10-4 20-13 26-22 3-4 5-8 8-12 4-6 9-11 13-17 3-5 7-12 12-16l-7 15c-7 15-16 29-29 40-3 3-6 5-10 7-3 2-6 3-9 5-1 1-4 1-5 3h-1c-1 1-1 0-2 0 0-1 1-1 1-1 1-1 2-2 3-2z" class="D"></path><path d="M222 509h0c2-6 1-14 0-20 0-3-1-5-1-8 6 15 5 36-2 51 0 1-2 4-3 5-6-7-8-14-8-23 1-8 3-16 5-23 0-1 1-5 2-6-1 15-6 29 0 43 0-6-1-11-1-16 0-7 2-13 3-20 0-2 0-6 1-8 1 9-1 19-1 28 0 3 1 6 2 8 0 1 1 1 1 2 2-2 2-3 2-5v-3l1-1c0-2 0-3-1-4zm206-181h1c13 3 27 0 39-7h0c-12-1-24-6-34-12h-1c17 6 34 12 50 5l29-15h0c-8 7-17 13-26 18-15 9-30 17-49 15-5 0-10-1-15-2l1-1c2 0 3-1 5-1z" class="B"></path><path d="M350 311c1 0 1 0 3 1l-1 1c-2 2-5 3-8 4s-6 3-10 4c-12 8-23 19-29 32-2 5-4 10-5 15-1-3-1-7 0-10l3-9c-2 2-4 5-5 8-2 4-4 7-7 11 3-10 9-16 13-24l-4 4c-2 2-4 5-6 8s-4 8-3 11c1 1 1 1 2 1 2-2 4-5 5-8 0 2 0 3-1 5-1 3-4 5-7 6l-6 3c2-7 4-13 7-19 4-6 9-11 15-16 13-12 25-24 44-28z" class="C"></path><path d="M180 426h1c7-2 14-5 19-9 19-12 31-33 40-53l4-7c-1 5-3 9-5 14-2 6-4 12-8 18-4 7-9 13-15 18-3 4-6 8-10 11-11 8-28 14-42 14h-1c1-1 2-1 3-2h0-2-1v-1c14-7 28-14 37-27 4-5 7-11 12-15-1 4-2 7-4 11-6 11-17 18-27 25-1 0-2 1-3 2 0 0-1 0-1 1 1 0 1 1 2 0h1z" class="B"></path><path d="M449 218c-3 0-7 0-10-1h-6c2 1 5 1 7 1 3 1 7 1 10 2s6 4 9 5c-3 0-5-1-8-2-5-1-12-1-17-1-2 0-3 0-5 1 8 1 16 1 24 2l-42 1 17 4c5 2 9 3 14 4 3 1 7 0 11 0 5 0 10 0 16-1 1 0 0 0 2 1 0 1 0 2-1 4-3 1-8 1-11 1h-18c-17-3-32-12-49-16 12-5 26-9 39-9 6 0 12 1 18 2h0c3 1 5 1 8 2h2 0 0c-1 1-1 1-2 1h-1v1h-1-1c-1-1 0-1-1-1h-1c-1-1-2-1-3-1zm102-68v1h1c2-1 4-1 6-1h2-2 0-1c-1 0-2 1-3 1v1c-9 2-18 3-27 5-5 2-10 3-15 5-2 1-6 2-8 3 5 0 11-2 16-3l34-8c4-1 8-2 12-2-9 3-18 5-26 7-9 2-18 5-27 7-3 0-7 1-11 1-1 0-4 1-5 2v1l-2 1c3 1 7 1 10 1 26 1 52-8 76-15-13 9-32 16-48 18-17 3-34 2-50-1 5-4 11-8 16-11 15-9 34-12 52-13zm-167 33c4 0 9-2 13-3 11-3 23-6 35-6l-53 14c-12 2-25 3-38 2-9 0-18-1-27-4s-17-8-25-13c6 2 11 4 17 5 24 5 50 2 74-1h10-4 0c-1 0-2 1-3 2h0c-11 3-23 3-34 4h-16c-4 0-9-1-13 0 5 1 12 1 18 1 12 0 24 0 36-2l7-1v2c1 1 2 1 3 0z" class="C"></path><path d="M374 182l7-1v2l-8 3-1-1c2-1 1-1 2-3z" class="F"></path><g class="C"><path d="M312 646c2 2 5 5 8 7 8 7 19 12 29 18 20 10 39 18 61 22-13 1-27 1-40-1-12-1-23-2-33-8-11-5-20-13-28-22-3-4-5-7-7-12 4 3 7 7 10 10 9 8 18 15 29 21h0l-14-11c-5-4-9-8-13-12-3-3-5-5-6-9 17 19 36 36 62 39-3-1-7-2-10-3-6-2-12-5-18-9-4-2-7-5-11-8-3-2-7-4-9-7 3 0 13 8 16 10 9 6 21 12 32 15-4-2-8-4-12-5-9-5-18-11-27-16-4-3-9-5-13-9-3-3-4-7-6-10zm-38 6h1c1 0 3 1 4 2 4 2 7 6 10 9 6 6 13 12 21 17 30 21 66 31 102 24 6-1 12-2 17-4 4-1 8-3 13-4 1 1 1 1 1 2-3 4-14 6-19 8-16 4-33 7-50 5-26-2-53-15-73-31-4-3-9-7-12-10-5-4-8-9-14-11-7 2-11 5-17 10 4-8 8-14 16-17z"></path><path d="M273 670c3 0 10 6 12 8 21 17 47 32 74 39 15 4 30 5 45 5h25c3-1 8-1 11-1 2 1 2 1 2 2s-1 2-2 2c-47 10-93-1-134-25-10-7-19-14-28-22-2-2-6-4-6-6l1-2z"></path></g><path d="M219 593c2 19 0 36-3 54-2 12-5 24-6 37v10l1 9v4c-5-20-7-41-9-61 0-10-1-21 0-31 0-14 2-28 4-41v-2h1c0 1 0 1-1 2v8l-1 20-1 19v21l1-2v-13l1-19 3-36c0-4 0-10 1-14v39c0 6-2 13-1 19l-1 57c2-7 2-15 2-22l3-53v-8-8c1 3 2 6 2 9 0 2-1 5-1 7 1 5 1 9 1 13 1 8 1 15 1 22 1-13 1-26-1-38h1c1 0 2-1 3-2z" class="B"></path><path d="M457 345c-4 2-8 2-12 3l8-4c-7-2-14-4-21-7-10-3-26-8-37-3-3 2-5 4-6 7 0 2 0 4 1 6h1c1-2 2-4 5-4 1 0 3 0 4 1 2 2 3 3 3 5 0 3-1 5-2 7-2 2-5 3-8 3s-6-1-8-4c-5-4-5-9-5-14-3 5-5 12-3 18 1 5 5 9 10 11 5 3 11 3 17 1 5-2 9-6 12-11 1-4 1-10-1-14h0v-1c3 3 4 7 4 11 0 5-2 10-6 14-5 5-13 6-21 6-6-1-10-4-14-8-4-5-6-12-5-18 1-9 7-17 14-22 7-6 19-9 29-8-2 1-4 1-5 1-10 2-19 6-25 13 4-2 7-5 12-6 9-2 19-2 29-3 6 0 13-2 19-2-1 1-2 1-3 2l-15 3c-2 0-3 1-5 1l-1 1h-1c1 1 5 2 7 3 5 2 12 6 18 6 4 1 9 1 13 0-2 2-2 3-2 6zM208 455l-29 59h1c8-12 16-24 22-37l12-23 8-17 6-11c1-2 2-4 3-5 0 2-2 5-3 8l-5 11c-5 14-10 28-16 41-12 22-28 40-45 58l19-43 9-23c7-16 15-32 25-46 4-6 7-11 12-16-1 3-3 6-5 9l-14 24c-3 6-7 12-10 18l8-10c0 1 0 2 1 2h1v1zm0-129h-10l8 2c-11 3-23 4-34 4h-8 2c8 2 20 1 29 0 4-1 7-2 11-2-2 2-5 2-8 4h1c2 0 5-1 7-2 2-3 7-4 10-5l-6 4c6-1 12-4 17-6l30-15 25-16c-26 23-56 44-92 46-15 1-30-1-41-11 17 3 35-2 52-7l30-12 33-14c5-2 11-4 16-5-6 4-13 7-20 10l-16 8-16 7c-2 1-5 1-7 3h0c-1 0-2 1-3 1l-5 3h-2c0 1 0 1-1 1l-1 1-1 1zm210-70l-45 8c0-12 2-24 4-36 3 0 6 2 9 3 16 4 31 11 48 14v1h0c-1 0-1 0-2 1l4 1 2 2c4 0 10-1 14-2h5 0c1 0 2 0 4 1-12 4-24 5-36 6-2 0-5 1-7 1z" class="C"></path><path d="M457 248c1 0 2 0 4 1-12 4-24 5-36 6-2 0-5 1-7 1l-1-1h1 3c1-1 3-1 4-1 1 1 1 0 2 0h4 1v-1h3v1c1-1 2-1 4-1 1 0 1 0 2-1h2-3l-5 1h-10-6c-3 1-7 1-11 0 9-1 19-1 27-1 8-1 15-3 22-4z" class="D"></path><path d="M457 248h0c-7 1-14 3-22 4-8 0-18 0-27 1l-5 1c-4-1-14-1-16-3l1-1c7 1 12 1 19-1l1 1 1 1c1 1 1 1 2 0v-1h1l2-2v1c4 2 20 1 24 1s10-1 14-2h5z"></path><path d="M407 249c-2-3-9 0-13-2 1-1 12-1 14-1h3l-1-1 1-1h2c1 1 1 1 2 1h3c1 1 1 1 3 1 1 1 3 0 4 0l1 1h6l4 1 2 2c-4 0-20 1-24-1v-1l-2 2h-1v1c-1 1-1 1-2 0l-1-1-1-1z" class="B"></path><path d="M713 114h0c0 1 0 2-1 3v5h0l2-5h0v4l1-2c1 1 1 1 2 1v1c0 1-1 1-1 2-1 1-2 2-2 4 1 0 1 0 2-1-1 1-1 2-1 3h0l-1 1v1c-1 2-1 4-2 6-3 4-6 7-8 11l25-18c-2 3-4 6-7 9-5 6-12 10-17 17-1 2-2 4-3 5l20-18c-5 9-13 15-19 22-3 4-4 9-8 12-4 4-8 8-13 10-1-1-1-2-2-3-3-8-4-16-4-24v-8h0c1-2 1-3 2-4h0l-1 9c2-6 3-12 6-17-2 11-2 21 3 31l-1-13c-1-6 1-16 4-22 0 0 3-3 3-4 1-1 2-2 3-2l1-1v1c-1 3-1 6 0 9 1 2 3 4 4 7l1-1-2-2c-1-4-1-7 0-12v-5c1-1 1 0 1-1 0 3 0 5-1 8v1c-1 3 1 8 3 10 0-2-2-6-2-8l1-1c1 2 1 4 2 6 0-2-1-4-1-6v-6c0-1 0-3 1-4v8l1 1v-7c1 1 1 2 1 4h1c0-3 0-8 1-11v-1 12c3-6 3-12 6-17z" class="C"></path><path d="M695 130l1-1v1c-1 3-1 6 0 9 1 2 3 4 4 7l1-1v1l-1 1-1 1v2 4h-1l-3-10c0-1 0 0-1-1l-1 3c0-3 0-6 1-8h0c-1-2-1-1-2-2v-4c1-1 2-2 3-2z" class="G"></path><path d="M695 130l1-1v1c-1 3-1 6 0 9 1 2 3 4 4 7l1-1v1l-1 1-1 1v2c-2-3-4-8-4-12v-1-7z" class="E"></path><path d="M692 136c1 1 1 0 2 2h0c-1 2-1 5-1 8v11c0 5 1 10 1 14-2-4-3-8-4-13v-9l2-13z"></path><defs><linearGradient id="G" x1="690.413" y1="145.757" x2="683.225" y2="150.675" xlink:href="#B"><stop offset="0" stop-color="#a5a3a4"></stop><stop offset="1" stop-color="#c1c1c1"></stop></linearGradient></defs><path fill="url(#G)" d="M692 132v4l-2 13v9h-5c-1-6 1-16 4-22 0 0 3-3 3-4z"></path><path d="M692 132v4l-2 13v-1c-2-4-2-6 0-10h0l-1-2s3-3 3-4z" class="K"></path><path d="M310 250v1h8c-11 3-22 5-32 12 3-1 6-2 8-3 10-4 18-7 28-8l-11 4c-2 0-5 1-7 2h0c3 0 6 0 9-1-4 2-9 3-13 4 3 0 6 0 9-1 7-1 15-3 22-5l-12 6c13-2 25-6 38-5 2 0 4 0 6 2 1 1 1 2 0 3-2 2-3 3-6 3-11 2-23 1-35 1-19 1-41 4-60 11 22-19 45-39 75-43 6-1 13-2 20-2 3 0 6 0 9 1 1 2 1 3 1 5 0 1-1 3-2 4-2 1-2 1-4 1-1-1-3 0-4 0-8-1-16 1-24 1-6 0-11-2-17-1 5 2 11 4 17 5h1c-2 1-4 0-5 0-5-1-17-1-21 1h0l1 1 1 1z" class="C"></path><path d="M351 239h-19c3-1 5-1 8-1h4l7 1h0 0z"></path><path d="M349 235c2-1 3-1 4-1l1 1c2 0 5 1 6 4h1v3c-1-1-3 0-4 0l1-1v-1c-3-1-5-1-7-1h0 0l-7-1h7l-4-3h2z" class="G"></path><path d="M349 235c2-1 3-1 4-1l1 1v2 1c-3-1-3-2-5-3z" class="B"></path><path d="M353 257c1-1 5-1 7 0l-1 1c-2 2-16 2-20 3l-9 1c3-1 5-3 8-4 5-1 10-1 15-1z"></path><path d="M558 175l8-4c-5 6-10 11-15 16-4 3-7 7-12 9h0c-7 5-15 6-23 9l16-3h0c-1 0-2 0-2 1-8 2-14 3-22 3-16 2-34 1-50-1-21-3-41-8-62-5-10 1-20 6-26 14-1 3-2 6-4 9-1 1-3 1-4 1-3 0-5-1-6-3-2-2-3-4-2-7 0-4 3-7 6-9 19-13 43-16 65-15 9 1 17 2 26 4l19-2 53-8 26-6c3 0 6-2 9-3z" class="B"></path><path d="M558 175l8-4c-5 6-10 11-15 16-4 3-7 7-12 9l1-1c0-1 1-1 1-2h1c1-1 2-1 3-2s0-1 1-1c2-2 3-4 6-5 1-1 4-5 6-6-1 0-1 0-2 1-4 5-11 9-16 13-1 1-2 1-4 1h-1c-1 1-2 2-3 2h-1 0l2-2 6-3c1-1 2-2 4-3h1c1-1 1-2 2-2l2-2c1 0 1-1 2-1 1-1 2-2 3-2 1-1 2-3 3-3l2-2v-1z" class="E"></path><path d="M549 178c3 0 6-2 9-3v1l-2 2c-1 0-2 2-3 3-1 0-2 1-3 2-1 0-1 1-2 1l-2 2c-1 0-1 1-2 2h-1c-2 1-3 2-4 3l-6 3-2 2h0c-1 1-2 1-3 1-1 1-2 1-3 2l-3 1-1-1h1l1-1v-1s1-1 2-1l5-1c1-1 1-2 3-2l1-1h1l1-1 2-1c2-1 3-2 5-3l1-1c1-1 2-2 4-3 0 0 1-1 2-1 0-1 1-1 1-2-2 1-5 2-7 3l-11 6c-4 2-10 7-14 6h1c2-1 6-3 7-4l2-2 3-1c1-1 2-1 3-2l10-5s1-1 2-1 1 0 2-2z" class="D"></path><path d="M470 192l53-8 26-6c-1 2-1 2-2 2s-2 1-2 1l-10 5c-1 1-2 1-3 2l-3 1-2 2c-1 1-5 3-7 4h-1l-3 1h-1c-1 1-1 1-2 1h-2l-1 1h-2c-5 1-11 1-16 1-4 0-7 0-10-1-2 0-4 1-5 0h-6l-15-2c-2-1-4-1-5-2l19-2z" class="B"></path><path d="M470 192l2 2c8 0 17 1 25-1h3c3-2 7-1 9-2h3c1-1 0-1 1-1h1 2 0c-1 1-3 1-5 2-3 1-6 1-9 1-1 0-3 1-4 1h-2l-9 1c-1 0-4 0-5 1 1 0 1 1 2 1h1 1c2 1 6 0 8 0s4 1 5 0h1 6c1-1 2 0 3-1h3c0-1 0-1 1-1 4-1 8-2 11-4h3c-1 1-5 3-7 4h-1l-3 1h-1c-1 1-1 1-2 1h-2l-1 1h-2c-5 1-11 1-16 1-4 0-7 0-10-1-2 0-4 1-5 0h-6l-15-2c-2-1-4-1-5-2l19-2z" class="E"></path></svg>