<svg xmlns="http://www.w3.org/2000/svg" xmlns:v="https://vecta.io/nano" viewBox="174 96 708 840"><!--oldViewBox="0 0 1023 1024"--><style>.B{fill:#191817}.C{fill:#0f0f0f}.D{fill:#e0dacb}.E{fill:#e5dfcf}.F{fill:#ede6d7}.G{fill:#d6d1c3}.H{fill:#343431}</style><path d="M727 464c1 0 1 0 2 1 0 2 0 2-1 4h-2v-1-3l1-1z" class="F"></path><path d="M724 498h0 7c5 0 11 0 16 1h-20-11l8-1zm2-56h0l2 10h2l-1 1c0 2 0 2 2 3-1 0-2 0-2 1v1c1 2 1 3 0 5h-1c0-2-1-4-1-7-1-2 0-4-1-6v-1c0-3-1-5 0-7zm-429 0l1 2h0c-1 1-1 3-1 4l-1 1v1c0 1 0 3 1 5l-1 1v1c0 1-1 2-1 2v1c-1 1 0 3-1 4 0 2 0 4 1 6h-1c-1-1-1-1-1-3h-1c0-3 1-8 1-12l1-3h-2c1-1 1 0 2-1 1 0 1-5 1-6 1-1 2-2 2-3z" class="D"></path><path d="M391 273h1c3 2 5 7 7 11 2 2 4 4 4 6l-1 1-2 1c-3-4-5-8-7-11-1-2-2-5-3-7l1-1z" class="C"></path><path d="M629 272h0c2 1 2 1 3 2l-10 18-3-3 10-17z" class="B"></path><path d="M671 627l3-3c3-2 4-5 7-8 1-1 2-3 4-4-2 4-5 7-7 11-1 2-2 4-4 6v2l-1 1h-1c-1 0-1 0-2 1s-2 1-3 2c-1 2-3 3-5 5-1 1-2 2-3 4-1 0-2 1-2 2l-2-1c0-3 2-3 3-5 2-2 4-3 6-5s5-5 7-8z" class="G"></path><path d="M550 628c3 3 4 7 6 11 5 10 10 20 13 30l-10-17c-3-4-7-9-8-14-1-3-1-7-1-10z" class="C"></path><path d="M692 377h1l6 9c1 2 2 3 3 5v1h0v1l1 1c0 1 1 2 1 4 1 0 1 1 2 2 0 1 1 2 1 3l2 3v1c1 1 1 2 2 3 0 1 1 2 1 3s0 2 1 4c2 4 3 7 4 11 1 1 1 2 1 3v2l1 2v2l1 2v2c1 1 1 1 1 2v1h-1v-2l-1-2c0-1-1-2-1-2 0-2 0-3-1-4v-1c0-1 0-1-1-2v-2c-1-1-1-2-2-3v-1-2c-1-1-1-2-2-3l-1-4-9-18-10-21z" class="D"></path><path d="M457 630c1 4 1 10 0 15-1 4-4 8-6 11l-9 17c1-4 3-8 4-12 3-11 6-22 11-31zm176-174h0l53-27-53 34-2-6c1 0 1-1 2-1z" class="C"></path><path d="M630 671c-1-2-1-3-1-4l1-1c0 1 0 2 1 2h1c1-1 2-3 3-3l1 1-1 1c0 1-1 2-1 3l-1-1 1-1h0c-1 0-1 0-2 1h-1-1 0c1 2 1 3 1 5l1-1h3 0c1-1 1-1 1-2l-1 1-1-1 1-1h1 1c2-1 4-3 6-4 0-1 1-1 2-2v-1c1-1 1-1 3-1-1 1-2 2-3 4h-1l-4 3v1c-2 1-3 1-4 3 1 1 3 0 4 2h-1c0 2 0 4-1 5h-1c-2 0-3 0-4 1l11 16 6 9 7 9c1 1 2 2 2 4l-22-26c3 1 4 3 6 5l3 4h1l-1-1h-1v-1c0-1-1-1-1-2l-2-2c0-1-1-1-1-2-2-2 1 1-1-1-1-1-1-1-1-2h-1l-6-8v-1l-1-1-1-1c-1-2 1 0-1-1-1-1-1-2-1-4h-1 0-1l-1-1h-1-1c2-1 2-1 4-1l3-2z" class="G"></path><path d="M630 671v3 1l-3-1v-1l3-2z" class="D"></path><path d="M633 681l-4-4 4-4 4 7c-2 0-3 0-4 1z" class="H"></path><path d="M338 431c1 0 47 22 51 25l-2 4c0 1 0 2-1 2l-48-31z" class="C"></path><path d="M551 370h16c-3 4-5 9-6 14-1 2-1 4-1 6l-9-3v-17zm80 87l-5-12c4 0 8-2 12-3l40-12-29 14c-6 3-13 5-18 9 1 1 1 2 2 3-1 0-1 1-2 1zm-303-34c6 0 14 4 19 6l47 16-3 5c0 1-1 1-1 2l-62-29z" class="B"></path><path d="M585 400h1c4-6 8-14 11-21 1-3 2-8 4-9 0-1 3 0 4 0h1c-2 8-4 14-7 21-2 5-5 10-7 15h0l-8-6h1z" class="C"></path><path d="M457 653v34l-11-3-4-1 15-30z" class="B"></path><path d="M640 670c2 1 3 2 4 4v1l-2 3c1 2 5 11 7 13 0 4 4 8 5 12l1 1v3c1 2 1 4 2 5 2 3 4 6 5 10 0 0 0-1-1-1s-1-1-2-2c0-2-1-3-2-4l-7-9-6-9-11-16c1-1 2-1 4-1h1c1-1 1-3 1-5h1c-1-2-3-1-4-2 1-2 2-2 4-3z" class="C"></path><path d="M640 670c2 1 3 2 4 4v1l-2 3c1 2 5 11 7 13 0 4 4 8 5 12l1 1v3c-4-4-6-10-9-15l-8-12c1-1 1-3 1-5h1c-1-2-3-1-4-2 1-2 2-2 4-3z" class="D"></path><path d="M362 604l50-34c3 2 5 5 8 7-2 0-3 0-5 1-4 2-8 5-12 7l-21 11c-8 4-16 9-26 11l6-3zm30-62h0c2 1 4 5 5 7-8 2-15 5-22 6-5 1-9 1-14 2-6 1-13 4-19 6-1 1-2 1-4 1 2-9 10-9 17-13 2-1 5-4 7-4 2-1 5 0 7-1 5 0 10 0 15-1 3-1 6-1 8-3zm-23-298h1c2 2 4 6 6 9 7 13 14 27 20 41l-24 1-13-1 26-18-16-32zm283 0l-7 15c-3 6-5 11-8 16v1l26 18-10 1c-9 0-18 0-27-1 2-5 4-10 7-15 5-12 11-24 19-35zm-116 36c18 2 35 7 52 15h-51l-1-15z" class="B"></path><path d="M716 499h-6-12l-84 1h-10-5v-4c3-1 6-1 8-1h14l61 1 27 1c5 1 10 1 15 1l-8 1z" class="C"></path><path d="M486 280h0l1 1c-1 4-1 10-2 14h-48l-1-1h0c5-3 11-5 16-6 11-4 22-7 34-8z" class="B"></path><path d="M369 495h53c1 2 1 4 1 5h-72l-56-2 74-3z" class="C"></path><path d="M584 400c-4-1-7-3-11-5-3-2-7-3-10-4v-1c2-3 3-7 4-10 1-4 3-7 5-11l8 1c-2 3-4 5-5 9v1c0 4-1 10 0 14l1 1c1-1 2-2 2-3 1-4 1-9 3-13h3c1-1 1-2 1-3h0l-1-1c0-2 0-4 1-6l11 1c-2 4-13 26-12 30h1-1z" class="B"></path><path d="M625 546h1c2-1 8 1 11 2 5 1 11-1 16 0 4 0 8 4 11 6 4 2 9 4 13 6l3 8c1 1 3 3 3 5l-2-1c-8-5-17-10-27-13-5-2-9-1-14-3-6-1-12-3-18-5 1-2 2-4 3-5z" class="C"></path><path d="M550 645l23 39c0 1-1 1-3 1l-19 5-1-45z" class="B"></path><path d="M378 668h0l11 7c2 1 3 2 4 3h0c1 2 1 2 1 4l-1 2-2 2c-2 0-3 1-5 0-2 1-3 3-4 5l-9 8 1 1-26 28h0l1-2v-3l4-8c1-2 2-5 4-7v-1l3-6 1-1 1-1 1-2 4-7v-1c2-5 5-10 7-15 1-1 1-4 2-5 1 0 1 0 2-1z" class="E"></path><path d="M378 668h0l11 7c-3 2-4 4-6 7v1c-2 0-2-1-3-2l4-6-6-7z" class="H"></path><path d="M389 675c2 1 3 2 4 3h0c1 2 1 2 1 4l-1 2-2 2c-2 0-3 1-5 0-2 1-3 3-4 5l-9 8 1 1-26 28h0l1-2c3-3 5-8 8-11l8-12c5-8 9-15 15-22 1 1 1 2 3 2v-1c2-3 3-5 6-7z" class="E"></path><path d="M386 686c0-1 0-1 1-2s2-2 3-2c1 1 2 1 3 2l-2 2c-2 0-3 1-5 0z" class="F"></path><path d="M349 726c3-3 5-8 8-11l8-12c5-8 9-15 15-22 1 1 1 2 3 2l-25 32c6-4 11-11 15-16l1 1-26 28h0l1-2z" class="C"></path><path d="M525 185l3 16 6 37 36 6 10-17c0 3-2 5-3 7l-8 15c-2 3-7 13-10 15-1 0-3 0-3-1-2-3-1-7-4-10-2 1-4 5-5 7-2 0-3 0-4-1-1-2-1-5-2-7 0-1 0-1-1-1-1-1-3 0-5 0-1 2-1 5-1 7-2-6-2-12-3-18l-5-37c0-5-2-12-1-18zm-27 1c1 3 0 8-1 11l-5 40c-1 7-1 14-4 20-1-2-2-5-3-6-1-2-2-2-3-2-3 3 0 9-2 11-2 0-3 1-5 0-1-1-3-5-5-7-1 0-2 0-4 1-1 3-1 7-1 10-6-3-9-6-12-12l-10-18c-1-1-2-4-2-5l9 16c4 0 10-2 14-3l24-4 7-35c1-5 1-12 3-16v-1z" class="B"></path><path d="M431 210c2 2 3 5 4 7l6 18c3 10 8 22 7 32 0 1 0 2-1 2-3 0-6-4-8-6h-3c-1 3-1 8 0 11v1c-3-3-8-8-12-10-2 1-2 1-3 2 0 5 2 9 3 13-2-2-4-4-7-6h0-1c-1 0-1 0-1 1-3 2-1 6-1 9-5-4-12-10-18-13l-1-1c3-2 8-4 11-6 11-6 23-11 34-15l-9-39zm158 2h0l-9 36c3 2 9 4 12 5 8 3 16 6 24 11 4 1 7 3 10 6-1 1-3 2-5 3-4 3-8 7-12 10 1-2 2-5 1-8l-1-1c-2 0-3 0-4 1l-3 4c-2 0-3 0-4-1 0-3 1-7 2-10l-1-1c-1 0-3-1-4 0-2 0-5 5-6 6s-2 1-3 0c-3-2 0-7-1-10-1-1-2-2-4-2-2 1-3 6-4 8-2 0-4-1-5-2-1-3-1-7 0-10 2-10 7-20 11-30 2-5 3-10 6-15z" class="C"></path><path d="M393 684l1-2c0-2 0-2-1-4l17 9c-3 2-7 5-8 8 2 2 3 4 5 6 1 0 2-1 3-1 5 0 8 1 13-1v1c-1 5-4 10-6 15l-14 28c0 1-1 2-1 3l1 1c0 1-2 2-2 3-2 3-4 7-6 9l16-43-13-6-14-7c-2-2-5-4-7-5-1 0-2 1-3 2l-1-1 9-8c1-2 2-4 4-5 2 1 3 0 5 0l2-2z" class="B"></path><path d="M671 627c1-1 1-3 2-4 1-2 3-4 4-6l13-18v1c1 0 1-2 3-2-1 1-1 1-1 2-1 1-2 2-3 4l7-7 2-2 1-1v-1c1-2 0-1 1-2h0v-1c1-1 1-1 1-2 1-2 0 1 1-1 0-1 1-2 1-3h0l1-2c1-1 1-2 1-3h0l3-5 2-5h0c0-1 1-2 1-3h0v-1c1-1 1-1 1-2v-1c1-1 1 0 1-1 0-3 1-5 2-7l1-5 1-2v-1-2l2-5c0-1 0-1 1-2v-1c1-2 0-3 1-4h0c0 1 0 2 1 3 0-1 0-2 1-3h0v-1c1 2 0 4-1 5l-3 10v2c-1 1-1 2-1 2l-1 2v2l-1 2v1 2l-2 5c0 1 0 2-1 2v1l-1 2-3 6-1 3-1 3-3 7v3c-1 0-1 1-1 2 2 0 2 1 3 2l1 1 1 1c1 1 2 3 3 3 2 0 3-1 4-2h1c1-1 2-2 2-3h0c1-2 1-1 1-2l-2-2c-2-1 1 1-1 0-1-1-1-1-2-1v1 1 2l1-1h1 0c-1 1-1 2-3 3h0v1c-1 1-1 1-2 1l-2-2v-1c0-1 0-2 1-3l-1-1c0-1 0-2 1-3h0v3h0v1c1 1 1 0 1 1v1l1 1v-1c0-2 1-4 0-6-1 0-1 0-2-1 0 0-1 0-1-1h-1v-1c0-1 0-1 1-2h2v-1h3c0-1 0-1-1-2l1-2h1c1 2 0 3 1 5h0c-2 0-6 0-7 2 2 4 12 5 10 10-1 3-4 5-6 6-2 0-3 0-4-2l-5-5h-1c-1 1-1 2-1 3 1 4 5 8 5 12 0 0 0 1-1 1-1 1-1 1-3 1-2-1-4-2-5-3l-3-3c-1 2-1 3-2 5l1 2c1 3 3 4 6 6l5 3c-4 1-12 2-16 0 0-1 0-1-1-2v-1c-1 1-1 2-2 4 4 3 9 6 13 10 2 1 4 2 5 4h-1c2 1 2 1 3 2l1 1h1l5 6h-1l-1-1h0l-1-1h-1c-3-2 1 0-2-1l-1-1v-1h-1 0c-1-1-2-1-2-1l-1-1v1l-21-14c-2 4-3 7-2 11l1 2 2 3-1 1c-2 1-4 1-6 0s-3-3-4-4l-4 6c2 3 4 6 5 9v1l-1-1v-1h-1l-1 1c-2 0-3-1-4-2l1-2h2l1 1h0 0v-1l-3-4v-1-1l2-3h1c0-1 1-3 3-3l1 2 1 1c3 2 3 2 6 2v-1-2l-1-1c-1-1-1-1-1-3-1-1 0-2-1-3l-1 1s0 1-1 1v1l1 1c1 1 2 2 2 3l-1 1h-2c-1-1-1-1-1-2s-2-2-2-4l1-1v-1l1-1v-2c2-2 3-4 4-6 2-4 5-7 7-11-2 1-3 3-4 4-3 3-4 6-7 8l-3 3z" class="D"></path><defs><linearGradient id="A" gradientUnits="userSpaceOnUse" x1="450.243" y1="703.504" x2="417.372" y2="759.203"><stop offset="0" stop-color="#171716"></stop><stop offset="1" stop-color="#31302c"></stop></linearGradient></defs><path fill="url(#A)" d="M403 743c2-1 3-3 4-4l9-15 12-18c2-4 4-7 7-10 5 2 10 3 15 6h-2c-3 1-5 3-7 5 0 1-1 3-1 4 0 2 1 2 2 3 3 1 6 1 8 0s5-3 7-3v21l-10-3c-4 5-6 10-9 15l-17 33 13-51-14-5-11 16c-2 3-4 7-6 10l-1-1c0-1 1-2 1-3z"></path><path d="M439 728h0c1 0 2 0 3 1-3 4-5 9-8 14v1c-1-2 1-4 1-6l4-10z" class="G"></path><path d="M695 370l28-1c5 10 10 20 14 30l9 26 26-1-48 6-1-1-1-2s0-1 1-1c0 0 3-2 4-2 3-2 6-4 9-7-1 0-3 0-5-1-4 0-9-1-14-1 5-4 9-7 12-12-6-1-12-1-18 0-1-1-2-4-2-5 2-1 3-1 4-2 2-2 5-5 5-8l-2-1c-4-1-8 3-11 5-1-2-2-5-3-7l9-6c-1-2-1-4-2-6-4-1-9-1-13 0v1c-1-2-2-2-2-4h1zM367 690c-5-4-10-8-14-12-13-10-25-23-35-36l-32 19v-1l32-23c5-4 10-7 15-11 0-1 0-1 1-1 2 1 2 3 3 5l-7 4c-2 2-3 3-3 6 0 0 0 1 1 1 4 1 11-2 14-4l1-1c3 3 6 7 9 10h-2c-2 1-4 3-5 5-1 3 2 8 4 11 3-1 6-2 9-4 1-1 1-2 2-4h1l3 3 3 3c1 1-1-1 1 1 1 0 1 1 2 1l3 3 5 3h0c-1 1-1 1-2 1-1 1-1 4-2 5-2 5-5 10-7 15v1z" class="C"></path><path d="M364 657l3 3c1 1-1-1 1 1 1 0 1 1 2 1l3 3c-1 1-2 3-3 4-2 2-3 3-6 3-2 0-3-1-4-3s3-9 4-12z" class="E"></path><path d="M300 429l-1 1c-5 0-38-4-40-5l16 1c6-19 12-39 23-56h32l-5 6c-2-1-4-3-7-3-1-1-5-1-6 0s-2 2-2 4c3 3 7 5 10 8l-4 7c-2-1-4-3-7-4-2-1-6-1-9 0-1 1-2 1-2 3 1 0 3 1 4 2s2 2 2 4v1c1 1 4 2 6 3 0 1 0 2-1 3-2 2-7 0-10 1-2 1-2 2-3 4 2 3 6 3 9 5v2c0 2 0 3-1 5-1 1-1 2-2 2v1c0 1 0 1-1 2 0 1 0 2-1 3z" class="C"></path><path d="M300 429l-1-1c-5 0-11-2-15-6l1-1c3-2 9-3 14-2h4l2-3c0 2 0 3-1 5-1 1-1 2-2 2v1c0 1 0 1-1 2 0 1 0 2-1 3z" class="E"></path><path d="M672 654v-1c-1-3-3-6-5-9l4-6c1 1 2 3 4 4s4 1 6 0l1-1-2-3-1-2c-1-4 0-7 2-11l21 14 20 13-14-14h0c6 4 11 10 16 15 4 3 7 6 11 9l-35-19c-14 18-32 36-51 48-2-2-6-11-7-13l2-3v-1c-1-2-2-3-4-4v-1l4-3h1c1-2 2-3 3-4v-1l3-3c1-1 1-1 3-2 0-2 0-2 2-4 1 0 1 1 2 0 2-1-1 0 1-1 1-1 2-1 3-2l1 1c0 2 2 5 4 6h2c1 0 2-1 3-2z" class="C"></path><path d="M648 662v-1l3-3c1-1 1-1 3-2v3l-1-1-4 3c0 1 1 2 1 3l-2 1c-1 0-1 1-1 2h-1l-1-1c1-2 2-3 3-4z" class="D"></path><path d="M650 664c2 2 2 4 3 7-1 1-1 1-3 1-1-1-3-3-4-5h1c0-1 0-2 1-2l2-1z" class="G"></path><path d="M654 656c0-2 0-2 2-4 1 0 1 1 2 0 2-1-1 0 1-1 3 5 4 8 5 14-3-2-8-3-10-6v-3z" class="E"></path><path d="M383 521h1c1 1 6 16 7 18l-26 3h-1c-1 0-1 0-2 1-3 1-6 3-9 5-4 2-10 3-13 6s-5 7-8 10c-1 2-7 8-9 8l-1-3c-5-13-9-25-11-38 9 0 19 1 29 0 15-1 29-5 43-10z" class="B"></path><path d="M331 539c1 0 2-1 2-1 2 1 2 1 3 2 1 2 1 3 1 4 0 2-2 2-3 3h-1c-2 1-3 0-4-1s-1-2-1-4c1-2 1-2 3-3z" class="D"></path><path d="M390 504c8 0 17 0 25 1l-15 18c8-3 18-7 26-7l1 1c-2 3-17 10-21 13l8 10c7-4 13-8 20-10-2 3-5 6-7 8l-12 15c9-2 18-6 27-9h1v2c0 1-7 7-8 11h0v13c5-6 9-13 15-17h2c1 1-2 4-2 6-3 6-3 12-3 18 3-4 6-8 10-12v23c-11-4-22-9-31-16-20-16-33-42-36-68zm66-105h1c1 4 0 7 0 11h-8c2 6 6 11 8 17-3-1-6-3-9-5-1-1-3-2-4-2h-4l-9 2c3 2 6 5 9 7 2 2 5 4 7 7l-1 1c-3 1-7-1-10-2-6-2-13-6-18-6-1 0-1 0-2 1 3 4 8 11 12 14 3 2 5 3 8 5v1c-2 1-3 0-6 0s-8 0-12 1-9 4-13 7c5 2 11 3 17 4 2 1 5 1 6 3h0c-2 3-6 3-9 3h-11l-8 12c6-1 13-2 19-2 3 0 4 0 5 1v1c-2 2-5 2-8 2-4 1-9 2-13 3l7 4c-7 1-14 0-20 0 0-14 5-29 12-42 11-22 30-41 54-48zm180 121c7 2 14 5 22 6 16 5 34 5 50 4-3 15-8 28-14 42l-4 9c-4-7-6-14-8-21-5-4-10-7-16-10-4-2-7-5-11-6-4-2-10-1-14-2l-14-1 9-21z" class="B"></path><path d="M683 538c1 0 3-1 4 0 1 0 3 1 4 3v4c-1 2-2 2-4 3h-3c-2 0-3-1-3-3-1-1-1-2-1-4 1-2 2-2 3-3z" class="D"></path><path d="M619 556c7 3 15 6 22 7 5 1 9 1 14 2 8 3 17 8 24 12 4 3 7 5 10 7l-13 22-4 6-62-46 9-10z" class="B"></path><path d="M653 577h5c2 0 3 2 4 3 1 2 1 4 1 6-1 3-2 4-5 5h-4c-2 0-3-2-4-3-2-2-2-4-1-6 0-2 2-4 4-5z" class="E"></path><path d="M654 582c1-1 2-1 3-1 1 1 1 2 2 3 0 1 0 2-1 3h-3l-2-2c0-2 0-2 1-3z" class="C"></path><path d="M699 426h1c4 11 7 23 9 35 1 5 2 11 2 16-16-1-32-3-47-2-6 1-11 1-16 3-2 0-8 2-10 2-1-1-1-1-1-2s-1-3 0-4c1 0 4-1 6-1 7-3 17-6 23-10l3-6c3-3 6-5 10-5 1 0 1-1 2-1v-1h-1c-2-1-5 0-7 1-5 2-8 6-12 8-3 2-7 4-11 6-5 3-9 4-14 7l-1-1c0-1-1-2-1-3 4-4 9-7 13-9l52-33z" class="B"></path><path d="M690 441l3 4c-1 1-1 1-2 1-1 1-2 1-2 1-1-2 1-5 1-6z" class="C"></path><path d="M680 456h3c1 0 2 1 3 2 0 1 1 2 0 3 0 2-2 3-3 4h-1c-1 0-3 0-4-1s-1-2-1-4c1-2 2-3 3-4z" class="E"></path><path d="M551 393c15 3 32 12 44 23 22 19 35 44 37 74h-19-1l9-7c-5 1-11 1-16 1-2 0-4 1-6 0-1-2-1-2 0-3l23-1c-3-6-6-10-10-15l-16 2c-3 0-3 0-5-2v-1c3-3 9-5 14-7l10-5c-3-1-7-2-10-4-2-1-3-3-5-4v1c-6 1-11 4-16 5-2-1-2-1-3-2 2-2 5-3 7-4 6-3 12-5 18-9l-10-3c-1-1-4-2-5-1-6 1-10 8-15 10h-3v-1l20-21c-4 0-10 0-14 2h0c-6 2-10 8-16 11-1 0-2 0-3-1 0-2 2-4 3-6 3-4 8-10 9-15l-1-1h-2l-9 3c-1 0-3 0-3 1-1 0-1 3-2 4-1 2-2 5-4 7v-31zM398 553l4 4c2 3 4 6 6 8l-64 45-4-5c-6-9-10-19-15-28 6-3 11-5 17-8 6-2 12-5 18-6 5-1 11 1 16-1l22-9z" class="B"></path><path d="M359 572c1 0 2-1 3 0 2 0 4 2 5 3v6c-1 2-3 3-5 4h-3c-2 0-4-2-4-3-1-2-2-4-1-6s3-3 5-4z" class="F"></path><path d="M360 576c1 0 1 0 3 1-1 2 0 2-2 3h-1l-2-2 2-2z" class="C"></path><path d="M321 425c1-1 1 0 2 0 3 1 5 4 8 5l14 10 40 26c0 2-1 5-1 6-3 1-22-11-25-13s-5-5-8-6h-1c-4-2-10-1-13 0 4 1 8 1 12 3v1c7 4 12 9 19 13 3 2 6 3 10 4 1 1 3 2 5 3 0 1 0 2-1 3-5 0-9-1-14-2l-21-2c-13-1-26 1-39 1 2-17 6-36 13-52z" class="B"></path><path d="M333 459h1c2-1 4-1 6 1 1 1 1 2 1 3 0 2-1 4-3 5 0 1 0 1-1 1-2 0-3 0-5-1-1-1-2-3-2-4 0-2 2-4 3-5z" class="D"></path><path d="M607 505c2-1 5-1 8-1l17 1c-2 15-8 30-16 43-15 24-38 38-65 44v-28l5 14c3-2 5-4 8-5-2-5-4-10-5-14 0-1 0-1 2-2l4 5c5 3 11 6 17 9l-5-10c-2-4-5-8-5-13 1 0 1 1 2 1 8 5 17 7 27 8l-16-17c-1-1-2-2-2-3l1-1 29 11-2-3c-4-4-6-10-10-14-1-4-4-6-5-10-1-1-1-3-1-4 3-1 22 6 25 8l-13-18v-1z" class="B"></path><path d="M746 521l8-2-8 30 32 19-35-9-4 13 29 26-33-15c-9 18-19 37-31 53-1-2-3-3-5-4-4-4-9-7-13-10 1-2 1-3 2-4v1c1 1 1 1 1 2 4 2 12 1 16 0l-5-3c-3-2-5-3-6-6l-1-2c1-2 1-3 2-5l3 3c1 1 3 2 5 3 2 0 2 0 3-1 1 0 1-1 1-1 0-4-4-8-5-12 0-1 0-2 1-3h1l5 5c1 2 2 2 4 2 2-1 5-3 6-6 2-5-8-6-10-10 1-2 5-2 7-2h0c-1-2 0-3-1-5h-1l-1 2v-2l1-1h1 1c0-1 0-1 1-2 1 0 0 0 1-1-1-1-2-1-2-3v-1-1c1 0 1 0 1-1l2-2h2c1-1 1-1 3-1v1l1-1h3l2-1c1 0 1-1 1-2l-2-1c-1-1-2-1-2-1l-5-3h0v-7l-1-1 1-1h2c0 1 0 1 1 1h1c1 1 0 1 2 1 1 1 2 0 4 0h1c1 0 1 0 2-1 1 0 2 0 3-1l-2-2c-1-1 0-1-1-2l-3-3c-1-2-2-3-2-5-1-1-1-3-1-4s0-2 1-2l6 1c2 0 4 0 6-2 3-2 3-5 4-8z" class="C"></path><path d="M730 536l9 13c-6 2-10 3-16 0 0 2-1 5 0 7l10 6c-1 1-2 3-3 3-3 1-10 1-11 3l-3 3c3 3 7 5 10 8l-4 2c-2 1-3 1-4 1l-2 1c-1-2 0-3-1-5h-1l-1 2v-2l1-1h1 1c0-1 0-1 1-2 1 0 0 0 1-1-1-1-2-1-2-3v-1-1c1 0 1 0 1-1l2-2h2c1-1 1-1 3-1v1l1-1h3l2-1c1 0 1-1 1-2l-2-1c-1-1-2-1-2-1l-5-3h0v-7l-1-1 1-1h2c0 1 0 1 1 1h1c1 1 0 1 2 1 1 1 2 0 4 0h1c1 0 1 0 2-1 1 0 2 0 3-1l-2-2c-1-1 0-1-1-2l-3-3c-1-2-2-3-2-5z" class="G"></path><path d="M713 580v-2l1-1h1l1 1h3c2 1 2 2 3 3-2 1-3 1-4 1l-2 1c-1-2 0-3-1-5h-1l-1 2z" class="F"></path><path d="M726 442c-1-1-1-3-1-4 18-6 37-9 56-13 5-1 11-3 16-2-7 3-15 4-22 6-9 3-18 6-27 8 5 16 6 34 7 51l58 9 19 3c4 0 8 0 11 1l-205-11v-3c2-2 6-3 8-3 15-3 29-4 43-3l22 2c7 1 26 4 31 2 2-3 2-4 2-7-2-1-4 0-5 1h-7c0-4-1-7-1-11 3-1 9-1 11-4 1-1 1-3 1-5-3-2-9-2-12-3-2-1-2-1-2-3l1-1h-2l-2-10h0z" class="B"></path><path d="M726 442c4 0 11 0 14 2 1 1 1 1 0 3-2 3-6 4-10 5h-2l-2-10z" class="F"></path><path d="M593 693l4-2 3-1 1-1h1c1-1 2-1 3-1v-1h4c1-1 2-2 3-2 2-1 3-2 5-3 1 0 1 0 2-1h1c0-1 1-1 2-2s0 0 1 0h1l10 11s2 3 3 3l22 26c1 1 1 2 2 2s1 1 1 1l4 7c-2-2-4-4-5-6l-11-13c-3-4-7-7-10-12h-1l-38 20 10 35 1 4h-1l-13-38-25 9 13 50-25-47c-3 0-7 2-10 2v-22h0c0 1 1 3 1 4 1 1 3 2 5 2v1h7c1-1 2-1 2-2 2-4-3-8-5-12l17-5c2-1 4-4 7-4h2v-1l1 1h0 0 1 1 0l1-1c1 0 1 0 2-1z" class="B"></path><path d="M578 699c2-1 4-4 7-4h2v-1l1 1h0 0 1 1 0l1-1c1 0 1 0 2-1v1l-2 2c-1 3 4 7 5 11 0 0-1 2-1 3s0 2-1 3c-6-2-12-4-15-10l-1-4z" class="E"></path><path d="M593 693l4-2 3-1 1-1h1c1-1 2-1 3-1v-1h4c1-1 2-2 3-2 2-1 3-2 5-3 1 0 1 0 2-1h1c0-1 1-1 2-2s0 0 1 0h1c-2 1-3 2-4 3 3 2 5 4 7 8h0c-5 1-7-1-11-3 0-1-2-2-2-2-1 0-5 3-6 3 1 3 5 7 4 10 0 2-1 3-3 4-4 1-9-1-12-3-2-2-3-3-4-5v-1z" class="D"></path><path d="M265 519c3 2 8 1 11 2h-3c2 4 4 7 7 10h9l3-3c1 2 1 5 1 7-1 1-1 1-2 1-3 0-5 2-7 4l-2 5c0 2 0 2 2 3 3-1 8-3 11-2 2 4 2 7 3 11-3 1-10 4-11 7v3c1 1 1 1 3 2 4 0 8-2 11-5l2 6c2 1 2 4 3 6v1l3 8c1 1 1 1 1 2 3 8 9 15 13 23h0c-2 1-3 2-4 4h0c-3 3-2 10-2 14-2 1-3 3-5 5l-6-9c-9-14-16-28-23-42l-32 16 19-17c3-2 7-5 10-8-3-4-4-9-6-14-2-1-7 1-9 2l-25 7c2-2 6-4 8-5l13-9c4-2 7-4 10-7-3-9-4-19-6-28z" class="C"></path><path d="M311 603c2 1 3 1 4 3v1 2l-4 1-1-1c0-2 1-4 1-6z" class="D"></path><path d="M311 603l4-5c1 2 4 5 4 8-2 2-3 2-4 3v-2-1c-1-2-2-2-4-3z" class="G"></path><path d="M309 585c1 1 1 1 1 2 0 2 1 5 1 7-3 2-7 4-11 5-1-2 0-3 0-4 2-4 6-7 9-10zm-6-15c2 1 2 4 3 6v1 4l1 2c-5 3-11 4-16 5 3-6 6-15 12-18z" class="D"></path><path d="M420 577c2 1 5 3 6 5h-1c-3-1-13 14-16 17-2 2-5 5-8 7v1l2 1c1 1-3 7-4 9l10-8c3-10 13-17 18-26l1-1 4 3c-1 5-5 10-7 15l-23 35-14 21h0c-16-11-29-24-41-40 21-9 44-14 63-28 3-2 5-5 8-7 0-1 2-2 2-2v-2z" class="B"></path><path d="M386 614c1-1 3-1 4 0 2 0 4 2 5 4s2 3 1 5c-1 4-3 5-6 7h-3c-3-1-5-2-6-4-2-2-2-5-1-7 0-3 3-4 6-5z" class="E"></path><path d="M387 618h3c1 1 1 1 1 3s0 2-2 3h-2c-1-1-1-1-2-3 1-1 1-2 2-3z" class="C"></path><path d="M746 521l-40 3c-23 2-46-3-68-10l1-9h59 94 50c12-1 23-2 35-1-9 2-19 1-28 2l-72 9c-7 1-16 2-23 4h0l-8 2zM429 623l-34 38c-1 0-1-1-2-1 0-3 8-14 10-17 13-18 24-36 35-55l12 6c2 1 5 1 7 2 1 4-2 9-4 12l-6 11c-1 3-3 6-5 9-2 4-3 8-4 12 1-1 4-5 5-6 1-2 2-2 3-4 4-7 6-15 11-21v11c-1 4-5 9-6 14l-15 47c-7-2-14-5-20-8s-12-6-17-10c9-12 20-23 30-34 8-9 17-18 23-29 0-1 1-2 1-4h-2c-3 2-5 6-7 9l-12 14-3 4z" class="B"></path><path d="M429 623l-1-1c-1 0-1-1-2-2 0-1 0-1 1-2 2 0 3 1 5 1l-3 4z" class="H"></path><path d="M429 641s1-1 2 0c1 0 3 1 4 2s1 2 1 4c-1 2-2 3-4 4-1 0-1 1-2 0-2 0-3 0-4-2-1-1-1-3-1-5 1-1 2-2 4-3z" class="E"></path><path d="M265 519h0c-4-2-11-3-15-3l-75-10-32-2c5 0 10-1 14 0s9 0 13 0h41l110 1h61l1 9c-9 4-18 7-27 9-21 4-42 3-63 0l-12-2h-5c-3-1-8 0-11-2zm25-36h0c0-1-1-1-1-2l-3 1c-4 0-6 1-8 3 1 2 10 0 11 0 13-2 26-4 39-4 13-1 27 0 40 2 4 0 10 1 13 3 0 1 1 3 0 4l-213 12c3-1 6-1 10-1l18-2c22-4 46-6 68-11l8-51-34-9c-3-1-9-2-12-5h0c2-1 4 0 5 0l10 2 42 8c2 0 2 0 4 1h1 2v1c3 0 6 1 8 2v3l-1 1h0v1c0 1-1 2-2 3 0 1 0 6-1 6-1 1-1 0-2 1h2l-1 3c0 4-1 9-1 12v4h2 1c0 1 0 2-1 3-1 0-1 0-2-1v1c1 1 2 1 2 3 0 0-1 0-1 1l1 1c-1 1 0 1-2 2l-1-1v2l-1 1z" class="B"></path><path d="M290 483v-6c-3-1-9 0-11-2-2-1-2-1-2-2s0-1 1-1c3-3 10-2 14-1v3c1 1 2 1 2 3 0 0-1 0-1 1l1 1c-1 1 0 1-2 2l-1-1v2l-1 1z" class="G"></path><path d="M283 433c2 0 2 0 4 1h1 2v1c3 0 6 1 8 2v3l-1 1h0v1c0 1-1 2-2 3 0 1 0 6-1 6-1 1-1 0-2 1-4 0-9-2-13-3 3-3 6-5 10-7 2 0 5-1 7-1 1-1 1-2 1-2-1-3-11-5-14-6zm9 38c-1 0-1-1-1-2 0-2-6-3-8-4s-4-2-5-4c1 0 1 0 1-1 3-4 10-4 14-5 0 4-1 9-1 12v4h2 1c0 1 0 2-1 3-1 0-1 0-2-1v1-3z" class="E"></path><path d="M511 95l21 200c-1 1-16 0-19 0V152l-1-27c0-6 0-12-1-18h0v4l-1 29-3 155h-5-12l7-66 8-75 4-36c1-7 1-16 2-23z" class="C"></path><path d="M610 422c-2-1-6-6-8-8l-7-6c9-9 13-26 15-38h60l11 17c7 10 12 21 17 32l-75 21c-2-2-4-6-5-8-2-3-5-6-8-10z" class="B"></path><path d="M642 375c2 0 4 0 7 1 2 2 4 4 5 8h-1c-1-2-2-3-3-4-3-1-5-1-7 0h-1c-1 1-3 3-3 4-1 2 0 5-1 6h-1c-1-1-2-2-2-3-1-2-1-5 0-7 1-3 4-4 7-5z" class="E"></path><path d="M659 406h4c1 1 3 2 3 4 1 2 1 3 0 5s-2 2-4 3h-3c-2-1-3-1-4-3-1-1-1-4 0-5 0-2 2-4 4-4zm-34-20h1l-3 5c-2 2-3 4-2 7v2h-4c-6-1-8 8-12 12-1 0-1-1-2-2h0c0-3 5-10 7-12 2-1 4-2 6-4 3-2 6-5 9-8zm-15 36c0-2 0-3 1-4 3-4 7-5 10-8 5-4 9-10 15-11 1-1 1-1 2 0-3 2-8 5-9 8l1 2c-1 2-16 12-18 13h-2zm39-15v1c-3 2-6 4-9 7s-5 8-9 10-9 5-13 3c-1-1-1-1-1-3 3-4 7-3 12-5 2-1 4-4 6-5 4-4 8-6 14-8z" class="F"></path><path d="M352 370l60-1c1 8 2 16 5 23 1 3 6 12 9 14 1-1 2-1 3-2 0-2-2-5-3-7-5-8-8-17-8-27l1-1c0 1 0 1 1 1 0 0 0 2 1 2l3 7 8 14 3 6c1 0 2-1 2-1-1-10-8-20-12-29l12 1 1 5c-1 0-1 1-2 2l1 1c7 1 6 7 7 13 0 1 0 2 1 3 1 0 2 0 3-1 1-6 0-12-3-17l-3-6h15v16c0 2 1 4 0 6 0 0-7 2-8 2-3 1-6 3-9 5-19 9-32 24-44 41l-72-23c7-17 16-33 28-47z" class="B"></path><path d="M397 385l9 9c2 3 5 3 7 5 3 3 6 8 6 11l-1 1h-1-1s-1-2-2-3c-1-2-2-5-4-7-2-1-3-1-5 0h-2v-4c0-3-4-9-6-12zm-15 13h2l3 2c6 2 10 8 15 11 2 2 8 5 9 7l-2 2-1 1c-4-2-7-5-10-7l-6-3v-1c1-4-7-9-10-12zm-26 7h3c2 1 4 3 4 4 1 2 1 3 0 5s-2 3-4 4h-4c-1 0-3-2-4-3-1-2-1-4 0-6 0-2 3-3 5-4z" fill="#eeeadc"></path><path d="M378 377c3 0 5 0 7 2 4 2 5 4 5 8 1 1 1 2 0 3-1-1-1-2-2-3-2-3-3-5-6-5-3-1-4 0-7 2h0c-1 1-2 2-2 3-1 4 2 7 3 10-3-2-6-4-7-8-1-2 0-4 1-6 2-4 4-5 8-6z" class="E"></path><path d="M368 407c5 1 9 2 13 5 3 3 7 6 11 8 3 2 10 3 11 5v3c-1 1-1 1-2 1-4-2-9-3-13-5s-6-7-10-10c-3-2-6-5-10-7z" class="F"></path><path d="M563 646l-1-1c-2-6-5-12-8-18l-3-6c-1-7 0-15 0-22 6-2 12-3 18-6 10-3 19-8 28-14 2-2 4-4 7-6 1-1 2-3 3-3l55 41c-15-5-29-13-43-21l-13-8c-2-1-4-3-7-4l-1 1v2c3 3 7 6 11 8 14 10 29 17 45 24 4 1 11 3 14 6l-14 16c-8 9-15 16-24 23-5-7-9-16-14-23l-20-32-6-11c-1-2-1-4-3-5l-2 2c0 2 3 8 4 10 7 12 14 23 22 35l11 18c0 1 5 7 4 9l-2 1c-5-4-9-11-13-16l-29-35-8-10-4-4h-1c-1 0-2 0-3 1 2 3 4 6 7 9l11 14 36 43c-12 7-24 13-37 18h-1-2v2h-2c-1-2-2-3-2-4v-1c-1-2-1 1-1-1-1-3-2-5-3-7v-1c-1-2-1 0-1-2v-1l-1-2-1-2c0-1-1-2-1-3l-1-2c-1-1-1 0-1-1v-2l-2-3v-2-1h-1v-3z" class="B"></path><path d="M628 616h3c1 0 3 1 4 2 2 2 2 5 1 6 0 3-2 4-4 4-1 1-2 1-3 1-2-1-3-2-4-4-1-1-1-3-1-4 1-2 2-4 4-5zm-35-33h2c3 1 11 12 14 15 2 2 4 4 6 5l1 1-2 2 4 7v2h0l-6-6h-1c-3-5-18-22-18-26z" class="D"></path><path d="M561 600h0c4 1 15 23 19 28 5 6 8 16 10 24-2-2-3-5-4-7-2-5-5-9-8-14l3 9c-4-4-6-10-9-15-4-8-10-16-13-24l2-1z" class="E"></path><path d="M563 646c2 5 4 10 6 14 3 8 6 16 10 24 0-3-1-6-2-9l-5-13c-2-7-20-56-19-59 1-1 1-1 2 0 3 3 20 58 23 67l3 9 1 2s1 0 1 1h-1-2v2h-2c-1-2-2-3-2-4v-1c-1-2-1 1-1-1-1-3-2-5-3-7v-1c-1-2-1 0-1-2v-1l-1-2-1-2c0-1-1-2-1-3l-1-2c-1-1-1 0-1-1v-2l-2-3v-2-1h-1v-3z" class="D"></path><path d="M219 307h573c-6 4-12 7-17 13-15 17-19 43-17 65l3 16c-2-3-3-6-4-9-2-6-6-13-11-18-7-8-19-13-29-15-9-2-18-1-27-1h-33-118l2 432c2 19 5 40 14 58s26 35 45 43c6 2 12 3 17 5-6 0-12-1-18-1h-43l-160 1c5-2 10-2 14-4 12-3 22-10 30-19 14-13 21-31 24-50 5-29 5-58 5-87v-84-294H365h-38c-8 0-16-1-25 0-7 1-15 3-22 6-11 5-20 13-25 25-1 3-2 6-4 10h0c-1-4 2-11 2-15 2-14 1-31-4-45-4-10-10-20-19-26-3-3-7-4-11-6z" class="C"></path></svg>