<svg xmlns="http://www.w3.org/2000/svg" fill="#0d0d0e" xmlns:v="https://vecta.io/nano" viewBox="234 219 571 556"><!--oldViewBox="0 0 1024 1024"--><path d="M464 744c1-1 2-1 3 0s2 2 2 4c0 1-1 2-2 3h-2c-1 0-2 0-3-1s-1-2-1-3c1-2 2-2 3-3zm88 0c2-1 3-1 5 0 1 1 1 2 1 4 0 1-1 2-2 3-2 0-2 0-4-1-1-1-2-1-2-3 1-2 1-2 2-3zm34-116h1c1 0 2 0 3 1s1 2 1 4c-1 1-2 1-3 2-2 0-2 0-4-1-1-1-1-1-1-3 1-2 1-2 3-3zM342 337h1c1 0 3 0 4 1s1 2 1 4c-1 1-1 2-3 3-1 0-2 0-3-1s-1-1-2-3l2-4zm87 291c2 0 3-1 4 1 1 1 1 2 1 3 0 2-1 2-2 3-1 0-1 1-2 1s-2-1-3-2c-1-2-1-2-1-4 1-1 2-2 3-2zm232-291h4c1 2 2 2 2 4-1 2-1 2-2 3-2 1-3 1-5 0-1-1-1-2-1-4 0-1 1-2 2-3zm-91 317h1c2 0 4 2 5 3v5c-1 1-2 2-4 3h-3c-2-1-3-2-3-4-1-1-1-3 0-4 1-2 2-2 4-3zm-125 1c1-1 1-1 3-1 1 1 3 2 4 3 0 1 1 2 0 4 0 2-1 2-3 4h-2c-2 0-3-1-5-2 0-1-1-3 0-5 0-1 1-2 3-3zm205-287h4c1 1 3 3 3 4 1 2 1 4 0 5-1 2-3 3-5 4-1 0-2 0-3-1-2 0-3-1-4-3s-1-4 0-6 3-3 5-3zm-54 370c2 4 2 10 1 14 0 5-2 10-5 13-2 1-2 1-4 1 0-1-1-1-2-2-2-6 5-11 8-16 1-3 1-6 2-10zM358 368h5c1 1 3 3 3 4 1 2 1 4 0 5-2 2-3 3-5 4-1 0-3 0-4-1-1 0-3-2-3-3-1-2-1-4 0-6s2-3 4-3zm66 369c0 7 1 11 6 17 2 3 3 5 4 8 0 1-1 2-2 3s-2 1-3 1l-3-3c-6-8-4-18-2-26zm83-31c4-1 9 0 13 2 2 2 5 5 5 8 2 9-5 25-10 33 3-10 10-22 5-32 0 0 0 11-1 14-2 11-7 20-10 30v-1l-5-16c-1-4-3-9-3-13-1-5-1-10-1-14h-1 0c-3 7 1 18 3 25l3 11c-2-2-3-5-4-8-3-6-6-13-7-20-1-4-1-10 2-14 3-3 7-5 11-5z"></path><path d="M652 421c14-1 28 4 39 14-11-4-21-8-33-6-15 2-27 11-36 23-14 17-19 39-16 60 5-11 12-22 23-29 2-2 5-4 8-5 6-2 14-3 17-9 2-2 1-5 1-7h-1l1-1 1 1c2 3 3 7 3 11-1 7-10 12-15 16 3 0 6-1 9-2l14-5 18-7c3-1 7-2 10-4 2-1 3-2 4-4s1-5 0-7c-2-4-8-6-12-7 2 0 6 0 9 1 4 2 7 5 9 9 1 2 1 5-1 7-3 6-9 8-15 10 5 0 10 0 15 1 16 3 28 11 38 23 5 6 10 14 19 16 4 1 10 0 15-2 3-3 6-6 7-11 1-4 0-9-2-12-4-5-9-5-14-6l1-1c4-1 9 1 12 3 4 3 7 7 8 12h0c0 4 0 8-2 12-3 6-7 10-13 12-12 4-24 0-35-5l12 17c16 26 20 57 12 86-5 22-17 44-37 56-11 7-25 10-37 7h10c15-2 27-10 36-22 18-22 20-57 17-84-3-26-16-49-37-65-18-15-39-18-62-15l18 2c22 5 40 17 53 36 11 18 15 39 11 59-4 15-14 29-27 37-12 7-27 10-41 7 4-1 9-1 13-2h1c8-2 15-5 20-11 13-11 17-26 18-43-1-10-2-19-6-29-7-17-20-33-38-40-16-7-36-6-53 1-21 9-37 27-49 46-5 8-10 16-14 25h1c8-16 25-33 41-41 16-7 35-9 52-3 14 5 26 16 32 30 6 12 7 26 2 39-3 8-10 18-18 21 4-3 8-7 11-13 5-9 4-19 1-29-4-14-13-26-26-32-14-8-31-8-46-3-16 5-32 17-40 32l4-4c12-11 26-16 41-16 10 0 21 4 27 12 8 8 11 18 10 30l-1-3c-3-9-8-16-17-20-12-5-26-4-38 1 8 1 14 3 18 10 3 5 4 10 2 16 0-4-1-8-4-11s-7-5-11-5c-10-1-18 3-25 9-15 13-22 31-23 51-1 19 2 42 15 56 6 7 14 12 23 13 3 1 6 1 9 1l-2 1h-5c-11 0-22-6-29-14-16-16-22-40-22-62 0-19 5-36 10-54 10-30 25-59 48-82-2-6-4-12-5-18-2-21 2-42 16-58 11-13 26-21 43-23zm-295 0c4 0 8 0 12 1 15 1 30 11 39 23 12 16 18 37 15 57-1 6-2 12-4 18 7 7 14 14 20 23 13 19 22 39 29 62 8 23 14 47 9 72-3 18-13 38-28 48-8 6-18 9-28 7 9-1 17-3 24-8 12-9 20-25 22-40 3-23 0-46-14-65-7-9-17-17-28-18-6-1-12 0-16 3-4 4-5 9-5 15-1-7-2-12 2-18 4-7 10-8 17-10v-1c-2 0-4-1-5-1-10-3-23-3-32 1-6 3-12 8-15 14-2 3-3 6-4 9 0-9 1-18 6-26 6-8 14-13 24-15h1c4-1 8-1 12-1 15 1 29 9 39 19-3-5-8-11-12-15-14-13-33-20-52-19-14 1-27 7-36 17-8 9-14 24-13 36 0 12 6 20 14 27v1c-5-3-10-8-13-13-7-11-9-24-7-37 3-14 12-27 24-35 13-9 31-12 46-8 27 5 45 25 60 47-1-3-3-7-4-10-5-7-9-15-14-22-14-21-34-40-60-45h-3c-17-3-35 1-49 12-15 11-25 29-28 48l-1 9c-1 15 3 32 13 44 6 6 13 11 21 14 5 1 11 1 16 2-13 3-27 0-39-6-13-8-23-22-27-37-5-19-1-41 9-58 12-20 31-33 53-38 6-1 13-1 18-2-6-1-13-1-19-1-23 2-41 11-56 28-20 23-25 55-23 84 2 23 8 48 27 63 11 10 24 13 38 11-1 1-2 1-4 2-13 2-27-2-38-10-20-13-31-39-36-62-4-26-1-53 12-76 4-7 9-13 14-19l-3 1c-10 5-22 8-32 4-6-2-11-7-14-13-2-5-2-11 0-16 2-4 6-7 10-9 3-1 7-1 10 0-5 0-9 1-13 4-3 3-4 7-4 11s2 9 5 11c4 4 9 5 14 5 13 0 20-13 28-22 13-13 28-18 46-18-4-3-9-3-12-6s-4-5-4-8c0-4 2-7 5-9 3-3 8-4 12-4v1l-3 1c-3 1-6 3-7 6-1 2-1 4 0 7 1 1 2 2 4 3 4 3 10 4 16 6 11 5 23 9 35 12-6-4-14-9-15-17 0-5 2-8 5-12h0c-1 3-2 6 0 9 3 6 9 7 14 9 12 3 22 12 28 23 2 4 4 7 6 11 2-14 0-28-6-41-6-16-19-32-36-39-15-6-31-3-45 3 8-9 22-13 33-14zm-52-155c2-1 9-1 12-1h31 129v7c0 1-5 2-6 2a53.56 53.56 0 0 0-15 15c-4 8-5 17-4 26 1 10 5 20 8 29l13 39 39 119c5 17 12 34 16 52 2-3 2-6 3-8l4-12 18-58 32-99 10-33c3-9 6-18 7-26 2-11 0-23-6-32-6-8-13-12-23-14l1-7h93 23 7l1 1v4c-1 1-8 0-11 1-2 0-4 0-6 1-18 5-29 17-38 33-7 12-11 25-16 38l-15 44-34 102-45 144-23 72-24-71-45-132-24-69c-11-30-21-59-34-87-9-17-19-34-31-49-13-14-27-25-47-27-1-1 0-3 0-4z"></path></svg>