<svg xmlns="http://www.w3.org/2000/svg" xmlns:v="https://vecta.io/nano" viewBox="220 105 599 828"><!--oldViewBox="0 0 1024 1024"--><style>.B{fill:#fcfcfc}</style><path d="M592 762h1v1c-1 1-5 2-6 3h-2v-1c0-1 0-1 1-2s4-1 6-1z" class="B"></path><path d="M678 327c0-2-1-3-2-5-3-2-6-2-9-1h-1c1-1 1-1 2-1 2-2 5-2 7-1 4 2 5 4 6 7l-1 1h-2z"></path><path d="M667 600c1 0 2 0 3 1 2 1 1 3 1 5-1 1-1 1-3 1h-1c-1 0-2-1-3-2v-3c1-1 2-2 3-2z" class="B"></path><defs><linearGradient id="A" gradientUnits="userSpaceOnUse" x1="676.307" y1="327.069" x2="673.753" y2="337.194"><stop offset="0" stop-color="#0f0f0f"></stop><stop offset="1" stop-color="#2b2a2a"></stop></linearGradient></defs><path fill="url(#A)" d="M681 326c0 4 0 6-3 9-1 1-3 2-5 3-2 0-3-1-5-2 0 0-1-1-1-2 0 0 1 0 2 1 2 0 4 0 6-1s3-3 3-5v-2h2l1-1z"></path><path d="M438 770h0 1c3 7 11 4 17 4 3-1 5 0 7 1h-2-6c-4 1-7 3-10 3-2 0-4-1-6-3-1-1-1-3-1-5zm144-2v1c0 3-1 5-3 7-3 3-9 1-13 0-3-1-6-1-9-1h-1c7-4 15 2 21-1 3-1 4-3 5-6zM326 299l1-1c2 0 4 1 5 2 2 2 2 4 3 6 0 2-1 4-3 5-1 2-3 2-5 2s-4-1-5-3v-1c1 1 2 2 4 2 1 0 3 0 4-2 2-1 2-2 2-4 0-1-1-3-2-3-1-2-4-2-6-2h-1l3-1zm357-1h0c2 0 4 0 5 2h0-2c-2 0-4 1-6 3-1 1-1 3-1 4 0 2 2 3 3 4 2 0 3 1 5 0h2l-2 2c-2 0-3 1-5 0s-4-2-4-4c-1-2-1-5 0-7s2-3 5-4z"></path><path d="M266 360h0v-4c1-2 0-5 1-6 0-3 0-5 1-7l1 1c0 4 0 8-1 12 0 4 1 9 1 13-1 1-2 2-3 4 0-5 1-9 0-13z" class="B"></path><path d="M331 367h2 2c-1 0-3 0-5 1-1 1-3 3-3 5-1 2 0 4 1 6 1 1 3 2 5 3 2 0 4-1 5-2 2-2 2-4 2-7h0l1 1v4c0 2-2 4-4 6-2 1-4 1-7 0-2 0-4-2-5-4s-1-5 0-7c1-3 4-5 6-6zm348-1c2 0 4 1 6 3s3 5 3 8c0 2-2 4-4 6-2 1-4 2-6 2-3-1-4-2-5-4-2-2-2-5-1-8l1-2h0v2c-1 3 0 4 2 6 1 1 2 2 4 3 2 0 4-1 5-2 2-2 3-4 2-6 0-2-1-4-2-5-2-1-4-2-6-2h-2s2 0 3-1zm-341-47h0c2 0 4 0 6 2h-3c-3 0-5 1-7 3-1 2-1 4-1 6 0 1 1 3 2 4 3 2 6 2 9 1h1l-3 3c-2 1-4 0-6 0-3-1-4-3-5-6-1-2-1-6 0-8 2-4 3-4 7-5z"></path><path d="M535 712c0-1 0-1-1-1h0l-1-1c1-1 1-2 1-2v-2l1-4 1-1 2-6c0-1 0-2 1-3v-1-1l1-1c0-1 0-2 1-3 0-1 0-1 1-2v-2c0-2 0-3 1-5l1 1v1l1-1h0v2c0 2-1 3-1 5l1 1-10 26zm-50 8l1-2h-1c0-1 0-2 1-2h0c1 1 1 2 1 3 1 1 1 1 1 2v1h1v2l2 5c1 3 1 5 2 8l1 3c0 1 0 2 1 2l1 4v2l1 2v2l1 2v1 3c1 1 1 3 1 4-3-3-4-9-5-12l-9-30z" class="B"></path><path d="M422 706c4 0 9 0 13 1l6 2h0c-3-1-6-1-9-2-7 0-14 1-20 4-9 5-14 14-17 23-1 7-1 12 1 19-2-2-2-5-3-7-1-9 1-20 6-27 6-8 13-11 23-13zm168 0c8-1 18 0 25 5 7 6 11 14 12 22 1 7 1 15-3 20h0c2-4 2-7 3-11l-1-4c-2-10-6-20-15-26-7-5-18-6-26-5-3 1-6 2-8 2 4-2 8-3 13-3z"></path><path d="M590 544c1 0 1 0 1 1v1h1 0l1-1h0c0 2-1 4-2 6h0l-2 4v2l-3 6h0l-2 4v2c-1 1-1 2-2 3v1l-2 3v3c-1 1-1 2-2 3h0l-1 3c0 1-1 1-1 2 0 2-1 4-2 5 0 2-1 2-1 3-1 1 0 1-1 1 0-1 0-1-1-2v-1c1-6 5-12 7-18h0v-2c1-1 1-2 1-3l1-1 2-7 1-4 2-4c0-1 0-2 1-3v1 1h1c1-2 2-6 3-9z" class="B"></path><path d="M682 346h0l-21 34c-17 30-33 60-46 92h0c2-8 6-16 9-24 15-37 35-70 58-102zM411 567c2 0 4 0 5 1 3 1 4 3 5 6 1 2 1 4 0 5-2 4-5 5-8 6-2 0-5 0-7-1s-4-4-4-6c-1-2 0-4 1-6 2-4 4-5 8-5z"></path><path d="M410 572c1-1 2 0 3 0s3 1 3 2c1 2 1 4 1 5-1 2-2 3-4 3-1 0-1 1-2 0-2 0-3-1-4-2-1-2-1-4 0-6 1-1 1-2 3-2z" class="B"></path><path d="M329 345h1l15 24c23 34 42 69 56 107-2-1-2-3-3-4l-4-10-11-23c-16-32-35-64-54-94zm270 221c2 0 4 0 7 1 2 1 4 2 5 5 1 1 1 4 1 6-2 3-5 5-8 7-2 0-4 0-6-1s-5-3-6-5-1-5 0-7c2-3 4-5 7-6z"></path><path d="M600 571c1-1 2-1 3-1 2 1 3 2 4 3s1 2 1 3c0 3-2 4-4 5 0 1-1 1-2 1-2 0-3-1-4-2-1-2-2-3-1-5 0-2 1-3 3-4z" class="B"></path><path d="M731 522c3 0 7 0 10 1 10 2 18 9 23 18 6 9 10 24 7 35v1c-2 6-5 13-10 17-5 5-12 10-19 10-4 0-7-1-9-4-3-2-4-6-3-9 0-3 0-7 2-8 0 1 0 3-1 4v2c1 3 2 6 5 9 3 2 6 3 10 3 7-1 13-6 17-11 6-7 8-18 6-27-1-12-8-22-17-30-9-6-19-9-31-8l-4 1c4-3 9-3 14-4zm-450 1c4-1 9 0 14 1-5 0-9 1-13 2-9 2-17 6-24 13-8 8-13 17-13 29 0 10 3 19 11 26 4 4 10 7 15 7 4 0 8-2 10-5 3-3 3-6 3-10l-2-7c2 3 3 5 3 7 2 4 2 9-1 13-2 2-4 4-7 5-7 1-13-1-18-5-8-5-14-15-15-24-2-11 0-25 7-34 7-11 17-16 30-18zm441 12c5-1 10 0 15 2 11 4 17 13 22 22 2 7 4 16 1 22 0-7 0-13-3-19-4-8-12-13-20-16l-2-1c-21-6-41 3-59 13l-1-1c15-9 29-20 47-22zm-434 1h1c19-2 34 9 47 21-17-8-34-16-54-11-5 2-10 4-15 8-8 6-11 14-12 24h-1c-1-9 4-19 9-26 6-9 14-14 25-16zm-22-176c1 4 0 8 0 13 1 25 5 53 14 76 12 30 33 58 54 83h-1l-31-36c-11-13-20-29-26-45-7-20-10-43-10-65-1-8-1-17 0-26zm248 448l6-30c2-12 4-24 8-35 5-16 12-32 19-47 4-7 8-13 12-20 15-25 37-54 65-63 10-3 21-4 30 1 6 4 9 9 11 15-1-1-2-3-4-4-2-3-6-5-9-6-14-2-28 5-39 12-9 7-17 14-25 22-26 26-47 59-59 94-6 16-9 34-12 51l-2 10h-1zM372 612h3c18-1 36 13 48 24 19 18 33 40 46 62 7 14 14 28 20 42 5 15 9 30 13 46 2 9 4 19 5 28-1-2-2-5-2-8l-3-14c-3-16-7-31-13-45-14-33-35-64-60-89-9-10-19-19-30-27-10-7-23-13-35-11-7 1-9 5-13 10 1-3 2-7 5-10 4-5 10-7 16-8z"></path><path d="M687 526c23-20 49-46 59-76 3-12 4-24 5-36 1 30-8 58-21 85-3 8-6 16-12 22-5 6-11 10-18 13-8 4-14 6-21 11-18 12-33 28-50 39 5-8 13-16 21-24 6-4 11-10 17-15 7-6 14-12 20-19zM264 415c1 1 0 3 0 4l2 13c2 12 5 23 10 34 15 28 38 48 60 71l39 44c-12-6-22-13-32-21-7-6-13-12-19-18-7-5-15-10-22-16-6-4-9-10-12-16-7-12-12-26-16-39-3-9-6-17-7-26-2-10-3-20-3-30z"></path><path d="M747 352v-6c1 1 0 3 1 4 0 3 0 5 1 7 2 23 1 46-3 69-2 11-5 22-10 33s-12 22-20 32c-6 8-13 16-20 23l-2 3c-2 3-4 5-6 7-1 1-1 1-1 2-6 7-13 13-20 19-6 5-11 11-17 15 0-1 1-2 2-3h0l-1-1s4-4 5-4c7-7 13-14 19-22 32-43 57-92 68-145 2-9 4-20 3-30h0c0-1 0-2 1-3z" class="B"></path><path d="M747 352v-6c1 1 0 3 1 4 0 3 0 5 1 7 2 23 1 46-3 69-2 11-5 22-10 33s-12 22-20 32c-6 8-13 16-20 23l-7 7c0 1-1 2-3 2l11-12c14-18 27-37 36-57 12-26 16-56 16-84-1-6 0-13-2-18zm-1 3c1 10-1 21-3 30-11 53-36 102-68 145-6 8-12 15-19 22-1 0-5 4-5 4-14 11-27 25-40 38-28 29-52 62-68 100-6 15-11 32-17 48l-3 15c-1-2 1-6 1-9l11-36 10-26 10-22c8-18 19-36 31-52l22-28 38-45 37-44c24-30 45-64 56-101 4-12 7-26 7-39zm-478 1c1 9 3 18 5 26 9 41 31 81 56 114 11 14 23 28 34 41l39 46 24 30c24 32 45 68 59 107l9 30c1 3 2 9 5 12 0 2 2 8 1 10 0-3-1-6-2-8 0-2-2-4-2-6-5-20-13-40-22-59-9-20-19-38-32-55-9-13-19-24-30-35l-40-38c-21-24-40-49-57-76-23-39-41-81-46-126 0-4-1-9-1-13zm250 442c4-18 10-35 19-50 7-11 15-21 26-27 12-6 27-9 40-5 8 2 15 7 19 15 2 3 3 6 3 10h0c1 4 0 8-2 11-1 1-3 2-5 3-2 0-3-1-4-2s-2-3-2-4c0-2 2-2 3-4v1c-2 2-1 2-1 4 1 1 1 1 3 2 2-1 3-1 4-2 1-3 2-6 1-8-1-5-6-10-11-13-3-2-7-3-11-4h-1c-13-1-26 3-36 11-7 6-14 14-19 22-18 27-26 59-29 90-1 3-1 8-1 11 1-3 1-6 1-9l5-27c1-7 4-15 6-22 9-24 24-54 47-67 8-5 19-7 28-5 6 2 11 5 15 10-7-5-13-7-21-5-4 0-10 2-12 6-1 0-1 1-1 2 1 3 3 5 6 7 3 1 6 2 7 5v4c-1 1-3 2-4 2-2 1-3 0-4-1s-2-3-2-4c1-1 1-2 2-3v-1c-5 0-14-1-18 3-1 1-1 2-1 4 0 1 0 2 1 3 3 3 8 4 12 5-5 1-10 1-14 2-16 3-25 12-32 26-12 20-16 45-19 68-1 6-1 12-2 18v1c1-2 1-3 1-5l2-14c3-19 12-71 33-79 4-1 10-1 14 1 3 1 5 3 6 6 1 2 1 5 1 7-1 0-1 0-1-1 0-2-1-4-3-6-3-1-6-1-8-1-3 1-6 4-8 6-1 2-1 4 0 6 1 3 4 5 4 8l1 1c0 2 0 5-1 7v1-1c0-2 1-7-1-8-1-2-2-2-3-2-2 0-4 2-5 3-6 6-9 14-12 21-9 20-14 42-18 63l-3 19c0 5-1 10-2 14-5-33-11-69-26-99-3-7-7-15-13-19-1-1-4-1-5-1-2 0-3 1-3 2-2 2-1 6 0 8h-1c-1-2-1-4-1-7 0-2 1-3 2-5 1 0 5-5 5-5 1-2-1-5-2-6-2-3-4-5-7-6-2 0-6 0-8 2-2 1-2 3-4 5 0-3 0-6 2-8 2-3 5-5 8-6 6-1 12 1 17 5 5 3 9 10 11 15 6 11 9 21 13 33 2 7 3 14 5 22l2 16 1 5c0 1 0 3 1 4-1-2 0-6-1-8 0-1 0-1-1-2v-4c-2-15-5-30-9-44-3-11-7-22-13-32-3-6-7-11-12-15-4-3-8-6-13-8-7-2-13-2-20-3 5-1 10-2 13-6 1-1 1-2 0-3 0-2-1-3-3-4-5-3-13-2-18-2l1 1c1 1 2 2 2 4s0 3-2 4c-1 1-2 1-4 1-1-1-3-1-3-3-1-2-1-3 0-4 3-6 13-5 13-13-3-4-6-6-11-7s-13-1-17 1l-5 3c5-6 11-9 19-9 12-2 24 4 33 12 6 5 11 12 16 18 14 20 23 44 29 67 2 9 4 17 4 25 0 3 0 12 1 15 0-32-8-65-22-93-6-11-13-22-22-31-10-10-21-17-35-17-9 0-18 2-24 8-3 3-6 8-6 12 0 2 0 4 2 6 1 1 3 1 4 1s2-1 3-1v-3l-2-2c1 0 2 1 3 2s1 2 0 4c-1 1-2 2-4 3-1 0-3 0-4-1-3-2-4-5-4-9-1-6 2-14 6-19 5-6 15-11 23-11 15-2 30 3 41 13 19 16 28 41 34 64 2 8 3 16 6 23 2 4 2 11 2 16 2 3 1 6 2 10v7-4c1-1 1-4 1-5v-2c1-1 0-4 0-5 1-1 1-3 1-4l-1 2h0c-1-1-1 0 0-1l2-15v-2c1-1 1-3 1-4h1l2-10h1z"></path><path fill="#f2f2f1" d="M588 752h4c1 1 1 2 2 3 0 2 0 2-1 3s-2 1-3 1c-2 0-2-1-3-2 0-2 0-3 1-5z"></path><path d="M429 752c1 0 3 1 3 2 1 1 1 2 1 3-1 2-2 2-3 2s-1 1-1 0c-2 0-3 0-3-1-1-2-1-2 0-4 1-1 1-2 3-2zm88 46h1c-2 11-4 22-5 33l-2 22c0 4 0 9-1 13l-2-35c2 3 1 6 2 10v7-4c1-1 1-4 1-5v-2c1-1 0-4 0-5 1-1 1-3 1-4l-1 2h0c-1-1-1 0 0-1l2-15v-2c1-1 1-3 1-4h1l2-10z" class="B"></path><path d="M514 236v-2c0-19 6-35 19-49 11-10 24-16 38-19 13-3 25-2 38-2h39l144-1v18c-20-1-37 4-54 14-21 13-36 35-48 57-19 35-32 75-45 113l-64 178-47 133-15 48c-3 9-7 19-9 28-3-8-6-18-9-26l-23-69-76-205-39-106-28-69c-10-22-21-45-38-63s-40-33-66-34v-11-5h145 40c14 0 27-1 41 2 13 3 26 9 36 19 9 9 16 20 19 33 1 6 1 12 1 18h1z"></path><path d="M514 236c0 10 4 20 10 29 7 10 19 17 31 19 10 2 21 0 29-7 7-5 12-13 13-21 0-7-1-14-6-19-5-6-11-7-19-7 5 3 10 3 14 7 3 4 4 9 4 14 0 6-4 12-8 15-6 6-14 8-22 7-11-1-22-7-29-16-7-8-9-19-8-30 2-12 8-23 18-31s25-13 39-11c5 1 10 2 14 4 16 6 28 20 34 36 1 2 3 5 2 8l-8 27-16 49-47 139-25 79-8 26c-2 5-3 9-4 14L401 221c7-12 15-23 28-30s27-7 41-3c13 4 24 13 30 24 5 11 6 23 2 34-3 10-11 19-21 23-8 4-18 6-27 3-6-3-12-7-15-14-2-4-2-11 0-16 3-7 10-9 17-12-6 0-12 1-17 5s-7 9-8 16 2 15 7 21c6 7 14 12 24 13 12 1 24-4 33-12 12-10 17-22 18-37h1z" class="B"></path></svg>