<svg xmlns="http://www.w3.org/2000/svg" xmlns:xlink="http://www.w3.org/1999/xlink" xmlns:v="https://vecta.io/nano" viewBox="126 80 769 816"><!--oldViewBox="0 0 1024 1024"--><style>.B{fill:#d4d3d2}.C{fill:#f6f5f4}.D{fill:#eaeae9}.E{fill:#fffffc}.F{fill:#191919}.G{fill:#cecdcc}.H{fill:#f0efef}.I{fill:#cfcfce}.J{fill:#161515}.K{fill:#1f1f1f}.L{fill:#2d2d2d}.M{fill:#3b3b3b}.N{fill:#3d3d3d}.O{fill:#a80707}.P{fill:#690304}.Q{fill:#5c0605}.R{fill:#4f4f4f}.S{fill:#010101}.T{fill:#696868}.U{fill:#300401}.V{fill:#9c0303}.W{fill:#949594}.X{fill:#7b0908}.Y{fill:#620304}.Z{fill:#430000}.a{fill:#adacab}.b{fill:#a90405}.c{fill:#830607}</style><path d="M296 428h-1-1c-2 1-8 1-10 0h-1c4 0 8 0 11-1h1l1 1z" class="B"></path><path d="M325 519c1 1 3 2 4 3-1 1-1 2-2 2l-3-3c0-1 0-1 1-2z" class="F"></path><path d="M332 704c2 3 4 6 7 9h0l-6-4h-1v-5zm23-131c1 1 2 2 2 3v4c1 3 1 7 1 10h-1c-1-4-1-9-2-13v-4zm-12 100h1c2-1 2 0 3 1v1l-3 3s-1 0-2 1c-1-1-1-2-1-3 0-2 1-2 2-3z" class="H"></path><path d="M482 478v1h1v5c-1 2-1 3-1 5v2 8c-2-5-2-15 0-21z" class="M"></path><path d="M709 537c-1-3-1-6-2-9-1-5-3-9-3-13 1 2 1 4 1 6 1 3 2 6 4 9l3-6c-1 2-1 4-2 6h0 1v1c-1 2-1 4-2 6z" class="B"></path><path d="M325 722v1c1 2 1 5 2 8 1 1 0 1 1 2l-1 1c0-1 0-1-1-1v2c1 2 0 5 1 7 0 1 0 2-1 3v-1-1c-1-2-1-4-1-5v-6c0-2 0-4-1-6 1-1 1-2 1-4z" class="C"></path><path d="M467 811l4 4h0c-1 2 1 10 2 13v1h-1v1h0c-2-3-2-8-3-12-1-2-2-4-2-7z" class="H"></path><path d="M454 902c3-5 6-9 10-14 0 3 0 4-1 6-2 3-4 5-7 7l-2 1z" class="B"></path><path d="M437 825l1-1h2c0-1 1-1 2-1 2-1 4-2 6-2l2 2c-1 0-2 1-3 1l-3 1c-2 1-4 3-6 4v-1c1-1 2-1 2-2v-1c-1 0-2 1-3 1-1 1-1 1-3 1l3-2z" class="C"></path><path d="M418 253c1-5 3-9 5-13v1c1 0 2 0 3-1 3-2 6-3 10-5 0 1-2 2-3 2-4 2-8 3-10 7-1 3-2 7-3 10-1-1-1-1-2-1z" class="J"></path><g class="D"><path d="M459 824c2 2 7 6 10 6 1 0 1 0 2 1h-1-4-2c-1 1 3 7 4 9l2 4-2 2v-1c-1-4-3-8-5-12 0-2 0-3-1-4-1-2-3-3-3-5z"></path><path d="M463 808l2 1c-4 3-7 6-9 10 1 1 2 3 3 5l-1-1c-1 0-2-2-3-4h0c-1 0-1 0-2-1a30.44 30.44 0 0 0 8-8c-3 0-8-1-11-1h-3c2-1 9 0 12 0 1 0 3 0 4-1h0z"></path></g><path d="M456 868l-1 1c-2 1-4 0-7 0-2-1-5-3-6-5l-2-2-1-1h1c3 2 9 6 12 5 0-1 1-1 1-2l1 1-1 1 1 1h5l-3 1z" class="C"></path><path d="M577 542c-2 3-4 6-7 8l-1 1c-4 2-7 4-11 6l-1-1c1-2 2-3 4-4 4-1 8-3 11-5 2-1 3-3 5-5z" class="G"></path><path d="M221 703c-3-3-15-20-15-22h0c4 5 7 8 10 12s5 7 7 11l-2-1z" class="B"></path><path d="M329 522c3 5 8 10 10 15l-1 2-11-15c1 0 1-1 2-2z" class="J"></path><path d="M718 298l5-8h0l-3-5c-1-1-1-1-1-2h1l4 6c1-2 2-7 5-8-1 2-3 5-4 7l1 1 1-2c1 1 1 1 1 2l-1 1c-1 2-2 4-2 6-1-1-1-2-2-3l-2 2v1c-1 1-1 1-1 2l-1 1h-1v-1z" class="D"></path><path d="M709 807h1v4c0 2-1 4-1 6v1c-2 3-3 8-7 10l-1-1c-1 0-1-1-2-2v-1h3c3-3 5-6 6-10v-4c1-1 1-2 1-3z" class="H"></path><path d="M289 714l2-1c2 1 5 1 7 2 3 2 5 8 5 12v4c0 1 0 2-1 3v1c-1-1-1-2-1-3h1v-8c-1-1-1-1-1-2h-1c-3-4-7-6-11-8z" class="C"></path><path d="M501 549l1-1-1-2 1-1v1 1h0c1 1 1 0 2 1 0 1 1 1 2 1 2 4 1 7 2 11 0 2 0 3-1 5-2-6-5-11-6-16z" class="B"></path><path d="M234 723c1 0 3 1 4 1 0 4 5 7 7 10 1 1 2 2 3 2-2 1-4 0-5 1h-2l1-1c0-1 0-1-1-1-3-4-5-8-7-12z" class="I"></path><path d="M767 776v1c0 1-1 3-1 4-2 4-3 8-4 12-1 3-1 8-3 10h-1-1c-1-4 7-22 10-27zm-27-322l-5-16c3-2 7-5 11-6l1 1c-1 2-2 3-4 4h-1c-1 1-4 2-5 3 0 3 1 5 2 7v2c1 1 1 2 1 2 0 1 1 1 1 2l-1 1z" class="D"></path><path d="M344 484c0-3-1-6-1-8-1-5-1-9-1-13 1-6 2-11 1-16v-4 3 1c1 5 1 10 1 15v11c1 2 1 5 2 7s3 4 4 6h0c-2-1-2-3-4-4l-1 1-1 1z" class="B"></path><path d="M328 746l1-1h0c0 1 1 2 1 3s0 1 1 2h2c2 2 4 5 6 7h1c2 3 3 8 4 12-2-3-4-6-5-8-2-2-4-4-5-6l-3-3h-1c0-1-1-2-2-3v-3z" class="D"></path><path d="M545 316v1c0 2-1 5-1 7-3 12-4 21-12 31h-1c0-2 1-4 2-5l6-12c2-5 3-11 4-16l1-1 1-5z" class="H"></path><path d="M224 775c-3-1-6-2-8-4-2-1-5-3-7-4h-4 5l-26-20v-1l17 14c2 1 4 3 7 4v-1c2 4 8 6 12 7l7 4-3 1z" class="F"></path><path d="M540 419c1 2 2 3 3 4s2 1 2 3v1c0 3 2 6 3 9-4-2-6-3-9-7 0-3 0-6 1-10z" class="H"></path><path d="M331 752l3 3c1 2 3 4 5 6 1 2 3 5 5 8 2 5 5 11 5 16 0 1 0 0 1 1l-3 1c0-4-2-7-3-10-1-5-3-11-6-15-2-4-5-6-7-10h0zm1-160c2 2 3 8 4 10 1 4 3 8 4 10l3 5c0-4-1-9 0-12v-1l3 18-1 1c1 3 2 6 3 8l-1 1c0-1-1-1-1-2-1-4-2-8-4-12-2-5-5-9-7-15h0v-2c-1-1-1-3-2-4l-1-5z" class="B"></path><path d="M424 877h2c-1 2-1 5-2 7 0 2-1 4-1 7v1c-1 1-1 2-1 4s-1 5-1 8v7l-1-1v-6l1-10c-2 0-2 0-4-1-1-2-1-4 0-6l1-1c1 1 2 1 3 2h0 1v-1c1-2 1-5 2-7v-3z" class="C"></path><path d="M344 484l1-1c1 2 1 8 3 10h3 0 0l-3 1c-1 4-1 9 0 13l5 12c-1 1-1 1-2 1-1-4-3-9-4-13l-1 3c-2 4-4 9-8 11h-3c3-1 5-2 6-4 4-6 6-15 5-22-1-3-1-7-2-11z" class="G"></path><path d="M358 836c0-3 0-4 1-5 10-1 21 0 31 0-2 3-4 7-6 9 1-3 3-5 4-8h-4l-1 2v-1-1h-1c-3 0-6 1-8 0s-5 0-7 0h-1v1h1l-2 5c-1 2-2 4-3 5v-3h1-1v1l-1 1h-1c0-1 1-4 2-5h0c1-2 2-4 3-5-2-1-3 0-5 0-1 0-1 3-2 4z" class="B"></path><path d="M750 671c1-1 2-1 4-1l2-1c2-6 4-12 7-17l-1 4c0 2-1 4-2 5-1 3-1 6-2 10v1c-2 6-1 13-6 18h-2l7-20c-2 0-4 1-6 1h-1z" class="I"></path><path d="M615 436c-1-1-1-2-1-3v-2c-1-1-1-1 0-2l1-1c2-3 2-7 1-11h0c-1-3-2-5-3-8l-3-7c-1-2-4-9-3-11 2 3 5 8 5 12v2l2 4c1 3 3 6 4 10 0 2 1 2 2 3l-5 14z" class="B"></path><path d="M328 826c-2-1-4 0-6 0-8 1-15 2-22 5h0v-1c1 0 2 0 2-1l7-2h3v-1l2-2h-1l-1 1-5 1c-2 1-3 1-4 1v1h-1l-3 1c0 1-1 1-1 1-2 1-3 1-5 3h0-1c6-5 15-9 23-10 6-1 11 0 17-1l-4 4z" class="G"></path><path d="M380 551c-1 0-1-1-3-1l-1-1h-1l-4-2c-2 0-3-1-4-1-2 0-3-1-4-1l2-1h0c-1 0-2-1-3-1 0-1 0-1 1-2l3 1c2 2 7 0 9 1h1c1 0 2 1 3 2h1v6z" class="C"></path><path d="M353 519c1 2 1 3 2 5 1 4 3 10 6 14v1l-1 1-1-1c-1 0-2-1-3-1h-2-3-1c0-1 0-1 1-1v-1l-2-1c2-1 3 1 5 0v-1-2l-3-12c1 0 1 0 2-1z" class="D"></path><path d="M367 88h1c0 1 1 1 1 2v1c1 3 1 7 3 10l1-1h0l-1 4-1 3c0 1 0 1-1 2l-1 1-2 5c0 1-1 1-2 2h-1c1-1 1-1 1-2l1-1v-2c1-5 1-11 2-17 0-2 0-5-1-7z" class="C"></path><path d="M793 114h1c-10 7-21 10-33 8 0 3 0 7-1 9v1-2l-1-1v-6-3-1l1 1h14c6-1 14-4 19-6z" class="D"></path><path d="M495 536h1c1-1 2-1 3-2 2 2 2 1 4 1 1 0 2 2 2 2 0 2 0 4 1 7 1 1 0 4 0 5-1 0-2 0-2-1-1-1-1 0-2-1h0v-1-1l-1 1 1 2-1 1c0-1-1-2-1-4-2-3-3-7-5-9z" class="G"></path><path d="M731 677l7-15c1-1 1-2 2-2l7-10 1 1-3 3v1c-1 1-1 2-1 3h1l5 5v1c-1-1-2-3-3-3-2-1-3-1-4 0l-6 10c-1 2-2 3-1 5v1l-5 3c-1-1 0-2 0-3z" class="I"></path><path d="M409 158c1 0 1 2 1 3 2 8 5 30 12 35l1-1v1c0 1-1 2-1 3s-1 1-1 2l-1-1c0-1 0-1-1-2-6-8-8-20-9-30 0-3-1-7-1-10z" class="D"></path><path d="M390 831c2 0 4 0 6 2h0 0c-3 3-5 8-7 11-3 5-6 10-8 16-2 4-4 9-6 13 0-1 0-2 1-3v-1c0-2 1-4 2-5l1-1c1-3 2-7 4-9l1-3c1-3 3-5 5-8 0-1 0 0 1-1v-1l1-1c0-1 0-2 1-3 1-2 1-3 2-4-1-1-2-1-3-1v1c0 1 0 1-1 2l-4 5v1l-2 2v1c-2 1-3 3-4 5 0 1-1 3-1 4l-1 1v1c-1 1 0 1-1 2 0 2-2 5-2 7-1 1-1 2-2 4v-1h0c0-2 0-3 1-4v-2h1v-1c0-1 1-2 1-3v-1l1-3 2-4 1-2 2-4c0-1 1-2 1-3h1c2-2 4-6 6-9z" class="G"></path><path d="M324 134c0-7 0-15-1-22-2-10-5-20-4-30h0c0 4 0 7 1 11 1 3 2 5 3 8 1 5 2 10 2 15 1 6 2 12 1 19l-2-1z" class="H"></path><defs><linearGradient id="A" x1="514.487" y1="564.031" x2="523.852" y2="569.377" xlink:href="#B"><stop offset="0" stop-color="#afacae"></stop><stop offset="1" stop-color="#cbccc9"></stop></linearGradient><linearGradient id="B" gradientUnits="userSpaceOnUse"></linearGradient></defs><path fill="url(#A)" d="M518 550h0c1 0 1-1 2-1v2l1 1h0v8 22h0c-1 3 0 6-2 8v-13l-1-22-1-5h1z"></path><path d="M518 550h0c1 0 1-1 2-1v2l-1 1 1 1-1 3h-1v-1l-1-5h1z" class="a"></path><path d="M729 721l13-3c3-1 7-2 10-3 3 0 6 1 9 1 1 1 5 2 6 2s3-2 5-3c-1 1-2 2-4 3l9 3v1c4 5 16 3 22 5-5 0-13 0-18-2-3 0-5-2-7-3-6-2-14-5-21-5-6 1-12 3-18 5-1-1-1-1-2-1h-4z" class="S"></path><path d="M576 468h7v1 1c-1 2 0 5 0 7 1 5 2 10 4 15 1 3 3 6 4 10 0 1 0 3-1 4-1-2 0-3-1-4 0-1-2 0-2-2s-2-5-3-8l-4-14c-1-2-2-5-2-7l-2-3z" class="I"></path><path d="M576 468h7v1c-1 1-1 1-2 3v6c0-2-2-7-3-7l-2-3z" class="C"></path><path d="M250 135h0c1-1 2-1 3-1 0-5-1-11 0-16 0-8 2-15 3-22l3-18c0-2 1-4 1-6 1 2-4 37-4 42-1 6-1 12 0 17 1-1 2-2 4-3v1c-1 1-3 2-4 4v2h-6zm27 563h0c0-3 0-11 2-13 1 1 1 1 2 1 4-3 6-6 6-12 1-2 0-3 2-4v5 14 1c-1 1-3 4-5 4s-3-1-4-2-1-2-1-3l1-1-1-1v6 1 1 2c-1 1-1 2-1 3 0 0 0-1-1-2h0z" class="D"></path><path d="M284 694l-1-1-2-1c-1-1-1-2-1-3 1-1 2-1 3-1 2-1 4 1 6 2-1 1-3 4-5 4z" class="C"></path><path d="M324 521c-5-4-9-7-15-10-2-1-4-3-6-3-4 0-7 1-10 2-2 1-4 2-6 2 5-2 10-4 15-5-3-4-6-5-11-7l7 2c-4-5-8-10-11-15v-1c3 5 7 9 11 13 1 2 3 4 5 5 3 2 6 3 9 5 5 2 9 6 13 10-1 1-1 1-1 2z" class="S"></path><path d="M245 659l6-19h0c-1 7-4 13-5 20-2 10-3 20-2 30 0 7 2 15 5 21 1 5 3 9 5 13-1 0-1 1-2 2v-1c-2-3-3-7-5-11-3-8-5-19-5-28s1-17 3-26v-1z" class="J"></path><path d="M499 309c5-1 15 0 19-3 2-6-1-13 0-20 1 3 0 8 2 11v9c6-3 10-6 15-10v1c-4 4-9 7-15 10l2 17c0 2 1 5 1 6h-1v-2 3c0 3-1 5-1 8 0-3 0-6-1-9l-1-22-15 2h-4l-1-1z" class="b"></path><path d="M716 610c5-3 10-6 16-7 5-2 10-3 15-5 8-5 14-14 19-22v1c-3 6-7 12-12 17h3c-1 1-2 1-3 1-3 0-8 4-11 6-6 2-12 3-17 6-4 2-7 4-10 6-4 4-5 8-7 13l-5 13-1-1c3-10 6-20 13-28z" class="K"></path><path d="M561 381c0-3 0-7 1-10l2-43c1 2 1 5 1 7 1 7 1 15 1 22l-1 16c0 4 0 9-1 14v4 1c-1-1-1-2-1-2v-1c0-3 1-6 0-8h-1-1zM284 589c1 1 0 2 0 3 1 5 3 8 5 12l4-1h0c-1 2-3 3-5 4l10 3v1l-6-2c-2 0-5-1-6 0v8l4 2h1l-3 4-2 5c-1 1-1 2-1 3 0 2 0 6-1 8l-1-1v-26c0-3 0-4-2-5l1-1v1h6c-1-2-3-5-3-7l-1-1c-1-3-1-7 0-10z" class="D"></path><path d="M157 115c2 0 6 2 8 2 2 1 4 2 7 2 7 1 13 1 20 2 7 0 14-1 20 1 4 2 8 5 11 8-1 1-7-3-8-3-3-1-5-2-7-2-5-1-10-1-15-1-13-1-25-3-36-9z" class="B"></path><defs><linearGradient id="C" x1="349.218" y1="623.502" x2="354.942" y2="621.44" xlink:href="#B"><stop offset="0" stop-color="#0c0e0b"></stop><stop offset="1" stop-color="#2c2928"></stop></linearGradient></defs><path fill="url(#C)" d="M351 636c1-2 2-5 2-7 1-10-5-21-9-29-2-3-5-10-8-11h-3l4-1-6-8h0l7 8c1-5 0-12 5-16 1-1 2-2 4-3v1c-3 2-6 4-7 8 0 3-1 9 0 11 0 2 2 4 3 6 2 3 3 6 5 9l1 1c1 0 1 2 1 3h1c1 1 1 1 1 2 1 5 4 12 4 18 0 3-1 6-2 10v-2l-1-1c-1 1-1 1-2 1z"></path><path d="M320 668c1 6 2 10 5 15 3-4 6-9 10-12l4-4-2 3c-3 4-7 7-9 11l-2 3 6 20v5l1 10c1 4 1 10 0 14v1c0 1-1 3-1 4l-1-1 1-3c1-5 0-11 0-16-1-4-1-10-3-15h-1l1-1c-1-5-3-11-6-16-1-3-1-6-2-9s-1-5-2-8l1-1z" class="B"></path><path d="M729 281c0-2 0-3 1-4 3-4 4-8 8-11 3-2 6-3 10-4 7-5 12-9 20-12-1 2-2 2-3 3-2 1-3 3-5 4l-9 6c3 1 5 1 8 3 2 1 3 3 5 5s3 4 5 6c1 1 4 2 5 3v1c-11-3-14-20-28-16v1c-6 2-13 8-16 13-1 1-1 1-1 2zM392 702c-2 0-4 0-5 1s1 0-1 0c-2 1-4 2-5 3-2 0-4 1-5 2-1 0-2 1-2 1h-1c0-2-1-5-1-6v-1-1l1 1v1l1 1v2l1 1 9-9v-1h-1c-2-4-5-6-8-8-1-4-1-8-1-12 1 2 1 4 2 6s3 3 4 5c2 0 1-1 2-2 1 1 2 5 3 6s3 2 4 2c1 2 2 2 3 3v5zm129-150h1v6l1 1 1-1h-1v-1h2v1c0-2 1-3 1-5l-1 12c1 8 0 15-1 23 0 4 1 11-1 16v1l-1-2c-1-1-2-4-2-6s-1-4-1-7c2-2 1-5 2-8h0v-22-8z" class="D"></path><path d="M521 552h1v6l1 1 1-1h-1v-1h2v1c0-2 1-3 1-5l-1 12v9l-2-12c-1 0-1-1-1-2h-1v-8z" class="G"></path><path d="M521 560h1v6 7c0 6 1 13-1 19-1 1-1 3-1 5 0-2-1-4-1-7 2-2 1-5 2-8h0v-22z" class="B"></path><path d="M546 583l1 25c0 4 0 10-1 14-2 6-3 11-5 16v-4h-2l1-2v-1h-1v-3h2v-3-2-1l1-1v-1h-1 0l1-2h0c-1-6-1-11-1-16l2-2v-8c0-2 0-3-1-4v-1l4-4z" class="O"></path><path d="M541 602l2-2c1 6 2 14-1 18h0c-1-6-1-11-1-16z" class="V"></path><path d="M279 746c2 1 5 6 7 7 2 2 5 3 7 4 9 6 19 13 26 20 0 1 1 2 2 2 1 1 1 1 2 3h0c-4-3-6-2-10-4-3-1-6-4-9-6-4-3-10-6-16-7h-1l1-1c3 0 6 2 10 4 2 1 4 2 6 2 0 0-1-1-2-1-5-4-11-9-18-10h-2c2-1 4-1 6-1-4-4-7-7-9-12z" class="D"></path><path d="M353 568c-1 0-1 0-2-1v-1l-3-2h1s1 0 2 1v-1c0-2-1-4-2-6v-1-1c1 1 1 1 2 1h0c1 1 2 1 3 1l2 2c-1 1-1 3-1 5l1 1c3-1 7-1 10-1l-1-8 2 1v2 2c1 2 1 7 2 9 2 2 2 1 2 4h-1l-1-1h-1l-1-1c0 1-1 2-1 3 0 2 0 3-2 5h0l-1-1c-4-2-7-8-9-13l-1 1z" class="B"></path><path d="M354 567c2 0 3-1 5-1l7-1v6l-4 4v1l1 1 1 2-1 1c-4-2-7-8-9-13z" class="C"></path><path d="M742 729c2 1 2 1 4 1 7-2 15-5 23-3 3 1 6 3 8 4l1 1v8c-1 5-2 11-4 16-1-2 2-11 2-13 1-3 1-6 1-9-1-2-3-2-5-2-7-1-16 0-23 4 5 0 8 2 12 5l-1 1c-3-3-5-4-9-5-2-1-4-2-6 0-1 0 0 0-1 1l-2-9z" class="H"></path><path d="M685 436c4-11 5-20 13-29 3-4 7-7 10-11v-1c4-5 7-10 9-16v3c1 0 2-1 3-2v1h0c-5 4-8 12-12 17-4 6-9 10-13 15-3 6-5 11-6 17l8-6c3-1 6-2 8-5v1l-1 1h1c7-1 10-4 14-9v1c-2 2-5 6-8 8-2 1-5 1-7 2-7 3-14 9-16 15h1 7c6 1 11 6 16 8h-3c-1 1-1 1-1 2h0v-2c-1-1-4-3-5-4-5-2-11-2-16 0-1-1-1-2 0-2v-2c0-1 0-2 1-2l1-2v-1h1c0-1 1-2 2-3l3-3c1 0 2-1 2-1h-1c-2 1-4 3-7 4 0 1-1 1-1 1 0 1-1 2-1 3s0 1-1 2h-1z" class="K"></path><path d="M245 660l-2 1c-11-10-17-24-20-38-2-10-3-20-3-29 0-14 4-27 5-41v-12c1-2 0-7 1-9v7c0 14-2 26-3 39-3 23 0 49 12 69l8 11 1 1h1v1z" class="D"></path><path d="M304 799h0c-9 1-17 3-25 5-2 1-6 1-7 2l-1 1c-2-2-6-2-9-2l-12-3c-7-2-14-6-21-8l-2-1h-1-3c0-1-1-1-1-2-1 0-2 0-3 1l-1-1h1c1-1 1-1 2-1 3 2 9 3 13 4 10 3 20 8 31 8h1v-1l3 2c2 2 23-6 27-7s8-1 12-2l-4 5z" class="G"></path><defs><linearGradient id="D" x1="711.371" y1="721.329" x2="711.629" y2="737.131" xlink:href="#B"><stop offset="0"></stop><stop offset="1" stop-color="#323231"></stop></linearGradient></defs><path fill="url(#D)" d="M717 722l12-1h4c1 0 1 0 2 1l-6 1c2 2 6 6 9 5h3 1v1l2 9 9 39v2c1 2 1 4 0 6h-1c1-3 0-6 0-9-2-14-6-29-11-43 0-2 0-3-1-4l-3 1h0c-5-1-8-4-12-6-4 0-8 1-13 2s-10 3-14 7c-5 3-9 7-14 11 0 0-1-1-2-1 4-4 9-8 12-12l11-7h1l11-2z"></path><path d="M251 735c3 3 6 5 8 9 3 4 5 10 7 14 2 5 5 9 8 14h0c-5-1-12-10-16-14-3-4-6-9-10-13-1-2-3-5-4-7v-1h-1c1-1 3 0 5-1 1-1 2-1 3-1z" class="D"></path><path d="M521 514v-3c1 2 1 3 1 4l3 3 1 10v25c0 2-1 3-1 5v-1h-2v1h1l-1 1-1-1v-6h-1 0l-1-1v-2-3h0v-6l-2 1 1 2h-1l-1-3v-8c-1-2 0-4 0-6-1-4-1-7-1-11 1 0 3-1 5-1h0z" class="W"></path><path d="M522 515l3 3 1 10-1 10c-1-2 0-3-1-5v-7c-1 0-1 0-2-1v-10z" class="N"></path><path d="M520 535c2 1 1 3 2 5 1-1 1-5 1-7h1c1 2 0 3 1 5s1 4 1 7h-1c-1-1 0-2-1-3-2 1-1 2-2 3-1 0-2 0-2 1h0v-6h0v-2h0v-1-2z" class="a"></path><path d="M526 528v25c0 2-1 3-1 5v-1h-2v1h1l-1 1-1-1v-6h-1 0l-1-1v-2-3c0-1 1-1 2-1 1-1 0-2 2-3 1 1 0 2 1 3h1c0-3 0-5-1-7l1-10z" class="B"></path><path d="M516 515c1 0 3-1 5-1h0v10 3l1 1h-1s-1 1-1 2c-1 0-1 0-2 1h0 2v1c0 1-1 1-2 1l1 1h1v1 2 1h0v2h0l-2 1 1 2h-1l-1-3v-8c-1-2 0-4 0-6-1-4-1-7-1-11z" class="T"></path><path d="M516 515c1 0 3-1 5-1h0v10h0c-1-2-1-4-1-5l-2 2v1l1 1v1c-1 1-1 2-2 2-1-4-1-7-1-11z" class="N"></path><path d="M633 384c-3-2-5-5-8-8-3-4-8-7-10-11-4-6-7-12-9-19-1-4-2-7-3-10-2-5-8-9-13-11-7-3-13-7-18-12l1-1c8 9 21 12 29 20 0-5 1-9 2-14 1-4 1-9 3-13 0-2 2-5 2-7 1-2 1-3 0-4h-1c-1 2-2 4-4 5h-1c1-2 3-3 4-4l1-2h0 2l1 1c1 1 0 3 0 5-4 10-9 24-6 34s6 18 11 27c3 4 6 8 10 12 3 2 5 4 8 6h1l-2 6z" class="I"></path><path d="M712 726c0 2 0 4-1 6l-2 9c-1 1-1 2-1 4l-6 2c-5 0-11 1-16 0-2 0-2 0-3-1l1-2c5-4 9-8 14-11 4-4 9-6 14-7z" class="G"></path><path d="M684 744c5-4 9-8 14-11v1c0 1-1 2-1 3l-3 8c-3 2-5 2-8 2-2 0-2 0-3-1l1-2z" class="C"></path><path d="M536 575h2l1 4v-4-10-3c0 1 0 3 1 4 1 0 1 0 2 1 1-1 1-1 1-2s0-1-1-1l1-1 1 1v4 1c1 0 1 1 2 2-1 4-1 8 0 12l-4 4v1c1 1 1 2 1 4v8l-2 2c0 5 0 10 1 16h0l-1 2h0 1v1l-1 1v1 2 3h-2v-1l1-1h-1 0-1c0-2 1-1 2-3h-1-1c1-1 1-1 1-2h-1c1-1 1-1 1-2h-1v-1h1v-1h-1v-1c1 0 1 0 1-1h-1v-1s1-1 1-2l-1 1c0-2 0-3-1-4 0-4-1-10 0-14 0-2-1-3-1-4h1l-1-2 1-1c-1-1-1-1-1-2v-1h0l1-1-1-2h0l1-1-1-2v-1l-1-1c1-1 1-1 1-2z" class="U"></path><path d="M540 566c1 0 1 0 2 1 1-1 1-1 1-2s0-1-1-1l1-1 1 1v4 1c1 0 1 1 2 2-1 4-1 8 0 12l-4 4v1c1 1 1 2 1 4v8l-2 2c-1-4 0-9 0-13 0-1-1-2-1-3s1-1 0-2v-6-12z" class="X"></path><path d="M712 726c5-1 9-2 13-2 4 2 7 5 12 6h0c-2 3-5 4-7 6-7 5-13 9-21 11l-2 1-3 1v-1h1c0-1 1-1 1-1h2c2-1 3-1 5-2h-1-1-1c-1 1-1 1-2 1h0-1l-1 1h-4l6-2c0-2 0-3 1-4l2-9c1-2 1-4 1-6z" class="E"></path><path d="M708 745c11-4 19-10 29-15-2 3-5 4-7 6-7 5-13 9-21 11l-2 1-3 1v-1h1c0-1 1-1 1-1h2c2-1 3-1 5-2h-1-1-1c-1 1-1 1-2 1h0-1l-1 1h-4l6-2z" class="L"></path><path d="M741 453c1-3 3-7 4-10 1-4 2-8 4-12l4-14c4-11 5-21 5-32v-15c0-4-1-8-1-13 2 8 2 16 2 24 0 5 0 11-1 16-1 15-7 29-11 43-1 5-5 10-6 15v1c-2 3-3 7-5 11-5 9-10 19-13 29-1 4-3 7-3 11l-3 14c-1 4-3 8-5 12-1 3-2 6-3 10v-1h0v2l-1-1 1-6c1-2 1-4 2-6v-1h-1 0c1-2 1-4 2-6l5-19c2-6 5-12 6-18s1-13 2-19c2-6 2-12 3-18 1-4 0-8 1-11 1-5 1-11 0-16v-6h0l1 6c1 2 1 5 0 8v6l-1 13c-1 3 0 6-1 8v2 2c-1 4-2 9-2 14-1 2-1 5-1 7 2-3 4-6 5-9l10-20 1-1z" class="G"></path><path d="M367 558c4 2 8 4 11 6h0c-1 1-2-1-3 0l1 1c0 1 1 2 1 3-1-1-2-3-3-4h-1l1 2h-2c2 5 2 10 2 14v10c0 2 0 2-1 3h-1c0-2 1-5 0-6l-7-5c-1 11-3 22 0 32l4 4v1l-5-4c0 3 0 6 1 10 0 3 1 6 2 9v13l-1 3-2-1c2-3-3-19-4-24-1-4 0-6 1-10v-21-8-1h1c1-3 0 0 1-2-1-3-4-5-6-7 0-1-1-2-2-3 0-2-2-4-2-5l1-1c2 5 5 11 9 13l1 1h0c2-2 2-3 2-5 0-1 1-2 1-3l1 1h1l1 1h1c0-3 0-2-2-4-1-2-1-7-2-9v-2-2z" class="I"></path><path d="M367 558c4 2 8 4 11 6h0c-1 1-2-1-3 0l1 1c0 1 1 2 1 3-1-1-2-3-3-4h-1l1 2h-2v1 19c-1 0-5-3-6-4 1-2 1-4 3-6l-1-2h1l1 1h1c0-3 0-2-2-4-1-2-1-7-2-9v-2-2z" class="C"></path><path d="M718 673v-1l1-1v-2c1-1 1-2 2-3 3-11 11-21 12-32h-2 0c2-2 5-3 7-4 0 1-1 1-1 2-2 2-2 6-2 8-1 3-1 5-2 7h1c2-1 5-2 7-2h0c-2 1-6 2-8 4v2c-1 2-2 5-3 8l-1 2c-2 4-3 8-5 12v2l-3 8c0 2-1 3-2 5 0 1-1 1-1 2s-1 2-1 3c-2 1-11 9-12 9l-3 2h-2c1-2 3-5 4-7 0-2 1-2 1-4l2-2s1-1 1-2h1c1-1 1-2 2-3 0-1 0-2 1-2l1-2c1-1 1-2 2-3l3-6z" class="D"></path><path d="M711 686c0-1 0-2 1-2l1-2c1-1 1-2 2-3l3-6c0 2 0 3-1 5 0 2-2 3-2 5-1 2-2 3-2 5 1-1 2-3 2-4 0 1 1 1 0 2s-1 2-1 3h0c1-2 2-3 2-4v-1-1l1 1c0 2-1 4-2 6l1 1v1h0 1c0-1 0-2 1-2 0 1-1 2-1 3-2 1-11 9-12 9l-3 2h-2c1-2 3-5 4-7 0-2 1-2 1-4l2-2s1-1 1-2h1c1-1 1-2 2-3z" class="B"></path><path d="M366 650l1-3v-13c-1-3-2-6-2-9-1-4-1-7-1-10l5 4v-1l-4-4c-3-10-1-21 0-32l7 5c1 1 0 4 0 6-2 5-1 9-1 14v11 1h-1 0v1h0c1 1 2 2 2 4h0l1 10v6h-3v1h0 3c2 4 1 9 2 12 1 1 0 3 0 4-3-1-6-4-9-7z" class="E"></path><path d="M708 448h0c1 3 1 5 0 8v3l-1 1c0 4-1 9-3 12 1 2 2 4 2 7-1 1-1 3 0 4v1c1-2 2-3 3-5l1 1c-1 1-2 3-3 4l-1 1c0 1 1 4 0 5 0 3-1 5-2 7l-2 14-3 9c-1 6-2 13-1 19 3 3 5 5 9 6 0 0 1-1 1-2l1 1v-2h0v1c1-4 2-7 3-10v3h0v1h1 0l2-2c-3 6-5 12-7 17 0 3-1 7-3 10l-4 4c0-3 1-6 0-8-1-4-3-7-4-10-2-4-3-9-3-13-1-5 0-10 1-15l3-9c1-2 1-5 1-7 1-3 2-7 3-10l-1-1h0-1c3-3 1-10 2-13v-2-2l4-17c1-1 1-2 1-3 0-2 1-5 1-8z" class="B"></path><path d="M704 472c1 2 2 4 2 7-1 1-1 3 0 4v1c0 1-2 4-3 5-1-3-1-8 0-11 1-2 1-4 1-6z" class="H"></path><path d="M752 690c6-2 13-2 18-5l9-6c5-3 8-7 13-10 5-4 10-6 15-9l1-1 6-6v1c-3 4-6 7-11 9-3 3-7 4-11 7l-17 14c-2 2-4 4-6 5-4 2-8 3-11 4-6 1-13 3-18 7-6 3-11 8-16 14-2 2-6 5-7 8l-11 2h-1v-2h0c1-1 0-4 0-5-1-4 0-7-1-11l1-1 2-1s2-2 3-2v1c3 2 3 8 3 12v1l9-9c5-5 21-17 28-17h2z" class="G"></path><path d="M704 706l1-1c3 3 2 10 2 14 0 1 0 2-1 4v1h-1v-2h0c1-1 0-4 0-5-1-4 0-7-1-11z" class="B"></path><path d="M562 393c1 6 0 11 2 16 6-10 11-23 13-35 0-6 1-12 2-18 0-1 0-3 1-4 0 3-1 6-1 9-1 7-1 13-2 20l-6 15c-2 6-3 10-7 15 1 12 1 28 7 39 2 4 5 7 9 10 2 2 4 5 7 5h1l-1-1c1 0 1 1 1 1 2 1 3 1 5 2v1c1 0 2 1 2 2 1-1 1-1 1-2h2l3-16c0-4 1-9 0-13v-5 1l1 4c1-8 2-18 0-25v-3c1 1 1 2 1 4h0c1 6 1 11 1 16 1-1 2-3 4-3 0 1-4 3-4 5-1 10-1 20-3 30-1 7-3 13-4 19-3-4-6-9-10-13h-1c-1-1-2-1-3-1h-7c-3 0-7-1-10-2l-4-2c-1-1-2-1-3-2 2 0 4 2 6 2 4 2 8 2 12 3-3-7-8-12-11-19-3-6-2-13-4-20-1-2-3-5-4-7-3-4-5-7-7-11l1-1c3 5 6 9 10 13l-1-17v-7c-1 0-1-1-1-1v-1c2-3 1-11 1-15h1 1c1 2 0 5 0 8v1s0 1 1 2l-2 1z" class="S"></path><path d="M562 381h1c1 2 0 5 0 8v1s0 1 1 2l-2 1v-12zm13 79c2 1 6 4 7 6h-4c0-2-2-4-3-6z" class="H"></path><path d="M588 465c2 1 3 1 5 2v1c1 0 2 1 2 2 1-1 1-1 1-2h2c0 2-1 5-1 7-3-3-5-7-8-10h-1z" class="D"></path><path d="M289 689c5-5 9-9 11-15 0-2 0-2 1-3 0-2 0-2 1-3v1c-1 2-2 5-2 8h1c4-2 10-8 13-12 1-1 0-1 1-1l-4 6c-5 8-13 15-19 21-2 2-4 5-6 7-3 2-7 6-9 9-1 3-1 5-1 8 5-2 11-4 15-6 8-5 10-14 13-21l6-12c6-7 12-14 19-20h0c-1 2-3 3-4 5-2 2-3 5-5 7l-1 1c-3 5-7 11-10 16-5 10-6 23-18 28l-2 1c-4 1-12 3-14 7-1 3-1 7-1 10 0 7 0 14 1 21 0 3 2 7 2 10-3-3-6-6-8-10h1l1 1v-1c-1-1-1-3-1-4-1-7-2-15-1-22 1-5 2-9 1-13h0l1-1c0-2 1-4 2-5 0-1 1-1 1-2s-1-1-1-2l2 1c1-1 2-2 2-3v-3h0c1 1 1 2 1 2 0-1 0-2 1-3v-2-1-1-6l1 1-1 1c0 1 0 2 1 3s2 2 4 2 4-3 5-4v-1z" class="I"></path><path d="M515 508v1c1 1 1 2 1 4v2c0 4 0 7 1 11 0 2-1 4 0 6v8l1 3h1l-1-2 2-1v6h0v3c-1 0-1 1-2 1h0-1c-1-2-1-3 0-5l-1-2v-2-2-2c-1 1-1 3-1 5h1l-1 1v7 10 18c0 3-1 6 0 8-1-1-2-4-3-5l-5-16c1-2 1-3 1-5-1-4 0-7-2-11 0-1 1-4 0-5-1-3-1-5-1-7 0 0-1-2-2-2-2 0-2 1-4-1-1 1-2 1-3 2h-1c-1-3-2-5-3-8h1v-1c-1-2-1-2-1-3h2 1l2 2v-3-1c1-1 2-1 2-2l2-2c0 2-1 2 0 4v1h4v-3h1l-1-2 1-1v1c0 1 0 3 1 5v-2c1 0 1 0 2-1 0-1-1-1-1-2l2-2v-4c-1-1 0-1 0-2 2 0 3-1 4-2h1z" class="G"></path><path d="M520 540v6h0v3c-1 0-1 1-2 1h0l-1-10 1 3h1l-1-2 2-1z" class="W"></path><path d="M510 510c2 0 3-1 4-2 1 2 1 4 1 6h0c-1 4 0 8-1 12h-2l2 2v2l-1 1h0l1 1v1l-1 1c1 1 1 1 1 3h-2v1h2c0 1 0 1-1 2h1v2l-2 1h2v1 2c0 1-1 1-1 1-2 0-3 1-4 1-1-2-1-4-1-6l-1-14v-2-3-2c1 0 1 0 2-1 0-1-1-1-1-2l2-2v-4c-1-1 0-1 0-2z" class="R"></path><path d="M510 516v6 3c-1 0-1 1-2 1h-1v-3-2c1 0 1 0 2-1 0-1-1-1-1-2l2-2z" class="N"></path><path d="M510 510c2 0 3-1 4-2 1 2 1 4 1 6h-1c0 1-1 1-2 1l-2-3c-1-1 0-1 0-2z" class="L"></path><path d="M501 518c0 2-1 2 0 4v1h4v-3h1l-1-2 1-1v1c0 1 0 3 1 5v3 2l1 14c0 2 0 4 1 6l1 1c1 0 2 0 4-1v1l-2 2h1c1 0 1 1 2 1v5h-1-2c0 1 0 1 1 2l-1 1v-1l-1 1v1s-1 1-1 2c1 0 1 0 2-1v1 1h-1-1l-1 1c-1-2 0-3-1-5-1-4 0-7-2-11 0-1 1-4 0-5-1-3-1-5-1-7 0 0-1-2-2-2-2 0-2 1-4-1-1 1-2 1-3 2h-1c-1-3-2-5-3-8h1v-1c-1-2-1-2-1-3h2 1l2 2v-3-1c1-1 2-1 2-2l2-2z" class="I"></path><path d="M501 518c0 2-1 2 0 4v1h4v-3h1l-1-2 1-1v1c0 1 0 3 1 5v3 2 1c-1 0-1 1-2 1 0 1-1 1-1 1v2h-3c1-1 1-1 1-2l-1-1h0 3l-1-1h-2v-1l-1-1c-2 1-1 1-2 3l-1-2v-2h0v-3-1c1-1 2-1 2-2l2-2z" class="a"></path><path d="M750 671h1c2 0 4-1 6-1l-7 20c-7 0-23 12-28 17l-9 9v-1c0-4 0-10-3-12v-1c-1 0-3 2-3 2v-1l1-1c1-1 2-1 3-2-1 0-1 0-2 1-1 0-2 1-3 1h-1c1 0 10-8 12-9l2-1c4-4 9-10 12-15 0 1-1 2 0 3l5-3 7-3c1-1 1-1 3-1 1-1 3-2 4-2z" class="C"></path><path d="M719 692h2l-11 10c-1 0-3 2-3 2v-1l1-1c1-1 2-1 3-2-1 0-1 0-2 1-1 0-2 1-3 1h-1c1 0 10-8 12-9l2-1z" class="F"></path><path d="M736 677l7-3h0c-3 2-7 4-11 6-4 4-6 9-11 12h-2c4-4 9-10 12-15 0 1-1 2 0 3l5-3z" class="M"></path><path d="M628 788h2c5 1 9 2 12 5 1 1 1 1 1 2h1c1 4 1 7 2 11 3 6 9 9 13 14 2 2 2 5 4 8l7 13v1h0-1-5c-1-1-1-1-2-1h-2c-1-1-1-1-2-1h-2c-2-1-2-1-3-1-1-1-2 0-3 0-2-1-4-1-5-1-2 1-4 0-7 1h0-1l2-2c1-2 0-5 0-7-1-7-3-14-5-21s-6-13-6-21z" class="D"></path><path d="M630 788c5 1 9 2 12 5 1 1 1 1 1 2l-2-2-6-3c0 2 1 4 2 6v3c1 3 4 8 2 11l-1-7h-1v-2l-1-1c-1-4-5-7-6-12z" class="G"></path><path d="M562 464l4 2c-1 0-1 0-2 1 0 1 0-1 1 1v1l2 5c1 4 4 9 6 13 1 2 3 5 5 6l1 1h1l3 3-1 1c0 1 1 2 2 3 1 2 2 2 3 4l1 1v1l2 2-1 4h-1l-2-1c-1 0-2 0-2-1l-2-1c-1 0-2-1-3-1 0 1 0 2-1 3v3 1c-1 1-1 2-2 3h0c-1 2-1 3-2 4l-9 9c-1 1-2 2-2 3s0 0-1 1v1c0 1 0 0-1 1 0 1-1 1-1 2h-1v1l-1-1v-13-3c1-1 1-1 1-2l1-2v-2c0-1 0-3 1-4h1v-2c1-2 1-6 1-8h-1-1-1c-2-2-2-2-2-5l-1-1c0-3-1-9 1-11v-1c0-2 0-4 1-5v-3-1h0 0 1c1-1 1-2 1-3h0c1-1 1-1 1-2v-8z" class="C"></path><path d="M532 445c1 1 1 2 2 4v1c0 1 0 3 1 4v2c1 1 1 3 1 4 1 1 1 2 1 3v1c1 1 1 3 1 4 1 3 1 6 2 9v3c3 2 4 9 4 13v3s5 3 6 3c2 9 3 18 4 26 2 15 2 30 2 44v13c0 8-2 16-2 23-2-6-3-11-3-16-1-7-1-14-3-20h-1c0-1 0-1-1-2 0-1 0-1 1-2l1 1v-1l-1-1v-1l1-2c-1-1-2-2-2-3-1-1 0-5-1-7h0l-1-11-1-6-2-11-3-12c1-1 1-1 1-2l1 1v-2h-1l2-3-1-2c-1-2-1-4-1-6 0-4-1-6-1-9-1-1-1-3-1-4 0-4-1-8-2-12v-2-3l1 3h1l-4-16c0-3-1-6-1-9z" class="V"></path><path d="M556 582h-1c0-1-1-2-1-2v-8c0-1 2-2 2-3v13z" class="O"></path><path d="M540 503c1-1 2-1 3-1 1 2 0 5 1 8 0 3 0 6 1 9-4-2-3-6-3-10 0-1-1-3-1-4l-1-2z" class="P"></path><path d="M535 472v-2-3l1 3h1c1 2 1 4 1 6s1 3 1 5c1 2 1 4 1 6 1 3 2 7 2 10 1 2 0 4 1 5-1 0-2 0-3 1-1-2-1-4-1-6 0-4-1-6-1-9-1-1-1-3-1-4 0-4-1-8-2-12z" class="Y"></path><path d="M541 505c0 1 1 3 1 4 0 4-1 8 3 10 0 2 2 9 0 12-1 1-1 2-2 3l-2-11-3-12c1-1 1-1 1-2l1 1v-2h-1l2-3z" class="c"></path><path d="M541 523c1 1 2 1 3 2s0 3 0 4l-1 2h2c-1 1-1 2-2 3l-2-11z" class="O"></path><path d="M737 730l3-1c1 1 1 2 1 4l-1 1v2c0 1 0 1-1 3v2c0 1 0 1-1 2v2c0 1 0 1-1 2h0v3l-1 3v3 1c-1 1-1 1-1 2l-3 8-2 15c0 1-1 3-2 4s-3 2-4 2l-10 6 3 4h-1c-1-1-4-4-4-6 5-4 13-8 14-15l3-17c-8 7-14 15-21 22l2 6c1 1 1 1 1 2v1 3h0c-2-1-1-2-1-3-1-1-3-2-4-3h-1l-4-2h0-1c1-1 1-2 2-3h0c1-4 2-11 0-14l1-1v-1-1c0-2 0-9-1-11 0-1 1-2 1-2 2-2 3-3 4-5l2-1c8-2 14-6 21-11 2-2 5-3 7-6z" class="D"></path><path d="M730 736c2 1 3 2 5 4l-6 12c-1 2-2 5-4 7-2 3-5 6-8 9s-5 7-8 9c0-2 0-5 2-6 1-2 3-5 2-7v-1c-2 0-2 2-3 3 0 1 0 1-1 2-1-1-2-7-2-9-1-5 1-7 2-12 8-2 14-6 21-11z" class="E"></path><path d="M729 748h0l-1 1c-2 2-5 3-7 4-4 3-8 5-13 6v-1c2-2 5-2 7-3l14-7z" class="H"></path><path d="M496 303h0c1-5-1-11 0-15 2 4-1 11 2 15l1 1h0-1v4l1 1 1 1h4l15-2 1 22c1 3 1 6 1 9 1 7 2 16-3 22l-3 3h-1-1c-2-2-2-3-2-5h-1c-1 1-3 2-4 3-2 2-3 5-5 8l-1 2c-1 3-1 9 0 12v1l-2 5-2-4-2-8c0-2 0-5 1-7 0-4 2-7 3-11v-6c0-3-1-5-3-7l2-18v-13c0-2 0-4-1-6v-1c1-2 0-3 0-5v-1z" class="E"></path><defs><linearGradient id="E" x1="511.242" y1="354.51" x2="522.031" y2="353.145" xlink:href="#B"><stop offset="0" stop-color="#2b0201"></stop><stop offset="1" stop-color="#140504"></stop></linearGradient></defs><path fill="url(#E)" d="M520 330c1 3 1 6 1 9 1 7 2 16-3 22l-3 3h-1-1c-2-2-2-3-2-5 1-1 3-1 4-2 6-6 5-19 5-27z"></path><path d="M496 303h0c1-5-1-11 0-15 2 4-1 11 2 15l1 1h0-1v4l1 1 1 1h4l-6 1c1 14 2 28 7 41 1 2 2 5 3 6s1 1 2 1c-1 1-3 2-4 3-2 2-3 5-5 8l-1 2c-1 3-1 9 0 12v1l-2 5-2-4-2-8c0-2 0-5 1-7 0-4 2-7 3-11v-6c0-3-1-5-3-7l2-18v-13c0-2 0-4-1-6v-1c1-2 0-3 0-5v-1z" class="O"></path><path d="M497 329c2 4 2 20 1 25 0-3-1-5-3-7l2-18zm9 117c-1-1-2-4-2-5-1-3-1-5-1-8l1-1c0 2 1 3 2 4 0 1 0 1 1 2h0c0 1 0 1 1 2l2 2c0 2 1 4 2 6 1 3 3 7 5 10 0-1 0 0 1-1l3 6c0 1 1 3 1 3l3 9 5 11c0 3 2 5 2 8 0 2 1 6 3 7l1 1 2 7v1 1l3 12 2 11 1 6 1 11h0c1 2 0 6 1 7 0 1 1 2 2 3l-1 2v1l1 1v1l-1-1c-1 1-1 1-1 2 1 1 1 1 1 2l-1 2c-1-1-1-2-2-2v-1-4l-1-1-1 1c1 0 1 0 1 1s0 1-1 2c-1-1-1-1-2-1-1-1-1-3-1-4v3 10 4l-1-4h-2l-1-1h1l-1-1c0-1 0-1 1-2l-1-1c-1-1 1 0 1-1l-1-1v-1-1c-1-1-1-1 0-2h1c-1-1 0-1-1-1-1-1-1-1-1-2h1 0c0-1-1-1-1-1v-4l-2-10c-1-13-2-28-8-41l1-1c-1-1-1-1-1-2-1-1-2-9-2-10-1-3-2-7-4-11-2-1-3-3-4-5-1-1-1-2-2-3l-2-5c1 1 2 2 4 2-1-2-2-4-2-6-1-3-2-5-3-8s-2-6-3-10z" class="Z"></path><path d="M533 510h1v1l1-1-1-1 1-1c1 1 2 0 3 1v1 1c-1 1-1 2-1 4 0 0 0 1-1 1h-1c1-1 1-2 0-3 0-1 0-1-2-1v-2zm-16-52c0-1 0 0 1-1l3 6c0 1 1 3 1 3l3 9-1 1c-1-3-2-8-4-11-2-2-3-5-3-7z" class="U"></path><path d="M542 552h0c0-3-1-9 0-12h2l1 11-1 2h0c-1-1-1-1-2-1z" class="Y"></path><path d="M506 446c1 1 2 1 2 3v2c2 0 1-1 2 0l1 1c0 3 2 5 3 8v1h0l1 1 2 4v1h-1l-1-1h-1v1 3h0c-1-2-2-4-2-6l-3-8c-1-3-2-6-3-10z" class="Q"></path><path d="M514 470v-3-1h1l1 1-1 1h1 1c1 1 1 2 1 2l1 3v1c1 1 2 3 2 4s0 2-1 2v1c1 1 1 2 2 4s0 4 0 6v1c-1-3-2-7-4-11-2-1-3-3-4-5-1-1-1-2-2-3l-2-5c1 1 2 2 4 2h0z" class="P"></path><path d="M510 468c1 1 2 2 4 2h0c0 2 1 3 2 5l2 6c-2-1-3-3-4-5-1-1-1-2-2-3l-2-5z" class="J"></path><path d="M539 562h0v-4-4c-1-4-1-7-2-11 1 2 1 3 2 5s1 4 1 7c1-1 1-2 2-3 1 0 1 0 2 1h0l1-2h0c1 2 0 6 1 7 0 1 1 2 2 3l-1 2v1l1 1v1l-1-1c-1 1-1 1-1 2 1 1 1 1 1 2l-1 2c-1-1-1-2-2-2v-1-4l-1-1-1 1c1 0 1 0 1 1s0 1-1 2c-1-1-1-1-2-1-1-1-1-3-1-4z" class="P"></path><path fill="#2e0000" d="M525 475l5 11c0 3 2 5 2 8 0 2 1 6 3 7l1 1 2 7c-1-1-2 0-3-1l-1 1 1 1-1 1v-1h-1c0-1-1-2-2-3v-1c1-4-2-8-2-12 0-1-1-3-2-4l-3-14 1-1z"></path><path d="M535 501l1 1 2 7c-1-1-2 0-3-1 0-1-1-3-1-4s1-1 1-2v-1z" class="Z"></path><path d="M482 478c-1-3 1-8 1-12 3 5 0 10 1 15 0 1 1 2 2 3h0v3 1l1-1v-2h1c-1 2-1 5 0 7h-1l1 1 1-1v2l1 1h1v-3h1c0 2 0 3 1 5v-8c0-3 0-5 1-7v-2h2v-1c2 0 3 0 4 2 1 0 2 0 3 1 1-1 1-3 1-4l1-1h1v1h1l1-3c0-1 1-2 2-2l1 1 1-1c1 1 1 2 2 3 1 2 2 4 4 5 2 4 3 8 4 11 0 1 1 9 2 10 0 1 0 1 1 2l-1 1c0 4 1 9 1 13l-3-3c0-1 0-2-1-4v3h0c-2 0-4 1-5 1v-2c0-2 0-3-1-4v-1h-1c-1 1-2 2-4 2 0 1-1 1 0 2v4l-2 2c0 1 1 1 1 2-1 1-1 1-2 1v2c-1-2-1-4-1-5v-1l-1 1 1 2h-1v3h-4v-1c-1-2 0-2 0-4l-2 2c0 1-1 1-2 2v1 3l-2-2h-1-2c0 1 0 1 1 3v1h-1c0-1-1-3-1-4-2-6-6-12-7-19l-2-6v-8-2c0-2 0-3 1-5v-5h-1v-1z" class="T"></path><path d="M484 492c0-1 0-3 1-4h0l1 1v2 1h1l1 1 1-1v2h-1v8h-1v-2c0-2-1-3-1-5-1-2-1-2-2-3z" class="M"></path><path d="M499 500c1 1 3 1 4 1l-1-2 1-1-1-1h0 2 2v3l-1 1c-1 2 1 5-1 7h-1-2l3-3v-1l-1-1c-2 1-2 0-3 2v1c0 1-1 2-1 3h-2c0-1 1-1 1-1 1-1 1-4 1-6h0v-2zm-17-22c-1-3 1-8 1-12 3 5 0 10 1 15 0 1 1 2 2 3h0v3 1l1-1v-2h1c-1 2-1 5 0 7h-1-1v-1-2l-1-1h0c-1 1-1 3-1 4v3 2h0l-1-2c0-4 1-7 0-11v-5h-1v-1z" class="F"></path><path d="M492 522v-3c1-2 2-3 2-4v-2h-1c1-1 1-1 1-2h0v-1c0-1 0-2 1-3 0-1 0-1 1-2v4c1 1 0 1 1 3-1 1-1 3 0 4h1 1l-1-1c1-1 1-1 2-1v-1h1l1 2 1-1v1h-1l-1 1 1 2h-1l-2 2c0 1-1 1-2 2v1 3l-2-2h-1-2c0 1 0 1 1 3v1h-1c0-1-1-3-1-4s0-1 1-2z" class="W"></path><path d="M492 522h0 2v-4c1-1 1-1 2-1h1l-1 1c0 1 1 3 1 4v1 3l-2-2h-1-2c0 1 0 1 1 3v1h-1c0-1-1-3-1-4s0-1 1-2z" class="B"></path><path d="M497 487h2v5 1h-2v2l2 1v4 2h0-1 0c-2-1-2-1-2-2l1-2h-1l-2-1 1-1h1v-1h-2l-1 3v1c0 3 0 3-1 5h1v5h0v1c-1-1-1-1-2-1v1l1 1-1 1h-1c-1-6-1-12 0-17h1v-3h1c0 2 0 3 1 5v-8h0c1-1 2-1 3-1l1-1z" class="N"></path><path d="M497 487h2v5h-2l-2-2 2-2v-1z" class="K"></path><path d="M500 481c1 0 2 0 3 1 1-1 1-3 1-4l1-1c1 2 1 8 1 10v10h-2-2 0l1 1-1 1 1 2c-1 0-3 0-4-1v-4l-2-1v-2h2v-1-5h-2l-1 1c-1 0-2 0-3 1h0c0-3 0-5 1-7v-2h2v-1c2 0 3 0 4 2z" class="J"></path><path d="M496 479c2 0 3 0 4 2 0 1 0 2-1 3l-2-1c0-1 1 0 0-1h-3v-2h2v-1z" class="K"></path><path d="M494 482h3c1 1 0 0 0 1v1 2l-1 2c-1 0-2 0-3 1h0c0-3 0-5 1-7z" class="L"></path><path d="M499 492h1c1-1 1-3 2-4 1 2 0 2 0 4l2-1c1-1 1 0 1-2 0-1 1-2 1-2v10h-2-2 0l1 1-1 1 1 2c-1 0-3 0-4-1v-4l-2-1v-2h2v-1z" class="K"></path><path d="M507 478l1-3c0-1 1-2 2-2l1 1c1 3 5 10 4 14-1 1-1 2-1 3v3c-1 1-1 2-1 3 0 0-1 0-1 1 1 2 1 1 1 3 0 0 1 1 1 2s-1 2 0 3l1 2h-1c-1 1-2 2-4 2 0 1-1 1 0 2v4l-2 2c0 1 1 1 1 2-1 1-1 1-2 1v-5c-1-5-1-10-1-16v-3-10c0-2 0-8-1-10h1v1h1z" class="J"></path><path d="M509 486c1-1 1-1 2-1v1c-1 1-1 1 0 2v1c-1 2 0 4 0 6-1-1-1-2-2-3v-1c0-2-1-3 0-5z" class="K"></path><path d="M511 495h1l1-1c-1-2-1-6-1-8h1v5h1v3c-1 1-1 2-1 3 0 0-1 0-1 1 1 2 1 1 1 3 0 0 1 1 1 2s-1 2 0 3l1 2h-1c-1 1-2 2-4 2v-1l-1-1c0-2 0-4 1-5-1-1-1-2-1-3v-8c1 1 1 2 2 3z" class="F"></path><defs><linearGradient id="F" x1="513.917" y1="482.792" x2="500.63" y2="512.729" xlink:href="#B"><stop offset="0" stop-color="#070606"></stop><stop offset="1" stop-color="#282a29"></stop></linearGradient></defs><path fill="url(#F)" d="M505 477h1v1h1c0 1 0 4 1 6h2v1h-1v1c-1 2 0 3 0 5v1 8c0 1 0 2 1 3-1 1-1 3-1 5l1 1v1c0 1-1 1 0 2v4l-2 2c0 1 1 1 1 2-1 1-1 1-2 1v-5c-1-5-1-10-1-16v-3-10c0-2 0-8-1-10z"></path><path d="M512 473c1 1 1 2 2 3 1 2 2 4 4 5 2 4 3 8 4 11 0 1 1 9 2 10 0 1 0 1 1 2l-1 1c0 4 1 9 1 13l-3-3c0-1 0-2-1-4v3h0c-2 0-4 1-5 1v-2c0-2 0-3-1-4v-1l-1-2c-1-1 0-2 0-3s-1-2-1-2c0-2 0-1-1-3 0-1 1-1 1-1 0-1 0-2 1-3v-3c0-1 0-2 1-3 1-4-3-11-4-14l1-1z" class="M"></path><path d="M512 473c1 1 1 2 2 3 1 2 2 4 4 5 2 4 3 8 4 11 0 1 1 9 2 10-1 1-1 2-1 3h-1c0-3-1-5-2-7h0c-1 1-1 3 0 4 0 1 0 1-1 2h0c-1-3-1-6-2-9v7h-1c0-5 0-9-1-14 1-4-3-11-4-14l1-1z" class="F"></path><path d="M719 531c1 3 0 6 0 9 0 4 0 7-1 10-2 7-6 14-8 21-2 6-2 13-3 19 0 7-1 14 0 21 1-1 1-2 2-3 2-6 4-14 8-19 3-5 8-9 10-14 1 1 1 2 1 2 2 0 8-5 10-8 5-9 6-22 7-33 0-3-1-6 0-10h1l1-3c0 3-1 5-1 7v15c0 2 0 5 1 7 0 0-1 1-1 2l-4 15c3-2 6-5 9-6l1-1c4-2 11-1 16 0v1c-4 0-8-1-12 0-6 2-11 8-16 11-3 3-7 6-10 9-4 3-8 8-10 12s-4 10-5 15h1c-7 8-10 18-13 28l-8 24c-2 4-5 8-6 12-4 7-6 13-10 20l-2-1c6-7 7-15 10-23 2-6 4-11 5-16 1-6 1-12 2-17 0-11 2-21 0-32-1-9-1-28 7-34 2-2 7-4 8-7 1-2 1-6 2-9 0-2 1-5 2-7 2-6 2-11 6-17z" class="B"></path><path d="M474 390c3-2 5 0 8-1 2 1 3 2 5 3l2 2 6 6h1l1-1c2 4 4 10 5 14 1 2 2 6 3 7v-2-1l1 4 1 2v1l1-1c0 2 1 4 1 5l1 7c0 2 0 3 1 4v4l1 1v1c-1-1-1-2-2-3l-2-2c-1-1-1-1-1-2h0c-1-1-1-1-1-2-1-1-2-2-2-4l-1 1c0 3 0 5 1 8 0 1 1 4 2 5 1 4 2 7 3 10s2 5 3 8c0 2 1 4 2 6-2 0-3-1-4-2l2 5-1 1-1-1c-1 0-2 1-2 2l-1 3h-1v-1h-1l-1 1c0 1 0 3-1 4-1-1-2-1-3-1-1-2-2-2-4-2v1h-2v2c-1 2-1 4-1 7v8c-1-2-1-3-1-5h-1v3h-1l-1-1v-2l-1 1-1-1h1c-1-2-1-5 0-7h-1v2l-1 1v-1-3h0c-1-1-2-2-2-3-1-5 2-10-1-15 5-17 8-34 5-52-1-5-3-15-6-20-2-2-6-2-8-4h0z" class="S"></path><path d="M487 475c-1-2 0-6 1-8 1 3 1 7 1 11 0-1 0-3-1-4l-1 1zm7-7h1v1c1 1 1 2 2 2l1-1h0l1 1-1 1-1-1-3 3h-1c0-2 1-4 1-6z" class="F"></path><path d="M489 394l6 6c0 1-1 1-1 1h-1l-1 1c-2-1-3-6-3-8zm-2 81l1-1c1 1 1 3 1 4 0 2 0 4 1 6l1-1c0-1 0-1 1-2h1v-2c0-1 0-3 1-4 1 0 2 0 2 1v3h0v1h-2v2c-1 2-1 4-1 7v8c-1-2-1-3-1-5h-1v3h-1l-1-1v-2l-1 1-1-1h1c-1-2-1-5 0-7h-1v2l-1 1v-1-3h0v-1l1-1c1-1 0-5 0-7z" class="J"></path><path d="M488 485h0v-3l1 1c0 2 1 4 1 7v5l-1-1v-2l-1 1-1-1h1c-1-2-1-5 0-7z" class="N"></path><path d="M497 399c2 4 4 10 5 14 1 2 2 6 3 7v-2-1l1 4 1 2v1l1-1c0 2 1 4 1 5l1 7c0 2 0 3 1 4v4l1 1v1c-1-1-1-2-2-3l-2-2c-1-1-1-1-1-2h0c-1-1-1-1-1-2-1-1-2-2-2-4l-1 1c0 3 0 5 1 8 0 1 1 4 2 5 1 4 2 7 3 10s2 5 3 8c0 2 1 4 2 6-2 0-3-1-4-2l-5-7c-6-10-6-22-8-33h0c-1-3-1-8-2-12-1-2-2-6-2-9 0-1 0-2 1-3l-2-2 1-1h1s1 0 1-1h1l1-1z" class="U"></path><path d="M494 404c1 4 2 7 2 11 1 3 4 9 3 12l-1 1h-1 0c-1-3-1-8-2-12-1-2-2-6-2-9 0-1 0-2 1-3z" class="F"></path><path d="M273 566c-1-3-3-2-5-4l3-4c2 1 4 4 7 4h0 1c1 1 1 1 0 2v4 1c0 1 0 1-1 3v3l-1 2c-1 2-5 41-5 46-1 7-1 14 0 20 1 8 3 17 3 25-1 5-3 12-5 18-1 8-2 17-5 25-2 9-5 16-6 25-2-1-3-2-4-3-1-3 0-7-1-9-2-4-4-8-5-13-3-6-5-14-5-21-1-10 0-20 2-30 1-7 4-13 5-20h0v-1c0-1 1-1 1-2l3-9 5-13 4-14c1-3 0-12 3-14l6-21z" class="C"></path><path d="M273 566v-1c1 0 1 1 1 2 0 2-1 5-2 7l-4 13h-1l6-21z" class="H"></path><path d="M432 333c2-12 4-21 14-30 2-1 5-3 8-3 4 1 8 5 12 6 9 3 20 4 30 4 1 2 1 4 1 6v13l-2 18c2 2 3 4 3 7v6c-1 4-3 7-3 11-1 2-1 5-1 7l-2-6-1-1h-1c0 3 0 5-1 7v3c0 1 0 2-1 3 3 5 7 10 9 15l-1 1h-1l-6-6-2-2c-2-1-3-2-5-3-3 1-5-1-8 1l-1-1c-1-2 1-5 1-6 2-5 4-11 3-16-2-7-11-17-18-20-8-5-17-9-27-13v-1z" class="E"></path><path d="M478 311h1l4 4c1 0 2 0 3 1h0l2 1h2v1h-4c-1 2 0 1 0 2h0c-2-1-5-3-6-5v-1c-1-1-1-2-2-3z" class="H"></path><path d="M432 333c8 1 14 4 21 8 2 1 6 3 7 5l-1 1c-8-5-17-9-27-13v-1z" class="I"></path><path d="M460 346c3 2 6 4 9 7s6 7 9 10c2 1 4 1 5 1 3-1 6-2 7-4 3-4 4-9 5-13 2 2 3 4 3 7v6c-1 4-3 7-3 11-1 2-1 5-1 7l-2-6-1-1h-1c0 3 0 5-1 7v3c0 1 0 2-1 3 3 5 7 10 9 15l-1 1h-1l-6-6-2-2c-2-1-3-2-5-3-3 1-5-1-8 1l-1-1c-1-2 1-5 1-6 2-5 4-11 3-16-2-7-11-17-18-20l1-1z" class="U"></path><path d="M481 369h2c1 1 2 1 2 2-1 4-1 8-2 12-1 1-2 2-3 2-2 1-2 1-4 0v-4h1c0-2 0-3 1-4 1-3 1-5 3-8zm1 20h0l1-1h0 0c3-3 3-7 3-10h1c0 2 0 3 1 5v1c3 5 7 10 9 15l-1 1h-1l-6-6-2-2c-2-1-3-2-5-3z" class="Z"></path><defs><linearGradient id="G" x1="539.355" y1="411.78" x2="511.951" y2="414.738" xlink:href="#B"><stop offset="0" stop-color="#ca0806"></stop><stop offset="1" stop-color="#990407"></stop></linearGradient></defs><path fill="url(#G)" d="M521 339c0-3 1-5 1-8v-3 2h1l3 17c1 4 4 9 4 13 1 8-1 17 0 25 1 9 3 17 4 25 0 5-1 11 0 16 2 16 7 32 11 47l5 26c-1 0-6-3-6-3v-3c0-4-1-11-4-13v-3c-1-3-1-6-2-9 0-1 0-3-1-4v-1c0-1 0-2-1-3 0-1 0-3-1-4v-2c-1-1-1-3-1-4v-1c-1-2-1-3-2-4 0 3 1 6 1 9l4 16h-1l-1-3v3 2c1 4 2 8 2 12 0 1 0 3 1 4 0 3 1 5 1 9 0 2 0 4 1 6l1 2-2 3h1v2l-1-1c0 1 0 1-1 2v-1-1l-2-7-1-1c-2-1-3-5-3-7 0-3-2-5-2-8l-5-11-3-9s-1-2-1-3l-3-6c-1 1-1 0-1 1-2-3-4-7-5-10-1-2-2-4-2-6 1 1 1 2 2 3v-1l-1-1v-4c-1-1-1-2-1-4l-1-7c0-1-1-3-1-5l-1 1v-1l-1-2-1-4v1 2c-1-1-2-5-3-7-1-4-3-10-5-14-2-5-6-10-9-15 1-1 1-2 1-3v-3c1-2 1-4 1-7h1l1 1 2 6 2 8 2 4 2-5v-1c-1-3-1-9 0-12l1-2c2-3 3-6 5-8 1-1 3-2 4-3h1c0 2 0 3 2 5h1 1l3-3c5-6 4-15 3-22z"></path><path d="M526 416c2 0 2 1 3 2v3c-1 1-1 2-1 3s1 2 1 2v7c-2-5-2-12-3-17z" class="O"></path><path d="M509 386l2 10c0 2 0 3 1 5l2 10h-2l-1-7-3-11v-1l-1-1 2-5z" class="Q"></path><path d="M525 353h1v7l-2 16v-4h0v-1c0-1 1-2 0-4 0-1 1 0 1-1v-4c-2 1-3 4-4 5s-1 1-2 1v1l-1 1v1l1-1h1c-1 2-3 2-4 4 0 1 1 1 0 2v-2l-1 1c0-1 0-2 1-3 0-1 1-2 2-3 2-3 4-7 5-10s1-4 2-6z" class="O"></path><path d="M523 393v-7h1l2 26v4c1 5 1 12 3 17 1 4 1 7 3 11v1c0 3 1 6 1 9l4 16h-1l-1-3v3 2l-3-13c-1-6-2-12-4-19 0-1 0-3-1-5-1-3-1-6-1-8l-2-15v-3-5c0-3-1-6-1-8v-3z" class="Q"></path><path d="M510 359h1c0 2 0 3 2 5h1 1l-3 2-2 1-3 4c-1 4 1 11 2 15l-2 5 1 1-1 1c-1-1-2-2-2-3l-1 1c-2-1-2-2-3-4v-1l-1-1v-1c-1-3-1-9 0-12l1-2c2-3 3-6 5-8 1-1 3-2 4-3z" class="b"></path><path d="M505 373c0-1 0-1 1-2v-1h1v1c-1 4 1 11 2 15l-2 5v-1c1-2 0-4 0-5-1-4-2-8-2-12z" class="P"></path><path d="M501 370h2c-2 4-3 8-1 12 1 3 2 5 3 8l-1 1c-2-1-2-2-3-4v-1l-1-1v-1c-1-3-1-9 0-12l1-2z" class="Q"></path><path d="M510 359h1c0 2 0 3 2 5h1 1l-3 2-2 1-3 4v-1h-1v1c-1 1-1 1-1 2v-4l1-1h-2l-1 2h-2c2-3 3-6 5-8 1-1 3-2 4-3z" class="Z"></path><path d="M506 365c2-1 3-1 5-1 0 1 1 1 1 2l-2 1-4-2z" class="X"></path><path d="M506 365l4 2-3 4v-1h-1v1c-1 1-1 1-1 2v-4l1-1h-2c1-1 1-2 2-3z" class="c"></path><path fill="#bb0507" d="M517 393l1-1c-1-1-1-1-2-1v-3l2-1 1 1c1 1 1 2 1 3 1-1 1-2 1-3h1c0 2 0 4 1 5v3c0 2 1 5 1 8v5 3l2 15c0 1-1 2 0 3-2 1-3 2-4 2l-1-1v-2h0 0l-1-1-1-7h-1l-1 2c-1-4-1-8-3-12l-2-10 1-1v1 2l1-3v-1l1-1v-2c0-1 1-2 2-3z"></path><g class="b"><path d="M518 398l1 1v11c-1-2-1-5-1-7-1-1-1-2-1-3l-1 1-1-1v-1c1 0 1 0 2-1h1z"></path><path d="M512 401l1-1v1 2l1-3c0 1 0 3 1 4 0 0 1 0 1 1s-1 1 0 2v7c1 0 1 0 1 1 1 1 0 3 0 4l2 2h-1l-1 2c-1-4-1-8-3-12l-2-10zm12 11l2 15c0 1-1 2 0 3-2 1-3 2-4 2l-1-1v-2l2 2 1-1v-3c0-1-1-1-1-2-1 1-1 1-2 1v-1l1-1h1l1-1-3-1v-1-1c0-1 0-1 1-2 0-1 0-1-1-2l1-2c1-1 1-2 2-2z"></path></g><path d="M517 393l1-1c-1-1-1-1-2-1v-3l2-1 1 1c1 1 1 2 1 3 1-1 1-2 1-3h1c0 2 0 4 1 5v3c0 2 1 5 1 8v5 3c-1 0-1 1-2 2l-1 2c1 1 1 1 1 2-1 1-1 1-1 2v1 1l-1-1v-3c-2-2 0-6-1-8v-11l-1-1c-1-2-1-3-1-5z" class="V"></path><path d="M520 391c1-1 1-2 1-3h1c0 2 0 4 1 5v3c-2 2-2 7-2 10-1-2 0-5-1-7s0-6 0-8z" class="O"></path><path fill="#bb0507" d="M521 406c0-3 0-8 2-10 0 2 1 5 1 8v5 3c-1 0-1 1-2 2-1-3-1-5-1-8z"></path><path d="M488 384c1-1 1-2 1-3v-3c1-2 1-4 1-7h1l1 1 2 6 2 8 2 4 2-5 1 1v1c1 2 1 3 3 4l1-1c0 1 1 2 2 3l1-1v1l3 11 1 7h2c2 4 2 8 3 12 0 3 1 6 1 8v1c-1-2-2-4-2-6l-1 2v1 1c0 1 0 2 1 3v5c0-1-1-2-1-2h-2c-1-1-1-2-2-4 0-1-1-2-2-4 0-1-1-3-1-5l-1 1v-1l-1-2-1-4v1 2c-1-1-2-5-3-7-1-4-3-10-5-14-2-5-6-10-9-15z" class="F"></path><path d="M496 386l2 4 2 3 2 8c-2-1-5-7-6-10 0-2-1-4 0-5z" class="J"></path><path d="M500 385l1 1v1c1 2 1 3 3 4l1-1c0 1 1 2 2 3l1-1v1l3 11c-2 0-2 0-2-2l-1 1h0-1c1 1 2 3 2 4h-1c0 2 0 5 1 7h0v2h-3l-4-15-2-8-2-3 2-5z" class="Y"></path><path d="M500 385l1 1v1c1 2 1 3 3 4l1-1c0 1 1 2 2 3l1-1v1l3 11c-2 0-2 0-2-2l-1 1h0-1v-2c-1-1-2-1-2-2 0-2-1-3-2-4v-1c-1-1-1-2-2-3 0 1 0 1-1 2l-2-3 2-5z" class="X"></path><path d="M507 403h1 0l1-1c0 2 0 2 2 2l1 7h2c2 4 2 8 3 12 0 3 1 6 1 8v1c-1-2-2-4-2-6l-1 2v1 1c0 1 0 2 1 3v5c0-1-1-2-1-2h-2c-1-1-1-2-2-4 0-1-1-2-2-4 0-1-1-3-1-5l-2-7h3v-2h0c-1-2-1-5-1-7h1c0-1-1-3-2-4z" class="P"></path><path d="M507 403h1 0l1-1c0 2 0 2 2 2l1 7h2c2 4 2 8 3 12 0 3 1 6 1 8v1c-1-2-2-4-2-6l-1 2h-1c0-2-1-4-1-6 0-1-1-2-1-3v-1c0-2-1-5-2-6 0-2-1-3-1-5 0-1-1-3-2-4z" class="c"></path><path d="M514 411c2 4 2 8 3 12 0 3 1 6 1 8v1c-1-2-2-4-2-6-1-2-1-5-2-8-1-2-1-5-2-7h2z" class="P"></path><path d="M517 423l1-2h1l1 7 1 1h0 0v2l1 1c1 0 2-1 4-2-1-1 0-2 0-3 0 2 0 5 1 8 1 2 1 4 1 5 2 7 3 13 4 19l3 13c1 4 2 8 2 12 0 1 0 3 1 4 0 3 1 5 1 9 0 2 0 4 1 6l1 2-2 3h1v2l-1-1c0 1 0 1-1 2v-1-1l-2-7-1-1c-2-1-3-5-3-7 0-3-2-5-2-8l-5-11-3-9s-1-2-1-3l-3-6c-1 1-1 0-1 1-2-3-4-7-5-10-1-2-2-4-2-6 1 1 1 2 2 3v-1l-1-1v-4c-1-1-1-2-1-4l-1-7c1 2 2 3 2 4 1 2 1 3 2 4h2s1 1 1 2v-5c-1-1-1-2-1-3v-1-1l1-2c0 2 1 4 2 6v-1c0-2-1-5-1-8z" class="O"></path><path d="M534 491l3 2c0 2 1 4 1 5s-1 1-1 2c-2-3-2-6-3-9z" class="V"></path><path d="M516 426c0 2 1 4 2 6v-1c1 1 1 3 1 4 0 2-1 4 0 6 1 1 1 2 1 3 0 2 2 3 2 6l1 1c1 1 1 3 2 5l-3-1c0-2-1-4-2-5 0-1 0-2-1-3-1-2-1-2-1-4s0-2-1-3v-1l-1-1v-5c-1-1-1-2-1-3v-1-1l1-2z" class="X"></path><path d="M526 467l-1-1v-2c0-2 0-2 1-4l3 9c0 2 0 4 1 6 1 3 1 5 2 8 1 2 1 5 2 8s1 6 3 9l-1 2-1-1c-2-1-3-5-3-7 0-3-2-5-2-8l-5-11-3-9 1 1 1 1 1-1h1z" class="U"></path><path d="M522 466l1 1 1 1 1-1h1c1 2 1 3 1 5l1 1c1 3 0 5 1 7v2c1 2 1 2 1 4l-5-11-3-9z" class="Q"></path><path d="M509 428c1 2 2 3 2 4 1 2 1 3 2 4h2s1 1 1 2l1 1v1c1 1 1 1 1 3s0 2 1 4c1 1 1 2 1 3 1 1 2 3 2 5l3 1c0 1 0 2 1 3v1c-1 2-1 2-1 4v2l1 1h-1l-1 1-1-1-1-1s-1-2-1-3l-3-6c-1 1-1 0-1 1-2-3-4-7-5-10-1-2-2-4-2-6 1 1 1 2 2 3v-1l-1-1v-4c-1-1-1-2-1-4l-1-7z" class="Y"></path><path d="M522 455l3 1c0 1 0 2 1 3h-3c0-1 0-1-1-2v-2z" class="P"></path><path d="M516 451l1-1c1 2 1 4 2 5 1 2 1 3 2 4 0 1 1 2 0 3v1l-3-6-2-6z" class="Q"></path><path fill="#2e0000" d="M510 435l2 3h0c0 5 2 8 4 13l2 6c-1 1-1 0-1 1-2-3-4-7-5-10-1-2-2-4-2-6 1 1 1 2 2 3v-1l-1-1v-4c-1-1-1-2-1-4z"></path><path d="M509 428c1 2 2 3 2 4 1 2 1 3 2 4h2s1 1 1 2l1 1v1c1 1 1 1 1 3s0 2 1 4c1 1 1 2 1 3h-2c-2-2-2-7-4-9l-1 1c0-1-1-3-1-4h0l-2-3-1-7z" class="Q"></path><path d="M349 135h17c2-3 3-7 5-10 4-9 13-19 22-24h0c-10 7-17 16-23 27-1 2-2 5-3 7 9-1 17 0 26 0h42l-3 14c-14 2-26 6-35 18-10 13-14 32-13 48 6 10 12 21 21 29 3 2 6 3 9 6l-3-15c-1-3-2-8-2-11v1c1 3 1 5 2 8 1-5 1-9 2-13 1-2 1-4 2-6 0 3-1 5-1 8-1 3-1 6-1 9v-1c4-3 7-5 11-8l4-4c0 2-1 3-2 4-4 3-8 6-10 9l-3 3c0 1 1 4 1 5l3 15 1-1c1 0 1 0 2 1 0 2-1 4 0 7h1c1 3 3 5 4 7 4 4 7 10 10 15 1 3 3 10 6 12 6-1 15-3 20-6-1-1-1-1-1-2l2 1c1 0 2-2 2-3 1-2 2-5 2-6s0-1-1-1h1 1l2-14c0-2 0-5 1-7 0 4-1 8-1 12 0 2-1 6 0 7l2-2v1c-2 3-3 6-3 10s-5 8-6 11c1 1 3 2 5 3 1 1 2 1 2 2 3 1 4 2 6 5 3 0 5 1 8 1 4 0 9-2 13-4v1c0 2 1 3 0 5v1c-10 0-21-1-30-4-4-1-8-5-12-6-3 0-6 2-8 3-10 9-12 18-14 30v1l2 21c0 8 0 16 1 24 2 8 6 16 8 25l15 40 53 152 19 52c2 7 5 14 7 21l52-156 1-4 25-73 5-14 13-38 2-6 12-38v-1c1-3-3-13-5-17-2-3-7-7-11-8l-8 3v-1l7-3c-8-6-13-15-19-23l-6-6c-2-4-5-8-8-12-1 0-1-1-2-1-3-5-8-7-13-10-3-1-5-2-8-3-4-1-9-1-13-2-3-1-6-3-9-4-7 1-12 0-18-3l1-1c6 3 10 3 17 3-9-7-17-19-20-31h0c5 13 14 28 27 33 5 3 11 2 17 3s12 5 17 8l-8-16c-1-3-2-7-3-10-1-1-4-3-4-4 1 0 2 2 3 3 0-5-1-10 0-15 0-2-1-4 0-6v6c0 5 0 10 1 14 2 8 7 17 11 25 0-9-2-19 2-28l-1 5c1 1 0 1 1 1 0 0-1 1-1 2-1 2 0 3 0 5-1 5-1 10 0 15h0c0 2 1 3 2 5 2 3 5 6 8 9 5 8 11 16 17 24 3 3 6 7 10 9l9 6c-2-19 6-39 8-58 0-4 1-9 0-13 0-3-1-8 0-10v-5-14c0-1-1-2-1-2v-1c1 2 1 4 1 6 1 5 0 27 2 30l1-2c0 3-1 6-1 9l-3 22c-2 17-5 34 3 50 4-7 6-16 9-24 5-14 10-29 13-44 3-20 2-42-5-62-6-18-18-33-35-41-8-4-16-5-25-6l-4-14h87c0-3 1-19 1-19 1 6 1 13 0 19h28l-9-8v-1l8 6h0c0-5 0-9-1-13v-1c-1-3-2-6-2-8 2 2 3 9 4 12 1 4 0 9 1 13h13 5l4-4 14-12 12-12h1c-4 5-8 10-13 14l-11 10c-1 1-3 2-4 3v1h138l-21 30c-39 1-74 22-100 50-9 10-18 22-24 33 3-1 6-3 9-5 4-1 8-2 12-4 5-2 8-8 12-11l17-14v1l-28 26c8 0 15 1 23 0 18-1 34-8 50-14h0c-15 7-31 15-48 16h-20l12 9-1 1c-3-2-12-10-13-10-3 0-8 2-11 3-6 2-14 7-18 12-3 3-4 7-6 10l-7 14-47 132c8-9 16-20 20-31 3-11 6-21 10-32l3-6 4-4c0-3 0-6 1-9 1-7 2-15 5-21 0 1-1 6-2 8-1 7-2 14-2 21 7-2 13-5 18-10 2-3 4-6 7-8l1 1c-1 0-1 0-1 1-2 1-4 3-5 5-2 2-3 3-4 5-6 5-15 7-19 14-3 3-4 7-5 11l-4 16c-1 6-2 11-4 17-4 7-9 15-14 21-6 8-14 13-16 22v1 4 4 1c1 1 1 1 1 2l1 1 4 7c1 0 1 1 1 2l2 2c0-2-1-5 0-7v-1-2h1c1 1 0 5 0 7l1 1v9c4-5 5-10 6-16 2-5 3-9 5-14h1c1-1 1-1 1-2s1-2 1-3c0 0 1 0 1-1 3-1 5-3 7-4h1s-1 1-2 1l-3 3c-1 1-2 2-2 3h-1v1l-1 2c-1 0-1 1-1 2v2c-1 0-1 1 0 2 5-2 11-2 16 0 1 1 4 3 5 4v2c0 3-1 6-1 8 0 1 0 2-1 3l-4 17v2 2c-1 3 1 10-2 13h1 0l1 1c-1 3-2 7-3 10 0 2 0 5-1 7l-3 9c-1 5-2 10-1 15 0 4 1 9 3 13 1 3 3 6 4 10 1 2 0 5 0 8l4-4c2-3 3-7 3-10 2-5 4-11 7-17 2-2 3-6 5-9 6-9 14-17 22-23 0 1-2 3-4 4l-7 8c5-1 11-3 17-3-4 1-8 1-11 2-8 3-14 9-18 16v1c-4 6-4 11-6 17-1 2-2 5-2 7-1 3-1 7-2 9-1 3-6 5-8 7-8 6-8 25-7 34 2 11 0 21 0 32-1 5-1 11-2 17-1 5-3 10-5 16-3 8-4 16-10 23l2 1c4-7 6-13 10-20 1-4 4-8 6-12l8-24 1 1 5-13c2-5 3-9 7-13 1 3 1 6 0 9-1 2 0 4 0 6l-1 1v7c-1 2 0 3-1 5 6-5 13-10 18-15v1c-3 3-6 5-8 9-2 2-6 3-8 5s-2 5-3 7l-5 11c1 3 1 6 1 10s0 9-1 13v4h0c-1 1-1 1-1 2l1-1c1 0 1 0 2-1h1c-1 1-1 2-2 3h-1c0 1-1 2-1 2l-2 2c0 2-1 2-1 4-1 2-3 5-4 7h2l3-2h1c1 0 2-1 3-1 1-1 1-1 2-1-1 1-2 1-3 2l-1 1v1l-2 1-1 1c1 4 0 7 1 11 0 1 1 4 0 5h0v2l-11 7c-3 4-8 8-12 12 1 0 2 1 2 1l-1 2c1 1 1 1 3 1 5 1 11 0 16 0h4l1-1h1 0c1 0 1 0 2-1h1 1 1c-2 1-3 1-5 2h-2s-1 0-1 1h-1v1l3-1c-1 2-2 3-4 5 0 0-1 1-1 2 1 2 1 9 1 11v1 1l-1 1c2 3 1 10 0 14h0c-1 1-1 2-2 3h1 0c-5 1-9 3-13 4 6 4 12 8 19 11 5 2 9 3 14 4 4 1 7 2 11 1 5-1 8-4 11-8v1c-2 2-4 5-6 7h14c11 0 21 0 31-5v1c-3 1-5 2-7 3h-1c-5 2-9 1-13 2h-7l17 18h0l-13-12c-1-1-4-5-6-5h-8c-4 0-8 0-12 1 8 5 14 11 20 16 5 4 11 8 17 11 3 1 5 2 8 3 7 3 17 5 24 6 3 0 11-1 12 0-9 0-17 0-26-2-10-2-19-7-29-12-2-1-5-3-8-5-2-1-3-3-6-5-3-3-6-5-10-8-1-1-3-2-4-3-2-1-4 0-6-1-3 0-6-1-9-2 2 5 4 11 5 16l-6-16c-6-2-12-4-17-7-4-2-8-5-12-6-7-3-14-1-22-4l-3 3h-1c-2 2-4 3-5 4a57.31 57.31 0 0 1 11 11c5 7 6 14 10 21 4 6 10 10 16 12-2 1-4-2-5 0l1 1h-1 0c-1-3-4-4-6-6l10 54c-1-2 0-4-1-6l-10-45h-1 0v1h-3l-1 1h-3-1l-7-13c-2-3-2-6-4-8-4-5-10-8-13-14-1-4-1-7-2-11h-1c0-1 0-1-1-2-3-3-7-4-12-5h-2-12c-5 1-9 4-12 7l-12 10h1c4 1 9 4 13 7 1 0 3 2 4 2 1-1 3-2 4-2-1 1-1 1-3 2 1 2 3 2 4 3 3 2 6 3 9 6 4 3 5 7 7 11 2 3 4 5 5 7 2 3 2 7 3 10 2 5 4 10 4 15s-1 13-2 18c-1 4-3 9-5 13 0 3-1 6-2 9v-4l-3 4h-1c7-11 13-30 11-42-2-7-4-15-8-20-1-2-2-4-4-5v-2c-4-9-10-13-18-16l-2-1 12 25c1 1 2 4 3 5l1-2v1h0c-1 3-1 6 0 8 0 1 1 3 0 4-1-4-1-7-3-10-2-7-6-13-9-18-2-4-5-8-7-11-2-2-4-3-6-4-8-5-15-7-24-5-4 1-8 2-11 4-2 2-5 4-7 7-5 5-9 12-13 18l-5 7c4 3 11 5 16 6h0c8 2 14 0 22 0-2 1-5 1-7 2-9 1-15 0-24-2l-4-2 3 5h-1c-1-2-3-5-5-6-3 1-7 14-9 17l-6 14c-2 3-4 5-6 8-9-8-14-20-18-31-1-4-3-7-4-11-2-1-3-2-4-4-1-1-1-2-2-2-1-2-1-3-2-5h-1v4c-1 1 0 3 0 4v10c0 2 1 3 0 5-1 1 0 4-1 5l1 15c2 2 4 4 5 7 1 1 2 1 3 2h-1l-1 2c-1-2-2-5-4-7-2-3-6-5-9-8-2-2-4-6-5-9l-12 20c-4 5-7 9-10 14-5 6-8 14-11 21-1 3-3 7-4 10v1h0c2-8 4-16 8-23 5-10 12-18 17-28l9-15h-17l3-1 2 1c1 0 11-1 12-2 1 0 1-2 1-3l2-10c1-4 2-9 5-13 2-4 5-7 8-9l-18-16-4-4-2-2-2-1c-5-5-10-11-17-15-3-2-8-3-12-5-3 3-6 6-9 10-10 10-19 20-26 33 4 1 8 1 12 0 5 0 11 0 16-2 3-1 6-3 10-4h0l-3 2h0c-3 1-5 2-8 3-6 3-17 3-24 2h-1c3 2 6 5 9 6 4 3 10 2 16 3h-9c-3-1-6-1-10-3 4 6 6 11 9 16v1c-3-6-7-14-12-19-2-1-4-3-7-4 4 6 7 13 8 20v4-1l-1-5c-1-5-4-13-8-17h0c-2-2-4-2-6-2-10 0-21-1-31 0-1 1-1 2-1 5-1 8 1 16 3 24-1-1-2-3-2-4-4 6-3 12-3 19v9l-2-19c-5 3-7 8-10 13 0-1 0-2 1-4 1-1 2-3 3-5 2-2 5-4 6-7 5-8-1-24-4-33-4 1-7 1-11 2-8 4-12 20-14 29l-5 17-3 14c0-2 0-4 1-6 1-6 2-12 4-18 1-7 3-14 5-21l6-12c1-2 1-3 2-3l1-1h0l1-1h1l2-1h0c0-3 1-5 2-8h0c-1 0-1 1-2 1 0 1-1 1-2 1l-2 2-2 2h-1c-2 1-4 3-6 5-3 3-9 6-11 11-1 2-1 4-2 7-1 2-2 4-4 6h0c3-4 4-9 6-15-4 3-7 6-11 7h-1c4-2 7-5 10-7 5-4 10-9 14-14l4-4 20-13-2-12c-10 1-20-1-30-1-1 0-4-1-5 0-1 0-3 2-4 3-2 2-3 4-5 6-3 4-10 7-15 8h-10c-5 1-10 2-15 2-4 0-9-1-13 0-3 1-8 7-10 10l-4 6v-1l6-9 4-4-20 9v-1l13-7c3-1 6-2 9-4-3 0-7 0-10-1-2 0-5-1-8-2h-10c-13-2-24-7-32-16-3-4-6-7-8-11h0c6 8 12 16 22 20 3 2 7 3 10 3-1-2-2-4-4-7h0c3 4 5 8 10 9s9 0 13 0c4 1 8 3 13 3 12 1 23 0 35-1 6-1 12-1 17-5 2-2 4-4 5-7l4-5 1-1h0c-7-2-14-3-20-7l-9-6c0-1-2-2-3-3l-3 1-17 3c-6 1-14 4-19 2-2 0-4-2-6-3l-8-5 3-1c2 1 3 2 5 2h0l3 3c2 1 4 2 6 2 3 0 6-1 9-1l26-5v-1l-2-2c-3-5-6-9-8-14-2-4-4-10-7-14-2-4-5-6-8-9-1 0-2 0-3 1-1 0-2-1-3-2-2-3-7-6-7-10-1 0-3-1-4-1h0l-1-2-6-10c-2-2-3-4-5-6-2-1-5-2-8-2 2-1 4 0 7 0l2 1c2 3 4 6 7 10 1 3 2 5 5 6l1 1c3 3 12 5 16 5h0c1-1 1-2 2-2 1 2 0 6 1 9 1 1 2 2 4 3 1-9 4-16 6-25 3-8 4-17 5-25 2-6 4-13 5-18 0-8-2-17-3-25-1-6-1-13 0-20 0-5 4-44 5-46l-2 23 3-9c1 2 0 3 0 4-1 3-2 6-3 10s-1 9-2 14c-1 10 0 21 1 32 1 4 2 9 3 13l5-12c3-8 6-16 13-21 6-4 12-7 17-12v1c-5 5-10 8-15 12 2 0 5 0 7 1h-9c-2 2-4 4-5 6-3 5-4 11-7 17-1 5-4 10-5 15 2-1 5-2 7-2h0c-2 1-6 2-7 4-1 0-1 2-1 3l-1 3c1 3 0 7 0 10-1 2 0 5-1 7 0 2 1 3 1 5h1c0 1-1 2-2 3l-2-1c0 1 1 1 1 2s-1 1-1 2c-1 1-2 3-2 5l-1 1h0c1 4 0 8-1 13-1 7 0 15 1 22 0 1 0 3 1 4v1l-1-1h-1c2 4 5 7 8 10 4 6 12 15 19 17 3 1 7 1 11 2h1c4 1 13 5 17 3-1-4-3-8-4-12-2-5-4-10-7-15-2-3-4-5-5-7-2-2-2-5-3-7-1-1-5-4-7-5-1 0-1 1-2 1v-1h2c2-1 6 2 8 4v1c0-7 1-14 2-21v-2c0 3 0 7-1 10 0 6 0 12 2 18 1 2 4 5 5 8 2 2 4 6 6 9 1-3 1-7 3-9 1-3 2-6 3-8v-1l1-1v3c1 1 2 2 2 3h1 0c2 4 5 6 7 10 3 4 5 10 6 15 1 3 3 6 3 10l3-1c1 0 2 0 4-1 3-2 4-5 5-9 0-4 1-8 1-12 0-8-3-16-3-25 0-2-1-4 0-6l1-4c0 3-1 7-1 10 0 7 2 14 4 21 1-3 3-7 4-10 2-2 4-4 6-5l13-12c1-3 2-7 4-10l4-4c-1-6-1-11 0-17v-5c1-10 4-19 9-28h1c-4 0-8 0-12-1-3 0-6-1-8 0l-10 4c-1 3-2 7-2 10v-8c-2 1-3 2-4 2-3 2-5 3-7 5-2 3-3 5-5 8 0 0-1 2-2 2 0 1-2 2-2 2h-1c4-4 6-10 10-14 2-3 5-5 8-7v-5l-1-3v-1c-1-3-2-5-2-8-2-2-6-4-8-6s-4-5-7-6c-4-3-16-1-20 0-2 1-5 2-7 3s-4 2-5 2c-6 4-10 11-13 16h-1c3-7 8-14 15-18h1c-3-3-6-5-9-7h-1 1c0-1-2-3-3-4 1 0 4 3 5 4 2 2 4 3 6 4 1 0 2 2 2 2 1 0 3-2 3-2 2-1 4-2 7-3s7 0 11-1c2 0 5-1 7 0h3v-3c1 0 1 0 2-1l1 1v2c0 3 2 4 4 6l6 5 2 1c3 3 6 6 9 7 0-1 1-3 0-4-1-3 0-8-2-12h-3 0v-1h3v-6l-1-10h0c0-2-1-3-2-4h0v-1h0 1v-1-11c0-5-1-9 1-14h1c1-1 1-1 1-3v-10c0-4 0-9-2-14h2l-1-2h1c1 1 2 3 3 4 0-1-1-2-1-3l-1-1c1-1 2 1 3 0h0c-3-2-7-4-11-6l-2-1c-5-3-11-5-16-8-4-1-7-4-11-6s-8-3-12-4-7-2-11-3c-3-1-7 0-10-1s-8-3-11-2c-1 0-2 1-3 1-3 2-9 7-12 7 1-1 4-3 6-4l8-6c-2-2-5-4-7-5-3-3-7-6-10-9v-1c3 3 6 5 9 7s6 5 9 7c4 1 13 4 17 2 1 0 3 1 5 1l9 3 9 2c1 1 2 1 3 1h1l1-2c2 2 4 5 7 7 5 3 11 4 16 7l20 10-2-10v-6c0-5 0-11-1-16 0-5-3-10-5-15l-10-29-17-44c-1-2-1-3-3-4-6-5-15-10-24-8h0c-5 1-9 3-13 3-2 0-3 0-5-1-2-2-4-4-6-3l-1-1 1-1c3 0 4 3 7 4 2 1 4 1 6 0l1-1v-1 1l1 1c2 0 4-1 6-2 5-2 9-2 15-1l-8-9c-3-4-8-11-12-12-8-3-16-4-22-9v-1c7 5 16 7 24 8-3-3-6-5-8-8v-1l9 9c-1-3-6-19-5-21 2 7 3 15 6 22 2 2 4 5 6 7 3 3 5 7 9 10 4 4 8 7 13 10l-35-95c-6-15-12-31-19-46-2-3-3-6-4-9-1-2-3-3-5-5-5-4-10-5-16-7-2 7-2 15-6 21 2-6 4-13 4-20-1-1-1-1-3-1-4-1-8 3-12 4 0 1-1 1-2 1 0 0-2-1-3-2-2-1-5-2-8-2l-4-1h6c3 1 6 2 10 3 2-1 4-2 5-3-7-4-11-13-17-20-4-4-8-9-13-14h1l20 22-2-10c3 6 1 12 7 17 3 2 5 2 9 2 1-1-1-2 0-4 1 1 1 3 2 4h5c7 1 12 3 18 7-10-20-20-38-34-55-24-28-58-51-96-54-3-3-5-7-8-10-4-7-9-13-13-20l101-1c-5-3-9-9-14-14l-12-13v-1c2 3 6 8 9 9l1-1v1c1 2 3 4 5 6l9 10c1 1 3 3 4 3 1 1 3 1 4 1h12 6c3 0 8-1 10 0l1 1v-1c2-1 5 0 6 0 6 0 12 0 18-1v-2 2c1 1 7 1 9 1l5-7h1l-5 7 23-1 2 1c4 0 9-1 12 0l1-1 10 1z" class="S"></path><path d="M418 346l6 6c-2-1-4-3-6-4-1 0-2 0-2-1l2-1z" class="F"></path><path d="M431 418c1 3 2 7 2 10l-1 1h0c0-1-1-3-2-4 0-2 0-4-1-6h1 1v-1z" class="R"></path><path d="M578 787l-13 6c3-3 7-6 11-7 1 1 2 1 2 1zM322 207l1-6h1v2l2 6c-1 2 0 4 0 7-2-3-3-6-4-9z" class="F"></path><path d="M581 784c2 0 5-2 7-3l1 2-11 4s-1 0-2-1l5-2z" class="K"></path><path d="M425 650c-2-5-4-9-5-15 2 4 4 9 7 13v3l-2-1z" class="L"></path><path d="M496 304c0 2 1 3 0 5-3 0-6-1-10-1 1-1 8-3 10-4z" class="E"></path><path d="M429 776c4-1 9 0 13 2l-10-1c-5 0-9 1-14 2 3-2 7-3 11-3zm22-139l1-1v-1c-1-3 0-6 0-9 3-2 6-4 8-6 1-1 2-3 3-4 0 3-2 4-4 6l-1 1c-3 3-4 4-5 8v7l-2-1zM322 207c0-2-1-3-1-6 1-5 2-9 4-14l-1 16v-2h-1l-1 6z" class="K"></path><path d="M647 685v1c1 1 1 2 2 3h1l1 1-1 1h0l-1-1c-1 1-2 3-1 4v1l1 1h-4l-1-1c0-4 1-6 3-10z" class="B"></path><path d="M410 776l2-1c-1 3-4 4-5 7l-2 2v1c-3 2-7 4-10 5h-1c1-1 2-2 3-2 1-1 1-1 2-1l2-2v1l-1 1h1c1-1 1-2 2-3h-1c-1 0-2 1-2 1h-1c3-3 8-5 11-9z" class="L"></path><path d="M462 296c1 1 3 2 5 3 1 1 2 1 2 2 3 1 4 2 6 5-5-2-11-3-14-8 0 0 0-1 1-2z" class="C"></path><path d="M364 292h4l5 5h1c1 4 9 7 12 10v1c-4-3-9-5-13-8-3-2-6-5-9-8z" class="R"></path><path d="M307 781h1c4 1 13 5 17 3v1l14 3c-2 1-5 0-8 0-6-1-13-2-20-3 1 0 2-1 2 0h3c2 1 2 0 4 1l1-1h-2l-1-1h-1-2c-1 0-1-1-2-1h-1c-2-1 0 0-2 0l-1-1h-1c-2-1 2 1-1 0v-1zm117-19h7c2 1 5 1 8 1h1c2 0 3 1 4 2h-4-4 0-1c-2 0-4-1-6-1v1c-1-1-2-1-3-1-2 1-3 1-4 1-2 1-6 3-8 2h1c1 0 1-1 2-1h1c1-1 0-1 1-1h1 1 1c1-2 1-2 2-3h0z" class="L"></path><path d="M441 628c-2-3-4-6-7-10-4-5-9-10-14-15 2 0 4 3 6 5 5 5 11 10 15 16 3 3 4 7 7 10l-1 1c-2-2-3-4-6-7z" class="F"></path><path d="M429 419c-2-7-8-14-13-19-2-3-4-5-6-8l9 9c3 3 6 5 8 8s3 6 4 9v1h-1-1z" class="T"></path><path d="M399 785l-1 1c-1 0-2 1-3 1h-1l-5 3v-1l5-3c-1-1-1 0-2 0 2-2 5-4 8-5 2-2 5-4 8-6l1 1h1c-3 4-8 6-11 9z" class="J"></path><path d="M705 166c0-2 0-5 1-7 2-4 5-8 8-12 1-4 3-7 5-10-2 7-7 12-10 19-1 3-1 6-1 9 0 2 0 3 1 5-1 1-2 3-3 5l-1-9z" class="K"></path><path d="M418 439c3 1 4 6 6 8 0 1 1 2 1 2l1-3v1 4c-1 2 0 3 0 4 1 7 2 14 4 21 0 3 1 6 1 9l2 11c1 2 1 4 1 6-3-8-3-17-5-26-1-4-2-8-4-12 0-3 0-6-1-9 0-6-2-10-6-16z" class="M"></path><path d="M626 744h2c1 2 0 9 1 11-1 0-3 1-3 1l-6 2c1-5 3-9 6-14z" class="E"></path><path d="M238 724c3 1 9 2 12 4l1 7c-1 0-2 0-3 1-1 0-2-1-3-2-2-3-7-6-7-10z" class="C"></path><path d="M351 367h1l7 12c1 2 2 4 4 5 0 0 3 0 4 1 6 1 14 3 18 8h-1c-7-4-14-5-22-8-2-2-3-5-5-7-2-4-5-7-6-11z" class="N"></path><path d="M646 789h0c3-1 6 0 9 0 2 0 5 0 7 1l-2 3c-3 0-6 2-8 3-2-1-4-4-6-7z" class="D"></path><path d="M575 802l1 1 5-2c3-1 8-2 11-4 1 0 2-1 3-1v1c-8 5-15 8-24 11-2 1-4 2-5 2 0-1 1-1 1-1h1c1-1 3-1 3-2s1-2 1-2v-1-1-1h3z" class="M"></path><path d="M687 690c1 4-2 15-3 19l-1 1h0v1h0l-4 2c1-8 4-15 8-23z" class="G"></path><path d="M477 714h1c1 1 1 1 1 2v1c1 1 1 1 1 2v2l2 5 7 13h0c1 2 1 5 2 7 1 3 2 6 2 10l-16-42z" class="K"></path><path d="M691 293c5 14 2 27-4 40 0-1 1-3 1-4l3-9v-16l-1-11h1z" class="L"></path><path d="M419 605h0c3 2 5 4 7 7 1 2 3 3 4 5 2 3 6 6 7 10 2 4 4 8 7 11v1h0l-1 1h0l-3-3c0-1 0-1-1-2v1h-1c-1-3-2-6-4-8-1-3-4-5-5-8-2-6-7-10-10-15z" class="J"></path><path d="M575 802s1-1 2-1h2l16-9 3-1v-1l2-1c3-2 6-3 9-4-2 4-10 9-14 12v-1c-1 0-2 1-3 1-3 2-8 3-11 4l-5 2-1-1z" class="L"></path><path d="M699 200c-3-11 4-23 6-34l1 9c-2 5-4 12-5 18l-2 7z" class="J"></path><path d="M364 655c2 2 4 4 7 5 1 1 3 2 4 4-1 4-4 6-8 8v-5l-1-3v-1c-1-3-2-5-2-8z" class="C"></path><path d="M694 605c2 11 0 21 0 32-1 5-1 11-2 17 0-1-1-3-1-3l1-1v-2-2-2-5l1-1v-4-1-1c0-1 1-2 0-3l-1 3c-1 2 0 4-1 6v1h-1c0 1-1 2-1 3v1h0v-6c1-3 1-6 1-9v-14l1 6h0l1 2 1 1v3l1-1v-4-7-3h-1v-2h1l-1-1v-2l1-1zM438 489l1 1 4 17c1 2 1 5 2 8 1 2 3 4 4 6 4 6 5 12 6 18h-1v-1c-2-5-2-9-5-14 0 0-1-1-1-2s0-1-1-2v1h-1c-3-2-4-5-4-8l-4-24z" class="L"></path><path d="M682 553c-1-2-2-3-3-5-1-1-2-2-2-3-1-5 5-12 8-16 0 3 0 6-1 9 0 2-1 4-1 7 0 2 1 5-1 7v1z" class="H"></path><path d="M350 797c5 0 10 1 15 2-4 4-8 7-13 10l-2-12z" class="B"></path><path d="M406 355l1 1v1c1 1 1 3 2 4v1c1 1 1 6 2 8v1l1 6c1 1 1 1 1 3v2c1 1 1 1 1 2v1c0 1 1 3 1 5l-1 1c-1-1-2-2-3-4h0v-2-1c-1-1-1-2-1-2v-2-1c-1-2-1-4-1-7-1-1-1-2-1-3v-2c-1-1-1-1-1-2v-1-2h-1v-1-1c-1-1-1-2-1-3v-1h0l1-1zm-67-115c-1-1-2-2-2-3 0-3-1-3-2-6 0 0-1-1-1-2h-1v-1c0-1-1-1-1-2 0 0-1-1-1-2-1 0-1-1-2-2h0c-1-1-1-2-2-3l-1 1c-1-2-3-4-5-5-4-6-15-13-15-21 1 1 0 1 1 1 2 3 4 6 7 8 2 1 4 2 6 4s4 7 6 9h0c5 5 8 12 11 17l2 7z" class="K"></path><defs><linearGradient id="H" x1="348.923" y1="273.615" x2="367.615" y2="286.078" xlink:href="#B"><stop offset="0" stop-color="#21211f"></stop><stop offset="1" stop-color="#414144"></stop></linearGradient></defs><path fill="url(#H)" d="M364 292c-5-4-7-9-10-14-1-1-2-2-2-3s0-2-1-3h0v-2l-1-2h0v-2c-1-1-1 0 0-1h0l1 1c0-2-1-4-2-5l-1-1v-2h-1v-1c5 6 6 14 10 21v1c1 1 1 2 2 3h1c3 2 3 7 8 8 2 2 5 5 6 7h-1l-5-5h-4z"></path><path d="M638 506c2 1 11 15 12 17h-2l-14-6c1-4 2-8 4-11z" class="C"></path><path d="M400 732c-4-4-6-12-7-18-1-4 0-11 3-15v3c0 2 0 4 1 6 0 3 0 5 1 8l1 7c1 1 1 2 1 4v5z" class="B"></path><defs><linearGradient id="I" x1="579.548" y1="786.237" x2="588.425" y2="794.239" xlink:href="#B"><stop offset="0" stop-color="#3c3c3c"></stop><stop offset="1" stop-color="#5d5d5d"></stop></linearGradient></defs><path fill="url(#I)" d="M609 780c0 1 0 2-1 2l-6 3c-2 1-4 2-5 3-4 1-6 3-9 4l-11 5h0l1-1v-1c-3 0-4 0-6-2l37-13z"></path><path d="M382 535c2 3 3 8 4 12l8 23c-2-3-6-5-8-8-3-6-4-21-4-27z" class="B"></path><path d="M409 313c3 0 3 3 6 3 1 1 3 3 5 4h1 1v-1h0l1 1-5 14c-4-6-7-14-9-21z" class="C"></path><path d="M431 652c6 5 12 10 19 14 6 2 12 4 17 8v1c1 1 2 2 2 4h0l-5-5c-1-1-2-1-3-1h-2l-2-1h-1l-12-6c-4-2-8-5-11-8v-1c-1-2-2-3-2-5z" class="R"></path><path d="M333 826l1-1c4-4 11-8 16-10l3-1-3 12c-7 1-12 3-17 8 1-2 1-3 2-3l1-1h0l1-1h1l2-1h0c0-3 1-5 2-8h0c-1 0-1 1-2 1 0 1-1 1-2 1l-2 2-2 2h-1z" class="H"></path><path d="M447 672c-1-1-2-1-4-2l-2-1h0 4l2 1h2l3 1s1 0 1 1h1 2 1l2 1h2c1 0 2 0 3 1l5 5h0c0-2-1-3-2-4v-1h1c1 1 1 2 2 3 0 1 0 1 1 2h0l3 10c0 1 0 2 1 3 0 0 0 1 1 2v2 2c-1-1-1-2-1-3-1-1-1-2-1-2-1 2-1 3 0 5h0-1c0-1 0-1-1-1 0-2-1-3-2-5h0l1 1h1c0-1 0-2-1-3l-1-2v-1c-1-1-1-2-1-3-1-1-1-1-1-2v-1c-2-2-5-5-7-6h0l-1-1c-2-1-2 0-3 1l-1-1h-2-1c-1-1-1-1-2-1h-1l-2-1h-1z" class="M"></path><path d="M584 778c3-2 6-4 9-5l1 2 2-1 1 1c1 0 2-1 4-1v1h2c0-1 1-1 2-1h1l-4 3c-4 1-8 4-13 6l-1-2c-2 1-5 3-7 3l2-2h0c-3 1-7 2-11 4 1-2 3-3 5-3 2-2 4-3 6-5h1z" class="J"></path><path d="M584 778c3-2 6-4 9-5l1 2c-2 1-4 2-6 2h-1c-1 1-2 1-3 1z" class="F"></path><path d="M606 774l-4 3c-4 1-8 4-13 6l-1-2c2 0 5-2 5-3l-4 2v-1c1-1 2-2 4-2 1 0 2-1 4-2 1 0 2-1 4-1v1h2c0-1 1-1 2-1h1z" class="M"></path><path d="M612 723c1-2 2-3 3-5l2-3c2-3 3-5 6-7 2 0 3 0 4 1v1 1c-4 8-10 13-16 19l-1-1c-1-2 0-4 1-5 1 0 1 0 1-1z" class="H"></path><path d="M612 723c1-2 2-3 3-5l2-3c2-3 3-5 6-7 2 0 3 0 4 1v1 1l-2-2c-5 3-10 9-12 15l-1-1z" class="B"></path><path d="M665 138h1c0 4 1 9 2 12 2 4 4 7 5 10l4 14c2 5 14 15 18 18l1 1v1l-1 1c-3-5-9-8-13-12-1-2-3-3-4-5-6-5-6-12-8-19-1-4-4-7-4-10-1-3-1-7-1-11z" class="F"></path><path d="M671 841c-3-3-9-15-10-19l3 1c7 4 13 8 15 16h-1 0v1h-3l-1 1h-3z" class="C"></path><path d="M463 657v-1l-1-1h0c-2-4-3-9-5-12v-1c3 3 3 7 6 10 3 4 8 7 11 11 4 7 5 16 7 24l6 20h0l-1-1-1-4-2-7c0-1 0 0-1-1v-2c0-2-1-3-2-4v-3l-1-3v-2c-1-1-1-3-1-4h0c-1-1-1-2-1-2v-1l-1-1v-1c0-1-1-1-1-2-1 1 0 3 1 4v2c0 1 1 2 1 3v2l1 4v1l-1 3-1-4c0-2-1-4-2-6 0-3-1-7-2-10h0c-3-5-5-7-9-11zm236-430c3-3 4-6 6-10v1c-2 5-4 9-6 13-2 3-3 7-4 10l10-6h0c-3 3-8 5-10 8-1 1-1 3-1 4l-3 12-1 8c0 4-1 8-1 12 0 5 1 9 2 14h-1c-1-4-3-8-3-12v-8l3-20c2-4 2-8 4-12 1-5 3-10 5-14z" class="M"></path><path d="M645 749c4-1 6-4 8-6-5 11-18 16-28 22-2 1-5 2-6 4-4 3-12 7-17 8l4-3 12-7c2 0 3-2 4-3 2-2 5-5 7-6 1-1 2-1 4-2 4-2 8-5 12-7z" class="K"></path><path d="M267 136v-1c2-1 5 0 6 0 6 0 12 0 18-1v-2 2c1 1 7 1 9 1l5-7h1l-5 7 23-1 2 1c4 0 9-1 12 0l1-1 10 1h-10l-6 13c-2 3-4 6-4 9v1c-1 2 0 4 0 6-1-1-2-7-2-9s3-4 4-6c1-1 6-13 6-14h-36c-1 7-2 14 1 21-1 0-2-1-3-2-3-5 0-14 1-19h-33c4 5 7 10 13 14 1 1 0 1 1 1-6-1-11-8-14-13v-1z" class="W"></path><path d="M680 616c0 12-1 24-4 36-1-6-3-12-3-18v-8c0-1 0-2 1-2l1-2c0-1 1-2 1-3h1v-1h1c0-1 1-2 2-2z" class="E"></path><path d="M612 754c1-1 1-3 2-4l1-1c1-2 3-3 4-6v-1l2-2c0-3 2-4 3-6l1-1v2c1 0 0 0 1-1h0 1l-12 24c1 1 1 1 3 2l-17 9h-1l1-3s1 0 1-1c3-3 9-7 10-11z" class="L"></path><path d="M386 307c4 3 6 5 8 10l1 1h0l3 8c4 4 7 10 11 14l1-1c3 2 6 4 8 7l-2 1-5-3c-2 0-3-2-5-3-4-4-8-9-11-14-1-2-2-4-3-7-2-3-3-5-4-8-1-1-2-3-2-4v-1z" class="F"></path><path d="M386 307c4 3 6 5 8 10l1 1v3c-3-2-4-6-6-9h-1c-1-1-2-3-2-4v-1z" class="M"></path><path d="M398 326c4 4 7 10 11 14l1-1c3 2 6 4 8 7l-2 1-5-3c-1-2-3-4-5-6-3-3-6-8-8-12zm211 454h1c2-2 6-4 9-3v1c1-1 1-1 2-1-2 1-5 3-6 5h4l-4 1c-2 0-4 1-6 2-3 1-6 2-9 4l-2 1v1l-3 1-16 9h-2c-1 0-2 1-2 1h-3c-2 0-3 0-4 1s-3 1-4 3h-1c-1 0-1 0-2 1v1l-1-1c2-1 5-3 8-4 1-1 4-2 5-3 0-1 1-1 2-1l2-2 11-5c3-1 5-3 9-4 1-1 3-2 5-3l6-3c1 0 1-1 1-2z" class="N"></path><path d="M407 673l3 11c0 1 1 2 1 3-1 0-3 1-4 3-1 1-1 1-2 1l-1 1h-2c-2 1-4 2-7 3v-3c1-7 6-15 12-19z" class="C"></path><path d="M417 417c1-1 2-1 2-3v-1c-1-1-2-3-3-5l1-1c0 1 1 2 1 3v1h1v2c1-2 0-2 0-3v-1-1-1c0 1 1 1 1 2 0 2 1 4 2 5l2 6c1 1 1 1 3 1l2 3c0 2 1 6 0 8l-1 12c0 2 1 4 0 5 0 2-1 4 0 6l-1 1c0 1 0 2 1 3v1c-1 1 0 1 0 2v3c1 2 0 3 1 4v1 1c1 1 1 1 1 2v1c0 1 0 1 1 2v1 3c1 1 0 3 0 5 0-3-1-6-1-9-2-7-3-14-4-21l2-14-2-4c0-1 0-2-1-2-1-3-2-6-2-8-2-4-5-7-7-10h0 1z" class="K"></path><path d="M416 417h1 0c2 2 7 5 9 5 3 3 3 9 2 13v6l-2-4c0-1 0-2-1-2-1-3-2-6-2-8-2-4-5-7-7-10h0z" class="T"></path><path d="M459 739l15 40c-4-5-8-10-13-15 0-1-4-4-5-5 1-4 2-9 2-13 0-2 0-5 1-7z" class="E"></path><defs><linearGradient id="J" x1="541.653" y1="806.934" x2="574.316" y2="805.995" xlink:href="#B"><stop offset="0" stop-color="#070708"></stop><stop offset="1" stop-color="#3f3e3f"></stop></linearGradient></defs><path fill="url(#J)" d="M573 800c-5 1-11 4-15 8-1 0-2 1-2 1-7 4-11 9-17 14 1-2 1-3 3-5 2-3 4-6 7-10 6-6 14-12 23-15 2 2 3 2 6 2v1l-1 1h0l-2 2c-1 0-2 0-2 1z"></path><path d="M691 639c0 1-1 1-1 2v2c0 1 0 1-1 2v1 2c-2 5-2 10-3 14h-1l1-26h0l-1 2c0 4-1 10-1 14v3h0c-3-7 0-16 0-23l1-30c-1-1 0-4 0-6l-1-1c2-3 0-12-1-16h1v1c0 1 0 2 1 4v4h0l1-1c2 2 0 6 1 9 1 2 1 7 1 10h-1v5c-1 1-1 3-1 4-1 1 0 4 0 6l-1 1c0 2-1 9 0 11 0 0 0-1 1-2v-1-1h1c0-1 0 0 1-1v2c1-2 1-5 1-7v-1c1-1 0-2 0-3v-1c2-2-1-6 1-8 1 1 1 3 0 4v14c0 3 0 6-1 9v6h0v-1c0-1 1-2 1-3h1z" class="K"></path><path d="M423 761c10-4 22-5 33-2 1 1 5 4 5 5h-1c-1-1-2-2-4-3-1 0-1-1-2-1v2c1 1 2 1 2 1v2c-1 0 0 0-1 1h0c1 0 2 1 2 2v1l1 1-1 1v-1c-2-1-3-2-5-2h0l-2-1h0-2l-1-1h-1 0l-6-1h0 4c-1-1-2-2-4-2h-1c-3 0-6 0-8-1h-7c-1 0-2-1-3 0s-2 1-3 1l-1 1h-1-1c-2 1-1 0-2 1h-1c-1 1-2 2-3 2s-1 1-2 0h1c3-2 7-4 12-5l3-1z" class="F"></path><path d="M442 759c2-1 5-1 8 0 1 0 2 1 3 1l-2 2 4 2h-3c0 1 0 1 1 2v1c-3-1-6-2-9-2-1-1-2-2-4-2h-1c-3 0-6 0-8-1 3-2 7-2 11-3z" class="N"></path><path d="M442 759v1c2 0 6 1 7 2-2 1-2 1-5 1h-4-1c-3 0-6 0-8-1 3-2 7-2 11-3z" class="R"></path><path d="M422 654c-2-4-2-8-3-13 2 4 3 7 6 9h0l2 1v-3l4 4c0 2 1 3 2 5v1c3 3 7 6 11 8l12 6h-2-1c0-1-1-1-1-1l-3-1h-2l-2-1h-4 0l2 1c2 1 3 1 4 2-1 0-2 0-3-1h-1c-1 0-2 0-2-1h-1-1c-8-4-12-8-17-16z" class="K"></path><path d="M422 654c-2-4-2-8-3-13 2 4 3 7 6 9h0l2 1v-3l4 4c0 2 1 3 2 5v1c3 3 7 6 11 8h-1c-7-1-11-4-15-10-2-2-3-4-5-5-1-2-2-3-3-5l2 8z" class="F"></path><path d="M427 651v-3l4 4c0 2 1 3 2 5v1c-2-2-4-4-6-7z" class="N"></path><path d="M647 685c8-5 16-10 26-13l-3 6c-1 2-3 3-5 5-5 4-10 10-16 12v1l-1-1v-1c-1-1 0-3 1-4l1 1h0l1-1-1-1h-1c-1-1-1-2-2-3v-1z" class="E"></path><path d="M648 797c3 2 7 3 10 5 8 6 12 16 15 25l-9-6-7-7c-2-2-5-4-6-7-2-3-2-7-3-10z" class="H"></path><path d="M412 419c5 0 7 6 11 8 0 2 1 5 2 8 1 0 1 1 1 2l2 4-2 14c0-1-1-2 0-4v-4-1l-1 3s-1-1-1-2c-2-2-3-7-6-8-2-2-4-6-5-8l-6-9c3 1 8 4 10 6h0c0-2 0-2-1-4h0l-1-1-2-2v-1l-1-1z" class="J"></path><path d="M417 432l-1-1v-1l-1-2h1l2 3h1l-1-2c1 0 1 0 1 1 1 0 1 1 1 2 1 1 1 2 2 2l1 1c1 2 2 5 2 7h-1 0c-1-2-2-4-3-5s-1-2-2-2c0-1 0-2-1-3h-1z" class="K"></path><path d="M413 431c1 0 3 2 4 3v1h0c1-1 0-2 0-3h1c1 1 1 2 1 3 1 0 1 1 2 2s2 3 3 5h0 1l1 4-1 3s-1-1-1-2c-2-2-3-7-6-8-2-2-4-6-5-8z" class="F"></path><path d="M412 419c5 0 7 6 11 8 0 2 1 5 2 8 1 0 1 1 1 2l2 4-2 14c0-1-1-2 0-4v-4-1l-1-4c0-2-1-5-2-7-2-7-4-11-10-15l-1-1z" class="R"></path><path d="M412 419h-1c-8-5-18-14-23-23-2-4-3-8-6-12s-8-8-11-13c5 5 10 8 15 14 3 3 5 8 8 12 2 3 5 6 7 9 5 4 11 6 15 11h0c2 3 5 6 7 10-4-2-6-8-11-8z" class="M"></path><defs><linearGradient id="K" x1="424.946" y1="454.241" x2="439.916" y2="445.626" xlink:href="#B"><stop offset="0" stop-color="#312e2e"></stop><stop offset="1" stop-color="#4e5050"></stop></linearGradient></defs><path fill="url(#K)" d="M430 425c1 1 2 3 2 4h0l1-1v17c0 7 0 14 2 20l3 12c0 2 0 6 1 8v5l-1-1h0v-4c-1-5-1-9-3-13-1 1 0 4 1 5l1 13c1 2 1 4 0 5h0c-1-4-1-8-2-13 0-1 0-1-1-2v4c1 6 2 11 3 16v2c-2-3-2-6-3-9 0-2-1-4-1-6v-9h-1 1v-3h-1l1-1-1-1v-2c-1-1-1-1-1-2v-2l-1-1h1v-2c-2-13-1-26-1-39z"></path><defs><linearGradient id="L" x1="429.417" y1="778.539" x2="426.466" y2="767.654" xlink:href="#B"><stop offset="0" stop-color="#333334"></stop><stop offset="1" stop-color="#4f4e4e"></stop></linearGradient></defs><path fill="url(#L)" d="M412 775c4-4 8-6 13-7 9-2 20-2 28 4 0 0 1 1 1 2 1 1 4 3 3 4-1-1-3-3-5-4l-2-2h0v1c-1 1 0 1-1 1h-1l2 2c1 0 1 1 2 2h0c1 0 1 1 2 1l1 1 2 1-1 1c-3-3-5-5-8-7-6-3-15-3-22-2-9 0-14 8-21 12v-1l2-2c1-3 4-4 5-7z"></path><path d="M642 749h3c-4 2-8 5-12 7-2 1-3 1-4 2-2 1-5 4-7 6-1 1-2 3-4 3l-12 7h-1c-1 0-2 0-2 1h-2v-1c-2 0-3 1-4 1l-1-1-2 1-1-2c3-1 5-2 7-4h1l17-9 5-2 2-1h1v-1s2-1 3-1c3-1 7-3 11-5l2-1z" class="L"></path><path d="M605 772c3 0 6-4 9-5h4l-12 7h-1c-1 0-2 0-2 1h-2v-1l4-2z" class="N"></path><path d="M600 769h1 1 1 4l-4 2h0l2 1-4 2c-2 0-3 1-4 1l-1-1-2 1-1-2c3-1 5-2 7-4z" class="M"></path><path d="M603 771l2 1-4 2c-2 0-3 1-4 1l-1-1v-1l7-2z" class="K"></path><path d="M642 749h3c-4 2-8 5-12 7-2 0-3 0-4 1l-12 6c-3 1-7 4-10 6h-4-1-1l17-9 5-2 2-1h1v-1s2-1 3-1c3-1 7-3 11-5l2-1z" class="T"></path><path d="M276 679c1 3 0 7 0 10-1 2 0 5-1 7 0 2 1 3 1 5h1c0 1-1 2-2 3l-2-1c0 1 1 1 1 2s-1 1-1 2c-1 1-2 3-2 5l-1 1h0c1 4 0 8-1 13-1 7 0 15 1 22 0 1 0 3 1 4v1l-1-1h-1c-1-1-1-2-2-3-3-7-4-18-2-24 1-6 4-12 5-18 1-4 1-7 1-10 1-6 3-12 5-18z" class="D"></path><path d="M441 628c3 3 4 5 6 7l1-1 3 3 2 1c2 1 3 3 4 4v1c2 3 3 8 5 12h0l1 1v1c4 4 6 6 9 11h0c1 3 2 7 2 10 1 2 2 4 2 6-1 0-1-2-1-3h0c-1-1-1-2-1-3l-1-4v-1h-1c0-1 0-3-1-4v-2l-1-1c-2-3-4-5-7-8v1 1c1 3 5 4 6 8l1 1-1 1-1-1c0-2-1-4-2-5l-1 1 2 1-1 1h0 0v2l1 1v2h-1v-3h-1c0-1 0-2-1-3l-1-1c-1-1 0 1-1-1-1-1-2-3-3-4l-1-1-1-1-2-2v-1l-1-1c0-1 0-1-1-2v-2c-1 0-1-1-2-1 0-1-1-2-1-3-1 0-1-1-1-1l-1-1v-1c-1-2-2-3-2-4s0 0-1-1v-1l-1-1-1-4c-1-1-1-2-2-4z" class="J"></path><path d="M447 635l1-1 3 3 2 1c2 1 3 3 4 4v1c2 3 3 8 5 12h0l1 1v1c-2-1-3-3-4-5l-2-4c-2-5-7-8-10-13z" class="L"></path><path d="M689 304c1 4 2 11 0 14l-1-1 1-4c0-3-1-6-1-9 0-1-1-2-1-2l-1-7v-1l-3-13v-13l3-11c0-1 0-2 1-3h0l-1-1h1v-2-2c1-1 1-1 1-2 1-2 1-5 2-7h0v2 4h1v3-1-2c1-1 1-1 1-2v-2c1-1 1-1 1-2s0-2 1-3v-1l1-1v-2c1-1 1-1 1-2h0l1-1-1-2 1-1c0-2 1-2 1-3l1-1h0v4c-2 4-4 9-5 14-2 4-2 8-4 12l-3 20v8c0 4 2 8 3 12l1 11h-2z" class="F"></path><path d="M689 304l-1-8c-1-3 0-6-1-9 0-1-1-3-1-4-1-5 0-9 0-14l3-15 1-1-3 20v8c0 4 2 8 3 12l1 11h-2z" class="J"></path><defs><linearGradient id="M" x1="582.732" y1="761.141" x2="618.296" y2="752.474" xlink:href="#B"><stop offset="0" stop-color="#060605"></stop><stop offset="1" stop-color="#28282a"></stop></linearGradient></defs><path fill="url(#M)" d="M583 776l1-1c1-4 7-7 10-11 6-7 11-16 18-23-4 9-10 14-16 22h1c2-3 5-5 7-8l8-11a57.31 57.31 0 0 1 11-11c-1 1-2 4-3 5-1 2-3 3-4 5-2 5-7 12-11 16-1 1-1 1-1 2l1-1c3-2 5-4 7-6-1 4-7 8-10 11 0 1-1 1-1 1l-1 3c-2 2-4 3-7 4s-6 3-9 5h-1v-2z"></path><defs><linearGradient id="N" x1="588.063" y1="770.335" x2="598.923" y2="770.65" xlink:href="#B"><stop offset="0" stop-color="#0b0e0c"></stop><stop offset="1" stop-color="#272628"></stop></linearGradient></defs><path fill="url(#N)" d="M583 776l1-1 2-2h1l1-1c1 0 3-2 4-1 3-1 6-4 9-5l-1 3c-2 2-4 3-7 4s-6 3-9 5h-1v-2z"></path><path d="M709 170v-1c4-3 5-7 7-10 5-7 11-16 18-20 1-1 2-3 4-3-1 2-4 3-6 5-2 3-5 6-7 9-3 3-6 7-8 11-1 2-2 5-4 7-1 2-4 4-5 6-2 3-2 8-3 11-1 4-3 8-3 12s1 8 1 12c1 3 1 6 1 9 2-5 2-11 5-16s8-8 12-13c1-2 2-4 3-7 0 3-1 5-2 7-3 5-8 9-11 15-3 4-3 10-6 14v-1c-2 4-3 7-6 10v-4h0v-2c1-1 1-1 1-2l-1-1v-1h-1v-1h0-1c3-4 2-12 2-16l2-7c1-6 3-13 5-18 1-2 2-4 3-5z" class="N"></path><defs><linearGradient id="O" x1="696.813" y1="209.906" x2="703.12" y2="207.423" xlink:href="#B"><stop offset="0" stop-color="#171618"></stop><stop offset="1" stop-color="#2f2f2e"></stop></linearGradient></defs><path fill="url(#O)" d="M701 193v8c0 3 1 5 1 9 0 3 0 6-1 10l-2 3h0v-2c1-1 1-1 1-2l-1-1v-1h-1v-1h0-1c3-4 2-12 2-16l2-7z"></path><path d="M477 714c-4-10-8-18-14-27-2-3-6-9-10-10-3 0-5-1-8-2h-2c2-1 4 0 6 1 0-1-1-1-2-2h-1-1c-1 0-2-1-2-2h1c1 1 2 1 3 1s1 1 2 1 2 0 2 1c1 0 1 1 2 1l3 2 3 3h1v1c2 1 3 2 4 4l2 4c1 1 2 3 3 4l4 8v1c0 1 1 1 1 2v1c1 2 1 3 3 4h1l-2-5c-1-2-2-3-2-5-1-1-1-2-2-3 1 0 1 0 1 1h1 0c-1-2-1-3 0-5 0 0 0 1 1 2 0 1 0 2 1 3v-2c1 2 3 5 3 7v1c0 1 1 2 2 3v1 1s1 0 0 1c1 1 2 2 2 3l1 2h0v1c1 1 1 1 1 2v-3l-1-1v-2-1-1l-1-2-1-1v-5l-1-1v-1c-1-1-1 0-1-1v-2h-1v-2l-1-1c0-1-1-3-1-5h0l-1-1v-1-3l1 4c1 1 1 2 2 3v1c1 2 2 5 3 8l1 3c0 2 0 3 1 4 0 1 1 3 1 4v2c1 1 1 2 1 3s0 1 1 2v2h0v2l-1-1c1 2 1 4 2 6 0 1 0 2 1 3v1l1 1v2c0 1 0 1 1 2h0c0 1 1 2 1 3 1 1 1 2 0 4h0l-2-4h-1 0 0l-7-13-2-5v-2c0-1 0-1-1-2v-1c0-1 0-1-1-2h-1z" class="J"></path><path d="M472 697c1 0 1 0 1 1h1 0c-1-2-1-3 0-5 0 0 0 1 1 2 0 1 0 2 1 3v-2c1 2 3 5 3 7v1c0 1 1 2 2 3v1 1s1 0 0 1l3 9c2 4 4 9 5 14l1 5c-2-2-2-4-3-6l-7-17c-1-2-1-4-2-5h0l-2-5c-1-2-2-3-2-5-1-1-1-2-2-3z" class="L"></path><path d="M691 714l13-8c1 4 0 7 1 11 0 1 1 4 0 5h0v2l-11 7c-2 0-3 0-4 2-2-4-5-10-8-12l-2-1h-1c4-1 8-4 12-6z" class="D"></path><path d="M691 714l13-8c1 4 0 7 1 11 0 1 1 4 0 5h0l-5 3-2-1c-3-3-7-6-7-10zM488 881a30.44 30.44 0 0 1-8-8c-3-6-2-19 0-26 2-5 7-12 11-14h1c3 2 4 13 5 16-2-1-3-2-4-4-1-1-1-2-2-2-1-2-1-3-2-5h-1v4c-1 1 0 3 0 4v10c0 2 1 3 0 5-1 1 0 4-1 5l1 15zM373 634v1c1 1 1 2 1 3h0l5 2h0c1 1 1 1 2 1h2v1h2c1 1 2 1 3 1h0v1c2 0 2 1 3 2 3 4 4 8 9 11l2 1c-6 2-16 4-22 2-2-1-4-2-5-3 0-1 1-3 0-4-1-3 0-8-2-12h-3 0v-1h3v-6z" class="C"></path><path d="M716 613c1 3 1 6 0 9-1 2 0 4 0 6l-1 1v7c-1 2 0 3-1 5h0c-2 6-5 12-8 17-3 4-5 5-9 6-1-4 6-21 7-25l5-13c2-5 3-9 7-13zm-51-81c-3-5-5-10-7-14-3-6-6-12-5-19h0c1-8 8-14 14-18-1 12-3 24-3 37 0 4 1 9 1 14z" class="B"></path><path d="M663 435v1 4 4 1c1 1 1 1 1 2l1 1 4 7c1 0 1 1 1 2l2 2c0-2-1-5 0-7v-1-2h1c1 1 0 5 0 7l1 1v9c-6 6-13 11-20 13 1-9 1-18 3-27 1-6 3-11 6-17z" class="C"></path><path d="M328 749c1 1 2 2 2 3h1 0c2 4 5 6 7 10 3 4 5 10 6 15 1 3 3 6 3 10-4 0-12-2-16-5-4-2-7-8-8-12-1-1-1-3-1-3 0-1 0-4 1-5 1-4 2-9 5-13z" class="E"></path><defs><linearGradient id="P" x1="376.89" y1="227.511" x2="348.61" y2="308.989" xlink:href="#B"><stop offset="0" stop-color="#313130"></stop><stop offset="1" stop-color="#5c5b5c"></stop></linearGradient></defs><path fill="url(#P)" d="M326 209c2 5 6 9 9 13 4 6 7 12 11 18 3 4 6 9 8 13 2 5 3 9 4 13 1 6 3 12 6 16 4 4 7 8 11 12 7 4 14 7 19 14 3 5 5 12 7 18 2 5 5 9 9 13l-1 1c-4-4-7-10-11-14l-3-8h0l-1-1c-2-5-4-7-8-10-3-3-11-6-12-10-1-2-4-5-6-7-5-1-5-6-8-8-2-5-4-9-5-13-2-5-2-10-5-14-4-4-8-10-11-15l-2-7c-3-5-6-12-11-17h0c0-3-1-5 0-7z"></path><path d="M337 233c4 5 7 9 10 14 1 3 3 5 3 8-4-4-8-10-11-15l-2-7z" class="L"></path><path d="M374 297c10 5 18 10 21 21h0l-1-1c-2-5-4-7-8-10-3-3-11-6-12-10z" class="J"></path><path d="M679 720h1l2 1c3 2 6 8 8 12 1-2 2-2 4-2-3 4-8 8-12 12-6 5-14 8-22 9v-2c1-6 3-12 5-17 3-7 8-10 14-13z" class="E"></path><path d="M690 733c1-2 2-2 4-2-3 4-8 8-12 12-6 5-14 8-22 9v-2c3 0 7-1 9-3 3-1 5-4 8-6 4-3 9-6 13-8z" class="I"></path><path d="M708 659c1 3 1 6 1 10s0 9-1 13v4h0c-1 1-1 1-1 2l1-1c1 0 1 0 2-1h1c-1 1-1 2-2 3h-1c0 1-1 2-1 2l-2 2c0 2-1 2-1 4-1 2-3 5-4 7h2c-6 3-13 5-19 7h0v-1h0l1-1c1-4 4-15 3-19l7-18c1-5 3-5 7-6 3-2 5-4 7-7z" class="C"></path><path d="M708 659c1 3 1 6 1 10s0 9-1 13v4h0c-1 1-1 1-1 2l1-1c1 0 1 0 2-1h1c-1 1-1 2-2 3h-1c0 1-1 2-1 2l-2 2c0 2-1 2-1 4-1 2-3 5-4 7h2c-6 3-13 5-19 7h0v-1h0l1-1h1c1-1 3-1 4-2l1-1 3-2c6-7 6-15 7-24 0-5 1-10 1-14 3-2 5-4 7-7z" class="I"></path><path d="M606 610c5 2 9 4 13 6s7 2 10 4c7 3 12 8 16 15 0 1 1 3 1 3 0 2-1 6-2 8-2 6-5 11-8 16-1-1-4-8-4-9-2-3-3-6-5-9l-4-7c0-1-1-2-1-3l-2-3c-1-1-2-1-2-2-1-2-3-3-4-4 0-2-1-3-2-4h-1c-2-2-3-5-4-7-1-1-1-2-1-4z" class="E"></path><path d="M626 632l-1-1 1-1h0v-1-5h1c2 4 3 10 2 15 0-2-1-3-2-5 0-1 0-1-1-2z" class="D"></path><path d="M626 632c1 1 1 1 1 2 1 2 2 3 2 5 2 3 5 10 3 14-2-3-3-6-5-9l1-1c1-2 0-4-1-7-1-1-1-2-1-4z" class="G"></path><defs><linearGradient id="Q" x1="680.307" y1="559.185" x2="644.031" y2="592.505" xlink:href="#B"><stop offset="0" stop-color="#d4d4d3"></stop><stop offset="1" stop-color="#fff"></stop></linearGradient></defs><path fill="url(#Q)" d="M650 527c1 1 3 1 4 2 2 2 3 4 4 7 3 4 5 8 7 13 5 10 9 19 11 30 1 5 1 10 1 15 1 5 2 10 2 15 1 2 0 4 1 7-1 0-2 1-2 2h-1v1h-1c0 1-1 2-1 3l-1 2c-1 0-1 1-1 2-1-1-1-3-2-3-1-6-1-11-2-16-2-6-3-11-6-16l1-3c1-2 0-4 0-7s1-7 0-10c0-4-1-6-2-9-1-2-3-4-5-5-1 1-1 2-1 2l-1 1v3c0 1 0 2-1 2v1h0c-1-1 0-3 0-3v-2c0-1 1-1 1-2v-1c1-2 1-5 1-7 0-4 0-8-2-12s-4-8-4-12z"></path><path d="M612 647c0-5-1-10-1-15-1-3-1-7-2-10v-2l2 1h1c1 1 2 2 2 4 1 1 3 2 4 4 0 1 1 1 2 2l2 3c0 1 1 2 1 3h0c1 4 4 7 5 11 3 5 5 10 6 16 1 2 0 4 0 6s0 5 1 7c0 3 2 7 3 10 1 4-2 9-4 13l-4 6-1-2c-1-5-3-10-5-15 0-2-1-4-2-6v-1c-3-8-7-16-12-24l1-9 1-2z" class="D"></path><path d="M612 647l1 1c2 0 5-1 7 1 2 1 4 3 4 4v2 1 1c-1-3-2-5-4-7h-4-2c-2 0-2 0-3-1l1-2z" class="B"></path><path d="M611 649c1 1 1 1 3 1h2 4c2 2 3 4 4 7l6 22c-1 0-2 1-3 1 1 1 2 1 3 1v12c0 3 1 7 0 10l-1 1c-1-5-3-10-5-15 0-2-1-4-2-6v-1c-3-8-7-16-12-24l1-9zm-46 79c1 2 2 5 3 7l1-1c0-1-1-1-1-2-1-2-1-4-1-6l1-1c1 1 3 3 4 3 1 1 4 3 4 5v3l1 8-1 9c0 1 0 2-1 3 1 4 0 7 0 10-6-2-11-4-17-4h0c6 1 11 3 17 5-1 3-3 5-3 8-9 6-18 12-25 20l-9 12 27-79z" class="E"></path><path d="M575 756c-3-2-14-6-16-9l1-1c6-1 11 4 16 7h0c0 1 0 2-1 3z" class="B"></path><path d="M677 693l2 1c-1 2-2 5-3 7l-3 9c-3 4-7 7-10 11-4 4-5 8-7 13 0 2 0 3-1 5l-2 4c-2 2-4 5-8 6h-3l-2 1c-4 2-8 4-11 5-1-2 0-9-1-11h-2c3-7 3-15 10-19 2-1 4-1 6 0h1l-1-1v-1c2 0 5-1 7-2l-13 2c4-3 8-7 12-10 3-1 6-3 9-5s5-5 9-7c4-3 7-4 11-8z" class="C"></path><path d="M656 734c0 2 0 3-1 5l-2 4c-2 2-4 5-8 6h-3c5-4 10-9 14-15z" class="F"></path><path d="M636 725c2-1 4-1 6 0-1 0-1 1-2 1 1 3 3 8 1 11-1 2-3 4-5 5l-5 4c0 2 1 5-1 6 0-2 1-4 0-5-1 0-1 4-1 5v2c1 0 1-1 2-1h1l6-3h2c-4 2-8 4-11 5-1-2 0-9-1-11h-2c3-7 3-15 10-19z" class="I"></path><path d="M636 725c2-1 4-1 6 0-1 0-1 1-2 1v1 2c0 2 1 4 0 6-1 3-6 7-9 8 1-5 7-13 5-18h0z" class="H"></path><defs><linearGradient id="R" x1="424.75" y1="814.859" x2="364.358" y2="801.165" xlink:href="#B"><stop offset="0" stop-color="#b8b7b6"></stop><stop offset="1" stop-color="#eae9e9"></stop></linearGradient></defs><path fill="url(#R)" d="M363 829h-6c2-7 6-11 11-16 3-3 7-4 11-6 4-3 9-7 14-10 1 0 3-1 4-1 5-1 10-1 15-3 5-1 9-4 14-5h8c-3 3-6 6-9 10-10 10-19 20-26 33-4-2-9-1-13-1l-20-1h-3z"></path><path d="M387 810h1 1c-2 2-4 4-5 6-3 4-4 7-8 10l3-4v-1c2-4 5-7 8-11z" class="B"></path><path d="M363 829l-1-1h2v-1c1-3 4-6 6-7 1-1 1-1 2-1l2-2h0l-1 2-7 10h-3z" class="C"></path><path d="M379 821h0c-1-1 0-3 1-4 1-2 3-5 4-7 1-1 3-3 3-4 1-1 1-2 3-3v1c1-1 3-3 4-3-1 1-2 2-3 4-2 1-3 3-4 5-3 4-6 7-8 11z" class="G"></path><path d="M397 804h0l-10 16c-1 2-2 4-4 6-1 0-1-1-1-1 2-5 6-10 9-14 1-3 4-5 6-7zm175-97c0-3 2-6 2-8l6-17c11 19 14 40 19 60 0 1 1 2 1 3-1 1-1 3-2 4l-12 15c-5 5-9 8-14 11 0-3 2-5 3-8-6-2-11-4-17-5h0c6 0 11 2 17 4 0-3 1-6 0-10 1-1 1-2 1-3l1-9-1-8v-3c0-2-3-4-4-5-1 0-3-2-4-3l-1 1c0 2 0 4 1 6 0 1 1 1 1 2l-1 1c-1-2-2-5-3-7 0-2 1-4 2-6l5-15z" class="I"></path><path d="M574 713c1 2 1 3 2 5h-1c-1 0-1-1-2-1 0 0 0-1-1-1 1-1 1-2 2-2v-1zm11 10c1 0 3 2 5 3 2 2 3 6 3 9l-2-1c-2 0-3 0-4-1 0-1 0-1-1-2-1 0-1-1-2-1 0-2 1-4 1-6v-1z" class="G"></path><path d="M572 707c1 1 1 4 2 6v1c-1 0-1 1-2 2 1 0 1 1 1 1 1 4 1 9 3 13h0l-4-2c-1 0-3-2-4-3l-1 1c0 2 0 4 1 6 0 1 1 1 1 2l-1 1c-1-2-2-5-3-7 0-2 1-4 2-6l5-15z" class="H"></path><path d="M586 764l-2-2 1-2c1-3 1-6 1-9 0-6 0-12-2-18 3 1 7 2 10 4 2 4 3 8 4 12l-12 15z" class="G"></path><path d="M409 313l-17-47c-3-12-6-25-8-37v-7h2c4 4 6 10 9 14 3 3 5 7 8 10 2 2 5 5 7 8 3 3 4 7 7 11l9 12c4 6 9 17 7 24 0 3-1 5-3 7l-3 3c-2 2-3 6-4 9l-1-1h0v1h-1-1c-2-1-4-3-5-4-3 0-3-3-6-3zm-25 420h1c3-3 2-9 7-11 2 1 4 9 6 12v-1c3 2 5 4 7 7h0v-2c1 0 3 2 4 3 1 2 3 3 5 4h0c3 3 7 5 8 9-1 2-2 5-2 8-5 1-9 3-12 5h-1c-3 2-7 4-10 6-9 6-19 9-29 11-1 0-3 0-4-1-2-2-2-3-2-5 0-10 0-21 7-29 2-3 4-4 6-6 0-3 7-6 9-9v-1z" class="E"></path><path d="M704 749l3-1c-1 2-2 3-4 5 0 0-1 1-1 2 1 2 1 9 1 11v1 1l-1 1c2 3 1 10 0 14h0c-1 1-1 2-2 3h-1c-5 0-9 3-15 3-5-1-10-1-15-2l-8-2c-1 1-4 0-5 0-12-1-26-5-37-3h-4c1-2 4-4 6-5 1 0 15-8 17-10l21-10c8-4 17-6 26-7h8c3 0 7-1 11-1z" class="G"></path><path d="M659 757c8-4 17-6 26-7l1 1-6 3c-6 2-14 5-20 4l-1-1z" class="B"></path><path d="M702 755c1 2 1 9 1 11v1c-5 1-14 9-17 7l-1-1c6-5 12-12 17-18z" class="C"></path><path d="M703 767v1l-1 1c2 3 1 10 0 14h0c-1 1-1 2-2 3h-1c-5 0-9 3-15 3-5-1-10-1-15-2l-8-2h3c1 0 1-1 1-1 1-1 1-1 2-1l-1 1v1c3-2 6-4 8-6 4-1 8-4 11-6l1 1c3 2 12-6 17-7z" class="E"></path><path d="M703 767v1l-1 1c-4 3-8 6-13 9-5 2-10 2-15 5h-3l-4 2 1 1 1 1-8-2h3c1 0 1-1 1-1 1-1 1-1 2-1l-1 1v1c3-2 6-4 8-6 4-1 8-4 11-6l1 1c3 2 12-6 17-7z" class="B"></path><path d="M654 566v-1c1 0 1-1 1-2v-3l1-1s0-1 1-2c2 1 4 3 5 5 1 3 2 5 2 9 1 3 0 7 0 10s1 5 0 7l-1 3c3 5 4 10 6 16 1 5 1 10 2 16 1 0 1 2 2 3v8l-2-2c0 10 1 19 6 27l-3 9c-4 3-8 4-12 6-7 3-13 7-20 8l-3-3c0-2-2-7-1-9 0-6 5-12 7-17s3-10 4-15c0-4 1-8 1-13 0-2 0-5 1-8h0v-1l-1 1h-1v-5c0-3 0-6-1-10 0-2-1-4-1-6l3-9c1-7 4-14 4-21z" class="E"></path><path d="M662 587l1 4c3 5 4 10 6 16 1 5 1 10 2 16 1 0 1 2 2 3v8l-2-2c0-4-1-7-2-11 0-4 0-8-1-12-1-5-3-11-5-17l-1-5z" class="F"></path><path d="M663 592l-2 2v2 1c-2 4-4 9-6 12h-1v-4c2-8 5-15 6-22h0l1 2c1 1 1 0 1 1v1l1 5zm-289-26l-1-2h1c1 1 2 3 3 4 0-1-1-2-1-3l-1-1c1-1 2 1 3 0 5 3 9 8 14 11 1 1 5 3 6 5 0 0 1 2 1 3l2 6c4 11 9 22 12 33 1 3 3 5 3 8 2 6 1 16-2 22 0 2-1 3-3 3-3 1-5 1-8 0l-1 1h1v1c-1-1-2-1-3-1v1c-5-3-6-7-9-11-1-1-1-2-3-2v-1h0c-1 0-2 0-3-1h-2v-1h-2c-1 0-1 0-2-1h0l-5-2h0c0-1 0-2-1-3v-1l-1-10h0c0-2-1-3-2-4h0v-1h0 1v-1-11c0-5-1-9 1-14h1c1-1 1-1 1-3v-10c0-4 0-9-2-14h2z" class="H"></path><path d="M390 641l-2-4h1l1 2c1-1 0-3 0-5 0-3-1-10 1-13 1-1 3-2 3-3l1 1c-1 1-2 2-3 4 0 0-1 1-1 2v4c0 4 0 9 2 14s5 9 10 12h0l-1 1h1v1c-1-1-2-1-3-1v1c-5-3-6-7-9-11-1-1-1-2-3-2v-1h0 3c0-1-1-1-1-2z" class="F"></path><path d="M383 590c1 0 3 0 4 1l8 13h0c-1 2 0 4-1 6l-1 1h-1v-1-2c-1-1-1-1-1-2s0-2-1-2c0-1-1-1-2-1-1 2 1 5 1 7v1c1 2 1 10 0 12h0c-1 2-1 5-1 8 0 1 0 1-1 2 0-1-1-2-1-3-1-1-1-1-1-2-2-12-6-23-8-36 1-1 2-1 2-2 1 0 2 1 3 0h1z" class="E"></path><path d="M374 580v1c1 1 1 2 1 4 1 1 3 1 4 1 2 1 4 1 5 0 1 1 3 3 3 5-1-1-3-1-4-1h-1c-1 1-2 0-3 0 0 1-1 1-2 2 2 13 6 24 8 36-3-3-3-9-5-13-1-4-1-8-2-11l-3-14c-2 8 1 16 1 24v1c1 9 5 19 11 25l2 1h1c0 1 1 1 1 2h-3 0 0c-1 0-2 0-3-1h-2v-1h-2c-1 0-1 0-2-1h0l-5-2h0c0-1 0-2-1-3v-1l-1-10h0c0-2-1-3-2-4h0v-1h0 1v-1-11c0-5-1-9 1-14h1c1-1 1-1 1-3v-10z" class="D"></path><path d="M377 592v-1c-1-1-1-2-1-3h1l2 2h4-1c-1 1-2 0-3 0 0 1-1 1-2 2z" class="C"></path><path d="M387 640l-1 1c0-1-1-1-2-2l-2-4c-1-2-2-3-3-5l-3-6c-1-3-1-6 0-9 1 9 5 19 11 25z" class="G"></path><path d="M374 566l-1-2h1c1 1 2 3 3 4 0-1-1-2-1-3l-1-1c1-1 2 1 3 0 5 3 9 8 14 11 1 1 5 3 6 5 0 0 1 2 1 3l2 6c4 11 9 22 12 33l-3-3c0-1 0-2-1-3h-1l-1 1c-1 0-3 1-5 0 1-1 2-1 4-1v-1c-3 0-5 2-8 1 2-1 5-2 7-3-4-3-7-5-10-9l-8-13c0-2-2-4-3-5-1 1-3 1-5 0-1 0-3 0-4-1 0-2 0-3-1-4v-1c0-4 0-9-2-14h2z" class="I"></path><path d="M372 566h2c4 6 7 14 10 20-1 1-3 1-5 0-1 0-3 0-4-1 0-2 0-3-1-4v-1c0-4 0-9-2-14zm5 2c0-1-1-2-1-3l-1-1c1-1 2 1 3 0 5 3 9 8 14 11h0c0 4 2 7 4 10l5 11 6 14c-14-10-20-28-30-42z" class="E"></path><defs><linearGradient id="S" x1="621.603" y1="671.969" x2="574.484" y2="706.468" xlink:href="#B"><stop offset="0" stop-color="#c2c1c0"></stop><stop offset="1" stop-color="#e8e8e7"></stop></linearGradient></defs><path fill="url(#S)" d="M603 613c0-2 0-2 2-4l1 1c0 2 0 3 1 4 1 2 2 5 4 7l-2-1v2c1 3 1 7 2 10 0 5 1 10 1 15l-1 2-1 9c5 8 9 16 12 24v1c1 2 2 4 2 6 2 5 4 10 5 15l1 2c-1 1-2 3-3 4v-1c-1-1-2-1-4-1-3 2-4 4-6 7l-2 3c-1 2-2 3-3 5 0 1 0 1-1 1-1 1-2 3-1 5l1 1-11 15c0-1-1-2-1-3-5-20-8-41-19-60l6-18 1-1 4-13c0-1 1-3 1-4l4-12 7-21z"></path><path d="M608 668c3 5 6 11 8 16l-6 1c-1-3 0-6-1-9 0-3 0-6-1-8zm-9-7v-2l1-1c4 6 7 13 6 20l-1 4c-3-4-5-16-6-21zm-8-11c2 2 5 4 7 7v4l-11 2 4-13z" class="E"></path><path d="M611 724c3-12 0-26-1-38l6-1c2 8 6 14 9 22l-2 1c-3 2-4 4-6 7l-2 3c-1 2-2 3-3 5 0 1 0 1-1 1z" class="C"></path><path d="M603 613c0-2 0-2 2-4l1 1c0 2 0 3 1 4 1 2 2 5 4 7l-2-1v2c1 3 1 7 2 10 0 5 1 10 1 15l-1 2-1 9c-1-1-2-3-3-4l-2-4c-4-7-2-16-5-23v4c1 5 1 10 3 15-4-4-5-7-7-12l7-21z" class="E"></path><path d="M603 613c0-2 0-2 2-4l1 1c0 2 0 3 1 4 1 2 2 5 4 7l-2-1v2c1 3 1 7 2 10 0 5 1 10 1 15l-1 2-1 9c-1-1-2-3-3-4l1-1c0-5 1-9 0-14h0c-1-4-2-8-4-11-1-1-1-1-1-2h1s1 1 2 1v-7c-1-2-1-4-1-6l-2-1z" class="I"></path><path d="M607 625h1c1 2 1 5 2 7h-2 0c-2-2-1-5-1-7z" class="D"></path><path d="M587 663l11-2h1c1 5 3 17 6 21 1 1 1 1 1 2-2 5 0 9-2 13l-4 24v15 6h-1c-5-20-8-41-19-60l6-18 1-1z" class="E"></path><path d="M603 687c-6-3-16-5-20-11l20 8 1-1h0c1 1 1 1 1 3l-2 1z" class="D"></path><path d="M587 663l11-2h1c1 5 3 17 6 21 1 1 1 1 1 2-2 5 0 9-2 13-2-1-5-2-8-4h0l8 3c0-2 1-7-1-9l2-1c0-2 0-2-1-3h0c-5-4-6-14-7-20h-1c-3 1-6 1-9 1h-1l1-1z" class="I"></path><path d="M687 442c5-2 11-2 16 0 1 1 4 3 5 4v2c0 3-1 6-1 8 0 1 0 2-1 3l-4 17v2 2c-1 3 1 10-2 13h1 0l1 1c-1 3-2 7-3 10 0 2 0 5-1 7l-3 9c-1 5-2 10-1 15 0 4 1 9 3 13 1 3 3 6 4 10 1 2 0 5 0 8-7 7-10 14-11 24l-8-37v-1c2-2 1-5 1-7 0-3 1-5 1-7 1-3 1-6 1-9 3-6 7-11 9-18 1-4 1-13 3-15l-1-1c1-3 2-8 1-11-1 3-1 7-2 10-1 8-3 17-6 24-1 1-2 2-2 3-2 2-3 4-5 6-2 3-4 7-7 9-3 1-4 0-6-1s-3-2-4-3c0-5-1-10-1-14 0-13 2-25 3-37 6-6 12-9 16-17h0c2-4 1-9 1-13h0l3-9zm-58 90l4-14c5 4 11 8 17 9h0c0 4 2 8 4 12s2 8 2 12c0 2 0 5-1 7v1c0 1-1 1-1 2v2s-1 2 0 3h0c0 7-3 14-4 21l-3 9c0 2 1 4 1 6 1 4 1 7 1 10h-1l-1 2c1 7 1 14 0 21-2-5-5-8-9-11-2-2-5-4-6-6l-1-1v2c-1 0-3-1-5-2-7-1-14-6-22-8l24-75 1-2z" class="E"></path><path d="M654 566h0c0 7-3 14-4 21l-3 9c0 2 1 4 1 6 1 4 1 7 1 10h-1l-1 2-2-18c0-1-2-4-1-6l1 6c2-3 2-6 3-9 2-7 5-14 6-21z" class="J"></path><path d="M628 534l1-2 3 8c1 3 3 6 5 10 4 7 10 13 13 20 1 1 1 3 1 4h-1c-6-8-13-17-17-27-2-4-2-10-5-13zM407 673l4-3c5-2 8 0 12 2 5 1 9 2 13 4 3 6 5 12 7 18l12 32 3 9c0 1 1 3 1 4-1 2-1 5-1 7 0 4-1 9-2 13-11-3-23-2-33 2l-3 1c0-3 1-6 2-8-1-4-5-6-8-9h0c-2-1-4-2-5-4h0l-3-3-6-6v-5c0-2 0-3-1-4l-1-7c-1-3-1-5-1-8-1-2-1-4-1-6v-3-1l-1-3c3-1 5-2 7-3h2l1-1c1 0 1 0 2-1 1-2 3-3 4-3 0-1-1-2-1-3l-3-11z" class="B"></path><path d="M422 754l3-4c-1 3-2 7-2 11l-3 1c0-3 1-6 2-8z" class="I"></path><g class="E"><path d="M407 673l4-3c5-2 8 0 12 2 6 12 5 27 5 40 1 4 0 8 1 12l-1 2-1 1c-2-1-2-2-2-4-2-13-8-23-13-35l1-2h-1l-1 1c0-1-1-2-1-3l-3-11z"></path><path d="M411 687l1-1h1l-1 2c5 12 11 22 13 35 0 2 0 3 2 4l1-1 1-2c-1 5-1 11-2 16l-1 6c-1 1-1 3-1 4l-3 4c-1-4-5-6-8-9h0c-2-1-4-2-5-4h0l-3-3-6-6v-5c0-2 0-3-1-4l-1-7c-1-3-1-5-1-8-1-2-1-4-1-6v-3-1l-1-3c3-1 5-2 7-3h2l1-1c1 0 1 0 2-1 1-2 3-3 4-3z"></path></g><path d="M406 738c2 0 3 0 4 1l8 4 8 3c-1 1-1 3-1 4l-3 4c-1-4-5-6-8-9h0c-2-1-4-2-5-4h0l-3-3z" class="I"></path><path d="M418 743l8 3c-1 1-1 3-1 4l-3 4c-1-4-5-6-8-9 2 1 3 1 4 2s2 2 3 2 2-1 2-1l1-1c-2-2-4-3-7-4h1z" class="G"></path><path d="M411 687l1-1h1l-1 2c5 12 11 22 13 35 0 2 0 3 2 4l1-1 1-2c-1 5-1 11-2 16-1-2-1-4-2-6-3-6-11-9-15-13-4-3-6-6-8-10-1-2-3-4-4-6v-1c0-1-1-3-1-4v-1c2 2 3 5 5 8 6 8 12 13 21 18l-6-21c-3-5-5-10-7-15l-3 1c1-2 3-3 4-3z" class="I"></path></svg>