<svg xmlns="http://www.w3.org/2000/svg" xmlns:v="https://vecta.io/nano" viewBox="112 128 819 796"><!--oldViewBox="0 0 1024 1024"--><style>.B{fill:#d7d7d5}.C{fill:#1b1a19}.D{fill:#1a1a19}.E{fill:#e5e5e2}.F{fill:#cfcfcc}.G{fill:#060606}.H{fill:#ededea}.I{fill:#323232}</style><path d="M819 238h0c2 2 3 5 4 7 2 1 5 1 7 1l-5 4c0 2 0 6 1 7 0 1 1 1 1 2-4 1-9 2-13 4-8 5-14 13-16 22h-1c-1 5-1 9 0 14 1 10 8 19 16 25 13 9 29 10 45 8 20-4 36-15 48-32-1 4-4 8-7 11-11 15-28 23-46 25-6 2-14 1-20 1-14-2-27-10-36-21-6-8-9-21-7-31s9-19 17-25c3-2 7-3 10-5-1-1-1-2-2-3h0v-1l-1 1c1 1 1 2 1 3h0l-3-3-1-3h0c-3-1-8 2-11 3-8 5-14 14-17 23 0 1 0 0 1 1l3 1v1h-2c-1 2 0 3 0 5-2-1-3-2-4-3h-1v3l-2-1c-1-2-2-3-4-4v-1c0-1 3 0 4-1l1-1h2s3-7 4-8c4-8 11-15 19-18 4-1 8-2 11-5 1 0 1-1 2-1h0c0-2 1-4 2-5zm-617-2l2 7c3 3 6 4 10 5 11 3 19 10 24 20 1 2 2 5 4 8h3c2 0 3 0 4 1-1 1-2 1-3 2l-1-1c-1 1 1 2 1 4h-1l-2-1c-1 1-1 1 0 2v10c-1 15-6 25-17 35h0c4-4 8-9 10-14 6-10 6-21 6-32l-4 1c0-1 1-2 0-4l-2-1v-1c1 0 2 0 3-1l-1-4c-2-8-10-16-17-20-3-2-8-4-10-3-1 4-3 5-6 7 7 2 13 5 18 10 6 7 10 15 10 25 0 13-6 23-15 32-3 3-6 5-10 7-16 9-37 9-54 3-16-5-29-15-37-30v-1c10 14 23 23 39 28 15 5 35 4 49-3 9-6 17-15 20-25 2-9 1-17-3-25-6-10-15-15-26-18v-1l1-1-1-1 1-1c0-4-2-5-4-8 1-1 4-1 6-2l3-9z"></path><path d="M469 771h-1c-2 1-3 1-5 1-3-1-5-4-6-7l-2-3-4 17-36-1-9 16 5-21h19 6v-13c0-1 0-3 1-4 0-3 4-6 5-8l10-12 2-3c0-1-49-116-54-127l-36-84-55-128-33-78c-6-13-11-26-18-39-7-14-18-28-29-38-5-5-17-6-25-6-9 1-18 4-25 11-3 3-6 7-6 12 0 1 1 1 1 2 2 0 4-1 6-2 4-1 13-3 16 0-8 3-17 3-22 12-2 4-1 10 1 14 1 3 3 7 7 8 3 2 6 2 9 0 2-1 3-3 4-4l-1-1v1c-2 1-4 2-7 2-2 0-4-2-5-3-2-3-3-6-2-9 0-3 2-5 4-6 4-3 9-3 14-1 6 1 12 6 15 11 3 6 4 13 2 19-3 9-9 15-17 19-12 6-29 5-42 1-14-5-27-17-33-30-8-16-7-36-1-52 6-17 19-32 36-40 2-1 4-1 5-3-4-3-9-7-13-11 15 8 31 14 48 16 8 2 15 2 22 2h80 49 29c5 0 10 0 14-2 7-2 12-6 18-10H250h-43c-12 0-24 0-35-2s-22-6-30-14c-3-3-7-7-9-12 11 9 22 15 36 17 7 1 14 1 21 1h24 75 85c15 0 32 1 48 0 3-1 6-1 9-2 2 0 4-1 5-1-1 2-3 3-4 5h0c6 1 12 3 19 5 23 8 46 22 61 42 20-26 49-41 80-47l-5-6c6 2 11 3 16 4 16 1 32 0 47 0h89 71c13 0 27 1 40 0 9-1 18-4 26-8 5-3 10-6 14-10-8 14-16 21-31 25s-32 3-48 3h-45-151c6 5 12 10 21 11 10 2 21 1 31 2l43-1h65c16 0 33 1 49-1 12-2 25-5 36-10 4-2 9-4 13-6-4 4-9 7-14 10 19 10 35 23 42 43 6 17 6 36-2 52-7 14-19 25-34 30-13 4-29 5-41-2-8-3-14-10-16-18-2-6-2-12 1-18s9-11 16-13c4-1 9-1 13 1 2 1 4 3 5 6 0 3 0 7-2 9-1 2-3 3-6 4-3 0-5 0-7-2l-1-1c2 3 3 6 7 6s7 0 10-3 5-9 5-14c1-4-1-8-4-10-5-6-11-5-17-8 0-1 1-1 2-1 5-2 14 2 19 2-1-6-2-11-8-15-9-8-20-10-32-9-4 1-9 1-12 3-2 0-4 3-6 4l-11 14c-18 21-28 49-39 75l-29 67-92 216-30 73-21 48 9 12c3 3 8 7 9 11 1 5 0 12 0 17h25l4 21c-2-4-5-13-9-16l-24 1c-3 0-8 0-11-1l-4-16c-2 4-3 8-7 10-2 1-5 1-7 0-2 3-3 7-4 10l-8 18-28 68v1c5 3 8 7 9 13 1 5-1 11-4 15s-7 6-12 6c-5 1-10 0-15-4-3-3-6-8-6-13s1-11 5-15c4-3 9-6 14-5h4l3 1-31-71-5-13c-1-1-2-4-2-5h-1l-1-1v-1-1c-1-1-2-3-3-4h0z"></path><path d="M640 261h0c2 0 2 0 3-1l1 1c1 1 1 1 2 1 0 2 1 1 0 2-2 0-4 1-6 0v-3z" class="F"></path><path d="M469 245v-1c1-1 2-3 3-4 2 1 2 1 3 2s1 1 0 2c0 1-1 2-2 2 0-1-1-1-2-2h-1l-1 1z" class="B"></path><path d="M656 275c2 1 4 3 5 5 0 2 0 3-1 4-1-3-5-5-5-7l1-2z" class="E"></path><path d="M631 210c6 3 9 7 14 11l-11 1h-1l1-1c1-1 1-2 2-3v-1c0-1 0-1 1-2-1-1-2-1-3-2-2-1-2-1-3-3z" class="B"></path><path d="M466 499h1c1 2 1 3 0 5h0-1c-3 4 0 16-1 21-1 3 0 5 0 7 1 4 1 8 0 11-1-5-2-12-2-16v-1c0-7 0-14 1-20 1-2 2-4 2-7h0zm153-232v-2l4 1 3-3 1 2c1 1 2 1 3 2h1c1 1 2 1 3 2h1c-1 2-2 3-3 4-2 0-6 0-8-1v-3c-1-2-3 0-5-2z" class="F"></path><path d="M375 290c1 1 2 2 1 4h0c-3 0-5 2-7 4l2 2v-1l1 1c0 1 1 1 0 2v2l1 1v1l-1-1-1-2c0 2 0 4 1 6 1 1 1 2 2 4-2 1-3 1-5 2-2-9-4-17-5-26 2-2 5-6 7-6l2 2c1 1 2 3 2 5z" class="E"></path><path d="M373 285c1 1 2 3 2 5-1-1-3-1-4-2 0-2 0-2 2-3z" class="B"></path><path d="M652 283l1-1 7 6c-1 8-2 18-6 25-1 0-3 2-5 2-1-5 3-7 4-10 0-2-2-2-2-4 1-1 2-1 3-2v-2c0-1-1-1-2-2-2 0-3-2-4-4h-1c-1-2 3-6 4-8h1z" class="E"></path><path d="M566 741c3 3 6 7 9 11 2 3 6 6 7 10 1 2 1 4 0 6h-4c-4-2-6-3-9-7l-1-2c-1 2-1 4-3 5-3 3-5 5-10 5h0l11-28z" class="B"></path><path d="M469 457v30c-2-3-3-6-6-8-2 3-3 8-5 11l-9 21c0 1 0 1-1 2-2-3-4-9-5-12 5-6 9-13 13-19 4-8 9-16 13-25zm34 417c2-1 4 0 6 0 2 2 5 4 6 7s1 6-1 9c-1 3-4 5-7 6-2 0-5 0-7-1s-5-4-6-7c-1-2-1-6 1-8 1-4 4-5 8-6z" class="F"></path><path d="M469 771c-1-1-1-1-2-1-3 0-5-2-7-4l-5-6h0c-2 4-4 6-7 8h-6c-1-1-1-2-1-3 0-5 4-9 7-13l9-11 11 23c2 5 4 10 6 14h-1l-1-1v-1-1c-1-1-2-3-3-4h0z" class="B"></path><path d="M642 232l9-2 4 6c-10 2-21 5-27 14-2 3-3 8-4 12-1 1-1 1-3 1-2-1-3-3-4-5-1-5 0-10 3-14l3-3v-3c2-2 5-3 7-4 3-1 8-1 10-3l2 1z" class="E"></path><path d="M640 231l2 1c-6 2-13 5-19 9v-3c2-2 5-3 7-4 3-1 8-1 10-3z" class="D"></path><path d="M406 248c1 4 2 9 0 13-1 1-2 1-3 2-1-1-3-1-3-2-1-1-1-3-1-5-1-2-3-5-4-8-6-8-16-11-26-12l4-6 9 2c1-1 1-1 2-1s2 1 2 1c2 2 8 2 10 3 3 1 6 3 8 6 2 1 3 3 4 5l-2 2z" class="B"></path><path d="M382 232c1-1 1-1 2-1s2 1 2 1c2 2 8 2 10 3 3 1 6 3 8 6 2 1 3 3 4 5l-2 2c-1-2-2-4-3-5-5-6-14-8-21-11z" class="C"></path><path d="M403 298c1 0 2-1 3-1h0c0-1 1-2 1-3h1c1 2 2 1 4 2v-1c0-2-2-4-3-6l-8 5c-3-4-5-8-8-11v-1h0 0c-2-1-5-3-6-5 8-2 18-4 25 1 4 2 5 5 6 8 1 5 0 10-3 14l-2 3h-2l-2 2h-1c-1-1-3-2-4-4l-1-3z" class="E"></path><path d="M409 296v1c1 0 1 2 1 3h-2c0-2 0-2 1-4z" class="H"></path><path d="M401 280h2 1c3 1 5 2 7 5l-1 1-4-1c-3 0-3 0-5-2l-1-2c-1 0-2 1-4 0 2-1 3-1 5-1z" class="B"></path><path d="M631 267c-2-2-4-5-4-7-1-3 2-7 3-9 6-8 16-12 25-13 1 1 1 2 2 4h-1l-2 1h2s1 1 2 1c0 1 1 2 1 4-2 1-5 4-8 4-2-1-8-1-9 0v2c2 1 3 3 6 4h0v1l-1 1c-1 0-2 0-2-2h-1c-2 0-2 1-3 2h-1c-2 0-3-2-5-4 0 2 0 1 1 2 0 2 2 3 3 3h1v3c2 1 4 0 6 0-2 2-3 5-6 5h0c-2 0-3-1-5-1v1h-1c-1-1-2-1-3-2z" class="E"></path><path d="M466 499c-1 2-2 4-3 8 0 4 0 9-1 14h-1 0l4 31c-3-5-5-11-6-17 0-4-1-9-2-13 0 4 1 9 1 14-3-6-6-13-9-19l8-16 5-14c1-2 1-5 2-6 2 2 4 6 5 9v16l-1 53h-1c-2-5 0-12 0-18v-37h0c1-2 1-3 0-5h-1z" class="H"></path><path d="M832 210c10 3 23 9 30 17v1c6 4 9 12 11 18 4 12 3 25-3 35-4 7-10 13-18 16-5 1-11 1-16-2h0 0 1c3 1 6 1 9 1 5 0 8-2 11-5 6-7 6-15 5-23 0-4-2-8-4-12-6-13-18-22-32-27-4-1-9-2-13-4 2-1 3-3 5-4 9 1 18 5 26 8 3 2 6 4 10 6l2-1c3-2 5-4 7-6-8-1-18 0-24-7h0c-4 2-13-2-17-3l10-8z" class="B"></path><path d="M859 238h2c1 1 2 2 2 3-1 1-2 2-3 2h-2c-1-1-2-2-2-3 1-1 1-2 3-2zm6 9c2 0 2 0 4 1 1 1 1 1 2 3-1 2-1 2-3 3-1 1-2 0-3 0-1-1-1-1-2-3 1-2 1-3 2-4z"></path><path d="M188 211c4 0 10 5 14 8-6 0-10 2-16 3l-1-1c-2-1-5 4-7 5h-1c-5 1-11 2-17 2 3 3 5 5 8 7 3-2 6-4 9-5 8-4 18-7 26-8 3-1 5 1 7 3-7 2-15 4-22 8-14 7-22 16-27 32-2 6-2 12 0 18 2 5 5 10 9 12 5 2 11 2 16 0h1s-1 0-1 1c-6 2-13 2-19 0-8-3-14-12-17-20-4-11-4-25 1-36 8-16 21-23 37-29z" class="B"></path><path d="M161 238h2c1 0 2 1 3 2-1 1-1 1-2 3h-2c-2 0-2-1-3-1 0-2 1-3 2-4zm-7 9h3c1 1 1 2 2 4-1 2-1 2-2 3-2 1-3 0-4 0-1-1-2-2-2-3 1-2 2-3 3-4z"></path><path d="M853 199h1c5 2 10 4 14 8 13 9 23 24 25 40 3 16 1 33-9 47-8 9-19 17-31 18-10 2-22 1-30-6-5-4-8-8-8-15 0-3 2-6 3-9 0 4 0 8 1 11 1 5 5 8 9 10 8 4 19 4 28 1 11-3 19-12 24-22 6-13 6-28 1-41-4-10-10-20-19-27-6-4-12-7-18-10l9-5zm-685 0c3 0 8 3 11 5-10 4-19 9-26 17-11 12-16 27-15 43 1 13 7 25 17 34 7 6 17 9 27 8 6 0 14-3 19-8 4-5 4-9 3-15 1 2 2 3 3 5 0 4 0 6-1 9-2 7-8 11-14 13-10 4-24 3-34-1-12-5-21-16-26-27-6-16-5-35 1-50 7-15 20-27 35-33z" class="B"></path><path d="M636 217h-1 0c-5-1-10 1-15 2h-15c-2 0-6 1-8 0-1 0-2-1-3-1-3 3-12 7-17 8-1 0-2-1-3-1-7-1-12 15-18 19v-2-2c-1-1-3-1-4-1-2 0-3 1-4 2-2 2-1 5-1 7v1l-8 14c-1 2-2 5-4 7-3-9-7-18-12-27 16-18 36-32 60-39 10-3 20-4 30-5 3 1 6 3 9 5l9 6c1 2 1 2 3 3 1 1 2 1 3 2-1 1-1 1-1 2zm-250 15c17 3 37 2 48 17 7 9 9 24 7 35 0 5-2 10-4 14-1 1-3 5-3 6l-3 5-2 4-5-5h0v-1c-2-1-3-2-5-2-1 0-2 0-3-1 2-3 3-6 4-9 2-4 1-10-1-15-4-6-11-7-18-9-3 2-7 2-10 2 0-1 0-4-1-5l-9 2c-2-3-4-7-4-9v-1h1c2-1 2-3 3-4l1-2c1-1 1-1 0-2-2-1-8-1-11-1-1 0-2 1-3 0-1 0-2-1-3-2 0-2 1-3 2-4h2c0-1-2-1-2-2 1-2 1-3 2-4 6 0 12 2 17 4 5 4 10 10 11 16 0 3-1 5-3 7v1c3 0 2-3 5-4 1 1 1 2 2 4v-2c1-1 2-1 3-1 1-1 1-1 2 0l-1 3h1c3-7 4-13 2-21-1-2-2-4-4-5-2-3-5-5-8-6-2-1-8-1-10-3z" class="E"></path><path d="M425 300l3 1v1l-2 2-3-3 2-1z" class="F"></path><path d="M425 300l-1-1c0-2 0-3 1-4h3c1 2 1 2 1 4 0 1 0 1-1 2l-3-1z"></path><path d="M423 301l3 3h2c1 1 1 2 1 3l2 2-2 4-5-5h0v-1h2v-1c-1-1-1-1-3-2h0v-3z" class="B"></path><path d="M419 245h3c1 1 2 2 2 4 0 1-1 2-2 3-2 1-2 1-4 0-1-1-1-2-1-3 0-2 1-3 2-4z"></path><path d="M419 263c2 0 3-1 4 0s2 3 2 4l-2 4c-3 0-3 0-5-1-1-1-1-2-1-3 0-2 1-3 2-4z" class="D"></path><path d="M432 274h0c2 0 3 0 4 2 0 1 1 2 0 4 0 1-2 2-3 2h-1c-1 0-2-1-3-2s-1-2-1-4c1-1 2-2 4-2z"></path><path d="M640 231c-2 2-7 2-10 3-2 1-5 2-7 4-5 4-8 9-8 15-1 4 1 11 4 14 2 2 4 0 5 2v3c2 1 6 1 8 1 1-1 2-2 3-4v-1c2 0 3 1 5 1-1 0-2 1-2 1v2c0 1 1 1 2 2 0 2-3 6-5 7l-1-1h-1-2l1 2-6 8v1l-2 2c-2-1-4-1-6-2l-1 4-1-1h-1c-1 1-2 2-3 2l-2-1c-1 1-2 1-3 2h1l5 8-2 4c-1-1-1-2-2-3v-1-1c-2 0-4 0-5 1-2 1-4 2-7 4 0 1-1 3-2 3v2 2-1l-2-2c-3-2-5-8-6-11 1 0 1-1 2-1-2-5-4-10-5-15-3-11-2-26 5-36 11-17 33-15 51-19z" class="E"></path><path d="M597 309s1-2 0-3c0-1-1-1-1-2 2 0 5 0 8 1-2 1-4 2-7 4z" class="B"></path><path d="M596 295h2c1 0 1 1 2 3 0 1-1 1-2 2 0 1-1 1-2 1-1-1-1-1-2-3 1-1 1-2 2-3zm-7 6c2 3 5 7 6 11v2 2-1l-2-2c-3-2-5-8-6-11 1 0 1-1 2-1z" class="C"></path><path d="M603 245c1 0 2 0 3 1s2 2 2 3c-1 2-1 2-3 3h0c-2 1-3 0-4-1 0-1-1-2-1-3 1-2 2-2 3-3zm-11 29c2 0 2 0 4 1v4c-2 2-2 2-4 3h0c-2 0-2-1-3-2s-1-3 0-4c0-1 2-2 3-2zm11-11h0c1-1 2 0 3 1 2 1 2 2 2 4-1 2-2 2-3 3-2 0-3 0-4-1-2-1-1-3-1-4 1-2 1-2 3-3z"></path><defs><linearGradient id="A" gradientUnits="userSpaceOnUse" x1="619.093" y1="271.488" x2="623.965" y2="304.592"><stop offset="0"></stop><stop offset="1" stop-color="#292827"></stop></linearGradient></defs><path fill="url(#A)" d="M635 269v-1c2 0 3 1 5 1-1 0-2 1-2 1v2c0 1 1 1 2 2 0 2-3 6-5 7l-1-1h-1l-1-2h-1v-2c-7-1-15-2-21 3-3 2-4 7-5 11v2c1 2 1 4 2 5h1l5 8-2 4c-1-1-1-2-2-3v-1-1c-3-3-6-7-6-12-1-4 0-10 3-13 4-6 11-6 17-7 0-1 0-2 1-3v3c2 1 6 1 8 1 1-1 2-2 3-4z"></path><path d="M631 276c2 0 3 0 5 2l-2 2h-1l-1-2h-1v-2z" class="B"></path><path d="M605 292v-2c1-4 2-9 5-11 6-5 14-4 21-3v2h1l1 2h-2l1 2-6 8v1l-2 2c-2-1-4-1-6-2l-1 4-1-1h-1c-1 1-2 2-3 2l-2-1c-1 1-2 1-3 2-1-1-1-3-2-5z" class="E"></path><path d="M605 292h3c2 1 3 2 4 2v2l-2-1c-1 1-2 1-3 2-1-1-1-3-2-5z" class="B"></path><path d="M612 294l1-1v-1c0-2 0-3 1-4 1 0 2 2 3 3h1l-1 4-1-1h-1c-1 1-2 2-3 2v-2z" class="D"></path><path d="M626 290c-1-2 0-3 1-5-2-2-2-1-4-1v-4h1 1 1 5l1 2-6 8z" class="B"></path><path d="M511 260c7 12 13 29 14 43 0 4-1 8-1 13-1 5-1 11-1 17v95 129 36 22l-2-6-17-61c-1-4-1-8-1-12v-19-58-131c0-5 0-10-1-14-1-5-3-11-2-15 1-14 5-27 11-39zm36 130l-1 3c0 2 0 5 1 7 1 4 3 8 5 12 5 12 11 25 18 37 6 10 13 19 20 29l-9 23-24-39c-6-10-11-21-15-31-4-8-7-17-9-25 0-2-1-4-1-6 0-1 1-2 1-2 1-1 2 0 3 0 3 2 4 6 4 10l1 1h1 0c0-4 0-12-3-15-2 0-3 0-4 1-2 1-3 2-3 4-1 6 2 13 4 18 4 13 9 26 15 38 9 17 19 32 29 48-1 4-3 8-5 11-4-8-7-17-11-26-1-2-2-8-4-9l-1 1c0 3 3 7 4 10 4 9 7 18 12 27l-18 41c-1-3-1-6-2-10-1-3-2-9-1-12 1-2 2-4 2-7l-1-21v-6l1-2c0-1-1-3-1-4h-1l1 3c1 6 0 11-1 16 0 5 0 11 1 16 0 1-1 3-1 4-3 6-1 13-1 19 0 3-1 6-1 9-1 3 0 6-1 9-1 5-4 13-7 19-2-1-3-1-5 0-1 1-2 3-2 5 1 2 1 2 3 4l-13 31c-2-23-1-46-1-69V442v-84c0-18-1-37 2-54 2-14 7-27 13-40 3-5 8-12 9-18l-2-1c0-2 1-2 1-4h4c1 1 1 2 2 4-2 4-4 9-5 14l-4 12c0 3-1 6-3 8 0 0-1 1-1 2h1s1 0 1-1l1-1c2 6 6 17 11 21 2 2 5 2 8 4 1 1 2 2 4 3h0c-1-7-8-6-11-11-4-4-7-11-10-16 0-4 1-7 2-11 2-7 4-13 7-19 2-5 13-22 17-23h1c0 2-2 3-3 4-2 3-3 5-4 7 2-1 4-4 6-6 5-5 11-7 18-9 0-2 2-3 3-4h1v1l-1 2c1 0 4-1 6-1 6-1 13 0 20-1l15-3c0 1-2 5-3 5 0 1-3 1-4 1-9 2-18 2-27 4s-18 4-25 9-10 13-12 21-3 17-1 25 7 17 12 24l-1-2v-4c-3-5-6-11-8-16-3-9-2-22 1-31 3-8 8-14 15-17 14-7 29-9 44-11 7-1 13-2 20-2 2 2 3 4 5 6l-27 2c-13 1-26 3-35 14-8 9-10 22-9 34 0 8 4 16 7 23 1 3 3 9 6 11l2 2v1-2-2c1 0 2-2 2-3 3-2 5-3 7-4 1-1 3-1 5-1v1 1c1 1 1 2 2 3l2-4-5-8h-1c1-1 2-1 3-2l2 1c1 0 2-1 3-2h1l1 1 1-4c2 1 4 1 6 2l2-2v-1l6-8-1-2h2 1l1 1c2-1 5-5 5-7-1-1-2-1-2-2v-2h2c0 1 1 2 1 3 4-3 6-8 9-12s6-8 10-12c1 5 2 11 2 16v1c-2 1-3 2-4 4-2 3-2 5-5 7-1 0-2 1-3 2v1h0c0 1 1 2 2 3h-1c-1 2-5 6-4 8h1c-1 1-1 4-2 4h-1l-1 1c1 1 1 2 2 3v2h1c0-1 0-2 2-3l1 1c0 1-2 5-2 6l1 1s-1 0-1 1c-1 0 0 2 0 3 0 2-1 3-2 5 0 1 0 2 1 4v5c1 1 1 1 3 1 0 2-1 4-1 6l-4 11c-4 11-7 21-12 31l-11-13c2 0 5-1 8-2 5-2 9-9 12-13-4 3-8 7-12 10-4 2-7 3-12 3h0c-2-3-5-6-8-9l-7-7c-1 1-1 1-2 3 3 3 7 6 10 10a79.93 79.93 0 0 1 13 13c2 2 4 4 5 7l-2 3h0l5-3c-1 5-3 11-6 16-4-9-11-17-18-24l-12-12 2-7c-1 1-5 7-5 8 12 11 24 24 32 37l-7 17-3-2h-1c1 2 2 3 4 5l-6 15c-2 4-3 8-6 11 0 2-1 4-2 6-1 1-1 2-1 3l-8 19c-1-4-2-9-3-13-2-13-5-25-4-38 0-3 0-6 1-9s13-21 16-22c0 1 0 2 2 3 1-2 1-6 1-8-6 5-10 10-14 17-2 4-6 9-7 13-1 3-1 7-1 10-1 17 3 32 7 48 0 2 0 4-1 6h-1c-7-9-14-18-20-27-7-11-12-24-18-36-2-4-4-9-5-13-1-3-1-5-1-7v-1z" class="H"></path><path d="M634 280l1 1-1 3c-1-1-2-1-2-2l-1-2h2 1z" class="D"></path><path d="M573 387h2c-1 1 0 2-1 3h-2c-1 0-1-1-2-2l1-1h2z" class="F"></path><path d="M570 271h2l2 2c0 1 0 1-1 2-1 0-2 0-3-1v-3z"></path><path d="M597 375h0c1 1 1 1 1 2-1 3-3 5-5 8h-1l5-10zm2 68c1 1 3 1 5 2-1 1-1 2-1 3l-7-1v-1c0-2 1-2 3-3z" class="D"></path><path d="M622 342c2 0 4 0 5 1s1 1 0 2c-1 2-2 3-3 3h-3l-1-1v-1h2c0 1 1 0 1 0l2-1c-1-1-2-1-4-1l1-2zm-65-62h1c1 1 2 2 2 4l-2 2-2-1c-2-1-2-1-2-2 1-2 1-2 3-3z"></path><path d="M597 317l-1-3c3-3 6-5 10-7l-1 2c0 1-1 1-2 1-1 1-2 2-4 3v1l3 2-1 1c-1 0-1 1-2 0h-2z" class="B"></path><path d="M561 532v4c-1 4-1 9-3 13h-1v-1-3c0-3 0-6 2-9 1-1 2-2 2-4z"></path><path d="M632 331c-2 2-4 6-7 7h-1c0-2 1-3 2-4 2-3 2-3 1-6 2 0 2 0 3 1l2 2z" class="G"></path><path d="M632 282c0 1 1 1 2 2-3 3-5 7-7 10v-2l1-1-1-1-1 1v-1l6-8z" class="C"></path><path d="M620 300l2 1c-2 3-4 7-7 8h-4l2-4c1 1 1 1 2 1 0-1 1-2 1-2l1-1 1-1c0-1 1-1 2-2z" class="I"></path><path d="M616 327s0-1-1-1c1-2 1-2 2-3v-1h-1l2-1c0-2-1-1-2-3 0 0 0-1-1-2l2-2h1l1 1c1 1 3 1 4 1-2 2-6 8-7 11z" class="E"></path><path d="M532 364h3l2 4c-1 1-1 2-2 3-2 0-2 0-3-1s-2-2-2-3c1-2 1-2 2-3z"></path><path d="M549 426c1 0 1 0 2 1s2 2 2 4c-1 1-2 1-3 2-1 0-2 0-2-1-2-1-2-1-2-3 1-2 2-2 3-3z" class="G"></path><path d="M561 523v-2l1 1v5c-1 2-1 4-1 5 0 2-1 3-2 4-2 3-2 6-2 9-1-2-1-8 0-9 0-1 0-3 1-4 2-3 2-6 3-9z" class="F"></path><path d="M642 336l1-1 2 1c0 1-1 3-2 4 0 2-2 4-4 4-1 0-5 0-6-1 0-1 4-1 6-2s2-3 2-4l1-1zm-66 69l2-1c0 1 1 1 1 1 2 1 2 2 2 3 0 2-1 3-2 4-2 1-2 1-3 0s-2-1-2-3 1-3 2-4zm-11 13c3 2 4 6 7 8 1 2 2 3 4 4l-1 1-5 1c-3-3-4-10-5-14zm50-26c1 0 2 1 2 1 2 1 2 2 2 3 0 2-2 3-3 4-2 0-2 0-3-1s-2-2-1-4c0-2 1-2 3-3zm-76 86h1c1 0 2 0 3 1s2 2 2 3c-1 2-2 2-3 3s-2 0-3 0c-1-1-1-2-2-3 0-2 1-3 2-4zm38-5h0c2 0 3 0 4 1s2 2 1 4c0 1-1 2-2 3-1 0-2 0-3-1-2-1-2-1-2-3s1-3 2-4zm-21-31c2 0 3-1 4 1 1 1 1 2 2 3-1 2-2 2-3 3h-1c-1 1-2 1-3-1-1 0-1-2-1-3 1-2 1-2 2-3z"></path><path d="M555 333h2c-1 1-1 2-2 3h2 3c-7 0-13 0-19 5h0-1c0-1 0-2 1-2 2-5 8-4 11-5l1-1h0 2zm12 122h0c1 0 2 1 3 2s1 2 1 3c-1 2-2 2-3 3h-2c-1 0-1 0-1-1-2-1-2-2-2-4 1-2 2-2 4-3z" class="D"></path><path d="M630 329c3-2 6-4 8-3 3 0 5 3 6 5 0 1 1 3 1 5l-2-1-1 1c-1-2-1-3-2-5s-2-3-4-3-3 2-4 3l-2-2z" class="C"></path><path d="M623 316l1 1c1 3-3 7-2 9l2 1c-1 1-2 1-4 1-1 0-3-1-4-1 1-3 5-9 7-11zm-60 44c2-4 5-10 2-14l-1-1h0c2 0 3 0 4 2s1 4 0 6c-1 4-2 8-4 11 0 1 0 2-1 3v-1l-1 1v-1c1-2 2-3 1-6z" class="D"></path><path d="M541 498c2 1 3 1 4 2v4c-1 2-2 2-4 3-2-1-2-1-3-2-1-2-1-3 0-4 0-2 1-2 3-3z" class="G"></path><path d="M539 568c2-1 3-1 5 0 1 1 1 2 1 4s-1 2-2 3h-1c-1 1-2 1-3 0s-2-2-2-4 1-2 2-3zm31-176c2-1 2 0 4 1 0 1 1 1 1 3s-1 3-3 4h0c-1 0-2 0-3-1-2-1-2-2-2-3 0-2 1-3 3-4z"></path><path d="M539 545c1 0 1 0 2-1 1 0 2 1 3 2s1 2 1 4c0 1-1 2-3 3-1 0-2 0-3-1-2-1-2-3-2-4 0-2 1-2 2-3z"></path><path d="M609 304v1 1c-1 0-2 0-3 1-4 2-7 4-10 7l1 3-1 1-3-2-2 1h0l2-1v-3l2 2v1-2-2c1 0 2-2 2-3 3-2 5-3 7-4 1-1 3-1 5-1zm12 40l-1-1h-1c-1 0-2 0-3-1-2-2-6-5-6-7 1-2 1-3 2-4h1c2 5 5 8 9 11h0l-1 2z" class="D"></path><path d="M540 521h1c2 0 3 1 4 2 0 1 1 2 0 3 0 2-1 3-2 3l-1 1c-1 0-3-1-4-2s-1-2-1-4c0-1 1-2 3-3zm58-116h1c2-1 3-1 4 1 2 1 1 2 1 4 0 1-1 2-2 3-2 0-3 0-4-1-1 0-2-2-2-3 0-2 1-3 2-4z"></path><path d="M626 291l1-1 1 1-1 1v2l-5 7-2-1v-2c-1 0-2-1-3-2v-1l1-4c2 1 4 1 6 2l2-2z" class="G"></path><path d="M594 336v-2l-1-2 1 2c1 1 0 0 2 1h0l2 2c1 1 0 2-1 4-1 1-3 2-4 4-5-1-11-2-15-5 2 0 3 0 4 1h2c-1 0-2-1-3-1h0v-1l4 1-1-2 1-1c2 2 4 5 7 5 0 0 1-1 2-1 1-2 0-3 0-5z" class="C"></path><path d="M558 532l-1-29c0-1 0-1 1-2 4 5 1 15 3 21v1c-1 3-1 6-3 9z"></path><path d="M599 443c0-1 2-3 2-3-1-2-3-2-3-4l2-1h0v-1c-2 0-2-1-2-2s0-2-1-3v-1-1c1 1 1 1 1 2l2 2c2 3 6 5 6 8 0 2-1 4-2 6-2-1-4-1-5-2z" class="B"></path><path d="M557 333c8 1 17 2 24 6v1h0c1 0 2 1 3 1h-2c-1-1-2-1-4-1-1 1-6-2-8-2-3-1-7-1-10-2h-3-2c1-1 1-2 2-3z" class="G"></path><path d="M650 280c0 1 1 2 2 3h-1c-1 2-5 6-4 8h1c-1 1-1 4-2 4h-1l1-2h-1l-1-1c-1 3-1 7-3 9-1-1-1-2-2-3 0-2 1-5 3-7 1-4 2-5 6-6 0-2 1-3 2-5z" class="C"></path><path d="M612 296c1 0 2-1 3-2h1l1 1v1c1 1 2 2 3 2v2c-1 1-2 1-2 2l-1 1-1 1s-1 1-1 2c-1 0-1 0-2-1l-5-8h-1c1-1 2-1 3-2l2 1z" class="E"></path><path d="M608 297c1 1 4 1 5 2v3c1 0 1 0 2-1l1 1 1 1-1 1s-1 1-1 2c-1 0-1 0-2-1l-5-8z" class="F"></path><path d="M579 360l2-1v1c-1 6-9 10-11 15-2 2-3 5-4 7-1 0-1-1-2-1v-2c1 1 1 1 1 2h1c1-2 1-3 1-4l-2-1c0-1 1-1 2-2 1 0 2 0 3-1 2-3 0-3 0-7 2-3 6-4 9-6z" class="C"></path><path d="M547 390h0c1-6 1-11 1-16 1-4 3-9 3-14 1-4 2-17 6-20l1 1c0 3-2 7-3 10l-3 11c-1 6-3 13-3 19 0 4 2 7 2 11-1-2-2-3-3-5-1 2-1 2-1 4v-1z" class="D"></path><defs><linearGradient id="B" gradientUnits="userSpaceOnUse" x1="586.604" y1="313.882" x2="580.396" y2="321.118"><stop offset="0" stop-color="#0d0a0a"></stop><stop offset="1" stop-color="#282823"></stop></linearGradient></defs><path fill="url(#B)" d="M574 300l10 16c4 6 9 13 12 19h0c-2-1-1 0-2-1l-1-2 1 2v2c-6-10-15-19-19-30l-1-2v-4z"></path><path d="M611 312c1 0 1 0 2 1 0 3-4 6-6 9-2 4-4 7-7 10-1 1-1 1-2 1 0-1 0-2-1-3l-1-1 1-1h2 2v-3l-2-2c0-2-1-2 0-3 2 1 3 1 4 1l2-2c1 0 0 0 1-1l-1-1h0 4 1l-1-2v-1l-2 1h0v-2c1 0 3-1 4-1z" class="I"></path><path d="M627 311c2-3 4-5 4-8l1-3 3 5c3 6 7 11 10 17-2-2-5-4-7-7h-1l-1 1h-1l-1-3h-2c0 1 0 1-1 2 0 1 0 1-1 1-2-1-2-2-3-3v-2z" class="D"></path><path d="M627 311h1c1 0 1-1 2-1l2 1c0-1 1-1 1-1 2 0 3 1 3 3h0-2-2c0 1 0 1-1 2 0 1 0 1-1 1-2-1-2-2-3-3v-2z" class="C"></path><path d="M573 387c0-2 5-7 7-9 1-2 2-5 3-7 2-2 4-4 5-7l2 2c-1 1 0 1-1 2-2 1-2 1-3 3 0 6 0 14 2 20l-1 1c-2 3-1 7-2 10h-1c-1-3 0-10 0-12l-1-13-8 10h-2zm-10-27c1 3 0 4-1 6v1l1-1v1l-1 3-3 15c0 2-1 5 0 7 0 5 3 9 5 13 3 5 6 11 11 16 1 1 2 2 4 3l1-2 1 1c-1 1-1 3-2 3h-1c-7-3-18-21-20-28l-1-1c-1-5 0-12 1-17 1-7 2-13 5-20zm-10-27c-5-2-10-7-13-12-2-4-2-8 0-13 1-2 3-4 5-5 4-2 11 0 14 1 5 3 8 7 11 11 5 7 10 15 15 22l-1 1c-7-8-13-19-21-27-3-3-9-6-14-6-2 0-4 1-5 2-2 2-3 5-3 8 1 8 9 13 14 18h-2 0z"></path><path d="M555 333c-5-5-13-10-14-18 0-3 1-6 3-8 1-1 3-2 5-2 5 0 11 3 14 6 8 8 14 19 21 27l1 2-4-1c-7-4-16-5-24-6h-2z" class="H"></path><path d="M565 322h1c2 0 3 1 4 2 0 1 1 2 0 4-1 1-1 2-3 2h-1c-1 0-2-1-4-2v-2c1-2 2-3 3-4zm-14-12c1 0 3 0 4 1s1 2 1 4-2 3-3 4h-1c-1 0-3-1-3-2-2-1-1-2-1-4 1-2 1-2 3-3z"></path><path d="M458 290l2-7c4-12 2-28-4-39-7-12-26-16-38-18-7-1-15-1-22-3h0c-2 1-14-2-16-2 2-3 5-5 8-8s7-4 11-7l9-6c1 0 2-1 3-1h3c33 4 63 16 84 42 2 3 3 4 2 7 2-1 4-6 6-7v-1c-5-5-10-11-15-16-20-19-46-28-72-32 3-2 7-5 10-8 32 4 63 24 83 49v-1c19-26 52-43 84-48a30.44 30.44 0 0 0 8 8h1c-27 3-51 13-71 31-6 5-12 11-17 17 1 2 2 3 3 5l6 9c2 5 5 11 7 17 0 1 1 2 1 3 0 2-1 4-2 5l-4 10c-2-11-6-23-12-33-1-3-3-7-5-9-8 13-12 26-15 40-5-14-12-27-20-39v-1c1-1 1-2 1-3 0-2-1-3-2-5h-4c-2 1-2 2-3 3 0 1 0 0-1 1-2-4-12-18-16-18-1-1-3 0-4 1h0c-5 0-9-4-13-5-3 0-2-2-4-4 0 1 0 2-1 2-10 0-21 1-31-2-3 0-5-2-8-2 4 2 9 4 13 5 6 1 13 1 20 1 2 0 6-1 8 0v1h-2l1 1c4 0 8 2 12 4 2 0 5 1 7 3 3 2 5 6 8 9-2-5-4-8-7-11l-1-1v-1h2s1 0 1 1c2 2 4 5 6 7 3 3 6 7 8 11 3 6 5 12 7 18 1 4 3 9 3 14v4c-1 1-2 3-2 5-2 3-4 8-8 11-2 2-8 3-10 6-1 1-1 2 0 3l1 1c5-5 11-7 15-13 2-3 8-14 7-18l-10-31 1-1h1c1 1 2 1 2 2l1 1c2 5 5 9 7 14 7 14 13 29 16 45 1 4 1 9 2 14v63 92 41 10c0 1 0 3-1 5-2-6-3-12-5-17l-9-29 2-2c-1-1-2-2-3-2-2-5-3-10-4-14l-4-15h0c4-8 19-46 17-52v-1c0 4-2 9-3 13-4 12-9 24-14 36l-1-3c-1-2-3-3-4-3-2-1-3 0-5 1s-3 2-3 5l3 3h2 1l1 1c0 4-4 10-6 13l-21 34-9-22c4-4 8-8 11-13 5-6 10-13 14-20 3-7 6-14 10-21 2-5 13-27 11-31l-1-1h0c-1 8-4 14-7 20-5 11-10 22-16 33s-15 21-23 31c-1-2-3-5-2-7 0-4 2-8 3-12 4-10 6-22 6-33 0-4-1-10-2-14-2-4-4-8-7-12-4-6-8-12-13-17v8h1c0-1 1-2 2-3 5 6 11 14 14 21 2 4 2 7 2 11 2 16-3 33-8 48l-6-12c0-2-1-4-1-6 0 1 1 1 2 1 1 1 3 0 4-1s1-1 1-2c-1-1-6 0-8-1-1-1-2-1-1-2 1 0 2-1 3-2l2 1c2-1 1-3 2-5h0l-1-2c1-2 1-4 2-6 2-1 4-3 5-5h-1c-3 2-4 5-6 8-3 3-6 5-8 8l-11-26 5-6c-3 1-4 2-6 4l-7-16c2-5 6-10 9-14 8-9 16-16 24-25-1-3-3-6-6-8l3 8c-12 10-23 22-31 35-3-3-5-9-6-13l1-1c2 0 2 0 4 1h0l-2-4 17-18v-1l-3 3-1-1c-2 1-3 2-5 1h-1c-10-1-16-10-22-17 1 3 3 6 5 9 5 5 10 10 17 11h1l-12 13c-2-2-3-6-4-9l-5-14-8-25c2-1 4-2 6-4h-1-1v-8c-1-2-2-3-2-5v-2h-2c4-3 0-4 1-7h2c2-2 3-4 5-5v1c1 3 2 5 2 8l1-1c0-2 1-6 0-8-1-3-3-7-5-10l-2 1-3-3c-1-1 0-2 0-3-1-2-1-2-3-3-3 0-5 5-7 7l-1-1c1-1 1-3 1-4v-1h-1v-5l1-1 1 1c0 1 0 2 1 3h1l1-1c0-4-4-7-6-10 0-5 1-10 2-15 3 3 5 5 7 8 4 4 7 12 11 14 1 0 2-1 3 0 1 0 1 0 1 1l-2 1v1c0 1 2 3 2 4l10 14 5 7h1l1-1v-1l1 3c1 2 3 3 4 4h1l2-2h2c0 1 0 2 1 3v-1c1 0 1 0 2-1 1 1 2 1 3 1 2 0 3 1 5 2v1h0l5 5 2-4 3-5v1c0 2-2 6-4 8 0 1-1 1-1 1l1 1c0-1 0-2 1-2 1-1 1-2 2-3 0-1 1-2 2-3 4-8 9-18 9-26 1-12-1-26-9-36-9-11-23-12-37-14l-24-3c1-2 3-3 4-5h2c5 0 10 2 15 2 14 2 27 4 41 9 6 2 12 5 16 10 7 8 9 23 8 33-1 5-3 8-4 13v1c1-1 1-1 2-1z" class="E"></path><path d="M480 343c1 0 1 0 2 1s0 1 0 3h-1l-1-1c-1-2-1-2 0-3z"></path><path d="M449 438h0c2 0 2 1 3 2v1l-2 1-2-2 1-2z" class="G"></path><path d="M452 271c1 0 1 0 3 1 0 2 0 2-1 3-2 0-2 0-3-1 0-1 0-1 1-3z"></path><path d="M383 304c1 1 2 0 4 0v3h-2-2c-1 0-1 0-2-1 1-2 1-1 2-2zm42 21h1l1-1c1 0 1 0 2 1l1 1v2c-2 1-3 0-5 1l-2-2v-1l2-1z" class="F"></path><path d="M427 374c2 1 5 10 6 13-3-3-5-6-7-10 0-2 0-2 1-3z" class="C"></path><path d="M380 330c1-2 1-3 2-3l1-1h1c1-1 4 0 5 0h1c1 1 1 0 2 1h3l1 1c2 0 3 1 5 2v1c-2 0-2 0-4 1l1 1h0l-2-1h1c-1-1-1-1-1-2-1-2-7-4-10-4-2 0-4 2-6 4z" class="B"></path><path d="M414 319h1l1-1h0l1 1c2 1 2 1 4 0v1c-1 2-1 2 0 4v1c0 1-1 1-1 2l-6-8z" class="D"></path><path d="M414 319l-4-7c2 1 5 1 7 2 1 1 1 1 1 2l-2 2h0l-1 1h-1z" class="C"></path><path d="M456 380h1c1 2 1 2 2 3 1 2 1 4 3 6l4 1-1 1c-1 0-2 1-3 1-4-1-3-6-4-8 0-1-1-2-1-3l-1-1zm23 33c1 0 2 0 3 1s1 1 1 3c-1 1-1 2-2 3-2-1-3-1-4-2 0-2 1-4 2-5z" class="I"></path><path d="M466 280c1-1 2 0 3 0 1 1 2 2 2 3-1 1-1 2-2 3-1 0-2 0-2-1-2 0-2 0-3-2 1-2 1-2 2-3z"></path><path d="M443 375c3 4 7 8 9 13-4-3-8-7-10-11h-1c0-1 1-2 2-2z" class="C"></path><path d="M404 343c1 2 0 2 0 3s0 1-1 2h-4v-2h1v1h1c0-1 0-1-1-2-1 0-2-1-3-1v-1s1-1 2-1c1-1 1-1 2-1l2 2h1zm42 62h2c1 1 2 2 2 4 0 1 0 2-1 3s-2 0-3 0c-1-1-2-1-2-3s1-2 2-4zm28 21h2c1 1 2 2 2 3 0 2 0 3-2 4h-3c-1-1-1-1-2-3 1-2 1-3 3-4zm17-62c1 0 1 0 2 1s1 2 1 3c0 2-1 2-2 3-2 0-2 0-4-1v-4c1-2 1-2 3-2zm-34 47c0 2-2 3-2 5h0l3-3v1l-2 2c-2 3-6 9-10 10l-1-1c0-1-1-1 0-3l2 1c4-2 7-9 10-12z"></path><path d="M421 325l6-7v1h0c-1 2-1 4-1 6h-1l-2 1v1l2 2v2l2 2c-1 1-1 1-2 1-2-3-4-5-5-7 0-1 1-1 1-2z" class="C"></path><path d="M434 304v1c0 2-2 6-4 8 0 1-1 1-1 1l1 1c0-1 0-2 1-2 1-1 1-2 2-3 0-1 1-2 2-3-1 2-4 7-4 9l1 1v1c-4-2-7-5-10-8 1-1 1-2 2-2h0l5 5 2-4 3-5z" class="D"></path><path d="M408 392c1 0 2 0 3 1s2 2 1 4c0 1-1 2-2 3-2 0-2 0-3-1s-2-2-2-4c1-2 1-2 3-3zm52 25c-1 5-3 10-5 15l-4-1h-2v-1c5-4 7-8 11-13zm-17 56h4c2 1 2 2 2 4s0 2-2 3c-1 1-2 1-3 0-2-1-2-2-2-3 0-2 0-2 1-4zm12-17c1-1 3-1 4 0 2 1 1 2 1 4 0 1-1 2-2 3h-3c-1-1-2-2-2-3 0-2 1-3 2-4z"></path><path d="M401 316h0c2 2 7 9 7 12h0c-2 0-2 0-4-2l-1 1h0c-2 0-2-1-3-2 1-2 1 0 2-1 1 0 1-1 1-1v-1c-1 1-2 1-3 1 0-2 0-4 1-7z" class="D"></path><path d="M481 407c1-4 2-11 5-13 1 0 2 0 3 1 2 1 2 2 3 4l-4-1c-4 1-4 8-7 11h0v-2z"></path><path d="M403 343c1-2 3-4 4-6 2-2 3-4 4-6l3 3c0 1 0 1-1 2-1 3-4 6-7 7h-1-1 0-1z" class="C"></path><path d="M407 357c1-1 1-3 3-4 3-2 5-4 7-6 1-2 2-4 4-5 1 1 1 1 1 3-2 3-7 8-11 11v-1l-3 3-1-1z" class="D"></path><path d="M442 315l1 1c-3 6-7 12-12 17l-1-2h0l12-16z" class="C"></path><path d="M452 392h3c1 1 2 3 2 4 0 2-1 3-2 5h-1c-2 0-3-1-4-2v-4c0-2 1-2 2-3z" class="D"></path><path d="M422 405h0c2-1 3-1 4 0s2 3 2 4c0 2-1 3-2 4h-2c-2 0-3 0-4-1-1-2-1-3-1-4 1-2 2-2 3-3z"></path><path d="M442 315l14-25v1c1-1 1-1 2-1-3 6-6 11-9 17l-6 9-1-1z" class="G"></path><path d="M401 300h1l1-1v-1l1 3c1 2 3 3 4 4h1l2-2h2c0 1 0 2 1 3v-1c1 0 1 0 2-1 1 1 2 1 3 1 2 0 3 1 5 2v1c-1 0-1 1-2 2-1-1-2-2-3-2-1-1-4-2-5-1l-1 1c-2 0-3 1-5 2-2-3-5-6-7-10z" class="I"></path><path d="M478 391c-1 0-1-1-2-1l-1-1c-1-2 0-7 0-10 0-2 0-4-1-7-1-11-6-21-8-32h1s1 0 1 1c1 1 2 3 2 4l3 15 3 15c1 5-1 11 2 15v1h0z" class="C"></path><path d="M456 380v-2h1 0l2 1h0c0-1-1-2-2-3-6-4-11-9-14-15v-2c2 0 7 3 9 4 1 1 2 2 2 4v1c-1 0-1 1-1 2 2 4 6 4 8 8-1 1-1 2-2 2h-2-1z" class="D"></path><path d="M441 377c0 4-1 7-1 11v14h-1c0-2 0-4-1-5 0-3 0-4-1-6-1-1-1-3 0-4 0-4 1-9 2-13 0-3-2-5-4-7 0-1 0-2 1-3 2 1 6 8 7 11-1 0-2 1-2 2z" class="G"></path><path d="M378 322l1-1c2-2 3-5 4-7l9-13c1 1 1 4 2 6s2 3 3 5c-1 1-1 3-3 4h-1c-1-1-1-1-1-3h0l-2 1-1-1-3 3v1h-2c-2 1-4 3-5 5h-1z" class="C"></path><path d="M380 330c2-2 4-4 6-4 3 0 9 2 10 4 0 1 0 1 1 2h-1l2 1v2c1 1 1 2 0 3-3-1-4-5-6-7-1-1-3-2-4-3-1 0-2 0-3 1-2 1-3 3-3 4-1 3 1 6 2 8 3 2 6 2 9 2-2 1-5 2-7 2-3-1-6-5-7-8s0-5 1-7z"></path><path d="M466 390h-1c0-4 0-7-1-10 0-5-2-10-3-14-2-5-7-13-6-19 2-2 2-2 5-2v1s-2 2-2 3c0 5 3 11 5 16 1 4 2 9 3 13 0 4 2 10 2 15-1 6-5 15-10 20v1-1l-3 3h0c0-2 2-3 2-5 3-7 8-12 8-20l1-1z" class="C"></path><path d="M431 333c0 1-1 2-1 3h2v1c-1 0-2 1-3 2v1c1 1 2 1 3 1 2 1 3 0 5-1l6-9 9-13c2-3 5-8 9-11 3-3 12-5 16-5 3 0 5 2 6 4 3 3 3 7 2 11-1 7-7 13-13 16 3 1 6 1 9 3 2 1 3 2 3 4h-1c-4-3-8-3-13-4-5 0-10 0-14 1-7 2-14 6-21 7-2 0-3 1-4 0-3-2-4-4-5-7l1-1c0-1 1-1 1-2l2-3 1 2z"></path><path d="M474 305c2 0 3 0 5 1 1 0 3 2 3 4 2 3 1 7 0 9-2 5-7 9-11 12 0 1-1 2-2 2-2 1-5 0-7 1-6 0-10 1-15 3l-9 3 16-21c3-4 6-8 10-11 3-1 7-2 10-3z" class="H"></path><path d="M456 323s0-1 1-1 3 1 4 2 1 2 1 4c-1 1-1 1-3 2-1 1-2 0-3 0-1-1-2-2-2-4 0-1 1-2 2-3zm15-13c2 0 3 0 5 1 1 2 0 3 0 5-1 2-1 2-3 3h-1c-1 0-2-1-3-2s-1-3-1-4c1-2 2-2 3-3z"></path><path d="M234 211h105c-5 6-9 11-11 18-4 8-3 16 0 25 2 6 5 13 7 19l11 26 35 80 91 213 40 94 139-328 24-59 12-29c4-9 9-19 10-29 1-12-4-21-11-30h104c-14 3-27 7-38 16-9 7-18 16-23 26-7 12-11 25-16 37l-37 87-126 297-30 73-5 10c-1 2-1 5-3 6l-48-112-106-247-47-110-13-29c-3-7-6-15-10-21-5-8-13-16-21-21-9-7-22-10-33-12z" class="F"></path><path d="M733 222h8c-8 7-16 16-22 26-3 7-6 15-9 22l-15 36-48 114-93 220-41 96-21-47-44-102-86-200-39-90-14-32c-4-10-8-19-13-28-4-6-8-10-13-15h35c-3 10-5 19-2 29 2 8 5 15 8 23l15 33 41 95 83 194 49 117 33-79 92-218 44-105 14-33c4-9 8-18 11-28 2-6 3-12 3-18 0-3-2-8-2-10h26z"></path></svg>