<svg xmlns="http://www.w3.org/2000/svg" xmlns:xlink="http://www.w3.org/1999/xlink" xmlns:v="https://vecta.io/nano" viewBox="125 105 779 820"><!--oldViewBox="0 0 1024 1024"--><style>.B{fill:#9b1f29}.C{fill:#c2bfc1}.D{fill:#72121a}.E{fill:#c31726}.F{fill:#780e15}.G{fill:#a6a5a7}.H{fill:#5f2225}.I{fill:#521418}.J{fill:#d93840}.K{fill:#040303}.L{fill:#aa0d15}.M{fill:#e1e0e1}.N{fill:#8f111d}.O{fill:#2e2d2f}.P{fill:#4e4c50}.Q{fill:#401f1f}.R{fill:#ca0e13}.S{fill:#d7bec1}.T{fill:#e2d4d8}.U{fill:#69686a}.V{fill:#271011}.W{fill:#db8890}.X{fill:#7b7a7d}.Y{fill:#d13c45}.Z{fill:#dbaeb1}</style><path d="M720 378v-2c1-2 3-5 5-6-1 3-2 6-2 10l-3 1v-3zm30-14c1-1 1-1 3-2-1 5-1 11-1 16-1-3 0-5-1-7l-1 1v-8z" class="R"></path><path d="M723 380l-1 14c-1 3 0 6-1 8v-4h-1v-17l3-1zm27-8l1-1c1 2 0 4 1 7l-1 11h0l-1-1-1 1c-1-2 0-10 0-12 1-1 1-4 1-5z" class="E"></path><path d="M752 344c1 0 1 0 2-1h1v1l-1 3c-1 1-1 2-1 3l4-7c1-1 1-2 3-2-6 7-6 13-7 21-2 1-2 1-3 2 1-7 2-13 2-20h0z" class="J"></path><path d="M765 331c3 2 5 4 9 5h3c-6 1-11 1-16 5h-1c-2 0-2 1-3 2l-4 7c0-1 0-2 1-3l1-3v-1h-1c-1 1-1 1-2 1v-1h-2l2-1c3-2 10-7 13-7h1 2l-2-2s-1-1-1-2z" class="C"></path><path d="M299 596h1l-1 59c-1-3-1-6-1-9v-15c0-5-1-11-1-16 1-4 0-9 1-12 1-2 1-4 1-7z" class="O"></path><path d="M720 398h1v4l-2 67-1 1v-10-16l2-46z" class="R"></path><path d="M253 339c8 0 25 9 30 14l1 11c-2-3-4-6-7-8-7-7-16-12-24-17z" class="K"></path><path d="M750 343h2v1h0c0 7-1 13-2 20v8c0 1 0 4-1 5v-11c-1 2 0 7-1 9h-3c-1-5-2-9-3-13-1-2-2-3-3-3-3-1-4 0-6 1l-1-1 13-12h0v-1l4-3h1z" class="S"></path><path d="M750 343h2v1h0l-1 1v3h-2l-1 1-1-2h-2 0v-1l4-3h1z" class="T"></path><path d="M747 347l1 2 1 17c-1 2 0 7-1 9h-3c-1-5-2-9-3-13 1-1 1-2 2-3 1 0 2-1 2-2h1c1-3 0-7 0-10z" class="L"></path><path d="M745 347h2c0 3 1 7 0 10h-1c0 1-1 2-2 2-1 1-1 2-2 3-1-2-2-3-3-3-3-1-4 0-6 1l-1-1 13-12z" class="B"></path><path d="M749 366v11c0 2-1 10 0 12l1-1 1 1h0l-3 104c-2-10 0-21-1-31 0-29 0-58-2-87h3c1-2 0-7 1-9z" class="R"></path><path d="M715 383c1-2 2-4 4-5h1v3 17l-2 46v16 10c0 1-1 2-1 3 0-3 0-5-1-8v-1c0-6-1-12-2-19-1-4-1-7-1-11v-47c0-2 1-3 2-4z" class="W"></path><path d="M715 383c1-2 2-4 4-5l-3 6c-2 9-1 19-1 28l1 31v5c-3-4-2-49-2-57 1-2 1-4 1-6v-2z" class="J"></path><defs><linearGradient id="A" x1="721.542" y1="410.301" x2="713.005" y2="408.973" xlink:href="#B"><stop offset="0" stop-color="#f4cad5"></stop><stop offset="1" stop-color="#e5e0e2"></stop></linearGradient><linearGradient id="B" gradientUnits="userSpaceOnUse"></linearGradient></defs><path fill="url(#A)" d="M719 378h1v3 17l-2 46c-1 1 0 4-1 5l-1-6-1-31c0-9-1-19 1-28l3-6z"></path><path d="M208 265c10-2 17-1 26 4l1 1c10 7 16 18 20 30l-1 1c-3-4-6-8-10-11-13-13-29-18-46-22l10-3z" class="K"></path><path d="M710 437h0l1-1v-3l1-1v2h1c0 4 0 7 1 11 1 7 2 13 2 19v1c1 3 1 5 1 8 0-1 1-2 1-3l1-1v18c-1 3 0 6-1 9l-3 100v-15l-1-23c-1-40-1-81-4-121z" class="J"></path><path fill="#dd5b62" d="M716 464v1c1 3 1 5 1 8 0-1 1-2 1-3l1-1v18c-1 3 0 6-1 9v-6h-1l-1-26z"></path><path d="M207 214c12 13 22 28 30 43 5 9 9 18 13 27l8 19h-1l-2-3c-4-12-10-23-20-30l-1-1c-9-5-16-6-26-4 0-1 0-1 1-2l6-6c0-2 2-4 2-6 3-10 0-20-5-29-2-3-4-4-5-8z" class="C"></path><path fill="#fff" d="M220 257h5 1c5 2 9 6 12 11v1l-3 1-1-1c-9-5-16-6-26-4 0-1 0-1 1-2l6-6c0 1-1 2-1 3h-1c3-1 4-3 7-3z"></path><path d="M215 257c0 1-1 2-1 3h-1c3-1 4-3 7-3-2 1-4 3-6 5 5 0 8 0 12 1l1 1c2 1 6 2 7 5-9-5-16-6-26-4 0-1 0-1 1-2l6-6z" class="M"></path><defs><linearGradient id="C" x1="744.58" y1="287.083" x2="806.912" y2="276.244" xlink:href="#B"><stop offset="0" stop-color="#a8a6a7"></stop><stop offset="1" stop-color="#d7d6d7"></stop></linearGradient></defs><path fill="url(#C)" d="M806 213l1-1h4c-3 3-6 7-8 10l-3 4v1c-4 9-6 19-2 28 2 5 7 9 12 11l6 1-5 2h0c-5 4-10 6-15 10-12 9-21 19-28 32-2 4-4 8-5 13 0 3 0 4 1 7h1c0 1 1 2 1 2l2 2h-2-1c-3 0-10 5-13 7l-2 1h-1l-4 3h-1l-2 1c0-2 0-4-1-7h1c2-3 3-8 5-12 1-5 3-9 5-13 1-4 3-9 6-13v-2l6-16c3-6 5-12 7-17s2-12 7-16h0v-1c4-6 7-12 11-17 5-8 11-14 17-21v1z"></path><path d="M758 302c0 3-3 6-4 9 0 3 2 9-1 12v1h0v2c-1 3 0 5 0 7v3l1 1c0 2-1 3-2 5l-2 1h-1 0c1-1 2-3 2-4 2-7-2-15 2-22h0l-1-2c1-4 3-9 6-13z" class="G"></path><defs><linearGradient id="D" x1="795.866" y1="219.859" x2="809.634" y2="219.633" xlink:href="#B"><stop offset="0" stop-color="#524f51"></stop><stop offset="1" stop-color="#6c6d72"></stop></linearGradient></defs><path fill="url(#D)" d="M806 213l1-1h4c-3 3-6 7-8 10l-3 4v1c-3 0-7 6-8 8l-1 1h-1c4-8 10-16 16-23z"></path><path d="M752 315l1 2h0c-4 7 0 15-2 22 0 1-1 3-2 4h0l-4 3h-1l-2 1c0-2 0-4-1-7h1c2-3 3-8 5-12 1-5 3-9 5-13z" class="X"></path><path d="M747 328c2 6-1 12-3 18l-2 1c0-2 0-4-1-7h1c2-3 3-8 5-12z" class="P"></path><defs><linearGradient id="E" x1="810.42" y1="239.209" x2="784.509" y2="276.967" xlink:href="#B"><stop offset="0" stop-color="#626164"></stop><stop offset="1" stop-color="#a3a1a2"></stop></linearGradient></defs><path fill="url(#E)" d="M790 236h1l1-1c1-2 5-8 8-8-4 9-6 19-2 28 2 5 7 9 12 11l6 1-5 2c-3 0-5 1-7 2-3 1-6 1-9 2-5 1-14 3-18 0-1-1-2-2-2-3 0-2 1-4 1-6 2-6 5-12 8-17 2-4 4-8 6-11z"></path><path d="M401 628c2 0 5 4 7 6 12 11 22 25 30 38l8 13 3 6 1-1c1 2 2 3 3 5l2 1 7 14 7 15c3 10 7 20 9 30l2 11c1 2 1 8 2 10 0 1-1 3-1 4l-1 1v4 6 1c1 2 1 3 0 5l2 2h1v-2l1-1-1-1c1-1 1-1 1-2l-1 10-5 17c-1-2-2-5-3-7l-74-185z" class="E"></path><path d="M480 791v1c1 2 1 3 0 5l2 2h1v-2l1-1-1-1c1-1 1-1 1-2l-1 10-5 17c-1-2-2-5-3-7 4-6 4-15 5-22z" class="W"></path><defs><linearGradient id="F" x1="460.184" y1="737.445" x2="471.826" y2="731.826" xlink:href="#B"><stop offset="0" stop-color="#ef8f99"></stop><stop offset="1" stop-color="#d9adb1"></stop></linearGradient></defs><path fill="url(#F)" d="M449 691l1-1c1 2 2 3 3 5l2 1 7 14 7 15c3 10 7 20 9 30l2 11c1 2 1 8 2 10 0 1-1 3-1 4l-1 1v4c-2-13-4-25-7-37-6-19-15-39-24-57z"></path><path d="M713 387v47h-1v-2l-1 1v3l-1 1h0c-1-5-1-13-5-17h-1c-5 4-7 12-9 17L552 799v-2l1-2h-1 0l-1 1v-2l1-14 1-1c0-1-1-1 0-1v-5l1-5 2-16c1-11 1-23 4-34l6-26c2-6 4-12 4-17l8-26c5-14 10-27 18-39v-2c0-2 2-5 2-7 1-3 2-7 3-10 1-4 3-11 5-14 1 0 2-1 3-1l31-53c2 0 24-43 25-47 5-6 8-15 12-21l19-36 9-19c2-4 5-9 8-13z" class="E"></path><g class="L"><path d="M551 794l1-14 1 1 2-1c-1 4-1 11-4 14z"></path><path d="M554 768c1 2 1 2 1 4 1 0 2-1 3-1-1 2-1 4-2 6l-1 3-2 1-1-1 1-1c0-1-1-1 0-1v-5l1-5z"></path></g><path d="M553 779l2-3 1 1-1 3-2 1-1-1 1-1zm62-169h1c0 4-2 8-2 12l-6 22v-2c1-2 0-2-1-3v-3c1-1 1-1 1-2v-2l1-1v-1c1-1 0-2 0-3h1v5l1-2c0-1 0-2 1-3v-3c1-1 1-3 1-4l1-2v-1c0-1 0-2 1-3v-1-3z" class="B"></path><path d="M609 601c3 4 2 8 3 12 0 3 0 6-2 9h0 0c-1 3-2 5-2 8 0 2-1 3-1 5 0 1 0 3-1 4v1l-3 11v2l-1-1c1-3 2-7 3-11l3-17c2-8 2-15 1-23z" class="N"></path><path d="M606 619c1 1 1 3 2 4v1l-3 17c-1 4-2 8-3 11 0 1-1 4-1 5-1 4-2 9-3 13l-1 1v3h-1c1-1 1-1 1-2l9-53z" class="T"></path><path d="M621 582l1-1 8-10v1l-6 10c-2 4-6 9-7 14s0 10-1 14h-1c0-1 0-4 1-5v-3l-2 2c-1 1-1 2-2 3v6c-1-4 0-8-3-12 0-6 9-15 12-19z" class="F"></path><path d="M713 387v47h-1v-2l-1 1v3l-1 1h0c-1-5-1-13-5-17h-1c-5 4-7 12-9 17h-1c0-1 1-3 2-4v-1c0-1 1-2 1-3l1-1c0-2 0-2 1-2v-1c1-1 0-1 1-1 0-1 0-1 1-2v-1h1v-1c1-1 2-1 3-1l3 3h0c3-2 1-4 2-7v-1c0-2 1-1 1-2v-6-4-2-1h1v-1-1c-1-1 0-2-1-3 0-1 0-1 1-2h-1c-3 2-4 6-6 10v-2c2-4 5-9 8-13z" class="L"></path><path d="M596 610v-2c0-2 2-5 2-7 1-3 2-7 3-10 1-4 3-11 5-14 1 0 2-1 3-1-2 5-5 11-5 17h3c2 0 3-2 5-3 2-3 6-8 9-8-3 4-12 13-12 19 1 8 1 15-1 23v-1c-1-1-1-3-2-4v-8s-1-1-1-2-2-4-4-4l-5 5z" class="S"></path><defs><linearGradient id="G" x1="585.259" y1="690.941" x2="567.331" y2="686.764" xlink:href="#B"><stop offset="0" stop-color="#91050f"></stop><stop offset="1" stop-color="#74161f"></stop></linearGradient></defs><path fill="url(#G)" d="M596 610l5-5c2 0 4 3 4 4s1 2 1 2l-2 3c-1 3-4 6-6 9-4 6-7 12-10 19-7 16-12 34-17 52-3 10-6 20-8 31s-3 21-4 32l-1 9v5c-1 0-2 1-3 1 0-2 0-2-1-4l2-16c1-11 1-23 4-34l6-26c2-6 4-12 4-17l8-26c5-14 10-27 18-39z"></path><path d="M705 400v2l-6 12c-1 2-3 5-3 7l1 2c1 3 0 4-2 6-1 1-1 1-1 3s-1 4-2 6l-3 6c-1 4-4 7-5 11-12 25-24 50-38 74l-24 37c-3 6-9 14-10 21v3c-2 1-3 3-5 3h-3c0-6 3-12 5-17l31-53c2 0 24-43 25-47 5-6 8-15 12-21l19-36 9-19z" class="D"></path><path d="M207 214c-11-11-25-20-39-28-10-6-21-13-30-21-10-9-17-19-22-31 14 15 32 25 52 31 29 9 63 11 93 7 6 0 12-1 17-3 2-1 4-3 6-4 0 1 0 3 1 4l-6 3-9 3c-20 5-42 4-62 4 2 1 5 1 7 1 13 2 28 1 42 0 5 0 10-1 16-2 4-1 8-3 11-5v118 34c0 2-1 7 0 9 1 5 1 15-1 19-5-5-22-14-30-14 0 0-4-1-5-1-1-1-2-1-3-2 5-2 10-1 14-6 3-2 4-4 3-7 0-3-1-6-3-9 0-2-1-4-2-6 0-2-1-5-3-7l1-1 2 3h1l-8-19c-4-9-8-18-13-27-8-15-18-30-30-43z" class="K"></path><path d="M255 300l2 3h1c2 3 3 10 7 12h0c2-1 2-1 4 0-1 1-1 2-2 3s-2 1-3 1c-1 1-1 2-2 4 0-3-1-6-3-9 0-2-1-4-2-6 0-2-1-5-3-7l1-1z" class="P"></path><path d="M248 338c0-1 1-1 2-1 3 1 7 2 11 3 8 2 15 5 22 9l1-15c1 5 1 15-1 19-5-5-22-14-30-14 0 0-4-1-5-1z" class="U"></path><defs><linearGradient id="H" x1="664.139" y1="156.832" x2="488.217" y2="415.067" xlink:href="#B"><stop offset="0"></stop><stop offset="1" stop-color="#402424"></stop></linearGradient></defs><path fill="url(#H)" d="M631 265c-2-18-10-35-21-49-9-11-21-19-32-28-5-4-9-9-15-12-5-3-10-3-16-4l-20-31c14 10 29 19 47 24 28 10 61 13 90 7 10-1 19-4 27-8 1-1 4-3 5-3 1-2 1-3 3-5l4 5v1c0 1 1 2 1 3 4 5 2 13 1 18-3 12-13 21-20 31l-16 23c-2 3-4 9-7 12-1-3-2-5-3-7l-1-1-2-2v-1c-1 1-1 0-1 1s1 2 1 3v2c2 7 4 13 4 21 0 6-2 12-4 17-2 9-4 18-4 26-2 21 2 42 0 64l-3 15c-3 17-9 35-15 52-10 28-23 55-36 82-6 11-10 23-16 34l-12 28c0 1 1 1 1 2-5 14-16 27-30 33h0l-11 2-2-1-4-4-4-7v-1c-2-3-2-5-3-8 1-1 2-3 3-5l8-20c1-4 3-8 5-12l8-19 15-39c3-7 5-14 9-19 0-4 2-7 3-10 1-2 2-5 4-7l40-100c-1-2 0-4 1-7l4-10c1-1 1-2 2-3 7-22 13-42 13-65l-1-18z"></path><path d="M631 265c0 2 1 5 2 6 7 0 11-5 17-6-7 4-15 10-18 18l-1-18z" class="C"></path><path d="M614 205v-1l-2-3 2-1h1c8 10 11 21 14 33-2-3-3-7-4-10-3-6-7-12-11-18z" class="P"></path><path d="M619 348h0c2-1 4-4 5-5l13-12c1-1 4-5 5-5v1c-5 6-12 13-16 20-3 4-4 10-6 14 0 2 0 4-1 5h-1c1-4 2-7 3-10-4 2-7 8-9 12-1-2 0-4 1-7l4-10c1-1 1-2 2-3z" class="C"></path><defs><linearGradient id="I" x1="624.275" y1="208.157" x2="660.501" y2="147.719" xlink:href="#B"><stop offset="0" stop-color="#4a4a4b"></stop><stop offset="1" stop-color="#868389"></stop></linearGradient></defs><path fill="url(#I)" d="M696 161c-5 10-14 15-24 18-13 5-27 7-40 9-7 1-13 1-19 2h0c4 3 9 6 11 9v1c-5-4-10-8-16-11 2 4 5 8 7 11h-1l-2 1 2 3v1c-2-2-5-5-7-8-5-4-9-8-15-11l29-2c24-2 51-5 71-20h-1c1-1 4-3 5-3z"></path><defs><linearGradient id="J" x1="606.259" y1="464.064" x2="575.741" y2="438.436" xlink:href="#B"><stop offset="0" stop-color="#c5aeb5"></stop><stop offset="1" stop-color="#f9fffe"></stop></linearGradient></defs><path fill="url(#J)" d="M612 368c2-4 5-10 9-12-1 3-2 6-3 10h1l-21 62-10 27-6 15c-1 2-1 4-1 7s0 6-1 9c0 2-1 6-1 8l-17 70h-1c0-2 1-4 1-6-3 3-3 7-5 10 0-5 2-8 3-13h-1-1v-2h-1c0-2 1-4 1-6l3-16 6-25c0-3 0-5 1-8l2-15c0-1 0-2-1-3l-4 5c0-4 2-7 3-10 1-2 2-5 4-7l40-100z"></path><path d="M562 548l4-3-4 13c-3 3-3 7-5 10 0-5 2-8 3-13 1-2 2-4 2-7z" class="B"></path><path d="M569 480c2-2 4-5 6-5 2 1 2 2 2 4 1 8-1 16-2 24l-9 42-4 3c0 3-1 5-2 7h-1-1v-2h-1c0-2 1-4 1-6l3-16 6-25c0-3 0-5 1-8l2-15c0-1 0-2-1-3z" class="D"></path><path d="M570 483l1-3h1c1 0 1 1 1 1 1 1 0 4-1 5 0 2-1 4-1 7 0 2 0 4-1 6v-4 1l-1 3-1-1 2-15zm-8 65c0-2 1-4 1-6 0-3 0-5 1-7 0-2 2-3 2-5-1-7 3-13 4-19 0-2 1-3 1-5v-5c1-5 4-10 3-15v-3c1-2-1-3-2-5 1-1 1-2 3-2l1 2c0 1 0 1 1 2v-1c1 8-1 16-2 24l-9 42-4 3z" class="I"></path><path d="M612 368c2-4 5-10 9-12-1 3-2 6-3 10-11 31-22 64-40 93-2 2-4 7-6 9l40-100z" class="Q"></path><path d="M696 161c1-2 1-3 3-5l4 5v1c0 1 1 2 1 3 4 5 2 13 1 18-3 12-13 21-20 31l-16 23c-2 3-4 9-7 12-1-3-2-5-3-7l-1-1-2-2v-1c-1 1-1 0-1 1s1 2 1 3v2c-2-4-4-9-6-12-7-12-16-23-26-32v-1c-2-3-7-6-11-9h0c6-1 12-1 19-2 13-2 27-4 40-9 10-3 19-8 24-18z" class="K"></path><path d="M624 199c13 13 27 26 35 43l-1-1-2-2v-1c-1 1-1 0-1 1s1 2 1 3v2c-2-4-4-9-6-12-7-12-16-23-26-32v-1z" class="G"></path><path d="M585 489c1-7 2-14 4-21 1-6 4-12 6-17l9-26c2-6 3-13 6-19 2-4 4-10 5-14l4-16 1-1c0-1 0-2 1-3h1c2-1 5-3 7-3s4 0 5-1h1 1c1-1 1-1 2-1h2 1 1c1 0 1-1 3-1h2 0l2 1 1-1v1c2 2 1 5 0 7v2 2 1l-1 4h0v3 1c-3 17-9 35-15 52-10 28-23 55-36 82-6 11-10 23-16 34l-12 28c0 1 1 1 1 2-5 14-16 27-30 33h0l-11 2-2-1-4-4-4-7v-1c-2-3-2-5-3-8 1-1 2-3 3-5l8-20c1-4 3-8 5-12l8-19 15-39c3-7 5-14 9-19l4-5c1 1 1 2 1 3l-2 15c-1 3-1 5-1 8l-6 25-3 16c0 2-1 4-1 6h1v2h1 1c-1 5-3 8-3 13 2-3 2-7 5-10 0 2-1 4-1 6h1l17-70c0-2 1-6 1-8 1-3 1-6 1-9l3 3v9h1z" class="H"></path><path d="M553 596c5-4 8-9 11-14 0 3-2 6-3 9-1 2-4 5-6 8h0l-1-2c-1 1-2 3-3 4v1c0 1-2 2-3 3h0l1-1c1-1 1-2 1-3h0c1-2 3-3 3-5z" class="D"></path><path d="M584 489h1l-4 25c-1 2-1 4-2 6v1l-3 15c0 3 0 6-1 8v6c-1 2 0 4-1 6v3h0v1l-1 1c0 2 0 2-1 3l1 1-2 2v-1c3-10 3-19 4-29 0-6 2-12 3-18l3-21 3-9z" class="I"></path><path d="M581 477l3 3v9l-3 9-3 21c-1 6-3 12-3 18-1 10-1 19-4 29-1 2-7 14-7 16-3 5-6 10-11 14 0-2 1-5 2-7l3-9 2-9c1-1 1-2 1-3s1-2 1-4l17-70c0-2 1-6 1-8 1-3 1-6 1-9z" class="B"></path><path d="M581 477l3 3v9l-3 9v-2h0c1-1 0-2 0-3l1-1c0-1 0-2-1-3-1 1-1 3-1 4l-1 1c0-2 1-6 1-8 1-3 1-6 1-9z" class="H"></path><path d="M548 605c0 1-1 2-2 3l-1-1-2 2c0 1-1 1-2 2s-1 1-3 1v-1h-1v-2-3l-1-1h-1l-1 1 1 2h0v2 2c-1 2-1 3 0 5h1c1-1 2-1 4-2h1 0l1-1h1c0-1 0-1 1-2 2 0 3-1 4-2l2-2 1-1c2-1 4-2 5-4 0-1-1 0 1-1l1-2h1l3-5 4-6v-1s1-1 1-2l2-2c3-5 5-12 8-17 0-3 2-5 2-8 1-1 2-3 3-4h0l-12 28c0 1 1 1 1 2-5 14-16 27-30 33h0l-11 2-2-1-4-4-4-7v-1c-2-3-2-5-3-8 1-1 2-3 3-5l8-20s1 1 1 2v3l-1 9c0 1 1 2 2 2 1-1 1-3 1-4 1-2 2-3 3-4v-1l-1 7 1 1c0 4-2 11 0 14 1 1 2 2 3 2h1 0c0-3 1-8 3-10v-1h0v1 1c0 4-4 12-2 16h0c2-2 4-5 6-6s4-4 5-5c0 1 0 2-1 3l-1 1z" class="I"></path><path d="M530 611v6l1 2h-3l-4-4 3-1 3-3z" class="D"></path><path d="M570 583c0 1 1 1 1 2-5 14-16 27-30 33h0l-11 2-2-1h3l3-1c17-5 28-20 36-35z" class="S"></path><path d="M528 588c0 1 1 2 2 2 1-1 1-3 1-4 1-2 2-3 3-4v-1l-1 7c-1 7-1 16-3 23l-3 3c-3-5-2-9-1-14l2-12z" class="E"></path><path d="M528 574s1 1 1 2v3l-1 9-2 12c-1 5-2 9 1 14l-3 1-4-7v-1c-2-3-2-5-3-8 1-1 2-3 3-5l8-20z" class="F"></path><path d="M517 599c1-1 2-3 3-5 0 3 1 10 0 13-2-3-2-5-3-8z" class="N"></path><path d="M565 485l4-5c1 1 1 2 1 3l-2 15c-1 3-1 5-1 8l-6 25-3 16c0 2-1 4-1 6h1v2h1 1c-1 5-3 8-3 13 2-3 2-7 5-10 0 2-1 4-1 6h1c0 2-1 3-1 4s0 2-1 3l-2 9-3 9c-1 2-2 5-2 7s-2 3-3 5h0c-1 1-3 4-5 5s-4 4-6 6h0c-2-4 2-12 2-16v-1-1h0v1c-2 2-3 7-3 10h0-1c-1 0-2-1-3-2-2-3 0-10 0-14l-1-1 1-7v1c-1 1-2 2-3 4 0 1 0 3-1 4-1 0-2-1-2-2l1-9v-3c0-1-1-2-1-2 1-4 3-8 5-12l8-19 15-39c3-7 5-14 9-19z" class="B"></path><path d="M557 553h1v2h1 1c-1 5-3 8-3 13l-2 4c-1 2-1 4-2 6-1 1-1 2-1 3-1 2-2 4-2 7h-2l9-35zm-15-8c1-3 3-9 5-11 0 1-1 4-1 5l-12 50-1-1 1-7 3-19c2-6 3-12 5-17z" class="H"></path><path d="M541 543l1 2c-2 5-3 11-5 17l-3 19v1c-1 1-2 2-3 4 0 1 0 3-1 4-1 0-2-1-2-2l1-9v-3c0-1-1-2-1-2 1-4 3-8 5-12l8-19z" class="J"></path><path d="M557 568c2-3 2-7 5-10 0 2-1 4-1 6h1c0 2-1 3-1 4s0 2-1 3l-2 9-3 9c-1 2-2 5-2 7s-2 3-3 5h0c-1 1-3 4-5 5 0-4 0-6 1-9s1-7 2-9h2c0-3 1-5 2-7 0-1 0-2 1-3 1-2 1-4 2-6l2-4z" class="E"></path><path d="M553 583s1-1 2-1h-1c0-1 0-2 1-3v-1h0 1c0-1 1-1 2-2-1 3-2 6-3 10l-1 1v2l-1 1v1c-1 2-3 3-4 5 0-2 1-7 2-9 1-1 1-3 2-4z" class="L"></path><path fill="#a81c28" d="M557 568c2-3 2-7 5-10 0 2-1 4-1 6h1c0 2-1 3-1 4h-1v1l-2 5v2c-1 1-2 1-2 2h-1 0v1c-1 1-1 2-1 3h1c-1 0-2 1-2 1 0-4 2-7 2-11l2-4z"></path><path d="M555 572c0 4-2 7-2 11-1 1-1 3-2 4-1 2-2 7-2 9-1 1-1 2-1 3 1 1 2 1 2 2h0c-1 1-3 4-5 5 0-4 0-6 1-9s1-7 2-9h2c0-3 1-5 2-7 0-1 0-2 1-3 1-2 1-4 2-6z" class="N"></path><defs><linearGradient id="K" x1="584.71" y1="745.847" x2="391.29" y2="654.653" xlink:href="#B"><stop offset="0" stop-color="#d71322"></stop><stop offset="1" stop-color="#92222d"></stop></linearGradient></defs><path fill="url(#K)" d="M426 408v-12l3 7c2 5 4 9 6 13 2 2 3 5 5 8l32 78 11 29c1 1 4 6 3 7l29 70c2-2 2-6 2-9 1 3 1 5 3 8v1l4 7 4 4 2 1 6 7c3 4 6 8 8 13 7 14 9 30 12 45l1 7c1 2 1 5 2 7l9-23c1-1 1-3 2-5h0v3 1c0 5-2 11-4 17l-6 26c-3 11-3 23-4 34l-2 16-1 5v5c-1 0 0 0 0 1l-1 1-1 14v2l1-1h0 1l-1 2v2l-41 106h0l-1-3-32-82 5-17 1-10h1l3-27c-1-5 0-10 0-14 1-15 1-30-1-44l-2 2c-1-7 0-14-3-20-1 0-2-3-3-4-2-3-3-6-5-9 1-1 2-1 3-2l-1-3-1-2c1-4-1-8-2-11l-4-12-20-87-14-54-6-18c-1-3-2-7-2-11 0-3-2-7-3-10 1-3-1-11-1-15v-2h1 0v-3l-1-8c1-2-1-3 0-4 2-6 1-14 1-21 1-3 0-5 2-6z"></path><path d="M533 819c1-4 0-8 1-11s1-7 1-10h1v7c-1 2 0 4 0 6 0 7 0 14-1 21-1-4-2-7-2-11v-2z" class="B"></path><path d="M490 588h2l3 17c0 2 1 4 1 6-3-6-4-10-5-17-1-2-1-4-1-6z" class="E"></path><path d="M528 703h1v1 2c1 3 0 6 1 9 0-2 0-3-1-5l2-4h1v-2h1v2c0 1 0 3-1 4v6 1c-1 0-1 1-1 1v5c0 1-1 2-1 3-1 1-1 3-1 4-1-8 1-17-1-25l-1-2h1z" class="D"></path><path d="M509 646c1 4 1 10 1 15l3 22-3-3-4-29c2 1 2 6 3 8 0 1-1 3 0 4v4c1 1 0 3 1 4h0v-1-4l-1-2 1-1-1-1h0v-2-6c-1-2 0-4-1-6v-1l1-1z" class="Q"></path><path d="M510 680l3 3 1 10 5 50c0 4 0 8 1 11v1c-1-1-1-3-1-4l-9-71z" class="V"></path><path d="M482 572l1 4h0l5 49c1 2 1 3 1 5l-1-2-8-55h1c1 0 1-1 1-1z" class="Q"></path><path d="M524 660c1 4 1 8 1 12l1 28c-2-7-3-14-4-20-1-2-1-4-1-5h1v2c0 1 1 2 1 3h0v-1c1-1 0-4 0-5v-1c1-2 0-4 0-6s1-5 1-7z" class="I"></path><path d="M508 821h1l2 78c-1-1-2-3-2-4-2-8-1-15-2-23l-5-37 1-2c1 3 1 6 2 9l3 22c1-5 1-11 1-17l-1-26z" class="B"></path><path d="M531 644c2 6 4 15 5 22-1 2-1 5-1 7l1 1-3 28v2h-1v2h-1l-2 4c1 2 1 3 1 5-1-3 0-6-1-9v-2-1h-1l-1-21-1-19c1 2 1 2 1 4 1 1 1 1 3 1v-2l-1-1v-2h0l1-1v2l2-2-3-16 1-2h0 1z" class="F"></path><path d="M530 662v2c2 8 2 15 0 23v1c-1-1-1-1-2-1 0-1 0-2 1-3l-2-2-1-19c1 2 1 2 1 4 1 1 1 1 3 1v-2l-1-1v-2h0l1-1z" class="I"></path><path fill="#e3a0a4" d="M531 644c2 6 4 15 5 22-1 2-1 5-1 7l1 1-3 28v2h-1c1-13 2-28 0-42l-3-16 1-2h0 1z"></path><path d="M483 531c1 1 4 6 3 7 0 2 0 3 1 4v4c1 2 1 4 2 6h0c-1 1 0 1-1 2-1 0-1 2 0 3v1l4 30h-2l-1-5v1l-1 1-1 1h-1v-5l-1-3v2c1 2 1 4 0 5v1-6c-1-2-1-4-1-5l-1 1h0l-1-4-4-36c1 2 1 3 3 5v-4l-1-1c0-2-1-3-1-4h1l1 1h1v-1l1-1z" class="Y"></path><path fill="#dd5b62" d="M483 531c1 1 4 6 3 7 0 2 0 3 1 4v4 1h-1l-3-6c0-2 0-4-2-6h0l1-3 1-1z"></path><path d="M485 564l4 19v1l-1 1-1 1h-1v-5c0-5-3-13-1-17z" class="B"></path><path d="M478 536c1 2 1 3 3 5 0 8 3 15 4 23-2 4 1 12 1 17l-1-3v2c1 2 1 4 0 5v1-6c-1-2-1-4-1-5l-1 1h0l-1-4-4-36z" class="D"></path><path d="M503 764v-1c1-2 0-10-1-12v-3l-1 1v-3c-1-1-1-3-1-5s-1-4-1-6c1 3 2 3 3 6v2c0 1 1 2 1 3h1c2 8 4 17 5 25l5 33 4 35h-1c-2-11-2-24-5-35 0-1 0-1-1-2v-2c-2 1-2 2-2 3-2 5 0 13 0 18h-1l-5-57z" class="N"></path><path d="M486 538l29 70c2-2 2-6 2-9 1 3 1 5 3 8v1 4l1 1c-1 2 0 3 0 5 3 8 8 17 10 26h-1 0l-1 2 3 16-2 2v-2l-1 1h0v2l1 1v2c-2 0-2 0-3-1 0-2 0-2-1-4l-2-10c-1 2 0 5 0 7s-1 5-1 7 1 4 0 6v1c0 1 1 4 0 5v1h0c0-1-1-2-1-3v-2h-1c-1-7-2-14-4-21l-6-29c-2-7-3-14-6-20 0 5 0 11 1 16l3 25-1 1v1c1 2 0 4 1 6v6 2h0l1 1-1 1 1 2v4 1h0c-1-1 0-3-1-4v-4c-1-1 0-3 0-4-1-2-1-7-3-8l-3-22-6-38c-1-10-2-21-6-30h0l-3-3v-1c-1-1-1-3 0-3 1-1 0-1 1-2h0c-1-2-1-4-2-6v-4c-1-1-1-2-1-4z" class="K"></path><path d="M489 552l2 9h0l-3-3v-1c-1-1-1-3 0-3 1-1 0-1 1-2h0z" class="E"></path><path d="M526 636l3 10 3 16-2 2v-2l-4-17c0-2-1-4-1-6 0-1 0-2 1-3z" class="H"></path><path d="M515 608c2-2 2-6 2-9 1 3 1 5 3 8v1 4l1 1c-1 2 0 3 0 5 3 8 8 17 10 26h-1 0l-1 2-3-10-11-28z" class="Z"></path><path d="M536 666c0 1 1 3 1 4 0 2 0 3 1 4l1 7h1 0l1 1c0 1 1 1 1 2v1c1 6 3 12 4 19 2 11 2 21 2 32 0 1 1 2 1 3 0 3 0 7-1 10l-1 19-1 7h0c1-1 1-3 2-4h2c1-2 2-3 2-5h-1c1-1 2-2 2-3v2c-1 1-1 1-1 2 0 2 0 3-1 5l-1 1v2l-1 1c-1 1-2 2-2 3h1l-4 7c-1 1-2 3-3 4 0 2-1 2-2 3 0 1-1 1-2 2v-1-1c1-1 2-3 2-5h-1v-3h0c-2 2-1 6-1 9v1c0 1-1 2-1 3h-1c0 3 0 7-1 10s0 7-1 11c-1-1-2-4-3-5s-1-2-1-3v-2c-1-1-1-2-1-3v-4c-1-2-1-3-1-5v-1h0 0v-1c1 0 2 1 2 2v4c0 2 1 5 1 8 0-3 1-7 0-10-1-8 1-16 0-24v-2c0-2 0-3 1-5v-7l-2-31c0-1 0-3 1-4 0-1 1-2 1-3v-5s0-1 1-1v-1-6c1-1 1-3 1-4v-2-2l3-28-1-1c0-2 0-5 1-7z" class="E"></path><path d="M532 717c1-2 2-3 3-4v14c0 2 1 9 0 10-1-2 0-8-1-10l-1 1c-1-4-1-7-1-11z" class="N"></path><path d="M532 717c0 4 0 7 1 11l-2 42v-2-7l-2-31c0-1 0-3 1-4 0-1 1-2 1-3v-5l1-1z" class="I"></path><path d="M546 775c-1 1 0 3-2 4l-1-1 1-11c0-1 0-1 1-2 2-3 1-7 1-10v-11c0-2 0-3 1-5 0 3-1 7 1 9v1l-1 19-1 7z" class="Y"></path><path d="M536 666c0 1 1 3 1 4 0 2 0 3 1 4l1 7c3 16 2 30 1 45 0 10 0 20-2 29v4c-1-1-1 0-1-1 1-4 1-7 1-10v-24c0-4 1-8 0-12-1-1 0-4-1-5l-1-1-1 7c-1 1-2 2-3 4l-1 1s0-1 1-1v-1-6c1-1 1-3 1-4v-2-2l3-28-1-1c0-2 0-5 1-7z" class="W"></path><path d="M539 690c1 7 0 15-1 22-1-1 0-4-1-5l-1-1c0-2 1-8 2-10 0-2 0-4 1-6z" class="L"></path><path d="M536 674c2 4 2 12 3 16-1 2-1 4-1 6-1 2-2 8-2 10l-1 7c-1 1-2 2-3 4l-1 1s0-1 1-1v-1-6c1-1 1-3 1-4v-2-2l3-28z" class="F"></path><path d="M520 608l4 7 4 4 2 1 6 7c3 4 6 8 8 13 7 14 9 30 12 45l1 7c1 2 1 5 2 7l9-23c1-1 1-3 2-5h0v3 1c0 5-2 11-4 17l-6 26c-3 11-3 23-4 34l-2 16-1 5c-4 6-7 12-12 17 1-1 2-3 3-4l4-7h-1c0-1 1-2 2-3l1-1v-2l1-1c1-2 1-3 1-5 0-1 0-1 1-2v-2c0 1-1 2-2 3h1c0 2-1 3-2 5h-2c-1 1-1 3-2 4h0l1-7 1-19c1-3 1-7 1-10 0-1-1-2-1-3 0-11 0-21-2-32-1-7-3-13-4-19v-1c0-1-1-1-1-2l-1-1h0-1l-1-7c-1-1-1-2-1-4 0-1-1-3-1-4-1-7-3-16-5-22-2-9-7-18-10-26 0-2-1-3 0-5l-1-1v-4z" class="T"></path><path d="M553 710v-6l1 1c0 3 0 5 1 7 1 8 2 17 0 24v-10l-1 1v1l-1-2v-16z" class="Y"></path><path d="M553 726l1 2v-1l1-1v10c0 14 1 32-7 43h-1c0-1 1-2 2-3l1-1v-2l1-1c1-2 1-3 1-5 0-1 0-1 1-2v-2c0 1-1 2-2 3h1c0 2-1 3-2 5h-2c-1 1-1 3-2 4h0l1-7 1 1h1l1-1v-1-1c0-1 0-1 1-2v-1-1c1-1 1-2 1-3-1-3-1-6-1-9 0-8 1-16 2-24z" class="R"></path><path d="M533 630c5 6 8 12 11 20 4 9 5 19 7 28 2 11 5 23 4 34-1-2-1-4-1-7l-1-1v6c-2-13-3-26-6-38 0-4-2-7-3-11-2-9-5-18-10-27-1-1-1-2-1-4z" class="J"></path><path d="M531 644c-2-9-7-18-10-26 0-2-1-3 0-5 3 6 8 11 12 17 0 2 0 3 1 4 5 9 8 18 10 27 1 4 3 7 3 11 3 12 4 25 6 38v16c-1 8-2 16-2 24 0 3 0 6 1 9 0 1 0 2-1 3v1 1c-1 1-1 1-1 2v1 1l-1 1h-1l-1-1 1-19c1-3 1-7 1-10 0-1-1-2-1-3 0-11 0-21-2-32-1-7-3-13-4-19v-1c0-1-1-1-1-2l-1-1h0-1l-1-7c-1-1-1-2-1-4 0-1-1-3-1-4-1-7-3-16-5-22z" class="B"></path><path d="M547 691c1 0 1 0 2 1s1 2 1 4h-2l-1-1v-4z" class="F"></path><defs><linearGradient id="L" x1="499.565" y1="620.02" x2="429.388" y2="619.98" xlink:href="#B"><stop offset="0" stop-color="#700610"></stop><stop offset="1" stop-color="#422828"></stop></linearGradient></defs><path fill="url(#L)" d="M426 408v-12l3 7c2 5 4 9 6 13 2 2 3 5 5 8l32 78 11 29-1 1v1h-1l-1-1h-1c0 1 1 2 1 4l1 1v4c-2-2-2-3-3-5l4 36s0 1-1 1h-1c-3-22-6-43-12-64-1-3-2-7-4-9h0c-2 3-1 10-1 14 1 20 5 39 8 58 1 10 3 19 4 29l8 41 3 18c0 3 0 5 1 8l17 78h-1c0-1-1-2-1-3v-2c-1-3-2-3-3-6 0 2 1 4 1 6s0 4 1 5v3l1-1v3c1 2 2 10 1 12v1l5 57 1 26c0 6 0 12-1 17l-3-22c-1-3-1-6-2-9l-1 2 5 37c1 8 0 15 2 23 0 1 1 3 2 4l1 2c-1 0-1 1-2 1l-32-82 5-17 1-10h1l3-27c-1-5 0-10 0-14 1-15 1-30-1-44l-2 2c-1-7 0-14-3-20-1 0-2-3-3-4-2-3-3-6-5-9 1-1 2-1 3-2l-1-3-1-2c1-4-1-8-2-11l-4-12-20-87-14-54-6-18c-1-3-2-7-2-11 0-3-2-7-3-10 1-3-1-11-1-15v-2h1 0v-3l-1-8c1-2-1-3 0-4 2-6 1-14 1-21 1-3 0-5 2-6z"></path><path d="M441 472l2 8-2 2-1-5c0-2 0-3 1-5z" class="Q"></path><path d="M441 482l2-2c1 6 3 13 4 18-1-1-2-1-2-2v-2-1-1c-1-1-1-1-1-2v1h0l1 5c0 3 0 6 1 9l-1 1c0-1-3-21-4-24z" class="H"></path><path d="M476 672v-5c0-1 0-2 1-2 4 14 9 28 10 43l-2 2c-1-7 0-14-3-20-1 0-2-3-3-4-2-3-3-6-5-9 1-1 2-1 3-2l-1-3z" class="S"></path><path d="M474 677c1-1 2-1 3-2 2 5 4 10 5 15-1 0-2-3-3-4-2-3-3-6-5-9z" class="F"></path><path d="M449 560v-5l19 79 7 24c0 2 2 5 2 7-1 0-1 1-1 2v5l-1-2c1-4-1-8-2-11l-4-12-20-87z" class="C"></path><defs><linearGradient id="M" x1="435.615" y1="475.126" x2="425.448" y2="476.585" xlink:href="#B"><stop offset="0" stop-color="#c7c1c4"></stop><stop offset="1" stop-color="#fefeff"></stop></linearGradient></defs><path fill="url(#M)" d="M426 408v-12l3 7c-3 4 0 14 0 19-1 4 0 10 0 14l-1 1c2 28 8 57 14 84l5 21c0 4 2 9 2 13v5l-14-54-6-18c-1-3-2-7-2-11 0-3-2-7-3-10 1-3-1-11-1-15v-2h1 0v-3l-1-8c1-2-1-3 0-4 2-6 1-14 1-21 1-3 0-5 2-6z"></path><path d="M426 408v-12l3 7c-3 4 0 14 0 19-1 4 0 10 0 14l-1 1c-2-9-2-20-2-29z" class="O"></path><path d="M503 833c0-3 0-6-1-9l-2-17-4-42-1-18v-12-5l1 1c3 2 2 7 3 11l4 22 5 57 1 26c0 6 0 12-1 17l-3-22c-1-3-1-6-2-9z" class="E"></path><defs><linearGradient id="N" x1="476.016" y1="570.524" x2="451.416" y2="580.304" xlink:href="#B"><stop offset="0" stop-color="#7c2325"></stop><stop offset="1" stop-color="#bc1929"></stop></linearGradient></defs><path fill="url(#N)" d="M445 506l1-1c-1-3-1-6-1-9l-1-5h0v-1c0 1 0 1 1 2v1 1 2c0 1 1 1 2 2l4 21 15 57 4 18c0 2 1 4 1 6 2 1 1 3 2 5 1 0 0 1 1 2v1 1c0 1 0 2 1 3v2c0 1 1 2 1 3l1 2h0v-1-1c0-3-1-5-1-7v-2l-1-5-1-2h1l8 41 3 18c0 3 0 5 1 8h-1v1 2h0c-1-3-1-6-2-8-1-4-2-7-3-10l-9-28-11-46c-6-24-12-48-16-73z"></path><path d="M471 600c2 1 1 3 2 5 1 0 0 1 1 2v1 1c0 1 0 2 1 3v2c0 1 1 2 1 3l1 2h0v-1-1c0-3-1-5-1-7v-2l-1-5-1-2h1l8 41 3 18c0 3 0 5 1 8h-1c0-6-2-12-3-18l-12-50z" class="V"></path><path d="M488 766v5h2l1 2c1-1 1-3 1-4v4-1c0-1 1-2 1-3v6 1c1 3-1 7 0 10l1 1c2 7 2 14 3 22 2 8 4 17 5 26l5 37c1 8 0 15 2 23 0 1 1 3 2 4l1 2c-1 0-1 1-2 1l-32-82 5-17 1-10h1l3-27z" class="E"></path><path d="M492 773v-1c0-1 1-2 1-3v6 1c1 3-1 7 0 10-1 10-1 19-1 28 0 6 1 12 0 18l-4-30c1-8 3-16 2-24 1-2 1-3 2-5z" class="D"></path><path d="M488 766v5h2l1 2c1-1 1-3 1-4v4c-1 2-1 3-2 5 1 8-1 16-2 24v-1-3h0c0 2 0 3-2 4h-1-1 0l-1 1 1-10h1l3-27z" class="L"></path><path d="M488 766v5h2l1 2c1-1 1-3 1-4v4c-1 2-1 3-2 5h0v-5h-1c-1 1 0 2 0 3 0 5 0 10-2 14v3c-1 0-1 0-2 1v-1l3-27z" class="B"></path><defs><linearGradient id="O" x1="493.863" y1="471.431" x2="411.388" y2="553.819" xlink:href="#B"><stop offset="0"></stop><stop offset="1" stop-color="#2c1e20"></stop></linearGradient></defs><path fill="url(#O)" d="M429 422c0-5-3-15 0-19 2 5 4 9 6 13 2 2 3 5 5 8l32 78 11 29-1 1v1h-1l-1-1h-1c0 1 1 2 1 4l1 1v4c-2-2-2-3-3-5l4 36s0 1-1 1h-1c-3-22-6-43-12-64-1-3-2-7-4-9h0c-2 3-1 10-1 14 1 20 5 39 8 58 1 10 3 19 4 29h-1l1 2 1 5v2c0 2 1 4 1 7v1 1h0l-1-2c0-1-1-2-1-3v-2c-1-1-1-2-1-3v-1-1c-1-1 0-2-1-2-1-2 0-4-2-5 0-2-1-4-1-6l-4-18-15-57-4-21c-1-5-3-12-4-18l-2-8c0-2-1-5-1-6l-3-13c-3-10-4-21-8-31z"></path><path d="M472 502l11 29-1 1v1h-1l-1-1h-1c0 1 1 2 1 4l1 1v4c-2-2-2-3-3-5l-3-20c-1-5-3-9-3-14z" class="J"></path><defs><linearGradient id="P" x1="729.024" y1="169.333" x2="805.717" y2="356.613" xlink:href="#B"><stop offset="0"></stop><stop offset="1" stop-color="#472526"></stop></linearGradient></defs><path fill="url(#P)" d="M730 170c1-1 3-4 4-4 1 1 1 2 2 3 7 8 46 4 58 3 22-2 46-6 67-15 7-2 14-5 20-10 4-3 7-7 10-12l-3 10v3c-3 8-8 16-12 23-1 2-2 6-4 7-2 3-10 4-13 5-6 2-11 5-16 7-3 2-6 3-9 5-8 5-16 10-23 17h-4l-1 1v-1c-6 7-12 13-17 21-4 5-7 11-11 17v1h0c-5 4-5 11-7 16s-4 11-7 17l-6 16v2c-3 4-5 9-6 13-2 4-4 8-5 13-2 4-3 9-5 12h-1c1 3 1 5 1 7l2-1h1v1h0l-13 12 1 1c-2 1-4 3-5 4s-3 5-3 6c-2 1-4 4-5 6v2h-1c-2 1-3 3-4 5-1 1-2 2-2 4-3 4-6 9-8 13l-9 19-19 36c-4 6-7 15-12 21-1 4-23 47-25 47l-31 53c-1 0-2 1-3 1-2 3-4 10-5 14-1 3-2 7-3 10 0 2-2 5-2 7v2c-8 12-13 25-18 39l-8 26v-1-3h0c-1 2-1 4-2 5l-9 23c-1-2-1-5-2-7l-1-7c-3-15-5-31-12-45-2-5-5-9-8-13l-6-7 11-2h0c14-6 25-19 30-33 0-1-1-1-1-2l12-28c6-11 10-23 16-34 13-27 26-54 36-82 6-17 12-35 15-52l3-15c2-22-2-43 0-64 0-8 2-17 4-26 2-5 4-11 4-17 0-8-2-14-4-21v-2c0-1-1-2-1-3s0 0 1-1v1l2 2 1 1c1 2 2 4 3 7 3-3 5-9 7-12l16-23c7-10 17-19 20-31 1-5 3-13-1-18 0-1-1-2-1-3v-1c5 5 11 12 17 14 4 1 7-4 10-5z"></path><path d="M737 178c1 1 3 2 4 2v1c0 3 1 7 2 10-3-4-4-9-6-13z" class="O"></path><path d="M744 346h1v1h0l-13 12c-2 2-4 4-7 5 5-6 11-12 17-17l2-1z" class="M"></path><defs><linearGradient id="Q" x1="817.559" y1="211.261" x2="822.846" y2="193.066" xlink:href="#B"><stop offset="0" stop-color="#7c7d7f"></stop><stop offset="1" stop-color="#a19da3"></stop></linearGradient></defs><path fill="url(#Q)" d="M806 212c8-8 18-16 29-21v1c-1 1-2 1-3 2-1 0-1 1-2 1h2s1-1 2-1h0v1c-8 5-16 10-23 17h-4l-1 1v-1z"></path><path d="M664 292c4-6 8-11 12-17 9-11 19-22 30-32-1 1-3 3-4 5l-8 9c-10 11-17 23-24 35v-2h0c0-1 1-2 1-2v-1l2-2h0v-1c1-1 1-2 2-2v-1c0-1 1-1 1-3h-1c-2 3-6 7-8 11 0 1-1 2-2 3h-1z" class="G"></path><defs><linearGradient id="R" x1="727.305" y1="305.096" x2="746.442" y2="321.617" xlink:href="#B"><stop offset="0" stop-color="#a4a6a8"></stop><stop offset="1" stop-color="#c3bdc2"></stop></linearGradient></defs><path fill="url(#R)" d="M731 293v-1l1 3v3l1 1 2-2 7 33v4l-1-5-1 1 1 3v4c-2-5-3-10-4-14-2-10-5-20-6-30z"></path><defs><linearGradient id="S" x1="757.552" y1="186.57" x2="766.644" y2="166.23" xlink:href="#B"><stop offset="0" stop-color="#29272d"></stop><stop offset="1" stop-color="#4c4a4a"></stop></linearGradient></defs><path fill="url(#S)" d="M737 178l-2-4c3 0 6 2 9 2 9 2 20 1 29 0 13-1 26-2 39-4l17-3c2 0 4-2 7-1l-12 3c-13 3-26 5-39 6-10 2-21 3-32 3h-12c-1 0-3-1-4-2z"></path><defs><linearGradient id="T" x1="722.883" y1="264.479" x2="735.066" y2="265.067" xlink:href="#B"><stop offset="0" stop-color="#706f72"></stop><stop offset="1" stop-color="#a2a1a6"></stop></linearGradient></defs><path fill="url(#T)" d="M731 293c-2-7-3-16-4-23-3-23-5-47-4-70l12 97-2 2-1-1v-3l-1-3v1z"></path><defs><linearGradient id="U" x1="854.701" y1="175.179" x2="862.184" y2="184.603" xlink:href="#B"><stop offset="0" stop-color="#b4b1b5"></stop><stop offset="1" stop-color="#d8d8d9"></stop></linearGradient></defs><path fill="url(#U)" d="M888 145v3c-3 8-8 16-12 23-1 2-2 6-4 7-2 3-10 4-13 5-6 2-11 5-16 7-3 2-6 3-9 5v-1h0c-1 0-2 1-2 1h-2c1 0 1-1 2-1 1-1 2-1 3-2v-1c1-1 4-2 5-3 7-3 14-6 21-10 3-1 5-3 8-6 9-8 13-17 19-27z"></path><defs><linearGradient id="V" x1="769.103" y1="227.956" x2="781.239" y2="271.78" xlink:href="#B"><stop offset="0" stop-color="#99979a"></stop><stop offset="1" stop-color="#e9e7e8"></stop></linearGradient></defs><path fill="url(#V)" d="M759 282c0-1 3-6 3-8 11-24 22-47 35-70h0l-13 30-6 15v1 1h0c-5 4-5 11-7 16s-4 11-7 17v-3h0c1-2 0-1 1-2h0v-1c1-1 1-1 1-2-1 0-2 0-3 1l-3 5h-1z"></path><defs><linearGradient id="W" x1="738.685" y1="307.482" x2="766.602" y2="306.472" xlink:href="#B"><stop offset="0" stop-color="#d7d5d9"></stop><stop offset="1" stop-color="#fbfaf8"></stop></linearGradient></defs><path fill="url(#W)" d="M759 282h1l3-5c1-1 2-1 3-1 0 1 0 1-1 2v1h0c-1 1 0 0-1 2h0v3l-6 16v2c-3 4-5 9-6 13-2 4-4 8-5 13-2 4-3 9-5 12h-1v-3-4l-1-3 1-1 1 5v-4c1-6 4-12 6-17 3-10 7-21 11-31z"></path><path d="M691 387c0-2-1-4-1-6-1-6-2-11-4-17-1-2-2-5-2-7 7 12 12 30 13 44 5-9 11-17 17-25 3-4 6-8 10-12h1c3-1 5-3 7-5l1 1c-2 1-4 3-5 4s-3 5-3 6c-2 1-4 4-5 6v2h-1c-2 1-3 3-4 5-1 1-2 2-2 4-3 4-6 9-8 13l-9 19-19 36c-4 6-7 15-12 21-1 4-23 47-25 47v-1h-1l24-49c1-3 4-8 6-11l12-26c-1-1-1-3 0-4s0 1 1-1v-1c1-1 1-2 2-3 0-1 0-2 1-2v-1l1-1v-1c1-2 1-2 1-3 2-2 2-5 3-8v-1-1-3h0c-1 1-2 1-3 1h-4 0c1-1 2-2 3-2 2 0 3 0 5-1 1-2 0-8 0-11v-1-1c-1-1-1-2 0-4z" class="T"></path><path d="M683 407c1-1 2-2 3-2 2 0 3 0 5-1 1-2 0-8 0-11v-1-1c-1-1-1-2 0-4 3 18-3 33-10 49-1-1-1-3 0-4s0 1 1-1v-1c1-1 1-2 2-3 0-1 0-2 1-2v-1l1-1v-1c1-2 1-2 1-3 2-2 2-5 3-8v-1-1-3h0c-1 1-2 1-3 1h-4 0z" class="H"></path><path d="M639 522l24-49v1c0 2-1 5-2 7l-9 17c0 2-4 8-4 9l2-2c0-1 1-2 2-3l2-4 1-3v-1l2-4 3-4v-1c0-1 0-1 1-2h0l1-1v-1l2-4s0-1 1-1h0c-1 4-23 47-25 47v-1h-1z" class="Z"></path><defs><linearGradient id="X" x1="610.951" y1="357.02" x2="667.458" y2="377.934" xlink:href="#B"><stop offset="0" stop-color="#c8bec1"></stop><stop offset="1" stop-color="#e1e0e1"></stop></linearGradient></defs><path fill="url(#X)" d="M703 161c5 5 11 12 17 14 4 1 7-4 10-5h0c-5 7-12 14-17 21-25 31-47 65-51 106l2-5h1c1-1 2-2 2-3 2-4 6-8 8-11h1c0 2-1 2-1 3v1c-1 0-1 1-2 2v1h0l-2 2v1s-1 1-1 2h0v2c-6 13-11 27-12 42 0 10 1 19 2 29 2 17 1 32-4 48-7 23-18 44-30 65l-24 46-20 39c-3 8-6 17-11 24 0-1-1-1-1-2l12-28c6-11 10-23 16-34 13-27 26-54 36-82 6-17 12-35 15-52l3-15c2-22-2-43 0-64 0-8 2-17 4-26 2-5 4-11 4-17 0-8-2-14-4-21v-2c0-1-1-2-1-3s0 0 1-1v1l2 2 1 1c1 2 2 4 3 7 3-3 5-9 7-12l16-23c7-10 17-19 20-31 1-5 3-13-1-18 0-1-1-2-1-3v-1z"></path><path d="M669 237c2 1 2 2 4 3h0c-1 1-1 2-1 2v1h0c-2 5-5 9-8 14l-2-8c3-3 5-9 7-12z" class="O"></path><path d="M656 292h1v5c-1 8-2 15-2 23v19l1 26v10c-1 5 0 11-2 16-1 7-3 15-6 21 0-3 3-9 4-12 0-1 0-2 1-3v-3c0-1 0-2 1-3v-5c1-2 1-5 1-6 1-2 0-6 0-8 1-2 1-6 1-8v-20c0-1-1-1-1-2 0-5 1-12 0-17 0-2 0-4-1-5-1-5-1-11 0-15 1-5 1-9 2-13z" class="M"></path><defs><linearGradient id="Y" x1="661.941" y1="210.108" x2="723.825" y2="191.901" xlink:href="#B"><stop offset="0" stop-color="#323031"></stop><stop offset="1" stop-color="#636164"></stop></linearGradient></defs><path fill="url(#Y)" d="M703 161c5 5 11 12 17 14v1c-1 2-4 4-5 5l-10 13c-8 10-16 22-23 33-3 5-6 11-10 16h0v-1s0-1 1-2h0c-2-1-2-2-4-3l16-23c7-10 17-19 20-31 1-5 3-13-1-18 0-1-1-2-1-3v-1z"></path><path d="M656 411c2-1 2-1 2-2 1-1 2-2 4-3 0-1 1-1 1-1l-1 3v1 1c-1 1-1 1 0 2v1l-1 1-1 3v1 1h0c0 2-2 4-2 6 2-2 3-10 5-12 2 0 3-2 5-3h2v-1h4 3 1c2-1 3-1 5-2h0 4c1 0 2 0 3-1h0v3 1 1c-1 3-1 6-3 8 0 1 0 1-1 3v1l-1 1v1c-1 0-1 1-1 2-1 1-1 2-2 3v1c-1 2 0 0-1 1s-1 3 0 4l-12 26c-2 3-5 8-6 11l-24 49h1v1l-31 53c-1 0-2 1-3 1-2 3-4 10-5 14-1 3-2 7-3 10 0 2-2 5-2 7v2c-8 12-13 25-18 39l-8 26v-1-3h0c-1 2-1 4-2 5l-9 23c-1-2-1-5-2-7l-1-7c-3-15-5-31-12-45-2-5-5-9-8-13l-6-7 11-2h0c14-6 25-19 30-33 5-7 8-16 11-24l20-39 24-46c12-21 23-42 30-65z" class="B"></path><path d="M557 672c1 5 3 15 0 20l-1-7v-2-1-1c1-2 0-3 0-4l1-1v-4z" class="F"></path><path d="M577 646c0 1 0 2 1 3l-8 26v-1-3h0c-1 2-1 4-2 5l9-30z" class="C"></path><path d="M575 618h0c0 4-1 8-1 12-1 8-2 17-5 25l-4 16c-1 3-2 11-4 14v-3l7-27c0-2 1-3 1-5h-1c0 1 0 1-1 2h-1l9-34z" class="N"></path><path d="M536 627l1-1c7 3 11 12 14 19s4 15 6 22v5 4l-1 1c0 1 1 2 0 4v1 1 2c-3-15-5-31-12-45-2-5-5-9-8-13z" class="D"></path><defs><linearGradient id="Z" x1="617.232" y1="587.803" x2="598.47" y2="581.599" xlink:href="#B"><stop offset="0" stop-color="#dabac1"></stop><stop offset="1" stop-color="#ece8e9"></stop></linearGradient></defs><path fill="url(#Z)" d="M639 522h1v1l-31 53c-1 0-2 1-3 1-2 3-4 10-5 14-1 3-2 7-3 10 0 2-2 5-2 7v2c-8 12-13 25-18 39-1-1-1-2-1-3l12-33c6-17 12-34 21-49s20-28 29-42z"></path><path d="M656 411c2-1 2-1 2-2 1-1 2-2 4-3 0-1 1-1 1-1l-1 3v1 1c-1 1-1 1 0 2v1l-1 1-1 3v1 1h0c0 2-2 4-2 6s-1 2-1 4c-1 1-2 3-2 5l-15 30-42 80c-7 15-14 31-22 45-6 9-12 18-20 25l-3 2c-3 1-6 3-9 4h-1-4v1h-2 0c-2 0-2 0-3 1h-1l-1-1c1-1 2 0 3 0 1-1 1-1 2-1s2 0 3-1l1-1h0c14-6 25-19 30-33 5-7 8-16 11-24l20-39 24-46c12-21 23-42 30-65z" class="I"></path><defs><linearGradient id="a" x1="372.231" y1="153.476" x2="423.305" y2="659.01" xlink:href="#B"><stop offset="0"></stop><stop offset="1" stop-color="#402021"></stop></linearGradient></defs><path fill="url(#a)" d="M458 165c15-5 27-13 37-25-9 18-23 29-38 41-4 4-9 7-12 11-2 2-4 6-6 10-3 1-7 2-11 3-8 4-16 12-21 20-9 15-11 31-11 48 0 13 2 26 5 39l8 27c2 4 4 9 5 13l7 20c4 9 7 19 10 28l5 13c2 3 3 7 4 11-2-3-3-6-5-8-2-4-4-8-6-13l-3-7v12c-2 1-1 3-2 6 0 7 1 15-1 21-1 1 1 2 0 4l1 8v3h0-1v2c0 4 2 12 1 15 1 3 3 7 3 10 0 4 1 8 2 11l6 18 14 54 20 87 4 12c1 3 3 7 2 11l1 2 1 3c-1 1-2 1-3 2 2 3 3 6 5 9 1 1 2 4 3 4 3 6 2 13 3 20l2-2c2 14 2 29 1 44 0 4-1 9 0 14l-3 27h-1c0 1 0 1-1 2l1 1-1 1v2h-1l-2-2c1-2 1-3 0-5v-1-6-4l1-1c0-1 1-3 1-4-1-2-1-8-2-10l-2-11c-2-10-6-20-9-30l-7-15-7-14-2-1c-1-2-2-3-3-5l-1 1-3-6-8-13c-8-13-18-27-30-38-2-2-5-6-7-6-1-2-1-4-2-6-3-5-5-12-7-17l-13-31-15-39c-3-7-6-14-8-20-4-7-6-15-9-22l-14-34c-4-9-7-19-12-27-3-2-6-3-9-2-2 1-4 4-5 6-2 6-2 12-3 18l-1 30-1 55c-1 11 0 23-1 34l-1 23h-1c0 3 0 5-1 7-1 3 0 8-1 12v-12l-1-23v-14l-1-25-3-99-2-35c0-10 0-20-2-30 0-4-2-9-4-13l-1-11c2-4 2-14 1-19-1-2 0-7 0-9v-34-118c-3 2-7 4-11 5-6 1-11 2-16 2-14 1-29 2-42 0-2 0-5 0-7-1 20 0 42 1 62-4l9-3 6-3c-1-1-1-3-1-4h1c1 1 2 2 3 2l12 13c8-4 12-9 18-15h0c1-2 1-4 3-5l1-2c4 1 8 4 11 6 3 0 5 1 7 2 3 1 7 2 10 3 8 2 16 3 25 4 12 1 25 1 38 0l12-1c2 0 5-1 7-1l26-6z"></path><path d="M357 235c2 0 5 2 7 3s6 1 9 1l-1 1c-2 0-4 1-5 1-4-1-7-4-10-6z" class="O"></path><path d="M385 226l4-17c0-4 0-8 1-11 1 9-1 18-2 27h0v-1c-1 0-2 1-3 2z" class="C"></path><path d="M298 556l1 40c0 3 0 5-1 7-1 3 0 8-1 12v-12l-1-23c2-3 2-5 2-8v-16z" class="P"></path><path d="M405 337l-8-14c-3-5-7-10-9-15 7 9 14 18 19 28-1 0-2 0-2 1z" class="U"></path><path d="M377 327c1-4-1-8 2-13v42c-1-2-2-6-2-9v-20z" class="G"></path><path d="M414 487c-3-8-4-16-6-24l-8-40 1-1v2c0 1 0 2 1 3v2c0 1 0 2 1 3v3c0 1 0 2 1 3v2c0 1 0 2 1 3v1 1c0 1 0 1 1 2l1-1c1 0 2 0 3 2v1 1l1 3 1 1-2-1v-1l-1-1v1l-1 1v1 2 3h0l3 11c1 5 3 12 3 17z" class="H"></path><path d="M405 337c0-1 1-1 2-1l1 3h1c2 4 4 9 5 13l7 20v1l-1-1-1 1c-4-13-8-25-14-36z" class="X"></path><path d="M359 382l-6-40c-1-5-2-10-2-15 2 4 2 9 3 13 2 11 4 23 8 33 0 1 0 2-1 2h0v6l-2 1z" class="G"></path><path d="M432 171l26-6c0 1 1 2 0 3-5 4-13 7-19 10-4 1-7 2-10 5h-1c2-3 4-4 7-6 3-1 4-1 6-3v-1l-2-1h1c-2-2-5 1-8-1z" class="U"></path><path d="M300 307l11 50c-3-2-6-11-7-15-1-2-1-2-3-4l-2-20v-5l1-6z" class="P"></path><defs><linearGradient id="b" x1="396.373" y1="238.135" x2="368.127" y2="256.865" xlink:href="#B"><stop offset="0" stop-color="#bbb9bb"></stop><stop offset="1" stop-color="#fff"></stop></linearGradient></defs><path fill="url(#b)" d="M385 226c1-1 2-2 3-2v1 5c0 7-3 13-5 20-2 4-3 10-3 15-1 3-1 6-3 8v-2c0-7-1-13-6-18h0v-1c1 1 5 2 7 1 3-2 6-22 7-27z"></path><path d="M296 317v-17-33-32c0-6 0-13 1-19v1l3 90-1 6v5l-3 1v-2z" class="G"></path><path d="M296 317l1-5h1l1 1v5l-3 1v-2z" class="C"></path><path d="M431 555c3 8 5 16 7 23 8 25 15 50 28 72l-1 2c0-2-1-2-1-3-1-1-1-2-2-3v-1l-1-2v-1l-1-1-3-7h0-1c-1 0-1-1-1-2v-2s0-2-1-2c0-1-1-1-2-3l1-1v-1l-1-1-1-3c-1-1-1-2-2-3v1 1l1 2c0 2 1 3 1 5h0c-2-2-2-5-3-8l-5-12-5-17v-2c-1-1-1-1-1-2v-1l-1-2c0-2-1-3-1-4l-1-2v-3c-1-4-3-8-3-12v1c0 1 1 1 1 2v2l1 1c0 2 1 4 1 6 1 2 0-1 1 1 0 2 0 2 1 3v-1-2l-2-7-1-1v-1c0-1-1-2-1-3v-2l-1-1v-3z" class="I"></path><path d="M303 363c2 3 3 6 5 9 2 4 5 8 8 12-1 0-3 0-4 1 1 3 2 5 2 8v2c0 1 0 1 1 2v2l6 33c-3-2-6-3-9-2-2 1-4 4-5 6-2 6-2 12-3 18l-1 30-1 55c-1 11 0 23-1 34h-1v-1-7-5c1-2 1-17 1-20v-4-13c1-2 1-11 1-13v-5-12c1-3 1-13 1-15 1-3 0-13 0-15 1-2 1-7 1-9 1-2-1-6 0-8 0-1 0-2 1-4v-3c1-3 0 0 1-2v-2l1-1v-1c1-1 3-3 5-3h1c1-1 2-1 3-1s2 1 3 1l1-1c-1-2-1-3-1-5v-3c-1-1-1-2-1-3v-2c-1-1-1-2-1-3v-2c-1-1-1-2-1-3s0-2-1-3v-1l-1-6v-1c-1-1-1-2-1-3l-1-2v-2c0-1 0-1-1-2v-2c-1-1-1-2-1-3v-2c-1 0-1 0-1-1v-1-2-1-1l-5-8c0-2-1-3-1-4h0z" class="K"></path><defs><linearGradient id="c" x1="418.369" y1="222.73" x2="385.131" y2="223.27" xlink:href="#B"><stop offset="0" stop-color="#7e7c81"></stop><stop offset="1" stop-color="#a9a8a7"></stop></linearGradient></defs><path fill="url(#c)" d="M388 230h1c2-1 5-7 7-9 1-2 3-4 4-6 10-10 21-19 32-27v1c-18 15-35 32-42 55-1 1-3 7-3 7h-1 1v-1-1-1c1-1 1-1 1-2h-2c-1 1-2 2-2 4h-1c2-7 5-13 5-20z"></path><defs><linearGradient id="d" x1="389.03" y1="160.708" x2="383.865" y2="179.677" xlink:href="#B"><stop offset="0" stop-color="#878685"></stop><stop offset="1" stop-color="#cdcbcf"></stop></linearGradient></defs><path fill="url(#d)" d="M333 164c3 0 5 1 7 2 3 1 7 2 10 3 8 2 16 3 25 4 12 1 25 1 38 0l12-1c2 0 5-1 7-1 3 2 6-1 8 1h-1l-9 2c-10 2-21 3-31 3-17 0-34-1-50-6-5-1-11-4-16-7z"></path><defs><linearGradient id="e" x1="402.741" y1="427.18" x2="424.259" y2="428.32" xlink:href="#B"><stop offset="0" stop-color="#c1c3c6"></stop><stop offset="1" stop-color="#eeeaec"></stop></linearGradient></defs><path fill="url(#e)" d="M416 444l-7-25-8-35c-1-6-3-12-3-17 3 7 4 14 6 21 5 18 9 36 16 53 1 2 2 5 4 6v3h0-1v2c0 4 2 12 1 15 1 3 3 7 3 10-2-3-2-6-3-9l-5-15c-1-3-1-6-3-9z"></path><path d="M421 372c4 9 7 19 10 28l5 13c2 3 3 7 4 11-2-3-3-6-5-8-2-4-4-8-6-13l-3-7v12c-2 1-1 3-2 6 0 7 1 15-1 21-1 1 1 2 0 4h0c-1-4-1-9-1-13l-1-28c0-9 1-17-2-25l1-1 1 1v-1z" class="C"></path><path d="M379 365c1-2 1-4 0-6h1c0 2-1 7 1 9 0 2-1 6 0 8 0 1 0 4 1 5 0 2-1 4 0 6 0 1 0 3 1 5 0 1-1 3 0 4 0 2 0 3 1 4v4c0 1 0 2 1 4v4c0 1 0 2 1 3v4c0 1 0 2 1 3v2 2c0 1 0 0 1 2v2 2c0 1 0 0 1 1v3c0 1 0 2 1 3v2c0 1 0 2 1 3v2c0 1 0 2 1 3v1h0c0 1 0 2 1 3v1 3l1 3v1c1 1 1 2 1 3s1 2 1 3 0 2 1 3v3c1 1 1 2 1 3s1 2 1 3 0 2 1 3v3l1 2v2l1 2v1c1 1 1 1 1 2v2h1v1c0 1 0 1 1 2v3l1 2v2h0c1 1 1 1 1 2l1 1v3l1 2h0c0 1 0 1 1 2v3l2 4 1 5 1 1v2c1 1 1 2 1 3 1 1 1 2 1 3l2 3v1 2l1 1c0 1 0 1 1 2 0 1 0 2 1 3l3 10v2h0c1 1 1 2 2 3v1 1l1 1v1c1 2 0-1 1 2v1c0 1 0 1 1 2s1 0 1 2l2 2h0c0 2 0 2 1 3 0 1 1 3 1 4l1 2s0 1-1 1l-1-1h0v1l1 1c0 1 0 1 1 2v2c0 1 1 2 1 3s1 2 1 3l1 2h0c0 1 0 1 1 2 0 1 0 1 1 2v1c0 1 1 2 1 3 1 2 1 3 2 4v1l1 1c-1 0-1 1-2 0l-2-6-42-129c-2 0-2-1-3-2l-8-35c1-1 1-3 1-4l-7-49-2-24z" class="K"></path><path d="M388 438l6 27c1 4 3 9 4 14-2 0-2-1-3-2l-8-35c1-1 1-3 1-4zm-5-188h1c0-2 1-3 2-4h2c0 1 0 1-1 2v1 1 1h-1 1c-5 21-7 42-8 63-3 5-1 9-2 13-1-1-2-7-1-8 0-1 0-1-1-2l-1-1v5c-1 5 0 9-1 13v2c-1-14 1-30 2-44 1-6 1-12 2-19 2-2 2-5 3-8 0-5 1-11 3-15z" class="C"></path><path fill="#fff" d="M296 319l3-1 2 20c2 2 2 2 3 4 1 4 4 13 7 15 2 4 3 8 5 11s4 6 4 9l6 11c0 1 0 2-1 2-2-2-4-5-7-7v-1l-1 1v1l1 2h0l-2-2c-3-4-6-8-8-12-2-3-3-6-5-9-1-5-3-10-5-14 0-2-1-4-1-5s1-2 1-3c-2-3-2-18-2-22z"></path><path d="M301 338c2 2 2 2 3 4 1 4 4 13 7 15 2 4 3 8 5 11s4 6 4 9c-2-2-4-5-5-8-6-9-11-19-14-31z" class="U"></path><path d="M298 341c4 13 8 24 16 35 1 2 2 5 4 6l-1 1v1l1 2h0l-2-2c-3-4-6-8-8-12-2-3-3-6-5-9-1-5-3-10-5-14 0-2-1-4-1-5s1-2 1-3z" class="G"></path><path d="M321 160c-2 12-1 25 3 37 2 4 3 10 6 14l21 39h-1c-10-16-20-32-32-47-10-12-20-23-31-34h-1-1c-1-1-1-3-1-4h1c1 1 2 2 3 2l12 13c8-4 12-9 18-15h0c1-2 1-4 3-5z" class="C"></path><path d="M321 160c-2 12-1 25 3 37l-1 1c0-1 0-2-1-3h-1c1 1 1 1 1 3l-6-11c-3-7-1-15 2-22h0c1-2 1-4 3-5z" class="M"></path><path fill="#fff" d="M373 336v-2c1-4 0-8 1-13v-5l1 1c1 1 1 1 1 2-1 1 0 7 1 8v20c0 3 1 7 2 9v9l2 24 7 49c0 1 0 3-1 4l8 35h0-1c-1-2-2-4-3-7-1-2-3-7-2-9-1-3-1-5-2-7-2-3-3-6-4-9s-3-6-3-9c0-2-1-5-1-7-1-3 0-8-2-11v1 2 2c0 2 1 3 1 5v1 3h1v3c1 0 0 1 0 2l-1-4v-1l-2-10c0-2 0-3-1-4l-1-1-1-10-1-1c-1-2-3-9-2-12 0 1 1 2 2 2v-6l1-54z"></path><path d="M372 390l1 17-1-1c-1-2-3-9-2-12 0 1 1 2 2 2v-6z" class="G"></path><path d="M377 418v-2h0l10 38c-2-3-3-6-4-9s-3-6-3-9c0-2-1-5-1-7-1-3 0-8-2-11zm0-71c0 3 1 7 2 9v9l2 24-1 1v-2l-1 1h0l-2-42z" class="C"></path><path d="M379 389l1-1v2l1-1 7 49c0 1 0 3-1 4l-8-53z" class="G"></path><path d="M362 373c2 7 4 15 8 21-1 3 1 10 2 12l1 1 1 10 1 1c1 1 1 2 1 4l2 10v1l1 4c0-1 1-2 0-2v-3h-1v-3-1c0-2-1-3-1-5v-2-2-1c2 3 1 8 2 11 0 2 1 5 1 7 0 3 2 6 3 9s2 6 4 9c1 2 1 4 2 7-1 2 1 7 2 9 1 3 2 5 3 7h1 0c1 1 1 2 3 2l42 129c-2 0-2-1-3-2l-33-85-16-43-10-26c-1-5-3-12-5-16l-14-54 2-1v-6h0c1 0 1-1 1-2z" class="M"></path><defs><linearGradient id="f" x1="377.546" y1="395.816" x2="358.954" y2="410.684" xlink:href="#B"><stop offset="0" stop-color="#797b78"></stop><stop offset="1" stop-color="#959098"></stop></linearGradient></defs><path fill="url(#f)" d="M362 373c2 7 4 15 8 21-1 3 1 10 2 12l1 1 1 10c1 4 6 24 5 26l-18-62v-6h0c1 0 1-1 1-2z"></path><path d="M285 169h1 1l-1 1c-1 10 0 20 0 30v53l1 60c1 11 1 22 2 34 0 1 0 5 1 6 3 4 4 6 5 10 1 8 1 16 1 24v36l2 133v16c0 3 0 5-2 8v-14l-1-25-3-99-2-35c0-10 0-20-2-30 0-4-2-9-4-13l-1-11c2-4 2-14 1-19-1-2 0-7 0-9v-34-118c-3 2-7 4-11 5-6 1-11 2-16 2-14 1-29 2-42 0-2 0-5 0-7-1 20 0 42 1 62-4l9-3 6-3z" class="X"></path><path d="M416 444c2 3 2 6 3 9l5 15c1 3 1 6 3 9 0 4 1 8 2 11l6 18 14 54 20 87 4 12c1 3 3 7 2 11-1-1-1-1-1-2l-1-1-1-4c0-1-1-2-2-4-1-3-3-6-4-9-13-22-20-47-28-72-2-7-4-15-7-23 0-1-1-3-1-5l-3-11-13-52c0-5-2-12-3-17l-3-11h0v-3-2-1l1-1v-1l1 1v1l2 1h1v-2-1h0c0 1 0 1 1 2 2-2 1 0 2 0s1-1 2-1l-1-1 1-1c-1-2-2-4-2-5v-1z" class="B"></path><path fill="#a81c28" d="M318 382v1c3 2 5 5 7 7 1 0 1-1 1-2 6 9 10 19 15 28 2 2 4 7 5 9 1 0 2 1 2 1 1 2 1 3 2 4 0 1 1 4 2 4 1 1 2 2 2 3l3 5 1-1 2 2v-1 1h0 1 1v1l1 1 1-1c1 1 1 1 1 2l1-1 1 1v1h1 1l1 1v-1l1 2 1-1h1 1 0 1 1c0-1-1-2-1-3 0-2 0 0-1-1v-2-1-1l-1-1-1-2v-1h1c2 4 4 11 5 16l10 26 16 43 33 85c1 1 1 2 3 2l2 6 19 39h1s1 1 1 2l2-2v-1l1-2c1 3 3 6 4 9 1 2 2 3 2 4l1 4 1 1c0 1 0 1 1 2l1 2 1 3c-1 1-2 1-3 2 2 3 3 6 5 9 1 1 2 4 3 4 3 6 2 13 3 20l2-2c2 14 2 29 1 44 0 4-1 9 0 14l-3 27h-1c0 1 0 1-1 2l1 1-1 1v2h-1l-2-2c1-2 1-3 0-5v-1-6-4l1-1c0-1 1-3 1-4-1-2-1-8-2-10l-2-11c-2-10-6-20-9-30l-7-15-7-14-2-1c-1-2-2-3-3-5l-1 1-3-6-8-13c-8-13-18-27-30-38-2-2-5-6-7-6-1-2-1-4-2-6-3-5-5-12-7-17l-13-31-15-39c-3-7-6-14-8-20-4-7-6-15-9-22l-14-34c-4-9-7-19-12-27l-6-33v-2c-1-1-1-1-1-2v-2c0-3-1-5-2-8 1-1 3-1 4-1l2 2h0l-1-2v-1l1-1z"></path><path d="M426 597l6 15c1 2 2 4 2 6l1 1-2 2-4-13c-2-3-2-7-4-11h1z" class="F"></path><path d="M433 621l2-2 12 33c1 2 2 4 1 5-1-4-4-8-6-12l-9-24z" class="D"></path><path d="M435 617c1 1 1 2 1 3l1 2 9 18c1 3 2 5 2 8v2l-1 2-12-33-1-1 1-1z" class="J"></path><path d="M437 606c1 1 1 2 3 2l2 6 19 39 7 13h-1c-3-4-5-9-7-13-9-15-18-31-23-47z" class="C"></path><path d="M466 650c1 3 3 6 4 9 1 2 2 3 2 4l1 4 1 1c0 1 0 1 1 2l1 2 1 3c-1 1-2 1-3 2-2-4-4-8-6-11l-7-13h1s1 1 1 2l2-2v-1l1-2z" class="D"></path><path d="M418 628h1c2 2 3 4 4 7l6 10 11 16c9 16 18 31 26 47h-1c0-1-1-2-1-3-1-3-3-5-4-7l-3-6s0-1-1-2-1-2-1-3h-1v-2h-1v-1c-1-1-1-1-1-2-1-1-2-2-2-3h0c-1-1-1 0-1-1l-1-1-1-2h0l-1 2 1 2 2 4h1c1 2 1 3 2 5 2 1 2 4 3 5 2 5 5 9 7 14l1 2v1h-1l-7-14c-4-10-10-20-16-29-8-12-18-24-21-39z" class="F"></path><path d="M487 708c2 14 2 29 1 44 0 4-1 9 0 14l-3 27h-1c0 1 0 1-1 2l1 1-1 1v2h-1l-2-2c1-2 1-3 0-5v-1-6-4l1-1c0-1 1-3 1-4 0-3 1-7 1-10l2-19c1-13 0-25 0-37l2-2z" class="Z"></path><defs><linearGradient id="g" x1="424.626" y1="662.516" x2="442.036" y2="647.102" xlink:href="#B"><stop offset="0" stop-color="#d2b1b4"></stop><stop offset="1" stop-color="#f9e5e9"></stop></linearGradient></defs><path fill="url(#g)" d="M414 615l1-15c0-1 0-3 1-5v1c0 9-1 19 1 27 0 2 0 4 1 5 3 15 13 27 21 39 6 9 12 19 16 29l-2-1c-1-2-2-3-3-5l-1 1-3-6-8-13c-8-13-18-27-30-38-2-2-5-6-7-6-1-2-1-4-2-6l3 2 11 6 1-15z"></path><path d="M318 382v1c3 2 5 5 7 7 1 0 1-1 1-2 6 9 10 19 15 28 2 2 4 7 5 9l89 192-1 1c0-2-1-4-2-6l-6-15h-1l-1-2c-1-2-2-4-3-7-1-1-1-2-3-4 0 0-1-2-2-3-1-4-2-8-4-12l-18-35-5-9-15-29c-1-3-2-5-4-8l-9-16-7-15-6-9 1-1v-1c0 1 1 2 1 3l12 22c4 7 7 14 11 20 1 2 2 4 4 6 0-2-3-5-3-7-1-1-2-3-3-4v-1c-1-2-2-3-2-4-1-1-1-2-2-3l-2-5v-1c-1 0-1-1-2-2 0 0 0-1-1-2v-1c-1-1-1-2-2-3l-2-4c-1-1-2-4-2-5-1-1-1-3-2-4h0c-2-6-5-11-8-16l-16-28-12-21h0l-1-2v-1l1-1z" class="M"></path><path d="M348 448l1-1v-1c0 1 1 2 1 3l12 22c4 7 7 14 11 20 1 2 2 4 4 6 0-2-3-5-3-7-1-1-2-3-3-4v-1c-1-2-2-3-2-4-1-1-1-2-2-3l-2-5v-1c-1 0-1-1-2-2 0 0 0-1-1-2v-1c-1-1-1-2-2-3l-2-4c-1-1-2-4-2-5-1-1-1-3-2-4h0c6 9 11 20 16 29l37 77 15 31c1 3 3 6 4 9h-1l-1-2c-1-2-2-4-3-7-1-1-1-2-3-4 0 0-1-2-2-3-1-4-2-8-4-12l-18-35-5-9-15-29c-1-3-2-5-4-8l-9-16-7-15-6-9z" class="V"></path><defs><linearGradient id="h" x1="350.432" y1="436.313" x2="328.048" y2="451.474" xlink:href="#B"><stop offset="0" stop-color="#221615"></stop><stop offset="1" stop-color="#75272c"></stop></linearGradient></defs><path fill="url(#h)" d="M316 384l2 2 12 21 16 28c3 5 6 10 8 16h0c1 1 1 3 2 4 0 1 1 4 2 5l2 4c1 1 1 2 2 3v1c1 1 1 2 1 2 1 1 1 2 2 2v1l2 5c1 1 1 2 2 3 0 1 1 2 2 4v1c1 1 2 3 3 4 0 2 3 5 3 7-2-2-3-4-4-6-4-6-7-13-11-20l-12-22c0-1-1-2-1-3v1l-1 1h0c-1-1-2-3-3-3 0 1 1 2 2 4 3 1 4 6 6 8 1 2 1 3 2 4-2 0-3-1-4-3-1-1-1-2-2-3l-4-4v-2s-2-1-3-1c0-1-1-2-1-3-1-2-2-4-4-5h-1c2 5 4 8 6 12l6 12c1 3 3 6 4 9 0 2 1 4 2 5l4 10h0c-2-3-3-4-4-7l-4-9c-1-2-3-5-4-7v-1l-1-3c-1 1-1 1-2 1-1-1-1-1-2-1h-1-1-1 0-1l-2 1 2 4 6 16 4 10c2 5 5 10 6 15 1 1 1 1 1 2 1 2 2 3 2 6-4-7-6-15-9-22l-14-34c-4-9-7-19-12-27l-6-33v-2c-1-1-1-1-1-2v-2c0-3-1-5-2-8 1-1 3-1 4-1z"></path><path d="M352 473c-1-3-3-6-4-9l-6-12c-2-4-4-7-6-12h1c2 1 3 3 4 5 0 1 1 2 1 3 1 0 3 1 3 1v2l4 4c1 1 1 2 2 3 1 2 2 3 4 3-1-1-1-2-2-4-2-2-3-7-6-8-1-2-2-3-2-4 1 0 2 2 3 3h0l6 9 7 15 9 16c2 3 3 5 4 8l15 29 5 9 18 35c2 4 3 8 4 12 1 1 2 3 2 3l-2 2c0 2 2 3 2 4-1 0-1 0-1 1s0 1-1 2v2c-1 2-1 4-1 5l-1 15c-2-2-2-7-4-10l-10-20-5-11c-4-9-10-20-9-30h0c0-1 0-2 1-3l-3-6c-1-1-1-2-2-3s-2-2-4-2h0c-1 0-2 0-3-1l-10-26-7-15-4-10c-1-1-2-3-2-5z" class="B"></path><path d="M365 503c2 2 4 6 6 7 2 3 3 6 5 9 2 4 5 7 7 12l11 23c1 3 3 6 4 10h0l-11-23-3-6c-1-1-1-2-2-3s-2-2-4-2h0c-1 0-2 0-3-1l-10-26z" class="Q"></path><path d="M352 473c-1-3-3-6-4-9l-6-12c-2-4-4-7-6-12h1c2 1 3 3 4 5 0 1 1 2 1 3 1 0 3 1 3 1v2l4 4c1 1 1 2 2 3 1 2 2 3 4 3-1-1-1-2-2-4-2-2-3-7-6-8-1-2-2-3-2-4 1 0 2 2 3 3h0l6 9 7 15 9 16c2 3 3 5 4 8h0c-2-3-3-5-5-7l-9-18c-2-3-3-7-5-9-2 0-2 0-4-1-1-2-3-7-5-8-1-1-1 0-2-1-1 0-1-2-1-2l-2-1 2 5 6 11s1 1 1 2c0 2 3 5 4 7l7 15 3 6c0 1 0 2 1 3l6 12c-2-1-4-5-6-7l-7-15-4-10c-1-1-2-3-2-5z" class="H"></path><path d="M352 473c1 1 2 4 3 6 3 6 6 13 10 19l6 12c-2-1-4-5-6-7l-7-15-4-10c-1-1-2-3-2-5z" class="V"></path><path d="M356 515c0-3-1-4-2-6 0-1 0-1-1-2-1-5-4-10-6-15l-4-10-6-16-2-4 2-1h1 0 1 1 1c1 0 1 0 2 1 1 0 1 0 2-1l1 3v1c1 2 3 5 4 7l4 9c1 3 2 4 4 7h0l7 15 10 26c1 1 2 1 3 1h0c2 0 3 1 4 2s1 2 2 3l3 6c-1 1-1 2-1 3h0c-1 10 5 21 9 30l5 11 10 20c2 3 2 8 4 10l-1 15-11-6-3-2c-3-5-5-12-7-17l-13-31-15-39c-3-7-6-14-8-20z" class="B"></path><path d="M375 529c1 1 2 1 3 1h0c2 0 3 1 4 2s1 2 2 3l3 6c-1 1-1 2-1 3h0c-1 10 5 21 9 30l-1 1-19-46z" class="D"></path><path d="M378 530c2 0 3 1 4 2s1 2 2 3l3 6c-1 1-1 2-1 3h0c-1 0-1-1-2-2v-1l-6-11z" class="H"></path><path d="M395 574l5 11 10 20c2 3 2 8 4 10l-1 15-11-6c2-2 3-4 4-6s1-5 1-7c-1-7-5-14-7-21l-6-15 1-1z" class="F"></path></svg>